<?xml version="1.0" encoding="UTF-8" standalone="no"?>
<!-- Created with Inkscape (http://www.inkscape.org/) -->

<svg
   width="210mm"
   height="148mm"
   viewBox="0 0 210 148"
   version="1.1"
   id="svg5"
   inkscape:version="1.1.1 (3bf5ae0d25, 2021-09-20, custom)"
   sodipodi:docname="clara-stern-unlayered.svg"
   xmlns:inkscape="http://www.inkscape.org/namespaces/inkscape"
   xmlns:sodipodi="http://sodipodi.sourceforge.net/DTD/sodipodi-0.dtd"
   xmlns="http://www.w3.org/2000/svg"
   xmlns:svg="http://www.w3.org/2000/svg">
  <sodipodi:namedview
     id="namedview7"
     pagecolor="#ffffff"
     bordercolor="#666666"
     borderopacity="1.0"
     inkscape:pageshadow="2"
     inkscape:pageopacity="0.0"
     inkscape:pagecheckerboard="0"
     inkscape:document-units="mm"
     showgrid="false"
     inkscape:zoom="1.3153862"
     inkscape:cx="353.12823"
     inkscape:cy="220.46757"
     inkscape:window-width="1920"
     inkscape:window-height="1017"
     inkscape:window-x="-8"
     inkscape:window-y="-8"
     inkscape:window-maximized="1"
     inkscape:current-layer="layer1"
     inkscape:lockguides="true" />
  <defs
     id="defs2" />
  <g
     inkscape:label="Außen"
     inkscape:groupmode="layer"
     id="layer1"
     style="display:inline">
    <g
       id="g1281"
       transform="translate(-34.98323,-4.3763213)">
      <path
         style="fill:none;stroke:#000000;stroke-width:0.264583px;stroke-linecap:butt;stroke-linejoin:miter;stroke-opacity:1"
         d="M 35.421098,36.113926 111.72386,4.5893455 156.57361,36.138254 111.72386,67.700261"
         id="path6347"
         sodipodi:nodetypes="cccc" />
      <path
         style="fill:none;stroke:#000000;stroke-width:0.303098px;stroke-linecap:butt;stroke-linejoin:miter;stroke-opacity:1"
         d="M 35.441504,36.108132 111.71021,67.733214"
         id="path6382-0"
         sodipodi:nodetypes="cc" />
      <path
         style="fill:none;stroke:#000000;stroke-width:0.264583px;stroke-linecap:butt;stroke-linejoin:miter;stroke-opacity:1"
         d="m 35.421098,36.113926 31.662956,76.245444 54.022006,9.40512 -9.39585,-54.031276"
         id="use6985"
         sodipodi:nodetypes="cccc" />
      <path
         style="fill:none;stroke:#000000;stroke-width:0.264583px;stroke-linecap:butt;stroke-linejoin:miter;stroke-opacity:1"
         d="m 111.71021,67.733214 16.49188,6.785652"
         id="path14715"
         inkscape:transform-center-x="-8.2695584"
         inkscape:transform-center-y="3.4864374" />
      <path
         style="fill:none;stroke:#000000;stroke-width:0.264583px;stroke-linecap:butt;stroke-linejoin:miter;stroke-opacity:1"
         d="m 128.20209,74.518866 19.27278,-17.551765 9.09874,-20.828844"
         id="path14830"
         sodipodi:nodetypes="ccc" />
      <path
         style="fill:none;stroke:#000000;stroke-width:0.264583px;stroke-linecap:butt;stroke-linejoin:miter;stroke-opacity:1"
         d="m 128.18356,74.563603 1.21694,26.038887 -8.29444,21.162"
         id="use15045"
         sodipodi:nodetypes="ccc" />
      <path
         style="fill:none;stroke:#000000;stroke-width:0.264583px;stroke-linecap:butt;stroke-linejoin:miter;stroke-opacity:1"
         d="m 35.44543,36.138257 1.131096,38.95038 14.853432,34.878443 15.654095,2.39229"
         id="path15440"
         sodipodi:nodetypes="cccc" />
      <path
         id="path19196"
         style="fill:none;fill-rule:evenodd;stroke:#000000"
         transform="matrix(-0.05198219,-0.20877377,-0.20877377,0.05198219,162.7856,81.576722)"
         d="m 249.69708,132.03009 c 0.87876,0.7328 -0.91952,1.6852 -1.43422,1.71987 -2.93206,0.19754 -4.00779,-3.51131 -3.43032,-5.77646 1.34331,-5.26914 7.81537,-6.7143 12.31697,-4.88014 7.93848,3.23451 9.84969,13.27229 6.30656,20.41049 -5.43282,10.9453 -19.67172,13.36882 -29.79406,7.75502 -14.2628,-7.9101 -17.23522,-26.88876 -9.24181,-40.30742 10.64262,-17.865928 34.83841,-21.420481 51.83901,-10.77387 21.73398,13.61088 25.90194,43.4579 12.35418,64.30521 -16.7988,25.85 -52.69838,30.66114 -77.64025,13.9839 -30.19983,-20.19296 -35.68269,-62.52038 -15.66325,-91.790621" />
      <path
         style="fill:none;stroke:#000000;stroke-width:0.264583px;stroke-linecap:butt;stroke-linejoin:miter;stroke-opacity:1"
         d="m 134.53727,45.306753 c 6.40466,-7.16054 8.34446,-8.968828 18.31103,-9.16848"
         id="path19573"
         sodipodi:nodetypes="cc" />
      <path
         id="path20807"
         style="fill:none;fill-rule:evenodd;stroke:#000000"
         transform="matrix(0.26458333,0,0,0.26458333,8.9916997,-0.41341141)"
         d="m 227.73437,137.10937 c -0.24386,-0.0108 -0.0325,-0.48316 0.0244,-0.54931 0.6518,-0.75803 1.80006,-3.7e-4 2.17285,0.64697 1.12337,1.9507 -0.60193,4.16928 -2.41699,4.84618 -3.83312,1.4295 -7.60259,-1.75458 -8.56932,-5.33446 -1.70221,-6.30344 3.45638,-12.10699 9.39939,-13.34225 9.36674,-1.94689 17.68505,5.70686 19.165,14.61177 2.16477,13.02548 -8.506,24.33792 -20.97162,26.03754 -11.36548,1.54963 -22.57289,-4.3265 -28.73737,-13.81005" />
      <path
         style="fill:none;stroke:#000000;stroke-width:0.264583px;stroke-linecap:butt;stroke-linejoin:miter;stroke-opacity:1"
         d="m 40.971152,36.138993 c 9.700543,-1.780388 15.003012,-5.18147 20.355325,3.192181"
         id="path21021"
         sodipodi:nodetypes="cc" />
      <path
         id="path21803"
         style="fill:none;fill-rule:evenodd;stroke:#000000"
         transform="matrix(-0.21404044,0,0,-0.21404044,160.96637,65.644226)"
         d="m 308.20312,137.5 c 0.21064,0.18863 -0.32538,0.4569 -0.4249,0.47446 -1.14038,0.20125 -1.61373,-1.32032 -1.47295,-2.17406 0.42425,-2.57268 3.59842,-3.29549 5.72196,-2.57056 4.48458,1.53093 5.52723,7.15052 3.7673,11.06857 -3.09891,6.89892 -11.98067,8.31616 -18.21393,5.06315 -9.82418,-5.12704 -11.66488,-18.09035 -6.45813,-27.15799 7.61607,-13.26352 25.48037,-15.57448 37.9008,-7.95224 17.21825,10.5666 20.04547,34.15118 9.54546,50.44233 -13.97907,21.68902 -44.10308,25.07813 -64.78258,11.23781 -26.67615,-17.85375 -30.67258,-55.33628 -13.02928,-80.921557 21.1151,-30.619874 63.98263,-36.597912 94.845,-17.57186" />
      <path
         style="fill:none;stroke:#000000;stroke-width:0.264583px;stroke-linecap:butt;stroke-linejoin:miter;stroke-opacity:1"
         d="m 74.569091,36.121827 c 4.021517,1.87711 4.736496,9.408467 10.284099,12.947523"
         id="path22501"
         sodipodi:nodetypes="cc" />
      <path
         style="fill:none;stroke:#000000;stroke-width:0.264583px;stroke-linecap:butt;stroke-linejoin:miter;stroke-opacity:1"
         d="m 94.934273,58.309418 c 8.014937,-1.347013 10.453307,-3.55934 14.103337,-8.467827 4.07868,5.042936 6.65164,6.396592 13.16659,7.667604"
         id="path880"
         sodipodi:nodetypes="ccc" />
      <path
         style="fill:none;stroke:#000000;stroke-width:0.264583px;stroke-linecap:butt;stroke-linejoin:miter;stroke-opacity:1"
         d="m 87.59622,20.559073 c 7.394812,-4.234042 18.20476,-1.246568 21.38971,5.470594 3.45856,-7.006641 15.66918,-7.921047 21.25395,-3.972739 5.49981,3.823332 6.69179,7.140708 5.88242,13.8834 3.10826,-2.969099 5.84396,-4.207516 9.34686,-4.882792"
         id="path1753"
         sodipodi:nodetypes="ccccc" />
      <path
         style="fill:none;stroke:#000000;stroke-width:0.264583px;stroke-linecap:butt;stroke-linejoin:miter;stroke-opacity:1"
         d="m 87.59622,20.559073 c -4.706122,2.999394 -8.023622,7.929839 -7.136015,12.41049 -2.3665,-6.080764 -7.397981,-8.115536 -11.671531,-6.638585"
         id="path3944"
         sodipodi:nodetypes="ccc" />
      <path
         style="fill:none;stroke:#000000;stroke-width:0.264583px;stroke-linecap:butt;stroke-linejoin:miter;stroke-opacity:1"
         d="m 68.788674,26.330978 c -3.585498,1.180163 -5.896605,2.959269 -5.885537,6.896968 -1.799111,-2.347141 -4.90917,-3.178646 -6.549989,-3.333131"
         id="path5562"
         sodipodi:nodetypes="ccc" />
      <path
         style="fill:none;stroke:#000000;stroke-width:0.264583px;stroke-linecap:butt;stroke-linejoin:miter;stroke-opacity:1"
         d="m 103.48342,61.863499 c 8.71518,-1.755656 8.51439,-7.460195 6.08403,-7.637019 -2.92094,0.269939 -0.91379,6.437877 7.36296,7.052367"
         id="path7256"
         sodipodi:nodetypes="ccc" />
      <path
         style="fill:none;stroke:#000000;stroke-width:0.264583px;stroke-linecap:butt;stroke-linejoin:miter;stroke-opacity:1"
         d="m 99.659181,11.909236 c 9.181349,-0.105141 13.894659,7.989499 9.810649,8.476381 -4.3162,-0.528321 1.17423,-8.642676 10.24342,-7.392697"
         id="path7955"
         sodipodi:nodetypes="ccc" />
      <path
         style="fill:none;stroke:#000000;stroke-width:0.264583px;stroke-linecap:butt;stroke-linejoin:miter;stroke-opacity:1"
         d="m 70.052913,48.17054 c 3.076796,-0.995324 3.766158,-1.654031 4.997162,-3.088807 1.474501,3.412893 2.423722,4.640199 4.946563,7.129197"
         id="path9371"
         sodipodi:nodetypes="ccc" />
      <path
         style="fill:none;stroke:#000000;stroke-width:0.264583px;stroke-linecap:butt;stroke-linejoin:miter;stroke-opacity:1"
         d="m 75.003036,22.083693 c 1.699773,0.08708 2.614085,0.259128 3.616234,1.571253 1.172406,-2.643398 2.223087,-3.566661 4.270298,-4.813975"
         id="path10661"
         sodipodi:nodetypes="ccc" />
      <path
         id="path1063"
         style="fill:none;fill-rule:evenodd;stroke:#000000"
         transform="matrix(-0.18438231,0.11086839,-0.11086839,-0.18438231,157.65464,94.042399)"
         d="m 249.69708,132.03009 c 0.87876,0.7328 -0.91952,1.6852 -1.43422,1.71987 -2.93206,0.19754 -4.00779,-3.51131 -3.43032,-5.77646 1.34331,-5.26914 7.81537,-6.7143 12.31697,-4.88014 7.93848,3.23451 9.84969,13.27229 6.30656,20.41049 -5.43282,10.9453 -19.67172,13.36882 -29.79406,7.75502 -14.2628,-7.9101 -17.23522,-26.88876 -9.24181,-40.30742 10.64262,-17.865928 34.83841,-21.420481 51.83901,-10.77387 21.73398,13.61088 25.90194,43.4579 12.35418,64.30521 -16.7988,25.85 -52.69838,30.66114 -77.64025,13.9839 -30.19983,-20.19296 -35.68269,-62.52038 -15.66325,-91.790621" />
      <path
         style="fill:none;stroke:#000000;stroke-width:0.264583px;stroke-linecap:butt;stroke-linejoin:miter;stroke-opacity:1"
         d="m 112.03331,99.714551 c -0.53448,9.592049 -0.44149,12.242349 6.46476,19.430959"
         id="path1065"
         sodipodi:nodetypes="cc" />
      <path
         id="path1067"
         style="fill:none;fill-rule:evenodd;stroke:#000000"
         transform="matrix(0.18708867,0.18708867,0.18708867,-0.18708867,-9.0698501,43.269468)"
         d="m 227.73437,137.10937 c -0.24386,-0.0108 -0.0325,-0.48316 0.0244,-0.54931 0.6518,-0.75803 1.80006,-3.7e-4 2.17285,0.64697 1.12337,1.9507 -0.60193,4.16928 -2.41699,4.84618 -3.83312,1.4295 -7.60259,-1.75458 -8.56932,-5.33446 -1.70221,-6.30344 3.45638,-12.10699 9.39939,-13.34225 9.36674,-1.94689 17.68505,5.70686 19.165,14.61177 2.16477,13.02548 -8.506,24.33792 -20.97162,26.03754 -11.36548,1.54963 -22.57289,-4.3265 -28.73737,-13.81005" />
      <path
         style="fill:none;stroke:#000000;stroke-width:0.264583px;stroke-linecap:butt;stroke-linejoin:miter;stroke-opacity:1"
         d="m 39.389491,40.035902 c 5.600395,8.118245 6.944879,14.272585 16.650601,12.136176"
         id="path1069"
         sodipodi:nodetypes="cc" />
      <path
         id="path1071"
         style="fill:none;fill-rule:evenodd;stroke:#000000"
         transform="matrix(-0.15134945,-0.15134945,-0.15134945,0.15134945,145.10228,104.02199)"
         d="m 308.20312,137.5 c 0.21064,0.18863 -0.32538,0.4569 -0.4249,0.47446 -1.14038,0.20125 -1.61373,-1.32032 -1.47295,-2.17406 0.42425,-2.57268 3.59842,-3.29549 5.72196,-2.57056 4.48458,1.53093 5.52723,7.15052 3.7673,11.06857 -3.09891,6.89892 -11.98067,8.31616 -18.21393,5.06315 -9.82418,-5.12704 -11.66488,-18.09035 -6.45813,-27.15799 7.61607,-13.26352 25.48037,-15.57448 37.9008,-7.95224 17.21825,10.5666 20.04547,34.15118 9.54546,50.44233 -13.97907,21.68902 -44.10308,25.07813 -64.78258,11.23781 -26.67615,-17.85375 -30.67258,-55.33628 -13.02928,-80.921557 21.1151,-30.619874 63.98263,-36.597912 94.845,-17.57186" />
      <path
         style="fill:none;stroke:#000000;stroke-width:0.264583px;stroke-linecap:butt;stroke-linejoin:miter;stroke-opacity:1"
         d="m 63.134684,63.805371 c 4.170959,1.516325 10.001999,-3.303582 16.427237,-1.883325"
         id="path1073"
         sodipodi:nodetypes="cc" />
      <path
         style="fill:none;stroke:#000000;stroke-width:0.264583px;stroke-linecap:butt;stroke-linejoin:miter;stroke-opacity:1"
         d="m 93.224038,62.516734 c 4.714935,6.619898 4.874771,9.908437 3.984908,15.960223 6.449954,-0.681832 9.226494,0.180346 14.732004,3.88837"
         id="path1075"
         sodipodi:nodetypes="ccc" />
      <path
         style="fill:none;stroke:#000000;stroke-width:0.264583px;stroke-linecap:butt;stroke-linejoin:miter;stroke-opacity:1"
         d="m 61.341726,84.021472 c 2.235002,8.222841 11.991253,13.754166 18.993103,11.256515 -2.508872,7.400013 5.478758,16.680813 12.219662,17.837963 6.592457,1.18545 9.781049,-0.31743 13.976549,-5.65755 0.0984,4.29734 1.15714,7.10747 3.15657,10.06189"
         id="path1077"
         sodipodi:nodetypes="ccccc" />
      <path
         style="fill:none;stroke:#000000;stroke-width:0.264583px;stroke-linecap:butt;stroke-linejoin:miter;stroke-opacity:1"
         d="M 61.341726,84.021472 C 60.134887,78.572849 61.275411,72.740671 65.071343,70.200005 59.098225,72.826387 54.10163,70.707393 52.124136,66.641175"
         id="path1079"
         sodipodi:nodetypes="ccc" />
      <path
         style="fill:none;stroke:#000000;stroke-width:0.264583px;stroke-linecap:butt;stroke-linejoin:miter;stroke-opacity:1"
         d="m 52.124136,66.641175 c -1.700829,-3.369831 -2.07701,-6.262049 0.71519,-9.038596 -2.931843,0.387516 -5.71895,-1.223665 -6.988422,-2.274662"
         id="path1081"
         sodipodi:nodetypes="ccc" />
      <path
         style="fill:none;stroke:#000000;stroke-width:0.264583px;stroke-linecap:butt;stroke-linejoin:miter;stroke-opacity:1"
         d="m 101.78231,66.048779 c 4.92113,7.403999 0.74543,11.295737 -1.09813,9.702247 -1.874537,-2.256293 3.90612,-5.198414 10.19318,0.219622"
         id="path1087"
         sodipodi:nodetypes="ccc" />
      <path
         style="fill:none;stroke:#000000;stroke-width:0.264583px;stroke-linecap:butt;stroke-linejoin:miter;stroke-opacity:1"
         d="m 63.755169,98.667632 c 6.417849,6.566538 15.474437,4.175578 12.930883,0.94347 -3.425593,-2.678435 -5.280989,6.941598 2.015766,12.470618"
         id="path1089"
         sodipodi:nodetypes="ccc" />
      <path
         style="fill:none;stroke:#000000;stroke-width:0.264583px;stroke-linecap:butt;stroke-linejoin:miter;stroke-opacity:1"
         d="m 68.46099,52.092225 c 1.471823,2.879423 1.4935,3.832652 1.349411,5.717643 3.45591,-1.37065 4.994947,-1.567286 8.538852,-1.543355"
         id="path1093"
         sodipodi:nodetypes="ccc" />
      <path
         style="fill:none;stroke:#000000;stroke-width:0.264583px;stroke-linecap:butt;stroke-linejoin:miter;stroke-opacity:1"
         d="m 53.515069,74.038677 c 1.263496,1.140346 2.031669,1.665206 3.668108,1.44602 -1.040149,2.698181 -0.950051,4.09397 -0.384438,6.423551"
         id="path1095"
         sodipodi:nodetypes="ccc" />
      <path
         style="fill:none;stroke:#000000;stroke-width:0.264583px;stroke-linecap:butt;stroke-linejoin:miter;stroke-opacity:1"
         d="M 40.971152,36.138994 111.41439,65.14664 152.84597,36.133554"
         id="path16092-6"
         sodipodi:nodetypes="ccc" />
      <path
         style="fill:none;stroke:#000000;stroke-width:0.264583px;stroke-linecap:butt;stroke-linejoin:miter;stroke-opacity:1"
         d="M 40.971152,36.138994 111.41439,7.1313476 152.84597,36.144434"
         id="path16092"
         sodipodi:nodetypes="ccc" />
      <path
         style="fill:none;stroke:#000000;stroke-width:0.264583px;stroke-linecap:butt;stroke-linejoin:miter;stroke-opacity:1"
         d="m 39.386784,40.041911 29.299388,70.322399 49.811898,8.7812"
         id="path16092-6-9"
         sodipodi:nodetypes="ccc" />
      <path
         style="fill:none;stroke:#000000;stroke-width:0.264583px;stroke-linecap:butt;stroke-linejoin:miter;stroke-opacity:1"
         d="m 39.386784,40.041911 70.322396,29.299387 8.7812,49.811902"
         id="path16092-7"
         sodipodi:nodetypes="ccc" />
    </g>
  </g>
  <g
     inkscape:groupmode="layer"
     id="layer2"
     inkscape:label="Innenkante"
     style="display:inline" />
  <g
     inkscape:groupmode="layer"
     id="layer3"
     inkscape:label="Muster"
     style="display:inline" />
  <g
     inkscape:groupmode="layer"
     id="layer4"
     inkscape:label="Klebedingsis"
     style="display:inline" />
</svg>
