<?xml version="1.0" encoding="UTF-8" standalone="no"?>
<!-- Created with Inkscape (http://www.inkscape.org/) -->

<svg
   width="1324.1746"
   height="1017.9836"
   viewBox="0 0 350.35452 269.34151"
   version="1.1"
   id="svg5"
   sodipodi:docname="kaffee-export-julia.svg"
   inkscape:version="1.1.1 (3bf5ae0d25, 2021-09-20, custom)"
   inkscape:export-filename="/home/rixx/src/art.rixx.de/projects/2021-12-16-kaffee-mit-mama/kaffee-export-julia.png"
   inkscape:export-xdpi="96"
   inkscape:export-ydpi="96"
   xmlns:inkscape="http://www.inkscape.org/namespaces/inkscape"
   xmlns:sodipodi="http://sodipodi.sourceforge.net/DTD/sodipodi-0.dtd"
   xmlns="http://www.w3.org/2000/svg"
   xmlns:svg="http://www.w3.org/2000/svg">
  <sodipodi:namedview
     id="namedview7"
     pagecolor="#ffffff"
     bordercolor="#666666"
     borderopacity="1.0"
     inkscape:pageshadow="2"
     inkscape:pageopacity="0.0"
     inkscape:pagecheckerboard="0"
     inkscape:document-units="mm"
     showgrid="false"
     inkscape:zoom="0.44925404"
     inkscape:cx="332.77386"
     inkscape:cy="578.73715"
     inkscape:window-width="1920"
     inkscape:window-height="1019"
     inkscape:window-x="0"
     inkscape:window-y="61"
     inkscape:window-maximized="1"
     inkscape:current-layer="layer1"
     units="px"
     lock-margins="true"
     fit-margin-top="12"
     fit-margin-left="12"
     fit-margin-right="12"
     fit-margin-bottom="12" />
  <defs
     id="defs2" />
  <g
     inkscape:label="Layer 1"
     inkscape:groupmode="layer"
     id="layer1"
     transform="translate(-8.8250568,-8.8248182)">
    <g
       id="g109306"
       style="stroke-width:2.5;stroke-miterlimit:4;stroke-dasharray:none">
      <path
         d="m 74.755465,271.69239 2.395496,-0.65496 -1.036513,0.29058 -0.345503,-8.27923 -0.36854,-2.76743 -0.207312,-6.31897 1.358983,-0.20756 -3.256953,0.43817 m 13.207478,0.41512 -2.764033,-0.27676 1.312915,0.20757 -2.764036,3.06723 -2.764033,3.41317 -2.464596,2.30619 -1.01348,0.2998 1.819654,-0.57654 1.750557,-0.0692 1.220781,0.64573 0.944379,1.4529 0.944379,1.59127 1.819654,2.62445 1.382017,1.01703 1.382019,-0.29057 0.852242,-0.94323 0.161232,-0.58347 -0.437641,-1.08622 -0.667973,-0.57655 -0.644943,0.43818"
         style="fill:none;stroke:#3bb1e6;stroke-width:2.5;stroke-linecap:round;stroke-linejoin:round;stroke-miterlimit:4;stroke-dasharray:none;stroke-opacity:1"
         id="path14764" />
      <path
         d="m 89.773387,261.80344 -0.36854,-1.4529 0.667977,-1.08391 1.451117,-0.94554 1.888758,0.43818 1.013479,1.59127 0.276415,1.96026 0.0691,2.99805 -0.345503,1.1531 -1.451121,1.01472 -1.543251,0.80025 -1.358983,0.21677 -1.096401,-0.65265 -0.07372,-1.60972 0.571234,-1.01473 1.612355,-0.41511 h 2.026957 l 0.575842,0.13838 0.875278,0.94554 0.276415,0.94553 0.09213,1.44599 v 1.59819 l 0.0691,0.58116 0.783144,0.14528 h 0.437637 0.506742 l 0.598872,-0.29057"
         style="fill:none;stroke:#3bb1e6;stroke-width:2.5;stroke-linecap:round;stroke-linejoin:round;stroke-miterlimit:4;stroke-dasharray:none;stroke-opacity:1"
         id="path14766" />
      <path
         d="m 98.318849,274.74118 4.353351,-0.80717 -2.09606,0.29981 -0.644936,-8.34842 -0.161231,-5.23505 2.326397,-0.0692 0.64494,-0.29981 -1.22078,0.29981 -3.201675,0.0692 -0.285606,-0.0692 1.897971,0.0692 0.13821,-4.7277 0.36853,-2.53681 0.78315,-1.38371 1.52022,-0.71492 1.61235,-0.0922 1.38202,0.94554 0.57584,0.80716 0.0691,0.57655"
         style="fill:none;stroke:#3bb1e6;stroke-width:2.5;stroke-linecap:round;stroke-linejoin:round;stroke-miterlimit:4;stroke-dasharray:none;stroke-opacity:1"
         id="path14768" />
      <path
         d="m 104.99863,274.74118 4.35335,-0.80717 -2.09606,0.29981 -0.64494,-8.34842 -0.16123,-5.23505 2.3264,-0.0692 0.64494,-0.29981 -1.22078,0.29981 -3.20168,0.0692 -0.2856,-0.0692 1.89797,0.0692 0.13821,-4.7277 0.36853,-2.53681 0.78315,-1.38371 1.52021,-0.71492 1.61236,-0.0922 1.38202,0.94554 0.57583,0.80716 0.0691,0.57655"
         style="fill:none;stroke:#3bb1e6;stroke-width:2.5;stroke-linecap:round;stroke-linejoin:round;stroke-miterlimit:4;stroke-dasharray:none;stroke-opacity:1"
         id="path14770" />
      <path
         d="m 116.76871,268.85808 -0.87528,1.23497 -1.58932,0.50851 -1.68145,-1.09083 -0.71405,-2.84123 0.20731,-3.25173 1.08259,-2.83661 0.80617,-0.50736 1.08258,0.13837 0.80618,0.80717 1.01348,2.53681 -2.3264,0.13838 -2.39549,0.0692"
         style="fill:none;stroke:#3bb1e6;stroke-width:2.5;stroke-linecap:round;stroke-linejoin:round;stroke-miterlimit:4;stroke-dasharray:none;stroke-opacity:1"
         id="path14772" />
      <path
         d="m 124.73853,268.85808 -0.87528,1.23497 -1.58932,0.50851 -1.68145,-1.09083 -0.71405,-2.84123 0.20732,-3.25173 1.08258,-2.83661 0.80617,-0.50736 1.08258,0.13837 0.80618,0.80717 1.01348,2.53681 -2.3264,0.13838 -2.39549,0.0692"
         style="fill:none;stroke:#3bb1e6;stroke-width:2.5;stroke-linecap:round;stroke-linejoin:round;stroke-miterlimit:4;stroke-dasharray:none;stroke-opacity:1"
         id="path14774" />
      <path
         d="m 136.62368,270.82065 1.38202,-0.50967 1.79662,-0.29057 -1.86572,0.29057 -0.0921,-6.61646 -0.50674,-4.12809 1.01348,-0.2998 -2.74561,0.57654 1.82426,-0.27675 0.64495,5.00443 1.31291,-2.60599 2.23426,-1.68352 1.08258,-0.13838 0.59887,0.80717 0.27642,2.97499 v 2.39844 l 0.73708,-3.20561 1.52021,-2.53681 1.58933,-1.31453 1.24381,-0.13838 0.57584,1.52209 0.20731,3.11336 -0.13821,5.31346 -1.58931,0.58001 3.54717,-0.7991"
         style="fill:none;stroke:#3bb1e6;stroke-width:2.5;stroke-linecap:round;stroke-linejoin:round;stroke-miterlimit:4;stroke-dasharray:none;stroke-opacity:1"
         id="path14776" />
      <path
         d="m 152.6505,268.71279 h 0.0714 l 3.71071,-0.43587 -1.75055,0.14529 0.29944,-8.57904 h -1.61236 m 0.50674,-6.01916 v 0.87636 l 0.94438,0.13837 v -1.01472 h -0.94438"
         style="fill:none;stroke:#3bb1e6;stroke-width:2.5;stroke-linecap:round;stroke-linejoin:round;stroke-miterlimit:4;stroke-dasharray:none;stroke-opacity:1"
         id="path14778" />
      <path
         d="m 163.59604,267.98634 0.80618,-0.71722 0.87527,0.42664 0.13821,1.01703 -0.43764,1.23497 -1.52022,0.72529 -1.31292,-0.21677 -1.15168,-1.4529 -0.16123,-2.91041 -0.27641,-6.89551 -1.74595,0.2998 3.91111,-0.50736 -2.16516,0.20757 -0.13821,-4.42789"
         style="fill:none;stroke:#3bb1e6;stroke-width:2.5;stroke-linecap:round;stroke-linejoin:round;stroke-miterlimit:4;stroke-dasharray:none;stroke-opacity:1"
         id="path14780" />
      <path
         d="m 174.49106,269.58453 3.47808,-0.36438 -1.08258,0.0738 1.38201,-12.12596 0.43764,-5.8116 4.35336,13.95246 3.91571,-5.39649 2.02696,-3.11336 1.31292,-2.53681 1.15168,-2.39844 0.13821,-0.94554 -0.34551,3.34398 0.57584,4.86607 0.50674,4.79687 0.57584,5.36882 2.6028,-0.50737 -4.49155,0.87059"
         style="fill:none;stroke:#3bb1e6;stroke-width:2.5;stroke-linecap:round;stroke-linejoin:round;stroke-miterlimit:4;stroke-dasharray:none;stroke-opacity:1"
         id="path14782" />
      <path
         d="m 197.63988,261.80344 -0.36854,-1.4529 0.66798,-1.08391 1.45112,-0.94554 1.88875,0.43818 1.01348,1.59127 0.27642,1.96026 0.0691,2.99805 -0.3455,1.1531 -1.45112,1.01472 -1.54325,0.80025 -1.35899,0.21677 -1.0964,-0.65265 -0.0737,-1.60972 0.57123,-1.01473 1.61236,-0.41511 h 2.02695 l 0.57585,0.13838 0.87527,0.94554 0.27642,0.94553 0.0921,1.44599 v 1.59819 l 0.0691,0.58116 0.78314,0.14528 h 0.43764 0.50674 l 0.59888,-0.29057"
         style="fill:none;stroke:#3bb1e6;stroke-width:2.5;stroke-linecap:round;stroke-linejoin:round;stroke-miterlimit:4;stroke-dasharray:none;stroke-opacity:1"
         id="path14784" />
      <path
         d="m 206.48473,270.82065 1.38202,-0.50967 1.79662,-0.29057 -1.86572,0.29057 -0.0921,-6.61646 -0.50674,-4.12809 1.01348,-0.2998 -2.74561,0.57654 1.82426,-0.27675 0.64494,5.00443 1.31292,-2.60599 2.23426,-1.68352 1.08258,-0.13838 0.59887,0.80717 0.27642,2.97499 v 2.39844 l 0.73708,-3.20561 1.52021,-2.53681 1.58933,-1.31453 1.24381,-0.13838 0.57584,1.52209 0.20731,3.11336 -0.13821,5.31346 -1.58931,0.58001 3.54717,-0.7991"
         style="fill:none;stroke:#3bb1e6;stroke-width:2.5;stroke-linecap:round;stroke-linejoin:round;stroke-miterlimit:4;stroke-dasharray:none;stroke-opacity:1"
         id="path14786" />
      <path
         d="m 223.59874,261.80344 -0.36854,-1.4529 0.66798,-1.08391 1.45111,-0.94554 1.88876,0.43818 1.01348,1.59127 0.27642,1.96026 0.0691,2.99805 -0.3455,1.1531 -1.45112,1.01472 -1.54325,0.80025 -1.35899,0.21677 -1.0964,-0.65265 -0.0737,-1.60972 0.57123,-1.01473 1.61236,-0.41511 h 2.02695 l 0.57584,0.13838 0.87528,0.94554 0.27642,0.94553 0.0921,1.44599 v 1.59819 l 0.0691,0.58116 0.78314,0.14528 h 0.43764 0.50674 l 0.59887,-0.29057"
         style="fill:none;stroke:#3bb1e6;stroke-width:2.5;stroke-linecap:round;stroke-linejoin:round;stroke-miterlimit:4;stroke-dasharray:none;stroke-opacity:1"
         id="path14788" />
      <path
         d="m 242.67039,267.54586 1.38201,-4.93525 1.52022,-5.5118 0.29944,-2.05251 m 4.86009,-0.20757 -0.59887,1.59127 -3.10954,11.62782 m 4.92919,-4.20188 -3.68537,0.20757 h -4.07696 l -3.62549,0.50736 m 0.44685,-5.00444 4.69886,-0.36899 4.07695,0.13838 2.09606,-0.20756 h 0.57584"
         style="fill:none;stroke:#3bb1e6;stroke-width:2.5;stroke-linecap:round;stroke-linejoin:round;stroke-miterlimit:4;stroke-dasharray:none;stroke-opacity:1"
         id="path14790" />
      <path
         d="m 256.02991,270.60156 3.27078,-1.23612 2.30336,-1.59819 0.59887,-1.23612 -0.16123,-1.22228 -0.78315,-1.17616 -0.73707,-0.71492 -1.08258,-0.2998 -2.3264,0.43817 2.3955,-0.50736 2.4646,-1.59127 1.24381,-1.89108 0.34551,-1.96026 -0.20732,-1.96026 -0.73707,-1.54515 -1.65842,-1.36066 -1.88876,-0.66879 -2.32639,0.16143 -3.11415,0.20757 h 2.60741 l 1.08258,17.87068"
         style="fill:none;stroke:#3bb1e6;stroke-width:2.5;stroke-linecap:round;stroke-linejoin:round;stroke-miterlimit:4;stroke-dasharray:none;stroke-opacity:1"
         id="path14792" />
      <path
         d="m 265.95525,258.04435 h 2.3978 l -0.80619,0.20756 -0.27635,4.79688 v 2.83662 l 0.64493,1.29147 0.64496,0.80947 0.50671,0.0715 0.9444,-1.22689 0.87527,-1.01473 0.68803,-1.24534 1.20064,-2.53681 0.87526,-1.75271 0.27635,-1.72964 0.0922,6.38815 0.27636,3.99202 -1.01347,0.36207 1.08257,-0.36207 1.68145,-0.21909"
         style="fill:none;stroke:#3bb1e6;stroke-width:2.5;stroke-linecap:round;stroke-linejoin:round;stroke-miterlimit:4;stroke-dasharray:none;stroke-opacity:1"
         id="path14794"
         sodipodi:nodetypes="ccccccccccccccccccc" />
      <path
         d="m 278.94837,269.29395 -0.95359,-0.29057 -1.2323,0.79909 -0.43535,1.38026 1.01579,1.80575 2.04309,0.43817 2.30333,-0.57654 1.75055,-1.66738 0.87527,-2.17935 v -2.40305 l -0.73706,-4.28952 -1.58932,-8.27923 -1.81966,0.57655 3.9848,-1.08391"
         style="fill:none;stroke:#3bb1e6;stroke-width:2.5;stroke-linecap:round;stroke-linejoin:round;stroke-miterlimit:4;stroke-dasharray:none;stroke-opacity:1"
         id="path14796" />
      <path
         d="m 292.49221,258.98989 -1.35899,-0.29981 -1.88873,0.64574 -0.80619,1.52208 0.069,2.1217 0.80619,1.38371 1.88873,0.94554 2.46462,-0.80717 1.01347,-1.82189 0.069,-2.16782 -0.87529,-1.17615 h -1.15168"
         style="fill:none;stroke:#3bb1e6;stroke-width:2.5;stroke-linecap:round;stroke-linejoin:round;stroke-miterlimit:4;stroke-dasharray:none;stroke-opacity:1"
         id="path14798" />
      <path
         id="path965-0"
         style="fill:none;fill-opacity:1;stroke:#3bb1e6;stroke-width:2.5;stroke-linecap:butt;stroke-linejoin:miter;stroke-miterlimit:4;stroke-dasharray:none;stroke-opacity:1"
         d="m 91.757932,171.26097 c -5.360949,16.98522 -12.754714,34.41048 -22.945574,49.72584 0,0 51.220082,1.57423 73.838722,-27.32565 0,0 7.91297,-8.46459 -33.75772,-95.423608 -0.12477,0.0478 -0.25005,0.09422 -0.37582,0.139301 -0.25511,0.08833 -0.51211,0.171068 -0.77082,0.248179 -0.25908,0.07722 -0.51981,0.148744 -0.78201,0.214558 -0.262,0.0655 -0.5254,0.125315 -0.79001,0.179332 -0.26438,0.05435 -0.52991,0.102942 -0.79641,0.145711 h -0.008 v 0 c -0.83642,11.227867 -3.24193,34.038777 -9.932288,59.371707"
         sodipodi:nodetypes="cccccsccccsc" />
      <path
         id="path15037"
         style="fill:none;fill-opacity:1;stroke:#3bb1e6;stroke-width:2.5;stroke-linecap:butt;stroke-linejoin:miter;stroke-miterlimit:4;stroke-dasharray:none;stroke-opacity:1"
         d="M 129.90218,13.569023 V 145.21922 c 0.23122,0.57102 0.48334,1.17787 0.70685,1.73568 0.69654,1.73837 1.35567,3.41296 1.97982,5.02609 0.62415,1.61311 1.21319,3.16536 1.76873,4.65781 0.55553,1.49245 1.07653,2.92598 1.56722,4.30235 0.49069,1.37639 0.95051,2.69482 1.38012,3.95971 0.42961,1.26491 0.8303,2.47506 1.20261,3.63307 0.3723,1.15802 0.71592,2.26511 1.03469,3.32083 0.31876,1.05573 0.61215,2.0602 0.88116,3.01822 0.0876,0.31202 0.15728,0.58827 0.23988,0.89025 l 74.56956,6.55201 V 22.761369 Z" />
      <path
         id="path3485"
         style="fill:none;stroke:#3bb1e6;stroke-width:2.5;stroke-linecap:butt;stroke-linejoin:miter;stroke-miterlimit:4;stroke-dasharray:none;stroke-opacity:1"
         d="m 301.41585,14.697852 -3.24319,200.029968 11.89972,4.65142 V 13.887657 Z" />
      <path
         id="path14932"
         style="fill:none;stroke:#3bb1e6;stroke-width:2.5;stroke-linecap:butt;stroke-linejoin:miter;stroke-miterlimit:4;stroke-dasharray:none;stroke-opacity:1"
         d="m 298.6924,14.952439 -83.45958,7.80893 c 0.66574,-0.05829 1.34981,-0.1004 2.05179,-0.128094 0.70198,-0.02769 1.42284,-0.04123 2.15893,-0.04163 0.73609,-4.06e-4 1.48843,0.01164 2.25649,0.03523 0.76806,0.02358 1.55135,0.05821 2.34924,0.102475 0.7979,0.04427 1.61,0.09847 2.4356,0.160117 0.8256,0.06165 1.66439,0.130823 2.51556,0.206552 1.70231,0.151456 3.45366,0.327615 5.24541,0.515578 1.79174,0.187963 3.6244,0.387979 5.48848,0.58603 1.86408,0.198051 3.75948,0.394703 5.6788,0.576423 0.95966,0.09086 1.9259,0.177566 2.89617,0.25939 0.97026,0.08183 1.94462,0.157881 2.92335,0.227367 0.97873,0.06949 1.96068,0.131891 2.94575,0.185737 0.98506,0.05384 1.97248,0.0996 2.96174,0.134498 0.98925,0.0349 1.98161,0.05939 2.97292,0.07205 0.99133,0.01266 1.9817,0.01289 2.97293,0 0.99125,-0.01289 1.98232,-0.03832 2.97134,-0.08006 0.98902,-0.04174 1.97706,-0.09904 2.96174,-0.172928 0.98467,-0.07389 1.96596,-0.164455 2.94414,-0.2738 0.48909,-0.05467 0.97781,-0.113576 1.46488,-0.177731 0.48706,-0.06416 0.9721,-0.134101 1.45688,-0.208153 0.48477,-0.07405 0.96826,-0.152614 1.45048,-0.236974 0.48223,-0.08436 0.96309,-0.173916 1.44249,-0.268997 0.4794,-0.09508 0.95818,-0.196408 1.43449,-0.302622 0.47631,-0.106215 0.95035,-0.216885 1.4233,-0.334646 0.47294,-0.11776 0.94437,-0.241752 1.4137,-0.371472 0.46932,-0.129721 0.93708,-0.266207 1.40251,-0.4083 0.46542,-0.142092 0.92844,-0.290248 1.38971,-0.445126 0.46127,-0.154878 0.92008,-0.315479 1.37692,-0.483555 0.45684,-0.168076 0.91198,-0.343499 1.36412,-0.525185 0.45216,-0.181686 0.90255,-0.371107 1.34974,-0.566816 0.44719,-0.19571 0.89178,-0.398301 1.33374,-0.608447 0.44196,-0.210145 0.88128,-0.426684 1.31775,-0.651678 0.43647,-0.224995 0.86945,-0.457856 1.30016,-0.698112 0.4307,-0.240257 0.85789,-0.488616 1.28257,-0.744546 0.42467,-0.255932 0.84659,-0.518962 1.26497,-0.790981 0.41838,-0.272018 0.83397,-0.552098 1.24578,-0.840617 0.41182,-0.288518 0.82002,-0.586423 1.225,-0.891854 0.26575,-0.200425 0.5273,-0.410199 0.79001,-0.618053 z" />
      <path
         style="fill:none;fill-opacity:1;stroke:#3bb1e6;stroke-width:2.5;stroke-linecap:butt;stroke-linejoin:miter;stroke-miterlimit:4;stroke-dasharray:none;stroke-opacity:1"
         d="m 215.23302,22.760805 c 21.30344,-1.865148 61.71186,12.777895 86.21693,-10.175478 l -3.43257,211.675593 c -43.19114,1.06688 -55.18957,-27.96329 -82.78436,-41.94494 z"
         id="path1538"
         sodipodi:nodetypes="ccccc" />
      <path
         id="path3309-51"
         style="fill:none;stroke:#3bb1e6;stroke-width:2.5;stroke-linecap:square;stroke-linejoin:round;stroke-miterlimit:4;stroke-dasharray:none;stroke-opacity:1"
         d="m 143.71071,85.726152 a 2.2366458,2.2393938 0 0 1 -2.23665,2.239392 2.2366458,2.2393938 0 0 1 -2.23664,-2.239392 2.2366458,2.2393938 0 0 1 2.23664,-2.239396 2.2366458,2.2393938 0 0 1 2.23665,2.239396 z" />
      <path
         id="path3309"
         style="fill:none;stroke:#3bb1e6;stroke-width:2.5;stroke-linecap:square;stroke-linejoin:round;stroke-miterlimit:4;stroke-dasharray:none;stroke-opacity:1"
         d="m 143.71071,30.884673 a 2.2366458,2.2393938 0 0 1 -2.23665,2.239395 2.2366458,2.2393938 0 0 1 -2.23664,-2.239395 2.2366458,2.2393938 0 0 1 2.23664,-2.239392 2.2366458,2.2393938 0 0 1 2.23665,2.239392 z" />
      <path
         style="fill:none;fill-opacity:1;stroke:#3bb1e6;stroke-width:2.5;stroke-linecap:butt;stroke-linejoin:miter;stroke-miterlimit:4;stroke-dasharray:none;stroke-opacity:1"
         d="m 27.002449,147.26424 c -4.687398,-8.94755 -13.651818,-11.89767 -14.723326,-3.26259 -0.605121,14.63437 8.336492,22.67207 12.298895,24.02819 5.529588,1.24376 8.687188,-2.10163 7.637665,-8.56741"
         id="path7830"
         sodipodi:nodetypes="cccc" />
      <path
         id="path5822"
         style="fill:none;fill-opacity:1;stroke:#3bb1e6;stroke-width:2.5;stroke-linecap:butt;stroke-linejoin:miter;stroke-miterlimit:4;stroke-dasharray:none;stroke-opacity:1"
         d="m 103.38248,118.02167 c -25.174583,-7.55318 -59.688141,-7.62069 -81.72763,2.8661 0.754833,29.90017 20.683703,55.83 29.983591,68.52708 9.717727,4.05189 20.909909,3.81893 29.983588,0 2.351565,-2.9259 4.906239,-6.36485 7.50829,-10.28595 0.04511,-0.12815 0.09266,-0.25613 0.137533,-0.38428 0.318626,-0.91006 0.632192,-1.81911 0.938732,-2.7284 0.306541,-0.9093 0.60568,-1.81904 0.900356,-2.7268 0.294685,-0.90776 0.367942,-1.12299 0.650992,-2.02845 -2.208161,-3.27301 -1.557922,-9.74998 -0.211348,-14.67356 1.269182,1.11334 3.142816,1.93563 3.905319,1.89205 0,0 0.234806,-0.8949 0.350322,-1.34109 0.228411,-0.88227 0.451893,-1.76182 0.670069,-2.63713 0.218169,-0.87532 0.431514,-1.74715 0.639684,-2.61473 0.208163,-0.86758 0.410897,-1.73162 0.609299,-2.59069 0.198394,-0.85908 0.393251,-1.71369 0.582106,-2.56349 0.188864,-0.84979 0.372176,-1.69492 0.551729,-2.53465 0.179554,-0.83974 0.354064,-1.67374 0.524545,-2.50265 0.170482,-0.8289 0.337311,-1.6517 0.49895,-2.46901 0.161643,-0.8173 0.318743,-1.62885 0.471763,-2.43378 0.15303,-0.80493 0.30153,-1.60358 0.44619,-2.39536 0.14465,-0.79177 0.28568,-1.57588 0.42219,-2.35373 0.27301,-1.55569 0.52899,-3.08401 0.77082,-4.57935 0.24181,-1.49535 0.46877,-2.95843 0.68126,-4.38723 0.21248,-1.42879 0.4115,-2.82301 0.5965,-4.17906 0.041,-0.30058 0.0754,-0.57903 0.11515,-0.87584 z"
         sodipodi:nodetypes="cccccssscccssssssssssssssc" />
      <path
         id="path7016"
         style="fill:none;fill-opacity:1;stroke:#3bb1e6;stroke-width:2.5;stroke-linecap:butt;stroke-linejoin:miter;stroke-miterlimit:4;stroke-dasharray:none;stroke-opacity:1"
         d="m 21.65485,120.88777 c 22.048447,8.7474 59.275272,10.99016 80.71533,4.16306"
         sodipodi:nodetypes="cc" />
      <path
         id="path3309-5"
         style="fill:none;stroke:#3bb1e6;stroke-width:2.5;stroke-linecap:square;stroke-linejoin:round;stroke-miterlimit:4;stroke-dasharray:none;stroke-opacity:1"
         d="m 143.71071,49.165165 a 2.2366458,2.2393938 0 0 1 -2.23665,2.239392 2.2366458,2.2393938 0 0 1 -2.23664,-2.239392 2.2366458,2.2393938 0 0 1 2.23664,-2.239395 2.2366458,2.2393938 0 0 1 2.23665,2.239395 z" />
      <path
         id="path3309-1"
         style="fill:none;stroke:#3bb1e6;stroke-width:2.5;stroke-linecap:square;stroke-linejoin:round;stroke-miterlimit:4;stroke-dasharray:none;stroke-opacity:1"
         d="m 143.71071,67.445653 a 2.2366458,2.2393938 0 0 1 -2.23665,2.239396 2.2366458,2.2393938 0 0 1 -2.23664,-2.239396 2.2366458,2.2393938 0 0 1 2.23664,-2.239392 2.2366458,2.2393938 0 0 1 2.23665,2.239392 z" />
      <path
         id="path3309-15"
         style="fill:none;stroke:#3bb1e6;stroke-width:2.5;stroke-linecap:square;stroke-linejoin:round;stroke-miterlimit:4;stroke-dasharray:none;stroke-opacity:1"
         d="m 143.71071,104.00665 a 2.2366458,2.2393938 0 0 1 -2.23665,2.23939 2.2366458,2.2393938 0 0 1 -2.23664,-2.23939 2.2366458,2.2393938 0 0 1 2.23664,-2.2394 2.2366458,2.2393938 0 0 1 2.23665,2.2394 z" />
      <path
         id="path3309-51-8"
         style="fill:none;stroke:#3bb1e6;stroke-width:2.5;stroke-linecap:square;stroke-linejoin:round;stroke-miterlimit:4;stroke-dasharray:none;stroke-opacity:1"
         d="m 225.91542,94.371584 a 1.4524625,2.2393938 0 0 1 -1.45247,2.239392 1.4524625,2.2393938 0 0 1 -1.45246,-2.239392 1.4524625,2.2393938 0 0 1 1.45246,-2.239395 1.4524625,2.2393938 0 0 1 1.45247,2.239395 z" />
      <path
         id="path3309-7"
         style="fill:none;stroke:#3bb1e6;stroke-width:2.5;stroke-linecap:square;stroke-linejoin:round;stroke-miterlimit:4;stroke-dasharray:none;stroke-opacity:1"
         d="m 225.91542,39.530105 a 1.4524625,2.2393938 0 0 1 -1.45247,2.239395 1.4524625,2.2393938 0 0 1 -1.45246,-2.239395 1.4524625,2.2393938 0 0 1 1.45246,-2.239392 1.4524625,2.2393938 0 0 1 1.45247,2.239392 z" />
      <path
         id="path3309-5-0"
         style="fill:none;stroke:#3bb1e6;stroke-width:2.5;stroke-linecap:square;stroke-linejoin:round;stroke-miterlimit:4;stroke-dasharray:none;stroke-opacity:1"
         d="m 225.91542,57.810597 a 1.4524625,2.2393938 0 0 1 -1.45247,2.239392 1.4524625,2.2393938 0 0 1 -1.45246,-2.239392 1.4524625,2.2393938 0 0 1 1.45246,-2.239395 1.4524625,2.2393938 0 0 1 1.45247,2.239395 z" />
      <path
         id="path3309-1-1"
         style="fill:none;stroke:#3bb1e6;stroke-width:2.5;stroke-linecap:square;stroke-linejoin:round;stroke-miterlimit:4;stroke-dasharray:none;stroke-opacity:1"
         d="m 225.91542,76.091086 a 1.4524625,2.2393938 0 0 1 -1.45247,2.239395 1.4524625,2.2393938 0 0 1 -1.45246,-2.239395 1.4524625,2.2393938 0 0 1 1.45246,-2.239392 1.4524625,2.2393938 0 0 1 1.45247,2.239392 z" />
      <path
         id="path3309-15-5"
         style="fill:none;stroke:#3bb1e6;stroke-width:2.5;stroke-linecap:square;stroke-linejoin:round;stroke-miterlimit:4;stroke-dasharray:none;stroke-opacity:1"
         d="m 225.91542,112.65208 a 1.4524625,2.2393938 0 0 1 -1.45247,2.23939 1.4524625,2.2393938 0 0 1 -1.45246,-2.23939 1.4524625,2.2393938 0 0 1 1.45246,-2.2394 1.4524625,2.2393938 0 0 1 1.45247,2.2394 z" />
      <path
         style="fill:none;fill-opacity:1;stroke:#3bb1e6;stroke-width:2.5;stroke-linecap:butt;stroke-linejoin:miter;stroke-miterlimit:4;stroke-dasharray:none;stroke-opacity:1"
         d="m 91.546587,156.58741 c -3.049035,11.00163 -0.008,16.27461 2.554847,16.14631 4.187846,-0.0499 8.121776,-7.28847 10.747116,-16.04097 -5.875756,4.28465 -11.088374,1.54293 -13.301963,-0.10535 z"
         id="path10532"
         sodipodi:nodetypes="cccc" />
      <path
         id="path1274"
         style="fill:none;stroke:#3bb1e6;stroke-width:2.5;stroke-linecap:square;stroke-linejoin:round;stroke-miterlimit:4;stroke-dasharray:none;stroke-opacity:1"
         d="M 120.79331,77.869173 A 18.574259,18.597079 0 0 1 105.37757,99.164087 18.574259,18.597079 0 0 1 84.108785,83.729412 18.574259,18.597079 0 0 1 99.52452,62.434495 18.574259,18.597079 0 0 1 120.79331,77.869173 Z" />
      <path
         style="fill:none;fill-opacity:1;stroke:#3bb1e6;stroke-width:2.5;stroke-linecap:butt;stroke-linejoin:miter;stroke-miterlimit:4;stroke-dasharray:none;stroke-opacity:1"
         d="m 311.10808,106.97111 19.63373,109.26945 8.45925,6.05459 9.82357,-1.76946 6.71114,-6.82373 -19.88329,-110.65811 -18.85663,-23.549332 z m 0,0 8.45922,6.05459 9.82356,-1.76946 6.71115,-6.82373"
         id="path2022"
         sodipodi:nodetypes="cccccccccccc" />
      <path
         style="fill:none;fill-opacity:1;stroke:#3bb1e6;stroke-width:2.5;stroke-linecap:butt;stroke-linejoin:miter;stroke-miterlimit:4;stroke-dasharray:none;stroke-opacity:1"
         d="M 339.20106,222.29513 319.56733,113.02567"
         id="path2776" />
      <path
         style="fill:none;fill-opacity:1;stroke:#3bb1e6;stroke-width:2.5;stroke-linecap:butt;stroke-linejoin:miter;stroke-miterlimit:4;stroke-dasharray:none;stroke-opacity:1"
         d="M 349.02463,220.52568 329.39089,111.25622"
         id="path2778" />
      <path
         style="fill:#3bb1e6;fill-opacity:1;stroke:#3bb1e6;stroke-width:2.5;stroke-linecap:butt;stroke-linejoin:miter;stroke-opacity:1;stroke-miterlimit:4;stroke-dasharray:none"
         d="m 314.07601,94.333845 c 4.6617,3.308525 10.17407,1.101841 12.28843,-2.87657 l -9.36859,-11.962764 z"
         id="path2291"
         sodipodi:nodetypes="cccc" />
      <path
         id="path1438"
         style="fill:#3bb1e6;fill-opacity:1;stroke:#3bb1e6;stroke-width:2.5;stroke-linecap:square;stroke-linejoin:round;stroke-miterlimit:4;stroke-dasharray:none;stroke-opacity:1"
         d="m 113.3951,76.128456 a 6.1782563,2.0190641 73.412038 0 1 -0.17033,6.498864 6.1782563,2.0190641 73.412038 0 1 -3.69888,-5.343115 6.1782563,2.0190641 73.412038 0 1 0.1703,-6.498868 6.1782563,2.0190641 73.412038 0 1 3.69889,5.343119 z" />
      <path
         id="path103975"
         style="fill:none;fill-opacity:1;stroke:#3bb1e6;stroke-width:2.5;stroke-linecap:butt;stroke-linejoin:miter;stroke-miterlimit:4;stroke-dasharray:none;stroke-opacity:1"
         d="m 91.757932,171.26097 c -5.360949,16.98522 -12.754714,34.41048 -22.945574,49.72584 0,0 51.220082,1.57423 73.838722,-27.32565 0,0 7.91297,-8.46459 -33.75772,-95.423608 -0.12477,0.0478 -0.25005,0.09422 -0.37582,0.139301 -0.25511,0.08833 -0.51211,0.171068 -0.77082,0.248179 -0.25908,0.07722 -0.51981,0.148744 -0.78201,0.214558 -0.262,0.0655 -0.5254,0.125315 -0.79001,0.179332 -0.26438,0.05435 -0.52991,0.102942 -0.79641,0.145711 h -0.008 v 0 c -0.83642,11.227867 -3.24193,34.038777 -9.932288,59.371707"
         sodipodi:nodetypes="cccccsccccsc" />
      <path
         id="path104015"
         style="fill:none;fill-opacity:1;stroke:#3bb1e6;stroke-width:2.5;stroke-linecap:butt;stroke-linejoin:miter;stroke-miterlimit:4;stroke-dasharray:none;stroke-opacity:1"
         d="m 91.757932,171.26097 c -5.360949,16.98522 -12.754714,34.41048 -22.945574,49.72584 0,0 51.220082,1.57423 73.838722,-27.32565 0,0 7.91297,-8.46459 -33.75772,-95.423608 -0.12477,0.0478 -0.25005,0.09422 -0.37582,0.139301 -0.25511,0.08833 -0.51211,0.171068 -0.77082,0.248179 -0.25908,0.07722 -0.51981,0.148744 -0.78201,0.214558 -0.262,0.0655 -0.5254,0.125315 -0.79001,0.179332 -0.26438,0.05435 -0.52991,0.102942 -0.79641,0.145711 h -0.008 v 0 c -0.83642,11.227867 -3.24193,34.038777 -9.932288,59.371707"
         sodipodi:nodetypes="cccccsccccsc" />
    </g>
  </g>
</svg>
