<?xml version="1.0" encoding="UTF-8" standalone="no"?>
<!-- Created with Inkscape (http://www.inkscape.org/) -->

<svg
   width="148mm"
   height="105mm"
   viewBox="0 0 148 105"
   version="1.1"
   id="svg5"
   sodipodi:docname="kaffee-occluded.svg"
   inkscape:version="1.1.1 (3bf5ae0d25, 2021-09-20, custom)"
   xmlns:inkscape="http://www.inkscape.org/namespaces/inkscape"
   xmlns:sodipodi="http://sodipodi.sourceforge.net/DTD/sodipodi-0.dtd"
   xmlns="http://www.w3.org/2000/svg"
   xmlns:svg="http://www.w3.org/2000/svg">
  <sodipodi:namedview
     id="namedview7"
     pagecolor="#ffffff"
     bordercolor="#666666"
     borderopacity="1.0"
     inkscape:pageshadow="2"
     inkscape:pageopacity="0.0"
     inkscape:pagecheckerboard="0"
     inkscape:document-units="mm"
     showgrid="false"
     inkscape:zoom="3.966"
     inkscape:cx="202.34493"
     inkscape:cy="203.22743"
     inkscape:window-width="1920"
     inkscape:window-height="1019"
     inkscape:window-x="0"
     inkscape:window-y="61"
     inkscape:window-maximized="1"
     inkscape:current-layer="layer1" />
  <defs
     id="defs2" />
  <g
     inkscape:label="Layer 1"
     inkscape:groupmode="layer"
     id="layer1">
    <path
       d="m 38.691839,97.447142 0.774074,-0.211382 -0.334936,0.09378 -0.111645,-2.672044 -0.119089,-0.893162 -0.06699,-2.039388 0.439138,-0.06699 -1.052443,0.141417 m 4.267828,0.133975 -0.893162,-0.08932 0.424252,0.06699 -0.893163,0.989921 -0.893162,1.101567 -0.796403,0.744302 -0.327493,0.09676 0.587998,-0.186076 0.56567,-0.02233 0.39448,0.208405 0.305164,0.46891 0.305164,0.513568 0.587998,0.847016 0.446581,0.328237 0.446582,-0.09378 0.275391,-0.304419 0.0521,-0.188309 -0.141418,-0.350566 -0.215847,-0.186076 -0.208405,0.141418"
       style="fill:none;stroke:#000000;stroke-width:0.5;stroke-linecap:round;stroke-linejoin:round;stroke-miterlimit:4;stroke-dasharray:none"
       id="path14764" />
    <path
       d="m 43.544689,94.255575 -0.119089,-0.46891 0.215848,-0.349822 0.46891,-0.305164 0.610328,0.141417 0.327493,0.513569 0.08932,0.632656 0.02233,0.967593 -0.111645,0.372151 -0.468911,0.327493 -0.498682,0.258273 -0.439138,0.06996 -0.354288,-0.210637 -0.02382,-0.519523 0.184587,-0.327493 0.521012,-0.133974 h 0.654985 l 0.186076,0.04466 0.282835,0.305164 0.08932,0.305163 0.02977,0.466678 v 0.515801 l 0.02233,0.187564 0.253063,0.04689 h 0.141417 0.163747 l 0.193518,-0.09378"
       style="fill:none;stroke:#000000;stroke-width:0.5;stroke-linecap:round;stroke-linejoin:round;stroke-miterlimit:4;stroke-dasharray:none"
       id="path14766" />
    <path
       d="m 46.306046,98.431109 1.406731,-0.260505 -0.677315,0.09676 -0.208404,-2.694373 -0.0521,-1.689566 0.751745,-0.02233 0.208405,-0.09676 -0.39448,0.09676 -1.03458,0.02233 -0.09229,-0.02233 0.613305,0.02233 0.04466,-1.525819 0.119088,-0.818732 0.253063,-0.446581 0.491239,-0.230734 0.521011,-0.02977 0.446582,0.305164 0.186075,0.260505 0.02233,0.186076"
       style="fill:none;stroke:#000000;stroke-width:0.5;stroke-linecap:round;stroke-linejoin:round;stroke-miterlimit:4;stroke-dasharray:none"
       id="path14768" />
    <path
       d="m 48.464531,98.431109 1.406731,-0.260505 -0.677315,0.09676 -0.208404,-2.694373 -0.0521,-1.689566 0.751745,-0.02233 0.208405,-0.09676 -0.39448,0.09676 -1.03458,0.02233 -0.09229,-0.02233 0.613305,0.02233 0.04466,-1.525819 0.119088,-0.818732 0.253063,-0.446581 0.491239,-0.230734 0.521011,-0.02977 0.446582,0.305164 0.186075,0.260505 0.02233,0.186076"
       style="fill:none;stroke:#000000;stroke-width:0.5;stroke-linecap:round;stroke-linejoin:round;stroke-miterlimit:4;stroke-dasharray:none"
       id="path14770" />
    <path
       d="m 52.267883,96.532395 -0.282835,0.398574 -0.513569,0.164118 -0.54334,-0.352055 -0.230734,-0.91698 0.06699,-1.049466 0.349822,-0.915491 0.260505,-0.163747 0.349822,0.04466 0.260506,0.260505 0.327493,0.818733 -0.751745,0.04466 -0.774074,0.02233"
       style="fill:none;stroke:#000000;stroke-width:0.5;stroke-linecap:round;stroke-linejoin:round;stroke-miterlimit:4;stroke-dasharray:none"
       id="path14772" />
    <path
       d="m 54.843229,96.532395 -0.282835,0.398574 -0.513569,0.164118 -0.54334,-0.352055 -0.230734,-0.91698 0.06699,-1.049466 0.349822,-0.915491 0.260505,-0.163747 0.349822,0.04466 0.260506,0.260505 0.327493,0.818733 -0.751745,0.04466 -0.774074,0.02233"
       style="fill:none;stroke:#000000;stroke-width:0.5;stroke-linecap:round;stroke-linejoin:round;stroke-miterlimit:4;stroke-dasharray:none"
       id="path14774" />
    <path
       d="m 58.683763,97.165796 0.446582,-0.164491 0.580555,-0.09378 -0.602884,0.09378 -0.02977,-2.135402 -0.163747,-1.332301 0.327493,-0.09676 -0.887208,0.186075 0.589487,-0.08932 0.208405,1.615135 0.424252,-0.841061 0.721973,-0.54334 0.349822,-0.04466 0.193518,0.260505 0.08932,0.96015 V 95.7144 l 0.238177,-1.03458 0.491239,-0.818732 0.513569,-0.424252 0.401923,-0.04466 0.186075,0.491239 0.06699,1.004808 -0.04466,1.714872 -0.513568,0.187191 1.146225,-0.2579"
       style="fill:none;stroke:#000000;stroke-width:0.5;stroke-linecap:round;stroke-linejoin:round;stroke-miterlimit:4;stroke-dasharray:none"
       id="path14776" />
    <path
       d="m 63.862627,96.485504 h 0.02307 l 1.199071,-0.140673 -0.56567,0.04689 0.09676,-2.768804 h -0.521012 m 0.163747,-1.942628 v 0.282835 l 0.305163,0.04466 V 91.68029 h -0.305163"
       style="fill:none;stroke:#000000;stroke-width:0.5;stroke-linecap:round;stroke-linejoin:round;stroke-miterlimit:4;stroke-dasharray:none"
       id="path14778" />
    <path
       d="m 67.399537,96.251049 0.260506,-0.231478 0.282834,0.137696 0.04466,0.328237 -0.141418,0.398574 -0.491239,0.234082 -0.424252,-0.06996 -0.372151,-0.46891 -0.0521,-0.939309 -0.08932,-2.225463 -0.564181,0.09676 1.263825,-0.163746 -0.699644,0.06699 -0.04466,-1.42906"
       style="fill:none;stroke:#000000;stroke-width:0.5;stroke-linecap:round;stroke-linejoin:round;stroke-miterlimit:4;stroke-dasharray:none"
       id="path14780" />
    <path
       d="m 70.920125,96.76685 1.123896,-0.1176 -0.349822,0.02382 0.446581,-3.91354 0.141417,-1.875641 1.406731,4.503027 1.265314,-1.741667 0.654985,-1.004807 0.424253,-0.818733 0.372151,-0.774074 0.04466,-0.305163 -0.111646,1.079237 0.186076,1.570478 0.163746,1.548148 0.186076,1.732735 0.841061,-0.163747 -1.451389,0.280974"
       style="fill:none;stroke:#000000;stroke-width:0.5;stroke-linecap:round;stroke-linejoin:round;stroke-miterlimit:4;stroke-dasharray:none"
       id="path14782" />
    <path
       d="m 78.400371,94.255575 -0.119089,-0.46891 0.215848,-0.349822 0.46891,-0.305164 0.610328,0.141417 0.327493,0.513569 0.08932,0.632656 0.02233,0.967593 -0.111645,0.372151 -0.468911,0.327493 -0.498682,0.258273 -0.439138,0.06996 -0.354288,-0.210637 -0.02382,-0.519523 0.184587,-0.327493 0.521012,-0.133974 h 0.654985 l 0.186076,0.04466 0.282835,0.305164 0.08932,0.305163 0.02977,0.466678 v 0.515801 l 0.02233,0.187564 0.253063,0.04689 h 0.141417 0.163747 l 0.193518,-0.09378"
       style="fill:none;stroke:#000000;stroke-width:0.5;stroke-linecap:round;stroke-linejoin:round;stroke-miterlimit:4;stroke-dasharray:none"
       id="path14784" />
    <path
       d="m 81.25847,97.165796 0.446582,-0.164491 0.580555,-0.09378 -0.602884,0.09378 -0.02977,-2.135402 -0.163747,-1.332301 0.327493,-0.09676 -0.887208,0.186075 0.589487,-0.08932 0.208405,1.615135 0.424252,-0.841061 0.721973,-0.54334 0.349822,-0.04466 0.193518,0.260505 0.08932,0.96015 V 95.7144 l 0.238177,-1.03458 0.491239,-0.818732 0.513569,-0.424252 0.401923,-0.04466 0.186075,0.491239 0.06699,1.004808 -0.04466,1.714872 -0.513568,0.187191 1.146225,-0.2579"
       style="fill:none;stroke:#000000;stroke-width:0.5;stroke-linecap:round;stroke-linejoin:round;stroke-miterlimit:4;stroke-dasharray:none"
       id="path14786" />
    <path
       d="m 86.788645,94.255575 -0.119089,-0.46891 0.215848,-0.349822 0.46891,-0.305164 0.610328,0.141417 0.327493,0.513569 0.08932,0.632656 0.02233,0.967593 -0.111645,0.372151 -0.468911,0.327493 -0.498682,0.258273 -0.439138,0.06996 -0.354288,-0.210637 -0.02382,-0.519523 0.184587,-0.327493 0.521012,-0.133974 h 0.654985 l 0.186076,0.04466 0.282835,0.305164 0.08932,0.305163 0.02977,0.466678 v 0.515801 l 0.02233,0.187564 0.253063,0.04689 h 0.141417 0.163747 l 0.193518,-0.09378"
       style="fill:none;stroke:#000000;stroke-width:0.5;stroke-linecap:round;stroke-linejoin:round;stroke-miterlimit:4;stroke-dasharray:none"
       id="path14788" />
    <path
       d="m 92.951404,96.108887 0.446581,-1.592806 0.491239,-1.778882 0.09676,-0.662429 m 1.570477,-0.06699 -0.193519,0.513568 -1.004807,3.752771 m 1.592806,-1.356118 -1.190883,0.06699 h -1.317415 l -1.171531,0.163746 m 0.144394,-1.615135 1.518376,-0.119088 1.317415,0.04466 0.677315,-0.06699 h 0.186075"
       style="fill:none;stroke:#000000;stroke-width:0.5;stroke-linecap:round;stroke-linejoin:round;stroke-miterlimit:4;stroke-dasharray:none"
       id="path14790" />
    <path
       d="m 97.268364,97.095087 1.056909,-0.398946 0.744302,-0.515801 0.193518,-0.398946 -0.0521,-0.39448 -0.253063,-0.379594 -0.238176,-0.230734 -0.349822,-0.09676 -0.751745,0.141418 0.774074,-0.163747 0.796403,-0.513568 0.401923,-0.610328 0.111645,-0.632657 -0.06699,-0.632656 -0.238176,-0.498683 -0.535898,-0.439138 -0.610328,-0.215847 -0.751745,0.0521 -1.006296,0.06699 h 0.84255 l 0.349822,5.767596"
       style="fill:none;stroke:#000000;stroke-width:0.5;stroke-linecap:round;stroke-linejoin:round;stroke-miterlimit:4;stroke-dasharray:none"
       id="path14792" />
    <path
       d="m 100.47561,93.042363 h 0.77482 l -0.26051,0.06699 -0.0893,1.548148 v 0.915492 l 0.2084,0.416809 0.20841,0.26125 0.16374,0.02307 0.30517,-0.395969 0.28283,-0.327493 0.0744,-0.401923 0.5359,-0.818732 0.28283,-0.565669 0.0893,-0.558227 0.0298,2.061717 0.0893,1.288386 -0.32749,0.116856 0.34982,-0.116856 0.54334,-0.07071"
       style="fill:none;stroke:#000000;stroke-width:0.5;stroke-linecap:round;stroke-linejoin:round;stroke-miterlimit:4;stroke-dasharray:none"
       id="path14794" />
    <path
       d="m 104.67417,96.673068 -0.30814,-0.09378 -0.3982,0.2579 -0.14068,0.445465 0.32824,0.582789 0.6602,0.141417 0.74429,-0.186075 0.56567,-0.538131 0.28283,-0.703365 v -0.775563 l -0.23817,-1.384402 -0.51357,-2.672044 -0.588,0.186076 1.28764,-0.349822"
       style="fill:none;stroke:#000000;stroke-width:0.5;stroke-linecap:round;stroke-linejoin:round;stroke-miterlimit:4;stroke-dasharray:none"
       id="path14796" />
    <path
       d="m 109.05069,93.347527 -0.43914,-0.09676 -0.61032,0.208405 -0.26051,0.491239 0.0223,0.684758 0.26051,0.446581 0.61032,0.305164 0.79641,-0.260506 0.32749,-0.587998 0.0223,-0.699644 -0.28284,-0.379594 h -0.37215"
       style="fill:none;stroke:#000000;stroke-width:0.5;stroke-linecap:round;stroke-linejoin:round;stroke-miterlimit:4;stroke-dasharray:none"
       id="path14798" />
    <path
       id="path965-0"
       style="fill:none;fill-opacity:1;stroke:#000000;stroke-width:1.88976;stroke-linecap:butt;stroke-linejoin:miter;stroke-miterlimit:4;stroke-dasharray:none;stroke-opacity:1"
       d="M 183.62695 157.85352 C 181.76719 182.78776 173.55577 254.55241 138.97852 306.45312 C 138.97852 306.45312 201.53392 308.37337 229.1582 273.12109 C 229.1582 273.12109 238.82236 262.79591 187.92969 156.72266 A 22.684856 22.684856 0 0 1 187.4707 156.89258 A 22.684856 22.684856 0 0 1 186.5293 157.19531 A 22.684856 22.684856 0 0 1 185.57422 157.45703 A 22.684856 22.684856 0 0 1 184.60938 157.67578 A 22.684856 22.684856 0 0 1 183.63672 157.85352 A 22.684856 22.684856 0 0 1 183.62695 157.85352 z "
       transform="scale(0.26458333)" />
    <path
       id="path15037"
       style="fill:none;fill-opacity:1;stroke:#000000;stroke-width:1.88976;stroke-linecap:butt;stroke-linejoin:miter;stroke-miterlimit:4;stroke-dasharray:none;stroke-opacity:1"
       d="M 213.58789 53.443359 L 213.58789 214.03125 C 213.87028 214.72778 214.1782 215.46802 214.45117 216.14844 C 215.30186 218.26892 216.10686 220.3116 216.86914 222.2793 C 217.63142 224.24699 218.35082 226.14043 219.0293 227.96094 C 219.70777 229.78144 220.34408 231.53007 220.94336 233.20898 C 221.54264 234.8879 222.10422 236.49613 222.62891 238.03906 C 223.15359 239.582 223.64296 241.05815 224.09766 242.4707 C 224.55235 243.88326 224.97202 245.2337 225.36133 246.52148 C 225.75064 247.80927 226.10896 249.03452 226.4375 250.20312 C 226.5445 250.58373 226.62959 250.9207 226.73047 251.28906 L 317.80273 259.28125 L 317.80273 64.65625 L 213.58789 53.443359 z "
       transform="scale(0.26458333)" />
    <path
       id="path3485"
       style="fill:none;stroke:#000000;stroke-width:1.88976;stroke-linecap:butt;stroke-linejoin:miter;stroke-miterlimit:4;stroke-dasharray:none;stroke-opacity:1"
       d="M 423.05859 54.820312 L 419.09766 298.81836 L 433.63086 304.49219 L 433.63086 53.832031 L 423.05859 54.820312 z "
       transform="scale(0.26458333)" />
    <path
       id="path14932"
       style="fill:none;stroke:#000000;stroke-width:1.88976;stroke-linecap:butt;stroke-linejoin:miter;stroke-miterlimit:4;stroke-dasharray:none;stroke-opacity:1"
       d="M 419.73242 55.130859 L 317.80273 64.65625 C 318.6158 64.585152 319.45126 64.533782 320.30859 64.5 C 321.16592 64.466218 322.04632 64.449713 322.94531 64.449219 C 323.8443 64.448724 324.76313 64.463423 325.70117 64.492188 C 326.63921 64.520952 327.59584 64.563191 328.57031 64.617188 C 329.54479 64.671184 330.53662 64.737301 331.54492 64.8125 C 332.55323 64.887699 333.57766 64.972079 334.61719 65.064453 C 336.69624 65.249201 338.83517 65.464081 341.02344 65.693359 C 343.21171 65.922638 345.44995 66.166619 347.72656 66.408203 C 350.00317 66.649787 352.31803 66.889664 354.66211 67.111328 C 355.83415 67.22216 357.01423 67.327924 358.19922 67.427734 C 359.38421 67.527544 360.5742 67.620318 361.76953 67.705078 C 362.96486 67.789838 364.16412 67.865959 365.36719 67.931641 C 366.57025 67.997322 367.77619 68.053128 368.98438 68.095703 C 370.19256 68.138278 371.40453 68.168154 372.61523 68.183594 C 373.82594 68.199034 375.03549 68.199317 376.24609 68.183594 C 377.4567 68.167871 378.6671 68.136851 379.875 68.085938 C 381.0829 68.035024 382.2896 67.965133 383.49219 67.875 C 384.69477 67.784867 385.89323 67.674396 387.08789 67.541016 C 387.68522 67.474325 388.28209 67.402476 388.87695 67.324219 C 389.47181 67.245961 390.06419 67.160641 390.65625 67.070312 C 391.24831 66.979984 391.83879 66.884152 392.42773 66.78125 C 393.01668 66.678348 393.60396 66.569105 394.18945 66.453125 C 394.77495 66.337145 395.35969 66.213545 395.94141 66.083984 C 396.52312 65.954423 397.10207 65.819427 397.67969 65.675781 C 398.2573 65.532136 398.83306 65.38089 399.40625 65.222656 C 399.97944 65.064422 400.55071 64.897935 401.11914 64.724609 C 401.68757 64.551284 402.25305 64.370562 402.81641 64.181641 C 403.37976 63.99272 403.9401 63.796817 404.49805 63.591797 C 405.05599 63.386777 405.61185 63.172794 406.16406 62.951172 C 406.71628 62.72955 407.26634 62.498493 407.8125 62.259766 C 408.35866 62.021038 408.90164 61.773915 409.44141 61.517578 C 409.98118 61.261241 410.51772 60.997106 411.05078 60.722656 C 411.58384 60.448206 412.11265 60.16416 412.63867 59.871094 C 413.16469 59.578027 413.68642 59.275077 414.20508 58.962891 C 414.72374 58.650704 415.23903 58.329857 415.75 57.998047 C 416.26097 57.666237 416.76853 57.324593 417.27148 56.972656 C 417.77444 56.62072 418.27297 56.257333 418.76758 55.884766 C 419.09214 55.640286 419.41157 55.384402 419.73242 55.130859 z "
       transform="scale(0.26458333)" />
    <path
       style="fill:none;fill-opacity:1;stroke:#000000;stroke-width:0.5;stroke-linecap:butt;stroke-linejoin:miter;stroke-miterlimit:4;stroke-dasharray:none;stroke-opacity:1"
       d="m 84.08537,17.106784 c 6.883935,-0.601959 19.9414,4.123947 27.8599,-3.284041 l -1.10919,68.316331 C 96.879413,82.483401 93.002272,73.114182 84.08537,68.601736 Z"
       id="path1538"
       sodipodi:nodetypes="ccccc" />
    <path
       id="path3309-51"
       style="fill:none;stroke:#000000;stroke-width:0.5;stroke-linecap:square;stroke-linejoin:round;stroke-miterlimit:4;stroke-dasharray:none"
       d="m 60.973846,37.428265 a 0.72274357,0.72274357 0 0 1 -0.722744,0.722743 0.72274357,0.72274357 0 0 1 -0.722743,-0.722743 0.72274357,0.72274357 0 0 1 0.722743,-0.722744 0.72274357,0.72274357 0 0 1 0.722744,0.722744 z" />
    <path
       id="path3309"
       style="fill:none;stroke:#000000;stroke-width:0.5;stroke-linecap:square;stroke-linejoin:round;stroke-miterlimit:4;stroke-dasharray:none"
       d="m 60.973846,19.728687 a 0.72274357,0.72274357 0 0 1 -0.722744,0.722744 0.72274357,0.72274357 0 0 1 -0.722743,-0.722744 0.72274357,0.72274357 0 0 1 0.722743,-0.722743 0.72274357,0.72274357 0 0 1 0.722744,0.722743 z" />
    <path
       style="fill:none;fill-opacity:1;stroke:#000000;stroke-width:0.5;stroke-linecap:butt;stroke-linejoin:miter;stroke-miterlimit:4;stroke-dasharray:none;stroke-opacity:1"
       d="m 23.261061,57.289113 c -1.514673,-2.88774 -4.411411,-3.839865 -4.757655,-1.052972 -0.195537,4.723107 2.693831,7.317199 3.974231,7.754875 1.786816,0.401413 2.807154,-0.678282 2.468014,-2.765052"
       id="path7830"
       sodipodi:nodetypes="cccc" />
    <path
       id="path5822"
       style="fill:none;fill-opacity:1;stroke:#000000;stroke-width:1.88976;stroke-linecap:butt;stroke-linejoin:miter;stroke-miterlimit:4;stroke-dasharray:none;stroke-opacity:1"
       d="M 181.19922 180.85547 C 150.45335 171.64205 108.30173 171.5597 81.384766 184.35156 C 82.306649 220.82401 106.6459 252.45341 118.00391 267.94141 C 129.87223 272.88393 143.54131 272.59977 154.62305 267.94141 C 157.49503 264.37237 160.61507 260.17752 163.79297 255.39453 C 163.84806 255.23821 163.90614 255.0821 163.96094 254.92578 C 164.35008 253.81568 164.73304 252.70682 165.10742 251.59766 C 165.4818 250.48849 165.84714 249.37878 166.20703 248.27148 C 166.56693 247.16419 166.91993 246.0576 167.26562 244.95312 C 167.61132 243.84865 167.95142 242.74719 168.2832 241.64648 C 168.61498 240.54578 168.93966 239.44756 169.25781 238.35156 C 169.57596 237.25557 169.88661 236.16065 170.19141 235.07031 C 170.49621 233.97997 170.7942 232.89429 171.08594 231.81055 C 171.37767 230.7268 171.66245 229.64651 171.94141 228.57031 C 172.22036 227.49411 172.49331 226.42123 172.75977 225.35352 C 173.02622 224.2858 173.28678 223.22234 173.54102 222.16406 C 173.79525 221.10578 174.04285 220.05181 174.28516 219.00391 C 174.52746 217.956 174.76544 216.91354 174.99609 215.87695 C 175.22675 214.84037 175.45063 213.80947 175.66992 212.78516 C 175.88921 211.76084 176.10234 210.74353 176.31055 209.73242 C 176.51876 208.72131 176.72251 207.71766 176.91992 206.7207 C 177.11733 205.72375 177.3092 204.73381 177.49609 203.75195 C 177.68299 202.7701 177.86435 201.79589 178.04102 200.83008 C 178.21768 199.86427 178.38993 198.90781 178.55664 197.95898 C 178.89007 196.06134 179.20271 194.19708 179.49805 192.37305 C 179.79338 190.54902 180.07057 188.76434 180.33008 187.02148 C 180.58958 185.27863 180.83265 183.57795 181.05859 181.92383 C 181.10868 181.55718 181.15072 181.21753 181.19922 180.85547 z "
       transform="scale(0.26458333)" />
    <path
       id="path7016"
       style="fill:none;fill-opacity:1;stroke:#000000;stroke-width:1.88976;stroke-linecap:butt;stroke-linejoin:miter;stroke-miterlimit:4;stroke-dasharray:none;stroke-opacity:1"
       d="m 81.384766,184.35156 c 26.927904,10.67015 72.393254,13.40588 98.578124,5.07813"
       transform="scale(0.26458333)"
       sodipodi:nodetypes="cc" />
    <path
       id="path3309-5"
       style="fill:none;stroke:#000000;stroke-width:0.5;stroke-linecap:square;stroke-linejoin:round;stroke-miterlimit:4;stroke-dasharray:none"
       d="m 60.973846,25.628546 a 0.72274357,0.72274357 0 0 1 -0.722744,0.722743 0.72274357,0.72274357 0 0 1 -0.722743,-0.722743 0.72274357,0.72274357 0 0 1 0.722743,-0.722744 0.72274357,0.72274357 0 0 1 0.722744,0.722744 z" />
    <path
       id="path3309-1"
       style="fill:none;stroke:#000000;stroke-width:0.5;stroke-linecap:square;stroke-linejoin:round;stroke-miterlimit:4;stroke-dasharray:none"
       d="m 60.973846,31.528404 a 0.72274357,0.72274357 0 0 1 -0.722744,0.722744 0.72274357,0.72274357 0 0 1 -0.722743,-0.722744 0.72274357,0.72274357 0 0 1 0.722743,-0.722743 0.72274357,0.72274357 0 0 1 0.722744,0.722743 z" />
    <path
       id="path3309-15"
       style="fill:none;stroke:#000000;stroke-width:0.5;stroke-linecap:square;stroke-linejoin:round;stroke-miterlimit:4;stroke-dasharray:none"
       d="m 60.973846,43.328125 a 0.72274357,0.72274357 0 0 1 -0.722744,0.722744 0.72274357,0.72274357 0 0 1 -0.722743,-0.722744 0.72274357,0.72274357 0 0 1 0.722743,-0.722744 0.72274357,0.72274357 0 0 1 0.722744,0.722744 z" />
    <path
       id="path3309-51-8"
       style="fill:none;stroke:#000000;stroke-width:0.5;stroke-linecap:square;stroke-linejoin:round;stroke-miterlimit:4;stroke-dasharray:none"
       d="m 87.537249,40.218498 a 0.46934474,0.72274357 0 0 1 -0.469345,0.722743 0.46934474,0.72274357 0 0 1 -0.469344,-0.722743 0.46934474,0.72274357 0 0 1 0.469344,-0.722744 0.46934474,0.72274357 0 0 1 0.469345,0.722744 z" />
    <path
       id="path3309-7"
       style="fill:none;stroke:#000000;stroke-width:0.5;stroke-linecap:square;stroke-linejoin:round;stroke-miterlimit:4;stroke-dasharray:none"
       d="m 87.537249,22.51892 a 0.46934474,0.72274357 0 0 1 -0.469345,0.722744 0.46934474,0.72274357 0 0 1 -0.469344,-0.722744 0.46934474,0.72274357 0 0 1 0.469344,-0.722743 0.46934474,0.72274357 0 0 1 0.469345,0.722743 z" />
    <path
       id="path3309-5-0"
       style="fill:none;stroke:#000000;stroke-width:0.5;stroke-linecap:square;stroke-linejoin:round;stroke-miterlimit:4;stroke-dasharray:none"
       d="m 87.537249,28.418779 a 0.46934474,0.72274357 0 0 1 -0.469345,0.722743 0.46934474,0.72274357 0 0 1 -0.469344,-0.722743 0.46934474,0.72274357 0 0 1 0.469344,-0.722744 0.46934474,0.72274357 0 0 1 0.469345,0.722744 z" />
    <path
       id="path3309-1-1"
       style="fill:none;stroke:#000000;stroke-width:0.5;stroke-linecap:square;stroke-linejoin:round;stroke-miterlimit:4;stroke-dasharray:none"
       d="m 87.537249,34.318637 a 0.46934474,0.72274357 0 0 1 -0.469345,0.722744 0.46934474,0.72274357 0 0 1 -0.469344,-0.722744 0.46934474,0.72274357 0 0 1 0.469344,-0.722743 0.46934474,0.72274357 0 0 1 0.469345,0.722743 z" />
    <path
       id="path3309-15-5"
       style="fill:none;stroke:#000000;stroke-width:0.5;stroke-linecap:square;stroke-linejoin:round;stroke-miterlimit:4;stroke-dasharray:none"
       d="m 87.537249,46.118358 a 0.46934474,0.72274357 0 0 1 -0.469345,0.722744 0.46934474,0.72274357 0 0 1 -0.469344,-0.722744 0.46934474,0.72274357 0 0 1 0.469344,-0.722744 0.46934474,0.72274357 0 0 1 0.469345,0.722744 z" />
    <path
       style="fill:none;fill-opacity:1;stroke:#000000;stroke-width:0.5;stroke-linecap:butt;stroke-linejoin:miter;stroke-miterlimit:4;stroke-dasharray:none;stroke-opacity:1"
       d="m 44.117676,60.298078 c -0.985257,3.550674 -0.0026,5.252481 0.825566,5.211073 1.353249,-0.01611 2.62445,-2.352288 3.472795,-5.177076 -1.898677,1.382831 -3.583068,0.497968 -4.298361,-0.034 z"
       id="path10532"
       sodipodi:nodetypes="cccc" />
    <path
       id="path1274"
       style="fill:none;stroke:#000000;stroke-width:0.5;stroke-linecap:square;stroke-linejoin:round;stroke-miterlimit:4;stroke-dasharray:none"
       d="m 53.56838,34.892498 a 6.0020347,6.0020347 0 0 1 -4.981399,6.872736 6.0020347,6.0020347 0 0 1 -6.872736,-4.981398 6.0020347,6.0020347 0 0 1 4.981398,-6.872737 6.0020347,6.0020347 0 0 1 6.872737,4.981399 z" />
    <path
       style="fill:none;fill-opacity:1;stroke:#000000;stroke-width:0.500001;stroke-linecap:butt;stroke-linejoin:miter;stroke-miterlimit:4;stroke-dasharray:none;stroke-opacity:1"
       d="m 115.06617,44.284878 6.34439,35.2657 2.7335,1.954062 3.17436,-0.571075 2.16862,-2.202297 -6.42503,-35.713878 -6.09328,-7.600327 z m 0,0 2.73349,1.954062 3.17436,-0.571075 2.16862,-2.202295"
       id="path2022"
       sodipodi:nodetypes="cccccccccccc" />
    <path
       style="fill:none;fill-opacity:1;stroke:#000000;stroke-width:0.500001;stroke-linecap:butt;stroke-linejoin:miter;stroke-miterlimit:4;stroke-dasharray:none;stroke-opacity:1"
       d="M 124.14406,81.504635 117.79967,46.238931"
       id="path2776" />
    <path
       style="fill:none;fill-opacity:1;stroke:#000000;stroke-width:0.500001;stroke-linecap:butt;stroke-linejoin:miter;stroke-miterlimit:4;stroke-dasharray:none;stroke-opacity:1"
       d="M 127.31842,80.93356 120.97403,45.667856"
       id="path2778" />
    <path
       id="path1438"
       style="stroke:#000000;stroke-width:0.5;stroke-linecap:square;stroke-linejoin:round;fill:none"
       d="m 51.177745,34.330698 a 1.9941747,0.65236944 73.388166 0 1 -0.05504,2.097448 1.9941747,0.65236944 73.388166 0 1 -1.195248,-1.724441 1.9941747,0.65236944 73.388166 0 1 0.05503,-2.097449 1.9941747,0.65236944 73.388166 0 1 1.19525,1.724442 z" />
    <path
       style="fill:none;stroke:#000000;stroke-width:0.264583px;stroke-linecap:butt;stroke-linejoin:miter;stroke-opacity:1"
       d="m 116.02522,40.206318 c 1.50637,1.067796 3.28762,0.355609 3.97085,-0.928386 l -3.02734,-3.860871 z"
       id="path2291"
       sodipodi:nodetypes="cccc" />
    <path
       style="fill:none;stroke:#000000;stroke-width:0.264583px"
       d="m 117.32284,36.1928 -0.37745,0.377453 m -0.17348,0.880587 0.8617,-0.861704 m 0.31077,0.396337 -1.34595,1.345955 m -0.17348,0.880587 1.8302,-1.830206 m 0.31077,0.396336 -2.32907,2.329078 m 0.46316,0.243938 2.17668,-2.17668 m 0.31077,0.396337 -1.93145,1.931452 m 0.64327,0.06384 1.59896,-1.598955 m 0.31077,0.396336 -0.86447,0.864462"
       id="path3082" />
  </g>
</svg>
