<?xml version="1.0" encoding="utf-8" ?>
<svg xmlns="http://www.w3.org/2000/svg" xmlns:cc="http://creativecommons.org/ns#" xmlns:dc="http://purl.org/dc/elements/1.1/" xmlns:ev="http://www.w3.org/2001/xml-events" xmlns:inkscape="http://www.inkscape.org/namespaces/inkscape" xmlns:rdf="http://www.w3.org/1999/02/22-rdf-syntax-ns#" xmlns:sodipodi="http://sodipodi.sourceforge.net/DTD/sodipodi-0.dtd" xmlns:xlink="http://www.w3.org/1999/xlink" baseProfile="tiny" height="10.50000567cm" version="1.2" viewBox="0 0 559.3703808 396.85060799999997" width="14.80000799cm">
  <metadata>
    <rdf:RDF>
      <cc:Work>
        <dc:format>image/svg+xml</dc:format>
        <dc:source>vpype read snowflake.svg deduplicate linesimplify linemerge linesort write snowflake-optim.svg
</dc:source>
        <dc:date>2021-12-17T01:01:52.625738</dc:date>
      </cc:Work>
    </rdf:RDF>
  </metadata>
  <defs/>
  <g fill="none" id="layer1" inkscape:groupmode="layer" inkscape:label="1" stroke="#00f" style="display:inline">
    <polyline points="181.0327,259.4397 197.8178,249.7495 197.8178,249.7495 192.6162,269.1571 192.6162,269.1571 198.7256,270.7948 198.7256,270.7948 205.5631,245.2775 205.5631,245.2775 214.5593,240.0829 214.5593,240.0829 209.3577,259.4905 209.3577,259.4905 215.4689,261.1264 215.4689,261.1264 222.3046,235.611 222.3046,235.611 231.3044,230.4145 231.3044,230.4145 226.1028,249.8221 226.1028,249.8221 232.2122,251.4599 232.2122,251.4599 239.0497,225.9444 239.0497,225.9444 246.6552,221.5523 246.6552,221.5523 242.4703,262.1105 242.4703,262.1105 276.173,238.5777 276.173,238.5777 276.173,247.3783 276.173,247.3783 257.4942,266.0578 257.4942,266.0578 261.9678,270.5297 261.9678,270.5297 276.173,256.3222 276.173,256.3222 276.173,266.7114 276.173,266.7114 257.4942,285.3909 257.4942,285.3909 261.9678,289.8647 261.9678,289.8647 276.173,275.6572 276.173,275.6572 276.173,286.0482 276.173,286.0482 257.4942,304.7277 257.4942,304.7277 261.9678,309.1979 261.9678,309.1979 276.173,294.9903 276.173,294.9903 276.173,314.3725 276.173,314.3725 283.1975,314.3725 283.1975,314.3725 283.1975,294.9903 283.1975,294.9903 297.4026,309.1979 297.4026,309.1979 301.8762,304.7277 301.8762,304.7277 283.1975,286.0482 283.1975,286.0482 283.1975,275.6572 283.1975,275.6572 297.4026,289.8647 297.4026,289.8647 301.8762,285.3909 301.8762,285.3909 283.1975,266.7114 283.1975,266.7114 283.1975,256.3222 283.1975,256.3222 297.4026,270.5297 297.4026,270.5297 301.8762,266.0578 301.8762,266.0578 283.1975,247.3783 283.1975,247.3783 283.1975,238.5941 283.1975,238.5941 316.2284,262.4973 316.2284,262.4973 312.7007,221.5414 312.7007,221.5414 320.3225,225.9426 320.3225,225.9426 327.16,251.4617 327.16,251.4617 333.2676,249.8221 333.2676,249.8221 328.0678,230.4145 328.0678,230.4145 337.064,235.6091 337.064,235.6091 343.9015,261.1282 343.9015,261.1282 350.0127,259.4905 350.0127,259.4905 344.8111,240.0829 344.8111,240.0829 353.8109,245.2793 353.8109,245.2793 360.6466,270.7948 360.6466,270.7948 366.7542,269.1571 366.7542,269.1571 361.5544,249.7513 361.5544,249.7513 378.3376,259.4415 378.3376,259.4415 381.8508,253.3572 381.8508,253.3572 365.0657,243.667 365.0657,243.667 384.4725,238.467 384.4725,238.467 382.8367,232.3573 382.8367,232.3573 357.3205,239.1951 357.3205,239.1951 348.3224,234.0005 348.3224,234.0005 367.731,228.8004 367.731,228.8004 366.0933,222.6889 366.0933,222.6889 340.5753,229.5267 340.5753,229.5267 331.5791,224.3321 331.5791,224.3321 350.9859,219.1338 350.9859,219.1338 349.35,213.0223 349.35,213.0223 323.8338,219.8601 323.8338,219.8601 316.2284,215.468 316.2284,215.468 353.4424,198.8129 353.4424,198.8129 316.2175,181.3917 316.2175,181.3917 323.8375,176.9923 323.8375,176.9923 349.35,183.8283 349.35,183.8283 350.9859,177.7186 350.9859,177.7186 331.5827,172.5204 331.5827,172.5204 340.579,167.3257 340.579,167.3257 366.0933,174.1617 366.0933,174.1617 367.731,168.0502 367.731,168.0502 348.3261,162.852 348.3261,162.852 357.3241,157.6574 357.3241,157.6574 382.8367,164.4933 382.8367,164.4933 384.4725,158.3836 384.4725,158.3836 365.0676,153.1854 365.0676,153.1854 381.8508,143.4952 381.8508,143.4952 378.3376,137.4109 378.3376,137.4109 361.5544,147.1011 361.5544,147.1011 366.756,127.6935 366.756,127.6935 360.6466,126.0558 360.6466,126.0558 353.8091,151.5731 353.8091,151.5731 344.8111,156.7677 344.8111,156.7677 350.0127,137.3601 350.0127,137.3601 343.9015,135.7242 343.9015,135.7242 337.064,161.2415 337.064,161.2415 328.0678,166.4361 328.0678,166.4361 333.2694,147.0285 333.2694,147.0285 327.16,145.3908 327.16,145.3908 320.3225,170.9081 320.3225,170.9081 312.7152,175.3001 312.7152,175.3001 316.9001,134.7401 316.9001,134.7401 283.1993,158.2729 283.1993,158.2729 283.1993,149.4723 283.1993,149.4723 301.878,130.7928 301.878,130.7928 297.4044,126.3209 297.4044,126.3209 283.1993,140.5284 283.1993,140.5284 283.1993,130.1392 283.1993,130.1392 301.878,111.4597 301.878,111.4597 297.4044,106.9859 297.4044,106.9859 283.1993,121.1934 283.1993,121.1934 283.1993,110.8024 283.1993,110.8024 301.878,92.1229 301.878,92.1229 297.4044,87.6527 297.4044,87.6527 283.1993,101.8603 283.1993,101.8603 283.1993,82.4781 283.1993,82.4781 276.173,82.4781 276.173,82.4781 276.173,101.8603 276.173,101.8603 261.9678,87.6527 261.9678,87.6527 257.4942,92.1229 257.4942,92.1229 276.173,110.8024 276.173,110.8024 276.173,121.1934 276.173,121.1934 261.9678,106.9859 261.9678,106.9859 257.4942,111.4597 257.4942,111.4597 276.173,130.1392 276.173,130.1392 276.173,140.5284 276.173,140.5284 261.9678,126.3209 261.9678,126.3209 257.4942,130.7928 257.4942,130.7928 276.173,149.4723 276.173,149.4723 276.173,158.2565 276.173,158.2565 243.1421,134.3533 243.1421,134.3533 246.6697,175.3056 246.6697,175.3056 239.0497,170.9062 239.0497,170.9062 232.2122,145.3889 232.2122,145.3889 226.1028,147.0285 226.1028,147.0285 231.3044,166.4343 231.3044,166.4343 222.3046,161.2378 222.3046,161.2378 215.4689,135.7223 215.4689,135.7223 209.3577,137.3601 209.3577,137.3601 214.5593,156.7659 214.5593,156.7659 205.5631,151.5712 205.5631,151.5712 198.7256,126.0558 198.7256,126.0558 192.6162,127.6935 192.6162,127.6935 197.8178,147.0993 197.8178,147.0993 181.0327,137.4091 181.0327,137.4091 177.5214,143.4934 177.5214,143.4934 194.3065,153.1836 194.3065,153.1836 174.8979,158.3836 174.8979,158.3836 176.5337,164.4933 176.5337,164.4933 202.05,157.6555 202.05,157.6555 211.048,162.8501 211.048,162.8501 191.6412,168.0502 191.6412,168.0502 193.2789,174.1617 193.2789,174.1617 218.7951,167.3239 218.7951,167.3239 227.7931,172.5185 227.7931,172.5185 208.3845,177.7168 208.3845,177.7168 210.0204,183.8283 210.0204,183.8283 235.5366,176.9905 235.5366,176.9905 243.1439,181.3826 243.1439,181.3826 205.928,198.0377 205.928,198.0377 243.1584,215.4607 243.1584,215.4607 235.5384,219.8601 235.5384,219.8601 210.0204,213.0223 210.0204,213.0223 208.3845,219.132 208.3845,219.132 227.7931,224.3321 227.7931,224.3321 218.7951,229.5267 218.7951,229.5267 193.2789,222.6889 193.2789,222.6889 191.6412,228.8004 191.6412,228.8004 211.048,234.0005 211.048,234.0005 202.05,239.1951 202.05,239.1951 176.5337,232.3573 176.5337,232.3573 174.8979,238.467 174.8979,238.467 194.3065,243.667 194.3065,243.667 177.5214,253.3572 177.5214,253.3572 181.0327,259.4397 181.0327,259.4397 164.7171,268.3315 164.7171,268.3315 165.1914,272.7491 165.1914,272.7491 166.7486,271.85 166.7486,271.85 168.3057,270.951 168.3057,270.951 164.7171,268.3315 164.7171,268.3315 161.2058,262.249 161.2058,262.249 177.5214,253.3572"/>
    <polyline points="159.1743,258.7304 160.7314,257.8314 160.7314,257.8314 161.2058,262.249 161.2058,262.249 157.6172,259.6294 157.6172,259.6294 159.1743,258.7304 159.1743,258.7304 154.2992,250.2864"/>
    <polyline points="152.5601,272.7495 151.6961,273.1495 151.6961,273.1495 151.0401,273.5975 151.0401,273.5975 150.2401,274.7175 150.2401,274.7175 150.1409,275.9655 150.1409,275.9655 150.3921,276.8295 150.3921,276.8295 151.1521,277.6359 151.1521,277.6359 152.1601,278.0903 152.1601,278.0903 153.1201,278.2407 153.1201,278.2407 154.3201,277.9895 154.3201,277.9895 155.2801,277.2327 155.2801,277.2327 155.5841,276.4295 155.5841,276.4295 155.6801,275.3255 155.6801,275.3255 155.2801,274.4135 155.2801,274.4135 154.4161,273.7575 154.4161,273.7575 153.1201,273.0535 153.1201,273.0535 151.6961,272.3015 151.6961,272.3015 150.8961,271.5335 150.8961,271.5335 150.6401,270.2855 150.6401,270.2855 150.8481,269.3735 150.8481,269.3735 151.6481,268.5575 151.6481,268.5575 152.8641,268.2055 152.8641,268.2055 153.6641,268.2695 153.6641,268.2695 154.6721,268.8135 154.6721,268.8135 155.3281,269.8695 155.3281,269.8695 155.3761,270.7815 155.3761,270.7815 155.2321,271.6455 155.2321,271.6455 154.6241,272.5415 154.6241,272.5415 153.6161,273.3575"/>
    <polygon points="146.4577,277.3351 147.2641,277.3351 147.2641,277.3351 147.2641,278.1399 147.2641,278.1399 146.4577,278.1399 146.4577,278.1399"/>
    <polyline points="143.5841,277.9895 138.5921,277.9895 138.5921,277.9895 141.1201,277.9895 141.1201,277.9895 141.1201,268.3175 141.1201,268.3175 139.4081,268.9735 139.4081,268.9735 141.0721,268.9255"/>
    <line x1="166.7486" x2="171.6237" y1="271.85" y2="280.294"/>
    <line x1="123.9384" x2="123.9384" y1="318.4354" y2="328.1857"/>
    <polyline points="248.1546,339.8884 257.9049,339.8884 257.9049,339.8884 257.9049,341.6864 257.9049,341.6864 261.9678,339.8884 261.9678,339.8884 257.9049,338.0904 257.9049,338.0904 257.9049,339.8884"/>
    <polyline points="276.1838,353.0655 275.6718,353.7215 275.6718,353.7215 274.8718,354.4735 274.8718,354.4735 273.5598,355.0335 273.5598,355.0335 272.3438,354.8735 272.3438,354.8735 271.3358,354.2175 271.3358,354.2175 270.7886,353.1615 270.7886,353.1615 270.7374,352.1535 270.7374,352.1535 270.8382,351.2415 270.8382,351.2415 271.2398,350.3455 271.2398,350.3455 271.9438,349.6415 271.9438,349.6415 273.1118,349.2255 273.1118,349.2255 274.2158,349.4335 274.2158,349.4335 275.1758,350.1375 275.1758,350.1375 275.7838,351.3535 275.7838,351.3535 276.1358,352.9055 276.1358,352.9055 276.1358,354.5695 276.1358,354.5695 275.8798,356.3455 275.8798,356.3455 275.3198,357.8015 275.3198,357.8015 274.3598,358.7583 274.3598,358.7583 273.3518,359.2607 273.3518,359.2607 272.4078,359.1599 272.4078,359.1599 271.4958,358.8591 271.4958,358.8591 270.939,358.3039"/>
    <polygon points="279.1054,358.3551 279.9118,358.3551 279.9118,358.3551 279.9118,359.1599 279.9118,359.1599 279.1054,359.1599 279.1054,359.1599"/>
    <polyline points="286.9678,359.2607 286.9678,349.4335 286.9678,349.4335 282.283,355.9935 282.283,355.9935 288.6318,355.9935"/>
    <line x1="301.4655" x2="311.2158" y1="339.8884" y2="339.8884"/>
    <polyline points="297.4026,309.1979 297.4026,339.8884 297.4026,339.8884 301.4655,341.6864 301.4655,341.6864 301.4655,339.8884 301.4655,339.8884 301.4655,338.0904 301.4655,338.0904 297.4026,339.8884 297.4026,339.8884 261.9678,339.8884 261.9678,339.8884 261.9678,309.1979"/>
    <polyline points="276.173,314.3725 123.9384,314.3725 123.9384,314.3725 122.1404,318.4354 122.1404,318.4354 123.9384,318.4354 123.9384,318.4354 125.7365,318.4354 125.7365,318.4354 123.9384,314.3725 123.9384,314.3725 123.9384,82.4781 123.9384,82.4781 276.173,82.4781"/>
    <polyline points="272.0155,56.7108 267.0235,56.7108 267.0235,56.7108 269.5515,56.7108 269.5515,56.7108 269.5515,47.0388 269.5515,47.0388 267.8395,47.6948 267.8395,47.6948 269.5035,47.6468"/>
    <polyline points="274.7387,56.0052 275.2955,56.5604 275.2955,56.5604 276.2075,56.8612 276.2075,56.8612 277.1515,56.962 277.1515,56.962 278.1595,56.4596 278.1595,56.4596 279.1195,55.5028 279.1195,55.5028 279.6795,54.0468 279.6795,54.0468 279.9355,52.2708 279.9355,52.2708 279.9355,50.6068 279.9355,50.6068 279.5835,49.0548 279.5835,49.0548 278.9755,47.8388 278.9755,47.8388 278.0155,47.1348 278.0155,47.1348 276.9115,46.9268 276.9115,46.9268 275.7435,47.3428 275.7435,47.3428 275.0395,48.0468 275.0395,48.0468 274.6379,48.9428 274.6379,48.9428 274.5371,49.8548 274.5371,49.8548 274.5883,50.8628 274.5883,50.8628 275.1355,51.9188 275.1355,51.9188 276.1435,52.5748 276.1435,52.5748 277.3595,52.7348 277.3595,52.7348 278.6715,52.1748 278.6715,52.1748 279.4715,51.4228 279.4715,51.4228 279.9835,50.7668"/>
    <polygon points="282.9051,56.0564 283.7115,56.0564 283.7115,56.0564 283.7115,56.8612 283.7115,56.8612 282.9051,56.8612 282.9051,56.8612"/>
    <polyline points="286.2859,55.6532 286.9435,56.2068 286.9435,56.2068 287.6475,56.61 287.6475,56.61 288.4475,56.9124 288.4475,56.9124 289.2155,56.962 289.2155,56.962 290.3675,56.6612 290.3675,56.6612 291.1675,56.0052 291.1675,56.0052 291.8235,55.0548 291.8235,55.0548 292.0795,53.9348 292.0795,53.9348 291.9355,52.6228 291.9355,52.6228 291.3755,51.6148 291.3755,51.6148 290.2235,50.9588 290.2235,50.9588 289.0555,50.8628 289.0555,50.8628 288.2075,51.0708 288.2075,51.0708 287.3435,51.5188 287.3435,51.5188 287.2475,51.3748 287.2475,51.3748 287.5515,47.1348 287.5515,47.1348 291.6795,47.1348"/>
    <polyline points="320.963,66.6215 320.963,68.4195 320.963,68.4195 316.9001,66.6215 316.9001,66.6215 320.963,64.8235 320.963,64.8235 320.963,66.6215 320.963,66.6215 330.7133,66.6215"/>
    <polyline points="316.9001,134.7401 316.9001,66.6215 316.9001,66.6215 243.1421,66.2348 243.1421,66.2348 239.0791,64.4367 239.0791,64.4367 239.0791,66.2348 239.0791,66.2348 239.0791,68.0328 239.0791,68.0328 243.1421,66.2348"/>
    <line x1="243.1421" x2="243.1421" y1="66.6216" y2="134.3533"/>
    <polygon points="250.6313,147.5768 253.3493,179.162 253.3493,179.162 260.0633,183.0385 260.0633,183.0385 260.2989,182.7435 260.2989,182.7435 260.5388,182.4521 260.5388,182.4521 260.783,182.1644 260.783,182.1644 261.0314,181.8804 261.0314,181.8804 261.2839,181.6003 261.2839,181.6003 261.5406,181.3239 261.5406,181.3239 261.8014,181.0515 261.8014,181.0515 262.0662,180.783 262.0662,180.783 262.335,180.5185 262.335,180.5185 262.6077,180.258 262.6077,180.258 262.8842,180.0016 262.8842,180.0016 263.1646,179.7494 263.1646,179.7494 263.4488,179.5013 263.4488,179.5013 263.7367,179.2575 263.7367,179.2575 264.0283,179.0179 264.0283,179.0179 264.3236,178.7827 264.3236,178.7827 264.6224,178.5519 264.6224,178.5519 264.9248,178.3255 264.9248,178.3255 265.2306,178.1035 265.2306,178.1035 265.5399,177.8861 265.5399,177.8861 265.8525,177.6733 265.8525,177.6733 266.1685,177.4652 266.1685,177.4652 266.4878,177.2617 266.4878,177.2617 266.8104,177.0629 266.8104,177.0629 267.1361,176.8689 267.1361,176.8689 267.465,176.6797 267.465,176.6797 267.7969,176.4955 267.7969,176.4955 268.1319,176.3161 268.1319,176.3161 268.4699,176.1417 268.4699,176.1417 268.8109,175.9724 268.8109,175.9724 269.1547,175.8081 269.1547,175.8081 269.5014,175.6489 269.5014,175.6489 269.8509,175.495 269.8509,175.495 270.2031,175.3462 270.2031,175.3462 270.5581,175.2027 270.5581,175.2027 270.9157,175.0646 270.9157,175.0646 271.2759,174.9318 271.2759,174.9318 271.6386,174.8044 271.6386,174.8044 272.0039,174.6825 272.0039,174.6825 272.3716,174.5661 272.3716,174.5661 272.7417,174.4553 272.7417,174.4553 273.1142,174.3501 273.1142,174.3501 273.489,174.2506 273.489,174.2506 273.866,174.1568 273.866,174.1568 274.2453,174.0688 274.2453,174.0688 274.6267,173.9866 274.6267,173.9866 275.0102,173.9102 275.0102,173.9102 275.3958,173.8398 275.3958,173.8398 275.7834,173.7753 275.7834,173.7753 276.173,173.7169 276.173,173.7169 276.173,166.0602 276.173,166.0602"/>
    <polygon points="249.9015,185.2844 221.1245,198.1647 221.1245,198.1647 249.8379,211.6024 249.8379,211.6024 256.5374,207.735 256.5374,207.735 256.4002,207.3882 256.4002,207.3882 256.2679,207.0389 256.2679,207.0389 256.1407,206.6871 256.1407,206.6871 256.0186,206.333 256.0186,206.333 255.9017,205.9765 255.9017,205.9765 255.7901,205.6178 255.7901,205.6178 255.6836,205.2568 255.6836,205.2568 255.5825,204.8936 255.5825,204.8936 255.4868,204.5282 255.4868,204.5282 255.3965,204.1607 255.3965,204.1607 255.3116,203.7912 255.3116,203.7912 255.2323,203.4196 255.2323,203.4196 255.1585,203.046 255.1585,203.046 255.0903,202.6705 255.0903,202.6705 255.0278,202.2931 255.0278,202.2931 254.9711,201.9138 254.9711,201.9138 254.9201,201.5328 254.9201,201.5328 254.8749,201.1499 254.8749,201.1499 254.8355,200.7654 254.8355,200.7654 254.8021,200.3792 254.8021,200.3792 254.7746,199.9913 254.7746,199.9913 254.7532,199.6018 254.7532,199.6018 254.7378,199.2108 254.7378,199.2108 254.7286,198.8183 254.7286,198.8183 254.7255,198.4243 254.7255,198.4243 254.7286,198.0304 254.7286,198.0304 254.7378,197.6379 254.7378,197.6379 254.7532,197.247 254.7532,197.247 254.7747,196.8576 254.7747,196.8576 254.8021,196.4698 254.8021,196.4698 254.8355,196.0836 254.8355,196.0836 254.8749,195.6991 254.8749,195.6991 254.9201,195.3164 254.9201,195.3164 254.9711,194.9354 254.9711,194.9354 255.0279,194.5562 255.0279,194.5562 255.0904,194.1789 255.0904,194.1789 255.1585,193.8035 255.1585,193.8035 255.2323,193.43 255.2323,193.43 255.3117,193.0585 255.3117,193.0585 255.3965,192.689 255.3965,192.689 255.4868,192.3216 255.4868,192.3216 255.5826,191.9564 255.5826,191.9564 255.6837,191.5932 255.6837,191.5932 255.7901,191.2323 255.7901,191.2323 255.9018,190.8737 255.9018,190.8737 256.0187,190.5173 256.0187,190.5173 256.1408,190.1632 256.1408,190.1632 256.2679,189.8115 256.2679,189.8115 256.4002,189.4622 256.4002,189.4622 256.5374,189.1154 256.5374,189.1154"/>
    <polygon points="262.0713,192.3128 261.9512,192.6732 261.9512,192.6732 261.8382,193.0368 261.8382,193.0368 261.7323,193.4036 261.7323,193.4036 261.6337,193.7735 261.6337,193.7735 261.5425,194.1463 261.5425,194.1463 261.4587,194.5221 261.4587,194.5221 261.3825,194.9007 261.3825,194.9007 261.3139,195.2821 261.3139,195.2821 261.253,195.6662 261.253,195.6662 261.2,196.053 261.2,196.053 261.1548,196.4422 261.1548,196.4422 261.1177,196.834 261.1177,196.834 261.0886,197.2282 261.0886,197.2282 261.0678,197.6247 261.0678,197.6247 261.0552,198.0234 261.0552,198.0234 261.051,198.4243 261.051,198.4243 261.0552,198.8253 261.0552,198.8253 261.0678,199.2242 261.0678,199.2242 261.0888,199.6208 261.0888,199.6208 261.1179,200.0151 261.1179,200.0151 261.1552,200.4069 261.1552,200.4069 261.2005,200.7964 261.2005,200.7964 261.2537,201.1832 261.2537,201.1832 261.3147,201.5674 261.3147,201.5674 261.3835,201.949 261.3835,201.949 261.4599,202.3277 261.4599,202.3277 261.5438,202.7036 261.5438,202.7036 261.6352,203.0766 261.6352,203.0766 261.7339,203.4466 261.7339,203.4466 261.8398,203.8135 261.8398,203.8135 261.953,204.1772 261.953,204.1772 262.0731,204.5377 262.0731,204.5377 272.6598,198.4243 272.6598,198.4243"/>
    <polygon points="276.173,180.1207 275.7796,180.1995 275.7796,180.1995 275.3894,180.2864 275.3894,180.2864 275.0024,180.3813 275.0024,180.3813 274.6187,180.4842 274.6187,180.4842 274.2384,180.595 274.2384,180.595 273.8615,180.7135 273.8615,180.7135 273.4882,180.8397 273.4882,180.8397 273.1186,180.9736 273.1186,180.9736 272.7527,181.1149 272.7527,181.1149 272.3906,181.2636 272.3906,181.2636 272.0325,181.4196 272.0325,181.4196 271.6783,181.5829 271.6783,181.5829 271.3283,181.7533 271.3283,181.7533 270.9825,181.9308 270.9825,181.9308 270.641,182.1152 270.641,182.1152 270.3038,182.3064 270.3038,182.3064 269.9711,182.5044 269.9711,182.5044 269.643,182.7091 269.643,182.7091 269.3195,182.9204 269.3195,182.9204 269.0008,183.1382 269.0008,183.1382 268.6869,183.3624 268.6869,183.3624 268.3779,183.5929 268.3779,183.5929 268.074,183.8296 268.074,183.8296 267.7751,184.0725 267.7751,184.0725 267.4815,184.3214 267.4815,184.3214 267.1931,184.5762 267.1931,184.5762 266.9101,184.8369 266.9101,184.8369 266.6326,185.1033 266.6326,185.1033 266.3606,185.3755 266.3606,185.3755 266.0943,185.6532 266.0943,185.6532 265.8338,185.9364 265.8338,185.9364 265.579,186.225 265.579,186.225 276.173,192.3419 276.173,192.3419"/>
    <polygon points="283.1993,180.1207 283.1993,192.3419 283.1993,192.3419 293.7932,186.225 293.7932,186.225 293.5385,185.9364 293.5385,185.9364 293.2779,185.6532 293.2779,185.6532 293.0116,185.3756 293.0116,185.3756 292.7397,185.1034 292.7397,185.1034 292.4622,184.837 292.4622,184.837 292.1792,184.5763 292.1792,184.5763 291.8908,184.3215 291.8908,184.3215 291.5971,184.0726 291.5971,184.0726 291.2983,183.8298 291.2983,183.8298 290.9943,183.5931 290.9943,183.5931 290.6853,183.3626 290.6853,183.3626 290.3714,183.1384 290.3714,183.1384 290.0527,182.9206 290.0527,182.9206 289.7292,182.7093 289.7292,182.7093 289.401,182.5046 289.401,182.5046 289.0683,182.3066 289.0683,182.3066 288.7311,182.1154 288.7311,182.1154 288.3896,181.9309 288.3896,181.9309 288.0438,181.7535 288.0438,181.7535 287.6937,181.5831 287.6937,181.5831 287.3396,181.4198 287.3396,181.4198 286.9814,181.2638 286.9814,181.2638 286.6194,181.115 286.6194,181.115 286.2535,180.9737 286.2535,180.9737 285.8838,180.8399 285.8838,180.8399 285.5105,180.7136 285.5105,180.7136 285.1337,180.5951 285.1337,180.5951 284.7534,180.4843 284.7534,180.4843 284.3697,180.3814 284.3697,180.3814 283.9827,180.2864 283.9827,180.2864 283.5925,180.1995 283.5925,180.1995"/>
    <polygon points="297.2991,192.3128 286.7106,198.4262 286.7106,198.4262 297.2973,204.5377 297.2973,204.5377 297.4175,204.1772 297.4175,204.1772 297.5306,203.8135 297.5306,203.8135 297.6367,203.4466 297.6367,203.4466 297.7355,203.0766 297.7355,203.0766 297.827,202.7036 297.827,202.7036 297.9111,202.3277 297.9111,202.3277 297.9877,201.949 297.9877,201.949 298.0566,201.5674 298.0566,201.5674 298.1178,201.1832 298.1178,201.1832 298.1712,200.7964 298.1712,200.7964 298.2166,200.4069 298.2166,200.4069 298.254,200.0151 298.254,200.0151 298.2833,199.6208 298.2833,199.6208 298.3043,199.2242 298.3043,199.2242 298.317,198.8253 298.317,198.8253 298.3212,198.4243 298.3212,198.4243 298.317,198.0234 298.317,198.0234 298.3044,197.6247 298.3044,197.6247 298.2834,197.2282 298.2834,197.2282 298.2543,196.834 298.2543,196.834 298.217,196.4422 298.217,196.4422 298.1717,196.053 298.1717,196.053 298.1185,195.6662 298.1185,195.6662 298.0574,195.2821 298.0574,195.2821 297.9886,194.9007 297.9886,194.9007 297.9122,194.5221 297.9122,194.5221 297.8283,194.1463 297.8283,194.1463 297.737,193.7735 297.737,193.7735 297.6383,193.4036 297.6383,193.4036 297.5323,193.0368 297.5323,193.0368 297.4192,192.6732 297.4192,192.6732"/>
    <polygon points="309.5361,185.2481 302.8348,189.1173 302.8348,189.1173 302.972,189.4641 302.972,189.4641 303.1042,189.8133 303.1042,189.8133 303.2313,190.1649 303.2313,190.1649 303.3534,190.5189 303.3534,190.5189 303.4702,190.8752 303.4702,190.8752 303.5819,191.2338 303.5819,191.2338 303.6883,191.5946 303.6883,191.5946 303.7894,191.9577 303.7894,191.9577 303.8851,192.3229 303.8851,192.3229 303.9755,192.6902 303.9755,192.6902 304.0603,193.0596 304.0603,193.0596 304.1397,193.4311 304.1397,193.4311 304.2135,193.8045 304.2135,193.8045 304.2817,194.1798 304.2817,194.1798 304.3442,194.5571 304.3442,194.5571 304.401,194.9362 304.401,194.9362 304.452,195.3171 304.452,195.3171 304.4972,195.6998 304.4972,195.6998 304.5366,196.0842 304.5366,196.0842 304.57,196.4703 304.57,196.4703 304.5975,196.858 304.5975,196.858 304.619,197.2473 304.619,197.2473 304.6344,197.6382 304.6344,197.6382 304.6436,198.0305 304.6436,198.0305 304.6467,198.4244 304.6467,198.4244 304.6436,198.8184 304.6436,198.8184 304.6343,199.2109 304.6343,199.2109 304.6189,199.6019 304.6189,199.6019 304.5974,199.9913 304.5974,199.9913 304.5699,200.3792 304.5699,200.3792 304.5364,200.7654 304.5364,200.7654 304.497,201.15 304.497,201.15 304.4517,201.5328 304.4517,201.5328 304.4006,201.9139 304.4006,201.9139 304.3437,202.2932 304.3437,202.2932 304.2811,202.6706 304.2811,202.6706 304.2129,203.0461 304.2129,203.0461 304.139,203.4196 304.139,203.4196 304.0595,203.7912 304.0595,203.7912 303.9746,204.1608 303.9746,204.1608 303.8841,204.5283 303.8841,204.5283 303.7883,204.8936 303.7883,204.8936 303.6871,205.2568 303.6871,205.2568 303.5806,205.6178 303.5806,205.6178 303.4689,205.9766 303.4689,205.9766 303.3519,206.333 303.3519,206.333 303.2298,206.6872 303.2298,206.6872 303.1025,207.0389 303.1025,207.0389 302.9703,207.3882 302.9703,207.3882 302.833,207.7351 302.833,207.7351 309.4689,211.5662 309.4689,211.5662 338.2477,198.6858 338.2477,198.6858"/>
    <polygon points="299.3089,213.8103 299.0733,214.1054 299.0733,214.1054 298.8334,214.3968 298.8334,214.3968 298.5892,214.6846 298.5892,214.6846 298.3408,214.9686 298.3408,214.9686 298.0882,215.2489 298.0882,215.2489 297.8315,215.5253 297.8315,215.5253 297.5707,215.7978 297.5707,215.7978 297.3059,216.0664 297.3059,216.0664 297.0371,216.3309 297.0371,216.3309 296.7644,216.5915 296.7644,216.5915 296.4878,216.8479 296.4878,216.8479 296.2073,217.1002 296.2073,217.1002 295.9231,217.3484 295.9231,217.3484 295.6352,217.5923 295.6352,217.5923 295.3435,217.8319 295.3435,217.8319 295.0483,218.0671 295.0483,218.0671 294.7494,218.298 294.7494,218.298 294.4471,218.5245 294.4471,218.5245 294.1412,218.7464 294.1412,218.7464 293.8319,218.9639 293.8319,218.9639 293.5192,219.1767 293.5192,219.1767 293.2031,219.3849 293.2031,219.3849 292.8838,219.5885 292.8838,219.5885 292.5613,219.7873 292.5613,219.7873 292.2355,219.9813 292.2355,219.9813 291.9066,220.1705 291.9066,220.1705 291.5746,220.3548 291.5746,220.3548 291.2395,220.5342 291.2395,220.5342 290.9015,220.7086 290.9015,220.7086 290.5605,220.878 290.5605,220.878 290.2166,221.0423 290.2166,221.0423 289.8699,221.2014 289.8699,221.2014 289.5204,221.3555 289.5204,221.3555 289.1681,221.5042 289.1681,221.5042 288.8131,221.6477 288.8131,221.6477 288.4555,221.7859 288.4555,221.7859 288.0952,221.9187 288.0952,221.9187 287.7324,222.0461 287.7324,222.0461 287.3671,222.168 287.3671,222.168 286.9994,222.2844 286.9994,222.2844 286.6292,222.3952 286.6292,222.3952 286.2567,222.5004 286.2567,222.5004 285.8818,222.5999 285.8818,222.5999 285.5047,222.6937 285.5047,222.6937 285.1254,222.7818 285.1254,222.7818 284.744,222.864 284.744,222.864 284.3604,222.9403 284.3604,222.9403 283.9747,223.0108 283.9747,223.0108 283.5871,223.0752 283.5871,223.0752 283.1975,223.1337 283.1975,223.1337 283.1975,230.7903 283.1975,230.7903 308.7409,249.2737 308.7409,249.2737 306.0211,217.6849 306.0211,217.6849"/>
    <polygon points="283.1975,204.5086 283.1975,216.7317 283.1975,216.7317 283.5907,216.6529 283.5907,216.6529 283.9809,216.566 283.9809,216.566 284.3678,216.471 284.3678,216.471 284.7515,216.3681 284.7515,216.3681 285.1318,216.2573 285.1318,216.2573 285.5086,216.1387 285.5086,216.1387 285.8819,216.0124 285.8819,216.0124 286.2515,215.8785 286.2515,215.8785 286.6174,215.7371 286.6174,215.7371 286.9795,215.5883 286.9795,215.5883 287.3376,215.4322 287.3376,215.4322 287.6918,215.2688 287.6918,215.2688 288.0418,215.0983 288.0418,215.0983 288.3876,214.9208 288.3876,214.9208 288.7292,214.7363 288.7292,214.7363 289.0664,214.5449 289.0664,214.5449 289.3991,214.3468 289.3991,214.3468 289.7272,214.142 289.7272,214.142 290.0507,213.9306 290.0507,213.9306 290.3694,213.7127 290.3694,213.7127 290.6834,213.4885 290.6834,213.4885 290.9923,213.2579 290.9923,213.2579 291.2963,213.0211 291.2963,213.0211 291.5952,212.7782 291.5952,212.7782 291.8889,212.5293 291.8889,212.5293 292.1773,212.2744 292.1773,212.2744 292.4603,212.0137 292.4603,212.0137 292.7378,211.7472 292.7378,211.7472 293.0098,211.475 293.0098,211.475 293.2761,211.1973 293.2761,211.1973 293.5366,210.9141 293.5366,210.9141 293.7914,210.6256 293.7914,210.6256"/>
    <polygon points="276.173,204.5086 265.579,210.6256 265.579,210.6256 265.8338,210.9142 265.8338,210.9142 266.0943,211.1974 266.0943,211.1974 266.3606,211.4751 266.3606,211.4751 266.6326,211.7473 266.6326,211.7473 266.9101,212.0138 266.9101,212.0138 267.1931,212.2745 267.1931,212.2745 267.4815,212.5294 267.4815,212.5294 267.7752,212.7783 267.7752,212.7783 268.074,213.0212 268.074,213.0212 268.378,213.258 268.378,213.258 268.687,213.4886 268.687,213.4886 269.0009,213.7129 269.0009,213.7129 269.3196,213.9307 269.3196,213.9307 269.6431,214.1421 269.6431,214.1421 269.9713,214.3469 269.9713,214.3469 270.304,214.545 270.304,214.545 270.6411,214.7363 270.6411,214.7363 270.9827,214.9208 270.9827,214.9208 271.3285,215.0983 271.3285,215.0983 271.6785,215.2688 271.6785,215.2688 272.0327,215.4322 272.0327,215.4322 272.3908,215.5883 272.3908,215.5883 272.7529,215.7371 272.7529,215.7371 273.1188,215.8785 273.1188,215.8785 273.4884,216.0123 273.4884,216.0123 273.8617,216.1386 273.8617,216.1386 274.2386,216.2572 274.2386,216.2572 274.6189,216.368 274.6189,216.368 275.0026,216.471 275.0026,216.471 275.3895,216.566 275.3895,216.566 275.7797,216.6529 275.7797,216.6529 276.173,216.7317 276.173,216.7317"/>
    <polygon points="260.0633,213.8103 253.4146,217.6504 253.4146,217.6504 250.1792,249.0123 250.1792,249.0123 276.173,230.8648 276.173,230.8648 276.173,223.1337 276.173,223.1337 275.7834,223.0752 275.7834,223.0752 275.3958,223.0107 275.3958,223.0107 275.0102,222.9403 275.0102,222.9403 274.6266,222.8639 274.6266,222.8639 274.2452,222.7817 274.2452,222.7817 273.8659,222.6936 273.8659,222.6936 273.4889,222.5998 273.4889,222.5998 273.1141,222.5003 273.1141,222.5003 272.7416,222.3951 272.7416,222.3951 272.3715,222.2842 272.3715,222.2842 272.0038,222.1678 272.0038,222.1678 271.6385,222.0459 271.6385,222.0459 271.2758,221.9185 271.2758,221.9185 270.9156,221.7857 270.9156,221.7857 270.558,221.6475 270.558,221.6475 270.203,221.504 270.203,221.504 269.8508,221.3552 269.8508,221.3552 269.5013,221.2012 269.5013,221.2012 269.1546,221.042 269.1546,221.042 268.8108,220.8777 268.8108,220.8777 268.4698,220.7083 268.4698,220.7083 268.1318,220.5339 268.1318,220.5339 267.7968,220.3545 267.7968,220.3545 267.4649,220.1702 267.4649,220.1702 267.136,219.981 267.136,219.981 266.8103,219.7869 266.8103,219.7869 266.4878,219.5881 266.4878,219.5881 266.1685,219.3846 266.1685,219.3846 265.8525,219.1764 265.8525,219.1764 265.5398,218.9635 265.5398,218.9635 265.2305,218.7461 265.2305,218.7461 264.9247,218.5241 264.9247,218.5241 264.6223,218.2977 264.6223,218.2977 264.3235,218.0668 264.3235,218.0668 264.0283,217.8316 264.0283,217.8316 263.7367,217.592 263.7367,217.592 263.4488,217.3481 263.4488,217.3481 263.1646,217.1 263.1646,217.1 262.8842,216.8477 262.8842,216.8477 262.6076,216.5912 262.6076,216.5912 262.3349,216.3307 262.3349,216.3307 262.0662,216.0661 262.0662,216.0661 261.8014,215.7976 261.8014,215.7976 261.5406,215.5251 261.5406,215.5251 261.2839,215.2487 261.2839,215.2487 261.0314,214.9685 261.0314,214.9685 260.783,214.6845 260.783,214.6845 260.5388,214.3968 260.5388,214.3968 260.2989,214.1053 260.2989,214.1053"/>
    <polygon points="309.193,147.8383 283.1993,165.9858 283.1993,165.9858 283.1993,173.7169 283.1993,173.7169 283.5889,173.7753 283.5889,173.7753 283.9765,173.8398 283.9765,173.8398 284.3621,173.9103 284.3621,173.9103 284.7457,173.9866 284.7457,173.9866 285.1271,174.0689 285.1271,174.0689 285.5064,174.1569 285.5064,174.1569 285.8834,174.2507 285.8834,174.2507 286.2582,174.3503 286.2582,174.3503 286.6307,174.4555 286.6307,174.4555 287.0008,174.5663 287.0008,174.5663 287.3686,174.6827 287.3686,174.6827 287.7338,174.8046 287.7338,174.8046 288.0966,174.932 288.0966,174.932 288.4568,175.0649 288.4568,175.0649 288.8144,175.2031 288.8144,175.2031 289.1693,175.3466 289.1693,175.3466 289.5216,175.4954 289.5216,175.4954 289.8711,175.6494 289.8711,175.6494 290.2177,175.8086 290.2177,175.8086 290.5616,175.9729 290.5616,175.9729 290.9025,176.1423 290.9025,176.1423 291.2405,176.3167 291.2405,176.3167 291.5755,176.4961 291.5755,176.4961 291.9075,176.6804 291.9075,176.6804 292.2363,176.8696 292.2363,176.8696 292.5621,177.0636 292.5621,177.0636 292.8846,177.2625 292.8846,177.2625 293.2039,177.466 293.2039,177.466 293.5199,177.6742 293.5199,177.6742 293.8325,177.8871 293.8325,177.8871 294.1418,178.1045 294.1418,178.1045 294.4476,178.3265 294.4476,178.3265 294.75,178.5529 294.75,178.5529 295.0488,178.7838 295.0488,178.7838 295.344,179.019 295.344,179.019 295.6356,179.2586 295.6356,179.2586 295.9235,179.5025 295.9235,179.5025 296.2077,179.7506 296.2077,179.7506 296.4881,180.0029 296.4881,180.0029 296.7646,180.2594 296.7646,180.2594 297.0373,180.5199 297.0373,180.5199 297.3061,180.7845 297.3061,180.7845 297.5709,181.053 297.5709,181.053 297.8316,181.3255 297.8316,181.3255 298.0883,181.6019 298.0883,181.6019 298.3409,181.8821 298.3409,181.8821 298.5893,182.1661 298.5893,182.1661 298.8335,182.4538 298.8335,182.4538 299.0734,182.7452 299.0734,182.7452 299.3089,183.0403 299.3089,183.0403 305.9558,179.202 305.9558,179.202"/>
    <line x1="380.7925" x2="416.0127" y1="140.0065" y2="119.6368"/>
    <polyline points="402.8013,129.6416 407.7749,132.2515 407.7749,132.2515 405.9882,133.704 405.9882,133.704 404.2015,135.1565 404.2015,135.1565 402.8013,129.6416 402.9461,129.6121 403.196,129.9286 403.196,129.9286 403.4448,130.2457 403.4448,130.2457 403.6925,130.5632 403.6925,130.5632 403.939,130.8812 403.939,130.8812 404.1843,131.1997 404.1843,131.1997 404.4285,131.5187 404.4285,131.5187 404.6715,131.8381 404.6715,131.8381 404.9134,132.158 404.9134,132.158 405.1541,132.4784 405.1541,132.4784 405.3937,132.7992 405.3937,132.7992 405.632,133.1205 405.632,133.1205 405.8693,133.4422 405.8693,133.4422 406.1053,133.7644 406.1053,133.7644 406.3402,134.087 406.3402,134.087 406.5739,134.4101 406.5739,134.4101 406.8064,134.7337 406.8064,134.7337 407.0378,135.0577 407.0378,135.0577 407.268,135.3821 407.268,135.3821 407.497,135.707 407.497,135.707 407.7248,136.0323 407.7248,136.0323 407.9514,136.3581 407.9514,136.3581 408.1769,136.6843 408.1769,136.6843 408.4012,137.0109 408.4012,137.0109 408.6243,137.338 408.6243,137.338 408.8462,137.6655 408.8462,137.6655 409.0669,137.9934 409.0669,137.9934 409.2864,138.3218 409.2864,138.3218 409.5048,138.6505 409.5048,138.6505 409.7219,138.9797 409.7219,138.9797 409.9379,139.3093 409.9379,139.3093 410.1526,139.6393 410.1526,139.6393 410.3662,139.9698 410.3662,139.9698 410.5785,140.3006 410.5785,140.3006 410.7897,140.6319 410.7897,140.6319 410.9996,140.9635 410.9996,140.9635 411.2084,141.2956 411.2084,141.2956 411.4159,141.628 411.4159,141.628 411.6222,141.9609 411.6222,141.9609 411.8274,142.2942 411.8274,142.2942 412.0313,142.6278 412.0313,142.6278 412.234,142.9619 412.234,142.9619 412.4355,143.2963 412.4355,143.2963 412.6358,143.6311 412.6358,143.6311 412.8348,143.9663 412.8348,143.9663 413.0327,144.3019 413.0327,144.3019 413.2293,144.6379 413.2293,144.6379 413.4247,144.9742 413.4247,144.9742 413.6189,145.3109 413.6189,145.3109 413.8119,145.648 413.8119,145.648 414.0036,145.9855 414.0036,145.9855 414.1941,146.3233 414.1941,146.3233 414.3834,146.6615 414.3834,146.6615 414.5715,147.0001 414.5715,147.0001 414.7583,147.339 414.7583,147.339 414.9439,147.6783 414.9439,147.6783 415.1283,148.0179 415.1283,148.0179 415.3115,148.3579 415.3115,148.3579 415.4934,148.6983 415.4934,148.6983 415.674,149.039 415.674,149.039 415.8535,149.38 415.8535,149.38 416.0317,149.7214 416.0317,149.7214 416.2086,150.0631 416.2086,150.0631 416.3844,150.4052 416.3844,150.4052 416.5588,150.7476 416.5588,150.7476 416.7321,151.0904 416.7321,151.0904 416.9041,151.4334 416.9041,151.4334 417.0748,151.7768 417.0748,151.7768 417.2443,152.1206 417.2443,152.1206 417.4126,152.4646 417.4126,152.4646 417.5796,152.809 417.5796,152.809 417.7453,153.1537 417.7453,153.1537 417.9098,153.4987 417.9098,153.4987 418.0731,153.8441 418.0731,153.8441 418.2351,154.1897 418.2351,154.1897 418.3958,154.5357 418.3958,154.5357 418.5553,154.882 418.5553,154.882 418.7135,155.2285 418.7135,155.2285 418.8705,155.5754 418.8705,155.5754 419.0262,155.9226 419.0262,155.9226 419.1807,156.2701 419.1807,156.2701 419.3339,156.6179 419.3339,156.6179 419.4858,156.9659 419.4858,156.9659 419.6365,157.3143 419.6365,157.3143 419.7859,157.663 419.7859,157.663 419.934,158.0119 419.934,158.0119 420.0809,158.3611 420.0809,158.3611 420.2265,158.7106 420.2265,158.7106 420.3708,159.0604 420.3708,159.0604 420.5139,159.4105 420.5139,159.4105 420.6557,159.7608 420.6557,159.7608 420.7962,160.1114 420.7962,160.1114 420.9355,160.4623 420.9355,160.4623 421.0735,160.8134 421.0735,160.8134 421.2102,161.1649 421.2102,161.1649 421.3456,161.5165 421.3456,161.5165 421.4798,161.8685 421.4798,161.8685 421.6126,162.2207 421.6126,162.2207 421.7442,162.5731 421.7442,162.5731 421.8746,162.9258 421.8746,162.9258 422.0036,163.2787 422.0036,163.2787 422.1314,163.6319 422.1314,163.6319 422.2578,163.9854 422.2578,163.9854 422.383,164.3391 422.383,164.3391 422.507,164.693 422.507,164.693 422.6296,165.0472 422.6296,165.0472 422.7509,165.4015 422.7509,165.4015 422.871,165.7562 422.871,165.7562 422.9898,166.111 422.9898,166.111 423.1072,166.4661 423.1072,166.4661 423.2234,166.8214 423.2234,166.8214 423.3383,167.177 423.3383,167.177 423.452,167.5327 423.452,167.5327 423.5643,167.8887 423.5643,167.8887 423.6753,168.2449 423.6753,168.2449 423.7851,168.6013 423.7851,168.6013 423.8935,168.9579 423.8935,168.9579 424.0007,169.3147 424.0007,169.3147 424.1065,169.6717 424.1065,169.6717 424.2111,170.029 424.2111,170.029 424.3143,170.3864 424.3143,170.3864 424.4163,170.744 424.4163,170.744 424.517,171.1018 424.517,171.1018 424.6164,171.4599 424.6164,171.4599 424.7144,171.8181 424.7144,171.8181 424.8112,172.1765 424.8112,172.1765 424.9067,172.535 424.9067,172.535 425.0009,172.8938 425.0009,172.8938 425.0937,173.2527 425.0937,173.2527 425.1853,173.6118 425.1853,173.6118 425.2756,173.9711 425.2756,173.9711 425.3645,174.3306 425.3645,174.3306 425.4522,174.6902 425.4522,174.6902 425.5385,175.05 425.5385,175.05 425.6236,175.41 425.6236,175.41 425.7073,175.7701 425.7073,175.7701 425.7898,176.1304 425.7898,176.1304 425.8709,176.4909 425.8709,176.4909 425.9507,176.8515 425.9507,176.8515 426.0292,177.2123 426.0292,177.2123 426.1064,177.5732 426.1064,177.5732 426.1823,177.9342 426.1823,177.9342 426.2569,178.2954 426.2569,178.2954 426.3302,178.6568 426.3302,178.6568 426.4021,179.0182 426.4021,179.0182 426.4728,179.3799 426.4728,179.3799 426.5421,179.7416 426.5421,179.7416 426.6102,180.1035 426.6102,180.1035 426.6769,180.4655 426.6769,180.4655 426.7423,180.8277 426.7423,180.8277 426.8064,181.1899 426.8064,181.1899 426.8691,181.5523 426.8691,181.5523 426.9306,181.9148 426.9306,181.9148 426.9907,182.2775 426.9907,182.2775 427.0496,182.6402 427.0496,182.6402 427.1071,183.0031 427.1071,183.0031 427.1633,183.366 427.1633,183.366 427.2181,183.7291 427.2181,183.7291 427.2717,184.0923 427.2717,184.0923 427.3239,184.4556 427.3239,184.4556 427.3749,184.8189 427.3749,184.8189 427.4245,185.1824 427.4245,185.1824 427.4728,185.546 427.4728,185.546 427.5197,185.9096 427.5197,185.9096 427.5654,186.2734 427.5654,186.2734 427.6097,186.6372 427.6097,186.6372 427.6527,187.0012 427.6527,187.0012 427.6944,187.3652 427.6944,187.3652 427.7348,187.7292 427.7348,187.7292 427.7738,188.0934 427.7738,188.0934 427.8116,188.4576 427.8116,188.4576 427.848,188.8219 427.848,188.8219 427.883,189.1863 427.883,189.1863 427.9168,189.5507 427.9168,189.5507 427.9492,189.9153 427.9492,189.9153 427.9804,190.2798 427.9804,190.2798 428.0102,190.6444 428.0102,190.6444 428.0386,191.0091 428.0386,191.0091 428.0658,191.3739 428.0658,191.3739 428.0916,191.7386 428.0916,191.7386 428.1161,192.1035 428.1161,192.1035 428.1393,192.4683 428.1393,192.4683 428.1611,192.8333 428.1611,192.8333 428.1817,193.1982 428.1817,193.1982 428.2009,193.5632 428.2009,193.5632 428.2188,193.9283 428.2188,193.9283 428.2353,194.2933 428.2353,194.2933 428.2506,194.6584 428.2506,194.6584 428.2645,195.0236 428.2645,195.0236 428.2771,195.3887 428.2771,195.3887 428.2883,195.7539 428.2883,195.7539 428.2983,196.1191 428.2983,196.1191 428.3069,196.4843 428.3069,196.4843 428.3142,196.8495 428.3142,196.8495 428.3201,197.2148 428.3201,197.2148 428.3248,197.58 428.3248,197.58 428.3281,197.9453 428.3281,197.9453 428.3301,198.3106 428.3301,198.3106 428.3307,198.6758 428.3307,198.6758 428.3301,199.0411 428.3301,199.0411 428.3281,199.4064 428.3281,199.4064 428.3248,199.7716 428.3248,199.7716 428.3201,200.1369 428.3201,200.1369 428.3142,200.5021 428.3142,200.5021 428.3069,200.8674 428.3069,200.8674 428.2983,201.2326 428.2983,201.2326 428.2883,201.5978 428.2883,201.5978 428.2771,201.963 428.2771,201.963 428.2645,202.3281 428.2645,202.3281 428.2506,202.6932 428.2506,202.6932 428.2353,203.0583 428.2353,203.0583 428.2188,203.4234 428.2188,203.4234 428.2009,203.7884 428.2009,203.7884 428.1817,204.1535 428.1817,204.1535 428.1611,204.5184 428.1611,204.5184 428.1393,204.8833 428.1393,204.8833 428.1161,205.2482 428.1161,205.2482 428.0916,205.613 428.0916,205.613 428.0658,205.9778 428.0658,205.9778 428.0386,206.3426 428.0386,206.3426 428.0102,206.7072 428.0102,206.7072 427.9804,207.0719 427.9804,207.0719 427.9492,207.4364 427.9492,207.4364 427.9168,207.8009 427.9168,207.8009 427.883,208.1654 427.883,208.1654 427.848,208.5297 427.848,208.5297 427.8116,208.8941 427.8116,208.8941 427.7738,209.2583 427.7738,209.2583 427.7348,209.6224 427.7348,209.6224 427.6944,209.9865 427.6944,209.9865 427.6527,210.3505 427.6527,210.3505 427.6097,210.7144 427.6097,210.7144 427.5654,211.0783 427.5654,211.0783 427.5197,211.442 427.5197,211.442 427.4728,211.8057 427.4728,211.8057 427.4245,212.1693 427.4245,212.1693 427.3749,212.5327 427.3749,212.5327 427.3239,212.8961 427.3239,212.8961 427.2717,213.2594 427.2717,213.2594 427.2181,213.6226 427.2181,213.6226 427.1633,213.9856 427.1633,213.9856 427.1071,214.3486 427.1071,214.3486 427.0496,214.7115 427.0496,214.7115 426.9907,215.0742 426.9907,215.0742 426.9306,215.4368 426.9306,215.4368 426.8691,215.7994 426.8691,215.7994 426.8064,216.1617 426.8064,216.1617 426.7423,216.524 426.7423,216.524 426.6769,216.8862 426.6769,216.8862 426.6102,217.2482 426.6102,217.2482 426.5421,217.6101 426.5421,217.6101 426.4728,217.9718 426.4728,217.9718 426.4021,218.3334 426.4021,218.3334 426.3302,218.6949 426.3302,218.6949 426.2569,219.0563 426.2569,219.0563 426.1823,219.4175 426.1823,219.4175 426.1064,219.7785 426.1064,219.7785 426.0292,220.1394 426.0292,220.1394 425.9507,220.5002 425.9507,220.5002 425.8709,220.8608 425.8709,220.8608 425.7898,221.2212 425.7898,221.2212 425.7073,221.5815 425.7073,221.5815 425.6236,221.9417 425.6236,221.9417 425.5385,222.3016 425.5385,222.3016 425.4522,222.6614 425.4522,222.6614 425.3645,223.0211 425.3645,223.0211 425.2756,223.3805 425.2756,223.3805 425.1853,223.7398 425.1853,223.7398 425.0937,224.099 425.0937,224.099 425.0009,224.4579 425.0009,224.4579 424.9067,224.8167 424.9067,224.8167 424.8112,225.1752 424.8112,225.1752 424.7144,225.5336 424.7144,225.5336 424.6164,225.8918 424.6164,225.8918 424.517,226.2498 424.517,226.2498 424.4163,226.6077 424.4163,226.6077 424.3143,226.9653 424.3143,226.9653 424.2111,227.3227 424.2111,227.3227 424.1065,227.6799 424.1065,227.6799 424.0006,228.037 424.0006,228.037 423.8935,228.3938 423.8935,228.3938 423.785,228.7504 423.785,228.7504 423.6753,229.1068 423.6753,229.1068 423.5643,229.463 423.5643,229.463 423.4519,229.819 423.4519,229.819 423.3383,230.1747 423.3383,230.1747 423.2234,230.5302 423.2234,230.5302 423.1072,230.8856 423.1072,230.8856 422.9897,231.2406 422.9897,231.2406 422.871,231.5955 422.871,231.5955 422.7509,231.9501 422.7509,231.9501 422.6296,232.3045 422.6296,232.3045 422.5069,232.6587 422.5069,232.6587 422.383,233.0126 422.383,233.0126 422.2578,233.3663 422.2578,233.3663 422.1314,233.7197 422.1314,233.7197 422.0036,234.0729 422.0036,234.0729 421.8746,234.4259 421.8746,234.4259 421.7442,234.7786 421.7442,234.7786 421.6126,235.131 421.6126,235.131 421.4798,235.4832 421.4798,235.4832 421.3456,235.8351 421.3456,235.8351 421.2102,236.1868 421.2102,236.1868 421.0735,236.5382 421.0735,236.5382 420.9355,236.8894 420.9355,236.8894 420.7962,237.2403 420.7962,237.2403 420.6557,237.5909 420.6557,237.5909 420.5139,237.9412 420.5139,237.9412 420.3708,238.2913 420.3708,238.2913 420.2265,238.6411 420.2265,238.6411 420.0809,238.9906 420.0809,238.9906 419.934,239.3398 419.934,239.3398 419.7859,239.6887 419.7859,239.6887 419.6365,240.0374 419.6365,240.0374 419.4858,240.3857 419.4858,240.3857 419.3339,240.7338 419.3339,240.7338 419.1807,241.0816 419.1807,241.0816 419.0262,241.4291 419.0262,241.4291 418.8705,241.7763 418.8705,241.7763 418.7135,242.1231 418.7135,242.1231 418.5553,242.4697 418.5553,242.4697 418.3958,242.816 418.3958,242.816 418.2351,243.1619 418.2351,243.1619 418.0731,243.5076 418.0731,243.5076 417.9098,243.8529 417.9098,243.8529 417.7453,244.198 417.7453,244.198 417.5796,244.5427 417.5796,244.5427 417.4126,244.887 417.4126,244.887 417.2443,245.2311 417.2443,245.2311 417.0748,245.5748 417.0748,245.5748 416.9041,245.9182 416.9041,245.9182 416.7321,246.2613 416.7321,246.2613 416.5588,246.6041 416.5588,246.6041 416.3843,246.9465 416.3843,246.9465 416.2086,247.2885 416.2086,247.2885 416.0317,247.6303 416.0317,247.6303 415.8535,247.9717 415.8535,247.9717 415.674,248.3127 415.674,248.3127 415.4934,248.6534 415.4934,248.6534 415.3114,248.9937 415.3114,248.9937 415.1283,249.3337 415.1283,249.3337 414.9439,249.6734 414.9439,249.6734 414.7583,250.0127 414.7583,250.0127 414.5715,250.3516 414.5715,250.3516 414.3834,250.6902 414.3834,250.6902 414.1941,251.0284 414.1941,251.0284 414.0036,251.3662 414.0036,251.3662 413.8119,251.7036 413.8119,251.7036 413.6189,252.0407 413.6189,252.0407 413.4247,252.3775 413.4247,252.3775 413.2293,252.7138 413.2293,252.7138 413.0327,253.0498 413.0327,253.0498 412.8348,253.3854 412.8348,253.3854 412.6358,253.7206 412.6358,253.7206 412.4355,254.0554 412.4355,254.0554 412.234,254.3898 412.234,254.3898 412.0313,254.7239 412.0313,254.7239 411.8274,255.0575 411.8274,255.0575 411.6222,255.3908 411.6222,255.3908 411.4159,255.7236 411.4159,255.7236 411.2084,256.0561 411.2084,256.0561 410.9996,256.3882 410.9996,256.3882 410.7897,256.7198 410.7897,256.7198 410.5785,257.0511 410.5785,257.0511 410.3662,257.3819 410.3662,257.3819 410.1526,257.7123 410.1526,257.7123 409.9378,258.0424 409.9378,258.0424 409.7219,258.372 409.7219,258.372 409.5048,258.7011 409.5048,258.7011 409.2864,259.0299 409.2864,259.0299 409.0669,259.3583 409.0669,259.3583 408.8462,259.6862 408.8462,259.6862 408.6243,260.0137 408.6243,260.0137 408.4012,260.3407 408.4012,260.3407 408.1769,260.6674 408.1769,260.6674 407.9514,260.9936 407.9514,260.9936 407.7248,261.3193 407.7248,261.3193 407.497,261.6447 407.497,261.6447 407.268,261.9695 407.268,261.9695 407.0378,262.294 407.0378,262.294 406.8064,262.618 406.8064,262.618 406.5739,262.9415 406.5739,262.9415 406.3402,263.2646 406.3402,263.2646 406.1053,263.5873 406.1738,263.7098 404.3601,262.2912 404.3601,262.2912 402.9461,267.7396 402.9461,267.7396 407.9874,265.1282 407.9874,265.1282 406.1738,263.7098 406.1053,263.5873 405.8692,263.9095 405.8692,263.9095 405.632,264.2312 405.632,264.2312 405.3937,264.5525 405.3937,264.5525 405.1541,264.8733 405.1541,264.8733 404.9134,265.1937 404.9134,265.1937 404.6715,265.5136 404.6715,265.5136 404.4285,265.833 404.4285,265.833 404.1843,266.152 404.1843,266.152 403.939,266.4704 403.939,266.4704 403.6925,266.7884 403.6925,266.7884 403.4448,267.106 403.4448,267.106 403.196,267.423 403.196,267.423 402.9461,267.7396"/>
    <line x1="415.7665" x2="380.5463" y1="277.21" y2="256.8403"/>
    <line x1="381.3335" x2="381.3335" y1="271.5777" y2="281.328"/>
    <polyline points="393.5789,290.1634 389.4509,290.1634 389.4509,290.1634 389.1469,294.4034 389.1469,294.4034 389.2429,294.5474 389.2429,294.5474 390.1069,294.0994 390.1069,294.0994 390.9549,293.8914 390.9549,293.8914 392.1229,293.9874 392.1229,293.9874 393.2749,294.6434 393.2749,294.6434 393.8349,295.6514 393.8349,295.6514 393.9789,296.9634 393.9789,296.9634 393.7229,298.0834 393.7229,298.0834 393.0669,299.0338 393.0669,299.0338 392.2669,299.6898 392.2669,299.6898 391.1149,299.9906 391.1149,299.9906 390.3469,299.941 390.3469,299.941 389.5469,299.6386 389.5469,299.6386 388.8429,299.2354 388.8429,299.2354 388.1853,298.6818"/>
    <polygon points="396.8045,299.085 397.6109,299.085 397.6109,299.085 397.6109,299.8898 397.6109,299.8898 396.8045,299.8898 396.8045,299.8898"/>
    <polyline points="405.9789,299.7394 400.9869,299.7394 400.9869,299.7394 403.5149,299.7394 403.5149,299.7394 403.5149,290.0674 403.5149,290.0674 401.8029,290.7234 401.8029,290.7234 403.4669,290.6754"/>
    <polyline points="381.6004,304.7277 383.3984,308.7906 383.3984,308.7906 381.6004,308.7906 381.6004,308.7906 379.8023,308.7906 379.8023,308.7906 381.6004,304.7277 381.6004,304.7277 381.3335,285.3909 381.3335,285.3909 379.5355,281.328 379.5355,281.328 381.3335,281.328 381.3335,281.328 383.1316,281.328 383.1316,281.328 381.3335,285.3909 381.3335,285.3909 301.8762,285.3909"/>
    <line x1="301.8762" x2="381.3335" y1="304.7277" y2="304.7277"/>
    <line x1="381.6004" x2="381.6004" y1="308.7906" y2="318.5409"/>
    <polyline points="387.0647,351.224 381.9127,351.224 381.9127,351.224 381.9127,355.976"/>
    <polyline points="386.4087,355.976 381.9127,355.976 381.9127,355.976 381.9127,361.2096"/>
    <polyline points="389.8807,361.2096 389.8807,353.8 389.8807,353.8 389.8807,356.072 389.8807,356.072 390.3447,355.16 390.3447,355.16 391.0487,354.248 391.0487,354.248 391.8007,353.896 391.8007,353.896 392.5047,353.8 392.5047,353.8 392.9527,353.848"/>
    <polyline points="394.6679,357.272 400.2167,357.272 400.2167,357.272 400.2167,356.376 400.2167,356.376 399.9607,355.208 399.9607,355.208 399.2087,354.312 399.2087,354.312 398.4407,353.8 398.4407,353.8 397.3847,353.752 397.3847,353.752 396.3287,354.056 396.3287,354.056 395.4167,354.808 395.4167,354.808 395.0647,355.56 395.0647,355.56 394.6679,356.52 394.6679,356.52 394.5671,357.528 394.5671,357.528 394.8183,358.744 394.8183,358.744 395.2727,359.848 395.2727,359.848 396.1847,360.7568 396.1847,360.7568 397.0327,361.1584 397.0327,361.1584 398.0887,361.2592 398.0887,361.2592 399.0007,361.008 399.0007,361.008 399.8647,360.5536"/>
    <line x1="403.3367" x2="403.3367" y1="361.2592" y2="353.848"/>
    <polygon points="402.8823,350.776 403.6887,350.776 403.6887,350.776 403.6887,351.576 403.6887,351.576 402.8823,351.576 402.8823,351.576"/>
    <polyline points="410.3447,353.96 409.5927,353.8 409.5927,353.8 408.4247,353.896 408.4247,353.896 407.6247,354.552 407.6247,354.552 407.1607,355.464 407.1607,355.464 407.1127,356.472 407.1127,356.472 407.3207,357.272 407.3207,357.272 407.7207,357.784 407.7207,357.784 408.1687,358.184"/>
    <polyline points="408.0727,360.8576 407.3207,361.5624 407.3207,361.5624 406.8151,362.4192 406.8151,362.4192 406.7127,363.32 406.7127,363.32 407.4167,364.088 407.4167,364.088 408.5847,364.584 408.5847,364.584 409.9447,364.744 409.9447,364.744 411.1447,364.44 411.1447,364.44 412.3607,363.624 412.3607,363.624 412.8087,362.872 412.8087,362.872 412.7607,362.016 412.7607,362.016 412.3127,361.2096 412.3127,361.2096 411.1927,360.9072 411.1927,360.9072 408.1207,360.9072 408.1207,360.9072 407.4647,360.4544 407.4647,360.4544 407.1607,359.752 407.1607,359.752 407.3207,359.096 407.3207,359.096 408.1687,358.136 408.1687,358.136 408.7287,358.488 408.7287,358.488 409.5927,358.632 409.5927,358.632 410.6487,358.28 410.6487,358.28 411.4007,357.576 411.4007,357.576 411.7527,356.728 411.7527,356.728 411.7527,355.72 411.7527,355.72 411.3527,354.808 411.3527,354.808 411.0487,354.408 411.0487,354.408 410.3447,353.96 410.3447,353.96 412.7607,353.96"/>
    <polyline points="415.3847,354.664 416.4407,354.056 416.4407,354.056 417.3367,353.8 417.3367,353.8 418.2487,353.704 418.2487,353.704 418.9527,353.96 418.9527,353.96 419.5607,354.504 419.5607,354.504 419.9607,355.32 419.9607,355.32 420.0087,356.424 420.0087,356.424 420.0087,359.8 420.0087,359.8 420.0087,361.1584 420.0087,361.1584 419.9607,359.8 419.9607,359.8 419.3047,360.2512 419.3047,360.2512 418.6007,360.7568 418.6007,360.7568 417.8007,361.1088 417.8007,361.1088 416.8887,361.2592 416.8887,361.2592 416.1367,361.008 416.1367,361.008 415.5287,360.6048 415.5287,360.6048 415.0743,359.9504 415.0743,359.9504 415.0743,358.984 415.0743,358.984 415.4327,358.232 415.4327,358.232 416.2327,357.576 416.2327,357.576 417.0327,357.272 417.0327,357.272 417.9927,356.968 417.9927,356.968 418.9047,356.824 418.9047,356.824 419.4647,356.776 419.4647,356.776 419.9127,356.776"/>
    <polyline points="423.8967,355.208 424.9047,354.408 424.9047,354.408 425.8647,353.896 425.8647,353.896 426.8247,353.704 426.8247,353.704 427.7367,353.896 427.7367,353.896 428.3928,354.248 428.3928,354.248 429.1448,355.208 429.1448,355.208 429.3848,356.376 429.3848,356.376 429.4488,357.624 429.4488,357.624 429.2408,358.888 429.2408,358.888 428.7448,359.896 428.7448,359.896 428.0887,360.6048 428.0887,360.6048 427.0167,361.2096 427.0167,361.2096 426.1207,361.1584 426.1207,361.1584 425.2087,360.9072 425.2087,360.9072 424.3607,360.3536 424.3607,360.3536 423.8007,359.896 423.8007,359.896 423.8007,361.2592 423.8007,361.2592 423.8007,350.024"/>
    <polyline points="432.268,357.272 437.8168,357.272 437.8168,357.272 437.8168,356.376 437.8168,356.376 437.5608,355.208 437.5608,355.208 436.8088,354.312 436.8088,354.312 436.0408,353.8 436.0408,353.8 434.9848,353.752 434.9848,353.752 433.9288,354.056 433.9288,354.056 433.0168,354.808 433.0168,354.808 432.6648,355.56 432.6648,355.56 432.268,356.52 432.268,356.52 432.1672,357.528 432.1672,357.528 432.4184,358.744 432.4184,358.744 432.8728,359.848 432.8728,359.848 433.7848,360.7568 433.7848,360.7568 434.6328,361.1584 434.6328,361.1584 435.6888,361.2592 435.6888,361.2592 436.6008,361.008 436.6008,361.008 437.4648,360.5536"/>
    <polygon points="440.4824,360.3536 441.2408,360.3536 441.2408,360.3536 441.2408,361.1088 441.2408,361.1088 440.4824,361.1088 440.4824,361.1088"/>
    <polygon points="440.4824,354.248 441.2408,354.248 441.2408,354.248 441.2408,355.016 441.2408,355.016 440.4824,355.016 440.4824,355.016"/>
    <polyline points="450.1624,352.584 450.8248,351.944 450.8248,351.944 451.6248,351.432 451.6248,351.432 452.6328,351.176 452.6328,351.176 453.4968,351.336 453.4968,351.336 454.3928,351.784 454.3928,351.784 454.9528,352.536 454.9528,352.536 455.2088,353.656 455.2088,353.656 455.1448,354.6 455.1448,354.6 454.6488,355.768 454.6488,355.768 453.7368,357.08 453.7368,357.08 452.6328,358.44 452.6328,358.44 451.6248,359.496 451.6248,359.496 450.7128,360.504 450.7128,360.504 450.2632,361.008 450.2632,361.008 455.9608,361.008"/>
    <polygon points="460.9528,361.2096 460.2488,361.1584 460.2488,361.1584 459.6408,360.6544 459.6408,360.6544 459.0328,360.0 459.0328,360.0 458.5288,358.584 458.5288,358.584 458.3272,357.176 458.3272,357.176 458.3768,355.672 458.3768,355.672 458.5288,354.152 458.5288,354.152 458.9848,352.696 458.9848,352.696 459.6408,351.784 459.6408,351.784 460.6008,351.224 460.6008,351.224 461.1928,351.176 461.1928,351.176 461.9128,351.432 461.9128,351.432 462.7128,352.04 462.7128,352.04 463.2088,353.0 463.2088,353.0 463.5768,354.504 463.5768,354.504 463.6728,356.072 463.6728,356.072 463.5768,357.736 463.5768,357.736 463.3688,358.936 463.3688,358.936 462.9208,360.0 462.9208,360.0 461.9128,361.008 461.9128,361.008"/>
    <polyline points="466.2424,352.584 466.9048,351.944 466.9048,351.944 467.7048,351.432 467.7048,351.432 468.7128,351.176 468.7128,351.176 469.5768,351.336 469.5768,351.336 470.4728,351.784 470.4728,351.784 471.0328,352.536 471.0328,352.536 471.2888,353.656 471.2888,353.656 471.2248,354.6 471.2248,354.6 470.7288,355.768 470.7288,355.768 469.8168,357.08 469.8168,357.08 468.7128,358.44 468.7128,358.44 467.7048,359.496 467.7048,359.496 466.7928,360.504 466.7928,360.504 466.3432,361.008 466.3432,361.008 472.0408,361.008"/>
    <polyline points="479.8488,361.008 474.8568,361.008 474.8568,361.008 477.3848,361.008 477.3848,361.008 477.3848,351.336 477.3848,351.336 475.6728,351.992 475.6728,351.992 477.3368,351.944"/>
    <line x1="482.068" x2="485.3368" y1="357.336" y2="357.336"/>
    <polyline points="490.6488,351.944 488.9848,351.992 488.9848,351.992 490.6968,351.336 490.6968,351.336 490.6968,361.008 490.6968,361.008 488.1688,361.008 488.1688,361.008 493.1608,361.008"/>
    <polyline points="501.4808,361.008 495.7832,361.008 495.7832,361.008 496.2328,360.504 496.2328,360.504 497.1448,359.496 497.1448,359.496 498.1528,358.44 498.1528,358.44 499.2568,357.08 499.2568,357.08 500.1688,355.768 500.1688,355.768 500.6648,354.6 500.6648,354.6 500.7288,353.656 500.7288,353.656 500.4728,352.536 500.4728,352.536 499.9128,351.784 499.9128,351.784 499.0168,351.336 499.0168,351.336 498.1528,351.176 498.1528,351.176 497.1448,351.432 497.1448,351.432 496.3448,351.944 496.3448,351.944 495.6824,352.584"/>
    <line x1="503.444" x2="506.7128" y1="357.336" y2="357.336"/>
    <polyline points="512.0248,351.944 510.3608,351.992 510.3608,351.992 512.0728,351.336 512.0728,351.336 512.0728,361.008 512.0728,361.008 509.5448,361.008 509.5448,361.008 514.5368,361.008"/>
    <polyline points="519.4328,361.2096 519.6248,358.536 519.6248,358.536 520.0248,356.616 520.0248,356.616 520.5848,354.952 520.5848,354.952 521.2888,353.656 521.2888,353.656 522.0408,352.44 522.0408,352.44 522.8088,351.384 522.8088,351.384 517.0088,351.384"/>
    <polyline points="450.9856,204.6477 450.2816,204.5965 450.2816,204.5965 449.6736,204.0925 449.6736,204.0925 449.0656,203.4381 449.0656,203.4381 448.5616,202.0221 448.5616,202.0221 448.36,200.6141 448.36,200.6141 448.4096,199.1101 448.4096,199.1101 448.5616,197.5901 448.5616,197.5901 449.0176,196.1341 449.0176,196.1341 449.6736,195.2221 449.6736,195.2221 450.6336,194.6621 450.6336,194.6621 451.2256,194.6141 451.2256,194.6141 451.9456,194.8701 451.9456,194.8701 452.7456,195.4781 452.7456,195.4781 453.2416,196.4381 453.2416,196.4381 453.6096,197.9421 453.6096,197.9421 453.7056,199.5101 453.7056,199.5101 453.6096,201.1741 453.6096,201.1741 453.4016,202.3741 453.4016,202.3741 452.9536,203.4381 452.9536,203.4381 451.9456,204.4461 451.9456,204.4461 450.9856,204.6477"/>
    <polyline points="445.6896,195.5261 445.0336,194.9661 445.0336,194.9661 444.1216,194.6621 444.1216,194.6621 443.1616,194.7261 443.1616,194.7261 442.2016,195.1261 442.2016,195.1261 441.4496,195.8781 441.4496,195.8781 441.0016,196.7901 441.0016,196.7901 440.6432,197.9421 440.6432,197.9421 440.4416,199.8621 440.4416,199.8621 440.544,201.3661 440.544,201.3661 440.8416,202.7901 440.8416,202.7901 441.4976,203.7917 441.4976,203.7917 442.3136,204.3965 442.3136,204.3965 443.2096,204.6973 443.2096,204.6973 444.2176,204.5469 444.2176,204.5469 445.0816,203.9421 445.0816,203.9421 445.6416,202.9821 445.6416,202.9821 445.8816,201.8301 445.8816,201.8301 445.7376,200.7101 445.7376,200.7101 445.3376,199.7661 445.3376,199.7661 444.7776,199.2541 444.7776,199.2541 444.0256,198.9021 444.0256,198.9021 443.0176,198.9021 443.0176,198.9021 442.1056,199.2061 442.1056,199.2061 441.1936,199.9101 441.1936,199.9101 440.4416,200.7101"/>
    <polygon points="458.9376,195.7661 458.6976,195.7501 458.6976,195.7501 458.4416,195.6701 458.4416,195.6701 458.2016,195.4621 458.2016,195.4621 457.9776,195.1901 457.9776,195.1901 457.8336,194.8221 457.8336,194.8221 457.7696,194.4221 457.7696,194.4221 457.7856,193.9101 457.7856,193.9101 457.8656,193.5581 457.8656,193.5581 458.0896,193.1261 458.0896,193.1261 458.3936,192.8701 458.3936,192.8701 458.7136,192.7421 458.7136,192.7421 459.0016,192.7101 459.0016,192.7101 459.3216,192.7581 459.3216,192.7581 459.6576,192.9661 459.6576,192.9661 459.8976,193.2701 459.8976,193.2701 460.0576,193.6061 460.0576,193.6061 460.1376,194.0221 460.1376,194.0221 460.1376,194.5181 460.1376,194.5181 459.9936,195.0461 459.9936,195.0461 459.7216,195.4621 459.7216,195.4621 459.3216,195.7181 459.3216,195.7181"/>
    <line x1="239.0791" x2="229.3289" y1="66.2348" y2="66.2348"/>
    <polyline points="186.6279,46.6331 186.6279,40.8379 186.6279,40.8379 186.3239,40.1339 186.3239,40.1339 185.9719,39.6219 185.9719,39.6219 185.5239,39.3339 185.5239,39.3339 184.7559,39.1259 184.7559,39.1259 184.2599,39.1739 184.2599,39.1739 183.5079,39.3819 183.5079,39.3819 182.9959,39.6859 182.9959,39.6859 182.3399,40.2779 182.3399,40.2779 181.6359,40.9819 181.6359,40.9819 181.6359,39.1739 181.6359,39.1739 181.6359,46.6331"/>
    <polyline points="178.1639,45.9275 177.2999,46.3819 177.2999,46.3819 176.3879,46.6331 176.3879,46.6331 175.3319,46.5323 175.3319,46.5323 174.4839,46.1307 174.4839,46.1307 173.5719,45.2219 173.5719,45.2219 173.1175,44.1179 173.1175,44.1179 172.8663,42.9019 172.8663,42.9019 172.9671,41.8939 172.9671,41.8939 173.3639,40.9339 173.3639,40.9339 173.7159,40.1819 173.7159,40.1819 174.6279,39.4299 174.6279,39.4299 175.6839,39.1259 175.6839,39.1259 176.7399,39.1739 176.7399,39.1739 177.5079,39.6859 177.5079,39.6859 178.2599,40.5819 178.2599,40.5819 178.5159,41.7499 178.5159,41.7499 178.5159,42.6459 178.5159,42.6459 172.9671,42.6459"/>
    <polyline points="170.9959,46.2811 170.4519,46.5323 170.4519,46.5323 169.7319,46.5323 169.7319,46.5323 169.0919,46.3323 169.0919,46.3323 168.5319,45.6763 168.5319,45.6763 168.4359,44.5659 168.4359,44.5659 168.4359,39.3819 168.4359,39.3819 166.9671,39.3819 166.9671,39.3819 170.8519,39.3819 170.8519,39.3819 168.4359,39.3819 168.4359,39.3819 168.4359,37.1099"/>
    <polyline points="164.4039,46.5835 164.4039,41.5899 164.4039,41.5899 164.1959,40.4379 164.1959,40.4379 163.7959,39.7339 163.7959,39.7339 162.6919,39.1259 162.6919,39.1259 161.7319,39.2219 161.7319,39.2219 160.7719,39.6219 160.7719,39.6219 160.1159,40.2299 160.1159,40.2299 159.3639,41.0459 159.3639,41.0459 159.3639,35.4459 159.3639,35.4459 159.3639,46.5323"/>
    <polyline points="156.4039,45.7275 155.5879,46.3323 155.5879,46.3323 154.3879,46.5835 154.3879,46.5835 153.2679,46.4315 153.2679,46.4315 152.1159,45.6763 152.1159,45.6763 151.4599,44.6139 151.4599,44.6139 151.2071,43.3659 151.2071,43.3659 151.2071,42.0539 151.2071,42.0539 151.6039,40.8379 151.6039,40.8379 152.4199,39.8779 152.4199,39.8779 153.3799,39.3339 153.3799,39.3339 154.4359,39.1739 154.4359,39.1739 155.3319,39.3339 155.3319,39.3339 155.9399,39.6219 155.9399,39.6219 156.1959,39.9259"/>
    <polyline points="147.8759,42.1499 147.4279,42.1499 147.4279,42.1499 146.8679,42.1979 146.8679,42.1979 145.9559,42.3419 145.9559,42.3419 144.9959,42.6459 144.9959,42.6459 144.1959,42.9499 144.1959,42.9499 143.3959,43.6059 143.3959,43.6059 143.0375,44.3579 143.0375,44.3579 143.0375,45.3243 143.0375,45.3243 143.4919,45.9787 143.4919,45.9787 144.0999,46.3819 144.0999,46.3819 144.8519,46.6331 144.8519,46.6331 145.7639,46.4827 145.7639,46.4827 146.5639,46.1307 146.5639,46.1307 147.2679,45.6251 147.2679,45.6251 147.9239,45.1739 147.9239,45.1739 147.9719,46.5323 147.9719,46.5323 147.9719,45.1739 147.9719,45.1739 147.9719,41.7979 147.9719,41.7979 147.9239,40.6939 147.9239,40.6939 147.5239,39.8779 147.5239,39.8779 146.9159,39.3339 146.9159,39.3339 146.2119,39.0779 146.2119,39.0779 145.2999,39.1739 145.2999,39.1739 144.4039,39.4299 144.4039,39.4299 143.3479,40.0379"/>
    <polyline points="139.5559,46.6331 139.5559,40.8379 139.5559,40.8379 139.2519,40.1339 139.2519,40.1339 138.8999,39.6219 138.8999,39.6219 138.4519,39.3339 138.4519,39.3339 137.6839,39.1259 137.6839,39.1259 137.1879,39.1739 137.1879,39.1739 136.4359,39.3819 136.4359,39.3819 135.9239,39.6859 135.9239,39.6859 135.2679,40.2779 135.2679,40.2779 134.5639,40.9819 134.5639,40.9819 134.5639,39.1739 134.5639,39.1739 134.5639,46.6331"/>
    <polyline points="130.7399,46.5835 130.7399,41.5899 130.7399,41.5899 130.5319,40.4379 130.5319,40.4379 130.1319,39.7339 130.1319,39.7339 129.0279,39.1259 129.0279,39.1259 128.0679,39.2219 128.0679,39.2219 127.1079,39.6219 127.1079,39.6219 126.4519,40.2299 126.4519,40.2299 125.6999,41.0459 125.6999,41.0459 125.6999,35.4459 125.6999,35.4459 125.6999,46.5323"/>
    <line x1="121.6679" x2="121.6679" y1="46.6331" y2="39.2219"/>
    <polygon points="121.2135,36.1499 122.0199,36.1499 122.0199,36.1499 122.0199,36.9499 122.0199,36.9499 121.2135,36.9499 121.2135,36.9499"/>
    <polyline points="118.1959,45.9275 117.3319,46.3819 117.3319,46.3819 116.4199,46.6331 116.4199,46.6331 115.3639,46.5323 115.3639,46.5323 114.5159,46.1307 114.5159,46.1307 113.6039,45.2219 113.6039,45.2219 113.1495,44.1179 113.1495,44.1179 112.8983,42.9019 112.8983,42.9019 112.9991,41.8939 112.9991,41.8939 113.3959,40.9339 113.3959,40.9339 113.7479,40.1819 113.7479,40.1819 114.6599,39.4299 114.6599,39.4299 115.7159,39.1259 115.7159,39.1259 116.7719,39.1739 116.7719,39.1739 117.5399,39.6859 117.5399,39.6859 118.2919,40.5819 118.2919,40.5819 118.5479,41.7499 118.5479,41.7499 118.5479,42.6459 118.5479,42.6459 112.9991,42.6459"/>
    <polyline points="110.5159,36.4059 108.2599,46.5835 108.2599,46.5835 108.0519,46.5835 108.0519,46.5835 105.3799,36.4539 105.3799,36.4539 105.1879,36.4539 105.1879,36.4539 102.5639,46.5323 102.5639,46.5323 102.3559,46.5835 102.3559,46.5835 99.9895,36.4059"/>
    <polygon points="90.4615,39.6219 91.2199,39.6219 91.2199,39.6219 91.2199,40.3899 91.2199,40.3899 90.4615,40.3899 90.4615,40.3899"/>
    <polygon points="85.7799,39.3819 88.1959,39.3819 88.1959,39.3819 84.3111,39.3819 84.3111,39.3819"/>
    <polyline points="85.7799,37.1099 85.7799,39.3819 85.7799,39.3819 85.7799,44.5659 85.7799,44.5659 85.8759,45.6763 85.8759,45.6763 86.4359,46.3323 86.4359,46.3323 87.0759,46.5323 87.0759,46.5323 87.7959,46.5323 87.7959,46.5323 88.3399,46.2811"/>
    <polygon points="90.4615,45.7275 91.2199,45.7275 91.2199,45.7275 91.2199,46.4827 91.2199,46.4827 90.4615,46.4827 90.4615,46.4827"/>
    <line x1="82.7559" x2="79.8759" y1="46.6331" y2="41.9899"/>
    <line x1="77.8119" x2="82.1959" y1="44.5179" y2="39.2219"/>
    <line x1="77.7639" x2="77.7639" y1="35.3979" y2="46.6331"/>
    <polyline points="74.3399,45.9275 73.4759,46.3819 73.4759,46.3819 72.5639,46.6331 72.5639,46.6331 71.5079,46.5323 71.5079,46.5323 70.6599,46.1307 70.6599,46.1307 69.7479,45.2219 69.7479,45.2219 69.2935,44.1179 69.2935,44.1179 69.0423,42.9019 69.0423,42.9019 69.1431,41.8939 69.1431,41.8939 69.5399,40.9339 69.5399,40.9339 69.8919,40.1819 69.8919,40.1819 70.8039,39.4299 70.8039,39.4299 71.8599,39.1259 71.8599,39.1259 72.9159,39.1739 72.9159,39.1739 73.6839,39.6859 73.6839,39.6859 74.4359,40.5819 74.4359,40.5819 74.6919,41.7499 74.6919,41.7499 74.6919,42.6459 74.6919,42.6459 69.1431,42.6459"/>
    <polyline points="65.6679,39.1739 65.6679,48.6939 65.6679,48.6939 65.4759,49.5099 65.4759,49.5099 64.8167,49.9579 64.8167,49.9579 64.0599,50.0059 64.0599,50.0059 63.5055,49.8619 63.5055,49.8619 63.4047,49.8619"/>
    <polyline points="59.1718,46.5835 58.4678,46.5323 58.4678,46.5323 57.6998,46.2315 57.6998,46.2315 56.9958,45.6763 56.9958,45.6763 56.3878,44.8699 56.3878,44.8699 56.1414,44.0059 56.1414,44.0059 56.0422,43.0619 56.0422,43.0619 56.0422,42.2459 56.0422,42.2459 56.3398,41.1899 56.3398,41.1899 56.6918,40.4859 56.6918,40.4859 57.3478,39.7339 57.3478,39.7339 58.0998,39.2699 58.0998,39.2699 58.9158,39.1259 58.9158,39.1259 59.6198,39.1739 59.6198,39.1739 60.3718,39.4299 60.3718,39.4299 61.0758,40.0379 61.0758,40.0379 61.5879,40.6939 61.5879,40.6939 61.9399,41.5419 61.9399,41.5419 62.0839,42.5019 62.0839,42.5019 62.0359,43.5579 62.0359,43.5579 61.7799,44.6619 61.7799,44.6619 61.1878,45.6763 61.1878,45.6763 60.2278,46.3323 60.2278,46.3323 59.2198,46.5835 59.2198,46.5835 59.1718,46.5835"/>
    <polyline points="51.2038,46.5835 51.2038,39.1739 51.2038,39.1739 51.2038,41.4459 51.2038,41.4459 51.6678,40.5339 51.6678,40.5339 52.3718,39.6219 52.3718,39.6219 53.1238,39.2699 53.1238,39.2699 53.8278,39.1739 53.8278,39.1739 54.2758,39.2219"/>
    <polygon points="65.2199,36.1979 66.0199,36.1979 66.0199,36.1979 66.0199,36.9499 66.0199,36.9499 65.2199,36.9499 65.2199,36.9499"/>
    <polyline points="41.9718,41.8939 44.4038,41.8939 44.4038,41.8939 45.6038,41.8459 45.6038,41.8459 46.6598,41.4459 46.6598,41.4459 47.4118,40.8379 47.4118,40.8379 47.8278,39.8299 47.8278,39.8299 47.8758,38.9179 47.8758,38.9179 47.6678,37.9099 47.6678,37.9099 47.1718,37.2539 47.1718,37.2539 46.5158,36.7579 46.5158,36.7579 45.6038,36.5019 45.6038,36.5019 42.0198,36.5019 42.0198,36.5019 42.0198,46.6331"/>
    <polyline points="123.9384,68.6649 123.9384,78.4152 123.9384,78.4152 122.1404,78.4152 122.1404,78.4152 123.9384,82.4781 123.9384,82.4781 125.7365,78.4152 125.7365,78.4152 123.9384,78.4152"/>
    <polyline points="96.6761,194.1267 95.0121,194.1747 95.0121,194.1747 96.7241,193.5187 96.7241,193.5187 96.7241,203.1907 96.7241,203.1907 94.1961,203.1907 94.1961,203.1907 99.1881,203.1907"/>
    <polygon points="102.0617,202.5363 102.8681,202.5363 102.8681,202.5363 102.8681,203.3411 102.8681,203.3411 102.0617,203.3411 102.0617,203.3411"/>
    <polyline points="109.9241,203.4419 109.9241,193.6147 109.9241,193.6147 105.2393,200.1747 105.2393,200.1747 111.5881,200.1747"/>
    <polyline points="91.0761,194.2707 90.4201,193.7107 90.4201,193.7107 89.5081,193.4067 89.5081,193.4067 88.5481,193.4707 88.5481,193.4707 87.5881,193.8707 87.5881,193.8707 86.8361,194.6227 86.8361,194.6227 86.3881,195.5347 86.3881,195.5347 86.0297,196.6867 86.0297,196.6867 85.8281,198.6067 85.8281,198.6067 85.9305,200.1107 85.9305,200.1107 86.2281,201.5347 86.2281,201.5347 86.8841,202.5363 86.8841,202.5363 87.7001,203.1411 87.7001,203.1411 88.5961,203.4419 88.5961,203.4419 89.6041,203.2915 89.6041,203.2915 90.4681,202.6867 90.4681,202.6867 91.0281,201.7267 91.0281,201.7267 91.2681,200.5747 91.2681,200.5747 91.1241,199.4547 91.1241,199.4547 90.7241,198.5107 90.7241,198.5107 90.1641,197.9987 90.1641,197.9987 89.4121,197.6467 89.4121,197.6467 88.4041,197.6467 88.4041,197.6467 87.4921,197.9507 87.4921,197.9507 86.5801,198.6547 86.5801,198.6547 85.8281,199.4547"/>
  </g>
</svg>
