<?xml version="1.0" encoding="UTF-8" standalone="no"?>
<!--?xml version="1.0" standalone="no"?-->

<svg
   inkscape:version="1.1.1 (3bf5ae0d25, 2021-09-20, custom)"
   sodipodi:docname="snowflake.svg"
   id="svg9"
   preserveAspectRatio="xMidYMid meet"
   viewBox="0 0 419.52755 297.63781"
   height="105mm"
   width="148mm"
   version="1.0"
   xmlns:inkscape="http://www.inkscape.org/namespaces/inkscape"
   xmlns:sodipodi="http://sodipodi.sourceforge.net/DTD/sodipodi-0.dtd"
   xmlns="http://www.w3.org/2000/svg"
   xmlns:svg="http://www.w3.org/2000/svg"
   xmlns:rdf="http://www.w3.org/1999/02/22-rdf-syntax-ns#"
   xmlns:dc="http://purl.org/dc/elements/1.1/">
  <defs
     id="defs13" />
  <sodipodi:namedview
     id="namedview11"
     pagecolor="#ffffff"
     bordercolor="#666666"
     borderopacity="1.0"
     inkscape:pageshadow="2"
     inkscape:pageopacity="0.0"
     inkscape:pagecheckerboard="0"
     inkscape:document-units="pt"
     showgrid="false"
     fit-margin-top="0"
     fit-margin-left="0"
     fit-margin-right="0"
     fit-margin-bottom="0"
     units="mm"
     inkscape:zoom="1.4920149"
     inkscape:cx="227.54465"
     inkscape:cy="194.36803"
     inkscape:window-width="1920"
     inkscape:window-height="1019"
     inkscape:window-x="0"
     inkscape:window-y="61"
     inkscape:window-maximized="1"
     inkscape:current-layer="svg9"
     showguides="true"
     inkscape:guide-bbox="true" />
  <metadata
     id="metadata2">
    <rdf:rdf>
      <rdf:description
         dc:title="meta-title"
         dc:publisher="Hiox"
         dc:date="2016-02-19"
         dc:format="image/svg+xml"
         dc:language="en">
        <dc:creator>
          <rdf:bag>
            <rdf:li>svgimages.com</rdf:li>
          </rdf:bag>
        </dc:creator>
      </rdf:description>
    </rdf:rdf>
  </metadata>
  <path
     id="path2518"
     style="color:#000000;fill:#000000;stroke-width:0.999997;stroke-linecap:square;stroke-linejoin:round;-inkscape-stroke:none"
     d="m 206.92969,37.413574 v 15.637207 l -11.46094,-11.462402 -3.60938,3.606445 15.07032,15.070313 v 8.3833 l -11.46094,-11.462402 -3.60938,3.609375 15.07032,15.070315 v 8.381835 l -11.46094,-11.462404 -3.60938,3.607909 15.07032,15.070312 v 7.086915 l -26.6499,-19.284667 2.84619,33.039545 -6.14796,-3.54931 -5.5166,-20.586918 -4.92919,1.32276 4.19677,15.656248 -7.26123,-4.19239 -5.51513,-20.58544 -4.93067,1.32129 4.19678,15.65625 -7.2583,-4.190925 -5.5166,-20.585446 -4.9292,1.321291 4.19677,15.65625 -13.54248,-7.817873 -2.833,4.90869 13.54248,7.817873 -15.65919,4.195312 1.31983,4.929198 20.58692,-5.516598 7.25976,4.190918 -15.65772,4.19531 1.32129,4.93067 20.58692,-5.51661 7.25977,4.19092 -15.65919,4.19384 1.31983,4.93067 20.58692,-5.5166 6.13769,3.54345 -30.02637,13.43702 30.03808,14.05664 -6.14794,3.54932 -20.58838,-5.51661 -1.31983,4.92921 15.65919,4.19531 -7.25977,4.19092 -20.58692,-5.51661 -1.32129,4.93067 15.65772,4.19531 -7.25976,4.19092 -20.58692,-5.5166 -1.31983,4.92919 15.65919,4.19531 -13.54248,7.81788 2.833,4.90722 13.54248,-7.81787 -4.19677,15.65772 4.9292,1.32128 5.5166,-20.5869 7.2583,-4.19092 -4.19678,15.65771 4.93067,1.31982 5.51513,-20.58544 7.26123,-4.19239 -4.19677,15.65772 4.92919,1.32129 5.5166,-20.58545 6.13623,-3.54346 -3.37646,32.72168 27.1919,-18.98584 v 7.1001 l -15.07032,15.07031 3.60938,3.60791 11.46094,-11.46241 v 8.38185 l -15.07032,15.07031 3.60938,3.60937 11.46094,-11.4624 v 8.3833 l -15.07032,15.07031 3.60938,3.60645 11.46094,-11.4624 v 15.6372 h 5.66748 v -15.6372 l 11.46093,11.4624 3.60938,-3.60645 -15.07031,-15.07031 v -8.3833 l 11.46093,11.4624 3.60938,-3.60937 -15.07031,-15.07031 v -8.38185 l 11.46093,11.46241 3.60938,-3.60791 -15.07031,-15.07031 v -7.08692 l 26.6499,19.28467 -2.84619,-33.04248 6.14941,3.55078 5.5166,20.58838 4.92774,-1.32275 -4.19532,-15.65772 7.25831,4.19092 5.51659,20.58838 4.93067,-1.32129 -4.19678,-15.65771 7.26123,4.19238 5.51514,20.58544 4.92774,-1.32128 -4.19532,-15.65625 13.54102,7.81787 2.83447,-4.90869 -13.54248,-7.81788 15.65772,-4.19531 -1.31983,-4.92919 -20.58691,5.5166 -7.25977,-4.19092 15.65918,-4.19531 -1.32129,-4.93067 -20.58838,5.51661 -7.25829,-4.19092 15.65771,-4.19385 -1.31983,-4.93067 -20.58691,5.51661 -6.13623,-3.54346 30.0249,-13.43702 -30.03369,-14.05517 6.14795,-3.54931 20.58398,5.51513 1.31983,-4.9292 -15.65479,-4.19385 7.25831,-4.19091 20.58544,5.51514 1.32129,-4.93067 -15.65625,-4.19385 7.25977,-4.190915 20.58398,5.515135 1.31983,-4.929198 -15.65625,-4.19385 13.54101,-7.817872 -2.83447,-4.90869 -13.54102,7.817872 4.19678,-15.657712 -4.9292,-1.321291 -5.5166,20.586916 -7.25977,4.190917 4.19678,-15.657712 -4.93067,-1.319828 -5.51659,20.586918 -7.25831,4.19091 4.19678,-15.657708 -4.9292,-1.32129 -5.5166,20.586918 -6.13769,3.54345 3.37646,-32.72314 -27.19043,18.985837 v -7.1001 l 15.07031,-15.070312 -3.60937,-3.607909 -11.46094,11.462404 v -8.381835 l 15.07031,-15.070315 -3.60937,-3.609375 -11.46094,11.462402 v -8.3833 l 15.07031,-15.070313 -3.60937,-3.606445 -11.46094,11.462402 V 37.413574 Z m -20.60742,52.520508 20.60742,14.912108 v 6.17725 c -5.25149,0.74529 -9.85893,3.52922 -12.99756,7.5205 l -5.41699,-3.12744 z m 47.24853,0.210938 -2.61182,25.30371 -5.36279,3.09668 c -3.13859,-3.99188 -7.74565,-6.77653 -12.99756,-7.52197 v -6.23731 z m -26.64111,26.04492 v 9.85987 l -8.54736,-4.93506 c 2.1669,-2.50651 5.14941,-4.28235 8.54736,-4.92481 z m 5.66894,0 c 3.39753,0.64263 6.38068,2.41855 8.54737,4.92481 l -8.54737,4.93506 z m 21.24903,4.13672 23.16503,10.8413 -23.21923,10.39161 -5.35401,-3.09082 c 0.93969,-2.32359 1.46338,-4.85819 1.46338,-7.51172 0,-2.65269 -0.52278,-5.18597 -1.46191,-7.50879 z m -48.11426,0.0293 5.354,3.09081 c -0.93958,2.32331 -1.46192,4.8569 -1.46192,7.51026 0,2.65353 0.52223,5.18813 1.46192,7.51172 l -5.40527,3.12012 -23.16651,-10.84131 z m 9.81885,5.67041 8.54296,4.93066 -8.5415,4.93213 c -0.53216,-1.54408 -0.82471,-3.20209 -0.82471,-4.93213 0,-1.7297 0.29129,-3.38697 0.82325,-4.93066 z m 28.42236,0 c 0.53196,1.54369 0.8247,3.20096 0.8247,4.93066 0,1.73004 -0.294,3.38805 -0.82617,4.93213 l -8.5415,-4.93066 z m -17.04492,9.83935 v 9.86133 c -3.39757,-0.64257 -6.38052,-2.41979 -8.54736,-4.92627 z m 5.66748,0 8.54736,4.93506 c -2.16687,2.5062 -5.14996,4.28383 -8.54736,4.92627 z m -18.66504,7.5044 c 3.13863,3.99198 7.74588,6.77649 12.99756,7.52197 v 6.2373 l -20.97217,14.64111 2.61035,-25.30224 z m 31.66406,0 5.41552,3.12597 2.19435,25.48535 -20.60889,-14.91211 v -6.17724 c 5.25228,-0.74527 9.86016,-3.52952 12.99902,-7.52197 z" />
  <g
     id="g1464"
     transform="translate(-1.1418175)">
    <g
       id="g1052"
       transform="translate(10.203196)">
      <path
         d="m 47.68053,255.149 -0.651,0.651 v 1.344 l 0.651,0.651 h 1.344 l 0.651,-1.323 v -1.323 l -0.651,-1.323 -1.344,-0.672 h -1.974 l -1.323,0.672 -0.651,0.672 -0.672,1.302 v 1.344 l 0.672,1.302 1.302,0.672 m 0.672,-5.964 -1.323,1.344 -0.651,1.302 v 1.995 l 1.302,1.323 m 0,0 h -1.302 l -1.995,0.672 -1.323,1.302 -0.6615,1.344 v 1.974 l 0.6615,1.323 0.672,0.6615 1.302,0.6615 h 1.995 l 1.995,-0.6615 1.302,-1.323 0.672,-1.3335 v -1.302 l -0.672,-1.344 h -1.302 l -1.344,0.672 -0.651,1.323 m -0.651,-3.969 -1.344,0.672 -1.302,1.302 -0.672,1.344 v 2.6355 l 0.672,1.323"
         style="fill:none;stroke:#000000;stroke-width:0.0038745in;stroke-linecap:round;stroke-linejoin:round"
         id="path9887" />
      <path
         d="m 48.35253,263.738 1.323,-1.974 0.6615,-1.323 v 1.323 l 1.974,1.323 0.672,1.323 v 1.323 l -0.672,0.6615 -1.302,0.6615 m -0.672,-5.292 1.323,1.323 0.651,1.323 v 1.323 l -1.302,1.323 m -2.6565,-0.6615 1.323,0.6615 h 3.3075 l 1.974,-1.323 1.344,-1.995"
         style="fill:none;stroke:#000000;stroke-width:0.0038745in;stroke-linecap:round;stroke-linejoin:round"
         id="path9889" />
    </g>
    <g
       id="g1059"
       transform="translate(6.393153)">
      <path
         d="m 64.90053,263.738 1.323,-1.974 1.3335,-0.672 1.302,0.672 v 1.323 l -1.302,3.969 m 0,-5.964 0.651,0.672 v 1.323 l -1.323,3.969 m 1.974,-3.969 1.344,-1.323 1.302,-0.672 h 0.672 l 1.323,0.672 v 1.323 l -1.323,3.969 m 0,-5.964 0.672,0.672 v 1.323 l -1.344,3.969 m 1.995,-3.969 1.323,-1.323 1.323,-0.672 h 0.651 l 1.344,0.672 v 1.323 l -0.672,1.9845 v 1.323 l 0.672,0.6615 m -1.344,-5.964 0.672,0.672 v 1.323 l -0.672,1.9845 v 1.323 l 1.344,0.6615 1.302,-0.6615 0.672,-0.6615 1.323,-1.995"
         style="fill:none;stroke:#000000;stroke-width:0.0038745in;stroke-linecap:round;stroke-linejoin:round"
         id="path9891" />
      <path
         d="m 87.38103,263.087 -0.651,-1.323 -1.323,-0.672 h -1.323 l -1.323,0.672 -0.6615,0.672 -0.6615,1.302 v 1.3335 l 0.6615,1.323 1.3335,0.6615 h 1.302 l 1.344,-0.6615 0.651,-1.323 m -2.646,-3.9795 -1.323,1.344 -0.6615,1.302 v 1.995 l 1.3335,1.323 m 4.62,-5.964 -1.323,3.9795 v 1.323 l 1.323,0.6615 1.323,-0.6615 0.651,-0.6615 1.344,-1.995 m -2.646,-2.646 -1.344,3.9795 v 1.323 l 0.672,0.6615"
         style="fill:none;stroke:#000000;stroke-width:0.0038745in;stroke-linecap:round;stroke-linejoin:round"
         id="path9893" />
      <path
         d="m 96.01203,261.764 -0.672,0.672 h 0.672 v -0.672 l -0.672,-0.672 h -1.323 l -1.323,0.672 -0.6615,0.672 -0.6615,1.302 v 1.3335 l 0.6615,1.323 1.3335,0.6615 h 1.974 l 1.974,-1.323 1.344,-1.995 m -4.641,-2.646 -1.323,1.344 -0.6615,1.302 v 1.995 l 1.3335,1.323"
         style="fill:none;stroke:#000000;stroke-width:0.0038745in;stroke-linecap:round;stroke-linejoin:round"
         id="path9895" />
      <path
         d="m 98.65803,263.738 1.323,-1.974 1.3335,-2.646 m 1.974,-5.964 -4.6305,13.902 m 5.3025,-13.902 -4.641,13.902 m 1.323,-3.969 1.323,-1.323 1.323,-0.672 h 0.672 l 1.302,0.672 v 1.323 l -0.651,1.9845 v 1.323 l 0.651,0.6615 m -1.302,-5.964 0.651,0.672 v 1.323 l -0.651,1.9845 v 1.323 l 1.302,0.6615 1.344,-0.6615 0.651,-0.6615 1.323,-1.995"
         style="fill:none;stroke:#000000;stroke-width:0.0038745in;stroke-linecap:round;stroke-linejoin:round"
         id="path9897" />
      <path
         d="m 108.58053,263.738 1.323,-1.974 1.3335,-2.646 m 1.974,-5.964 -3.969,11.9175 v 1.323 l 1.323,0.6615 1.323,-0.6615 0.651,-0.6615 1.344,-1.995 m 0,-10.584 -3.9795,11.9175 v 1.323 l 0.6615,0.6615 m -0.6615,-8.61 h 3.9795"
         style="fill:none;stroke:#000000;stroke-width:0.0038745in;stroke-linecap:round;stroke-linejoin:round"
         id="path9899" />
    </g>
    <g
       id="g1066"
       transform="translate(0.88112175)">
      <path
         d="m 136.40928,253.826 -0.672,0.672 -0.651,1.302 -1.323,3.318 -1.323,3.969 -0.651,1.323 -1.344,1.9845 -1.302,0.6615 m 6.594,-12.558 -0.651,1.974 -1.323,5.292 -0.672,1.974 -0.651,1.3335 -1.323,1.323 -1.974,0.6615 h -1.3335 l -0.6615,-0.6615 v -1.323 l 0.6615,-0.6615 0.6615,0.6615 -0.6615,0.6615 m 4.6305,-8.589 -0.651,1.302 -0.672,0.672 h -1.323 l -0.651,-0.672 v -1.302 l 0.651,-1.344 1.323,-1.302 1.323,-0.672 1.995,-0.672 h 2.646 l 1.974,0.672 0.672,0.672 0.651,1.302 v 1.995 l -0.651,1.323 -0.672,0.672 -1.974,0.651 h -1.344 l -1.302,-0.651 m 2.646,-6.636 1.302,0.672 0.672,0.672 0.672,1.302 v 1.995 l -0.672,1.323 -0.672,0.672 -1.302,0.651"
         style="fill:none;stroke:#000000;stroke-width:0.0038745in;stroke-linecap:round;stroke-linejoin:round"
         id="path9901" />
      <path
         d="m 140.08975,261.092 -1.323,3.9795 v 1.323 l 1.323,0.6615 h 0.672 l 1.302,-0.6615 1.344,-1.323 1.302,-1.9845 m -3.948,-1.995 -1.3335,3.9795 v 1.323 l 0.6615,0.6615 m 5.292,-5.964 -1.323,3.9795 v 1.323 l 1.323,0.6615 1.323,-0.6615 0.651,-0.6615 1.344,-1.995 m -2.646,-2.646 -1.344,3.9795 v 1.323 l 0.672,0.6615"
         style="fill:none;stroke:#000000;stroke-width:0.0038745in;stroke-linecap:round;stroke-linejoin:round"
         id="path9903" />
      <path
         d="m 150.21303,261.092 1.974,-1.974 1.344,-1.974 0.651,-1.995 v -1.323 l -0.651,-0.672 -1.344,0.672 -0.651,1.323 -5.9535,17.871 v 1.302 l 0.6615,0.672 1.323,-0.672 0.6615,-1.974 0.6615,-5.9535 0.6615,0.6615 h 1.3335 l 1.302,-0.6615 0.672,-0.6615 1.323,-1.995 m -2.646,-8.589 -0.651,3.297 -0.672,2.646 -1.9845,5.964 -1.323,3.318 -1.323,2.646"
         style="fill:none;stroke:#000000;stroke-width:0.0038745in;stroke-linecap:round;stroke-linejoin:round"
         id="path9905" />
      <path
         d="m 155.73701,261.092 1.974,-1.974 1.344,-1.974 0.651,-1.995 v -1.323 l -0.651,-0.672 -1.344,0.672 -0.651,1.323 -5.9535,17.871 v 1.302 l 0.6615,0.672 1.323,-0.672 0.6615,-1.974 0.6615,-5.9535 0.6615,0.6615 h 1.3335 l 1.302,-0.6615 0.672,-0.6615 1.323,-1.995 m -2.646,-8.589 -0.651,3.297 -0.672,2.646 -1.9845,5.964 -1.323,3.318 -1.323,2.646"
         style="fill:none;stroke:#000000;stroke-width:0.0038745in;stroke-linecap:round;stroke-linejoin:round"
         id="path9907" />
      <path
         d="m 165.96087,253.154 -0.672,0.672 -1.323,7.938 m 1.995,-7.938 -1.995,7.938 m 1.995,-8.61 0.651,0.672 -2.646,7.938 m -1.323,3.969 -0.651,0.6615 0.651,0.6615 0.672,-0.6615 -0.672,-0.6615"
         style="fill:none;stroke:#000000;stroke-width:0.0038745in;stroke-linecap:round;stroke-linejoin:round"
         id="path9909" />
    </g>
    <g
       id="g1071"
       transform="translate(0.46015422)">
      <path
         d="m 177.34503,261.092 -1.323,3.9795 v 1.323 l 1.323,0.6615 h 0.672 l 1.302,-0.6615 1.344,-1.323 1.302,-1.9845 m -3.948,-1.995 -1.3335,3.9795 v 1.323 l 0.6615,0.6615 m 5.292,-5.964 -1.323,3.9795 v 1.323 l 1.323,0.6615 1.323,-0.6615 0.651,-0.6615 1.344,-1.995 m -2.646,-2.646 -1.344,3.9795 v 1.323 l 0.672,0.6615"
         style="fill:none;stroke:#000000;stroke-width:0.0038745in;stroke-linecap:round;stroke-linejoin:round"
         id="path9911" />
      <path
         d="m 185.94453,263.738 1.323,-1.974 1.3335,-0.672 1.302,0.672 v 1.323 l -1.302,3.969 m 0,-5.964 0.651,0.672 v 1.323 l -1.323,3.969 m 1.974,-3.969 1.344,-1.323 1.302,-0.672 h 0.672 l 1.323,0.672 v 1.323 l -0.651,1.9845 v 1.323 l 0.651,0.6615 m -1.323,-5.964 0.672,0.672 v 1.323 l -0.672,1.9845 v 1.323 l 1.323,0.6615 1.323,-0.6615 0.672,-0.6615 1.302,-1.995"
         style="fill:none;stroke:#000000;stroke-width:0.0038745in;stroke-linecap:round;stroke-linejoin:round"
         id="path9913" />
      <path
         d="m 203.78403,263.087 -0.651,-1.323 -1.323,-0.672 h -1.323 l -1.323,0.672 -0.6615,0.672 -0.6615,1.302 v 1.3335 l 0.6615,1.323 1.3335,0.6615 h 1.302 l 1.344,-0.6615 0.651,-1.323 m -2.646,-3.9795 -1.323,1.344 -0.6615,1.302 v 1.995 l 1.3335,1.323 m 7.266,-13.902 -3.969,11.9175 v 1.323 l 1.323,0.6615 1.323,-0.6615 0.651,-0.6615 1.344,-1.995 m 0,-10.584 -3.99,11.9175 v 1.323 l 0.672,0.6615"
         style="fill:none;stroke:#000000;stroke-width:0.0038745in;stroke-linecap:round;stroke-linejoin:round"
         id="path9915" />
    </g>
    <g
       id="g1076"
       transform="translate(-0.29923276)">
      <path
         d="m 222.97803,263.087 -0.651,-1.323 -1.323,-0.672 h -1.323 l -1.323,0.672 -0.6615,0.672 -0.6615,1.302 v 1.3335 l 0.6615,1.323 1.3335,0.6615 h 1.302 l 1.344,-0.6615 0.651,-1.323 m -2.646,-3.9795 -1.323,1.344 -0.6615,1.302 v 1.995 l 1.3335,1.323 m 7.266,-13.902 -3.969,11.9175 v 1.323 l 1.323,0.6615 1.323,-0.6615 0.651,-0.6615 1.344,-1.995 m 0,-10.584 -3.99,11.9175 v 1.323 l 0.672,0.6615"
         style="fill:none;stroke:#000000;stroke-width:0.0038745in;stroke-linecap:round;stroke-linejoin:round"
         id="path9917" />
      <path
         d="m 229.1821,257.144 -0.651,0.651 0.651,0.651 0.651,-0.651 -0.651,-0.651 m -1.323,3.948 -1.323,3.9795 v 1.323 l 1.323,0.6615 1.323,-0.6615 0.651,-0.6615 1.344,-1.995 m -2.646,-2.646 -1.3335,3.9795 v 1.323 l 0.6615,0.6615"
         style="fill:none;stroke:#000000;stroke-width:0.0038745in;stroke-linecap:round;stroke-linejoin:round"
         id="path9919" />
      <path
         d="m 232.5001,265.733 1.323,-0.6615 0.651,-0.6615 0.672,-1.323 v -1.323 l -0.672,-0.672 h -0.651 l -1.323,0.672 -0.6615,0.672 -0.6615,1.302 v 1.3335 l 0.6615,1.323 1.3335,0.6615 h 1.974 l 1.974,-1.323 1.344,-1.995 m -4.641,-2.646 -1.323,1.344 -0.6615,1.302 v 1.995 l 1.3335,1.323"
         style="fill:none;stroke:#000000;stroke-width:0.0038745in;stroke-linecap:round;stroke-linejoin:round"
         id="path9921" />
    </g>
    <g
       id="g1082"
       transform="translate(-3.3913184)">
      <path
         d="m 252.08403,257.144 -0.651,-0.672 v -1.323 l 1.323,-1.323 1.974,-0.672 h 1.344 l -1.995,7.287 -1.323,3.969 -0.672,1.323 -0.651,0.6615 -1.323,0.6615 h -1.323 l -0.6615,-0.6615 v -1.323 l 0.6615,-0.6615 0.6615,0.6615 -0.6615,0.6615 m 7.287,-12.579 -1.995,5.964 -0.651,1.974 -1.344,3.318 -0.651,1.323 -1.323,1.323 m 11.256,-13.23 -1.995,2.646 -1.323,1.323 -1.323,0.651 -1.995,0.672 m 8.61,-5.292 -0.672,0.672 0.672,0.651 0.672,-0.651 v -0.672 l -0.672,-0.672 h -0.672 l -1.302,0.672 -1.995,3.318 -0.651,0.651 -1.344,0.651 -2.646,0.672 m 0,0 1.995,0.672 0.651,1.302 0.672,4.641 0.672,1.323 m -3.99,-7.938 1.344,0.672 0.651,1.302 0.651,4.641 1.344,1.323 h 0.651 l 1.323,-0.6615 1.323,-1.323"
         style="fill:none;stroke:#000000;stroke-width:0.0038745in;stroke-linecap:round;stroke-linejoin:round"
         id="path9923" />
      <path
         d="m 263.34003,261.092 -1.323,3.9795 v 1.323 l 1.323,0.6615 h 0.672 l 1.302,-0.6615 1.344,-1.323 1.302,-1.9845 m -3.948,-1.995 -1.3335,3.9795 v 1.323 l 0.6615,0.6615 m 5.292,-5.964 -1.323,3.9795 v 1.323 l 1.323,0.6615 1.323,-0.6615 0.651,-0.6615 1.344,-1.995 m -2.646,-2.646 -1.344,3.9795 v 1.323 l 0.672,0.6615 m -3.843,-11.256 -0.672,0.672 0.672,0.672 0.651,-0.672 -0.651,-0.672 m 5.04,0 -0.651,0.672 0.651,0.672 0.672,-0.672 -0.672,-0.672"
         style="fill:none;stroke:#000000;stroke-width:0.0038745in;stroke-linecap:round;stroke-linejoin:round"
         id="path9925" />
      <path
         d="m 271.95003,263.738 1.323,-1.974 1.3335,-2.646 m 1.974,-5.964 -4.6305,13.902 m 5.3025,-13.902 -4.641,13.902 m 1.323,-3.969 1.323,-1.323 1.323,-0.672 h 0.672 l 1.302,0.672 v 1.323 l -0.651,1.9845 v 1.323 l 0.651,0.6615 m -1.302,-5.964 0.651,0.672 v 1.323 l -0.651,1.9845 v 1.323 l 1.302,0.6615 1.344,-0.6615 0.651,-0.6615 1.323,-1.995"
         style="fill:none;stroke:#000000;stroke-width:0.0038745in;stroke-linecap:round;stroke-linejoin:round"
         id="path9927" />
      <path
         d="m 283.19553,265.733 1.323,-0.6615 0.651,-0.6615 0.672,-1.323 v -1.323 l -0.672,-0.672 h -0.651 l -1.323,0.672 -0.6615,0.672 -0.6615,1.302 v 1.3335 l 0.6615,1.323 1.3335,0.6615 h 1.974 l 1.974,-1.323 1.344,-1.995 m -4.641,-2.646 -1.323,1.344 -0.6615,1.302 v 1.995 l 1.3335,1.323"
         style="fill:none;stroke:#000000;stroke-width:0.0038745in;stroke-linecap:round;stroke-linejoin:round"
         id="path9929" />
    </g>
    <g
       id="g1090"
       transform="translate(-7.7267499)">
      <path
         d="m 302.35803,261.092 1.974,-1.974 1.344,-1.974 0.651,-1.995 v -1.323 l -0.651,-0.672 -1.344,0.672 -0.651,1.323 -5.9535,17.871 v 1.302 l 0.6615,0.672 1.323,-0.672 0.6615,-1.974 0.6615,-5.9535 0.6615,0.6615 h 1.3335 l 1.302,-0.6615 0.672,-0.6615 1.323,-1.995 m -2.646,-8.589 -0.651,3.297 -0.672,2.646 -1.9845,5.964 -1.323,3.318 -1.323,2.646"
         style="fill:none;stroke:#000000;stroke-width:0.0038745in;stroke-linecap:round;stroke-linejoin:round"
         id="path9931" />
      <path
         d="m 312.27003,263.087 -0.651,-1.323 -1.323,-0.672 h -1.323 l -1.323,0.672 -0.6615,0.672 -0.6615,1.302 v 1.3335 l 0.6615,1.323 1.3335,0.6615 h 1.302 l 1.344,-0.6615 0.651,-1.323 m -2.646,-3.9795 -1.323,1.344 -0.6615,1.302 v 1.995 l 1.3335,1.323 m 4.62,-5.964 -1.323,3.9795 v 1.323 l 1.323,0.6615 1.323,-0.6615 0.651,-0.6615 1.344,-1.995 m -2.646,-2.646 -1.344,3.9795 v 1.323 l 0.672,0.6615"
         style="fill:none;stroke:#000000;stroke-width:0.0038745in;stroke-linecap:round;stroke-linejoin:round"
         id="path9933" />
      <path
         d="m 316.26003,263.738 1.323,-1.974 1.3335,-2.646 m 1.974,-5.964 -3.969,11.9175 v 1.323 l 1.323,0.6615 1.323,-0.6615 0.651,-0.6615 1.344,-1.995 m 0,-10.584 -3.9795,11.9175 v 1.323 l 0.6615,0.6615"
         style="fill:none;stroke:#000000;stroke-width:0.0038745in;stroke-linecap:round;stroke-linejoin:round"
         id="path9935" />
      <path
         d="m 321.56253,263.738 1.323,-1.974 1.3335,-2.646 m 1.974,-5.964 -3.969,11.9175 v 1.323 l 1.323,0.6615 1.323,-0.6615 0.651,-0.6615 1.344,-1.995 m 0,-10.584 -3.9795,11.9175 v 1.323 l 0.6615,0.6615"
         style="fill:none;stroke:#000000;stroke-width:0.0038745in;stroke-linecap:round;stroke-linejoin:round"
         id="path9937" />
      <path
         d="m 328.18803,265.733 1.323,-0.6615 0.651,-0.6615 0.672,-1.323 v -1.323 l -0.672,-0.672 h -0.651 l -1.323,0.672 -0.6615,0.672 -0.6615,1.302 v 1.3335 l 0.6615,1.323 1.3335,0.6615 h 1.974 l 1.974,-1.323 1.344,-1.995 m -4.641,-2.646 -1.323,1.344 -0.6615,1.302 v 1.995 l 1.3335,1.323"
         style="fill:none;stroke:#000000;stroke-width:0.0038745in;stroke-linecap:round;stroke-linejoin:round"
         id="path9939" />
      <path
         d="m 334.15203,263.738 1.323,-1.974 1.3335,-0.672 1.302,0.672 v 1.323 l -1.302,3.969 m 0,-5.964 0.651,0.672 v 1.323 l -1.323,3.969 m 1.974,-3.969 1.344,-1.323 1.302,-0.672 h 0.672 l 1.323,0.672 v 1.323 l -0.651,1.9845 v 1.323 l 0.651,0.6615 m -1.323,-5.964 0.672,0.672 v 1.323 l -0.672,1.9845 v 1.323 l 1.323,0.6615 1.323,-0.6615 0.672,-0.6615 1.302,-1.995"
         style="fill:none;stroke:#000000;stroke-width:0.0038745in;stroke-linecap:round;stroke-linejoin:round"
         id="path9941" />
    </g>
    <g
       id="g1094"
       transform="translate(-10.555062)">
      <path
         d="m 357.27303,261.092 -1.323,3.9795 v 1.323 l 1.323,0.6615 h 0.672 l 1.302,-0.6615 1.344,-1.323 1.302,-1.9845 m -3.948,-1.995 -1.3335,3.9795 v 1.323 l 0.6615,0.6615 m 5.292,-5.964 -1.323,3.9795 v 1.323 l 1.323,0.6615 1.323,-0.6615 0.651,-0.6615 1.344,-1.995 m -2.646,-2.646 -1.344,3.9795 v 1.323 l 0.672,0.6615"
         style="fill:none;stroke:#000000;stroke-width:0.0038745in;stroke-linecap:round;stroke-linejoin:round"
         id="path9943" />
      <path
         d="m 365.87253,263.738 1.323,-1.974 1.3335,-0.672 1.302,0.672 v 1.323 l -1.302,3.969 m 0,-5.964 0.651,0.672 v 1.323 l -1.323,3.969 m 1.974,-3.969 1.344,-1.323 1.302,-0.672 h 0.672 l 1.323,0.672 v 1.323 l -1.323,3.969 m 0,-5.964 0.672,0.672 v 1.323 l -1.344,3.969 m 1.995,-3.969 1.323,-1.323 1.323,-0.672 h 0.651 l 1.344,0.672 v 1.323 l -0.672,1.9845 v 1.323 l 0.672,0.6615 m -1.344,-5.964 0.672,0.672 v 1.323 l -0.672,1.9845 v 1.323 l 1.344,0.6615 1.302,-0.6615 0.672,-0.6615 1.323,-1.995"
         style="fill:none;stroke:#000000;stroke-width:0.0038745in;stroke-linecap:round;stroke-linejoin:round"
         id="path9945" />
    </g>
  </g>
  <WCB
     layer="-1"
     node="0"
     lastpath="0"
     lastpathnc="0"
     lastknownposx="0"
     lastknownposy="0"
     pausedposx="0"
     pausedposy="0"
     randseed="0"
     row="0"
     application="Axidraw" />
</svg>
