<?xml version="1.0" encoding="utf-8" ?>
<svg xmlns="http://www.w3.org/2000/svg" xmlns:cc="http://creativecommons.org/ns#" xmlns:dc="http://purl.org/dc/elements/1.1/" xmlns:ev="http://www.w3.org/2001/xml-events" xmlns:inkscape="http://www.inkscape.org/namespaces/inkscape" xmlns:rdf="http://www.w3.org/1999/02/22-rdf-syntax-ns#" xmlns:sodipodi="http://sodipodi.sourceforge.net/DTD/sodipodi-0.dtd" xmlns:xlink="http://www.w3.org/1999/xlink" baseProfile="tiny" height="10.50000567cm" version="1.2" viewBox="0 0 559.3703808 396.85060799999997" width="14.80000799cm">
  <metadata>
    <rdf:RDF>
      <cc:Work>
        <dc:format>image/svg+xml</dc:format>
        <dc:source>vpype read snowflake.svg deduplicate linesimplify linemerge linesort write snowflake-optim.svg
</dc:source>
        <dc:date>2021-12-12T23:16:10.578532</dc:date>
      </cc:Work>
    </rdf:RDF>
  </metadata>
  <defs/>
  <g fill="none" id="layer1" inkscape:groupmode="layer" inkscape:label="1" stroke="#00f" style="display:inline">
    <polygon points="275.9064,49.8848 283.465,49.8848 283.465,49.8848 283.465,70.7344 283.465,70.7344 298.7463,55.4512 298.7463,55.4512 303.5588,60.2598 303.5588,60.2598 283.465,80.3536 283.465,80.3536 283.465,91.5313 283.465,91.5313 298.7463,76.2481 298.7463,76.2481 303.5588,81.0606 303.5588,81.0606 283.465,101.1543 283.465,101.1543 283.465,112.3301 283.465,112.3301 298.7463,97.0469 298.7463,97.0469 303.5588,101.8575 303.5588,101.8575 283.465,121.9512 283.465,121.9512 283.465,131.418 283.465,131.418 319.7189,106.1036 319.7189,106.1036 315.217,149.7344 315.217,149.7344 323.4006,145.0098 323.4006,145.0098 330.756,117.5606 330.756,117.5606 337.3283,119.3223 337.3283,119.3223 331.7326,140.1993 331.7326,140.1993 341.4103,134.6114 341.4103,134.6114 348.7658,107.1622 348.7658,107.1622 355.34,108.9219 355.34,108.9219 349.7443,129.7989 349.7443,129.7989 359.424,124.211 359.424,124.211 366.7795,96.7618 366.7795,96.7618 373.3518,98.5235 373.3518,98.5235 367.7561,119.4004 367.7561,119.4004 385.8108,108.9766 385.8108,108.9766 389.5901,115.5215 389.5901,115.5215 371.5354,125.9454 371.5354,125.9454 392.4104,131.5372 392.4104,131.5372 390.6506,138.1094 390.6506,138.1094 363.2053,130.7559 363.2053,130.7559 353.5256,136.3438 353.5256,136.3438 374.4006,141.9356 374.4006,141.9356 372.6389,148.5098 372.6389,148.5098 345.1916,141.1563 345.1916,141.1563 335.5139,146.7442 335.5139,146.7442 356.3869,152.336 356.3869,152.336 354.6271,158.9083 354.6271,158.9083 327.1818,151.5548 327.1818,151.5548 318.9845,156.2872 318.9845,156.2872 359.0295,175.0274 359.0295,175.0274 318.9963,192.9435 318.9963,192.9435 327.1779,197.6681 327.1779,197.6681 354.6271,190.3126 354.6271,190.3126 356.3869,196.8868 356.3869,196.8868 335.51,202.4786 335.51,202.4786 345.1877,208.0665 345.1877,208.0665 372.6389,200.711 372.6389,200.711 374.4006,207.2853 374.4006,207.2853 353.5217,212.879 353.5217,212.879 363.2014,218.4669 363.2014,218.4669 390.6506,211.1114 390.6506,211.1114 392.4104,217.6837 392.4104,217.6837 371.5334,223.2774 371.5334,223.2774 389.5901,233.7013 389.5901,233.7013 385.8108,240.2462 385.8108,240.2462 367.7561,229.8224 367.7561,229.8224 373.3498,250.6974 373.3498,250.6974 366.7795,252.4591 366.7795,252.4591 359.426,225.0118 359.426,225.0118 349.7443,219.422 349.7443,219.422 355.34,240.2989 355.34,240.2989 348.7658,242.0607 348.7658,242.0607 341.4103,214.6095 341.4103,214.6095 331.7326,209.0216 331.7326,209.0216 337.3264,229.8986 337.3264,229.8986 330.756,231.6622 330.756,231.6622 323.4006,204.211 323.4006,204.211 315.2013,199.4767 315.2013,199.4767 318.9963,243.5333 318.9963,243.5333 283.4631,217.8204 283.4631,217.8204 283.4631,227.2696 283.4631,227.2696 303.5568,247.3634 303.5568,247.3634 298.7443,252.174 298.7443,252.174 283.4631,236.8907 283.4631,236.8907 283.4631,248.0665 283.4631,248.0665 303.5568,268.1603 303.5568,268.1603 298.7443,272.9728 298.7443,272.9728 283.4631,257.6896 283.4631,257.6896 283.4631,268.8673 283.4631,268.8673 303.5568,288.9611 303.5568,288.9611 298.7443,293.7697 298.7443,293.7697 283.4631,278.4865 283.4631,278.4865 283.4631,299.3361 283.4631,299.3361 275.9064,299.3361 275.9064,299.3361 275.9064,278.4865 275.9064,278.4865 260.6251,293.7697 260.6251,293.7697 255.8126,288.9611 255.8126,288.9611 275.9064,268.8673 275.9064,268.8673 275.9064,257.6896 275.9064,257.6896 260.6251,272.9728 260.6251,272.9728 255.8126,268.1603 255.8126,268.1603 275.9064,248.0665 275.9064,248.0665 275.9064,236.8907 275.9064,236.8907 260.6251,252.174 260.6251,252.174 255.8126,247.3634 255.8126,247.3634 275.9064,227.2696 275.9064,227.2696 275.9064,217.8028 275.9064,217.8028 239.6505,243.1173 239.6505,243.1173 244.1525,199.4884 244.1525,199.4884 235.9708,204.213 235.9708,204.213 228.6154,231.6603 228.6154,231.6603 222.0431,229.8986 222.0431,229.8986 227.6388,209.0216 227.6388,209.0216 217.9572,214.6114 217.9572,214.6114 210.6036,242.0587 210.6036,242.0587 204.0294,240.2989 204.0294,240.2989 209.6251,219.422 209.6251,219.422 199.9474,225.0099 199.9474,225.0099 192.5919,252.4591 192.5919,252.4591 186.0196,250.6974 186.0196,250.6974 191.6153,229.8204 191.6153,229.8204 173.5587,240.2443 173.5587,240.2443 169.7814,233.7013 169.7814,233.7013 187.838,223.2774 187.838,223.2774 166.9591,217.6837 166.9591,217.6837 168.7188,211.1114 168.7188,211.1114 196.1681,218.4669 196.1681,218.4669 205.8478,212.879 205.8478,212.879 184.9708,207.2853 184.9708,207.2853 186.7325,200.711 186.7325,200.711 214.1818,208.0665 214.1818,208.0665 223.8615,202.4786 223.8615,202.4786 202.9825,196.8849 202.9825,196.8849 204.7423,190.3126 204.7423,190.3126 232.1935,197.6681 232.1935,197.6681 240.3908,192.9356 240.3908,192.9356 200.34,174.1934 200.34,174.1934 240.3751,156.2774 240.3751,156.2774 232.1915,151.5528 232.1915,151.5528 204.7423,158.9083 204.7423,158.9083 202.9825,152.334 202.9825,152.334 223.8615,146.7423 223.8615,146.7423 214.1818,141.1544 214.1818,141.1544 186.7325,148.5098 186.7325,148.5098 184.9708,141.9356 184.9708,141.9356 205.8478,136.3419 205.8478,136.3419 196.1681,130.754 196.1681,130.754 168.7188,138.1094 168.7188,138.1094 166.9591,131.5372 166.9591,131.5372 187.838,125.9434 187.838,125.9434 169.7814,115.5196 169.7814,115.5196 173.5587,108.9747 173.5587,108.9747 191.6153,119.3985 191.6153,119.3985 186.0196,98.5235 186.0196,98.5235 192.5919,96.7618 192.5919,96.7618 199.9474,124.209 199.9474,124.209 209.6251,129.7969 209.6251,129.7969 204.0294,108.9219 204.0294,108.9219 210.6036,107.1602 210.6036,107.1602 217.9572,134.6075 217.9572,134.6075 227.6388,140.1973 227.6388,140.1973 222.0431,119.3223 222.0431,119.3223 228.6154,117.5586 228.6154,117.5586 235.9708,145.0079 235.9708,145.0079 244.1681,149.7403 244.1681,149.7403 240.3732,105.6876 240.3732,105.6876 275.9064,131.4005 275.9064,131.4005 275.9064,121.9512 275.9064,121.9512 255.8126,101.8575 255.8126,101.8575 260.6251,97.0469 260.6251,97.0469 275.9064,112.3301 275.9064,112.3301 275.9064,101.1543 275.9064,101.1543 255.8126,81.0606 255.8126,81.0606 260.6251,76.2481 260.6251,76.2481 275.9064,91.5313 275.9064,91.5313 275.9064,80.3536 275.9064,80.3536 255.8126,60.2598 255.8126,60.2598 260.6251,55.4512 260.6251,55.4512 275.9064,70.7344 275.9064,70.7344"/>
    <polygon points="248.4298,119.9122 251.3537,153.8887 251.3537,153.8887 258.5763,158.0587 258.5763,158.0587 258.8108,157.7647 258.8108,157.7647 259.0493,157.474 259.0493,157.474 259.2917,157.1868 259.2917,157.1868 259.5381,156.903 259.5381,156.903 259.7883,156.6227 259.7883,156.6227 260.0423,156.3459 260.0423,156.3459 260.3001,156.0727 260.3001,156.0727 260.5616,155.8031 260.5616,155.8031 260.8269,155.5371 260.8269,155.5371 261.0957,155.2748 261.0957,155.2748 261.3682,155.0163 261.3682,155.0163 261.6443,154.7615 261.6443,154.7615 261.9239,154.5106 261.9239,154.5106 262.2069,154.2635 262.2069,154.2635 262.4935,154.0203 262.4935,154.0203 262.7834,153.7811 262.7834,153.7811 263.0766,153.5458 263.0766,153.5458 263.3732,153.3146 263.3732,153.3146 263.6731,153.0875 263.6731,153.0875 263.9762,152.8644 263.9762,152.8644 264.2825,152.6456 264.2825,152.6456 264.5919,152.4309 264.5919,152.4309 264.9045,152.2205 264.9045,152.2205 265.2201,152.0143 265.2201,152.0143 265.5387,151.8125 265.5387,151.8125 265.8604,151.615 265.8604,151.615 266.1849,151.422 266.1849,151.422 266.5124,151.2334 266.5124,151.2334 266.8427,151.0493 266.8427,151.0493 267.1758,150.8698 267.1758,150.8698 267.5117,150.6948 267.5117,150.6948 267.8504,150.5244 267.8504,150.5244 268.1917,150.3587 268.1917,150.3587 268.5357,150.1977 268.5357,150.1977 268.8823,150.0415 268.8823,150.0415 269.2314,149.8901 269.2314,149.8901 269.5831,149.7434 269.5831,149.7434 269.9372,149.6017 269.9372,149.6017 270.2938,149.4649 270.2938,149.4649 270.6527,149.333 270.6527,149.333 271.0141,149.2062 271.0141,149.2062 271.3777,149.0843 271.3777,149.0843 271.7436,148.9676 271.7436,148.9676 272.1117,148.856 272.1117,148.856 272.4821,148.7496 272.4821,148.7496 272.8545,148.6484 272.8545,148.6484 273.2291,148.5524 273.2291,148.5524 273.6057,148.4617 273.6057,148.4617 273.9844,148.3764 273.9844,148.3764 274.365,148.2964 274.365,148.2964 274.7475,148.2219 274.7475,148.2219 275.132,148.1529 275.132,148.1529 275.5183,148.0893 275.5183,148.0893 275.9064,148.0313 275.9064,148.0313 275.9064,139.795 275.9064,139.795"/>
    <polygon points="247.6447,160.4747 216.6876,174.3302 216.6876,174.3302 247.5763,188.7853 247.5763,188.7853 254.7833,184.6251 254.7833,184.6251 254.6464,184.2797 254.6464,184.2797 254.5141,183.932 254.5141,183.932 254.3865,183.5821 254.3865,183.5821 254.2636,183.23 254.2636,183.23 254.1454,182.8757 254.1454,182.8757 254.0321,182.5193 254.0321,182.5193 253.9235,182.1608 253.9235,182.1608 253.8199,181.8003 253.8199,181.8003 253.7211,181.4377 253.7211,181.4377 253.6274,181.0732 253.6274,181.0732 253.5386,180.7067 253.5386,180.7067 253.4549,180.3383 253.4549,180.3383 253.3763,179.9681 253.3763,179.9681 253.3028,179.596 253.3028,179.596 253.2345,179.2221 253.2345,179.2221 253.1714,178.8465 253.1714,178.8465 253.1136,178.4691 253.1136,178.4691 253.061,178.0901 253.061,178.0901 253.0139,177.7094 253.0139,177.7094 252.9721,177.3272 252.9721,177.3272 252.9357,176.9433 252.9357,176.9433 252.9049,176.5579 252.9049,176.5579 252.8795,176.1711 252.8795,176.1711 252.8597,175.7828 252.8597,175.7828 252.8455,175.393 252.8455,175.393 252.837,175.0019 252.837,175.0019 252.8341,174.6095 252.8341,174.6095 252.837,174.217 252.837,174.217 252.8455,173.826 252.8455,173.826 252.8597,173.4363 252.8597,173.4363 252.8795,173.048 252.8795,173.048 252.9049,172.6612 252.9049,172.6612 252.9358,172.2759 252.9358,172.2759 252.9721,171.8921 252.9721,171.8921 253.0139,171.5099 253.0139,171.5099 253.0611,171.1293 253.0611,171.1293 253.1136,170.7504 253.1136,170.7504 253.1714,170.3731 253.1714,170.3731 253.2345,169.9976 253.2345,169.9976 253.3028,169.6238 253.3028,169.6238 253.3763,169.2518 253.3763,169.2518 253.455,168.8817 253.455,168.8817 253.5387,168.5134 253.5387,168.5134 253.6274,168.147 253.6274,168.147 253.7212,167.7825 253.7212,167.7825 253.8199,167.42 253.8199,167.42 253.9236,167.0596 253.9236,167.0596 254.0321,166.7012 254.0321,166.7012 254.1455,166.3448 254.1455,166.3448 254.2636,165.9906 254.2636,165.9906 254.3866,165.6386 254.3866,165.6386 254.5142,165.2887 254.5142,165.2887 254.6464,164.9411 254.6464,164.9411 254.7833,164.5958 254.7833,164.5958"/>
    <polygon points="260.7365,168.0352 260.6147,168.4 260.6147,168.4 260.4996,168.7679 260.4996,168.7679 260.3913,169.1388 260.3913,169.1388 260.29,169.5126 260.29,169.5126 260.1956,169.8893 260.1956,169.8893 260.1084,170.2688 260.1084,170.2688 260.0282,170.651 260.0282,170.651 259.9554,171.0359 259.9554,171.0359 259.8898,171.4234 259.8898,171.4234 259.8317,171.8135 259.8317,171.8135 259.781,172.206 259.781,172.206 259.7379,172.601 259.7379,172.601 259.7024,172.9983 259.7024,172.9983 259.6747,173.3978 259.6747,173.3978 259.6548,173.7996 259.6548,173.7996 259.6428,174.2035 259.6428,174.2035 259.6388,174.6095 259.6388,174.6095 259.6428,175.0155 259.6428,175.0155 259.6549,175.4195 259.6549,175.4195 259.6749,175.8214 259.6749,175.8214 259.7027,176.2211 259.7027,176.2211 259.7382,176.6185 259.7382,176.6185 259.7815,177.0135 259.7815,177.0135 259.8323,177.4062 259.8323,177.4062 259.8906,177.7964 259.8906,177.7964 259.9563,178.184 259.9563,178.184 260.0294,178.5691 260.0294,178.5691 260.1096,178.9514 260.1096,178.9514 260.1971,179.3311 260.1971,179.3311 260.2916,179.7079 260.2916,179.7079 260.393,180.0818 260.393,180.0818 260.5014,180.4528 260.5014,180.4528 260.6165,180.8208 260.6165,180.8208 260.7384,181.1856 260.7384,181.1856 272.1271,174.6095 272.1271,174.6095"/>
    <polygon points="275.9064,154.92 275.5194,154.9971 275.5194,154.9971 275.1353,155.0815 275.1353,155.0815 274.7539,155.1732 274.7539,155.1732 274.3756,155.2721 274.3756,155.2721 274.0002,155.3781 274.0002,155.3781 273.6279,155.4911 273.6279,155.4911 273.2588,155.611 273.2588,155.611 272.8929,155.7378 272.8929,155.7378 272.5303,155.8715 272.5303,155.8715 272.1711,156.0118 272.1711,156.0118 271.8154,156.1588 271.8154,156.1588 271.4632,156.3124 271.4632,156.3124 271.1146,156.4724 271.1146,156.4724 270.7697,156.6389 270.7697,156.6389 270.4286,156.8118 270.4286,156.8118 270.0913,156.9909 270.0913,156.9909 269.7579,157.1762 269.7579,157.1762 269.4284,157.3677 269.4284,157.3677 269.1031,157.5652 269.1031,157.5652 268.7818,157.7686 268.7818,157.7686 268.4648,157.978 268.4648,157.978 268.1521,158.1932 268.1521,158.1932 267.8437,158.4141 267.8437,158.4141 267.5397,158.6407 267.5397,158.6407 267.2403,158.8729 267.2403,158.8729 266.9454,159.1107 266.9454,159.1107 266.6552,159.3539 266.6552,159.3539 266.3697,159.6024 266.3697,159.6024 266.089,159.8563 266.089,159.8563 265.8132,160.1153 265.8132,160.1153 265.5423,160.3796 265.5423,160.3796 265.2765,160.6488 265.2765,160.6488 265.0158,160.9231 265.0158,160.9231 264.7602,161.2024 264.7602,161.2024 264.5099,161.4864 264.5099,161.4864 275.9064,168.0665 275.9064,168.0665"/>
    <polygon points="283.465,154.92 283.465,168.0665 283.465,168.0665 294.8615,161.4864 294.8615,161.4864 294.6112,161.2024 294.6112,161.2024 294.3557,160.9232 294.3557,160.9232 294.095,160.6489 294.095,160.6489 293.8292,160.3797 293.8292,160.3797 293.5583,160.1154 293.5583,160.1154 293.2825,159.8564 293.2825,159.8564 293.0018,159.6026 293.0018,159.6026 292.7163,159.354 292.7163,159.354 292.4261,159.1108 292.4261,159.1108 292.1312,158.8731 292.1312,158.8731 291.8317,158.6409 291.8317,158.6409 291.5277,158.4143 291.5277,158.4143 291.2193,158.1934 291.2193,158.1934 290.9066,157.9782 290.9066,157.9782 290.5895,157.7688 290.5895,157.7688 290.2683,157.5654 290.2683,157.5654 289.9429,157.3679 289.9429,157.3679 289.6134,157.1764 289.6134,157.1764 289.28,156.9911 289.28,156.9911 288.9427,156.812 288.9427,156.812 288.6015,156.6391 288.6015,156.6391 288.2566,156.4726 288.2566,156.4726 287.908,156.3125 287.908,156.3125 287.5558,156.159 287.5558,156.159 287.2001,156.012 287.2001,156.012 286.8409,155.8716 286.8409,155.8716 286.4783,155.738 286.4783,155.738 286.1124,155.6111 286.1124,155.6111 285.7433,155.4912 285.7433,155.4912 285.3711,155.3782 285.3711,155.3782 284.9957,155.2722 284.9957,155.2722 284.6174,155.1733 284.6174,155.1733 284.2361,155.0816 284.2361,155.0816 283.8519,154.9971 283.8519,154.9971"/>
    <polygon points="298.633,168.0352 287.2423,174.6114 287.2423,174.6114 298.631,181.1856 298.631,181.1856 298.7529,180.8208 298.7529,180.8208 298.8681,180.4528 298.8681,180.4528 298.9766,180.0818 298.9766,180.0818 299.0782,179.7079 299.0782,179.7079 299.1728,179.3311 299.1728,179.3311 299.2604,178.9514 299.2604,178.9514 299.3408,178.5691 299.3408,178.5691 299.414,178.184 299.414,178.184 299.4799,177.7964 299.4799,177.7964 299.5384,177.4062 299.5384,177.4062 299.5894,177.0135 299.5894,177.0135 299.6327,176.6185 299.6327,176.6185 299.6684,176.2211 299.6684,176.2211 299.6964,175.8214 299.6964,175.8214 299.7164,175.4195 299.7164,175.4195 299.7285,175.0155 299.7285,175.0155 299.7326,174.6095 299.7326,174.6095 299.7285,174.2035 299.7285,174.2035 299.7165,173.7996 299.7165,173.7996 299.6965,173.3978 299.6965,173.3978 299.6687,172.9983 299.6687,172.9983 299.6331,172.601 299.6331,172.601 299.5899,172.206 299.5899,172.206 299.539,171.8135 299.539,171.8135 299.4807,171.4234 299.4807,171.4234 299.415,171.0359 299.415,171.0359 299.3419,170.651 299.3419,170.651 299.2616,170.2688 299.2616,170.2688 299.1742,169.8893 299.1742,169.8893 299.0797,169.5126 299.0797,169.5126 298.9783,169.1388 298.9783,169.1388 298.87,168.7679 298.87,168.7679 298.7548,168.4 298.7548,168.4"/>
    <polygon points="311.7971,160.4356 304.5881,164.5977 304.5881,164.5977 304.7249,164.943 304.7249,164.943 304.8571,165.2905 304.8571,165.2905 304.9847,165.6403 304.9847,165.6403 305.1076,165.9923 305.1076,165.9923 305.2257,166.3464 305.2257,166.3464 305.339,166.7027 305.339,166.7027 305.4476,167.0611 305.4476,167.0611 305.5512,167.4215 305.5512,167.4215 305.6499,167.7839 305.6499,167.7839 305.7437,168.1483 305.7437,168.1483 305.8325,168.5146 305.8325,168.5146 305.9162,168.8828 305.9162,168.8828 305.9948,169.2529 305.9948,169.2529 306.0683,169.6249 306.0683,169.6249 306.1367,169.9986 306.1367,169.9986 306.1998,170.374 306.1998,170.374 306.2576,170.7512 306.2576,170.7512 306.3102,171.1301 306.3102,171.1301 306.3574,171.5106 306.3574,171.5106 306.3992,171.8927 306.3992,171.8927 306.4356,172.2764 306.4356,172.2764 306.4665,172.6617 306.4665,172.6617 306.4918,173.0484 306.4918,173.0484 306.5117,173.4365 306.5117,173.4365 306.5259,173.8261 306.5259,173.8261 306.5344,174.2171 306.5344,174.2171 306.5373,174.6095 306.5373,174.6095 306.5344,175.0019 306.5344,175.0019 306.5258,175.393 306.5258,175.393 306.5116,175.7828 306.5116,175.7828 306.4918,176.1711 306.4918,176.1711 306.4664,176.5579 306.4664,176.5579 306.4354,176.9433 306.4354,176.9433 306.399,177.3272 306.399,177.3272 306.3571,177.7094 306.3571,177.7094 306.3098,178.0901 306.3098,178.0901 306.2572,178.4691 306.2572,178.4691 306.1993,178.8465 306.1993,178.8465 306.1361,179.2221 306.1361,179.2221 306.0677,179.596 306.0677,179.596 305.9941,179.9681 305.9941,179.9681 305.9154,180.3383 305.9154,180.3383 305.8315,180.7067 305.8315,180.7067 305.7427,181.0732 305.7427,181.0732 305.6488,181.4377 305.6488,181.4377 305.55,181.8003 305.55,181.8003 305.4462,182.1608 305.4462,182.1608 305.3376,182.5193 305.3376,182.5193 305.2242,182.8757 305.2242,182.8757 305.106,183.23 305.106,183.23 304.983,183.5821 304.983,183.5821 304.8553,183.932 304.8553,183.932 304.723,184.2797 304.723,184.2797 304.5861,184.6251 304.5861,184.6251 311.7248,188.7462 311.7248,188.7462 342.6838,174.8907 342.6838,174.8907"/>
    <polygon points="300.7951,191.1603 300.7951,191.1603 300.7951,191.1603 300.5606,191.4543 300.5606,191.4543 300.3221,191.745 300.3221,191.745 300.0796,192.0324 300.0796,192.0324 299.8333,192.3162 299.8333,192.3162 299.583,192.5966 299.583,192.5966 299.329,192.8735 299.329,192.8735 299.0712,193.1468 299.0712,193.1468 298.8096,193.4165 298.8096,193.4165 298.5444,193.6825 298.5444,193.6825 298.2755,193.9449 298.2755,193.9449 298.003,194.2035 298.003,194.2035 297.7269,194.4583 297.7269,194.4583 297.4473,194.7093 297.4473,194.7093 297.1642,194.9564 297.1642,194.9564 296.8776,195.1997 296.8776,195.1997 296.5877,195.439 296.5877,195.439 296.2944,195.6743 296.2944,195.6743 295.9978,195.9055 295.9978,195.9055 295.6979,196.1327 295.6979,196.1327 295.3947,196.3558 295.3947,196.3558 295.0884,196.5747 295.0884,196.5747 294.7789,196.7894 294.7789,196.7894 294.4664,196.9999 294.4664,196.9999 294.1507,197.2061 294.1507,197.2061 293.832,197.4079 293.832,197.4079 293.5104,197.6054 293.5104,197.6054 293.1858,197.7985 293.1858,197.7985 292.8583,197.9871 292.8583,197.9871 292.5279,198.1712 292.5279,198.1712 292.1948,198.3508 292.1948,198.3508 291.8588,198.5258 291.8588,198.5258 291.5201,198.6962 291.5201,198.6962 291.1788,198.8619 291.1788,198.8619 290.8348,199.0229 290.8348,199.0229 290.4882,199.1792 290.4882,199.1792 290.139,199.3307 290.139,199.3307 289.7873,199.4773 289.7873,199.4773 289.4331,199.6191 289.4331,199.6191 289.0765,199.7559 289.0765,199.7559 288.7174,199.8878 288.7174,199.8878 288.3561,200.0147 288.3561,200.0147 287.9924,200.1365 287.9924,200.1365 287.6264,200.2532 287.6264,200.2532 287.2583,200.3648 287.2583,200.3648 286.8879,200.4713 286.8879,200.4713 286.5154,200.5725 286.5154,200.5725 286.1407,200.6685 286.1407,200.6685 285.7641,200.7591 285.7641,200.7591 285.3854,200.8445 285.3854,200.8445 285.0047,200.9244 285.0047,200.9244 284.6221,200.999 284.6221,200.999 284.2376,201.068 284.2376,201.068 283.8512,201.1316 283.8512,201.1316 283.4631,201.1896 283.4631,201.1896 283.4631,209.4259 283.4631,209.4259 310.9416,229.3087 310.9416,229.3087 308.0158,195.3282 308.0158,195.3282"/>
    <polygon points="283.4631,181.1544 283.4631,194.3028 283.4631,194.3028 283.85,194.2257 283.85,194.2257 284.2341,194.1413 284.2341,194.1413 284.6154,194.0495 284.6154,194.0495 284.9937,193.9506 284.9937,193.9506 285.369,193.8446 285.369,193.8446 285.7413,193.7316 285.7413,193.7316 286.1104,193.6116 286.1104,193.6116 286.4763,193.4847 286.4763,193.4847 286.8388,193.351 286.8388,193.351 287.198,193.2106 287.198,193.2106 287.5537,193.0635 287.5537,193.0635 287.9059,192.9098 287.9059,192.9098 288.2545,192.7497 288.2545,192.7497 288.5994,192.5831 288.5994,192.5831 288.9406,192.4102 288.9406,192.4102 289.2779,192.2309 289.2779,192.2309 289.6113,192.0455 289.6113,192.0455 289.9408,191.854 289.9408,191.854 290.2662,191.6564 290.2662,191.6564 290.5874,191.4529 290.5874,191.4529 290.9045,191.2434 290.9045,191.2434 291.2172,191.0281 291.2172,191.0281 291.5256,190.8071 291.5256,190.8071 291.8296,190.5804 291.8296,190.5804 292.1291,190.3481 292.1291,190.3481 292.424,190.1104 292.424,190.1104 292.7142,189.8671 292.7142,189.8671 292.9997,189.6185 292.9997,189.6185 293.2804,189.3646 293.2804,189.3646 293.5563,189.1055 293.5563,189.1055 293.8271,188.8413 293.8271,188.8413 294.093,188.572 294.093,188.572 294.3537,188.2977 294.3537,188.2977 294.6092,188.0185 294.6092,188.0185 294.8595,187.7345 294.8595,187.7345"/>
    <polygon points="275.9064,181.1544 264.5099,187.7345 264.5099,187.7345 264.7602,188.0185 264.7602,188.0185 265.0158,188.2977 265.0158,188.2977 265.2765,188.5721 265.2765,188.5721 265.5423,188.8414 265.5423,188.8414 265.8132,189.1056 265.8132,189.1056 266.089,189.3647 266.089,189.3647 266.3697,189.6186 266.3697,189.6186 266.6552,189.8673 266.6552,189.8673 266.9454,190.1105 266.9454,190.1105 267.2403,190.3483 267.2403,190.3483 267.5398,190.5806 267.5398,190.5806 267.8438,190.8072 267.8438,190.8072 268.1522,191.0283 268.1522,191.0283 268.4649,191.2435 268.4649,191.2435 268.782,191.453 268.782,191.453 269.1032,191.6565 269.1032,191.6565 269.4286,191.8541 269.4286,191.8541 269.758,192.0456 269.758,192.0456 270.0914,192.231 270.0914,192.231 270.4288,192.4102 270.4288,192.4102 270.7699,192.5831 270.7699,192.5831 271.1148,192.7497 271.1148,192.7497 271.4634,192.9099 271.4634,192.9099 271.8156,193.0635 271.8156,193.0635 272.1713,193.2106 272.1713,193.2106 272.5305,193.351 272.5305,193.351 272.8931,193.4847 272.8931,193.4847 273.259,193.6116 273.259,193.6116 273.6281,193.7316 273.6281,193.7316 274.0003,193.8446 274.0003,193.8446 274.3757,193.9506 274.3757,193.9506 274.754,194.0495 274.754,194.0495 275.1353,194.1412 275.1353,194.1412 275.5195,194.2257 275.5195,194.2257 275.9064,194.3028 275.9064,194.3028"/>
    <polygon points="258.5763,191.1603 251.424,195.2911 251.424,195.2911 247.9435,229.0274 247.9435,229.0274 275.9064,209.506 275.9064,209.506 275.9064,201.1896 275.9064,201.1896 275.5183,201.1315 275.5183,201.1315 275.132,201.068 275.132,201.068 274.7475,200.9989 274.7475,200.9989 274.3649,200.9244 274.3649,200.9244 273.9843,200.8444 273.9843,200.8444 273.6057,200.7591 273.6057,200.7591 273.229,200.6684 273.229,200.6684 272.8544,200.5724 272.8544,200.5724 272.482,200.4711 272.482,200.4711 272.1117,200.3647 272.1117,200.3647 271.7435,200.2531 271.7435,200.2531 271.3776,200.1363 271.3776,200.1363 271.014,200.0145 271.014,200.0145 270.6526,199.8876 270.6526,199.8876 270.2937,199.7557 270.2937,199.7557 269.9371,199.6188 269.9371,199.6188 269.5829,199.4771 269.5829,199.4771 269.2313,199.3304 269.2313,199.3304 268.8821,199.1789 268.8821,199.1789 268.5356,199.0227 268.5356,199.0227 268.1916,198.8616 268.1916,198.8616 267.8503,198.6959 267.8503,198.6959 267.5116,198.5255 267.5116,198.5255 267.1757,198.3505 267.1757,198.3505 266.8426,198.1709 266.8426,198.1709 266.5123,197.9868 266.5123,197.9868 266.1848,197.7982 266.1848,197.7982 265.8603,197.6051 265.8603,197.6051 265.5387,197.4076 265.5387,197.4076 265.22,197.2057 265.22,197.2057 264.9044,196.9995 264.9044,196.9995 264.5919,196.7891 264.5919,196.7891 264.2824,196.5743 264.2824,196.5743 263.9761,196.3554 263.9761,196.3554 263.673,196.1324 263.673,196.1324 263.3732,195.9052 263.3732,195.9052 263.0766,195.6739 263.0766,195.6739 262.7833,195.4386 262.7833,195.4386 262.4934,195.1993 262.4934,195.1993 262.2069,194.9561 262.2069,194.9561 261.9238,194.709 261.9238,194.709 261.6443,194.458 261.6443,194.458 261.3682,194.2032 261.3682,194.2032 261.0957,193.9446 261.0957,193.9446 260.8268,193.6823 260.8268,193.6823 260.5616,193.4163 260.5616,193.4163 260.3001,193.1466 260.3001,193.1466 260.0423,192.8733 260.0423,192.8733 259.7883,192.5965 259.7883,192.5965 259.5381,192.3161 259.5381,192.3161 259.2917,192.0323 259.2917,192.0323 259.0493,191.745 259.0493,191.745 258.8108,191.4543 258.8108,191.4543"/>
    <polygon points="311.4279,120.1934 283.465,139.7149 283.465,139.7149 283.465,148.0313 283.465,148.0313 283.8531,148.0893 283.8531,148.0893 284.2395,148.1529 284.2395,148.1529 284.6239,148.222 284.6239,148.222 285.0065,148.2965 285.0065,148.2965 285.3872,148.3765 285.3872,148.3765 285.7658,148.4618 285.7658,148.4618 286.1425,148.5525 286.1425,148.5525 286.5171,148.6485 286.5171,148.6485 286.8895,148.7497 286.8895,148.7497 287.2599,148.8562 287.2599,148.8562 287.628,148.9678 287.628,148.9678 287.9939,149.0846 287.9939,149.0846 288.3576,149.2064 288.3576,149.2064 288.7189,149.3333 288.7189,149.3333 289.0779,149.4652 289.0779,149.4652 289.4345,149.6021 289.4345,149.6021 289.7886,149.7438 289.7886,149.7438 290.1403,149.8905 290.1403,149.8905 290.4894,150.042 290.4894,150.042 290.836,150.1982 290.836,150.1982 291.18,150.3593 291.18,150.3593 291.5213,150.525 291.5213,150.525 291.8599,150.6954 291.8599,150.6954 292.1958,150.8704 292.1958,150.8704 292.5289,151.05 292.5289,151.05 292.8592,151.2341 292.8592,151.2341 293.1867,151.4228 293.1867,151.4228 293.5113,151.6158 293.5113,151.6158 293.8329,151.8133 293.8329,151.8133 294.1515,152.0152 294.1515,152.0152 294.4671,152.2214 294.4671,152.2214 294.7797,152.4319 294.7797,152.4319 295.0891,152.6466 295.0891,152.6466 295.3954,152.8655 295.3954,152.8655 295.6985,153.0886 295.6985,153.0886 295.9983,153.3157 295.9983,153.3157 296.2949,153.547 296.2949,153.547 296.5882,153.7823 296.5882,153.7823 296.8781,154.0216 296.8781,154.0216 297.1646,154.2648 297.1646,154.2648 297.4476,154.5119 297.4476,154.5119 297.7272,154.7629 297.7272,154.7629 298.0033,155.0177 298.0033,155.0177 298.2757,155.2763 298.2757,155.2763 298.5446,155.5386 298.5446,155.5386 298.8098,155.8047 298.8098,155.8047 299.0714,156.0743 299.0714,156.0743 299.3291,156.3476 299.3291,156.3476 299.5832,156.6244 299.5832,156.6244 299.8334,156.9048 299.8334,156.9048 300.0797,157.1886 300.0797,157.1886 300.3221,157.4759 300.3221,157.4759 300.5606,157.7666 300.5606,157.7666 300.7951,158.0606 300.7951,158.0606 307.9455,153.9317 307.9455,153.9317"/>
  </g>
  <g fill="none" id="layer1464" inkscape:groupmode="layer" inkscape:label="1464" stroke="#080" style="display:inline">
    <polyline points="71.2599,350.7828 72.1279,349.0188 72.1279,349.0188 73.9199,348.1228 73.9199,348.1228 75.6559,348.1228 75.6559,348.1228 76.5519,349.9148 76.5519,349.9148 76.5519,351.6508 76.5519,351.6508 75.6559,353.4288 75.6559,353.4288 73.9199,355.1928 73.9199,355.1928 71.2599,356.0748 71.2599,356.0748 68.5999,356.0748 68.5999,356.0748 66.8639,355.1928 66.8639,355.1928 65.9679,354.3108 65.9679,354.3108 65.0859,352.5468 65.0859,352.5468 65.0859,349.9148 65.0859,349.9148 65.9679,348.1228 65.9679,348.1228 67.7319,346.3868 67.7319,346.3868 70.3919,345.4908 70.3919,345.4908 72.1279,345.4908 72.1279,345.4908 70.3919,344.5948 70.3919,344.5948 69.4959,342.8588 69.4959,342.8588 69.4959,341.0668 69.4959,341.0668 70.3919,339.3308 70.3919,339.3308 71.2599,338.4348 71.2599,338.4348 73.0239,337.5388 73.0239,337.5388 75.6559,337.5388 75.6559,337.5388 77.4479,338.4348 77.4479,338.4348 78.3159,340.1988 78.3159,340.1988 78.3159,341.9628 78.3159,341.9628 77.4479,343.7268 77.4479,343.7268 75.6559,343.7268 75.6559,343.7268 74.7879,342.8588 74.7879,342.8588 74.7879,341.0668 74.7879,341.0668 75.6559,340.1988"/>
    <polyline points="73.0239,337.5388 71.2599,339.3308 71.2599,339.3308 70.3919,341.0668 70.3919,341.0668 70.3919,343.7268 70.3919,343.7268 72.1279,345.4908"/>
    <polyline points="70.3919,345.4908 68.5999,346.3868 68.5999,346.3868 66.8639,348.1228 66.8639,348.1228 65.9679,349.9148 65.9679,349.9148 65.9679,353.4288 65.9679,353.4288 66.8639,355.1928"/>
    <polyline points="76.5519,355.1928 78.3159,356.0748 78.3159,356.0748 82.7259,356.0748 82.7259,356.0748 85.3579,354.3108 85.3579,354.3108 87.1499,351.6508"/>
    <polyline points="93.5359,351.6508 95.2999,349.0188 95.2999,349.0188 97.0779,348.1228 97.0779,348.1228 97.9459,349.0188 97.9459,349.0188 97.9459,350.7828 97.9459,350.7828 96.1819,356.0748"/>
    <line x1="97.0779" x2="98.8139" y1="356.0748" y2="350.7828"/>
    <polyline points="97.0779,348.1228 98.8139,349.0188 98.8139,349.0188 98.8139,350.7828 98.8139,350.7828 100.6059,349.0188 100.6059,349.0188 102.3419,348.1228 102.3419,348.1228 103.2379,348.1228 103.2379,348.1228 104.1339,349.0188 104.1339,349.0188 104.1339,350.7828 104.1339,350.7828 102.3419,356.0748"/>
    <polyline points="103.2379,356.0748 105.0019,350.7828 105.0019,350.7828 105.0019,349.0188 105.0019,349.0188 103.2379,348.1228"/>
    <polyline points="105.0019,350.7828 106.7659,349.0188 106.7659,349.0188 108.5299,348.1228 108.5299,348.1228 109.3979,348.1228 109.3979,348.1228 111.1899,349.0188 111.1899,349.0188 111.1899,350.7828 111.1899,350.7828 110.2939,353.4288 110.2939,353.4288 110.2939,355.1928 110.2939,355.1928 111.1899,356.0748 111.1899,356.0748 112.9259,355.1928 112.9259,355.1928 113.8219,354.3108 113.8219,354.3108 115.5859,351.6508 115.5859,351.6508 115.5859,353.4288 115.5859,353.4288 116.4679,355.1928 116.4679,355.1928 118.2459,356.0748 118.2459,356.0748 119.9819,356.0748 119.9819,356.0748 121.7739,355.1928 121.7739,355.1928 122.6419,353.4288 122.6419,353.4288 122.6419,355.1928 122.6419,355.1928 124.4059,356.0748 124.4059,356.0748 126.1699,355.1928 126.1699,355.1928 127.0379,354.3108 127.0379,354.3108 128.8299,351.6508 128.8299,351.6508 128.8299,353.4288 128.8299,353.4288 129.7119,355.1928 129.7119,355.1928 131.4899,356.0748 131.4899,356.0748 134.1219,356.0748 134.1219,356.0748 136.7539,354.3108 136.7539,354.3108 138.5459,351.6508 138.5459,351.6508 140.3099,349.0188 140.3099,349.0188 142.0879,345.4908"/>
    <polyline points="145.6159,348.1228 146.4839,349.0188 146.4839,349.0188 146.4839,350.7828 146.4839,350.7828 145.6159,353.4288 145.6159,353.4288 145.6159,355.1928 145.6159,355.1928 147.3519,356.0748"/>
    <polyline points="154.4219,356.0748 153.5399,355.1928 153.5399,355.1928 153.5399,353.4288 153.5399,353.4288 158.8459,337.5388"/>
    <polyline points="157.9499,337.5388 152.6579,353.4288 152.6579,353.4288 152.6579,355.1928 152.6579,355.1928 154.4219,356.0748 154.4219,356.0748 156.1859,355.1928 156.1859,355.1928 157.0539,354.3108 157.0539,354.3108 158.8459,351.6508"/>
    <line x1="158.8459" x2="153.5399" y1="344.5948" y2="344.5948"/>
    <polyline points="155.3179,345.4908 153.5399,349.0188 153.5399,349.0188 151.7759,351.6508 151.7759,351.6508 150.0119,354.3108 150.0119,354.3108 149.1439,355.1928 149.1439,355.1928 147.3519,356.0748 147.3519,356.0748 146.4839,355.1928 146.4839,355.1928 146.4839,353.4288 146.4839,353.4288 147.3519,350.7828 147.3519,350.7828 147.3519,349.0188 147.3519,349.0188 145.6159,348.1228 145.6159,348.1228 144.7199,348.1228 144.7199,348.1228 142.9559,349.0188 142.9559,349.0188 141.1919,350.7828"/>
    <line x1="139.4279" x2="145.6159" y1="356.0748" y2="337.5388"/>
    <line x1="144.7199" x2="138.5459" y1="337.5388" y2="356.0748"/>
    <polyline points="131.4899,356.0748 129.7119,354.3108 129.7119,354.3108 129.7119,351.6508 129.7119,351.6508 130.5939,349.9148 130.5939,349.9148 132.3579,348.1228"/>
    <polyline points="135.0179,349.0188 134.1219,349.9148 134.1219,349.9148 135.0179,349.9148 135.0179,349.9148 135.0179,349.0188 135.0179,349.0188 134.1219,348.1228 134.1219,348.1228 132.3579,348.1228 132.3579,348.1228 130.5939,349.0188 130.5939,349.0188 129.7119,349.9148 129.7119,349.9148 128.8299,351.6508"/>
    <polyline points="125.3019,348.1228 123.5099,353.4288 123.5099,353.4288 123.5099,355.1928 123.5099,355.1928 124.4059,356.0748"/>
    <line x1="122.6419" x2="124.4059" y1="353.4288" y2="348.1228"/>
    <polyline points="123.5099,350.7828 122.6419,349.0188 122.6419,349.0188 120.8779,348.1228 120.8779,348.1228 119.1139,348.1228 119.1139,348.1228 117.3499,349.0188 117.3499,349.0188 116.4679,349.9148 116.4679,349.9148 115.5859,351.6508"/>
    <polyline points="119.1139,348.1228 117.3499,349.9148 117.3499,349.9148 116.4679,351.6508 116.4679,351.6508 116.4679,354.3108 116.4679,354.3108 118.2459,356.0748"/>
    <polyline points="111.1899,356.0748 109.3979,355.1928 109.3979,355.1928 109.3979,353.4288 109.3979,353.4288 110.2939,350.7828 110.2939,350.7828 110.2939,349.0188 110.2939,349.0188 109.3979,348.1228"/>
    <polyline points="79.1979,349.0188 80.9619,350.7828 80.9619,350.7828 81.8299,352.5468 81.8299,352.5468 81.8299,354.3108 81.8299,354.3108 80.0939,356.0748 80.0939,356.0748 81.8299,355.1928 81.8299,355.1928 82.7259,354.3108 82.7259,354.3108 82.7259,352.5468 82.7259,352.5468 81.8299,350.7828 81.8299,350.7828 79.1979,349.0188 79.1979,349.0188 79.1979,347.2548 79.1979,347.2548 78.3159,349.0188 78.3159,349.0188 76.5519,351.6508"/>
    <polyline points="170.0655,354.3108 170.9475,353.4288 170.9475,353.4288 170.0655,352.5468 170.0655,352.5468 169.1835,353.4288 169.1835,353.4288 169.1835,355.1928 169.1835,355.1928 170.0655,356.0748 170.0655,356.0748 171.8435,356.0748 171.8435,356.0748 173.5796,355.1928 173.5796,355.1928 175.3716,352.5468 175.3716,352.5468 176.2396,350.7828 176.2396,350.7828 178.0036,345.4908 178.0036,345.4908 179.7676,341.0668 179.7676,341.0668 180.6356,339.3308 180.6356,339.3308 181.5316,338.4348"/>
    <polyline points="182.4276,337.5388 185.0596,338.4348 185.0596,338.4348 185.9556,339.3308 185.9556,339.3308 186.8236,341.0668 186.8236,341.0668 186.8236,343.7268 186.8236,343.7268 185.9556,345.4908 185.9556,345.4908 185.0596,346.3868 185.0596,346.3868 182.4276,347.2548"/>
    <polyline points="178.8996,346.3868 180.6356,347.2548 180.6356,347.2548 182.4276,347.2548 182.4276,347.2548 184.1636,346.3868 184.1636,346.3868 185.0596,345.4908 185.0596,345.4908 185.9556,343.7268 185.9556,343.7268 185.9556,341.0668 185.9556,341.0668 185.0596,339.3308 185.0596,339.3308 184.1636,338.4348 184.1636,338.4348 182.4276,337.5388 182.4276,337.5388 178.8996,337.5388 178.8996,337.5388 176.2396,338.4348 176.2396,338.4348 174.4756,339.3308 174.4756,339.3308 172.7116,341.0668 172.7116,341.0668 171.8435,342.8588 171.8435,342.8588 171.8435,344.5948 171.8435,344.5948 172.7116,345.4908 172.7116,345.4908 174.4756,345.4908 174.4756,345.4908 175.3716,344.5948 175.3716,344.5948 176.2396,342.8588"/>
    <polyline points="180.6356,339.3308 179.7676,341.9628 179.7676,341.9628 178.0036,349.0188 178.0036,349.0188 177.1076,351.6508 177.1076,351.6508 176.2396,353.4288 176.2396,353.4288 174.4756,355.1928 174.4756,355.1928 171.8435,356.0748"/>
    <polyline points="186.4389,356.0748 185.5568,355.1928 185.5568,355.1928 185.5568,353.4288 185.5568,353.4288 187.3349,348.1228"/>
    <polyline points="186.4389,348.1228 184.6748,353.4288 184.6748,353.4288 184.6748,355.1928 184.6748,355.1928 186.4389,356.0748 186.4389,356.0748 187.3349,356.0748 187.3349,356.0748 189.0709,355.1928 189.0709,355.1928 190.8629,353.4288 190.8629,353.4288 192.5989,350.7828"/>
    <polyline points="193.4949,348.1228 191.7309,353.4288 191.7309,353.4288 191.7309,355.1928 191.7309,355.1928 193.4949,356.0748 193.4949,356.0748 195.2589,355.1928 195.2589,355.1928 196.1269,354.3108 196.1269,354.3108 197.9189,351.6508"/>
    <polyline points="199.9366,348.1228 200.8326,344.5948 200.8326,344.5948 201.7006,340.1988"/>
    <polyline points="209.0659,340.1988 208.1979,344.5948 208.1979,344.5948 207.3019,348.1228"/>
    <polyline points="205.2286,351.6508 203.4646,354.3108 203.4646,354.3108 202.5686,355.1928 202.5686,355.1928 200.8326,356.0748 200.8326,356.0748 199.0546,356.0748 199.0546,356.0748 198.1726,355.1928 198.1726,355.1928 197.2906,363.1308 197.2906,363.1308 196.4086,365.7628 196.4086,365.7628 194.6446,366.6588 194.6446,366.6588 193.7626,365.7628 193.7626,365.7628 193.7626,364.0268 193.7626,364.0268 201.7006,340.1988 201.7006,340.1988 202.5686,338.4348 202.5686,338.4348 204.3606,337.5388 204.3606,337.5388 205.2286,338.4348 205.2286,338.4348 205.2286,340.1988 205.2286,340.1988 204.3606,342.8588 204.3606,342.8588 202.5686,345.4908 202.5686,345.4908 199.9366,348.1228 199.9366,348.1228 197.2906,356.0748 197.2906,356.0748 195.5266,360.4988 195.5266,360.4988 193.7626,364.0268"/>
    <polyline points="201.1279,364.0268 202.8919,360.4988 202.8919,360.4988 204.6559,356.0748 204.6559,356.0748 207.3019,348.1228 207.3019,348.1228 209.9339,345.4908 209.9339,345.4908 211.7259,342.8588 211.7259,342.8588 212.5939,340.1988 212.5939,340.1988 212.5939,338.4348 212.5939,338.4348 211.7259,337.5388 211.7259,337.5388 209.9339,338.4348 209.9339,338.4348 209.0659,340.1988 209.0659,340.1988 201.1279,364.0268 201.1279,364.0268 201.1279,365.7628 201.1279,365.7628 202.0099,366.6588 202.0099,366.6588 203.7739,365.7628 203.7739,365.7628 204.6559,363.1308 204.6559,363.1308 205.5379,355.1928 205.5379,355.1928 206.4199,356.0748 206.4199,356.0748 208.1979,356.0748 208.1979,356.0748 209.9339,355.1928 209.9339,355.1928 210.8299,354.3108 210.8299,354.3108 212.5939,351.6508"/>
    <polygon points="216.5097,354.3108 217.4057,355.1928 217.4057,355.1928 216.5097,356.0748 216.5097,356.0748 215.6417,355.1928 215.6417,355.1928"/>
    <polyline points="218.2737,349.0188 221.8017,338.4348 221.8017,338.4348 220.9337,337.5388 220.9337,337.5388 220.0377,338.4348 220.0377,338.4348 218.2737,349.0188 218.2737,349.0188 220.9337,338.4348"/>
    <polyline points="235.5513,348.1228 233.7873,353.4288 233.7873,353.4288 233.7873,355.1928 233.7873,355.1928 235.5513,356.0748 235.5513,356.0748 236.4473,356.0748 236.4473,356.0748 238.1833,355.1928 238.1833,355.1928 239.9753,353.4288 239.9753,353.4288 241.7113,350.7828"/>
    <polyline points="242.6073,348.1228 240.8433,353.4288 240.8433,353.4288 240.8433,355.1928 240.8433,355.1928 242.6073,356.0748 242.6073,356.0748 244.3713,355.1928 244.3713,355.1928 245.2393,354.3108 245.2393,354.3108 247.0313,351.6508 247.0173,351.6508 248.7813,349.0188 248.7813,349.0188 250.5593,348.1228 250.5593,348.1228 251.4273,349.0188 251.4273,349.0188 251.4273,350.7828 251.4273,350.7828 249.6633,356.0748"/>
    <polyline points="250.5593,356.0748 252.2953,350.7828 252.2953,350.7828 252.2953,349.0188 252.2953,349.0188 250.5593,348.1228"/>
    <polyline points="252.2953,350.7828 254.0873,349.0188 254.0873,349.0188 255.8233,348.1228 255.8233,348.1228 256.7193,348.1228 256.7193,348.1228 257.6153,349.0188 257.6153,349.0188 257.6153,350.7828 257.6153,350.7828 256.7193,353.4288 256.7193,353.4288 256.7193,355.1928 256.7193,355.1928 258.4833,356.0748 258.4833,356.0748 260.2473,355.1928 260.2473,355.1928 261.1433,354.3108 261.1433,354.3108 262.8793,351.6508 262.8793,351.6508 262.8793,353.4288 262.8793,353.4288 263.7613,355.1928 263.7613,355.1928 265.5393,356.0748 265.5393,356.0748 267.2753,356.0748 267.2753,356.0748 269.0673,355.1928 269.0673,355.1928 269.9353,353.4288 269.9353,353.4288 269.9353,355.1928 269.9353,355.1928 271.6993,356.0748 271.6993,356.0748 273.4633,355.1928 273.4633,355.1928 274.3313,354.3108 274.3313,354.3108 276.1233,351.6508"/>
    <polyline points="270.8033,350.7828 269.9353,349.0188 269.9353,349.0188 268.1713,348.1228 268.1713,348.1228 266.4073,348.1228 266.4073,348.1228 264.6433,349.0188 264.6433,349.0188 263.7613,349.9148 263.7613,349.9148 262.8793,351.6508"/>
    <polyline points="266.4073,348.1228 264.6433,349.9148 264.6433,349.9148 263.7613,351.6508 263.7613,351.6508 263.7613,354.3108 263.7613,354.3108 265.5393,356.0748"/>
    <line x1="269.9353" x2="275.2273" y1="353.4288" y2="337.5388"/>
    <polyline points="276.1233,337.5388 270.8033,353.4288 270.8033,353.4288 270.8033,355.1928 270.8033,355.1928 271.6993,356.0748"/>
    <polyline points="258.4833,356.0748 257.6153,355.1928 257.6153,355.1928 257.6153,353.4288 257.6153,353.4288 258.4833,350.7828 258.4833,350.7828 258.4833,349.0188 258.4833,349.0188 256.7193,348.1228"/>
    <polyline points="243.5033,348.1228 241.7113,353.4288 241.7113,353.4288 241.7113,355.1928 241.7113,355.1928 242.6073,356.0748"/>
    <polyline points="235.5513,356.0748 234.6693,355.1928 234.6693,355.1928 234.6693,353.4288 234.6693,353.4288 236.4473,348.1228"/>
    <polyline points="194.3909,348.1228 192.5989,353.4288 192.5989,353.4288 192.5989,355.1928 192.5989,355.1928 193.4949,356.0748"/>
    <polyline points="290.1188,356.0748 288.3408,354.3108 288.3408,354.3108 288.3408,351.6508 288.3408,351.6508 289.2228,349.9148 289.2228,349.9148 290.9868,348.1228"/>
    <polyline points="295.3828,350.7828 294.5148,349.0188 294.5148,349.0188 292.7508,348.1228 292.7508,348.1228 290.9868,348.1228 290.9868,348.1228 289.2228,349.0188 289.2228,349.0188 288.3408,349.9148 288.3408,349.9148 287.4588,351.6508 287.4588,351.6508 287.4588,353.4288 287.4588,353.4288 288.3408,355.1928 288.3408,355.1928 290.1188,356.0748 290.1188,356.0748 291.8548,356.0748 291.8548,356.0748 293.6468,355.1928 293.6468,355.1928 294.5148,353.4288 294.5148,353.4288 294.5148,355.1928 294.5148,355.1928 296.2788,356.0748 296.2788,356.0748 298.0428,355.1928 298.0428,355.1928 298.9108,354.3108 298.9108,354.3108 300.7028,351.6508"/>
    <polyline points="301.8909,348.1228 300.1269,353.4288 300.1269,353.4288 300.1269,355.1928 300.1269,355.1928 301.8909,356.0748 301.8909,356.0748 303.6549,355.1928 303.6549,355.1928 304.5229,354.3108 304.5229,354.3108 306.3149,351.6508 306.3149,351.6508 306.3149,353.4288 306.3149,353.4288 307.1969,355.1928 307.1969,355.1928 308.9749,356.0748 308.9749,356.0748 311.6069,356.0748 311.6069,356.0748 314.2389,354.3108 314.2389,354.3108 316.0309,351.6508"/>
    <polyline points="309.8429,348.1228 308.0789,349.9148 308.0789,349.9148 307.1969,351.6508 307.1969,351.6508 307.1969,354.3108 307.1969,354.3108 308.9749,356.0748"/>
    <polyline points="308.0789,354.3108 309.8429,353.4288 309.8429,353.4288 310.7109,352.5468 310.7109,352.5468 311.6069,350.7828 311.6069,350.7828 311.6069,349.0188 311.6069,349.0188 310.7109,348.1228 310.7109,348.1228 309.8429,348.1228 309.8429,348.1228 308.0789,349.0188 308.0789,349.0188 307.1969,349.9148 307.1969,349.9148 306.3149,351.6508"/>
    <polyline points="302.7869,348.1228 301.0089,353.4288 301.0089,353.4288 301.0089,355.1928 301.0089,355.1928 301.8909,356.0748"/>
    <polyline points="296.2788,356.0748 295.3828,355.1928 295.3828,355.1928 295.3828,353.4288 295.3828,353.4288 300.7028,337.5388"/>
    <line x1="299.8068" x2="294.5148" y1="337.5388" y2="353.4288"/>
    <polygon points="303.6549,342.8588 304.5229,343.7268 304.5229,343.7268 303.6549,344.5948 303.6549,344.5948 302.7869,343.7268 302.7869,343.7268"/>
    <polyline points="325.672,354.3108 326.554,353.4288 326.554,353.4288 325.672,352.5468 325.672,352.5468 324.79,353.4288 324.79,353.4288 324.79,355.1928 324.79,355.1928 325.672,356.0748 325.672,356.0748 327.436,356.0748 327.436,356.0748 329.2,355.1928 329.2,355.1928 330.068,354.3108 330.068,354.3108 330.964,352.5468 330.964,352.5468 332.728,347.2548 332.728,347.2548 335.388,337.5388 335.388,337.5388 333.596,337.5388 333.596,337.5388 330.964,338.4348 330.964,338.4348 329.2,340.1988 329.2,340.1988 329.2,341.9628 329.2,341.9628 330.068,342.8588"/>
    <polyline points="335.388,337.5388 332.728,345.4908 332.728,345.4908 331.86,348.1228 331.86,348.1228 330.068,352.5468 330.068,352.5468 329.2,354.3108 329.2,354.3108 327.436,356.0748"/>
    <polyline points="338.916,356.0748 337.124,354.3108 337.124,354.3108 336.256,348.1228 336.256,348.1228 335.388,346.3868 335.388,346.3868 333.596,345.4908 333.596,345.4908 337.124,344.5948 337.124,344.5948 338.916,343.7268 338.916,343.7268 339.784,342.8588 339.784,342.8588 342.444,338.4348 342.444,338.4348 339.784,341.9628 339.784,341.9628 338.02,343.7268 338.02,343.7268 336.256,344.5948 336.256,344.5948 333.596,345.4908 333.596,345.4908 336.256,346.3868 336.256,346.3868 337.124,348.1228 337.124,348.1228 338.02,354.3108 338.02,354.3108 338.916,356.0748 338.916,356.0748 339.784,356.0748 339.784,356.0748 341.548,355.1928 341.548,355.1928 343.312,353.4288 343.312,353.4288 343.312,355.1928 343.312,355.1928 345.076,356.0748 345.076,356.0748 345.972,356.0748 345.972,356.0748 347.708,355.1928 347.708,355.1928 349.5001,353.4288 349.5001,353.4288 351.2361,350.7828"/>
    <polyline points="352.1321,348.1228 350.3681,353.4288 350.3681,353.4288 350.3681,355.1928 350.3681,355.1928 352.1321,356.0748 352.1321,356.0748 353.8961,355.1928 353.8961,355.1928 354.7641,354.3108 354.7641,354.3108 356.5561,351.6508 356.5561,351.6508 358.3201,349.0188 358.3201,349.0188 360.0981,345.4908"/>
    <polyline points="363.6261,348.1228 364.4941,349.0188 364.4941,349.0188 364.4941,350.7828 364.4941,350.7828 363.6261,353.4288 363.6261,353.4288 363.6261,355.1928 363.6261,355.1928 365.3621,356.0748"/>
    <polyline points="369.7861,351.6508 370.6681,349.9148 370.6681,349.9148 371.5501,349.0188 371.5501,349.0188 373.3141,348.1228 373.3141,348.1228 374.1821,348.1228 374.1821,348.1228 375.0781,349.0188 375.0781,349.0188 375.0781,350.7828 375.0781,350.7828 374.1821,352.5468 374.1821,352.5468 373.3141,353.4288 373.3141,353.4288 371.5501,354.3108"/>
    <polyline points="372.4461,356.0748 370.6681,354.3108 370.6681,354.3108 370.6681,351.6508 370.6681,351.6508 371.5501,349.9148 371.5501,349.9148 373.3141,348.1228"/>
    <polyline points="379.5021,351.6508 377.7101,354.3108 377.7101,354.3108 375.0781,356.0748 375.0781,356.0748 372.4461,356.0748 372.4461,356.0748 370.6681,355.1928 370.6681,355.1928 369.7861,353.4288 369.7861,353.4288 369.7861,351.6508 369.7861,351.6508 368.0221,354.3108 368.0221,354.3108 367.1541,355.1928 367.1541,355.1928 365.3621,356.0748 365.3621,356.0748 364.4941,355.1928 364.4941,355.1928 364.4941,353.4288 364.4941,353.4288 365.3621,350.7828 365.3621,350.7828 365.3621,349.0188 365.3621,349.0188 363.6261,348.1228 363.6261,348.1228 362.7301,348.1228 362.7301,348.1228 360.9661,349.0188 360.9661,349.0188 359.2021,350.7828"/>
    <line x1="357.4381" x2="363.6261" y1="356.0748" y2="337.5388"/>
    <line x1="362.7301" x2="356.5561" y1="337.5388" y2="356.0748"/>
    <polyline points="352.1321,356.0748 351.2361,355.1928 351.2361,355.1928 351.2361,353.4288 351.2361,353.4288 353.0281,348.1228"/>
    <polyline points="345.972,348.1228 344.194,353.4288 344.194,353.4288 344.194,355.1928 344.194,355.1928 345.076,356.0748"/>
    <line x1="343.312" x2="345.076" y1="353.4288" y2="348.1228"/>
    <polygon points="347.008,341.0668 347.876,341.9628 347.876,341.9628 347.008,342.8588 347.008,342.8588 346.112,341.9628 346.112,341.9628"/>
    <polyline points="345.076,338.4348 344.18,339.3308 344.18,339.3308 345.076,340.1988 345.076,340.1988 345.972,339.3308 345.972,339.3308 345.972,338.4348 345.972,338.4348 345.076,337.5388 345.076,337.5388 344.18,337.5388 344.18,337.5388 342.444,338.4348"/>
    <polygon points="353.7281,341.0668 354.6241,341.9628 354.6241,341.9628 353.7281,342.8588 353.7281,342.8588 352.8601,341.9628 352.8601,341.9628"/>
    <polyline points="391.3195,348.1228 392.2155,344.5948 392.2155,344.5948 393.0835,340.1988"/>
    <polyline points="400.1395,348.1228 398.3755,349.9148 398.3755,349.9148 397.4935,351.6508 397.4935,351.6508 397.4935,354.3108 397.4935,354.3108 399.2715,356.0748"/>
    <line x1="403.6675" x2="405.4315" y1="353.4288" y2="348.1228"/>
    <polyline points="406.3275,348.1228 404.5355,353.4288 404.5355,353.4288 404.5355,355.1928 404.5355,355.1928 405.4315,356.0748"/>
    <polyline points="404.5355,350.7828 403.6675,349.0188 403.6675,349.0188 401.9035,348.1228 401.9035,348.1228 400.1395,348.1228 400.1395,348.1228 398.3755,349.0188 398.3755,349.0188 397.4935,349.9148 397.4935,349.9148 396.6115,351.6508"/>
    <polyline points="412.5015,356.0748 411.6195,355.1928 411.6195,355.1928 411.6195,353.4288 411.6195,353.4288 416.9255,337.5388"/>
    <polyline points="416.0295,337.5388 410.7375,353.4288 410.7375,353.4288 410.7375,355.1928 410.7375,355.1928 412.5015,356.0748 412.5015,356.0748 414.2655,355.1928 414.2655,355.1928 415.1335,354.3108 415.1335,354.3108 416.9255,351.6508 416.9255,351.6508 418.6895,349.0188 418.6895,349.0188 420.4675,345.4908"/>
    <polyline points="413.3975,345.4908 411.6195,349.0188 411.6195,349.0188 409.8555,351.6508 409.8555,351.6508 408.0635,354.3108 408.0635,354.3108 407.1955,355.1928 407.1955,355.1928 405.4315,356.0748 405.4315,356.0748 403.6675,355.1928 403.6675,355.1928 403.6675,353.4288 403.6675,353.4288 402.7995,355.1928 402.7995,355.1928 401.0075,356.0748 401.0075,356.0748 399.2715,356.0748 399.2715,356.0748 397.4935,355.1928 397.4935,355.1928 396.6115,353.4288 396.6115,353.4288 396.6115,351.6508 396.6115,351.6508 394.8475,354.3108 394.8475,354.3108 393.9515,355.1928 393.9515,355.1928 392.2155,356.0748 392.2155,356.0748 390.4375,356.0748 390.4375,356.0748 389.5555,355.1928 389.5555,355.1928 388.6735,363.1308 388.6735,363.1308 387.7915,365.7628 387.7915,365.7628 386.0275,366.6588 386.0275,366.6588 385.1455,365.7628 385.1455,365.7628 385.1455,364.0268 385.1455,364.0268 393.0835,340.1988 393.0835,340.1988 393.9515,338.4348 393.9515,338.4348 395.7435,337.5388 395.7435,337.5388 396.6115,338.4348 396.6115,338.4348 396.6115,340.1988 396.6115,340.1988 395.7435,342.8588 395.7435,342.8588 393.9515,345.4908 393.9515,345.4908 391.3195,348.1228 391.3195,348.1228 388.6735,356.0748 388.6735,356.0748 386.9095,360.4988 386.9095,360.4988 385.1455,364.0268"/>
    <polyline points="419.5715,356.0748 418.6895,355.1928 418.6895,355.1928 418.6895,353.4288 418.6895,353.4288 423.9955,337.5388"/>
    <polyline points="423.0995,337.5388 417.8075,353.4288 417.8075,353.4288 417.8075,355.1928 417.8075,355.1928 419.5715,356.0748 419.5715,356.0748 421.3355,355.1928 421.3355,355.1928 422.2035,354.3108 422.2035,354.3108 423.9955,351.6508 423.9955,351.6508 423.9955,353.4288 423.9955,353.4288 424.8775,355.1928 424.8775,355.1928 426.6555,356.0748 426.6555,356.0748 429.2875,356.0748 429.2875,356.0748 431.9195,354.3108 431.9195,354.3108 433.7115,351.6508 433.7115,351.6508 435.4755,349.0188 435.4755,349.0188 437.2535,348.1228 437.2535,348.1228 438.1215,349.0188 438.1215,349.0188 438.1215,350.7828 438.1215,350.7828 436.3575,356.0748"/>
    <polyline points="437.2535,356.0748 438.9895,350.7828 438.9895,350.7828 438.9895,349.0188 438.9895,349.0188 437.2535,348.1228"/>
    <polyline points="438.9895,350.7828 440.7815,349.0188 440.7815,349.0188 442.5175,348.1228 442.5175,348.1228 443.4135,348.1228 443.4135,348.1228 445.1775,349.0188 445.1775,349.0188 445.1775,350.7828 445.1775,350.7828 444.3095,353.4288 444.3095,353.4288 444.3095,355.1928 444.3095,355.1928 445.1775,356.0748 445.1775,356.0748 446.9415,355.1928 446.9415,355.1928 447.8375,354.3108 447.8375,354.3108 449.5735,351.6508"/>
    <polyline points="445.1775,356.0748 443.4135,355.1928 443.4135,355.1928 443.4135,353.4288 443.4135,353.4288 444.3095,350.7828 444.3095,350.7828 444.3095,349.0188 444.3095,349.0188 443.4135,348.1228"/>
    <polyline points="427.5235,348.1228 425.7595,349.9148 425.7595,349.9148 424.8775,351.6508 424.8775,351.6508 424.8775,354.3108 424.8775,354.3108 426.6555,356.0748"/>
    <polyline points="425.7595,354.3108 427.5235,353.4288 427.5235,353.4288 428.3915,352.5468 428.3915,352.5468 429.2875,350.7828 429.2875,350.7828 429.2875,349.0188 429.2875,349.0188 428.3915,348.1228 428.3915,348.1228 427.5235,348.1228 427.5235,348.1228 425.7595,349.0188 425.7595,349.0188 424.8775,349.9148 424.8775,349.9148 423.9955,351.6508"/>
    <polyline points="460.7684,348.1228 459.0044,353.4288 459.0044,353.4288 459.0044,355.1928 459.0044,355.1928 460.7684,356.0748 460.7684,356.0748 461.6644,356.0748 461.6644,356.0748 463.4004,355.1928 463.4004,355.1928 465.1924,353.4288 465.1924,353.4288 466.9284,350.7828"/>
    <polyline points="467.8245,348.1228 466.0604,353.4288 466.0604,353.4288 466.0604,355.1928 466.0604,355.1928 467.8245,356.0748 467.8245,356.0748 469.5885,355.1928 469.5885,355.1928 470.4565,354.3108 470.4565,354.3108 472.2485,351.6508 472.2345,351.6508 473.9985,349.0188 473.9985,349.0188 475.7765,348.1228 475.7765,348.1228 476.6445,349.0188 476.6445,349.0188 476.6445,350.7828 476.6445,350.7828 474.8805,356.0748"/>
    <line x1="475.7765" x2="477.5125" y1="356.0748" y2="350.7828"/>
    <polyline points="475.7765,348.1228 477.5125,349.0188 477.5125,349.0188 477.5125,350.7828 477.5125,350.7828 479.3045,349.0188 479.3045,349.0188 481.0405,348.1228 481.0405,348.1228 481.9365,348.1228 481.9365,348.1228 482.8325,349.0188 482.8325,349.0188 482.8325,350.7828 482.8325,350.7828 481.0405,356.0748"/>
    <polyline points="481.9365,356.0748 483.7005,350.7828 483.7005,350.7828 483.7005,349.0188 483.7005,349.0188 481.9365,348.1228"/>
    <polyline points="483.7005,350.7828 485.4645,349.0188 485.4645,349.0188 487.2285,348.1228 487.2285,348.1228 488.0965,348.1228 488.0965,348.1228 489.8885,349.0188 489.8885,349.0188 489.8885,350.7828 489.8885,350.7828 488.9925,353.4288 488.9925,353.4288 488.9925,355.1928 488.9925,355.1928 489.8885,356.0748 489.8885,356.0748 491.6245,355.1928 491.6245,355.1928 492.5205,354.3108 492.5205,354.3108 494.2845,351.6508"/>
    <polyline points="489.8885,356.0748 488.0965,355.1928 488.0965,355.1928 488.0965,353.4288 488.0965,353.4288 488.9925,350.7828 488.9925,350.7828 488.9925,349.0188 488.9925,349.0188 488.0965,348.1228"/>
    <polyline points="468.7205,348.1228 466.9284,353.4288 466.9284,353.4288 466.9284,355.1928 466.9284,355.1928 467.8245,356.0748"/>
    <polyline points="460.7684,356.0748 459.8864,355.1928 459.8864,355.1928 459.8864,353.4288 459.8864,353.4288 461.6644,348.1228"/>
  </g>
</svg>
