<?xml version="1.0" encoding="UTF-8" standalone="no"?>
<!-- Created with Inkscape (http://www.inkscape.org/) -->

<svg
   width="148mm"
   height="105mm"
   viewBox="0 0 148 105"
   version="1.1"
   id="svg6769"
   sodipodi:docname="luto.svg"
   inkscape:version="1.1.1 (3bf5ae0d25, 2021-09-20, custom)"
   xmlns:inkscape="http://www.inkscape.org/namespaces/inkscape"
   xmlns:sodipodi="http://sodipodi.sourceforge.net/DTD/sodipodi-0.dtd"
   xmlns="http://www.w3.org/2000/svg"
   xmlns:svg="http://www.w3.org/2000/svg">
  <sodipodi:namedview
     id="namedview6771"
     pagecolor="#ffffff"
     bordercolor="#666666"
     borderopacity="1.0"
     inkscape:pageshadow="2"
     inkscape:pageopacity="0.0"
     inkscape:pagecheckerboard="0"
     inkscape:document-units="mm"
     showgrid="false"
     inkscape:zoom="6.4817794"
     inkscape:cx="257.56816"
     inkscape:cy="160.29549"
     inkscape:current-layer="layer2" />
  <defs
     id="defs6766" />
  <g
     inkscape:label="Layer 1"
     inkscape:groupmode="layer"
     id="layer1" />
  <g
     inkscape:groupmode="layer"
     id="layer2"
     inkscape:label="Layer 2">
    <path
       style="fill:none;fill-opacity:1;stroke:#00000f;stroke-width:0.400001;stroke-miterlimit:4;stroke-dasharray:none;stroke-opacity:0.976471"
       d="m 79.724633,89.449779 c -1.353529,-0.216167 -2.655774,-0.584403 -3.740873,-1.113839 -0.321469,-0.168487 -0.871417,-0.44663 -1.222108,-0.6181 -1.02258,-0.689487 -2.098116,-1.198678 -3.028702,-1.94781 -0.438363,-0.35642 -0.964402,-0.758309 -1.168972,-0.893084 -0.20457,-0.134774 -0.749266,-0.561106 -1.210435,-0.947401 -0.461169,-0.386295 -0.923445,-0.702356 -1.027278,-0.702356 -0.936958,0.878017 -1.948414,1.897695 -3.038052,2.633164 -0.395616,0.262534 -1.16346,0.617858 -1.82198,0.843133 -3.545007,0.578758 -6.493931,0.67441 -9.21473,-1.091143 -0.671238,-0.43749 -1.770025,-1.495894 -2.674461,-2.574484 -0.732944,-0.874074 -1.619169,-2.772826 -1.704326,-3.959265 -0.08515,-1.186439 -0.0596,-2.646099 0.128101,-3.61218 0.25584,-2.134247 2.004874,-3.734354 3.5645,-4.734258 1.558959,-0.900178 3.02709,-0.909904 4.724456,-1.113648 0.851738,-0.10366 2.729116,0.0011 3.400645,0.18974 0.410278,0.115254 0.666961,0.0561 0.734408,-0.169251 0.09169,-0.306333 0.109382,-2.622151 0.02113,-2.765003 -1.299257,0.101253 -2.431133,0.483381 -3.285193,0.516953 -1.455163,0.05594 -1.71999,0.03735 -2.677585,-0.188018 -0.752622,-0.177129 -1.171855,-0.33764 -1.436791,-0.5501 -0.205749,-0.164998 -0.569396,-0.399673 -0.808104,-0.521502 -0.238709,-0.121828 -0.69108,-0.523093 -1.005274,-0.891699 -0.314191,-0.368607 -0.670096,-0.766534 -0.790898,-0.88428 -0.317739,-0.309698 -0.942326,-1.685572 -1.157601,-2.550027 -0.283384,-1.137945 -0.348234,-3.605714 -0.124374,-4.733038 0.308216,-1.552162 1.094779,-2.987563 2.230811,-4.071016 1.207251,-1.151376 2.154773,-1.612184 3.407847,-1.657337 0.407381,-0.01468 0.779903,-0.05093 0.827827,-0.08056 0.139495,-0.08624 1.567717,0.174686 2.18616,0.399404 1.211704,0.440287 1.540547,0.715089 2.106413,1.760256 0.529289,0.977608 0.881657,1.02828 0.885438,0.127334 9.55e-4,-0.221446 0.136559,-0.644486 0.316099,-0.985932 0.172961,-0.328931 0.346631,-0.776312 0.385934,-0.994181 0.0903,-0.500591 0.15986,-0.63295 0.625745,-1.190798 0.27187,-0.325536 0.348344,-0.490418 0.27081,-0.583875 -0.06779,-0.08173 -0.586885,-0.155996 -1.393653,-0.199393 -0.707085,-0.03804 -1.569945,-0.142861 -1.917466,-0.232948 -0.764552,-0.198195 -2.594946,-1.105622 -3.355706,-1.663613 -0.630757,-0.462637 -0.836499,-0.501846 -0.938947,-0.178936 -0.08077,0.254578 -0.962687,1.478573 -1.549079,2.149933 -0.211556,0.242212 -0.417011,0.544845 -0.456565,0.672517 -0.0676,0.218191 -1.659223,1.506467 -2.497667,2.021631 -0.686996,0.422111 -1.380597,0.776141 -1.519445,0.775557 -0.164684,-6.37e-4 -1.785925,0.633826 -1.960295,0.767213 -0.06798,0.052 -0.157164,0.343308 -0.198186,0.647341 -0.108269,0.802439 -0.569886,2.169878 -0.844044,2.500311 -0.130077,0.156767 -0.265729,0.404633 -0.301465,0.550812 -0.0865,0.353817 -0.966151,1.552985 -1.251109,1.705551 -0.124282,0.06654 -0.572338,0.463502 -0.995669,0.882132 -1.191332,1.1781 -2.221508,1.692451 -5.212621,2.602579 -2.415823,0.735079 -4.872136,0.659824 -7.17324,-0.219768 C 32.516597,62.453616 32.22842,62.316105 32.197672,62.270916 30.641099,61.494313 29.105607,60.201215 28.152337,58.82859 27.954168,58.536232 27.6554,58.134514 27.488411,57.935882 27.183798,57.57355 26.882936,56.963899 26.617342,56.170791 26.04597,54.649395 25.82042,52.790659 25.938612,51.439906 c 0.195326,-2.17733 0.34844,-2.703397 1.191295,-4.093011 0.248517,-0.409733 0.866254,-1.15464 1.451392,-1.750186 0.606958,-0.617752 1.888088,-1.343029 2.879613,-1.630214 0.673575,-0.195097 0.665063,-0.421578 -0.02591,-0.689456 -0.309616,-0.120036 -0.686932,-0.245133 -0.838477,-0.277997 -2.306345,-1.35755 -3.525757,-4.047657 -3.709191,-6.682959 -0.17096,-4.269285 2.517313,-7.036554 3.337727,-7.970891 0.820414,-0.934337 2.157662,-2.278942 6.778204,-3.870491 4.493616,-1.53368 10.037699,-1.019782 14.187641,2.154888 1.242451,0.97056 2.959116,2.934276 3.64932,4.174509 0.324248,0.582643 0.965343,1.499649 1.048431,1.499649 1.04389,-0.581 1.562626,-1.365138 2.709824,-1.916651 2.042014,-0.957572 3.029298,-1.166548 4.57972,-0.96938 0.759341,0.09657 0.900834,0.0857 1.324495,-0.101665 0.260884,-0.115385 0.562476,-0.289585 0.670209,-0.387119 0.296502,-0.268437 2.0079,-0.321697 2.721194,-0.08468 0.297127,0.09873 0.637945,0.14848 0.757376,0.110568 0.124216,-0.03944 0.353058,-0.338288 0.534733,-0.698327 0.307185,-0.60877 0.76892,-1.023738 1.324637,-1.190472 0.116893,-0.03508 0.41316,-0.13756 0.65836,-0.22775 0.362287,-0.133256 0.561409,-0.142792 1.062702,-0.05089 0.995408,0.182475 1.696777,0.384951 1.982742,0.572398 0.332415,0.217891 0.538194,0.12545 1.291205,-0.580037 0.561949,-0.532785 1.264365,-0.760783 1.937943,-1.099268 0.272666,-0.15866 0.581868,-0.20377 1.487783,-0.217056 0.628969,-0.0092 1.391734,0.233961 1.542096,0.06778 l 0.398512,0.08455 -0.0038,-0.403489 c -0.0042,-0.455253 -0.168039,-1.156513 -0.578365,-2.476571 -0.63933,-2.056786 -0.68768,-2.281602 -0.690557,-3.210935 -0.0014,-0.450405 0.0403,-0.928807 0.09266,-1.063122 0.05236,-0.134311 0.156463,-0.449961 0.231334,-0.701442 0.07487,-0.251481 0.211364,-0.543703 0.303311,-0.649382 1.084071,-1.245966 1.608732,-1.552389 2.823932,-1.649291 0.987175,-0.07872 1.763331,0.08884 2.23586,0.482662 1.377302,1.147913 1.775365,1.695803 2.009717,2.766159 0.195323,0.892107 0.700451,3.122988 0.821171,3.626682 0.05427,0.226415 0.160132,0.398669 0.245021,0.398669 0.08221,0 0.369146,-0.269781 0.63764,-0.599515 0.268495,-0.329734 0.709983,-0.746497 0.981089,-0.926141 0.442602,-0.293283 0.593652,-0.33103 1.479745,-0.3698 0.542757,-0.02374 1.105808,-0.0133 1.251226,0.02321 0.145418,0.0365 0.576138,0.330959 0.95716,0.654331 0.673408,0.57151 1.078395,1.220098 1.641929,2.629535 0.251731,0.629592 0.679869,0.435667 1.005385,-0.455377 0.38062,-1.041938 1.74593,-2.441233 3.099672,-3.176828 1.847222,-1.003738 3.142402,-1.251076 4.779632,-0.912763 1.28723,0.265985 2.24585,0.765865 2.97066,1.549062 0.94236,1.018258 1.34817,1.966401 1.67916,3.923153 0.48688,1.202005 2.08783,1.528434 3.28647,3.051453 0.23887,0.309737 0.504,0.56316 0.58918,0.56316 0.0852,0 0.43277,-0.241798 0.77239,-0.537331 0.84301,-0.733501 1.46185,-0.947446 3.09462,-1.069881 1.91947,0.107693 3.90013,0.945267 4.56321,2.58215 0.1205,0.311623 0.28763,0.715066 0.37132,0.896541 0.46349,1.004956 0.70294,3.265965 0.48057,4.537798 -0.26236,1.886041 -0.64626,2.868931 -1.84433,4.099836 -0.7421,0.683184 -1.88763,1.145862 -2.88721,1.185206 -0.71189,0 -2.20503,-1.080875 -2.33747,-1.692061 -0.1147,-0.768464 -0.0413,-1.609474 -0.36463,-2.241483 -0.11695,-0.0877 -0.43922,-0.326909 -0.71618,-0.531559 -0.37449,-0.267173 -0.71078,-0.622425 -1.09386,-0.850496 -0.6093,1.17611 -1.45135,2.016239 -2.45986,2.781725 -0.61942,0.585802 -1.79617,1.183828 -3.01969,1.534618 -1.41478,0.405627 -2.08752,0.486169 -3.56005,0.426215 -1.16972,-0.01683 -2.07055,-0.300553 -3.01946,-0.702702 -1.743384,2.524759 -5.149273,3.752648 -7.738127,2.213379 -0.276377,-0.17545 -0.545927,-0.302713 -0.598997,-0.282804 -0.708228,0.771079 -1.271885,1.844465 -2.023095,2.195969 -1.531754,0.682353 -2.21004,0.555911 -3.825067,0.498033 -0.426388,0.570191 -1.438471,0.856027 -2.31565,1.078547 -1.557645,0.271707 -2.794997,0.05278 -4.094065,-0.681985 -0.284006,-0.177848 -0.293547,-0.1752 -0.66419,0.184181 -0.471706,1.165607 -1.240124,1.853723 -2.226553,2.2434 -1.112021,0.544313 -2.472211,-0.227078 -3.402538,0.473145 -0.738547,0.446864 -1.631322,0.7779 -2.345271,0.842208 -0.467589,0.04021 -0.942788,0.100105 -1.056001,0.133096 -0.200801,0.05852 -0.200953,0.06356 -0.0064,0.205984 0.109772,0.0803 0.281373,0.145997 0.381337,0.145997 0.09997,0 0.468571,0.242646 0.819125,0.539216 0.700311,0.592468 1.161144,1.342992 1.459573,2.377097 0.233138,0.807857 0.278259,2.780923 0.0804,3.515562 -0.07874,0.292359 -0.197738,0.851802 -0.264434,1.243212 -0.142683,0.837312 -0.0717,0.9827 0.527698,1.080967 0.279063,0.04575 0.70647,0.342477 1.074654,0.67207 l 0.678148,0.607067 0.192756,-0.238137 c 0.106029,-0.130985 0.225267,-0.463319 0.265001,-0.738539 0.06301,-0.436524 0.155334,-0.578156 0.723149,-1.109546 0.357997,-0.335031 0.890012,-0.715277 1.182255,-0.844991 0.382342,-0.169707 0.687809,-0.427731 1.089269,-0.920084 0.306855,-0.37633 0.557919,-0.767243 0.557919,-0.868694 0,-0.101443 -0.124268,-0.776748 -0.276148,-1.500661 -0.359852,-1.715168 -0.31584,-2.871142 0.134043,-3.520577 0.393675,-0.568297 1.043585,-1.118908 1.669479,-1.414401 0.450179,-0.212535 0.643827,-0.239018 1.482682,-0.202765 0.897034,0.03878 1.002592,0.06782 1.501326,0.41327 0.964225,0.667867 1.456913,1.514618 1.859405,3.195641 0.279773,1.168484 0.473054,1.462115 1.025618,1.558128 0.227951,0.0396 0.537664,0.119495 0.688254,0.177528 0.366445,0.141215 1.205574,1.026327 1.504168,1.586595 0.13244,0.248504 0.264794,0.451758 0.294118,0.451678 0.02932,-8.1e-5 0.438228,-0.373126 0.908674,-0.828989 0.87617,-0.849006 1.816242,-1.44543 2.758906,-1.750376 0.751253,-0.243028 2.40683,-0.265141 3.057899,-0.04084 0.279666,0.09635 0.586416,0.17518 0.681636,0.17518 0.34742,0 1.93868,0.998515 2.739392,1.718961 0.45197,0.406661 0.845802,0.715329 0.875192,0.685928 0.0593,-0.05935 -0.134932,-1.004712 -0.308452,-1.501236 -0.0613,-0.175415 -0.17802,-0.629899 -0.25938,-1.009965 -0.18096,-0.845275 -0.653962,-2.377349 -0.850042,-2.753265 -0.0793,-0.152145 -0.14459,-0.325046 -0.14495,-0.384226 -3.2e-4,-0.05918 -0.12733,-0.489745 -0.28213,-0.956809 -0.2441,-0.736438 -0.28082,-1.020384 -0.27652,-2.138244 0.004,-1.080716 0.0419,-1.372795 0.23358,-1.807305 0.28424,-0.644327 0.84474,-1.229082 1.571222,-1.639246 0.510112,-0.288002 0.647102,-0.315333 1.619852,-0.323195 0.96431,-0.0078 1.11795,0.01928 1.66104,0.292545 1.22645,0.617147 2.23349,2.22774 2.48157,3.968898 0.0709,0.497008 0.22059,1.405975 0.33285,2.019927 0.11221,0.613953 0.20386,1.289148 0.20358,1.500436 -6.3e-4,0.489472 0.13118,1.129685 0.53399,2.592577 0.17708,0.643187 0.38633,1.432554 0.46499,1.754148 0.0787,0.321594 0.24246,0.96744 0.36396,1.435212 0.32185,1.239076 0.48058,2.533201 0.40714,3.319813 -0.0714,0.764142 0.0607,1.156679 0.48225,1.434115 0.13448,0.0885 0.42225,0.419696 0.63946,0.735966 0.74284,1.081592 0.8731,2.731335 0.2981,3.775095 -0.53092,0.963739 -0.85461,1.274101 -1.89572,1.817691 -0.37675,0.196711 -0.62961,0.239548 -1.41394,0.239548 -0.87099,0 -1.01317,-0.03039 -1.61348,-0.344753 -0.38041,-0.19921 -0.95663,-0.64685 -1.36494,-1.060339 -0.73858,-0.747951 -0.82197,-0.763849 -0.99433,-0.189589 -0.18547,0.617865 -0.52735,1.104232 -1.32416,1.883703 -1.131302,1.106705 -1.804894,1.463645 -2.424884,1.738554 -0.84377,0.333549 -1.55182,0.410733 -2.449744,0.410796 -1.255447,8.7e-5 -1.633116,-0.03781 -2.146839,-0.215662 -0.746547,-0.258458 -0.779266,-0.245884 -1.800932,0.692064 -1.141332,1.118334 -2.867774,1.442301 -3.984396,1.443991 -0.680144,0 -1.458037,-0.05577 -1.72865,-0.123948 -0.488426,-0.12304 -0.494405,-0.121261 -0.817518,0.242103 -0.17902,0.201323 -0.457001,0.423513 -0.617735,0.493754 -0.329507,0.143994 -0.38686,0.40917 -0.106263,0.491333 0.102286,0.02995 0.625444,0.08697 1.162575,0.12669 0.869307,0.139176 1.475719,0.404364 2.186376,0.766396 0.278422,0.141169 0.881058,0.638259 1.339194,1.104643 0.672962,0.685083 0.936298,1.055816 1.370872,1.929968 0.756601,1.521913 0.931301,2.325517 0.904237,4.159402 -0.01304,2.21312 -0.74186,4.274981 -2.18592,5.799645 -3.858512,3.146478 -5.449133,3.749131 -9.617669,3.352167 z m 4.107199,-1.556772 c 1.370916,-0.346566 2.54549,-1.057694 3.84335,-2.3269 1.177132,-1.151139 1.622884,-1.827515 2.064334,-3.132373 0.259952,-0.768378 0.390886,-2.507446 0.256428,-3.405869 -0.221698,-1.481344 -1.026508,-3.020473 -2.09599,-4.008399 -0.918778,-0.848715 -1.568956,-1.159349 -2.658968,-1.270361 -1.110974,-0.113145 -1.81311,0.01092 -2.488986,0.439679 -0.661738,0.419828 -0.862654,0.758807 -0.862654,1.455438 0,0.529492 0.03258,0.60341 0.449716,1.020435 0.444807,0.444685 0.458006,0.449591 1.209291,0.449591 0.480154,0 0.774697,0.0452 0.800688,0.122895 0.02262,0.06759 -0.10291,0.28699 -0.278929,0.487547 -1.096515,1.249356 -3.041194,1.755263 -5.057653,1.315751 -1.41194,-0.307751 -3.31166,-1.067635 -4.888428,-1.955365 -1.198771,-0.674914 -3.784607,-2.388224 -4.037972,-2.675458 -0.16856,-0.191094 -0.218057,-0.418905 -0.240487,-1.106857 -0.119079,-3.652378 -0.399671,-8.040038 -0.687681,-10.753256 -0.297303,-2.800766 -0.126007,-3.573707 1.086994,-4.904905 0.812368,-0.891525 1.264642,-1.857717 1.494041,-3.191712 0.175363,-1.019777 0.08087,-2.474609 -0.210584,-3.242269 -0.250974,-0.661033 -0.930199,-1.379439 -1.548594,-1.637923 -0.532872,-0.222736 -1.725504,-0.304611 -2.285065,-0.15687 -0.791939,0.209095 -1.865372,0.906747 -2.245433,1.459364 -0.523062,0.760544 -0.992912,1.799726 -1.288772,2.850418 -0.316291,1.123249 -0.390203,1.599171 -0.502846,3.237784 -0.08073,1.174425 -0.09516,1.228079 -0.404389,1.504488 -0.603907,0.539804 -2.219184,0.837319 -3.222226,0.593497 -0.732576,-0.178075 -1.453363,-0.749759 -1.839001,-1.458581 -0.272567,-0.500994 -0.365229,-1.203708 -0.174292,-1.32176 0.102575,-0.06342 0.169639,-0.002 0.544577,0.498479 0.253276,0.338114 0.929557,0.554911 1.435063,0.46004 0.215287,-0.0404 0.489103,-0.223972 0.726969,-0.487367 0.339778,-0.376238 0.381598,-0.486159 0.381598,-1.002969 0,-0.323626 -0.09577,-0.836493 -0.216466,-1.159206 -0.542385,-1.450227 -2.339111,-2.238365 -4.158885,-1.824303 -1.152447,0.262222 -1.865508,0.677771 -2.701027,1.574084 -0.666763,0.715274 -0.770688,0.889916 -1.127188,1.894172 -0.679906,1.915292 -0.721798,2.626102 -0.284478,4.827171 0.551126,2.773875 2.10196,4.309787 4.874858,4.827958 1.22732,0.22935 3.098803,-0.04939 4.657406,-0.693692 1.250478,-0.516923 1.452831,-0.552405 1.598408,-0.280287 0.257441,0.481223 0.221557,5.022064 -0.05044,6.382578 -0.09213,0.460812 -0.391885,0.522942 -1.232348,0.255425 -1.782473,-0.567357 -3.514037,-0.67675 -5.562101,-0.351389 -2.254839,0.358208 -3.200731,0.796675 -4.289435,1.988359 -1.042355,1.14095 -1.493403,2.413821 -1.49613,4.222109 -0.0021,1.39895 0.226584,2.341526 0.911533,3.756964 0.537571,1.110881 0.640924,1.248983 1.663204,2.222384 0.897999,0.855061 1.249138,1.111841 1.993311,1.457659 1.262437,0.586659 2.110109,0.817399 3.386676,0.921877 3.279534,0.2684 6.058961,-0.890534 7.841566,-3.269692 0.842573,-1.124541 1.106429,-1.400441 1.339309,-1.400441 0.11024,0 0.591467,0.371307 1.069385,0.825127 0.477921,0.45382 1.174498,1.063785 1.547951,1.355477 0.373454,0.291693 0.85167,0.677663 1.062703,0.85771 2.338402,1.691924 5.092572,3.442326 7.92888,3.871434 1.309962,0.238468 2.682827,0.190698 3.969209,-0.11769 z M 57.319005,76.031797 c -0.07634,-0.304301 0.112047,-0.79462 0.366361,-0.953503 2.024459,-0.663375 6.619925,0.05189 2.767234,1.874498 -1.584267,0.535254 -2.741538,0.399299 -3.133595,-0.920995 z M 68.585079,54.474466 c 0,-0.244253 0.265653,-1.674619 0.461692,-1.891325 0.255515,-0.28245 0.631862,-0.240961 0.692494,0.07635 0.07255,0.379713 -0.266413,1.292162 -0.615414,1.656582 -0.335785,0.350621 -0.538772,0.40094 -0.538772,0.158401 z m 12.225295,23.266286 c -1.36171,-1.740627 -0.654722,-3.438061 0.999914,-4.560515 0.341965,-1.005269 -1.108526,-1.810082 -2.684545,-0.318196 -0.5118,0.671268 -2.118362,1.171669 -3.423982,1.066479 -1.562612,-0.125898 -2.193461,-0.434005 -3.374518,-1.648131 -0.4561,-0.468871 -0.878712,-0.821927 -0.939135,-0.784567 -0.108179,0.06688 -0.04456,1.749342 0.07823,2.069182 0.898182,0.569618 1.79523,1.364897 2.695013,1.856934 1.075193,0.533853 2.130017,1.259571 3.244479,1.54709 1.12251,0.28429 2.335974,0.833268 3.404546,0.771724 z m -3.611306,-5.518233 c 0.626381,-0.626628 1.454659,-0.995788 1.857785,-1.752425 0.428743,-0.80472 0.58799,-0.880184 0.931318,-0.441319 0.593976,0.759259 1.748616,1.12485 2.764421,0.875292 0.674137,-0.165619 1.509655,-0.74688 1.835507,-1.276946 0.144166,-0.234513 0.335452,-0.442343 0.425081,-0.461845 0.08963,-0.0195 0.54378,0.0796 1.009223,0.220247 0.725293,0.219153 1.00632,0.249344 1.965999,0.211208 0.988125,-0.03927 1.197733,-0.08318 1.7833,-0.373646 0.880648,-0.436833 1.417303,-0.875047 2.001094,-1.634029 0.54062,-0.702849 0.741709,-0.764019 1.404418,-0.427212 0.806431,0.409854 1.635044,0.56595 2.797921,0.52708 1.056791,-0.03532 1.143511,-0.05672 2.058371,-0.507831 0.5253,-0.259027 1.181582,-0.682897 1.458412,-0.941939 1.616702,-1.512825 2.102272,-4.609399 1.178722,-7.516876 -0.48124,-1.515005 -1.078672,-2.46952 -2.351924,-3.757591 -1.01546,-1.027285 -1.83828,-1.55726 -2.759921,-1.777658 -1.227951,-0.293652 -2.638326,-0.128494 -3.528224,0.413157 -1.038077,0.631848 -2.096802,2.019219 -2.38245,3.122005 -0.483519,1.866695 -0.5143,2.740499 -0.176464,5.009534 0.06363,0.427294 0.08594,0.895408 0.0496,1.040255 -0.0868,0.345959 -0.608769,0.608963 -1.229582,0.619544 -0.414254,0.0071 -0.553354,-0.04487 -0.829992,-0.309897 -0.695649,-0.666439 -1.066905,-1.751646 -1.764427,-5.157533 -0.223332,-1.090502 -0.139686,-1.279982 0.75843,-1.718059 0.908258,-0.443024 1.083383,-0.740891 0.904841,-1.539021 -0.199555,-0.892053 -0.914226,-1.323797 -1.912116,-1.155138 -0.622068,0.10513 -0.842142,-0.147264 -1.020481,-1.170399 -0.156261,-0.896462 -0.660872,-2.570712 -0.934126,-3.099333 -0.08944,-0.173006 -0.347828,-0.442969 -0.574217,-0.599921 -0.335757,-0.232771 -0.530086,-0.285364 -1.054384,-0.285364 -1.058216,0 -1.762786,0.648316 -1.900187,1.748477 -0.08146,0.652249 -0.05727,0.796448 0.443331,2.641458 0.203396,0.749648 0.338817,1.45521 0.301735,1.572089 -0.03701,0.116624 -0.256502,0.331547 -0.48778,0.477604 -0.774878,0.489352 -1.0009,1.240318 -0.601809,1.999529 0.09766,0.18579 0.527644,0.648404 -0.304584,0.107147 -0.225339,-0.05105 -0.680878,-0.0932 -1.01231,-0.09366 -0.726092,-0.0011 -1.01284,0.217482 -1.367351,1.041886 -0.190439,0.442861 -0.224527,0.681884 -0.184239,1.29186 0.04822,0.729967 0.143647,1.097663 0.911678,3.512573 0.422157,1.327381 0.569005,2.871662 0.317471,3.33858 -0.23629,0.438619 -0.69185,0.701276 -1.216318,0.701276 -0.413537,0 -0.526147,-0.05192 -0.828478,-0.381945 -0.462474,-0.504844 -0.745299,-1.294016 -0.949993,-2.65078 -0.490633,-3.25207 -0.759124,-4.078586 -1.574744,-4.84765 -0.86877,-0.819184 -2.253278,-0.725324 -2.791095,0.189214 -0.437228,0.743494 -0.177236,2.44522 1.155367,7.562239 0.149038,0.57228 0.371747,1.576928 0.49491,2.232552 0.179415,0.955059 0.307222,1.334055 0.642876,1.906377 0.461861,0.787516 0.814495,1.102738 1.689349,1.510113 0.810225,0.377283 1.97932,0.623679 2.596037,0.0067 z m 4.318435,-8.583312 c -0.106096,-0.248503 -0.251149,-0.834547 -0.322332,-1.30232 -0.299163,-1.96593 -0.548339,-3.274787 -0.703739,-3.69658 -0.320104,-0.868826 -0.398219,-1.140944 -0.343298,-1.195887 0.09853,-0.09858 1.139969,0.173197 1.364882,0.356176 0.163366,0.132905 0.268884,0.45794 0.420005,1.293774 0.522061,2.887456 0.683652,3.903946 0.66553,4.186525 -0.02893,0.451171 -0.303181,0.81014 -0.618938,0.81014 -0.215601,0 -0.307613,-0.08995 -0.46211,-0.451828 z M 94.717604,62.00405 c -0.46224,0 -0.931478,-0.983759 -1.268326,-1.912131 -0.279829,-0.771239 -0.343934,-2.172712 -0.12879,-2.815567 0.170223,-0.508601 0.598016,-1.052405 0.827888,-1.052405 1.546417,0.0074 2.5014,3.246234 2.12905,4.906895 -0.22933,0.956314 -0.683303,0.873208 -1.559811,0.873208 z m 11.978266,3.141171 c 1.14583,-0.519676 1.64145,-1.557098 1.32564,-2.774859 -0.23983,-0.92483 -1.36657,-1.787623 -2.33452,-1.787623 -1.97734,0 -3.00814,2.565666 -1.59769,3.976673 0.77647,0.776766 1.71864,0.988515 2.60657,0.585809 z M 43.949798,59.367185 c 1.759146,-1.401703 2.86149,-3.221989 3.184578,-5.258651 0.169922,-1.071145 0.442436,-1.396658 1.439684,-1.719684 1.927031,-0.624199 3.714427,-1.633558 4.817684,-2.720589 1.272733,-1.254013 2.024283,-2.561832 2.506034,-4.360912 0.254064,-0.948791 0.431537,-1.277805 0.624804,-1.158313 0.06863,0.04242 0.26221,0.349518 0.430193,0.68242 0.316836,0.627897 0.990859,1.331142 1.815224,1.89393 1.1478,0.783594 3.424173,1.519332 4.713686,1.523494 0.650619,0.0021 1.708783,-0.26718 2.193878,-0.558299 0.841681,-0.505114 1.664292,-1.445112 1.928721,-2.203954 0.171388,-0.49184 0.382251,-0.476583 0.917317,0.06638 0.623623,0.632821 1.479407,1.0234 2.254931,1.029148 0.838709,0.0062 1.324934,-1.33855 2.289793,-0.793762 0.539222,-0.463573 0.809333,-0.543123 1.465868,-0.453646 1.780631,0.242674 2.489076,-5.8e-5 3.231604,-1.107557 0.427194,-0.63717 0.451649,-0.715095 0.451649,-1.439177 0,-0.818184 -0.366551,-2.274493 -1.113635,-4.424471 -0.773126,-2.224928 -0.905499,-2.761787 -0.905499,-3.672386 0,-0.766515 0.0397,-0.944294 0.345377,-1.546985 0.363188,-0.716057 0.865919,-1.15935 1.314797,-1.15935 0.49398,0 0.606828,0.506365 0.888462,3.986701 0.319448,3.947628 0.431859,4.570331 1.030907,5.71077 0.7321,1.393738 1.972478,2.091042 3.474814,1.953438 0.857748,-0.07857 1.999802,-0.510532 2.824858,-1.068471 0.432418,-0.29242 0.649366,-0.376661 0.85016,-0.330117 0.862223,0.154606 1.867853,0.212684 2.482727,-0.0858 0.640261,-0.313373 1.016879,-0.778248 1.284531,-1.585547 0.260002,-0.784222 0.204941,-1.476157 -0.259843,-3.265379 -0.235431,-0.90631 -0.524871,-2.024231 -0.6432,-2.484269 -0.340196,-1.322604 -0.220713,-1.689678 0.491756,-1.51079 0.466298,0.117086 0.937342,1.270748 1.701918,4.168303 0.37,1.40221 1.14405,2.438288 2.212228,2.961103 0.561262,0.27471 0.674577,0.292527 1.531811,0.240852 1.317041,-0.07939 2.007851,-0.367764 2.829231,-1.181029 0.50834,-0.503329 0.712782,-0.801946 0.893552,-1.305225 0.35787,-0.996353 0.3754,-1.000817 1.634272,-0.416294 0.59418,0.275887 1.34657,0.545248 1.672,0.598581 0.88707,0.145379 2.35266,0.118046 3.11156,-0.05802 2.92859,-0.679451 4.48428,-1.79897 5.54447,-3.989947 0.43231,-0.893406 0.43709,-0.916308 0.42195,-2.019927 -0.0237,-1.725831 -0.30578,-2.601969 -1.19105,-3.699505 -0.51052,-0.632926 -0.71766,-0.578345 -1.14177,0.300859 -0.35721,0.740528 -1.26975,1.824788 -1.74094,2.068543 -0.48444,0.25061 -2.06423,0.425984 -2.54345,0.28235 -0.69135,-0.207217 -0.65498,-0.401323 0.23198,-1.237956 1.34279,-1.266612 1.84328,-2.174807 1.99107,-3.613063 0.18142,-1.765707 -0.34835,-3.273071 -1.59196,-4.52956 -0.58798,-0.594083 -0.80685,-0.738735 -1.43747,-0.950049 -1.22645,-0.41096 -2.43207,-0.29614 -3.92762,0.374048 -0.34829,0.156075 -0.785942,0.41152 -0.972572,0.567655 -0.18663,0.156134 -0.532212,0.439469 -0.767982,0.629633 -0.80943,0.6529 -1.7359,2.29237 -2.15121,3.806762 -0.26571,0.9689 -0.31621,3.382378 -0.10049,4.802497 0.0732,0.481415 0.10294,0.994969 0.0662,1.141234 -0.13084,0.52149 -1.036952,0.456146 -1.793192,-0.12931 -0.207825,-0.160896 -0.65156,-0.483899 -0.986069,-0.717785 -1.310018,-0.915939 -1.43628,-1.126667 -1.00427,-1.676095 1.00476,-1.277856 1.498273,-2.96457 1.289001,-4.405588 -0.141491,-0.974247 -0.693952,-2.193588 -1.242534,-2.742385 -2.04119,-1.214859 -3.029751,0.442321 -3.180848,0.596798 l 0.03107,2.034483 0.03106,2.034481 -0.318728,0.647686 c -0.35585,0.723118 -0.771176,1.175152 -0.999056,1.087673 -0.08286,-0.0318 -0.228476,-0.360782 -0.323612,-0.731057 -0.224832,-0.87506 -0.730476,-3.086928 -0.96807,-4.23468 -0.102893,-0.497009 -0.252999,-1.166775 -0.333566,-1.488369 -0.08057,-0.321593 -0.312825,-1.343894 -0.51613,-2.271779 -0.280969,-1.282352 -0.445912,-1.805171 -0.687569,-2.179396 -0.737226,-1.141654 -1.899878,-1.621743 -3.111918,-1.284994 -0.909121,0.252587 -1.583793,1.300649 -1.590541,2.470813 -0.0038,0.667491 0.531315,2.838653 1.250347,5.07266 0.889889,2.764848 2.276326,9.045293 2.276326,10.311566 0,0.311702 -0.311811,0.744883 -0.536181,0.744883 -0.304809,0 -0.615453,-0.518212 -0.676539,-1.12859 -0.336998,-3.367391 -1.095231,-5.832982 -2.104199,-6.842347 -0.57976,-0.579989 -0.998462,-0.746647 -1.875828,-0.746647 -0.892537,0 -1.642217,0.251333 -2.465061,0.826423 -0.583359,0.407712 -0.831144,0.712544 -1.600637,1.969146 -0.275446,0.44981 -0.502469,0.710612 -0.601521,0.691027 -0.08751,-0.0173 -0.288472,-0.284645 -0.446594,-0.594097 -0.548007,-1.072483 -1.192974,-1.510444 -2.224362,-1.510444 -1.45661,0 -2.133486,1.469973 -1.664432,3.614649 0.263153,1.203219 0.603092,2.579434 0.827188,3.348789 0.290969,0.998945 0.509472,2.052863 0.509472,2.457376 0,0.45276 -0.36193,0.891451 -0.735465,0.891451 -0.395547,0 -0.590203,-0.459993 -0.809795,-1.913617 -0.518671,-3.433456 -0.661635,-4.119787 -1.04083,-4.996663 -0.224751,-0.519736 -0.887727,-1.129898 -1.438971,-1.324343 -0.881385,-0.310896 -1.640558,-0.183458 -2.521032,0.423186 l -0.54398,0.3748 c -0.856251,-0.144728 -3.188548,-0.136081 -4.506061,0.283929 -1.317512,0.420009 -3.099435,1.488536 -4.109916,3.679338 -0.07219,0.165389 -0.190066,0.281098 -0.26194,0.257132 -1.142091,-1.974499 -2.247672,-4.319273 -3.691996,-5.952942 -1.811679,-2.113935 -4.483896,-3.317963 -6.854428,-3.970263 -3.996592,-0.677222 -8.559544,0.261789 -11.821802,2.230256 -4.26142,3.014302 -6.73522,7.956916 -3.926166,12.468631 0.273515,0.41916 0.724654,0.956885 1.002532,1.194947 0.658669,0.564292 2.073621,1.131024 3.069837,1.229564 2.097247,0.207447 4.475376,-0.958868 5.26116,-2.580249 0.546557,-0.742356 0.690654,-4.299541 0.744483,-3.148359 0.0029,0.06682 0.126829,0.894248 0.227601,1.606551 0.218538,1.544732 0.415713,2.253776 0.812328,6.194208 0.09519,0.945734 0.02019,2.57223 -0.161946,3.511972 -0.203383,1.049374 -0.994711,2.137171 -1.892309,2.601253 -0.920321,0.475831 -2.625415,0.313905 -3.131034,-0.297343 -0.179409,-0.216891 -0.08551,-0.495816 0.16796,-0.498941 0.104124,-0.0013 0.385545,-0.09148 0.625389,-0.200453 0.341355,-0.155085 0.497172,-0.320762 0.717324,-0.762724 0.154685,-0.310532 0.280977,-0.662851 0.280651,-0.782932 -0.0025,-0.899897 -0.979185,-2.125453 -1.998672,-2.507815 -1.220391,-0.457712 -2.983649,-0.421379 -4.027141,0.08298 -0.825842,0.39916 -2.025761,1.382606 -2.329985,1.909641 -0.161754,0.280219 -0.444765,0.731739 -0.628913,1.00338 -0.424473,0.626148 -0.78233,2.025898 -0.865003,3.383453 -0.05743,0.943008 -0.03177,1.142089 0.326546,2.534509 0.409449,1.591072 0.746279,2.334181 1.680187,3.706771 0.747549,1.098695 1.554251,1.792005 2.985785,2.566094 1.619848,0.875918 2.183988,1.042546 4.007627,1.183717 2.344465,0.06374 3.712278,0.35234 7.817346,-2.486021 z m 1.534427,-15.546408 c -1.479837,-4.081422 -2.154237,-8.987555 -3.133457,-12.565018 -0.294955,-1.043683 -0.290795,-1.290931 0.02171,-1.290793 0.341603,1.06e-4 1.451631,0.59443 2.131691,1.141251 2.393202,1.924313 3.795457,5.213908 3.750684,8.798837 -0.0196,1.56891 -0.358432,2.463973 -1.418662,3.747497 -1.056427,1.288505 -1.196356,0.378417 -1.351966,0.168226 z m 17.080452,-8.239846 c 0.160214,-0.160076 0.355981,-0.233033 0.606253,-0.225936 1.896521,0.517793 2.501042,5.171974 1.728248,5.941537 -0.4069,0.349842 -1.05085,0.351686 -1.398393,0.0039 -1.087399,-1.560898 -1.680663,-4.227363 -0.936108,-5.719554 z M 38.127683,34.274362 c -0.504177,-0.399911 -1.216109,-0.694872 -1.870716,-0.694872 -0.405157,0 -0.523008,0.05478 -0.839005,0.389961 -0.4141,0.439247 -0.421413,0.783469 -0.02728,1.284711 0.141001,0.179323 0.180295,0.311612 0.112666,0.379272 -0.143036,0.143094 -0.601302,-0.171367 -0.871363,-0.59793 -0.18622,-0.294134 -0.447199,-0.458858 -0.398441,-1.227154 0.04832,-0.761447 0.263136,-1.072343 0.551826,-1.522409 0.70424,-1.097893 2.127912,-1.859833 3.607443,-2.180443 1.089852,-0.236166 1.129734,-0.194916 0.877923,0.908047 -0.159644,0.699264 -0.181198,1.110615 -0.12689,2.42175 0.03597,0.868674 0.09689,1.926249 0.135352,2.350168 0.04881,0.537912 -0.0057,0.910489 -0.02165,0.829329 -0.02641,-1.003071 -0.625692,-1.940519 -1.129868,-2.34043 z M 101.6666,29.32971 c -0.43234,-0.514008 -0.53088,-0.981661 -0.4714,-2.237133 0.0622,-1.311016 0.19971,-1.680382 0.72099,-1.93556 0.47094,-0.230536 0.90847,-0.130734 1.21243,0.276546 0.19796,0.265253 0.21973,0.443779 0.21973,1.801581 0,1.238224 -0.0334,1.568239 -0.18707,1.849513 -0.35705,0.653435 -1.05494,0.767854 -1.49468,0.245053 z m 4.32844,29.838323 c 0.28468,-0.208237 0.48002,-1.095368 0.37973,-1.724442 -0.1251,-0.78489 -0.70165,-3.019214 -0.90138,-3.493408 -0.0957,-0.227317 -0.23994,-0.777482 -0.32039,-1.222589 -0.0804,-0.445106 -0.24418,-1.335528 -0.36386,-1.978715 -0.11968,-0.643189 -0.33607,-1.965705 -0.48086,-2.938928 -0.35207,-2.36638 -0.58105,-3.039572 -1.29701,-3.813204 -0.68652,-0.741812 -1.1651,-0.916572 -2.04463,-0.746642 -0.63899,0.123448 -1.198002,0.4945 -1.505802,0.999478 -0.15907,0.260979 -0.20318,0.535253 -0.20349,1.265394 -4.3e-4,0.966222 0.0153,1.029251 1.067012,4.296121 0.17279,0.53671 0.43192,1.397836 0.57584,1.913615 0.14393,0.515779 0.35921,1.271977 0.47841,1.680439 0.1192,0.408463 0.43129,1.648093 0.69356,2.754735 0.54933,2.317946 0.75269,2.804593 1.35807,3.249966 1.00714,0.170022 1.74614,0.09382 2.5648,-0.24182 z M 38.920791,47.080194 c 0.152648,-0.867488 0.197001,-1.423669 0.186434,-2.337944 -0.01199,-1.033863 -0.614069,-2.438554 -0.419708,-2.013962 l -0.195986,-0.259813 -0.727893,0.325834 c -1.137496,0.509187 -1.854113,0.757153 -2.399171,0.829987 -0.606973,0.08111 -0.729848,0.225376 -0.327281,0.384263 1.323879,0.522521 1.784445,0.810837 2.437689,1.525995 0.491564,0.382364 1.191442,2.933507 1.445916,1.54564 z m 80.451019,-9.125463 c 0.61206,-0.634237 0.72395,-0.818011 0.98333,-1.615223 0.25248,-0.775958 0.29393,-1.082148 0.30171,-2.228459 0.008,-1.151768 -0.0318,-1.477689 -0.29664,-2.445174 -0.37358,-1.364284 -0.8378,-2.118561 -1.65305,-2.686037 -1.13205,-0.787976 -2.23831,-0.888129 -3.488,-0.315774 -0.66619,0.305116 -1.56351,1.149812 -1.78515,1.680475 -0.26603,0.636969 -0.35761,1.577057 -0.21323,2.189051 0.39014,1.653775 1.43811,2.642965 3.17199,2.994034 0.46009,0.09316 0.67364,0.187877 0.69699,0.309149 0.0186,0.09616 -0.18383,0.441974 -0.44968,0.768468 -0.60606,0.744388 -0.66794,0.980847 -0.3961,1.513895 0.24953,0.489314 0.42385,0.65133 0.833,0.774192 1.1379,0.150545 1.41671,-0.07209 2.29483,-0.938597 z"
       id="path10481"
       sodipodi:nodetypes="ccccssccccszcccssccsssssssssssscssssssssssscssssssssccsccsssscczccsccssssssssssccssccscssssssssssssssssssccscccsccccccccsccccccccccccssssssssscssssssssssssssssssssssssscscssssccsscscsssssssssccsccssssccsscccccssscsssssssssssssssssssssscsssssssssssssssssssssssssccccsccscsssscscsssccccsssssssssssssssssssscssssssssssssssscssssssssssssssssssssssssssssccssssssscscsssssssscsccssssssssssccsssssssssssssssssssssssssssssssscccsssssssscsssssssssssssssssssczccccccsssccssssssscsssssssssccccccssscccsscssszsssssssccssczsscsssssssssssssccsscsscssssccccssscsssccccscs" />
  </g>
</svg>
