<?xml version="1.0" encoding="UTF-8" standalone="no"?>
<!-- Created with Inkscape (http://www.inkscape.org/) -->

<svg
   id="svg5"
   version="1.1"
   viewBox="0 0 148 105"
   height="105mm"
   width="148mm"
   sodipodi:docname="maclemon.svg"
   inkscape:version="1.1.1 (3bf5ae0d25, 2021-09-20, custom)"
   xmlns:inkscape="http://www.inkscape.org/namespaces/inkscape"
   xmlns:sodipodi="http://sodipodi.sourceforge.net/DTD/sodipodi-0.dtd"
   xmlns="http://www.w3.org/2000/svg"
   xmlns:svg="http://www.w3.org/2000/svg">
  <sodipodi:namedview
     id="namedview7"
     pagecolor="#ffffff"
     bordercolor="#666666"
     borderopacity="1.0"
     inkscape:pageshadow="2"
     inkscape:pageopacity="0.0"
     inkscape:pagecheckerboard="0"
     inkscape:document-units="mm"
     showgrid="false"
     showguides="true"
     inkscape:guide-bbox="true"
     inkscape:zoom="1.0118032"
     inkscape:cx="29.155866"
     inkscape:cy="105.75179"
     inkscape:current-layer="layer2" />
  <defs
     id="defs2" />
  <g
     inkscape:label="Layer 1"
     inkscape:groupmode="layer"
     id="layer1"
     style="display:inline" />
  <g
     inkscape:groupmode="layer"
     id="layer2"
     inkscape:label="manual">
    <path
       id="path5352"
       style="fill:none;stroke:#000000;stroke-width:0.4;stroke-linecap:square;stroke-linejoin:round;stroke-miterlimit:4;stroke-dasharray:none"
       d="M 75.608716,14.713215 A 29.313588,29.320779 0 0 0 46.087665,43.824884 29.313588,29.320779 0 0 0 75.191808,73.35356 29.313588,29.320779 0 0 0 101.9131,56.508112 19.559495,19.564294 0 0 1 88.666521,37.863643 19.559495,19.564294 0 0 1 95.760469,22.942413 29.313588,29.320779 0 0 0 75.608716,14.713215 Z" />
    <path
       style="fill:none;stroke:#000000;stroke-width:0.4;stroke-linecap:square;stroke-linejoin:round;stroke-miterlimit:4;stroke-dasharray:none;stroke-opacity:1"
       d="M 75.824585,42.748909 72.129714,20.577417 c -1.189539,-7.166105 19.793475,-2.914409 15.940775,3.129884 z"
       id="path5687"
       sodipodi:nodetypes="cccc" />
    <path
       id="use6907"
       style="fill:none;stroke:#000000;stroke-width:0.4;stroke-linecap:square;stroke-linejoin:round;stroke-miterlimit:4;stroke-dasharray:none;stroke-opacity:1"
       d="m 90.068179,24.423139 c -0.14428,0.138384 -0.282408,0.298195 -0.412944,0.480755 l -13.060906,18.290929 9.707652,-2.107984 a 23.421673,23.42742 0 0 1 3.766198,-16.6637 z" />
    <path
       id="use6909"
       style="fill:none;stroke:#000000;stroke-width:0.4;stroke-linecap:square;stroke-linejoin:round;stroke-miterlimit:4;stroke-dasharray:none;stroke-opacity:1"
       d="M 76.799813,44.300215 95.173968,56.122448 A 23.421673,23.42742 0 0 1 86.59767,42.666333 Z" />
    <path
       style="fill:none;stroke:#000000;stroke-width:0.4;stroke-linecap:square;stroke-linejoin:round;stroke-miterlimit:4;stroke-dasharray:none;stroke-opacity:1"
       d="m 76.304135,45.161704 18.28644,13.064302 C 100.49767,62.45187 82.654764,74.286334 81.106121,67.28744 Z"
       id="use6911"
       sodipodi:nodetypes="cccc" />
    <path
       style="fill:none;stroke:#000000;stroke-width:0.4;stroke-linecap:square;stroke-linejoin:round;stroke-miterlimit:4;stroke-dasharray:none;stroke-opacity:1"
       d="m 75.316328,45.382681 3.694871,22.171491 c 1.189539,7.166107 -19.793471,2.914408 -15.940774,-3.129884 z"
       id="use6913"
       sodipodi:nodetypes="cccc" />
    <path
       style="fill:none;stroke:#000000;stroke-width:0.4;stroke-linecap:square;stroke-linejoin:round;stroke-miterlimit:4;stroke-dasharray:none;stroke-opacity:1"
       d="M 74.333895,44.794044 61.272797,63.084966 C 57.04797,68.993505 45.216407,51.146232 52.213586,49.597209 Z"
       id="use6915"
       sodipodi:nodetypes="cccc" />
    <path
       style="fill:none;stroke:#000000;stroke-width:0.4;stroke-linecap:square;stroke-linejoin:round;stroke-miterlimit:4;stroke-dasharray:none;stroke-opacity:1"
       d="M 74.169966,43.696701 52.003912,47.39248 c -7.164347,1.18983 -2.913693,-19.798328 3.129117,-15.944686 z"
       id="use6917"
       sodipodi:nodetypes="cccc" />
    <path
       style="fill:none;stroke:#000000;stroke-width:0.4;stroke-linecap:square;stroke-linejoin:round;stroke-miterlimit:4;stroke-dasharray:none;stroke-opacity:1"
       d="M 74.735633,42.848423 56.449198,29.784121 c -5.907089,-4.225865 11.935806,-16.060329 13.48445,-9.061434 z"
       id="use6919"
       sodipodi:nodetypes="cccc" />
    <path
       d="m 26.832093,91.59698 0.39166,0.344058 0.490549,0.268892 0.537267,0.12166 h 0.42047 l 0.513907,-0.07284 0.513908,-0.220073 0.319246,-0.317711 0.194662,-0.418449 0.05451,-0.534684 -0.124584,-0.488191 -0.365964,-0.387452 -0.42047,-0.170479 -0.537267,-0.100738 h -0.786435 0.957737 l 0.389324,-0.123985 0.373751,-0.24022 0.264741,-0.364205 0.101224,-0.441696 -0.0545,-0.387453 -0.241381,-0.441696 -0.272527,-0.271216 -0.467189,-0.17048 -0.513908,-0.02325 -0.513907,0.02325 -0.615132,0.216974 -0.511572,0.371954"
       style="fill:none;stroke:#000000;stroke-width:0.4;stroke-linecap:round;stroke-linejoin:round;stroke-miterlimit:4;stroke-dasharray:none"
       id="path17064" />
    <path
       d="m 31.419114,92.258749 h 2.454298 L 34.457398,92.111517 34.979093,91.8434 35.493,91.333512 35.835605,90.822075 36.006908,90.233147 V 89.380752 L 35.858965,88.74533 35.493,88.109907 35.119249,87.668212 34.535263,87.327253 33.920131,87.156774 h -2.501017 0.787992 v 5.077178"
       style="fill:none;stroke:#000000;stroke-width:0.4;stroke-linecap:round;stroke-linejoin:round;stroke-miterlimit:4;stroke-dasharray:none"
       id="path17066" />
    <path
       d="m 39.977253,93.79771 h 1.713805 -0.981097 v -5.106624 h -0.683653 0.683653 v 0.929886 l 0.490548,-0.464943 0.692997,-0.48819 0.70857,-0.06974 0.68521,0.271216 0.467189,0.557932 0.171302,0.728411 -0.02336,0.712912 -0.147943,0.581179 -0.365965,0.417674 -0.490548,0.268892 -0.467189,0.09764 -0.389324,0.04882 h -1.276982"
       style="fill:none;stroke:#000000;stroke-width:0.4;stroke-linecap:round;stroke-linejoin:round;stroke-miterlimit:4;stroke-dasharray:none"
       id="path17068" />
    <path
       d="m 46.767824,92.282771 h -1.716919 0.782541 v -3.591685 h -0.708569 0.708569 v 1.123612 l 0.342605,-0.387452 0.319246,-0.317711 0.397111,-0.240221 0.342605,-0.178228 0.412683,-0.04649 h 0.591773 v 0.953133"
       style="fill:none;stroke:#000000;stroke-width:0.4;stroke-linecap:round;stroke-linejoin:round;stroke-miterlimit:4;stroke-dasharray:none"
       id="path17070" />
    <path
       d="m 49.172316,92.282771 h 1.621145 -0.833153 v -3.614932 h -0.787992 m 0.733486,-0.751658 0.225808,-0.123985 V 87.59847 l -0.147943,-0.123985 -0.194662,0.04649 -0.07787,0.193726 0.04672,0.100738 0.147943,0.100737"
       style="fill:none;stroke:#000000;stroke-width:0.4;stroke-linecap:round;stroke-linejoin:round;stroke-miterlimit:4;stroke-dasharray:none"
       id="path17072" />
    <path
       d="m 51.627365,92.282771 h 1.400788 -0.638492 v -3.591685 h -0.762296 0.738937 v 1.007377 l 0.412683,-0.542434 0.365965,-0.286715 0.443829,-0.224722 0.42047,-0.02325 0.467189,0.06974 0.436043,0.201476 0.295886,0.364205 0.101224,0.317711 v 0.387452 2.272022 h -0.692997 1.502791"
       style="fill:none;stroke:#000000;stroke-width:0.4;stroke-linecap:round;stroke-linejoin:round;stroke-miterlimit:4;stroke-dasharray:none"
       id="path17074" />
    <path
       d="m 57.458703,87.180021 v 1.511065 h -0.732708 2.235499 -1.502791 v 2.712168 l 0.101224,0.391327 0.194662,0.292914 0.319246,0.195276 0.319246,0.04882 0.39711,-0.04882 0.389324,-0.171254 0.218022,-0.195276"
       style="fill:none;stroke:#000000;stroke-width:0.4;stroke-linecap:round;stroke-linejoin:round;stroke-miterlimit:4;stroke-dasharray:none"
       id="path17076" />
    <path
       d="m 60.206539,90.426873 h 3.263314 V 89.892189 L 63.29855,89.427246 63.049383,89.109535 62.6367,88.791824 l -0.545054,-0.147232 -0.560627,-0.02325 -0.560626,0.216973 -0.470304,0.418449 -0.220357,0.48819 -0.09811,0.534684 v 0.588928 l 0.123027,0.464943 0.393217,0.558707 0.490548,0.317711 0.389324,0.12166 h 0.591773 l 0.638491,-0.195276 0.490548,-0.341733"
       style="fill:none;stroke:#000000;stroke-width:0.4;stroke-linecap:round;stroke-linejoin:round;stroke-miterlimit:4;stroke-dasharray:none"
       id="path17078" />
    <path
       d="m 66.218472,92.282771 h -1.716919 0.782541 v -3.591685 h -0.708569 0.708569 v 1.123612 l 0.342605,-0.387452 0.319246,-0.317711 0.397111,-0.240221 0.342605,-0.178228 0.412683,-0.04649 h 0.591773 v 0.953133"
       style="fill:none;stroke:#000000;stroke-width:0.4;stroke-linecap:round;stroke-linejoin:round;stroke-miterlimit:4;stroke-dasharray:none"
       id="path17080" />
    <path
       d="m 72.400902,91.770559 -0.491327,0.219298 -0.343384,0.341733 -0.07319,0.415349 0.04828,0.48819 0.490548,0.415349 0.587101,0.123985 0.68521,0.04649 0.716356,-0.02325 0.583986,-0.170479 0.373751,-0.271217 0.218022,-0.340958 v -0.48819 L 74.978233,92.11151 74.511045,91.867415 73.919272,91.720958 h -0.467189 l -0.467188,0.02325 -0.482762,0.02635 -0.373751,-0.07284 -0.390103,-0.147232 -0.07397,-0.271217 0.147164,-0.263468 0.394775,-0.247969 0.319245,0.170479 0.537267,0.123985 h 0.537268 l 0.568413,-0.147232 0.513907,-0.340959 0.171303,-0.418448 0.02336,-0.604426 -0.147943,-0.371955 -0.218021,-0.263467 0.342605,-0.24797 h 0.731929 v 0.906639 -0.906639 h -0.68521 l -0.389324,0.24797 -0.42047,-0.193727 -0.731929,-0.100737 -0.685211,0.100737 -0.689882,0.387453 -0.196998,0.557932 0.02492,0.519186 0.220357,0.4107 0.174418,0.193726"
       style="fill:none;stroke:#000000;stroke-width:0.4;stroke-linecap:round;stroke-linejoin:round;stroke-miterlimit:4;stroke-dasharray:none"
       id="path17082" />
    <path
       d="m 78.256339,92.33159 0.513908,-0.04882 0.568413,-0.292914 0.412684,-0.462618 0.202448,-0.588928 0.04672,-0.635422 -0.101224,-0.534685 -0.2881,-0.511437 -0.397111,-0.340958 -0.537267,-0.24797 -0.42047,-0.04649 -0.66185,0.06974 -0.607346,0.441696 -0.371415,0.534685 -0.123026,0.689665 0.02492,0.658669 0.270191,0.581179 0.440715,0.465718 0.591773,0.244095 0.436042,0.0248"
       style="fill:none;stroke:#000000;stroke-width:0.4;stroke-linecap:round;stroke-linejoin:round;stroke-miterlimit:4;stroke-dasharray:none"
       id="path17084" />
    <path
       d="m 81.230037,90.426873 h 3.263314 v -0.534684 l -0.171303,-0.464943 -0.249167,-0.317711 -0.412683,-0.317711 -0.545054,-0.147232 -0.560627,-0.02325 -0.560626,0.216973 -0.470304,0.418449 -0.220357,0.48819 -0.09811,0.534684 v 0.588928 l 0.123027,0.464943 0.393217,0.558707 0.490548,0.317711 0.389324,0.12166 h 0.591773 l 0.638491,-0.195276 0.490548,-0.341733"
       style="fill:none;stroke:#000000;stroke-width:0.4;stroke-linecap:round;stroke-linejoin:round;stroke-miterlimit:4;stroke-dasharray:none"
       id="path17086" />
    <path
       d="m 85.770326,92.282771 v -1.26697 0.534685 l 0.319246,0.292914 0.365964,0.268117 0.490549,0.195276 0.467189,0.04959 0.591772,-0.07362 0.513908,-0.220073 0.26474,-0.318486 0.07787,-0.340958 -0.07787,-0.387453 -0.342605,-0.271216 -0.412684,-0.147232 -0.739715,-0.123985 -0.68521,-0.116236 -0.44383,-0.170479 -0.291214,-0.24797 -0.09811,-0.294464 V 89.3265 l 0.171303,-0.317711 0.443829,-0.286715 0.412684,-0.07749 h 0.638491 l 0.42047,0.123985 0.319246,0.193726 0.295886,0.271217 0.218021,0.193726 v 0.511437 -1.247597"
       style="fill:none;stroke:#000000;stroke-width:0.4;stroke-linecap:round;stroke-linejoin:round;stroke-miterlimit:4;stroke-dasharray:none"
       id="path17088" />
    <path
       d="m 92.565613,87.180021 h 0.784877 v 5.10275 -1.026749 l 0.315353,0.364205 0.42047,0.418449 0.342605,0.195276 0.568413,0.122435 0.513908,-0.07362 0.490548,-0.292914 0.389324,-0.540109 0.171302,-0.581179 V 90.13241 L 96.41447,89.644219 96.14973,89.210273 95.705901,88.915809 95.191993,88.74533 94.678085,88.722082 h -1.303457"
       style="fill:none;stroke:#000000;stroke-width:0.4;stroke-linecap:round;stroke-linejoin:round;stroke-miterlimit:4;stroke-dasharray:none"
       id="path17090" />
    <path
       d="m 99.334406,92.282771 h -1.716919 0.782541 v -3.591685 h -0.708569 0.708569 v 1.123612 l 0.342605,-0.387452 0.319246,-0.317711 0.397111,-0.240221 0.342605,-0.178228 0.412685,-0.04649 h 0.59177 v 0.953133"
       style="fill:none;stroke:#000000;stroke-width:0.4;stroke-linecap:round;stroke-linejoin:round;stroke-miterlimit:4;stroke-dasharray:none"
       id="path17092" />
    <path
       d="m 103.40639,92.282771 h -1.71692 0.78255 v -3.591685 h -0.70857 0.70857 v 1.123612 l 0.3426,-0.387452 0.31925,-0.317711 0.39711,-0.240221 0.3426,-0.178228 0.41269,-0.04649 h 0.59177 v 0.953133"
       style="fill:none;stroke:#000000;stroke-width:0.4;stroke-linecap:round;stroke-linejoin:round;stroke-miterlimit:4;stroke-dasharray:none"
       id="path17094" />
    <path
       d="m 107.47867,92.282771 h -1.71692 0.78255 v -3.591685 h -0.70857 0.70857 v 1.123612 l 0.3426,-0.387452 0.31925,-0.317711 0.39711,-0.240221 0.3426,-0.178228 0.41269,-0.04649 h 0.59177 v 0.953133"
       style="fill:none;stroke:#000000;stroke-width:0.4;stroke-linecap:round;stroke-linejoin:round;stroke-miterlimit:4;stroke-dasharray:none"
       id="path17096" />
    <path
       d="m 111.55169,92.282771 h -1.71692 0.78255 v -3.591685 h -0.70857 0.70857 v 1.123612 l 0.3426,-0.387452 0.31925,-0.317711 0.39711,-0.240221 0.3426,-0.178228 0.41269,-0.04649 h 0.59177 v 0.953133"
       style="fill:none;stroke:#000000;stroke-width:0.4;stroke-linecap:round;stroke-linejoin:round;stroke-miterlimit:4;stroke-dasharray:none"
       id="path17098" />
    <path
       d="m 115.62397,92.282771 h -1.71692 0.78255 v -3.591685 h -0.70857 0.70857 v 1.123612 l 0.3426,-0.387452 0.31925,-0.317711 0.39711,-0.240221 0.3426,-0.178228 0.41269,-0.04649 h 0.59177 v 0.953133"
       style="fill:none;stroke:#000000;stroke-width:0.4;stroke-linecap:round;stroke-linejoin:round;stroke-miterlimit:4;stroke-dasharray:none"
       id="path17100" />
    <path
       d="m 119.69626,92.282771 h -1.71692 0.78255 v -3.591685 h -0.70857 0.70857 v 1.123612 l 0.3426,-0.387452 0.31925,-0.317711 0.39711,-0.240221 0.3426,-0.178228 0.41269,-0.04649 h 0.59177 v 0.953133"
       style="fill:none;stroke:#000000;stroke-width:0.4;stroke-linecap:round;stroke-linejoin:round;stroke-miterlimit:4;stroke-dasharray:none"
       id="path17102" />
    <path
       style="fill:#ffffff;stroke-width:0.4;stroke-linecap:square;stroke-linejoin:round"
       d="m 72.076449,20.689278 16.020494,3.168717"
       id="path2652" />
  </g>
</svg>
