<?xml version="1.0" encoding="UTF-8" standalone="no"?>
<!-- Created with Inkscape (http://www.inkscape.org/) -->

<svg
   inkscape:version="1.1.1 (3bf5ae0d25, 2021-09-20, custom)"
   sodipodi:docname="maclemon-technical.svg"
   width="148mm"
   height="105mm"
   viewBox="0 0 148 105"
   version="1.1"
   id="svg5"
   xmlns:inkscape="http://www.inkscape.org/namespaces/inkscape"
   xmlns:sodipodi="http://sodipodi.sourceforge.net/DTD/sodipodi-0.dtd"
   xmlns="http://www.w3.org/2000/svg"
   xmlns:svg="http://www.w3.org/2000/svg">
  <sodipodi:namedview
     id="namedview7"
     pagecolor="#ffffff"
     bordercolor="#666666"
     borderopacity="1.0"
     inkscape:pageshadow="2"
     inkscape:pageopacity="0.0"
     inkscape:pagecheckerboard="0"
     inkscape:document-units="mm"
     showgrid="false"
     showguides="true"
     inkscape:guide-bbox="true"
     inkscape:zoom="1.5332828"
     inkscape:cx="16.304885"
     inkscape:cy="40.436116"
     inkscape:current-layer="layer2" />
  <defs
     id="defs2" />
  <g
     inkscape:label="Layer 1"
     inkscape:groupmode="layer"
     id="layer1"
     style="display:inline" />
  <g
     inkscape:groupmode="layer"
     id="layer2"
     inkscape:label="manual">
    <path
       id="path5352"
       style="fill:none;stroke:#000000;stroke-width:0.4;stroke-linecap:square;stroke-linejoin:round;stroke-miterlimit:4;stroke-dasharray:none"
       d="M 75.608716,19.594056 A 29.313588,29.320779 0 0 0 46.087665,48.705725 29.313588,29.320779 0 0 0 75.191808,78.234401 29.313588,29.320779 0 0 0 101.9131,61.388953 19.559495,19.564294 0 0 1 88.666521,42.744484 19.559495,19.564294 0 0 1 95.760469,27.823254 29.313588,29.320779 0 0 0 75.608716,19.594056 Z" />
    <path
       style="fill:none;stroke:#000000;stroke-width:0.4;stroke-linecap:square;stroke-linejoin:round;stroke-miterlimit:4;stroke-dasharray:none;stroke-opacity:1"
       d="M 75.824585,47.62975 72.129714,25.458258 c -1.189539,-7.166105 19.793475,-2.914409 15.940775,3.129884 z"
       id="path5687"
       sodipodi:nodetypes="cccc" />
    <path
       style="fill:none;stroke:#000000;stroke-width:0.4;stroke-linecap:square;stroke-linejoin:round;stroke-miterlimit:4;stroke-dasharray:none;stroke-opacity:1"
       d="M 74.735633,47.729264 56.449198,34.664962 c -5.907089,-4.225865 11.935806,-16.060329 13.48445,-9.061434 z"
       id="use6919"
       sodipodi:nodetypes="cccc" />
    <path
       style="fill:none;stroke:#000000;stroke-width:0.4;stroke-linecap:square;stroke-linejoin:round;stroke-miterlimit:4;stroke-dasharray:none;stroke-opacity:1"
       d="m 74.169966,48.577542 -22.166054,3.695779 c -7.164347,1.18983 -2.913693,-19.798328 3.129117,-15.944686 z"
       id="use6917"
       sodipodi:nodetypes="cccc" />
    <path
       style="fill:none;stroke:#000000;stroke-width:0.4;stroke-linecap:square;stroke-linejoin:round;stroke-miterlimit:4;stroke-dasharray:none;stroke-opacity:1"
       d="M 74.333895,49.674885 61.272797,67.965807 C 57.04797,73.874346 45.216407,56.027073 52.213586,54.47805 Z"
       id="use6915"
       sodipodi:nodetypes="cccc" />
    <path
       style="fill:none;stroke:#000000;stroke-width:0.4;stroke-linecap:square;stroke-linejoin:round;stroke-miterlimit:4;stroke-dasharray:none;stroke-opacity:1"
       d="m 75.316328,50.263522 3.694871,22.171491 c 1.189539,7.166107 -19.793471,2.914408 -15.940774,-3.129884 z"
       id="use6913"
       sodipodi:nodetypes="cccc" />
    <path
       id="use6909"
       style="fill:none;stroke:#000000;stroke-width:0.4;stroke-linecap:square;stroke-linejoin:round;stroke-miterlimit:4;stroke-dasharray:none;stroke-opacity:1"
       d="M 76.799813,49.181056 95.173968,61.003289 A 23.421673,23.42742 0 0 1 86.59767,47.547174 Z" />
    <path
       id="use6907"
       style="fill:none;stroke:#000000;stroke-width:0.4;stroke-linecap:square;stroke-linejoin:round;stroke-miterlimit:4;stroke-dasharray:none;stroke-opacity:1"
       d="m 90.068179,29.30398 c -0.14428,0.138384 -0.282408,0.298195 -0.412944,0.480755 L 76.594329,48.075664 86.301981,45.96768 a 23.421673,23.42742 0 0 1 3.766198,-16.6637 z" />
    <path
       style="fill:none;stroke:#000000;stroke-width:0.499999;stroke-linecap:square;stroke-linejoin:round;stroke-opacity:1"
       d="M 28.961247,78.26968 H 75.608716"
       id="path5660-4"
       sodipodi:nodetypes="cc" />
    <path
       style="fill:none;stroke:#000000;stroke-width:0.499999;stroke-linecap:square;stroke-linejoin:round;stroke-opacity:1"
       d="M 28.961247,19.594056 H 75.608716"
       id="path5660-4-7"
       sodipodi:nodetypes="cc" />
    <path
       style="fill:none;stroke:#000000;stroke-width:0.499999;stroke-linecap:square;stroke-linejoin:round;stroke-miterlimit:4;stroke-dasharray:none;stroke-opacity:1"
       d="M 28.961247,19.594056 V 78.352987"
       id="path5810-8"
       sodipodi:nodetypes="cc" />
    <path
       style="fill:none;stroke:#000000;stroke-width:0.499999;stroke-linecap:square;stroke-linejoin:round;stroke-miterlimit:4;stroke-dasharray:none;stroke-opacity:1"
       d="m 28.961247,15.939316 v 2.57976 h -0.475728 l 0.475728,1.07498 0.475728,-1.07498 h -0.475728"
       id="path6324-3-8-9"
       sodipodi:nodetypes="cccccc" />
    <path
       style="fill:none;stroke:#000000;stroke-width:0.499999;stroke-linecap:square;stroke-linejoin:round;stroke-miterlimit:4;stroke-dasharray:none;stroke-opacity:1"
       d="m 113.90498,43.176182 -1.98001,-1.653706 0.30496,-0.365123 -1.13003,-0.323965 0.52011,1.054225 0.30496,-0.365123"
       id="path6324-3-8-9-1"
       sodipodi:nodetypes="cccccc" />
    <path
       style="fill:none;stroke:#000000;stroke-width:0.499999;stroke-linecap:square;stroke-linejoin:round;stroke-miterlimit:4;stroke-dasharray:none;stroke-opacity:1"
       d="m 108.8949,73.238193 -2.09089,-1.51108 0.27866,-0.38557 -1.14993,-0.244085 0.59261,1.01524 0.27866,-0.385571"
       id="path6324-3-8-9-1-5"
       sodipodi:nodetypes="cccccc" />
    <path
       style="fill:none;stroke:#000000;stroke-width:0.499999;stroke-linecap:square;stroke-linejoin:round;stroke-miterlimit:4;stroke-dasharray:none;stroke-opacity:1"
       d="m 84.950044,89.013685 -0.542724,-2.52203 0.465081,-0.100075 -0.691239,-0.950843 -0.238933,1.151003 0.465082,-0.100075"
       id="path6324-3-8-9-1-5-9"
       sodipodi:nodetypes="cccccc" />
    <path
       style="fill:none;stroke:#000000;stroke-width:0.499999;stroke-linecap:square;stroke-linejoin:round;stroke-miterlimit:4;stroke-dasharray:none;stroke-opacity:1"
       d="m 28.961247,82.007729 v -2.579758 h 0.475728 l -0.475728,-1.074984 -0.475728,1.074984 h 0.475728"
       id="path6324-3-3-9"
       sodipodi:nodetypes="cccccc" />
    <path
       d="m 17.145429,49.848737 0.176831,0.143811 0.18931,0.104741 0.215124,0.07855 0.206519,0.01289 0.309778,-0.07814 0.215124,-0.170411 0.176402,-0.246889 0.06884,-0.290947 -0.03872,-0.340823 -0.150587,-0.261852 -0.309778,-0.170412 -0.314081,-0.02494 -0.228032,0.05403 -0.232334,0.116379 -0.02581,-0.03741 0.08175,-1.10144 h 1.11004"
       style="fill:none;stroke:#000000;stroke-width:0.4;stroke-linecap:round;stroke-linejoin:round;stroke-miterlimit:4;stroke-dasharray:none"
       id="path4238" />
    <path
       d="m 20.316782,48.920202 0.271056,-0.211975 0.163495,-0.232758 0.03872,-0.224444 -0.01291,-0.236914 -0.176401,-0.274321 -0.271056,-0.141317 -0.215124,-0.01662 -0.326989,0.09144 -0.215124,0.211975 -0.05593,0.236914 0.06884,0.324198 0.215124,0.199506 0.382921,0.19535 0.348501,0.182881 0.232334,0.170411 0.107562,0.236914 -0.02581,0.28679 -0.08175,0.20865 -0.258149,0.196597 -0.322686,0.06526 -0.258149,-0.03907 -0.271056,-0.118041 -0.204368,-0.209482 -0.06755,-0.224444 0.02668,-0.324198 0.215124,-0.290946 0.176401,-0.116379 0.232334,-0.103909"
       style="fill:none;stroke:#000000;stroke-width:0.4;stroke-linecap:round;stroke-linejoin:round;stroke-miterlimit:4;stroke-dasharray:none"
       id="path4240" />
    <path
       d="m 21.618714,49.953478 v 0.209066 h 0.216845 v -0.209066 h -0.216845"
       style="fill:none;stroke:#000000;stroke-width:0.4;stroke-linecap:round;stroke-linejoin:round;stroke-miterlimit:4;stroke-dasharray:none"
       id="path4242" />
    <path
       d="m 23.54364,48.920202 0.271056,-0.211975 0.163495,-0.232758 0.03872,-0.224444 -0.01291,-0.236914 -0.176401,-0.274321 -0.271056,-0.141317 -0.215124,-0.01662 -0.326989,0.09144 -0.215124,0.211975 -0.05593,0.236914 0.06884,0.324198 0.215124,0.199506 0.382921,0.19535 0.348501,0.182881 0.232334,0.170411 0.107562,0.236914 -0.02581,0.28679 -0.08175,0.20865 -0.258149,0.196597 -0.322686,0.06526 -0.258149,-0.03907 -0.271056,-0.118041 -0.204368,-0.209482 -0.06755,-0.224444 0.02668,-0.324198 0.215124,-0.290946 0.176401,-0.116379 0.232334,-0.103909"
       style="fill:none;stroke:#000000;stroke-width:0.4;stroke-linecap:round;stroke-linejoin:round;stroke-miterlimit:4;stroke-dasharray:none"
       id="path4244" />
    <path
       id="path4701"
       style="fill:none;stroke:#000000;stroke-width:0.4;stroke-linecap:square;stroke-linejoin:round"
       d="M 102.17114,60.295924 A 18.546406,18.546406 0 0 1 90.249737,46.088553 18.546406,18.546406 0 0 1 96.592982,28.660633" />
    <path
       d="m 93.211235,43.746587 -0.376056,0.01046 0.386904,-0.142943 v 2.107546 h -0.571316 1.128167"
       style="fill:none;stroke:#000000;stroke-width:0.399998;stroke-linecap:round;stroke-linejoin:round;stroke-miterlimit:4;stroke-dasharray:none"
       id="path13107" />
    <path
       d="m 94.348804,43.886044 0.149699,-0.139457 0.180796,-0.111566 0.227803,-0.05578 0.195259,0.03487 0.202492,0.09762 0.126557,0.163862 0.05786,0.24405 -0.01446,0.205699 -0.112093,0.25451 -0.206108,0.285887 -0.249498,0.296346 -0.227803,0.230105 -0.206108,0.219645 -0.101607,0.109822 h 1.287629"
       style="fill:none;stroke:#000000;stroke-width:0.399998;stroke-linecap:round;stroke-linejoin:round;stroke-miterlimit:4;stroke-dasharray:none"
       id="path13109" />
    <path
       d="m 96.787381,45.765578 0.216956,-0.04393 0.227802,-0.219645 0.101246,-0.231847 0.04701,-0.261482 0.0217,-0.362589 -0.0217,-0.34167 -0.08317,-0.327725 -0.112093,-0.209186 -0.180796,-0.132484 -0.162717,-0.05578 -0.133789,0.01046 -0.216955,0.122025 -0.148253,0.198726 -0.103054,0.317265 -0.03435,0.331211 -0.01121,0.327724 0.04556,0.306806 0.113902,0.308549 0.137405,0.142595 0.137405,0.109823 0.1591,0.01116"
       style="fill:none;stroke:#000000;stroke-width:0.399998;stroke-linecap:round;stroke-linejoin:round;stroke-miterlimit:4;stroke-dasharray:none"
       id="path13111" />
    <path
       d="m 98.584498,43.830261 0.08678,-0.01046 0.0904,-0.05578 0.06147,-0.09065 0.03254,-0.115052 v -0.10808 l -0.01808,-0.09065 -0.03616,-0.07321 -0.05424,-0.06624 -0.07593,-0.04532 -0.07232,-0.01046 -0.06509,0.007 -0.07232,0.02789 -0.0687,0.05578 -0.05062,0.09413 -0.01808,0.0767 -0.0036,0.111566 0.01446,0.08716 0.03254,0.08019 0.05062,0.05927 0.05424,0.04532 0.05786,0.01743 0.05424,0.0035"
       style="fill:none;stroke:#000000;stroke-width:0.399998;stroke-linecap:round;stroke-linejoin:round;stroke-miterlimit:4;stroke-dasharray:none"
       id="path13113" />
    <path
       d="m 112.51547,37.794599 v -1.922597 0.589525 l 0.12299,-0.23664 0.18661,-0.23664 0.19933,-0.09134 0.1866,-0.02491 0.11875,0.01245"
       style="fill:none;stroke:#000000;stroke-width:0.4;stroke-linecap:round;stroke-linejoin:round;stroke-miterlimit:4;stroke-dasharray:none"
       id="path13211" />
    <path
       d="m 114.15325,36.042217 h 1.69472 m -1.69472,0.838619 h 1.69472"
       style="fill:none;stroke:#000000;stroke-width:0.4;stroke-linecap:round;stroke-linejoin:round;stroke-miterlimit:4;stroke-dasharray:none"
       id="path13213" />
    <path
       d="m 117.20086,35.390419 -0.44107,0.01245 0.45379,-0.170215 v 2.50963 h -0.67009 1.32321"
       style="fill:none;stroke:#000000;stroke-width:0.4;stroke-linecap:round;stroke-linejoin:round;stroke-miterlimit:4;stroke-dasharray:none"
       id="path13215" />
    <path
       d="m 118.58853,37.559205 0.14759,0.144059 0.24174,0.07805 0.25022,0.02615 0.26718,-0.13036 0.25447,-0.248264 0.14843,-0.377794 0.0679,-0.460825 v -0.431765 l -0.0933,-0.402703 -0.16116,-0.31552 -0.25447,-0.182669 -0.29263,-0.05397 -0.30959,0.107941 -0.18661,0.18267 -0.10645,0.232488 -0.0267,0.23664 0.0136,0.26155 0.14505,0.274004 0.26718,0.170215 0.32232,0.04152 0.34777,-0.145306 0.21205,-0.195124 0.13571,-0.170215"
       style="fill:none;stroke:#000000;stroke-width:0.4;stroke-linecap:round;stroke-linejoin:round;stroke-miterlimit:4;stroke-dasharray:none"
       id="path13217" />
    <path
       d="m 120.75315,37.57249 v 0.208824 h 0.21374 V 37.57249 h -0.21374"
       style="fill:none;stroke:#000000;stroke-width:0.4;stroke-linecap:round;stroke-linejoin:round;stroke-miterlimit:4;stroke-dasharray:none"
       id="path13219" />
    <path
       d="m 121.64927,37.46787 0.17431,0.143644 0.1866,0.10462 0.21205,0.07846 0.20357,0.01287 0.30536,-0.07805 0.21205,-0.170214 0.17388,-0.246604 0.0679,-0.290611 -0.0382,-0.340429 -0.14844,-0.26155 -0.30535,-0.170215 -0.3096,-0.02491 -0.22477,0.05397 -0.22902,0.116245 -0.0255,-0.03737 0.0806,-1.100168 h 1.09419"
       style="fill:none;stroke:#000000;stroke-width:0.4;stroke-linecap:round;stroke-linejoin:round;stroke-miterlimit:4;stroke-dasharray:none"
       id="path13221" />
    <path
       style="fill:none;fill-opacity:1;stroke:#000000;stroke-width:0.4;stroke-linecap:square;stroke-linejoin:round;stroke-miterlimit:4;stroke-dasharray:none;stroke-opacity:1"
       d="M 96.592982,28.660634 111.0999,40.833388"
       id="path13309"
       sodipodi:nodetypes="cc" />
    <path
       id="path14239"
       style="fill:none;stroke:#000000;stroke-width:0.4;stroke-linecap:square;stroke-linejoin:round"
       d="M 105.93274,71.097456 A 36.3936,36.25766 0 0 1 84.181162,85.440735 L 76.304146,50.042526 Z" />
    <path
       d="m 99.150091,83.617512 v -2.35214 l -1.12769,1.570136 h 1.528236"
       style="fill:none;stroke:#000000;stroke-width:0.400002;stroke-linecap:round;stroke-linejoin:round;stroke-miterlimit:4;stroke-dasharray:none"
       id="path15707" />
    <path
       d="m 100.07288,81.541103 0.15945,-0.153184 0.19257,-0.122547 0.24264,-0.06127 0.20798,0.0383 0.21568,0.107229 0.13479,0.179991 0.0616,0.268072 -0.0154,0.225947 -0.11939,0.279561 -0.21953,0.314027 -0.26575,0.325516 -0.24264,0.252753 -0.21953,0.241265 -0.10822,0.120633 h 1.37148"
       style="fill:none;stroke:#000000;stroke-width:0.400002;stroke-linecap:round;stroke-linejoin:round;stroke-miterlimit:4;stroke-dasharray:none"
       id="path15709" />
    <path
       d="m 102.65486,81.47983 0.0924,-0.01149 0.0963,-0.06127 0.0655,-0.09957 0.0347,-0.126377 v -0.118718 l -0.0192,-0.09957 -0.0385,-0.08042 -0.0578,-0.07276 -0.0809,-0.04978 -0.077,-0.01149 -0.0693,0.0077 -0.077,0.03064 -0.0732,0.06127 -0.0539,0.103399 -0.0193,0.08425 -0.004,0.122547 0.0154,0.09574 0.0347,0.08808 0.0539,0.0651 0.0578,0.04978 0.0616,0.01915 0.0578,0.0038"
       style="fill:none;stroke:#000000;stroke-width:0.400002;stroke-linecap:round;stroke-linejoin:round;stroke-miterlimit:4;stroke-dasharray:none"
       id="path15711" />
    <path
       style="fill:none;stroke:#000000;stroke-width:0.4;stroke-linecap:square;stroke-linejoin:round;stroke-miterlimit:4;stroke-dasharray:none;stroke-opacity:1"
       d="m 76.304135,50.042545 18.28644,13.064302 c 5.907095,4.225864 -11.935811,16.060328 -13.484454,9.061434 z"
       id="use6911"
       sodipodi:nodetypes="cccc" />
    <path
       style="fill:none;stroke:#000000;stroke-width:0.4"
       d="m 77.15429,50.895715 -0.365737,0.435868 m 0.402386,1.854041 1.187573,-1.415294 m 1.224221,0.874615 -2.009409,2.39472 m 0.402386,1.854041 2.831244,-3.374146 m 1.224222,0.874615 -3.65308,4.353571 m 0.402385,1.854042 4.474916,-5.332997 m 1.224222,0.874615 -5.296752,6.312423 m 0.402386,1.854041 6.118587,-7.291849 m 1.224222,0.874615 -6.940423,8.271274 m 0.402385,1.854041 7.762259,-9.2507 m 1.224221,0.874616 -8.584095,10.230126 m 0.402386,1.85404 9.405931,-11.209551 m 1.224221,0.874615 -9.987411,11.902533 m 1.326994,0.752136 9.884639,-11.780054 m 1.224221,0.874615 -9.154309,10.909681 m 2.579564,-0.740619 7.617566,-9.078262 m 0.04313,2.282184 -3.904543,4.653253"
       id="path16345" />
    <path
       d="M 8.8200056,11.954657 V 9.3179556 h 0.9326083 l 0.2373155,0.066625 0.1707006,0.1290868 0.129066,0.1707277 0.05413,0.2623377 -0.01249,0.2373532 -0.10825,0.262338 -0.195681,0.158235 -0.2747861,0.104103 -0.3122573,0.01249 H 8.8075153"
       style="fill:none;stroke:#000000;stroke-width:0.400002;stroke-linecap:round;stroke-linejoin:round;stroke-miterlimit:4;stroke-dasharray:none"
       id="path18231" />
    <path
       d="m 11.209816,11.941749 v -1.92839 0.5913 l 0.12074,-0.237353 0.183191,-0.237353 0.195681,-0.09161 0.183191,-0.02498 0.116576,0.01249"
       style="fill:none;stroke:#000000;stroke-width:0.400002;stroke-linecap:round;stroke-linejoin:round;stroke-miterlimit:4;stroke-dasharray:none"
       id="path18233" />
    <path
       d="m 13.283206,11.941749 h 0.01249 l 0.262296,-0.06538 0.249806,-0.170727 0.154047,-0.264004 0.06661,-0.287322 0.01249,-0.27483 -0.03747,-0.249845 -0.0916,-0.220697 -0.133229,-0.170728 -0.183191,-0.158235 -0.195682,-0.06663 -0.18319,-0.01249 -0.212335,0.03748 -0.195682,0.120759 -0.1707,0.195712 -0.0916,0.18322 -0.07744,0.27483 v 0.212368 l 0.02581,0.245682 0.06412,0.224861 0.15821,0.20987 0.183191,0.144494 0.199844,0.07828 0.183191,0.01333"
       style="fill:none;stroke:#000000;stroke-width:0.400002;stroke-linecap:round;stroke-linejoin:round;stroke-miterlimit:4;stroke-dasharray:none"
       id="path18235" />
    <path
       d="m 14.384638,12.794971 h 0.02623 l 0.144263,0.03748 0.19693,-0.01249 0.171534,-0.116594 0.04996,-0.212369 V 10.013359 M 14.856979,9.2388379 V 9.4345501 H 15.06515 V 9.2388379 h -0.208171"
       style="fill:none;stroke:#000000;stroke-width:0.400002;stroke-linecap:round;stroke-linejoin:round;stroke-miterlimit:4;stroke-dasharray:none"
       id="path18237" />
    <path
       d="m 15.877855,10.916966 h 1.443877 v -0.233189 l -0.06662,-0.303978 -0.195681,-0.233189 -0.199845,-0.133251 -0.274786,-0.01249 -0.274786,0.07912 -0.237316,0.195712 -0.09159,0.195713 -0.103253,0.249845 -0.02623,0.262338 0.06537,0.31647 0.118241,0.287323 0.237316,0.23652 0.220661,0.104519 0.274787,0.02623 0.237315,-0.06538 0.224826,-0.11826"
       style="fill:none;stroke:#000000;stroke-width:0.400002;stroke-linecap:round;stroke-linejoin:round;stroke-miterlimit:4;stroke-dasharray:none"
       id="path18239" />
    <path
       d="M 18.121118,11.954657 V 9.0306334 m 1.15327,0.9952176 -1.14078,1.378314 m 0.537083,-0.657927 0.749417,1.208419"
       style="fill:none;stroke:#000000;stroke-width:0.400002;stroke-linecap:round;stroke-linejoin:round;stroke-miterlimit:4;stroke-dasharray:none"
       id="path18241" />
    <path
       d="m 20.873178,11.863047 -0.141557,0.06538 h -0.187354 l -0.166538,-0.05205 -0.14572,-0.170727 -0.02498,-0.288988 v -1.349165 h -0.382203 1.010881 -0.628678 V 9.476191"
       style="fill:none;stroke:#000000;stroke-width:0.400002;stroke-linecap:round;stroke-linejoin:round;stroke-miterlimit:4;stroke-dasharray:none"
       id="path18243" />
    <path
       d="m 21.425235,10.129953 v 0.199876 h 0.197346 v -0.199876 h -0.197346 m 0,1.589017 v 0.196545 h 0.197346 V 11.71897 h -0.197346"
       style="fill:none;stroke:#000000;stroke-width:0.400002;stroke-linecap:round;stroke-linejoin:round;stroke-miterlimit:4;stroke-dasharray:none"
       id="path18245" />
    <path
       d="M 24.166377,11.954657 V 9.2929711 h 0.13323 l 0.84934,2.3210639 0.853503,-2.3085717 h 0.0916 v 2.6362857"
       style="fill:none;stroke:#000000;stroke-width:0.400002;stroke-linecap:round;stroke-linejoin:round;stroke-miterlimit:4;stroke-dasharray:none"
       id="path18247" />
    <path
       d="m 27.159954,10.238219 0.274787,-0.158235 0.233152,-0.06663 0.237315,-0.024985 0.183191,0.066626 0.158211,0.141579 0.104085,0.212368 0.01249,0.287322 v 0.878623 0.353532 l -0.01249,-0.353532 -0.1707,0.117428 -0.183191,0.131585 -0.208172,0.09161 -0.237315,0.03914 -0.195681,-0.06538 -0.158211,-0.104935 -0.118241,-0.170311 v -0.251511 l 0.09326,-0.195712 0.208171,-0.170728 0.208172,-0.07912 0.249805,-0.07912 0.237316,-0.03748 0.14572,-0.01249 h 0.116576"
       style="fill:none;stroke:#000000;stroke-width:0.400002;stroke-linecap:round;stroke-linejoin:round;stroke-miterlimit:4;stroke-dasharray:none"
       id="path18249" />
    <path
       d="m 29.374846,11.941749 v -1.92839 0.5913 l 0.12074,-0.237353 0.183191,-0.237353 0.195681,-0.09161 0.183191,-0.02498 0.116576,0.01249"
       style="fill:none;stroke:#000000;stroke-width:0.400002;stroke-linecap:round;stroke-linejoin:round;stroke-miterlimit:4;stroke-dasharray:none"
       id="path18251" />
    <path
       d="m 31.972853,11.71897 -0.212335,0.157402 -0.312258,0.06538 -0.29144,-0.03956 -0.299767,-0.196545 -0.1707,-0.276496 -0.06578,-0.324799 v -0.341455 l 0.103253,-0.316471 0.212335,-0.249845 0.249805,-0.141579 0.274787,-0.04164 0.233152,0.04164 0.15821,0.07495 0.06662,0.07912"
       style="fill:none;stroke:#000000;stroke-width:0.400002;stroke-linecap:round;stroke-linejoin:round;stroke-miterlimit:4;stroke-dasharray:none"
       id="path18253" />
    <path
       d="m 34.34183,9.2929711 v 2.5963099 h 1.31148"
       style="fill:none;stroke:#000000;stroke-width:0.400002;stroke-linecap:round;stroke-linejoin:round;stroke-miterlimit:4;stroke-dasharray:none"
       id="path18255" />
    <path
       d="m 36.203709,10.916966 h 1.443877 v -0.233189 l -0.06661,-0.303978 -0.195681,-0.233189 -0.199845,-0.133251 -0.274786,-0.01249 -0.274786,0.07912 -0.237316,0.195712 -0.09159,0.195713 -0.103253,0.249845 -0.02623,0.262338 0.06537,0.31647 0.118241,0.287323 0.237316,0.23652 0.220661,0.104519 0.274787,0.02623 0.237315,-0.06538 0.224826,-0.11826"
       style="fill:none;stroke:#000000;stroke-width:0.400002;stroke-linecap:round;stroke-linejoin:round;stroke-miterlimit:4;stroke-dasharray:none"
       id="path18257" />
    <path
       d="m 38.446964,11.954657 v -1.928806 0.433065 l 0.183191,-0.158235 0.1707,-0.141579 0.158211,-0.104102 0.195681,-0.05413 0.170701,0.02498 0.116576,0.05413 0.133229,0.129087 0.0916,0.224861 0.02498,0.27483 v 1.245895 -1.4541 l 0.05412,-0.108266 0.274786,-0.245681 0.208172,-0.108267 0.170701,-0.049969 0.18319,0.049969 0.12074,0.06663 0.141557,0.170727 0.06661,0.341456 v 1.324597"
       style="fill:none;stroke:#000000;stroke-width:0.400002;stroke-linecap:round;stroke-linejoin:round;stroke-miterlimit:4;stroke-dasharray:none"
       id="path18259" />
    <path
       d="m 42.606275,11.941749 h 0.01249 l 0.262296,-0.06538 0.249806,-0.170727 0.154046,-0.264004 0.06661,-0.287322 0.01249,-0.27483 -0.03747,-0.249845 -0.0916,-0.220697 -0.133229,-0.170728 -0.183191,-0.158235 -0.195682,-0.06663 -0.18319,-0.01249 -0.212335,0.03748 -0.195682,0.120759 -0.1707,0.195712 -0.0916,0.18322 -0.07744,0.27483 v 0.212368 l 0.02581,0.245682 0.06412,0.224861 0.15821,0.20987 0.183191,0.144494 0.199844,0.07828 0.183191,0.01333"
       style="fill:none;stroke:#000000;stroke-width:0.400002;stroke-linecap:round;stroke-linejoin:round;stroke-miterlimit:4;stroke-dasharray:none"
       id="path18261" />
    <path
       d="m 44.271627,11.954657 v -1.941298 0.470542 l 0.183191,-0.18322 0.170701,-0.154071 0.133229,-0.07912 0.195682,-0.05413 0.129066,-0.01249 0.199845,0.05413 0.116576,0.07495 0.09159,0.133251 0.0791,0.18322 v 1.508233"
       style="fill:none;stroke:#000000;stroke-width:0.400002;stroke-linecap:round;stroke-linejoin:round;stroke-miterlimit:4;stroke-dasharray:none"
       id="path18263" />
    <path
       d="m 101.36423,94.829497 v -1.384724 h 1.18957 -1.18957 v -1.2573 h 1.36314"
       style="fill:none;stroke:#000000;stroke-width:0.499999;stroke-linecap:round;stroke-linejoin:round;stroke-miterlimit:4;stroke-dasharray:none"
       id="path77654" />
    <path
       d="m 103.47243,94.829497 v -1.960457 0.601133 l 0.12277,-0.2413 0.18627,-0.2413 0.19896,-0.09313 0.18627,-0.0254 0.11853,0.0127"
       style="fill:none;stroke:#000000;stroke-width:0.499999;stroke-linecap:round;stroke-linejoin:round;stroke-miterlimit:4;stroke-dasharray:none"
       id="path77656" />
    <path
       d="m 104.73904,93.787673 h 1.46812 v -0.237066 l -0.0677,-0.309034 -0.19897,-0.237066 -0.2032,-0.135467 -0.2794,-0.0127 -0.2794,0.08043 -0.2413,0.198967 -0.0931,0.198967 -0.10499,0.254 -0.0267,0.2667 0.0665,0.321733 0.12022,0.2921 0.2413,0.240453 0.22437,0.106257 0.2794,0.02667 0.2413,-0.06646 0.2286,-0.120227"
       style="fill:none;stroke:#000000;stroke-width:0.499999;stroke-linecap:round;stroke-linejoin:round;stroke-miterlimit:4;stroke-dasharray:none"
       id="path77658" />
    <path
       d="m 107.03266,94.84262 v -1.96088 m -0.12022,-0.8128 v 0.211667 h 0.21336 V 92.06894 h -0.21336"
       style="fill:none;stroke:#000000;stroke-width:0.499999;stroke-linecap:round;stroke-linejoin:round;stroke-miterlimit:4;stroke-dasharray:none"
       id="path77660" />
    <path
       d="m 108.28573,94.736363 -0.19897,0.186479 -0.13377,0.226695 -0.0271,0.238336 0.18626,0.2032 0.30904,0.131234 0.35983,0.04233 0.3175,-0.08043 0.32173,-0.2159 0.11854,-0.198967 -0.0127,-0.226483 -0.11854,-0.21336 -0.29633,-0.08001 h -0.8128 l -0.17357,-0.119804 -0.0804,-0.185843 0.0423,-0.173567 0.22437,-0.254 0.14817,0.09313 0.2286,0.0381 0.2794,-0.09313 0.19896,-0.186266 0.0931,-0.224367 v -0.2667 l -0.10584,-0.2413 -0.0804,-0.105833 -0.18627,-0.118534 h 0.63924 -0.63924 l -0.19896,-0.04233 -0.30904,0.0254 -0.21166,0.173567 -0.12277,0.2413 -0.0127,0.2667 0.055,0.211666 0.10584,0.135467 0.11853,0.105833"
       style="fill:none;stroke:#000000;stroke-width:0.499999;stroke-linecap:round;stroke-linejoin:round;stroke-miterlimit:4;stroke-dasharray:none"
       id="path77662" />
    <path
       d="m 110.22036,93.09764 0.2794,-0.160867 0.23707,-0.06773 0.2413,-0.0254 0.18627,0.06773 0.16086,0.143934 0.10584,0.2159 0.0127,0.2921 v 0.893233 0.35941 l -0.0127,-0.35941 -0.17357,0.11938 -0.18627,0.133773 -0.21166,0.09313 -0.2413,0.03979 -0.19897,-0.06646 -0.16087,-0.10668 -0.12022,-0.173144 V 94.24064 l 0.0948,-0.198967 0.21167,-0.173566 0.21167,-0.08043 0.254,-0.08043 0.2413,-0.0381 0.14816,-0.0127 h 0.11854"
       style="fill:none;stroke:#000000;stroke-width:0.499999;stroke-linecap:round;stroke-linejoin:round;stroke-miterlimit:4;stroke-dasharray:none"
       id="path77664" />
    <path
       d="m 112.44709,91.869973 v 2.972647 -0.36068 l 0.14817,0.121073 0.22437,0.146474 0.2413,0.06646 0.23706,0.01355 0.28364,-0.16002 0.17356,-0.187537 0.13124,-0.2667 0.055,-0.334433 -0.0169,-0.3302 -0.0635,-0.309034 -0.19897,-0.254 -0.17357,-0.09313 -0.2413,-0.0508 -0.254,0.0508 -0.254,0.135467 -0.2667,0.211666"
       style="fill:none;stroke:#000000;stroke-width:0.499999;stroke-linecap:round;stroke-linejoin:round;stroke-miterlimit:4;stroke-dasharray:none"
       id="path77666" />
    <path
       d="m 114.68737,93.787673 h 1.46812 v -0.237066 l -0.0677,-0.309034 -0.19897,-0.237066 -0.2032,-0.135467 -0.2794,-0.0127 -0.2794,0.08043 -0.2413,0.198967 -0.0931,0.198967 -0.10499,0.254 -0.0267,0.2667 0.0665,0.321733 0.12022,0.2921 0.2413,0.240453 0.22437,0.106257 0.2794,0.02667 0.2413,-0.06646 0.2286,-0.120227"
       style="fill:none;stroke:#000000;stroke-width:0.499999;stroke-linecap:round;stroke-linejoin:round;stroke-miterlimit:4;stroke-dasharray:none"
       id="path77668" />
    <path
       d="m 116.86077,92.987573 v 0.2032 h 0.20066 v -0.2032 h -0.20066 m 0,1.61544 v 0.199814 h 0.20066 v -0.199814 h -0.20066"
       style="fill:none;stroke:#000000;stroke-width:0.499999;stroke-linecap:round;stroke-linejoin:round;stroke-miterlimit:4;stroke-dasharray:none"
       id="path77670" />
    <path
       d="m 119.42193,92.547307 0.17526,-0.169334 0.21167,-0.135466 0.2667,-0.06773 0.2286,0.04233 0.23707,0.118533 0.14816,0.198967 0.0677,0.296333 -0.0169,0.249767 -0.13123,0.309033 -0.2413,0.347133 -0.2921,0.359834 -0.2667,0.2794 -0.2413,0.2667 -0.11896,0.13335 h 1.50749"
       style="fill:none;stroke:#000000;stroke-width:0.499999;stroke-linecap:round;stroke-linejoin:round;stroke-miterlimit:4;stroke-dasharray:none"
       id="path77672" />
    <path
       d="m 122.27689,94.829497 0.254,-0.05334 0.2667,-0.2667 0.11854,-0.281517 0.055,-0.3175 0.0254,-0.440267 -0.0254,-0.414866 -0.0974,-0.397934 -0.13123,-0.254 -0.21167,-0.160866 -0.1905,-0.06773 -0.15663,0.0127 -0.254,0.148167 -0.17357,0.2413 -0.12065,0.385233 -0.0402,0.402167 -0.0131,0.397933 0.0533,0.372534 0.13335,0.37465 0.16087,0.173143 0.16087,0.13335 0.18626,0.01355"
       style="fill:none;stroke:#000000;stroke-width:0.499999;stroke-linecap:round;stroke-linejoin:round;stroke-miterlimit:4;stroke-dasharray:none"
       id="path77674" />
    <path
       d="m 123.67643,92.547307 0.17526,-0.169334 0.21167,-0.135466 0.2667,-0.06773 0.2286,0.04233 0.23707,0.118533 0.14816,0.198967 0.0677,0.296333 -0.0169,0.249767 -0.13123,0.309033 -0.2413,0.347133 -0.2921,0.359834 -0.2667,0.2794 -0.2413,0.2667 -0.11896,0.13335 h 1.50749"
       style="fill:none;stroke:#000000;stroke-width:0.499999;stroke-linecap:round;stroke-linejoin:round;stroke-miterlimit:4;stroke-dasharray:none"
       id="path77676" />
    <path
       d="m 126.61183,92.377973 -0.44027,0.0127 0.45297,-0.173566 v 2.55905 h -0.66887 1.3208"
       style="fill:none;stroke:#000000;stroke-width:0.499999;stroke-linecap:round;stroke-linejoin:round;stroke-miterlimit:4;stroke-dasharray:none"
       id="path77678" />
    <path
       d="m 127.86362,93.804607 h 0.86487"
       style="fill:none;stroke:#000000;stroke-width:0.499999;stroke-linecap:round;stroke-linejoin:round;stroke-miterlimit:4;stroke-dasharray:none"
       id="path77680" />
    <path
       d="m 130.13396,92.377973 -0.44027,0.0127 0.45297,-0.173566 v 2.55905 h -0.66887 1.3208"
       style="fill:none;stroke:#000000;stroke-width:0.499999;stroke-linecap:round;stroke-linejoin:round;stroke-miterlimit:4;stroke-dasharray:none"
       id="path77682" />
    <path
       d="m 131.46577,92.547307 0.17526,-0.169334 0.21166,-0.135466 0.2667,-0.06773 0.2286,0.04233 0.23707,0.118533 0.14817,0.198967 0.0677,0.296333 -0.0169,0.249767 -0.13124,0.309033 -0.2413,0.347133 -0.2921,0.359834 -0.2667,0.2794 -0.2413,0.2667 -0.11895,0.13335 h 1.50749"
       style="fill:none;stroke:#000000;stroke-width:0.499999;stroke-linecap:round;stroke-linejoin:round;stroke-miterlimit:4;stroke-dasharray:none"
       id="path77684" />
    <path
       d="m 133.51936,93.804607 h 0.86487"
       style="fill:none;stroke:#000000;stroke-width:0.499999;stroke-linecap:round;stroke-linejoin:round;stroke-miterlimit:4;stroke-dasharray:none"
       id="path77686" />
    <path
       d="m 135.78969,92.377973 -0.44026,0.0127 0.45296,-0.173566 v 2.55905 h -0.66886 1.3208"
       style="fill:none;stroke:#000000;stroke-width:0.499999;stroke-linecap:round;stroke-linejoin:round;stroke-miterlimit:4;stroke-dasharray:none"
       id="path77688" />
    <path
       d="m 137.74973,94.829497 0.0508,-0.70739 0.10583,-0.508 0.14817,-0.440267 0.18626,-0.3429 0.19897,-0.321733 0.2032,-0.2794 h -1.53458"
       style="fill:none;stroke:#000000;stroke-width:0.499999;stroke-linecap:round;stroke-linejoin:round;stroke-miterlimit:4;stroke-dasharray:none"
       id="path77690" />
  </g>
  <WCB
     layer="-1"
     node="0"
     lastpath="0"
     lastpathnc="0"
     lastknownposx="0"
     lastknownposy="0"
     pausedposx="0"
     pausedposy="0"
     randseed="0"
     row="0"
     application="Axidraw" />
</svg>
