<?xml version="1.0" encoding="UTF-8" standalone="no"?>
<!-- Created with Inkscape (http://www.inkscape.org/) -->

<svg
   sodipodi:docname="quedlingburg-only-church.svg"
   inkscape:version="1.1.1 (3bf5ae0d25, 2021-09-20, custom)"
   id="svg5"
   version="1.1"
   viewBox="0 0 148 105"
   height="105mm"
   width="148mm"
   xmlns:inkscape="http://www.inkscape.org/namespaces/inkscape"
   xmlns:sodipodi="http://sodipodi.sourceforge.net/DTD/sodipodi-0.dtd"
   xmlns="http://www.w3.org/2000/svg"
   xmlns:svg="http://www.w3.org/2000/svg">
  <sodipodi:namedview
     id="namedview7"
     pagecolor="#ffffff"
     bordercolor="#666666"
     borderopacity="1.0"
     inkscape:pageshadow="2"
     inkscape:pageopacity="0.0"
     inkscape:pagecheckerboard="0"
     inkscape:document-units="mm"
     showgrid="false"
     inkscape:zoom="1.2894203"
     inkscape:cx="361.01494"
     inkscape:cy="159.76172"
     inkscape:window-width="1920"
     inkscape:window-height="1019"
     inkscape:window-x="0"
     inkscape:window-y="61"
     inkscape:window-maximized="1"
     inkscape:current-layer="layer3" />
  <defs
     id="defs2" />
  <g
     inkscape:label="Church outline"
     inkscape:groupmode="layer"
     id="layer1"
     style="display:inline" />
  <g
     inkscape:groupmode="layer"
     id="layer3"
     inkscape:label="Church details"
     style="display:inline">
    <g
       id="g86916"
       transform="translate(2.4321836e-5,-5.2916669)">
      <path
         style="display:inline;fill:none;stroke:#000000;stroke-width:0.109689;stroke-linecap:butt;stroke-linejoin:miter;stroke-miterlimit:4;stroke-dasharray:none;stroke-opacity:1"
         d="m 39.804552,80.262067 c 0,0 -0.04351,-20.300166 -0.04351,-30.057335 0,-5.579267 -0.351103,-4.585268 -1.367618,-5.712633 3.102111,-3.102111 8.320388,-12.450074 13.316964,-20.150672 0,0 -2.3e-4,-1.138599 -2.3e-4,-1.621345 -0.580669,0 -0.877266,-0.280819 -0.911161,-0.87113 0.04349,-0.611859 0.23641,-0.909121 0.911161,-0.952236 0,-0.82062 0.0097,-1.810488 0,-2.39554 -0.003,-0.183729 -0.734533,-0.637402 -0.734533,0.738972 7.73e-4,0.155276 -0.0017,-0.956422 -0.002,-0.983059 -4.19e-4,-0.0337 0.01476,-0.255027 0.01476,-0.510627 0,0.783808 0.727356,0.357659 0.725305,0.150756 -0.002,-0.195291 -0.0034,-0.356496 -0.0034,-0.356496 l -0.35785,0.0037 0.359613,-6.23e-4 -0.0052,0.362457 c 0,0.286813 0.76464,0.615863 0.76464,-0.15352 v 1.488067 c 0,-1.488067 -0.76284,-0.888763 -0.761243,-0.735165 0.0092,0.88438 0,2.063859 0,2.391152 0.681237,0.05588 0.923925,0.31472 0.910715,1.011565 0.0025,0.606154 -0.453659,0.811801 -0.910715,0.811801 0,0.553943 1.86e-4,1.621344 1.86e-4,1.621344 6.667685,9.312631 10.2289,15.688533 13.697633,18.208838 -2.300379,0.309901 -1.437846,3.626507 -1.581593,7.61563 0,5.051594 7.53e-4,12.97319 7.53e-4,12.97319 L 82.902045,63.4696 c 0,0 6.7e-5,-9.642601 6.7e-5,-12.92297 0,-3.367408 0.149946,-3.709413 -1.271205,-4.757857 4.35654,-4.163995 8.282027,-11.324936 13.749578,-18.720845 l -7.72e-4,-2.438995 c -0.595306,-0.01843 -0.9218,-0.368661 -0.929834,-0.856984 0.01979,-0.394296 0.236576,-0.806532 0.929834,-0.784068 V 21.53062 l -0.219384,0.0029 c 0.257843,-1.003035 0.0478,-1.175506 -0.877504,-0.878356 v -0.438757 c 0.921582,0.287278 1.107924,0.101331 0.877504,-0.877513 0,0 0.296403,-0.0033 0.438768,0 -0.293602,0.969308 -0.09443,1.156753 0.877504,0.877513 v 0.438757 c -1.006937,-0.289101 -1.202605,-0.134567 -0.877504,0.87532 l -0.219384,1.84e-4 v 1.457267 c 0.482746,-0.02698 0.86843,0.40974 0.866015,0.846254 -0.0151,0.486464 -0.428638,0.698056 -0.866015,0.7948 l 7.72e-4,2.438995 c 5.017525,6.004485 10.071465,14.40403 14.206735,16.816431 -1.26251,1.06094 -1.67054,0.747009 -1.67054,4.990811 0,3.612674 3.2e-4,13.190687 3.2e-4,13.190687 l -3.2e-4,23.671156"
         id="path1146"
         sodipodi:nodetypes="cccccccscscsccccccscccccccccccccccccccccccccccccccc" />
      <path
         style="display:inline;fill:none;stroke:#000000;stroke-width:0.109689;stroke-linecap:butt;stroke-linejoin:miter;stroke-miterlimit:4;stroke-dasharray:none;stroke-opacity:1"
         d="m 38.39343,44.492099 6.083658,-2.620583 20.930897,0.678852"
         id="path33017"
         sodipodi:nodetypes="ccc" />
      <path
         style="display:inline;fill:none;stroke:#000000;stroke-width:0.109689;stroke-linecap:butt;stroke-linejoin:miter;stroke-miterlimit:4;stroke-dasharray:none;stroke-opacity:1"
         d="m 44.477088,41.871516 c 1.389377,-0.807311 7.233264,-17.529987 7.233264,-17.529987"
         id="path33147"
         sodipodi:nodetypes="cc" />
      <path
         style="display:inline;fill:none;stroke:#000000;stroke-width:0.109689;stroke-linecap:butt;stroke-linejoin:miter;stroke-miterlimit:4;stroke-dasharray:none;stroke-opacity:1"
         d="m 81.630825,45.788804 7.404607,-2.484673 20.551718,0.580258"
         id="path33151"
         sodipodi:nodetypes="ccc" />
      <path
         style="display:inline;fill:none;stroke:#000000;stroke-width:0.109689;stroke-linecap:butt;stroke-linejoin:miter;stroke-miterlimit:4;stroke-dasharray:none;stroke-opacity:1"
         d="m 89.035432,43.304131 c 1.338513,-0.934631 6.34497,-16.236173 6.34497,-16.236173"
         id="path33153"
         sodipodi:nodetypes="cc" />
      <path
         style="display:inline;fill:none;stroke:#000000;stroke-width:0.109689;stroke-linecap:butt;stroke-linejoin:miter;stroke-miterlimit:4;stroke-dasharray:none;stroke-opacity:1"
         d="m 89.035432,43.304131 c 0.984982,0.74383 0.601109,1.186121 0.601109,18.667654 v 11.899097"
         id="path33713"
         sodipodi:nodetypes="ccc" />
      <path
         style="display:inline;fill:none;stroke:#000000;stroke-width:0.109689;stroke-linecap:butt;stroke-linejoin:miter;stroke-miterlimit:4;stroke-dasharray:none;stroke-opacity:1"
         d="m 44.477088,41.871516 c 0,0 0.538599,0.517744 0.487817,1.52294 l -0.252578,17.313282 v 21.280943 h -0.03656"
         id="path34136"
         sodipodi:nodetypes="ccccc" />
      <path
         style="display:inline;fill:none;stroke:#000000;stroke-width:0.109689;stroke-linecap:butt;stroke-linejoin:miter;stroke-miterlimit:4;stroke-dasharray:none;stroke-opacity:1"
         d="m 63.827145,63.139186 v 9.128746 l 0.802599,2.041695 25.371734,0.07813 c -1.107355,-1.381289 -1.365919,-2.642331 -1.365919,-2.642331 l -2.316182,-8.211775 -3.549716,-0.06402"
         id="path34811"
         sodipodi:nodetypes="ccccccc" />
      <path
         style="fill:none;stroke:#000000;stroke-width:0.109689;stroke-linecap:butt;stroke-linejoin:miter;stroke-miterlimit:4;stroke-dasharray:none;stroke-opacity:1"
         d="m 45.078672,36.474147 -0.733575,1.450871 0.431736,0.0018 0.72773,-1.473105 z"
         id="path35661"
         sodipodi:nodetypes="ccccc" />
      <path
         style="fill:none;stroke:#000000;stroke-width:0.109689;stroke-linecap:butt;stroke-linejoin:miter;stroke-miterlimit:4;stroke-dasharray:none;stroke-opacity:1"
         d="m 88.996285,38.11947 -0.733579,1.450872 0.431741,0.0018 0.727725,-1.473105 z"
         id="path35661-7"
         sodipodi:nodetypes="ccccc" />
      <path
         style="fill:none;stroke:#000000;stroke-width:0.109689;stroke-linecap:butt;stroke-linejoin:miter;stroke-miterlimit:4;stroke-dasharray:none;stroke-opacity:1"
         d="m 50.044604,59.850327 1.86023,-0.02341 0.04971,-6.637742 c 0,-1.608381 -1.925664,-1.757377 -1.925664,0 z"
         id="path40226"
         sodipodi:nodetypes="ccccc" />
      <path
         style="display:inline;fill:none;stroke:#000000;stroke-width:0.108128;stroke-linecap:butt;stroke-linejoin:miter;stroke-miterlimit:4;stroke-dasharray:none;stroke-opacity:1"
         d="m 53.229847,59.851117 1.84467,-0.01865 0.03808,-6.547691 c 0,-1.585483 -1.898249,-1.732357 -1.898249,0 z"
         id="path40226-6"
         sodipodi:nodetypes="ccccc" />
      <path
         style="display:inline;fill:none;stroke:#000000;stroke-width:0.107665;stroke-linecap:butt;stroke-linejoin:miter;stroke-miterlimit:4;stroke-dasharray:none;stroke-opacity:1"
         d="m 56.616157,59.851354 1.843037,-0.02643 0.03166,-6.511796 c 0,-1.578704 -1.890132,-1.724951 -1.890132,0 z"
         id="path40226-2"
         sodipodi:nodetypes="ccccc" />
      <path
         style="fill:none;stroke:#000000;stroke-width:0.107236;stroke-linecap:butt;stroke-linejoin:miter;stroke-miterlimit:4;stroke-dasharray:none;stroke-opacity:1"
         d="m 65.334248,86.643313 1.849049,0.03833 0.01821,-1.187746 c 0,-1.57241 -1.882596,-1.718073 -1.882596,0 z"
         id="path40226-3"
         sodipodi:nodetypes="ccccc" />
      <path
         style="display:inline;fill:none;stroke:#000000;stroke-width:0.10571;stroke-linecap:butt;stroke-linejoin:miter;stroke-miterlimit:4;stroke-dasharray:none;stroke-opacity:1"
         d="m 68.448251,86.697564 1.803416,0.02598 0.03723,-1.136128 c 0,-1.550022 -1.855794,-1.693612 -1.855794,0 z"
         id="path40226-6-9"
         sodipodi:nodetypes="ccccc" />
      <path
         style="display:inline;fill:none;stroke:#000000;stroke-width:0.105257;stroke-linecap:butt;stroke-linejoin:miter;stroke-miterlimit:4;stroke-dasharray:none;stroke-opacity:1"
         d="m 71.758827,86.751816 1.801818,0.01974 0.03095,-1.156537 c 0,-1.543395 -1.848031,-1.686371 -1.848031,0 z"
         id="path40226-2-4"
         sodipodi:nodetypes="ccccc" />
      <path
         style="fill:none;stroke:#000000;stroke-width:0.106228;stroke-linecap:butt;stroke-linejoin:miter;stroke-miterlimit:4;stroke-dasharray:none;stroke-opacity:1"
         d="m 80.030437,87.04965 1.801525,0.07561 0.04814,-1.425014 c 0,-1.557625 -1.864894,-1.701918 -1.864894,0 z"
         id="path40226-3-2"
         sodipodi:nodetypes="ccccc" />
      <path
         style="display:inline;fill:none;stroke:#000000;stroke-width:0.104715;stroke-linecap:butt;stroke-linejoin:miter;stroke-miterlimit:4;stroke-dasharray:none;stroke-opacity:1"
         d="m 83.11516,87.190591 1.786456,0.07206 0.03688,-1.469827 c 0,-1.535448 -1.838344,-1.677687 -1.838344,0 z"
         id="path40226-6-9-3"
         sodipodi:nodetypes="ccccc" />
      <path
         style="display:inline;fill:none;stroke:#000000;stroke-width:0.104268;stroke-linecap:butt;stroke-linejoin:miter;stroke-miterlimit:4;stroke-dasharray:none;stroke-opacity:1"
         d="m 86.394605,87.32062 1.784875,0.08315 0.03066,-1.583493 c 0,-1.528884 -1.830483,-1.670515 -1.830483,0 z"
         id="path40226-2-4-6"
         sodipodi:nodetypes="ccccc" />
      <path
         style="fill:none;stroke:#000000;stroke-width:0.106818;stroke-linecap:butt;stroke-linejoin:miter;stroke-miterlimit:4;stroke-dasharray:none;stroke-opacity:1"
         d="m 94.60025,60.885972 1.811542,-0.0228 0.04841,-6.464011 c 0,-1.566286 -1.875263,-1.711381 -1.875263,0 z"
         id="path40226-0"
         sodipodi:nodetypes="ccccc" />
      <path
         style="display:inline;fill:none;stroke:#000000;stroke-width:0.105298;stroke-linecap:butt;stroke-linejoin:miter;stroke-miterlimit:4;stroke-dasharray:none;stroke-opacity:1"
         d="m 97.702125,60.886741 1.796389,-0.01816 0.03709,-6.376318 c 0,-1.543986 -1.848566,-1.687016 -1.848566,0 z"
         id="path40226-6-0"
         sodipodi:nodetypes="ccccc" />
      <path
         style="display:inline;fill:none;stroke:#000000;stroke-width:0.104847;stroke-linecap:butt;stroke-linejoin:miter;stroke-miterlimit:4;stroke-dasharray:none;stroke-opacity:1"
         d="m 100.99981,60.886971 1.79479,-0.02574 0.0308,-6.341362 c 0,-1.537385 -1.84066,-1.679804 -1.84066,0 z"
         id="path40226-2-0"
         sodipodi:nodetypes="ccccc" />
      <path
         style="fill:none;stroke:#000000;stroke-width:0.109689;stroke-linecap:butt;stroke-linejoin:miter;stroke-miterlimit:4;stroke-dasharray:none;stroke-opacity:1"
         d="m 63.826621,61.699619 -19.120776,-0.04662 -4.970482,1.653477"
         id="path47861"
         sodipodi:nodetypes="ccc" />
      <path
         style="fill:none;stroke:#000000;stroke-width:0.109689;stroke-linecap:butt;stroke-linejoin:miter;stroke-miterlimit:4;stroke-dasharray:none;stroke-opacity:1"
         d="M 63.828015,75.41547 V 86.530347"
         id="path48713" />
      <path
         style="fill:none;stroke:#000000;stroke-width:0.109689;stroke-linecap:butt;stroke-linejoin:miter;stroke-miterlimit:4;stroke-dasharray:none;stroke-opacity:1"
         d="M 89.636541,74.394003 V 87.514692"
         id="path48828"
         sodipodi:nodetypes="cc" />
      <path
         style="fill:none;stroke:#000000;stroke-width:0.109689;stroke-linecap:butt;stroke-linejoin:miter;stroke-miterlimit:4;stroke-dasharray:none;stroke-opacity:1"
         d="M 107.9336,63.008389 89.621513,62.57292 85.391639,63.510304"
         id="path49088"
         sodipodi:nodetypes="ccc" />
      <path
         style="fill:none;stroke:#000000;stroke-width:0.109689;stroke-linecap:butt;stroke-linejoin:miter;stroke-miterlimit:4;stroke-dasharray:none;stroke-opacity:1"
         d="m 84.639175,61.643441 0.69475,-0.179934 0.01097,-6.536534 c -0.03686,-1.208759 -0.725243,-1.219684 -0.764732,0.227259 z"
         id="path49971"
         sodipodi:nodetypes="ccccc" />
      <path
         style="display:inline;fill:none;stroke:#000000;stroke-width:0.109689;stroke-linecap:butt;stroke-linejoin:miter;stroke-miterlimit:4;stroke-dasharray:none;stroke-opacity:1"
         d="m 85.861815,61.293622 0.69475,-0.179934 0.01097,-6.536533 c -0.03686,-1.20876 -0.725243,-1.219685 -0.764731,0.227258 z"
         id="path49971-9"
         sodipodi:nodetypes="ccccc" />
      <path
         style="display:inline;fill:none;stroke:#000000;stroke-width:0.109689;stroke-linecap:butt;stroke-linejoin:miter;stroke-miterlimit:4;stroke-dasharray:none;stroke-opacity:1"
         d="m 87.008747,60.956951 0.69475,-0.179934 0.01097,-6.536534 c -0.03686,-1.208759 -0.725243,-1.219684 -0.764732,0.227259 z"
         id="path49971-0"
         sodipodi:nodetypes="ccccc" />
      <path
         style="display:inline;fill:none;stroke:#000000;stroke-width:0.0805661;stroke-linecap:butt;stroke-linejoin:miter;stroke-miterlimit:4;stroke-dasharray:none;stroke-opacity:1"
         d="m 52.404216,73.523253 1.366326,-0.01711 0.0365,-4.875376 c 0,-1.181346 -1.414387,-1.290783 -1.414387,0 z"
         id="path40226-8"
         sodipodi:nodetypes="ccccc" />
      <path
         style="display:inline;fill:none;stroke:#000000;stroke-width:0.0794192;stroke-linecap:butt;stroke-linejoin:miter;stroke-miterlimit:4;stroke-dasharray:none;stroke-opacity:1"
         d="m 54.743755,73.523835 1.354898,-0.0136 0.02797,-4.809237 c 0,-1.164527 -1.394251,-1.272404 -1.394251,0 z"
         id="path40226-6-8"
         sodipodi:nodetypes="ccccc" />
      <path
         style="display:inline;fill:none;stroke:#000000;stroke-width:0.0770295;stroke-linecap:butt;stroke-linejoin:miter;stroke-miterlimit:4;stroke-dasharray:none;stroke-opacity:1"
         d="m 96.931063,74.116941 1.306348,-0.01636 0.0349,-4.661362 c 0,-1.129488 -1.3523,-1.234121 -1.3523,0 z"
         id="path40226-8-5"
         sodipodi:nodetypes="ccccc" />
      <path
         style="display:inline;fill:none;stroke:#000000;stroke-width:0.0759329;stroke-linecap:butt;stroke-linejoin:miter;stroke-miterlimit:4;stroke-dasharray:none;stroke-opacity:1"
         d="m 99.167903,74.117497 1.295427,-0.013 0.0267,-4.598127 c 0,-1.113407 -1.333049,-1.216549 -1.333049,0 z"
         id="path40226-6-8-1"
         sodipodi:nodetypes="ccccc" />
      <path
         style="display:inline;fill:none;stroke:#000000;stroke-width:0.109689;stroke-linecap:butt;stroke-linejoin:miter;stroke-miterlimit:4;stroke-dasharray:none;stroke-opacity:1"
         d="m 63.827147,72.267935 8.75e-4,3.14754 -19.122384,-0.142771 -4.91586,1.404687"
         id="path47861-0"
         sodipodi:nodetypes="cccc" />
      <path
         style="fill:none;stroke:#000000;stroke-width:0.109689;stroke-linecap:butt;stroke-linejoin:miter;stroke-miterlimit:4;stroke-dasharray:none;stroke-opacity:1"
         d="m 89.64618,76.066266 18.26966,0.11276"
         id="path48958"
         sodipodi:nodetypes="cc" />
      <path
         style="display:inline;fill:none;stroke:#000000;stroke-width:0.102532;stroke-linecap:butt;stroke-linejoin:miter;stroke-miterlimit:4;stroke-dasharray:none;stroke-opacity:1"
         d="m 41.901238,74.521807 0.607049,-0.179934 0.0097,-4.385824 c -0.0322,-1.20876 -0.633694,-1.219685 -0.668196,0.227258 z"
         id="path49971-9-0-4"
         sodipodi:nodetypes="ccccc" />
      <path
         style="fill:none;stroke:#000000;stroke-width:0.102532;stroke-linecap:butt;stroke-linejoin:miter;stroke-miterlimit:4;stroke-dasharray:none;stroke-opacity:1"
         d="m 40.866013,61.195343 0.607049,-0.179934 0.0097,-6.536534 c -0.0322,-1.208759 -0.633692,-1.219684 -0.668196,0.227259 z"
         id="path49971-2"
         sodipodi:nodetypes="ccccc" />
      <path
         style="display:inline;fill:none;stroke:#000000;stroke-width:0.102532;stroke-linecap:butt;stroke-linejoin:miter;stroke-miterlimit:4;stroke-dasharray:none;stroke-opacity:1"
         d="m 41.934314,60.845524 0.607048,-0.179934 0.0097,-6.536533 c -0.0322,-1.20876 -0.633694,-1.219685 -0.668196,0.227258 z"
         id="path49971-9-0"
         sodipodi:nodetypes="ccccc" />
      <path
         style="display:inline;fill:none;stroke:#000000;stroke-width:0.102532;stroke-linecap:butt;stroke-linejoin:miter;stroke-miterlimit:4;stroke-dasharray:none;stroke-opacity:1"
         d="m 42.936463,60.508853 0.607048,-0.179934 0.0097,-6.536534 c -0.03221,-1.208759 -0.633692,-1.219684 -0.668196,0.227259 z"
         id="path49971-0-0"
         sodipodi:nodetypes="ccccc" />
      <path
         style="fill:none;stroke:#000000;stroke-width:0.109689;stroke-linecap:butt;stroke-linejoin:miter;stroke-miterlimit:4;stroke-dasharray:none;stroke-opacity:1"
         d="m 54.138685,84.765972 0.691485,-0.0064 -4.43e-4,-3.077786 c 0,-0.490687 -0.691042,-0.484959 -0.691042,-0.0065 z"
         id="path57521"
         sodipodi:nodetypes="ccccc" />
      <path
         style="display:inline;fill:none;stroke:#000000;stroke-width:0.108314;stroke-linecap:butt;stroke-linejoin:miter;stroke-miterlimit:4;stroke-dasharray:none;stroke-opacity:1"
         d="m 98.54861,85.373769 0.682843,-0.0064 -4.37e-4,-3.039205 c 0,-0.484537 -0.682406,-0.47888 -0.682406,-0.0065 z"
         id="path57521-8"
         sodipodi:nodetypes="ccccc" />
    </g>
    <g
       inkscape:label="Hershey Text"
       style="fill:none;stroke:#000000;stroke-linecap:round;stroke-linejoin:round"
       id="g90295"
       transform="translate(13.083185)">
      <g
         transform="translate(3.51352,94.5812)"
         id="g90293">
        <path
           d="M 536,598 504,536 441,378 378,189 346,126 284,31.5 220,0 m 126,472 -31,-62 -63,-32 h -63 l -31,63 v 63 l 31,63 63,63 94,32 H 662 L 567,630 536,598 504,504 441,252 410,158 378,94.5 315,31.5 220,0 H 158 L 94.5,31.5 63,63 V 94.5 L 94.5,126 126,94.5 94.5,63 M 410,662 536,630 h 31 m -283,-378 31,32 63,31 h 126 l 63,31 63,95 -63,-221"
           style="stroke-width:0.1845in"
           transform="scale(0.00740833,-0.00740833)"
           id="path90231" />
        <path
           d="m 31.5,158 63,94 63.5,32 62,-32 V 189 L 158,0 m 0,284 31,-32 V 189 L 126,0 m 94,189 64,63 62,32 h 32 l -32,-95 m 0,95 v -95 l 32,-63 h 32 l 62,32"
           style="stroke-width:0.1845in"
           transform="matrix(0.00740833,0,0,-0.00740833,4.90431,0)"
           id="path90233" />
        <path
           d="M 252,284 H 189 L 126,252 94.5,220 63,158 V 94.5 L 94.5,31.5 158,0 h 62 l 64,31.5 31,31.5 31,63 v 63 l -31,63 -63,32 -32,-32 v -63 l 32,-63 63,-31.5 h 63 l 63,31.5 31,32 M 189,284 126,220 94.5,158 V 63 L 158,0"
           style="stroke-width:0.1845in"
           transform="matrix(0.00740833,0,0,-0.00740833,8.17139,0)"
           id="path90235" />
        <path
           d="m 31.5,158 63,94 63.5,126 M 252,662 31.5,0 M 284,662 63,0 m 63,189 63,63 63,32 h 32 l 62,-32 V 189 L 315,94.5 v -63 L 346,0 m -62,284 31,-32 V 189 L 284,94.5 v -63 L 346,0 l 64,31.5 31,31.5 63,95"
           style="stroke-width:0.1845in"
           transform="matrix(0.00740833,0,0,-0.00740833,11.4385,0)"
           id="path90237" />
        <path
           d="m 126,63 63,31.5 31,31.5 32,63 v 63 l -32,32 H 189 L 126,252 94.5,220 63,158 V 94.5 L 94.5,31.5 158,0 h 94 l 94,63 64,95 M 189,284 126,220 94.5,158 V 63 L 158,0"
           style="stroke-width:0.1845in"
           transform="matrix(0.00740833,0,0,-0.00740833,14.9352,0)"
           id="path90239" />
        <path
           d="M 126,472 H 94.5 L 63,504 v 63 l 31.5,63 63.5,32 H 284 L 252,598 220,472 189,189 158,0 m 62,472 V 189 L 189,0 M 536,662 472,598 410,472 315,189 252,63 189,0 M 536,662 504,598 472,472 441,189 410,0 m 62,472 V 189 L 441,0 M 850,662 788,630 724,567 662,472 567,189 504,63 441,0"
           style="stroke-width:0.1845in"
           transform="matrix(0.00740833,0,0,-0.00740833,20.5359,0)"
           id="path90241" />
        <path
           d="m 126,63 63,31.5 31,31.5 32,63 v 63 l -32,32 H 189 L 126,252 94.5,220 63,158 V 94.5 L 94.5,31.5 158,0 h 94 l 94,63 64,95 M 189,284 126,220 94.5,158 V 63 L 158,0"
           style="stroke-width:0.1845in"
           transform="matrix(0.00740833,0,0,-0.00740833,25.8995,0)"
           id="path90243" />
        <path
           d="m 189,472 -31,-31 31,-31 31,31 -31,31 M 126,284 63,94.5 v -63 L 126,0 189,31.5 220,63 284,158 M 158,284 94.5,94.5 v -63 L 126,0"
           style="stroke-width:0.1845in"
           transform="matrix(0.00740833,0,0,-0.00740833,28.6999,0)"
           id="path90245" />
        <path
           d="m 31.5,158 63,94 63.5,126 M 252,662 31.5,0 M 284,662 63,0 m 63,189 63,63 63,32 h 32 l 62,-32 V 189 L 315,94.5 v -63 L 346,0 m -62,284 31,-32 V 189 L 284,94.5 v -63 L 346,0 l 64,31.5 31,31.5 63,95"
           style="stroke-width:0.1845in"
           transform="matrix(0.00740833,0,0,-0.00740833,30.5668,0)"
           id="path90247" />
        <path
           d="m 31.5,158 63,94 63.5,32 62,-32 V 189 L 158,0 m 0,284 31,-32 V 189 L 126,0 m 94,189 64,63 62,32 h 32 l 63,-32 V 189 L 410,94.5 v -63 L 441,0 m -63,284 32,-32 V 189 L 378,94.5 v -63 L 441,0 l 63,31.5 32,31.5 62,95"
           style="stroke-width:0.1845in"
           transform="matrix(0.00740833,0,0,-0.00740833,34.0635,0)"
           id="path90249" />
        <path
           d="m 346,189 -31,63 -63,32 H 189 L 126,252 94.5,220 63,158 V 94.5 L 94.5,31.5 158,0 h 62 l 64,31.5 31,63 M 189,284 126,220 94.5,158 V 63 L 158,0 M 378,284 315,94.5 v -63 L 378,0 441,31.5 472,63 536,158 M 410,284 346,94.5 v -63 L 378,0"
           style="stroke-width:0.1845in"
           transform="matrix(0.00740833,0,0,-0.00740833,38.264,0)"
           id="path90251" />
        <path
           d="m 284,252 -32,-32 h 32 v 32 l -32,32 H 189 L 126,252 94.5,220 63,158 V 94.5 L 94.5,31.5 158,0 h 94 l 94,63 64,95 M 189,284 126,220 94.5,158 V 63 L 158,0"
           style="stroke-width:0.1845in"
           transform="matrix(0.00740833,0,0,-0.00740833,41.9978,0)"
           id="path90253" />
        <path
           d="m 31.5,158 63,94 63.5,126 M 252,662 31.5,0 M 284,662 63,0 m 63,189 63,63 63,32 h 32 l 62,-32 V 189 L 315,94.5 v -63 L 346,0 m -62,284 31,-32 V 189 L 284,94.5 v -63 L 346,0 l 64,31.5 31,31.5 63,95"
           style="stroke-width:0.1845in"
           transform="matrix(0.00740833,0,0,-0.00740833,44.7982,0)"
           id="path90255" />
        <path
           d="m 31.5,158 63,94 63.5,126 M 252,662 63,94.5 v -63 L 126,0 189,31.5 220,63 284,158 M 284,662 94.5,94.5 v -63 L 126,0 M 94.5,410 H 284"
           style="stroke-width:0.1845in"
           transform="matrix(0.00740833,0,0,-0.00740833,48.2949,0)"
           id="path90257" />
        <path
           d="m 126,63 63,31.5 31,31.5 32,63 v 63 l -32,32 H 189 L 126,252 94.5,220 63,158 V 94.5 L 94.5,31.5 158,0 h 94 l 94,63 64,95 M 189,284 126,220 94.5,158 V 63 L 158,0"
           style="stroke-width:0.1845in"
           transform="matrix(0.00740833,0,0,-0.00740833,50.1618,0)"
           id="path90259" />
        <path
           d="m 31.5,158 63,94 63.5,32 62,-32 V 189 L 158,0 m 0,284 31,-32 V 189 L 126,0 m 94,189 64,63 62,32 h 32 l 63,-32 V 189 L 410,94.5 v -63 L 441,0 m -63,284 32,-32 V 189 L 378,94.5 v -63 L 441,0 l 63,31.5 32,31.5 62,95"
           style="stroke-width:0.1845in"
           transform="matrix(0.00740833,0,0,-0.00740833,52.9622,0)"
           id="path90261" />
        <path
           d="m 31.5,158 63,94 63.5,32 62,-32 V 189 L 158,0 m 0,284 31,-32 V 189 L 126,0 m 94,189 64,63 62,32 h 32 l 63,-32 V 189 L 410,94.5 v -63 L 441,0 m -63,284 32,-32 V 189 L 378,94.5 v -63 L 441,0 l 63,31.5 32,31.5 62,95"
           style="stroke-width:0.1845in"
           transform="matrix(0.00740833,0,0,-0.00740833,59.963,0)"
           id="path90263" />
        <path
           d="m 346,189 -31,63 -63,32 H 189 L 126,252 94.5,220 63,158 V 94.5 L 94.5,31.5 158,0 h 62 l 64,31.5 31,63 M 189,284 126,220 94.5,158 V 63 L 158,0 M 378,284 315,94.5 v -63 L 378,0 441,31.5 472,63 536,158 M 410,284 346,94.5 v -63 L 378,0"
           style="stroke-width:0.1845in"
           transform="matrix(0.00740833,0,0,-0.00740833,64.1635,0)"
           id="path90265" />
        <path
           d="m 284,252 -32,-32 h 32 v 32 l -32,32 H 189 L 126,252 94.5,220 63,158 V 94.5 L 94.5,31.5 158,0 h 94 l 94,63 64,95 M 189,284 126,220 94.5,158 V 63 L 158,0"
           style="stroke-width:0.1845in"
           transform="matrix(0.00740833,0,0,-0.00740833,67.8973,0)"
           id="path90267" />
        <path
           d="m 31.5,158 63,94 63.5,126 M 252,662 31.5,0 M 284,662 63,0 m 63,189 63,63 63,32 h 32 l 62,-32 V 189 L 315,94.5 v -63 L 346,0 m -62,284 31,-32 V 189 L 284,94.5 v -63 L 346,0 l 64,31.5 31,31.5 63,95"
           style="stroke-width:0.1845in"
           transform="matrix(0.00740833,0,0,-0.00740833,70.6977,0)"
           id="path90269" />
        <path
           d="m 441,536 v -64 l -31,-62 -32,-32 -63,-32 h -63 l -32,64 v 62 l 32,95 63,63 95,32 h 94 l 63,-32 31,-63 V 441 L 567,346 504,252 378,126 284,63 220,31.5 126,0 H 63 L 31.5,31.5 v 63 L 63,126 h 63 L 189,94.5 284,31.5 378,0 h 94 l 64,31.5 62,63 M 504,662 536,630 567,567 V 441 L 536,346 472,252 378,158 252,63 126,0"
           style="stroke-width:0.1845in"
           transform="matrix(0.00740833,0,0,-0.00740833,76.9948,0)"
           id="path90271" />
        <path
           d="M 126,284 63,94.5 v -63 L 126,0 h 32 l 62,31.5 64,63 62,94.5 M 158,284 94.5,94.5 v -63 L 126,0 M 378,284 315,94.5 v -63 L 378,0 441,31.5 472,63 536,158 M 410,284 346,94.5 v -63 L 378,0"
           style="stroke-width:0.1845in"
           transform="matrix(0.00740833,0,0,-0.00740833,81.8991,0)"
           id="path90273" />
        <path
           d="m 126,63 63,31.5 31,31.5 32,63 v 63 l -32,32 H 189 L 126,252 94.5,220 63,158 V 94.5 L 94.5,31.5 158,0 h 94 l 94,63 64,95 M 189,284 126,220 94.5,158 V 63 L 158,0"
           style="stroke-width:0.1845in"
           transform="matrix(0.00740833,0,0,-0.00740833,85.6329,0)"
           id="path90275" />
        <path
           d="m 346,189 -31,63 -63,32 H 189 L 126,252 94.5,220 63,158 V 94.5 L 94.5,31.5 158,0 h 62 l 64,31.5 31,63 M 189,284 126,220 94.5,158 V 63 L 158,0 M 504,662 315,94.5 v -63 L 378,0 441,31.5 472,63 536,158 M 536,662 346,94.5 v -63 L 378,0"
           style="stroke-width:0.1845in"
           transform="matrix(0.00740833,0,0,-0.00740833,88.4332,0)"
           id="path90277" />
        <path
           d="m 31.5,158 63,94 63.5,126 M 252,662 63,94.5 v -63 L 126,0 189,31.5 220,63 284,158 M 284,662 94.5,94.5 v -63 L 126,0"
           style="stroke-width:0.1845in"
           transform="matrix(0.00740833,0,0,-0.00740833,92.167,0)"
           id="path90279" />
        <path
           d="m 189,472 -31,-31 31,-31 31,31 -31,31 M 126,284 63,94.5 v -63 L 126,0 189,31.5 220,63 284,158 M 158,284 94.5,94.5 v -63 L 126,0"
           style="stroke-width:0.1845in"
           transform="matrix(0.00740833,0,0,-0.00740833,94.0339,0)"
           id="path90281" />
        <path
           d="m 31.5,158 63,94 63.5,32 62,-32 V 189 L 158,0 m 0,284 31,-32 V 189 L 126,0 m 94,189 64,63 62,32 h 32 l 63,-32 V 189 L 410,94.5 v -63 L 441,0 m -63,284 32,-32 V 189 L 378,94.5 v -63 L 441,0 l 63,31.5 32,31.5 62,95"
           style="stroke-width:0.1845in"
           transform="matrix(0.00740833,0,0,-0.00740833,95.9008,0)"
           id="path90283" />
        <path
           d="m 31.5,158 63,94 63.5,126 M 252,662 63,94.5 v -63 L 126,0 h 32 l 62,31.5 64,63 31,94.5 v 95 l 31,-126 32,-32 h 32 l 62,32 M 284,662 94.5,94.5 v -63 L 126,0"
           style="stroke-width:0.1845in"
           transform="matrix(0.00740833,0,0,-0.00740833,100.101,0)"
           id="path90285" />
        <path
           d="M 126,284 63,94.5 v -63 L 126,0 h 32 l 62,31.5 64,63 62,94.5 M 158,284 94.5,94.5 v -63 L 126,0 M 378,284 315,94.5 v -63 L 378,0 441,31.5 472,63 536,158 M 410,284 346,94.5 v -63 L 378,0"
           style="stroke-width:0.1845in"
           transform="matrix(0.00740833,0,0,-0.00740833,103.368,0)"
           id="path90287" />
        <path
           d="m 31.5,158 63,94 63.5,32 62,-32 V 189 L 158,0 m 0,284 31,-32 V 189 L 126,0 m 94,189 64,63 62,32 h 32 l -32,-95 m 0,95 v -95 l 32,-63 h 32 l 62,32"
           style="stroke-width:0.1845in"
           transform="matrix(0.00740833,0,0,-0.00740833,107.102,0)"
           id="path90289" />
        <path
           d="m 346,189 -31,63 -63,32 H 189 L 126,252 94.5,220 63,158 V 94.5 L 94.5,31.5 158,0 h 62 l 64,31.5 31,63 M 189,284 126,220 94.5,158 V 63 L 158,0 M 378,284 189,-284 M 410,284 315,0 252,-158 189,-284 158,-346 94.5,-378 63,-346 v 62 l 31.5,95 63.5,63 94,63 126,63 94,63 64,95"
           style="stroke-width:0.1845in"
           transform="matrix(0.00740833,0,0,-0.00740833,110.369,0)"
           id="path90291" />
      </g>
    </g>
  </g>
  <WCB
     layer="-1"
     node="0"
     lastpath="0"
     lastpathnc="0"
     lastknownposx="0"
     lastknownposy="0"
     pausedposx="0"
     pausedposy="0"
     randseed="0"
     row="0"
     application="Axidraw" />
</svg>
