<?xml version="1.0" encoding="UTF-8" standalone="no"?>
<svg
   height="10.50000567cm"
   version="1.2"
   viewBox="0 0 559.3703808 396.85060799999997"
   width="14.80000799cm"
   id="svg58274"
   sodipodi:docname="halberstadt-optim.svg"
   inkscape:version="1.1.1 (3bf5ae0d25, 2021-09-20, custom)"
   xmlns:inkscape="http://www.inkscape.org/namespaces/inkscape"
   xmlns:sodipodi="http://sodipodi.sourceforge.net/DTD/sodipodi-0.dtd"
   xmlns="http://www.w3.org/2000/svg"
   xmlns:svg="http://www.w3.org/2000/svg"
   xmlns:rdf="http://www.w3.org/1999/02/22-rdf-syntax-ns#"
   xmlns:cc="http://creativecommons.org/ns#"
   xmlns:dc="http://purl.org/dc/elements/1.1/">
  <sodipodi:namedview
     id="namedview58276"
     pagecolor="#ffffff"
     bordercolor="#666666"
     borderopacity="1.0"
     inkscape:pageshadow="2"
     inkscape:pageopacity="0.0"
     inkscape:pagecheckerboard="0"
     inkscape:document-units="cm"
     showgrid="false"
     inkscape:zoom="1.653015"
     inkscape:cx="279.79178"
     inkscape:cy="198.4253"
     inkscape:current-layer="layer1" />
  <metadata
     id="metadata58061">
    <rdf:RDF>
      <cc:Work>
        <dc:format>image/svg+xml</dc:format>
        <dc:source>vpype read halberstadt.svg deduplicate linesimplify linemerge linesort write halberstadt-optim.svg
</dc:source>
        <dc:date>2021-12-21T18:19:25.028366</dc:date>
      </cc:Work>
    </rdf:RDF>
  </metadata>
  <defs
     id="defs58063" />
  <g
     fill="none"
     id="layer1"
     inkscape:groupmode="layer"
     inkscape:label="1"
     stroke="#00f"
     style="display:inline">
    <polyline
       points="74.6275,61.4198 69.8827,61.4198 69.8827,61.4198 69.8827,68.145 69.8827,68.145 69.4718,73.1737 69.4718,73.1737 68.9914,73.3847 68.9914,73.3847 68.593,73.6241 68.593,73.6241 68.2785,73.8861 68.2785,73.8861 68.0494,74.165 68.0494,74.165 67.9074,74.4549 67.9074,74.4549 67.8544,74.7501 67.8544,74.7501 67.8919,75.0449 67.8919,75.0449 68.0216,75.3335 68.0216,75.3335 68.2453,75.61 68.2453,75.61 68.5647,75.8688 68.5647,75.8688 68.9814,76.1041 68.9814,76.1041 69.4971,76.3101 69.4971,76.3101 69.3827,78.507 69.3827,78.507 68.4902,85.0616 68.4902,85.0616 51.2633,180.5815 51.2633,180.5815 49.6481,183.0583 49.6481,183.0583 47.2257,224.2944 47.2257,224.2944 42.6642,226.5258 42.6642,226.5258 47.7433,226.5258 47.7433,226.5258 47.7433,281.5608"
       id="polyline58065" />
    <polyline
       points="45.0668,324.758 49.1927,325.8017 49.1927,325.8017 50.2078,325.8017"
       id="polyline58067" />
    <polyline
       points="49.1927,326.8454 50.2078,325.8017 50.2078,325.8017 53.3186,324.758 53.3186,324.758 42.9712,324.758 42.9712,324.758 39.8931,325.8017 39.8931,325.8017 37.8302,327.8565 37.8302,327.8565 36.8151,329.9112 36.8151,329.9112 36.8151,331.966 36.8151,331.966 37.8302,334.0207 37.8302,334.0207 39.8931,334.0207 39.8931,334.0207 41.9561,332.9771 41.9561,332.9771 42.9712,330.9549"
       id="polyline58069" />
    <polyline
       points="40.941,338.1302 41.9561,337.0866 41.9561,337.0866 44.019,336.0755 44.019,336.0755 48.1449,336.0755 48.1449,336.0755 50.2078,335.0644 50.2078,335.0644 52.2707,331.966 52.2707,331.966 50.2078,339.1739"
       id="polyline58071" />
    <polyline
       points="54.35,341.1961 56.413,338.1302 56.413,338.1302 58.4923,337.0866 58.4923,337.0866 60.5225,338.1302 60.5225,338.1302 60.5225,340.185 60.5225,340.185 58.4923,346.3493"
       id="polyline58073" />
    <polyline
       points="57.4444,346.3493 59.5074,340.185 59.5074,340.185 59.5074,338.1302 59.5074,338.1302 58.4923,337.0866"
       id="polyline58075" />
    <polyline
       points="60.5225,340.185 62.6181,338.1302 62.6181,338.1302 64.6483,337.0866 64.6483,337.0866 64.6483,340.185 64.6483,340.185 65.6962,342.2398 65.6962,342.2398 66.744,342.2398 66.744,342.2398 68.7742,341.1961"
       id="polyline58077" />
    <polyline
       points="64.6483,340.185 65.6962,337.0866 65.6962,337.0866 64.6483,337.0866"
       id="polyline58079" />
    <polyline
       points="73.948,337.0866 71.885,338.1302 71.885,338.1302 70.8536,339.1739 70.8536,339.1739 69.8221,341.1961 69.8221,341.1961 69.8221,343.2671 69.8221,343.2671 70.8536,345.3219 70.8536,345.3219 72.9329,346.3493"
       id="polyline58081" />
    <polyline
       points="76.0109,337.0866 73.948,337.0866 73.948,337.0866 71.885,339.1739 71.885,339.1739 70.8536,341.1961 70.8536,341.1961 70.8536,344.2945 70.8536,344.2945 72.9329,346.3493 72.9329,346.3493 74.9631,346.3493 74.9631,346.3493 77.0587,345.3219 77.0587,345.3219 78.0738,344.2945 78.0738,344.2945 79.0889,342.2398 79.0889,342.2398 79.0889,340.185 79.0889,340.185 78.0738,338.1302 78.0738,338.1302 76.0109,337.0866 76.0109,337.0866 74.9631,338.1302 74.9631,338.1302 74.9631,340.185 74.9631,340.185 76.0109,342.2398 76.0109,342.2398 78.0738,343.2671 78.0738,343.2671 80.1368,343.2671 80.1368,343.2671 82.1997,342.2398 82.1997,342.2398 83.2148,341.1961 83.2311,341.1961 85.294,338.1302 85.294,338.1302 87.3733,334.0207"
       id="polyline58083" />
    <polyline
       points="91.4992,337.0866 93.5294,338.1302 93.5294,338.1302 93.5294,340.185 93.5294,340.185 92.5143,343.2671 92.5143,343.2671 92.5143,345.3219 92.5143,345.3219 93.5294,346.3493"
       id="polyline58085" />
    <polyline
       points="98.7031,341.1961 96.6401,344.2945 96.6401,344.2945 95.625,345.3219 95.625,345.3219 93.5294,346.3493 93.5294,346.3493 91.4992,345.3219 91.4992,345.3219 91.4992,343.2671 91.4992,343.2671 92.5143,340.185 92.5143,340.185 92.5143,338.1302 92.5143,338.1302 91.4992,337.0866 91.4992,337.0866 90.4513,337.0866 90.4513,337.0866 88.3884,338.1302 88.3884,338.1302 86.3255,340.185"
       id="polyline58087" />
    <line
       x1="84.2625"
       x2="91.4992"
       y1="346.3493"
       y2="324.758"
       id="line58089" />
    <line
       x1="90.4513"
       x2="83.2311"
       y1="324.758"
       y2="346.3493"
       id="line58091" />
    <polyline
       points="101.781,344.2945 103.844,343.2671 103.844,343.2671 104.8591,342.2398 104.8591,342.2398 105.9069,340.185 105.9069,340.185 105.9069,338.1302 105.9069,338.1302 104.8591,337.0866 104.8591,337.0866 103.844,337.0866 103.844,337.0866 101.781,339.1739 101.781,339.1739 100.7496,341.1961 100.7496,341.1961 100.7496,344.2945 100.7496,344.2945 102.8289,346.3493 102.8289,346.3493 105.9069,346.3493 105.9069,346.3493 108.9849,344.2945 108.9849,344.2945 111.0806,341.1961"
       id="polyline58093" />
    <polyline
       points="103.844,337.0866 101.781,338.1302 101.781,338.1302 100.7496,339.1739 100.7496,339.1739 99.7181,341.1961 99.7181,341.1961 99.7181,343.2671 99.7181,343.2671 100.7496,345.3219 100.7496,345.3219 102.8289,346.3493"
       id="polyline58095" />
    <polyline
       points="127.5841,346.3493 128.5992,340.185 128.5992,340.185 129.6143,330.9549 129.6143,330.9549 130.6622,326.8454 130.6622,326.8454 131.71,324.758 131.71,324.758 127.5841,324.758 127.5841,324.758 125.5048,325.8017 125.5048,325.8017 124.4734,327.8565 124.4734,327.8565 124.4734,329.9112 124.4734,329.9112 125.5048,330.9549 125.5048,330.9549 126.5363,330.9549"
       id="polyline58097" />
    <polyline
       points="129.6143,330.9549 129.6143,340.185 129.6143,340.185 128.5992,346.3493 128.5992,346.3493 130.6622,344.2945 130.6622,344.2945 132.7251,340.185 132.7251,340.185 135.8359,330.9549 135.8359,330.9549 137.8661,326.8454 137.8661,326.8454 139.9617,324.758 139.9617,324.758 138.9139,326.8454 138.9139,326.8454 137.8661,330.9549 137.8661,330.9549 136.851,340.185 136.851,340.185 135.8359,346.3493"
       id="polyline58099" />
    <polyline
       points="150.2436,344.2945 152.3066,343.2671 152.3066,343.2671 153.3217,342.2398 153.3217,342.2398 154.3695,340.185 154.3695,340.185 154.3695,338.1302 154.3695,338.1302 153.3217,337.0866 153.3217,337.0866 152.3066,337.0866 152.3066,337.0866 150.2436,339.1739 150.2436,339.1739 149.2122,341.1961 149.2122,341.1961 149.2122,344.2945 149.2122,344.2945 151.2915,346.3493 151.2915,346.3493 154.3695,346.3493 154.3695,346.3493 157.4475,344.2945 157.4475,344.2945 159.5432,341.1961"
       id="polyline58101" />
    <polyline
       points="162.6213,337.0866 160.5583,343.2671 160.5583,343.2671 160.5583,345.3219 160.5583,345.3219 162.6213,346.3493 162.6213,346.3493 164.6842,345.3219 164.6842,345.3219 165.6993,344.2945 165.6993,344.2945 167.795,341.1961 167.7786,341.1961 169.8416,338.1302 169.8416,338.1302 171.9209,334.0207"
       id="polyline58103" />
    <polyline
       points="176.0467,337.0866 178.0769,338.1302 178.0769,338.1302 178.0769,340.185 178.0769,340.185 177.0618,343.2671 177.0618,343.2671 177.0618,345.3219 177.0618,345.3219 178.0769,346.3493"
       id="polyline58105" />
    <polyline
       points="186.3286,346.3493 188.3915,340.185 188.3915,340.185 188.3915,338.1302 188.3915,338.1302 187.3764,337.0866 187.3764,337.0866 185.2971,338.1302 185.2971,338.1302 183.2342,341.1961 183.2506,341.1961 181.1877,344.2945 181.1877,344.2945 180.1726,345.3219 180.1726,345.3219 178.0769,346.3493 178.0769,346.3493 176.0467,345.3219 176.0467,345.3219 176.0467,343.2671 176.0467,343.2671 177.0618,340.185 177.0618,340.185 177.0618,338.1302 177.0618,338.1302 176.0467,337.0866 176.0467,337.0866 174.9989,337.0866 174.9989,337.0866 172.936,338.1302 172.936,338.1302 170.873,340.185"
       id="polyline58107" />
    <line
       x1="168.8101"
       x2="176.0467"
       y1="346.3493"
       y2="324.758"
       id="line58109" />
    <line
       x1="174.9989"
       x2="167.7786"
       y1="324.758"
       y2="346.3493"
       id="line58111" />
    <polyline
       points="162.6213,346.3493 161.5898,345.3219 161.5898,345.3219 161.5898,343.2671 161.5898,343.2671 163.6691,337.0866"
       id="polyline58113" />
    <polygon
       points="164.6842,330.9549 165.6993,331.966 165.6993,331.966 164.6842,332.9771 164.6842,332.9771 163.6691,331.966 163.6691,331.966"
       id="polygon58115" />
    <polyline
       points="152.3066,337.0866 150.2436,338.1302 150.2436,338.1302 149.2122,339.1739 149.2122,339.1739 148.1807,341.1961 148.1807,341.1961 148.1807,343.2671 148.1807,343.2671 149.2122,345.3219 149.2122,345.3219 151.2915,346.3493"
       id="polyline58117" />
    <polyline
       points="137.8661,330.9549 137.8661,340.185 137.8661,340.185 136.851,346.3493 136.851,346.3493 138.9139,344.2945 138.9139,344.2945 140.9768,340.185 140.9768,340.185 144.0876,330.9549 144.0876,330.9549 146.1178,327.8565 146.1178,327.8565 148.2135,325.8017 148.2135,325.8017 150.2437,324.758"
       id="polyline58119" />
    <polyline
       points="187.3764,337.0866 189.4066,338.1302 189.4066,338.1302 189.4066,340.185 189.4066,340.185 191.5023,338.1302 191.5023,338.1302 193.5325,337.0866 193.5325,337.0866 194.5803,337.0866 194.5803,337.0866 195.6282,338.1302 195.6282,338.1302 195.6282,340.185 195.6282,340.185 194.5803,343.2671 194.5803,343.2671 194.5803,345.3219 194.5803,345.3219 196.6433,346.3493 196.6433,346.3493 198.7062,345.3219 198.7062,345.3219 199.754,344.2945 199.754,344.2945 201.7842,341.1961"
       id="polyline58121" />
    <polyline
       points="206.9578,337.0866 204.8949,339.1739 204.8949,339.1739 203.8634,341.1961 203.8634,341.1961 203.8634,344.2945 203.8634,344.2945 205.9427,346.3493"
       id="polyline58123" />
    <line
       x1="211.0837"
       x2="213.1466"
       y1="343.2671"
       y2="337.0866"
       id="line58125" />
    <polyline
       points="214.1945,337.0866 212.0988,343.2671 212.0988,343.2671 212.0988,345.3219 212.0988,345.3219 213.1466,346.3493"
       id="polyline58127" />
    <polyline
       points="212.0988,340.185 211.0837,338.1302 211.0837,338.1302 209.0208,337.0866 209.0208,337.0866 206.9578,337.0866 206.9578,337.0866 204.8949,338.1302 204.8949,338.1302 203.8634,339.1739 203.8634,339.1739 202.832,341.1961 202.832,341.1961 202.832,343.2671 202.832,343.2671 203.8634,345.3219 203.8634,345.3219 205.9427,346.3493 205.9427,346.3493 207.9729,346.3493 207.9729,346.3493 210.0686,345.3219 210.0686,345.3219 211.0837,343.2671 211.0837,343.2671 211.0837,345.3219 211.0837,345.3219 213.1466,346.3493 213.1466,346.3493 215.2096,345.3219 215.2096,345.3219 216.2247,344.2945 216.2247,344.2945 218.3203,341.1961"
       id="polyline58129" />
    <polyline
       points="223.4614,337.0866 221.3984,338.1302 221.3984,338.1302 220.367,339.1739 220.367,339.1739 219.3355,341.1961 219.3355,341.1961 219.3355,343.2671 219.3355,343.2671 220.367,345.3219 220.367,345.3219 222.4463,346.3493"
       id="polyline58131" />
    <line
       x1="230.6817"
       x2="237.9019"
       y1="346.3493"
       y2="324.758"
       id="line58133" />
    <line
       x1="238.9498"
       x2="231.7131"
       y1="324.758"
       y2="346.3493"
       id="line58135" />
    <polyline
       points="233.7761,340.185 235.839,338.1302 235.839,338.1302 237.9019,337.0866 237.9019,337.0866 238.9498,337.0866 238.9498,337.0866 240.98,338.1302 240.98,338.1302 240.98,340.185 240.98,340.185 239.9649,343.2671 239.9649,343.2671 239.9649,345.3219 239.9649,345.3219 240.98,346.3493 240.98,346.3493 243.0756,345.3219 243.0756,345.3219 244.0907,344.2945 244.0907,344.2945 246.1537,341.1961 246.1372,341.1961 248.2002,338.1302 248.2002,338.1302 250.2795,334.0207"
       id="polyline58137" />
    <line
       x1="248.2002"
       x2="254.4053"
       y1="332.9771"
       y2="332.9771"
       id="line58139" />
    <polyline
       points="259.5463,337.0866 257.4834,338.1302 257.4834,338.1302 256.4519,339.1739 256.4519,339.1739 255.4205,341.1961 255.4205,341.1961 255.4205,343.2671 255.4205,343.2671 256.4519,345.3219 256.4519,345.3219 258.5312,346.3493"
       id="polyline58141" />
    <polyline
       points="257.4834,344.2945 259.5463,343.2671 259.5463,343.2671 260.5614,342.2398 260.5614,342.2398 261.6093,340.185 261.6093,340.185 261.6093,338.1302 261.6093,338.1302 260.5614,337.0866 260.5614,337.0866 259.5463,337.0866 259.5463,337.0866 257.4834,339.1739 257.4834,339.1739 256.4519,341.1961 256.4519,341.1961 256.4519,344.2945 256.4519,344.2945 258.5312,346.3493 258.5312,346.3493 261.6093,346.3493 261.6093,346.3493 264.6873,344.2945 264.6873,344.2945 266.783,341.1961 266.7666,341.1961 268.8296,338.1302 268.8296,338.1302 270.9089,337.0866 270.9089,337.0866 271.924,338.1302 271.924,338.1302 271.924,340.185 271.924,340.185 269.861,346.3493"
       id="polyline58143" />
    <polyline
       points="270.9089,346.3493 272.9391,340.185 272.9391,340.185 272.9391,338.1302 272.9391,338.1302 270.9089,337.0866"
       id="polyline58145" />
    <polyline
       points="272.9391,340.185 275.0347,338.1302 275.0347,338.1302 277.0649,337.0866 277.0649,337.0866 278.1128,337.0866 278.1128,337.0866 279.1606,338.1302 279.1606,338.1302 279.1606,340.185 279.1606,340.185 278.1128,343.2671 278.1128,343.2671 278.1128,345.3219 278.1128,345.3219 280.1757,346.3493 280.1757,346.3493 282.2386,345.3219 282.2386,345.3219 283.2865,344.2945 283.2865,344.2945 285.3167,341.1961"
       id="polyline58147" />
    <polyline
       points="280.1757,346.3493 279.1606,345.3219 279.1606,345.3219 279.1606,343.2671 279.1606,343.2671 280.1757,340.185 280.1757,340.185 280.1757,338.1302 280.1757,338.1302 278.1128,337.0866"
       id="polyline58149" />
    <polyline
       points="297.7106,341.1961 299.7735,338.1302 299.7735,338.1302 301.8528,337.0866 301.8528,337.0866 302.8679,338.1302 302.8679,338.1302 302.8679,340.185 302.8679,340.185 300.805,346.3493"
       id="polyline58151" />
    <line
       x1="301.8528"
       x2="303.883"
       y1="346.3493"
       y2="340.185"
       id="line58153" />
    <polyline
       points="301.8528,337.0866 303.883,338.1302 303.883,338.1302 303.883,340.185 303.883,340.185 305.9787,338.1302 305.9787,338.1302 308.0089,337.0866 308.0089,337.0866 309.0567,337.0866 309.0567,337.0866 310.1045,338.1302 310.1045,338.1302 310.1045,340.185 310.1045,340.185 309.0567,343.2671 309.0567,343.2671 309.0567,345.3219 309.0567,345.3219 311.1196,346.3493 311.1196,346.3493 313.1826,345.3219 313.1826,345.3219 314.2304,344.2945 314.2304,344.2945 316.2606,341.1961"
       id="polyline58155" />
    <polyline
       points="321.4345,337.0866 319.3716,339.1739 319.3716,339.1739 318.3401,341.1961 318.3401,341.1961 318.3401,344.2945 318.3401,344.2945 320.4194,346.3493"
       id="polyline58157" />
    <line
       x1="325.5604"
       x2="327.6233"
       y1="343.2671"
       y2="337.0866"
       id="line58159" />
    <polyline
       points="328.6712,337.0866 326.5755,343.2671 326.5755,343.2671 326.5755,345.3219 326.5755,345.3219 327.6233,346.3493"
       id="polyline58161" />
    <polyline
       points="326.5755,340.185 325.5604,338.1302 325.5604,338.1302 323.4974,337.0866 323.4974,337.0866 321.4345,337.0866 321.4345,337.0866 319.3716,338.1302 319.3716,338.1302 318.3401,339.1739 318.3401,339.1739 317.3086,341.1961 317.3086,341.1961 317.3086,343.2671 317.3086,343.2671 318.3401,345.3219 318.3401,345.3219 320.4194,346.3493 320.4194,346.3493 322.4496,346.3493 322.4496,346.3493 324.5453,345.3219 324.5453,345.3219 325.5604,343.2671 325.5604,343.2671 325.5604,345.3219 325.5604,345.3219 327.6233,346.3493 327.6233,346.3493 329.6862,345.3219 329.6862,345.3219 330.7013,344.2945 330.7013,344.2945 332.797,341.1961"
       id="polyline58163" />
    <polyline
       points="337.9377,337.0866 335.8748,339.1739 335.8748,339.1739 334.8433,341.1961 334.8433,341.1961 334.8433,344.2945 334.8433,344.2945 336.9226,346.3493"
       id="polyline58165" />
    <line
       x1="345.1568"
       x2="352.3771"
       y1="346.3493"
       y2="324.758"
       id="line58167" />
    <line
       x1="353.4249"
       x2="346.1883"
       y1="324.758"
       y2="346.3493"
       id="line58169" />
    <polyline
       points="348.2512,340.185 350.3141,338.1302 350.3141,338.1302 352.3771,337.0866 352.3771,337.0866 353.4249,337.0866 353.4249,337.0866 354.44,338.1302 354.44,338.1302 354.44,340.185 354.44,340.185 353.4249,343.2671 353.4249,343.2671 353.4249,345.3219 353.4249,345.3219 355.4551,346.3493 355.4551,346.3493 357.5508,345.3219 357.5508,345.3219 358.5659,344.2945 358.5659,344.2945 360.6288,341.1961"
       id="polyline58171" />
    <polyline
       points="355.4551,346.3493 354.44,345.3219 354.44,345.3219 354.44,343.2671 354.44,343.2671 355.4551,340.185 355.4551,340.185 355.4551,338.1302 355.4551,338.1302 353.4249,337.0866"
       id="polyline58173" />
    <polyline
       points="349.299,334.0207 347.2197,338.1302 347.2197,338.1302 345.1568,341.1961 345.1744,341.1961 343.0787,344.2945 343.0787,344.2945 340.0007,346.3493 340.0007,346.3493 336.9226,346.3493 336.9226,346.3493 334.8433,345.3219 334.8433,345.3219 333.8119,343.2671 333.8119,343.2671 333.8119,341.1961 333.8119,341.1961 334.8433,339.1739 334.8433,339.1739 335.8748,338.1302 335.8748,338.1302 337.9377,337.0866 337.9377,337.0866 340.0007,337.0866 340.0007,337.0866 341.0485,338.1302 341.0485,338.1302 341.0485,339.1739 341.0485,339.1739 340.0007,339.1739 340.0007,339.1739 341.0485,338.1302"
       id="polyline58175" />
    <polyline
       points="311.1196,346.3493 310.1045,345.3219 310.1045,345.3219 310.1045,343.2671 310.1045,343.2671 311.1196,340.185 311.1196,340.185 311.1196,338.1302 311.1196,338.1302 309.0567,337.0866"
       id="polyline58177" />
    <polyline
       points="254.4053,341.1961 252.3097,344.2945 252.3097,344.2945 251.2946,345.3219 251.2946,345.3219 249.2316,346.3493 249.2316,346.3493 247.1687,345.3219 247.1687,345.3219 247.1687,343.2671 247.1687,343.2671 253.3575,324.758"
       id="polyline58179" />
    <polyline
       points="254.4053,324.758 248.2002,343.2671 248.2002,343.2671 248.2002,345.3219 248.2002,345.3219 249.2316,346.3493"
       id="polyline58181" />
    <polyline
       points="240.98,346.3493 238.9498,345.3219 238.9498,345.3219 238.9498,343.2671 238.9498,343.2671 239.9649,340.185 239.9649,340.185 239.9649,338.1302 239.9649,338.1302 238.9498,337.0866"
       id="polyline58183" />
    <polyline
       points="234.8239,334.0207 232.7446,338.1302 232.7446,338.1302 230.6817,341.1961 230.698,341.1961 228.6023,344.2945 228.6023,344.2945 225.5243,346.3493 225.5243,346.3493 222.4463,346.3493 222.4463,346.3493 220.367,344.2945 220.367,344.2945 220.367,341.1961 220.367,341.1961 221.3984,339.1739 221.3984,339.1739 223.4614,337.0866 223.4614,337.0866 225.5243,337.0866 225.5243,337.0866 226.5721,338.1302 226.5721,338.1302 226.5721,339.1739 226.5721,339.1739 225.5243,339.1739 225.5243,339.1739 226.5721,338.1302"
       id="polyline58185" />
    <polyline
       points="196.6433,346.3493 195.6282,345.3219 195.6282,345.3219 195.6282,343.2671 195.6282,343.2671 196.6433,340.185 196.6433,340.185 196.6433,338.1302 196.6433,338.1302 194.5803,337.0866"
       id="polyline58187" />
    <line
       x1="189.4066"
       x2="187.3764"
       y1="340.185"
       y2="346.3493"
       id="line58189" />
    <polyline
       points="38.8453,346.3493 41.9561,345.3219 41.9561,345.3219 44.019,343.2671 44.019,343.2671 45.0668,341.1961 45.0668,341.1961 46.0819,338.1302 46.0819,338.1302 48.1449,329.9112 48.1449,329.9112 49.1927,326.8454 49.1927,326.8454 48.1449,328.8675 48.1449,328.8675 46.0819,334.0207 46.0819,334.0207 44.019,340.185 44.019,340.185 42.9712,342.2398 42.9712,342.2398 40.941,345.3219 40.941,345.3219 38.8453,346.3493 38.8453,346.3493 36.8151,346.3493 36.8151,346.3493 34.7358,345.3219 34.7358,345.3219 33.7043,344.2945 33.7043,344.2945 33.7043,343.2671 33.7043,343.2671 34.7358,342.2398 34.7358,342.2398 35.7673,343.2671 35.7673,343.2671 34.7358,344.2945"
       id="polyline58191" />
    <polyline
       points="65.1808,61.4198 69.8827,61.4198 69.8827,61.4198 69.8827,55.3527"
       id="polyline58193" />
    <polyline
       points="69.8827,61.4198 69.8827,68.2934 69.8827,68.2934 70.2927,73.2019 70.2927,73.2019 70.8295,73.4148 70.8295,73.4148 71.2636,73.6613 71.2636,73.6613 71.5966,73.9339 71.5966,73.9339 71.8302,74.2249 71.8302,74.2249 71.9663,74.5268 71.9663,74.5268 72.0065,74.8321 72.0065,74.8321 71.9527,75.1331 71.9527,75.1331 71.8064,75.4224 71.8064,75.4224 71.5696,75.6923 71.5696,75.6923 71.2438,75.9352 71.2438,75.9352 70.8309,76.1437 70.8309,76.1437 70.3326,76.3101 70.3326,76.3101 70.3647,78.5296 70.3647,78.5296 87.781,181.513 87.781,181.513 89.5046,183.7852 89.5046,183.7852 92.1265,224.2944 92.1265,224.2944 96.3318,226.5251 96.3318,226.5251 91.6832,226.5251 91.6832,226.5251 91.6832,281.5608 91.6832,281.5608 120.0748,281.5608 120.0013,281.5608 120.0013,226.5258 120.0013,226.5258 114.9221,226.5258 114.9221,226.5258 119.4837,224.2944 119.4837,224.2944 121.9061,183.0583 121.9061,183.0583 123.5213,180.5815 123.5213,180.5815 140.7482,85.0616 140.7482,85.0616 141.6407,78.507 141.6407,78.507 141.7551,76.3101 141.7551,76.3101 141.2393,76.1041 141.2393,76.1041 140.8226,75.8688 140.8226,75.8688 140.5033,75.61 140.5033,75.61 140.2796,75.3335 140.2796,75.3335 140.1498,75.0449 140.1498,75.0449 140.1123,74.7501 140.1123,74.7501 140.1654,74.4549 140.1654,74.4549 140.3073,74.165 140.3073,74.165 140.5364,73.8861 140.5364,73.8861 140.851,73.6241 140.851,73.6241 141.2493,73.3847 141.2493,73.3847 141.7297,73.1737 141.7297,73.1737 142.1407,68.145 142.1407,68.145 142.1407,61.4198 142.1407,61.4198 137.4388,61.4198"
       id="polyline58195" />
    <polyline
       points="142.1407,61.4198 142.1407,68.2934 142.1407,68.2934 142.5506,73.2019 142.5506,73.2019 143.0875,73.4148 143.0875,73.4148 143.5215,73.6613 143.5215,73.6613 143.8545,73.9339 143.8545,73.9339 144.0882,74.2249 144.0882,74.2249 144.2243,74.5268 144.2243,74.5268 144.2645,74.8321 144.2645,74.8321 144.2106,75.1331 144.2106,75.1331 144.0644,75.4224 144.0644,75.4224 143.8275,75.6923 143.8275,75.6923 143.5018,75.9352 143.5018,75.9352 143.0889,76.1437 143.0889,76.1437 142.5906,76.3101 142.5906,76.3101 142.6227,78.5296 142.6227,78.5296 160.039,181.513 160.039,181.513 161.7625,183.7852 161.7625,183.7852 164.3845,224.2944 164.3845,224.2944 168.5897,226.5251 168.5897,226.5251 163.9411,226.5251 163.9411,226.5251 163.9411,281.5608 163.9411,281.5608 192.3328,281.5608 192.3326,281.5608 201.862,281.5608 201.862,281.5608 201.862,232.1426 201.862,232.1426 218.6454,161.0788 218.6454,161.0788 218.7033,156.66 218.7033,156.66 218.3224,156.4758 218.3224,156.4758 218.0007,156.2417 218.0007,156.2417 217.7411,155.9669 217.7411,155.9669 217.5468,155.661 217.5468,155.661 217.4208,155.3331 217.4208,155.3331 217.366,154.9928 217.366,154.9928 217.3855,154.6493 217.3855,154.6493 217.4824,154.312 217.4824,154.312 217.6595,153.9903 217.6595,153.9903 217.9201,153.6935 217.9201,153.6935 218.267,153.431 218.267,153.431 218.7033,153.2121 218.7033,153.2121 219.6552,153.2121 219.6552,153.2121 220.0534,153.3696 220.0534,153.3696 220.3886,153.5692 220.3886,153.5692 220.66,153.8053 220.66,153.8053 220.8665,154.0723 220.8665,154.0723 221.0073,154.3644 221.0073,154.3644 221.0814,154.6759 221.0814,154.6759 221.0879,155.0012 221.0879,155.0012 221.0259,155.3346 221.0259,155.3346 220.8944,155.6703 220.8944,155.6703 220.6925,156.0027 220.6925,156.0027 220.4193,156.3262 220.4193,156.3262 220.0738,156.6349 220.0738,156.6349 219.6552,156.9233 219.6552,156.9233 219.7337,161.0959 219.7337,161.0959 223.4969,175.9681 223.4969,175.9681 224.0395,163.1892 224.0395,163.1892 225.123,161.0254 225.123,161.0254 225.6525,155.4034 225.6525,155.4034 225.3085,155.1678 225.3085,155.1678 225.0263,154.9083 225.0263,154.9083 224.8676,154.6231 224.8676,154.6231 224.8942,154.3106 224.8942,154.3106 225.1677,153.9693 225.1677,153.9693 225.7498,153.5974 225.7498,153.5974 225.9352,152.1707 225.9352,152.1707 226.2477,153.5974 226.2477,153.5974 226.6775,153.905 226.6775,153.905 226.9158,154.2442 226.9158,154.2442 226.9845,154.5892 226.9845,154.5892 226.9052,154.9145 226.9052,154.9145 226.6999,155.1944 226.6999,155.1944 226.3904,155.4034 226.3904,155.4034 226.2615,159.6631 226.2615,159.6631 243.8655,125.8287 243.8655,125.8287 243.9343,122.5414 243.9343,122.5414 243.8227,122.5399 243.8227,122.5399 243.5318,122.5161 243.5318,122.5161 243.1277,122.4408 243.1277,122.4408 242.6763,122.285 242.6763,122.285 242.2437,122.0195 242.2437,122.0195 241.8958,121.6152 241.8958,121.6152 241.6988,121.043 241.6988,121.043 241.6988,119.4636 241.6988,119.4636 241.9416,119.226 241.9416,119.226 242.2274,119.0133 242.2274,119.0133 242.5504,118.8278 242.5504,118.8278 242.9045,118.6714 242.9045,118.6714 243.2837,118.5462 243.2837,118.5462 243.6821,118.4543 243.6821,118.4543 244.0937,118.3977 244.0937,118.3977 244.5125,118.3785 244.5125,118.3785 244.9326,118.3987 244.9326,118.3987 245.3479,118.4605 245.3479,118.4605 245.7525,118.5658 245.7525,118.5658 246.1403,118.7167 246.1403,118.7167 246.5056,118.9152 246.5056,118.9152 246.8422,119.1635 246.8422,119.1635 247.1441,119.4636 247.1441,119.4636 247.1441,121.2475 247.1441,121.2475 246.7455,121.7679 246.7455,121.7679 246.3194,122.1311 246.3194,122.1311 245.9103,122.3649 245.9103,122.3649 245.5628,122.4974 245.5628,122.4974 245.3216,122.5563 245.3216,122.5563 245.2313,122.5698 245.2313,122.5698 245.276,125.5449 245.276,125.5449 262.248,159.6631 262.248,159.6631 262.3873,155.4034 262.3873,155.4034 262.0191,155.0737 262.0191,155.0737 261.7207,154.7863 261.7207,154.7863 261.5238,154.5302 261.5238,154.5302 261.4603,154.2944 261.4603,154.2944 261.5619,154.0677 261.5619,154.0677 261.8603,153.839 261.8603,153.839 262.3873,153.5974 262.3873,153.5974 262.5222,152.1707 262.5222,152.1707 263.0191,153.5974 263.0191,153.5974 263.5,153.7958 263.5,153.7958 263.8171,154.0234 263.8171,154.0234 263.9705,154.2746 263.9705,154.2746 263.9603,154.5438 263.9603,154.5438 263.7866,154.8254 263.7866,154.8254 263.4494,155.1138 263.4494,155.1138 262.9488,155.4034 262.9488,155.4034 263.2526,161.0254 263.2526,161.0254 265.8534,163.1892 265.8534,163.1892 265.8534,198.509 265.8534,198.509 268.116,201.3011 268.116,201.3011 266.9024,201.8479 266.9024,201.8479 265.8534,201.8479 265.8534,201.8479 265.8534,226.372 265.8534,226.372 299.8779,226.372 299.8779,226.372 299.8779,219.0748 299.8779,219.0748 299.8779,201.8479 299.8779,201.8479 297.3053,201.8479 297.3053,201.8479 296.7267,201.3011 296.7267,201.3011 299.2539,198.509 299.2539,198.509 299.9692,159.5418 299.9692,159.5418 300.9275,159.2648 300.9275,159.2648 301.3729,153.6852 301.3729,153.6852 300.9676,153.4703 300.9676,153.4703 300.6748,153.174 300.6748,153.174 300.5333,152.8337 300.5333,152.8337 300.5817,152.4868 300.5817,152.4868 300.8585,152.1706 300.8585,152.1706 301.4023,151.9225 301.4023,151.9225 301.6829,150.4679 301.6829,150.4679 302.0845,152.0255 302.0845,152.0255 302.4846,152.1942 302.4846,152.1942 302.7287,152.4858 302.7287,152.4858 302.8122,152.8495 302.8122,152.8495 302.7302,153.2342 302.7302,153.2342 302.478,153.5891 302.478,153.5891 302.0509,153.8631 302.0509,153.8631 302.1124,158.1451 302.1124,158.1451 319.0478,121.3154 319.0478,121.3154 319.2159,113.5536 319.2159,113.5536 319.0716,113.561 319.0716,113.561 318.7049,113.5405 318.7049,113.5405 318.2153,113.4281 318.2153,113.4281 317.7022,113.1598 317.7022,113.1598 317.265,112.6715 317.265,112.6715 317.265,110.4928 317.265,110.4928 317.5203,110.2436 317.5203,110.2436 317.7983,110.0169 317.7983,110.0169 318.0964,109.8159 318.0964,109.8159 318.4121,109.6434 318.4121,109.6434 318.7428,109.5025 318.7428,109.5025 319.0858,109.3963 319.0858,109.3963 319.4387,109.3276 319.4387,109.3276 319.7988,109.2995 319.7988,109.2995 320.1637,109.3151 320.1637,109.3151 320.5306,109.3773 320.5306,109.3773 320.8971,109.4891 320.8971,109.4891 321.2606,109.6536 321.2606,109.6536 321.6185,109.8737 321.6185,109.8737 321.9683,110.1524 321.9683,110.1524 322.3073,110.4928 322.3073,110.4928 322.3073,112.6508 322.3073,112.6508 321.9371,113.1105 321.9371,113.1105 321.4564,113.4018 321.4564,113.4018 320.976,113.5629 320.976,113.5629 320.6066,113.6317 320.6066,113.6317 320.4589,113.6462 320.4589,113.6462 321.2041,121.6362 321.2041,121.6362 339.4857,158.2852 339.4857,158.2852 339.365,153.4392 339.365,153.4392 338.9294,153.2001 338.9294,153.2001 338.6539,152.8614 338.6539,152.8614 338.5502,152.481 338.5502,152.481 338.6296,152.117 338.6296,152.117 338.9039,151.8274 338.9039,151.8274 339.3847,151.6702 339.3847,151.6702 339.5779,150.4605 339.5779,150.4605 339.8498,151.5541 339.8498,151.5541 340.2768,151.8131 340.2768,151.8131 340.5867,152.0954 340.5867,152.0954 340.7717,152.394 340.7717,152.394 340.8244,152.7019 340.8244,152.7019 340.737,153.0122 340.737,153.0122 340.502,153.318 340.502,153.318 340.1118,153.6121 340.1118,153.6121 340.7252,159.1605 340.7252,159.1605 340.7252,198.509 340.7252,198.509 343.716,201.3011 343.716,201.3011 343.817,201.5222 343.817,201.5222 343.2725,201.8479 343.2725,201.8479 342.885,201.8944 342.885,201.8944 342.3576,201.939 342.3576,201.939 341.7841,201.9789 341.7841,201.9789 341.2584,202.011 341.2584,202.011 340.8741,202.0324 340.8741,202.0324 340.7252,202.0402 340.7252,202.0402 340.7252,281.5622 340.7252,281.5622 420.7165,281.5622 420.7165,281.5622 420.7165,251.695 420.7165,251.695 418.7204,251.695 418.7204,251.695 424.9191,238.1345 424.9191,238.1345 436.7698,201.0666 436.7698,201.0666 436.7698,198.4961 436.7698,198.4961 436.7698,201.0028 436.7698,201.0028 450.221,238.1279 450.221,238.1279 482.9873,238.1279 482.9873,238.1279 495.1715,129.5315 495.1715,129.5315 509.5408,238.3197 509.5408,238.3197 516.7066,251.695 516.7066,251.695 514.7794,251.695 514.7794,251.695 514.7794,281.5622"
       id="polyline58197" />
    <polyline
       points="478.6908,281.5622 478.6908,247.9221 478.6908,247.9221 455.0066,247.9221 455.0066,247.9221 455.0066,281.5622"
       id="polyline58199" />
    <polyline
       points="430.7693,324.758 424.5641,343.2671 424.5641,343.2671 424.5641,345.3219 424.5641,345.3219 425.5956,346.3493"
       id="polyline58201" />
    <polyline
       points="417.3438,346.3493 416.3123,345.3219 416.3123,345.3219 416.3123,343.2671 416.3123,343.2671 422.5175,324.758"
       id="polyline58203" />
    <polyline
       points="421.4697,324.758 415.2809,343.2671 415.2809,343.2671 415.2809,345.3219 415.2809,345.3219 417.3438,346.3493 417.3438,346.3493 419.4067,345.3219 419.4067,345.3219 420.4218,344.2945 420.4218,344.2945 422.5175,341.1961 422.5012,341.1961 424.5641,338.1302 424.5641,338.1302 426.6434,334.0207"
       id="polyline58205" />
    <polyline
       points="418.3916,334.0207 416.3123,338.1302 416.3123,338.1302 414.2494,341.1961 414.2657,341.1961 412.1701,344.2945 412.1701,344.2945 411.155,345.3219 411.155,345.3219 409.092,346.3493 409.092,346.3493 407.0291,345.3219 407.0291,345.3219 407.0291,343.2671 407.0291,343.2671 406.014,345.3219 406.014,345.3219 403.9183,346.3493 403.9183,346.3493 401.8881,346.3493 401.8881,346.3493 399.8088,344.2945 399.8088,344.2945 399.8088,341.1961 399.8088,341.1961 400.8403,339.1739 400.8403,339.1739 402.9032,337.0866 402.9032,337.0866 404.9662,337.0866 404.9662,337.0866 407.0291,338.1302 407.0291,338.1302 408.0442,340.185"
       id="polyline58207" />
    <line
       x1="407.0291"
       x2="409.092"
       y1="343.2671"
       y2="337.0866"
       id="line58209" />
    <polyline
       points="410.1399,337.0866 408.0442,343.2671 408.0442,343.2671 408.0442,345.3219 408.0442,345.3219 409.092,346.3493"
       id="polyline58211" />
    <polyline
       points="401.8881,346.3493 399.8088,345.3219 399.8088,345.3219 398.7774,343.2671 398.7774,343.2671 398.7774,341.1961 398.7774,341.1961 399.8088,339.1739 399.8088,339.1739 400.8403,338.1302 400.8403,338.1302 402.9032,337.0866"
       id="polyline58213" />
    <polyline
       points="394.6514,343.2671 392.5885,345.3219 392.5885,345.3219 390.5255,346.3493 390.5255,346.3493 389.5105,346.3493 389.5105,346.3493 388.4626,344.2945 388.4626,344.2945 388.4626,341.1961 388.4626,341.1961 389.5105,337.0866 389.5105,337.0866 391.5406,330.9549 391.5406,330.9549 393.6363,326.8454 393.6363,326.8454 395.6665,324.758 395.6665,324.758 396.7143,324.758 396.7143,324.758 397.7622,325.8017 397.7622,325.8017 397.7622,326.8454 397.7622,326.8454 396.7143,328.8675 396.7143,328.8675 394.6514,330.9549 394.6514,330.9549 391.5406,332.9771 391.5406,332.9771 389.5105,334.0207 389.5105,334.0207 380.2109,337.0866 380.2109,337.0866 378.1479,338.1302 378.1479,338.1302 377.1329,339.1739"
       id="polyline58215" />
    <polyline
       points="374.0221,344.2945 375.0535,343.2671 375.0535,343.2671 374.0221,342.2398 374.0221,342.2398 372.9906,343.2671 372.9906,343.2671 372.9906,345.3219 372.9906,345.3219 374.0221,346.3493 374.0221,346.3493 376.085,346.3493 376.085,346.3493 378.1479,345.3219 378.1479,345.3219 379.163,344.2945 379.163,344.2945 380.2109,342.2398 380.2109,342.2398 382.2738,336.0755 382.2738,336.0755 385.3846,324.758 385.3846,324.758 382.2738,324.758 382.2738,324.758 379.163,325.8017 379.163,325.8017 378.1479,327.8565 378.1479,327.8565 378.1479,329.9112 378.1479,329.9112 379.163,330.9549"
       id="polyline58217" />
    <polyline
       points="385.3846,324.758 382.2738,334.0207 382.2738,334.0207 381.2587,337.0866 381.2587,337.0866 379.163,342.2398 379.163,342.2398 378.1479,344.2945 378.1479,344.2945 376.085,346.3493"
       id="polyline58219" />
    <polyline
       points="389.5105,346.3493 387.4148,344.2945 387.4148,344.2945 387.4148,341.1961 387.4148,341.1961 388.4626,337.0866 388.4626,337.0866 390.5255,330.9549 390.5255,330.9549 391.5406,328.8675 391.5406,328.8675 393.6363,325.8017 393.6363,325.8017 395.6665,324.758"
       id="polyline58221" />
    <polyline
       points="429.7214,324.758 423.5326,343.2671 423.5326,343.2671 423.5326,345.3219 423.5326,345.3219 425.5956,346.3493 425.5956,346.3493 426.6434,346.3493 426.6434,346.3493 428.6736,345.3219 428.6736,345.3219 430.7693,343.2671 430.7693,343.2671 431.7844,340.185 431.7844,340.185 431.7844,337.0866 431.7844,337.0866 432.7995,341.1961 432.7995,341.1961 433.8473,342.2398 433.8473,342.2398 434.8951,342.2398 434.8951,342.2398 436.9253,341.1961"
       id="polyline58223" />
    <polyline
       points="440.0354,344.2945 442.0983,343.2671 442.0983,343.2671 443.1134,342.2398 443.1134,342.2398 444.1612,340.185 444.1612,340.185 444.1612,338.1302 444.1612,338.1302 443.1134,337.0866 443.1134,337.0866 442.0983,337.0866 442.0983,337.0866 440.0354,338.1302 440.0354,338.1302 439.0039,339.1739 439.0039,339.1739 437.9724,341.1961 437.9724,341.1961 437.9724,343.2671 437.9724,343.2671 439.0039,345.3219 439.0039,345.3219 441.0832,346.3493 441.0832,346.3493 444.1612,346.3493 444.1612,346.3493 447.2393,344.2945 447.2393,344.2945 449.3349,341.1961 449.3202,341.1961 451.3831,338.1302 451.3831,338.1302 453.4624,337.0866 453.4624,337.0866 455.4926,338.1302 455.4926,338.1302 455.4926,340.185 455.4926,340.185 453.4624,346.3493"
       id="polyline58225" />
    <polyline
       points="452.4146,346.3493 454.4775,340.185 454.4775,340.185 454.4775,338.1302 454.4775,338.1302 453.4624,337.0866"
       id="polyline58227" />
    <polyline
       points="455.4926,340.185 457.5883,338.1302 457.5883,338.1302 459.6184,337.0866 459.6184,337.0866 459.6184,340.185 459.6184,340.185 460.6663,342.2398 460.6663,342.2398 461.7141,342.2398 461.7141,342.2398 463.7443,341.1961 463.76,341.1961 465.8229,338.1302 465.8229,338.1302 466.8544,336.0755 466.8544,336.0755 466.8544,338.1302 466.8544,338.1302 469.9324,340.185 469.9324,340.185 470.9802,342.2398 470.9802,342.2398 470.9802,344.2945 470.9802,344.2945 469.9324,345.3219 469.9324,345.3219 467.9022,346.3493 467.9022,346.3493 469.9324,344.2945 469.9324,344.2945 469.9324,342.2398 469.9324,342.2398 468.9173,340.185 468.9173,340.185 466.8544,338.1302"
       id="polyline58229" />
    <polyline
       points="459.6184,337.0866 460.6663,337.0866 460.6663,337.0866 459.6184,340.185"
       id="polyline58231" />
    <polyline
       points="463.76,345.3219 465.8229,346.3493 465.8229,346.3493 470.9802,346.3493 470.9802,346.3493 474.0583,344.2945 474.0583,344.2945 476.1539,341.1961 476.1391,341.1961 478.2021,338.1302 478.2021,338.1302 480.2814,334.0207"
       id="polyline58233" />
    <line
       x1="478.2021"
       x2="484.4072"
       y1="332.9771"
       y2="332.9771"
       id="line58235" />
    <polyline
       points="489.5482,337.0866 487.4853,339.1739 487.4853,339.1739 486.4538,341.1961 486.4538,341.1961 486.4538,344.2945 486.4538,344.2945 488.5331,346.3493"
       id="polyline58237" />
    <line
       x1="493.6741"
       x2="495.737"
       y1="343.2671"
       y2="337.0866"
       id="line58239" />
    <polyline
       points="496.7849,337.0866 494.6892,343.2671 494.6892,343.2671 494.6892,345.3219 494.6892,345.3219 495.737,346.3493"
       id="polyline58241" />
    <polyline
       points="494.6892,340.185 493.6741,338.1302 493.6741,338.1302 491.6112,337.0866 491.6112,337.0866 489.5482,337.0866 489.5482,337.0866 487.4853,338.1302 487.4853,338.1302 486.4538,339.1739 486.4538,339.1739 485.4224,341.1961 485.4224,341.1961 485.4224,343.2671 485.4224,343.2671 486.4538,345.3219 486.4538,345.3219 488.5331,346.3493 488.5331,346.3493 490.5633,346.3493 490.5633,346.3493 492.659,345.3219 492.659,345.3219 493.6741,343.2671 493.6741,343.2671 493.6741,345.3219 493.6741,345.3219 495.737,346.3493 495.737,346.3493 497.8,345.3219 497.8,345.3219 498.8151,344.2945 498.8151,344.2945 500.9107,341.1961"
       id="polyline58243" />
    <polyline
       points="506.0518,337.0866 503.9888,338.1302 503.9888,338.1302 502.9574,339.1739 502.9574,339.1739 501.9259,341.1961 501.9259,341.1961 501.9259,343.2671 501.9259,343.2671 502.9574,345.3219 502.9574,345.3219 505.0367,346.3493"
       id="polyline58245" />
    <line
       x1="510.1776"
       x2="516.3664"
       y1="343.2671"
       y2="324.758"
       id="line58247" />
    <polyline
       points="517.4143,324.758 511.1927,343.2671 511.1927,343.2671 511.1927,345.3219 511.1927,345.3219 512.2406,346.3493"
       id="polyline58249" />
    <polyline
       points="511.1927,340.185 510.1776,338.1302 510.1776,338.1302 508.1147,337.0866 508.1147,337.0866 506.0518,337.0866 506.0518,337.0866 503.9888,339.1739 503.9888,339.1739 502.9574,341.1961 502.9574,341.1961 502.9574,344.2945 502.9574,344.2945 505.0367,346.3493 505.0367,346.3493 507.0668,346.3493 507.0668,346.3493 509.1625,345.3219 509.1625,345.3219 510.1776,343.2671 510.1776,343.2671 510.1776,345.3219 510.1776,345.3219 512.2406,346.3493 512.2406,346.3493 514.3035,345.3219 514.3035,345.3219 515.3186,344.2945 515.3186,344.2945 517.4143,341.1961 517.3979,341.1961 519.4609,338.1302 519.4609,338.1302 521.5402,334.0207"
       id="polyline58251" />
    <line
       x1="519.4609"
       x2="525.666"
       y1="332.9771"
       y2="332.9771"
       id="line58253" />
    <polyline
       points="525.666,324.758 519.4609,343.2671 519.4609,343.2671 519.4609,345.3219 519.4609,345.3219 520.4923,346.3493"
       id="polyline58255" />
    <polyline
       points="525.666,341.1961 523.5704,344.2945 523.5704,344.2945 522.5553,345.3219 522.5553,345.3219 520.4923,346.3493 520.4923,346.3493 518.4294,345.3219 518.4294,345.3219 518.4294,343.2671 518.4294,343.2671 524.6182,324.758"
       id="polyline58257" />
    <polyline
       points="484.4072,324.758 478.2021,343.2671 478.2021,343.2671 478.2021,345.3219 478.2021,345.3219 479.2335,346.3493"
       id="polyline58259" />
    <polyline
       points="484.4072,341.1961 482.3116,344.2945 482.3116,344.2945 481.2965,345.3219 481.2965,345.3219 479.2335,346.3493 479.2335,346.3493 477.1706,345.3219 477.1706,345.3219 477.1706,343.2671 477.1706,343.2671 483.3594,324.758"
       id="polyline58261" />
    <polyline
       points="442.0983,337.0866 440.0354,339.1739 440.0354,339.1739 439.0039,341.1961 439.0039,341.1961 439.0039,344.2945 439.0039,344.2945 441.0832,346.3493"
       id="polyline58263" />
    <polyline
       points="436.7698,195.3107 437.2542,195.42 437.2542,195.42 437.668,195.5957 437.668,195.5957 438.0086,195.8259 438.0086,195.8259 438.2732,196.0987 438.2732,196.0987 438.4588,196.4021 438.4588,196.4021 438.5629,196.7241 438.5629,196.7241 438.5824,197.0528 438.5824,197.0528 438.5148,197.3763 438.5148,197.3763 438.3571,197.6825 438.3571,197.6825 438.1065,197.9596 438.1065,197.9596 437.7603,198.1955 437.7603,198.1955 437.3157,198.3783 437.3157,198.3783 436.7698,198.4961 436.7698,198.4961 436.2933,198.3744 436.2933,198.3744 435.8914,198.1904 435.8914,198.1904 435.5656,197.9555 435.5656,197.9555 435.317,197.6811 435.317,197.6811 435.1469,197.3785 435.1469,197.3785 435.0567,197.0591 435.0567,197.0591 435.0477,196.7343 435.0477,196.7343 435.1211,196.4156 435.1211,196.4156 435.2782,196.1143 435.2782,196.1143 435.5203,195.8417 435.5203,195.8417 435.8488,195.6094 435.8488,195.6094 436.2649,195.4286 436.2649,195.4286 436.7698,195.3107 436.7698,195.3107 436.7698,190.0804"
       id="polyline58265" />
    <polyline
       points="495.1715,129.5315 495.1715,125.0179 495.1715,125.0179 494.7417,124.93 494.7417,124.93 494.3467,124.8006 494.3467,124.8006 493.9869,124.6335 493.9869,124.6335 493.6631,124.4323 493.6631,124.4323 493.3759,124.2008 493.3759,124.2008 493.1259,123.9429 493.1259,123.9429 492.9137,123.6623 492.9137,123.6623 492.74,123.3627 492.74,123.3627 492.6053,123.0479 492.6053,123.0479 492.5104,122.7218 492.5104,122.7218 492.4557,122.388 492.4557,122.388 492.442,122.0503 492.442,122.0503 492.4699,121.7125 492.4699,121.7125 492.5399,121.3784 492.5399,121.3784 492.6527,121.0517 492.6527,121.0517 492.809,120.7362 492.809,120.7362 493.0094,120.4357 493.0094,120.4357 493.2544,120.1539 493.2544,120.1539 493.5447,119.8947 493.5447,119.8947 493.881,119.6617 493.881,119.6617 494.2638,119.4587 494.2638,119.4587 494.6937,119.2896 494.6937,119.2896 495.1715,119.158 495.1715,119.158 495.6195,119.2668 495.6195,119.2668 496.0283,119.4166 496.0283,119.4166 496.3977,119.6034 496.3977,119.6034 496.7275,119.8234 496.7275,119.8234 497.0175,120.0724 497.0175,120.0724 497.2675,120.3467 497.2675,120.3467 497.4772,120.6421 497.4772,120.6421 497.6463,120.9548 497.6463,120.9548 497.7748,121.2808 497.7748,121.2808 497.8623,121.6161 497.8623,121.6161 497.9087,121.9567 497.9087,121.9567 497.9136,122.2987 497.9136,122.2987 497.8769,122.6381 497.8769,122.6381 497.7984,122.971 497.7984,122.971 497.6778,123.2933 497.6778,123.2933 497.5149,123.6012 497.5149,123.6012 497.3095,123.8906 497.3095,123.8906 497.0613,124.1577 497.0613,124.1577 496.7702,124.3983 496.7702,124.3983 496.4359,124.6086 496.4359,124.6086 496.0582,124.7846 496.0582,124.7846 495.6368,124.9224 495.6368,124.9224 495.1715,125.0179"
       id="polyline58267" />
    <line
       x1="495.1715"
       x2="495.1715"
       y1="119.158"
       y2="100.6093"
       id="line58269" />
    <polyline
       points="146.8855,61.4198 142.1407,61.4198 142.1407,61.4198 142.1407,55.3527"
       id="polyline58271" />
  </g>
  <WCB
     layer="-1"
     node="0"
     lastpath="0"
     lastpathnc="0"
     lastknownposx="0"
     lastknownposy="0"
     pausedposx="0"
     pausedposy="0"
     randseed="0"
     row="0"
     application="Axidraw" />
</svg>
