<?xml version="1.0" encoding="UTF-8" standalone="no"?>
<!-- Created with Inkscape (http://www.inkscape.org/) -->

<svg
   width="297mm"
   height="210mm"
   viewBox="0 0 297 210"
   version="1.1"
   id="svg48646"
   inkscape:version="1.1.1 (3bf5ae0d25, 2021-09-20, custom)"
   sodipodi:docname="hannes-3.svg"
   xmlns:inkscape="http://www.inkscape.org/namespaces/inkscape"
   xmlns:sodipodi="http://sodipodi.sourceforge.net/DTD/sodipodi-0.dtd"
   xmlns="http://www.w3.org/2000/svg"
   xmlns:svg="http://www.w3.org/2000/svg">
  <sodipodi:namedview
     id="namedview48648"
     pagecolor="#ffffff"
     bordercolor="#666666"
     borderopacity="1.0"
     inkscape:pageshadow="2"
     inkscape:pageopacity="0.0"
     inkscape:pagecheckerboard="0"
     inkscape:document-units="mm"
     showgrid="false"
     inkscape:zoom="0.90639239"
     inkscape:cx="393.86915"
     inkscape:cy="168.80106"
     inkscape:current-layer="layer1" />
  <defs
     id="defs48643" />
  <g
     inkscape:label="Layer 1"
     inkscape:groupmode="layer"
     id="layer1">
    <path
       d="m 51.151646,19.790754 -1.39711,-1.2226 -1.06125,-0.72544 -0.90821,-0.73363 -0.77553,-0.47999 0.49666,-0.72611 -0.82128,1.20772 -0.88573,1.22389 -0.59119,0.59126 -0.57509,-0.18545 1.04006,0.4086 1.64352,1.1331 1.5087,1.03855 -3.17033,-2.18976 -0.49389,-0.158 -1.81553,1.77953"
       style="fill:none;stroke:#000000;stroke-width:0.5;stroke-linecap:round;stroke-linejoin:round;stroke-miterlimit:4;stroke-dasharray:none"
       id="path4692" />
    <path
       d="m 54.294376,22.853234 -2.56202,-2.38765 -2.34257,2.30663 2.86288,2.231655 -2.84477,-2.213545 -1.84895,2.006135 3.139,2.71609"
       style="fill:none;stroke:#000000;stroke-width:0.5;stroke-linecap:round;stroke-linejoin:round;stroke-miterlimit:4;stroke-dasharray:none"
       id="path4694" />
    <path
       d="m 55.702796,24.221514 -0.0403,0.0403 -1.82264,1.859095 -1.10177,1.1019 -1.00762,0.89908 -0.39902,0.36285 1.21321,1.21335 1.68995,1.77484"
       style="fill:none;stroke:#000000;stroke-width:0.5;stroke-linecap:round;stroke-linejoin:round;stroke-miterlimit:4;stroke-dasharray:none"
       id="path4696" />
    <path
       d="m 59.312236,27.831399 -1.77153,1.73551 -0.91161,0.87551 -0.74103,0.77734 -0.9533,0.95342"
       style="fill:none;stroke:#000000;stroke-width:0.5;stroke-linecap:round;stroke-linejoin:round;stroke-miterlimit:4;stroke-dasharray:none"
       id="path4698" />
    <path
       d="m 59.787006,28.346539 -0.56619,2.73943 -0.22137,2.94993 -0.0177,1.88908 m 4.20233,-4.396 -3.35664,0.58021 -2.22338,0.3161 -1.90323,0.34603 -0.0751,-0.0335"
       style="fill:none;stroke:#000000;stroke-width:0.5;stroke-linecap:round;stroke-linejoin:round;stroke-miterlimit:4;stroke-dasharray:none"
       id="path4700" />
    <path
       d="m 37.993266,57.873779 -1.78972,1.49111 -1.28911,1.0558 -0.56237,0.35699 -0.11969,-0.0577 -0.0401,-0.37074 0.44055,-1.15033 0.41105,-1.14884 0.41126,-1.05566 -0.5308,0.11998 -1.66232,0.57925 -1.52881,0.5578 -0.0201,-0.18537 0.36261,-0.57743 0.69266,-0.89819 0.7303,-0.96386 1.08873,-1.32232"
       style="fill:none;stroke:#000000;stroke-width:0.5;stroke-linecap:round;stroke-linejoin:round;stroke-miterlimit:4;stroke-dasharray:none"
       id="path4704" />
    <path
       d="m 29.363186,55.943149 0.4603,0.3054 0.70523,0.11647 0.76114,-0.11688 0.82023,-0.31606 0.69943,-0.64348 0.49182,-0.90277 0.0198,-0.66412 -0.14307,-0.56664 -0.45099,-0.54817 -0.68082,-0.55177 -0.87192,-0.12719 -0.91708,0.29151 -0.63378,0.60583 -0.52441,0.67389 -0.21201,0.80037 -0.0963,0.4512 0.0994,0.46094 0.20702,0.46532 0.26612,0.26615"
       style="fill:none;stroke:#000000;stroke-width:0.5;stroke-linecap:round;stroke-linejoin:round;stroke-miterlimit:4;stroke-dasharray:none"
       id="path4706" />
    <path
       d="m 27.496971,53.952739 1.569385,-1.65361 1.67633,-1.7419 -2.1074,2.02361 -0.856446,1.03397 -0.781415,-0.16168 -0.658374,-0.46216 -0.385715,-0.52006 -0.339349,-0.37033 -0.198974,-0.33331 0.01687,-0.33436 0.16507,-0.25849 0.449853,0.0264 0.605617,0.24411 0.593094,0.20059 0.603629,0.28345 0.98089,0.48514 0.15713,-0.10112 -0.21619,-0.86705 -0.0995,-0.75031 -0.22543,-1.07259 -0.2688,-1.7296 -0.0865,-0.11897"
       style="fill:none;stroke:#000000;stroke-width:0.5;stroke-linecap:round;stroke-linejoin:round;stroke-miterlimit:4;stroke-dasharray:none"
       id="path4708" />
    <path
       d="m 24.202597,50.719949 1.362002,-1.33414 0.700917,-0.67299 0.569608,-0.59769 0.732876,-0.73297"
       style="fill:none;stroke:#000000;stroke-width:0.5;stroke-linecap:round;stroke-linejoin:round;stroke-miterlimit:4;stroke-dasharray:none"
       id="path4710" />
    <path
       d="m 23.952363,50.469679 -0.851793,-0.94481 -0.742027,-0.84542 -0.779669,-0.77977 -0.466953,-0.27073 m 1.746169,1.55011 1.729603,-1.52437 0.909198,-0.81593 0.731324,-0.73141"
       style="fill:none;stroke:#000000;stroke-width:0.5;stroke-linecap:round;stroke-linejoin:round;stroke-miterlimit:4;stroke-dasharray:none"
       id="path4712" />
    <path
       d="m 20.702596,47.188539 -2.634591,-2.60398 1.033585,-0.26795 2.365765,-0.33026 2.070335,-0.27761 0.202844,-0.0254 -0.341641,-0.6015 -0.497306,-0.52988 -1.614931,-1.41987"
       style="fill:none;stroke:#000000;stroke-width:0.5;stroke-linecap:round;stroke-linejoin:round;stroke-miterlimit:4;stroke-dasharray:none"
       id="path4714" />
    <path
       d="m 14.540865,35.990199 1.937243,1.85657 0.672158,0.75314 0.317227,0.5715 0.05198,0.41023 -0.231926,0.49607 -0.455856,0.42235 -0.481461,0.3505 -0.639879,0.3423 -0.559847,0.0988 -0.417495,0.0193 -0.183123,-0.11031"
       style="fill:none;stroke:#000000;stroke-width:0.5;stroke-linecap:round;stroke-linejoin:round;stroke-miterlimit:4;stroke-dasharray:none"
       id="path4718" />
    <path
       d="m 16.929909,33.537979 -0.395139,0.55239 -0.209737,0.80717 0.04675,0.84411 0.264405,0.88846 0.646506,0.71593 0.961568,0.45321 0.745508,-0.0518 0.6539,-0.22426 0.667428,-0.56897 0.697106,-0.8282 0.240381,-0.99608 -0.225978,-1.00025 -0.611469,-0.64616 -0.700246,-0.51545 -0.877465,-0.14954 -0.497248,-0.0582 -0.530021,0.16327 -0.546958,0.28501 -0.329305,0.32935"
       style="fill:none;stroke:#000000;stroke-width:0.5;stroke-linecap:round;stroke-linejoin:round;stroke-miterlimit:4;stroke-dasharray:none"
       id="path4720" />
    <path
       d="m 19.49544,30.972129 1.680753,1.81963 0.806925,0.80703 1.117412,0.86332 -1.828409,-1.60907 -0.21011,0.40926 0.611968,-0.87405 0.75386,-0.92166 1.01011,-1.10451 -1.650526,-1.65074 2.047163,2.08203 0.866303,0.7162 0.498506,0.32522 0.307831,0.0883"
       style="fill:none;stroke:#000000;stroke-width:0.5;stroke-linecap:round;stroke-linejoin:round;stroke-miterlimit:4;stroke-dasharray:none"
       id="path4722" />
    <path
       d="m 26.232554,31.296679 -0.956465,-2.3433 -0.656576,-1.52335 -0.447794,-1.07186 0.108135,-0.0768 0.860132,0.16688 1.446317,0.42956 1.191846,0.46399 1.049237,0.40223 0.72295,0.16834 m -4.066163,1.61888 0.54495,-0.80703 0.565101,-0.99489 0.543331,-0.77398 0.487174,-0.74925"
       style="fill:none;stroke:#000000;stroke-width:0.5;stroke-linecap:round;stroke-linejoin:round;stroke-miterlimit:4;stroke-dasharray:none"
       id="path4724" />
    <path
       d="m 30.069156,27.194959 -1.07243,-1.17661 -0.95205,-0.98678 -1.042713,-1.042845 -0.07,-0.2549 1.225973,-0.0103 1.58726,0.13139 2.05307,0.15815 1.13612,0.11933 -0.5947,-0.62938 -1.18943,-1.18957 -1.51587,-1.48145"
       style="fill:none;stroke:#000000;stroke-width:0.5;stroke-linecap:round;stroke-linejoin:round;stroke-miterlimit:4;stroke-dasharray:none"
       id="path4726" />
    <path
       d="m 33.853236,23.410424 -1.07248,-1.17656 -0.952,-0.98684 -1.04272,-1.04284 -0.07,-0.2549 1.22597,-0.0104 1.58726,0.13139 2.05307,0.15815 1.13612,0.11933 -0.59465,-0.62944 -1.18942,-1.18957 -1.51593,-1.48139"
       style="fill:none;stroke:#000000;stroke-width:0.5;stroke-linecap:round;stroke-linejoin:round;stroke-miterlimit:4;stroke-dasharray:none"
       id="path4728" />
    <path
       d="m 36.706636,13.853154 -2.30056,2.43709 1.7956,1.83054 2.19174,-2.6846 -2.17441,2.66727 1.57839,1.42836 2.63693,-2.96739"
       style="fill:none;stroke:#000000;stroke-width:0.5;stroke-linecap:round;stroke-linejoin:round;stroke-miterlimit:4;stroke-dasharray:none"
       id="path4730" />
    <path
       d="m 40.835646,9.755084 -0.62999,0.86065 -0.57921,0.9461 -0.50988,0.87678 -0.0798,0.50953 0.018,0.3069 0.1,0.20395 0.37498,0.0861 0.99315,-0.53212 0.94116,-0.48012 0.98992,-0.466 0.59774,-0.19954 0.42026,-0.0535 0.16079,0.19554 0.0239,0.63638 -0.37892,1.04241 -0.59013,1.08542 -0.58514,0.65126 -0.48859,0.38961 -0.36947,0.13894 -0.25749,-0.0726"
       style="fill:none;stroke:#000000;stroke-width:0.5;stroke-linecap:round;stroke-linejoin:round;stroke-miterlimit:4;stroke-dasharray:none"
       id="path4732" />
    <path
       d="m 66.749586,41.905619 0.71782,-0.98167 0.65965,-1.07937 0.58062,-1.00031 0.0902,-0.58175 -0.0212,-0.35053 -0.11451,-0.23317 -0.4284,-0.0991 -1.13318,0.60579 -1.07391,0.54649 -1.12962,0.53029 -0.68225,0.22675 -0.47984,0.0603 -0.18407,-0.22355 -0.0285,-0.7268 0.43074,-1.18972 0.67186,-1.23844 0.667,-0.74265 0.55723,-0.44401 0.42168,-0.15796 0.2942,0.0834"
       style="fill:none;stroke:#000000;stroke-width:0.5;stroke-linecap:round;stroke-linejoin:round;stroke-miterlimit:4;stroke-dasharray:none"
       id="path4736" />
    <path
       d="m 65.425086,43.110389 -1.03241,-1.5332 -0.8605,-1.10567 -0.62338,-0.62345 -0.77453,-0.27923 -0.63085,-0.0117 -0.80724,0.69462 -0.42304,1.02616 -0.0905,1.06886 0.5554,1.26692 0.62654,0.95599 1.38217,1.30329 -3.81697,-3.81743"
       style="fill:none;stroke:#000000;stroke-width:0.5;stroke-linecap:round;stroke-linejoin:round;stroke-miterlimit:4;stroke-dasharray:none"
       id="path4738" />
    <path
       d="m 58.490136,50.166069 0.71783,-0.98168 0.65965,-1.07935 0.58062,-1.00033 0.0902,-0.58175 -0.0212,-0.35052 -0.11458,-0.23309 -0.4284,-0.0991 -1.13318,0.60579 -1.07391,0.54651 -1.12961,0.53028 -0.68226,0.22674 -0.47984,0.0603 -0.18401,-0.22363 -0.0285,-0.7268 0.43075,-1.18973 0.67185,-1.23844 0.667,-0.74263 0.55723,-0.44401 0.42168,-0.15796 0.29421,0.0834"
       style="fill:none;stroke:#000000;stroke-width:0.5;stroke-linecap:round;stroke-linejoin:round;stroke-miterlimit:4;stroke-dasharray:none"
       id="path4740" />
    <path
       d="m 53.528526,47.193089 1.0968,2.67795 0.75275,1.74096 0.51344,1.22495 -0.12334,0.0874 -0.98262,-0.19223 -1.65255,-0.49334 -1.362,-0.53217 -1.19903,-0.46136 -0.82595,-0.19365 m 4.64055,-1.84098 -0.62079,0.92059 -0.64346,1.13512 -0.61901,0.88285 -0.55493,0.85472"
       style="fill:none;stroke:#000000;stroke-width:0.5;stroke-linecap:round;stroke-linejoin:round;stroke-miterlimit:4;stroke-dasharray:none"
       id="path4742" />
    <path
       d="m 49.154896,51.869999 1.22706,1.34571 1.08915,1.12875 1.19281,1.19295 0.0804,0.29123 -1.40008,0.009 -1.81294,-0.15309 -2.34495,-0.18454 -1.29771,-0.13848 0.68031,0.71998 1.36063,1.3608 1.73407,1.6947"
       style="fill:none;stroke:#000000;stroke-width:0.5;stroke-linecap:round;stroke-linejoin:round;stroke-miterlimit:4;stroke-dasharray:none"
       id="path4744" />
    <path
       d="m 44.840016,56.185389 1.22706,1.34572 1.08909,1.12883 1.19281,1.19295 0.0804,0.29122 -1.40008,0.009 -1.81294,-0.15311 -2.34495,-0.18453 -1.29771,-0.13847 0.68031,0.71998 1.36063,1.3608 1.73407,1.69469"
       style="fill:none;stroke:#000000;stroke-width:0.5;stroke-linecap:round;stroke-linejoin:round;stroke-miterlimit:4;stroke-dasharray:none"
       id="path4746" />
    <path
       d="m 41.599686,67.094549 2.62263,-2.7788 -2.05413,-2.09397 -2.49787,3.06168 2.47811,-3.04192 -1.8053,-1.63424 -3.00574,3.38377"
       style="fill:none;stroke:#000000;stroke-width:0.5;stroke-linecap:round;stroke-linejoin:round;stroke-miterlimit:4;stroke-dasharray:none"
       id="path4748" />
    <path
       style="fill:none;stroke:#000000;stroke-width:0.4;stroke-linecap:square;stroke-linejoin:round"
       d="M 69.187466,35.390229 37.420433,67.157269"
       id="path49067" />
    <path
       d="m 47.873878,45.614149 c 0.26434,-0.31115 0.456187,-0.57795 0.666774,-0.92896 0.231562,-0.38609 0.591978,-1.13472 0.561474,-1.16523 -0.0071,-0.007 -0.205884,-0.0516 -0.446869,-0.10058 l -0.435211,-0.0842 0.08657,-0.32048 c 0.276088,-1.01553 0.367248,-2.26262 0.23627,-3.19382 -0.313302,-2.20419 -1.630705,-4.69142 -3.60311,-6.80894 -0.66217,-0.71376 -1.518463,-1.42494 -2.168981,-1.81327 -0.271487,-0.15913 -0.830722,-0.43285 -1.003743,-0.48903 -0.194221,-0.0633 -0.542863,-0.0842 -0.839914,-0.0491 -1.998194,0.22462 -4.946431,3.22891 -6.361936,6.48823 -0.493626,1.13484 -0.774427,2.28134 -0.826017,3.34822 -0.0351,0.7557 0.144994,2.13859 0.350999,2.70007 0.03273,0.0982 0.05618,0.18715 0.0444,0.19893 -0.01178,0.0118 -0.212946,0.0678 -0.44922,0.12627 l -0.428259,0.10059 0.166074,0.35806 c 0.189632,0.40941 0.416483,0.80022 0.676309,1.1816 0.257359,0.36972 1.120708,1.23306 1.509157,1.50915 1.333779,0.93591 2.913015,1.45298 4.810624,1.57229 2.178283,0.13805 4.270117,-0.31118 5.805069,-1.24238 0.599051,-0.36488 1.240138,-0.90304 1.649552,-1.38737 z m -1.77593,0.72767 c -1.235428,0.80482 -2.854599,1.24002 -4.705326,1.27053 -3.15648,0.0491 -5.543123,-0.98043 -6.853344,-2.9599 -0.257358,-0.38833 -0.35099,-0.5663 -0.304117,-0.58962 0.145108,-0.0655 1.085614,-0.15912 1.56299,-0.159 0.94521,-1.2e-4 1.656619,0.19634 2.232107,0.61753 0.156773,0.1146 0.222258,0.18952 0.465595,0.53579 0.15912,0.21991 0.294821,0.40248 0.304239,0.40248 0.009,-5e-4 0.04216,-0.2808 0.0702,-0.62237 0.09599,-1.21895 0.35099,-2.05909 0.849333,-2.83823 0.205875,-0.32297 0.758037,-0.89847 1.073934,-1.12555 0.140408,-0.10293 0.33225,-0.22463 0.418831,-0.27373 0.19411,-0.1053 0.240987,-0.0912 0.673847,0.19658 0.254997,0.16619 0.346277,0.24805 0.680901,0.60129 0.512476,0.54521 0.758052,0.94061 1.00386,1.6168 0.205893,0.57102 0.292464,1.0272 0.364901,1.94673 0.02108,0.27384 0.04676,0.49599 0.05618,0.49599 0.009,-5e-4 0.121664,-0.145 0.247934,-0.32756 0.128606,-0.18022 0.306611,-0.40009 0.395538,-0.48902 0.430498,-0.43049 1.258749,-0.71129 2.199364,-0.74403 0.393049,-0.014 1.329074,0.0702 1.328955,0.12167 1.34e-4,0.0515 -0.32991,0.59657 -0.531085,0.87737 -0.121703,0.16851 -0.318232,0.37904 -0.680914,0.73225 -0.437687,0.42354 -0.563745,0.52669 -0.853969,0.71396 z m 1.057695,-3.10265 c -0.93132,-0.014 -1.771229,0.16136 -2.374869,0.49363 -0.133348,0.0725 -0.255106,0.13334 -0.269056,0.13329 -0.01414,0 -0.05853,-0.15206 -0.100581,-0.33921 -0.149818,-0.65982 -0.435209,-1.33837 -0.800224,-1.90456 -0.156765,-0.24558 -0.257358,-0.3603 -0.664532,-0.76747 -0.528845,-0.52885 -0.765118,-0.70435 -1.277602,-0.94522 -0.29481,-0.1358 -0.322843,-0.13109 -0.767466,0.11238 -0.835326,0.46099 -1.588787,1.2611 -2.045037,2.16666 -0.184803,0.36736 -0.400113,0.9803 -0.484325,1.38277 l -0.06784,0.32532 -0.243344,-0.14511 c -0.301758,-0.1755 -0.884433,-0.36972 -1.319645,-0.44452 -0.336974,-0.0562 -1.333655,-0.0795 -1.717515,-0.0375 l -0.212836,0.0211 -0.06089,-0.16854 c -0.315903,-0.90082 -0.444519,-2.32575 -0.297173,-3.32491 0.30188,-2.07546 1.422594,-4.29131 3.154127,-6.24263 0.404689,-0.45631 1.046385,-1.05487 1.420211,-1.32673 l 0.121632,-0.089 -0.145014,0.2293 c -0.746502,1.18632 -1.249444,2.62068 -1.364162,3.89109 -0.07255,0.812 0.01873,1.75957 0.187158,1.928 0.112366,0.11236 0.205888,0.13568 0.334625,0.0819 0.203493,-0.082 0.233902,-0.2059 0.156772,-0.61542 -0.341574,-1.84378 0.566293,-4.62347 1.91162,-5.86113 0.362639,-0.33464 0.598967,-0.46321 0.884433,-0.48209 l 0.189519,-0.0117 0.116956,0.17774 c 0.159007,0.24334 0.301755,0.58726 0.479613,1.14415 0.32755,1.03425 0.451575,2.08476 0.360294,3.12137 -0.01873,0.21519 -0.01414,0.24334 0.0748,0.33227 0.116956,0.11695 0.283146,0.13332 0.418836,0.0398 0.112327,-0.0797 0.133326,-0.14747 0.170789,-0.57785 0.08892,-1.00151 -0.126384,-2.40996 -0.528852,-3.47225 -0.06784,-0.18492 -0.102943,-0.31825 -0.07962,-0.31354 0.102955,0.0233 0.599047,0.65511 0.868062,1.10669 0.891731,1.48583 1.324707,3.43492 1.06499,4.80838 -0.07714,0.40483 -0.0351,0.5404 0.19423,0.61072 0.11931,0.0397 0.283149,-0.021 0.346279,-0.13098 0.07718,-0.124 0.152056,-0.62013 0.166077,-1.07395 0.03746,-1.23555 -0.306474,-2.65578 -0.961583,-3.9521 -0.177852,-0.35099 -0.180214,-0.35336 -0.07255,-0.28315 0.124019,0.0866 0.8119,0.81657 1.155801,1.23071 1.275245,1.53272 2.243899,3.34376 2.650954,4.93949 0.311187,1.22848 0.287745,2.62762 -0.06089,3.87471 -0.04927,0.17075 -0.09835,0.32285 -0.112367,0.33686 -0.01614,0.0164 -0.193987,0.0258 -0.39987,0.0211 z"
       id="path49356"
       style="stroke-width:0.0264583" />
  </g>
</svg>
