<?xml version="1.0" encoding="utf-8" ?>
<svg xmlns="http://www.w3.org/2000/svg" xmlns:cc="http://creativecommons.org/ns#" xmlns:dc="http://purl.org/dc/elements/1.1/" xmlns:ev="http://www.w3.org/2001/xml-events" xmlns:inkscape="http://www.inkscape.org/namespaces/inkscape" xmlns:rdf="http://www.w3.org/1999/02/22-rdf-syntax-ns#" xmlns:sodipodi="http://sodipodi.sourceforge.net/DTD/sodipodi-0.dtd" xmlns:xlink="http://www.w3.org/1999/xlink" baseProfile="tiny" height="29.70001604cm" version="1.2" viewBox="0 0 793.7012159999999 1122.5202912" width="21.00001134cm">
  <metadata>
    <rdf:RDF>
      <cc:Work>
        <dc:format>image/svg+xml</dc:format>
        <dc:source>vpype read hannes-2.svg deduplicate linesimplify linemerge linesort write hannes-2-optim.svg
</dc:source>
        <dc:date>2021-12-25T10:11:56.467929</dc:date>
      </cc:Work>
    </rdf:RDF>
  </metadata>
  <defs/>
  <g fill="none" id="layer1" inkscape:groupmode="layer" inkscape:label="1" stroke="#00f" style="display:inline">
    <polyline points="725.3484,254.6734 696.3389,271.4624 696.3037,271.442 696.3037,237.864"/>
    <polyline points="705.2309,243.0009 696.3037,250.9085 696.3037,250.9085 687.3765,243.0009"/>
    <polyline points="676.1604,249.4921 678.5286,261.1956 678.5286,261.1956 667.2333,264.9916"/>
    <polyline points="667.2588,254.6734 696.2684,271.4624 696.2684,271.5032 667.2588,288.2922"/>
    <polyline points="676.1605,293.4735 678.5286,281.77 678.5286,281.77 667.2333,277.974"/>
    <polyline points="687.3765,299.9647 696.3037,292.0571 696.3037,292.0571 705.2309,299.9647"/>
    <polyline points="696.3037,305.1016 696.3037,271.5236 696.3389,271.5032 725.3484,288.2922"/>
    <polyline points="716.4468,293.4735 714.0787,281.7699 714.0787,281.7699 725.374,277.974"/>
    <polyline points="725.374,264.9916 714.0788,261.1956 714.0788,261.1956 716.4468,249.492"/>
    <polyline points="730.5835,328.2809 714.1836,328.8009 714.1836,328.8009 714.0638,342.6408 714.0638,342.6408 730.9438,340.7608 730.9438,340.7608 714.1838,342.6408 714.1838,342.6408 714.7038,354.1168 714.7038,354.1168 734.1037,352.8568"/>
    <polyline points="709.4238,354.1169 697.9438,353.8648 697.9438,353.8648 689.9038,353.8648 689.9038,353.8648 690.0236,351.5968 690.0236,351.5968 690.3838,345.9208 690.3838,345.9208 690.3838,339.3608 690.3838,339.3608 690.2636,328.4009 690.2636,328.4009 690.2636,328.1609"/>
    <polyline points="677.6637,329.1608 676.1437,327.8009 676.1437,327.8009 672.3438,327.2808 672.3438,327.2808 667.5838,328.8009 667.5838,328.8009 663.2638,331.8008 663.2638,331.8008 660.6238,335.6008 660.6238,335.6008 659.2638,338.8808 659.2638,338.8808 658.6238,342.5208 658.6238,342.5208 658.5036,346.3208 658.5036,346.3208 660.5036,349.8408 660.5036,349.8408 663.0236,352.4808 663.0236,352.4808 666.0636,353.8647 666.0636,353.8647 670.1036,354.3687 670.1036,354.3687 674.9836,353.6168 674.9836,353.6168 678.9036,351.5968 678.9036,351.5968 682.3036,348.9608 682.3036,348.9608 684.7036,346.9208"/>
    <polyline points="491.5141,382.412 487.2341,383.412 487.2341,383.412 482.6742,384.292 482.6742,384.292 477.2742,385.932 477.2742,385.932 472.5942,386.932"/>
    <polyline points="469.0741,396.5261 473.8742,383.9322 473.8742,383.9322 476.8742,375.6122 476.8742,375.6122 479.0341,369.8122 479.0341,369.8122 479.6742,369.932 479.6742,369.932 482.0742,373.852 482.0742,373.852 485.5942,381.012 485.5942,381.012 488.1141,387.332 488.1141,387.332 490.3541,392.872 490.3541,392.872 492.2741,396.274"/>
    <polyline points="443.5138,395.5161 443.5138,388.4522 443.5138,388.4522 443.8736,378.6522 443.8736,378.6522 444.1537,374.6122 444.1537,374.6122 445.2737,371.8122 445.2737,371.8122 448.7937,370.0522 448.7937,370.0522 454.2337,369.1722 454.2337,369.1722 459.6337,369.292 459.6337,369.292 464.3136,371.092 464.3136,371.092 465.6736,372.572 465.6736,372.572 465.5538,375.612 465.5538,375.612 463.9138,378.132 463.9138,378.132 460.2738,380.412 460.2738,380.412 455.7138,381.772 455.7138,381.772 451.4339,382.412 451.4339,382.412 443.7539,382.652"/>
    <polyline points="426.1111,369.5723 428.3911,369.5723 428.3911,369.5723 431.2711,370.5723 431.2711,370.5723 433.6711,371.9723 433.6711,371.9723 435.1911,374.0923 435.1911,374.0923 437.7111,378.0123 437.7111,378.0123 438.3511,382.6522 438.3511,382.6522 438.2309,387.4522 438.2309,387.4522 435.5509,392.1322 435.5509,392.1322 431.2709,395.0162 431.2709,395.0162 425.9909,395.5162 425.9909,395.5162 421.711,395.1401 421.711,395.1401 418.671,393.5002 418.671,393.5002 415.911,390.8522 415.911,390.8522 414.151,385.4522 414.151,385.4522 414.391,380.2522 414.391,380.2522 416.551,375.8522 416.551,375.8522 419.311,372.4522 419.311,372.4522 422.8309,370.1722 422.8309,370.1722 426.1109,369.5722"/>
    <polyline points="444.2853,336.4231 453.2125,328.5156 453.2125,328.5156 462.1397,336.4231"/>
    <polyline points="453.2125,341.5601 453.2125,307.9821 453.2478,307.9617 482.2573,324.7507"/>
    <polyline points="473.3557,329.932 470.9876,318.2284 470.9876,318.2284 482.2829,314.4324"/>
    <polyline points="482.2829,301.4501 470.9876,297.6541 470.9876,297.6541 473.3557,285.9505"/>
    <polyline points="482.2573,291.1318 453.2478,307.9208 453.2125,307.9005 453.2125,274.3225"/>
    <polyline points="462.1397,279.4594 453.2125,287.3669 453.2125,287.3669 444.2853,279.4594"/>
    <polyline points="433.0693,285.9506 435.4374,297.6541 435.4374,297.6541 424.1421,301.4501"/>
    <polyline points="424.1677,291.1319 453.1772,307.9209 453.1772,307.9617 424.1677,324.7507"/>
    <polyline points="433.0693,329.932 435.4374,318.2284 435.4374,318.2284 424.1421,314.4324"/>
    <polyline points="438.9512,245.7003 440.2313,232.9964 440.2313,232.9964 441.2312,223.9164 441.2312,223.9164 442.1112,220.3564 442.1112,220.3564 442.8713,220.1164 442.8713,220.1164 444.6312,221.3964 444.6312,221.3964 447.6712,227.5564 447.6712,227.5564 450.8312,233.5964 450.8312,233.5964 453.5912,239.2763 453.5912,239.2763 455.3512,236.7563 455.3512,236.7563 459.9912,228.0764 459.9912,228.0764 464.1512,219.9964 464.1512,219.9964 465.0312,220.6364 465.0312,220.6364 465.9512,224.2764 465.9512,224.2764 466.8312,230.4364 466.8312,230.4364 467.8312,236.9963 467.8312,236.9963 468.8312,246.3323"/>
    <polyline points="472.3528,246.7103 477.1528,234.1163 477.1528,234.1163 480.1528,225.7964 480.1528,225.7964 482.3128,219.9964 482.3128,219.9964 482.9529,220.1162 482.9529,220.1162 485.3528,224.0362 485.3528,224.0362 488.8728,231.1962 488.8728,231.1962 491.3928,237.5161 491.3928,237.5161 493.6328,243.0561 493.6328,243.0561 495.5528,246.4581"/>
    <polyline points="494.7928,232.5962 490.5128,233.5962 490.5128,233.5962 485.9529,234.4762 485.9529,234.4762 480.5529,236.1162 480.5529,236.1162 475.8729,237.1162"/>
    <polyline points="422.8322,219.7564 419.5522,220.3564 419.5522,220.3564 416.0322,222.6364 416.0322,222.6364 413.2722,226.0364 413.2722,226.0364 411.1122,230.4364 411.1122,230.4364 410.8722,235.6364 410.8722,235.6364 412.6322,241.0363 412.6322,241.0363 415.3922,243.6843 415.3922,243.6843 418.4322,245.3243 418.4322,245.3243 422.7122,245.7004 422.7122,245.7004 427.9922,245.2004 427.9922,245.2004 432.2721,242.3164 432.2721,242.3164 434.9521,237.6364 434.9521,237.6364 435.0719,232.8364 435.0719,232.8364 434.4319,228.1964 434.4319,228.1964 431.9119,224.2765 431.9119,224.2765 430.3919,222.1564 430.3919,222.1564 427.992,220.7565 427.992,220.7565 425.112,219.7565 425.112,219.7565 422.832,219.7565"/>
    <polyline points="267.3275,251.4552 238.3179,268.2442 238.2827,268.2238 238.2827,234.6458"/>
    <polyline points="247.2098,239.7828 238.2827,247.6903 238.2827,247.6903 229.3555,239.7828"/>
    <polyline points="218.1395,246.2739 220.5076,257.9774 220.5076,257.9774 209.2123,261.7735"/>
    <polyline points="209.2379,251.4552 238.2474,268.2442 238.2474,268.285 209.2379,285.074"/>
    <polyline points="218.1395,290.2553 220.5076,278.5518 220.5076,278.5518 209.2123,274.7558"/>
    <polyline points="229.3556,296.7465 238.2827,288.8389 238.2827,288.8389 247.2099,296.7465"/>
    <polyline points="238.2827,301.8834 238.2827,268.3054 238.318,268.285 267.3275,285.074"/>
    <polyline points="258.4259,290.2553 256.0578,278.5518 256.0578,278.5518 267.3531,274.7558"/>
    <polyline points="267.353,261.7734 256.0578,257.9774 256.0578,257.9774 258.4259,246.2739"/>
    <polyline points="231.0429,329.3708 231.0429,329.6108 231.0429,329.6108 231.1631,340.5708 231.1631,340.5708 231.1631,347.1308 231.1631,347.1308 230.8029,352.8068 230.8029,352.8068 230.6828,355.0747 230.6828,355.0747 238.7227,355.0747 238.7227,355.0747 250.2027,355.3268"/>
    <polyline points="254.0833,356.0847 258.8832,343.4908 258.8832,343.4908 261.8832,335.1708 261.8832,335.1708 264.0432,329.3708 264.0432,329.3708 264.6833,329.4906 264.6833,329.4906 267.0832,333.4106 267.0832,333.4106 270.6032,340.5706 270.6032,340.5706 273.1232,346.8906 273.1232,346.8906 275.3632,352.4306 275.3632,352.4306 277.2832,355.8326"/>
    <polyline points="276.5232,341.9706 272.2432,342.9706 272.2432,342.9706 267.6833,343.8506 267.6833,343.8506 262.2833,345.4906 262.2833,345.4906 257.6033,346.4906"/>
    <polyline points="225.4821,348.1308 223.0821,350.1708 223.0821,350.1708 219.6821,352.8068 219.6821,352.8068 215.7621,354.8268 215.7621,354.8268 210.8821,355.5787 210.8821,355.5787 206.8422,355.0747 206.8422,355.0747 203.8022,353.6907 203.8022,353.6907 201.2822,351.0507 201.2822,351.0507 199.2822,347.5308 199.2822,347.5308 199.402,343.7308 199.402,343.7308 200.042,340.0908 200.042,340.0908 201.402,336.8108 201.402,336.8108 204.042,333.0108 204.042,333.0108 208.3619,330.0108 208.3619,330.0108 213.122,328.4908 213.122,328.4908 216.9219,329.0108 216.9219,329.0108 218.4419,330.3708"/>
    <polyline points="96.5361,357.6681 95.6561,357.5422 95.6561,357.5422 87.0962,351.8862 87.0962,351.8862 81.5362,348.6063 81.5362,348.6063 77.8962,346.0863 77.8962,346.0863 73.2562,343.5663 73.2562,343.5663 73.4962,342.5663 73.4962,342.5663 79.7762,340.6463 79.7762,340.6463 83.5762,339.4063 83.5762,339.4063 86.9762,337.8863 86.9762,337.8863 90.6161,336.4863 90.6161,336.4863 92.6561,334.8463 92.6561,334.8463 92.2561,333.2063 92.2561,333.2063 90.8961,331.8463 90.8961,331.8463 88.6161,331.3263 88.6161,331.3263 85.5761,331.2065 85.5761,331.2065 81.6961,330.6865 81.6961,330.6865 76.8962,331.4465 76.8962,331.4465 72.8562,333.8465 72.8562,333.8465 73.6162,341.1665 73.6162,341.1665 73.2564,357.1624 73.2564,357.1624 72.9763,343.9265 72.9763,343.9265 72.6165,331.4465"/>
    <polyline points="49.7765,330.9665 49.2965,344.3265 49.2965,344.3265 49.2965,350.4865 49.2965,350.4865 50.1765,358.0464 50.1765,358.0464 49.4165,344.9265 49.4165,344.9265 47.2725,345.6865 47.2725,345.6865 52.4165,344.6865 52.4165,344.6865 58.2165,344.0464 58.2165,344.0464 65.5364,343.6866 65.5364,343.6866 65.5364,331.0867 65.5364,331.0867 65.4166,346.8466 65.4166,346.8466 65.9366,352.8866 65.9366,352.8866 66.5366,356.0306 66.5366,356.0306 67.2966,357.5426"/>
    <polyline points="43.9766,349.9664 41.5767,352.0064 41.5767,352.0064 38.1767,354.6424 38.1767,354.6424 34.2567,356.6624 34.2567,356.6624 29.3767,357.4144 29.3767,357.4144 25.3367,356.9104 25.3367,356.9104 22.2967,355.5264 22.2967,355.5264 19.7767,352.8864 19.7767,352.8864 17.7767,349.3664 17.7767,349.3664 17.8965,345.5665 17.8965,345.5665 18.5365,341.9265 18.5365,341.9265 19.8965,338.6465 19.8965,338.6465 22.5365,334.8465 22.5365,334.8465 26.8565,331.8465 26.8565,331.8465 31.6165,330.3265 31.6165,330.3265 35.4165,330.8465 35.4165,330.8465 36.9365,332.2065"/>
    <polyline points="57.1563,306.2692 57.1563,272.6912 57.1211,272.6709 28.1116,289.4598"/>
    <polyline points="37.0132,294.6412 39.3813,282.9376 39.3813,282.9376 28.086,279.1416"/>
    <polyline points="28.0861,266.1593 39.3813,262.3633 39.3813,262.3633 37.0132,250.6598"/>
    <polyline points="28.1116,255.8411 57.1212,272.6301 57.1564,272.6097 57.1564,239.0317"/>
    <polyline points="66.0836,244.1686 57.1564,252.0761 57.1564,252.0761 48.2292,244.1686"/>
    <polyline points="77.2996,250.6597 74.9315,262.3633 74.9315,262.3633 86.2268,266.1593"/>
    <polyline points="86.2012,255.8411 57.1917,272.6301 57.1917,272.6709 86.2012,289.4599"/>
    <polyline points="77.2996,294.6412 74.9315,282.9376 74.9315,282.9376 86.2268,279.1416"/>
    <polyline points="66.0835,301.1323 57.1563,293.2248 57.1563,293.2248 48.2292,301.1323"/>
  </g>
</svg>
