<?xml version="1.0" encoding="UTF-8" standalone="no"?>
<!-- Created with Inkscape (http://www.inkscape.org/) -->

<svg
   id="svg5"
   version="1.1"
   viewBox="0 0 210 297"
   height="297mm"
   width="210mm"
   sodipodi:docname="hannes-2.svg"
   inkscape:version="1.1.1 (3bf5ae0d25, 2021-09-20, custom)"
   xmlns:inkscape="http://www.inkscape.org/namespaces/inkscape"
   xmlns:sodipodi="http://sodipodi.sourceforge.net/DTD/sodipodi-0.dtd"
   xmlns="http://www.w3.org/2000/svg"
   xmlns:svg="http://www.w3.org/2000/svg">
  <sodipodi:namedview
     id="namedview7"
     pagecolor="#ffffff"
     bordercolor="#666666"
     borderopacity="1.0"
     inkscape:pageshadow="2"
     inkscape:pageopacity="0.0"
     inkscape:pagecheckerboard="0"
     inkscape:document-units="mm"
     showgrid="false"
     inkscape:zoom="0.71740192"
     inkscape:cx="441.17529"
     inkscape:cy="349.87361"
     inkscape:current-layer="layer1" />
  <defs
     id="defs2" />
  <g
     inkscape:label="Layer 1"
     inkscape:groupmode="layer"
     id="layer1">
    <path
       style="fill:none;stroke:#000001;stroke-width:0.5;stroke-linecap:square;stroke-linejoin:round;stroke-miterlimit:4;stroke-dasharray:none;stroke-opacity:1"
       d="m 184.23025,62.934821 v 8.88417"
       id="path5200-6-1"
       sodipodi:nodetypes="cc" />
    <path
       style="fill:none;stroke:#000001;stroke-width:0.5;stroke-linecap:square;stroke-linejoin:round;stroke-miterlimit:4;stroke-dasharray:none;stroke-opacity:1"
       d="m 184.23025,66.386161 -2.36199,-2.0922"
       id="path5202-7-2"
       sodipodi:nodetypes="cc" />
    <path
       style="fill:none;stroke:#000001;stroke-width:0.5;stroke-linecap:square;stroke-linejoin:round;stroke-miterlimit:4;stroke-dasharray:none;stroke-opacity:1"
       d="m 184.23025,66.386161 2.36198,-2.0922"
       id="path5202-9-3-9"
       sodipodi:nodetypes="cc" />
    <path
       style="fill:none;stroke:#000001;stroke-width:0.5;stroke-linecap:square;stroke-linejoin:round;stroke-miterlimit:4;stroke-dasharray:none;stroke-opacity:1"
       d="m 191.915,67.382291 -7.67543,4.44209"
       id="path46572"
       sodipodi:nodetypes="cc" />
    <path
       style="fill:none;stroke:#000001;stroke-width:0.5;stroke-linecap:square;stroke-linejoin:round;stroke-miterlimit:4;stroke-dasharray:none;stroke-opacity:1"
       d="m 188.93324,69.107961 0.62655,-3.09656"
       id="path46574"
       sodipodi:nodetypes="cc" />
    <path
       style="fill:none;stroke:#000001;stroke-width:0.5;stroke-linecap:square;stroke-linejoin:round;stroke-miterlimit:4;stroke-dasharray:none;stroke-opacity:1"
       d="m 188.93324,69.107961 2.98854,1.00436"
       id="path46576"
       sodipodi:nodetypes="cc" />
    <path
       style="fill:none;stroke:#000001;stroke-width:0.5;stroke-linecap:square;stroke-linejoin:round;stroke-miterlimit:4;stroke-dasharray:none;stroke-opacity:1"
       d="m 191.91499,76.277271 -7.67542,-4.44209"
       id="path46580"
       sodipodi:nodetypes="cc" />
    <path
       style="fill:none;stroke:#000001;stroke-width:0.5;stroke-linecap:square;stroke-linejoin:round;stroke-miterlimit:4;stroke-dasharray:none;stroke-opacity:1"
       d="m 188.93323,74.551591 2.98854,-1.00435"
       id="path46582"
       sodipodi:nodetypes="cc" />
    <path
       style="fill:none;stroke:#000001;stroke-width:0.5;stroke-linecap:square;stroke-linejoin:round;stroke-miterlimit:4;stroke-dasharray:none;stroke-opacity:1"
       d="m 188.93323,74.551591 0.62655,3.09656"
       id="path46584"
       sodipodi:nodetypes="cc" />
    <path
       style="fill:none;stroke:#000001;stroke-width:0.5;stroke-linecap:square;stroke-linejoin:round;stroke-miterlimit:4;stroke-dasharray:none;stroke-opacity:1"
       d="m 184.23025,80.724751 v -8.88417"
       id="path46588"
       sodipodi:nodetypes="cc" />
    <path
       style="fill:none;stroke:#000001;stroke-width:0.5;stroke-linecap:square;stroke-linejoin:round;stroke-miterlimit:4;stroke-dasharray:none;stroke-opacity:1"
       d="m 184.23025,77.273411 2.36198,2.0922"
       id="path46590"
       sodipodi:nodetypes="cc" />
    <path
       style="fill:none;stroke:#000001;stroke-width:0.5;stroke-linecap:square;stroke-linejoin:round;stroke-miterlimit:4;stroke-dasharray:none;stroke-opacity:1"
       d="m 184.23025,77.273411 -2.36199,2.0922"
       id="path46592"
       sodipodi:nodetypes="cc" />
    <path
       style="fill:none;stroke:#000001;stroke-width:0.5;stroke-linecap:square;stroke-linejoin:round;stroke-miterlimit:4;stroke-dasharray:none;stroke-opacity:1"
       d="m 176.54547,76.277271 7.67545,-4.44209"
       id="path46596"
       sodipodi:nodetypes="cc" />
    <path
       style="fill:none;stroke:#000001;stroke-width:0.5;stroke-linecap:square;stroke-linejoin:round;stroke-miterlimit:4;stroke-dasharray:none;stroke-opacity:1"
       d="m 179.52726,74.551601 -0.62656,3.09656"
       id="path46598"
       sodipodi:nodetypes="cc" />
    <path
       style="fill:none;stroke:#000001;stroke-width:0.5;stroke-linecap:square;stroke-linejoin:round;stroke-miterlimit:4;stroke-dasharray:none;stroke-opacity:1"
       d="m 179.52726,74.551601 -2.98854,-1.00436"
       id="path46600"
       sodipodi:nodetypes="cc" />
    <path
       style="fill:none;stroke:#000001;stroke-width:0.5;stroke-linecap:square;stroke-linejoin:round;stroke-miterlimit:4;stroke-dasharray:none;stroke-opacity:1"
       d="m 176.54547,67.382301 7.67545,4.44209"
       id="path46604"
       sodipodi:nodetypes="cc" />
    <path
       style="fill:none;stroke:#000001;stroke-width:0.5;stroke-linecap:square;stroke-linejoin:round;stroke-miterlimit:4;stroke-dasharray:none;stroke-opacity:1"
       d="m 179.52725,69.107971 -2.98854,1.00436"
       id="path46606"
       sodipodi:nodetypes="cc" />
    <path
       style="fill:none;stroke:#000001;stroke-width:0.5;stroke-linecap:square;stroke-linejoin:round;stroke-miterlimit:4;stroke-dasharray:none;stroke-opacity:1"
       d="m 179.52725,69.107971 -0.62657,-3.09656"
       id="path46608"
       sodipodi:nodetypes="cc" />
    <path
       d="m 179.29843,87.090421 -0.40216,-0.35982 -1.00541,-0.1376 -1.25941,0.40218 -1.14299,0.79374 -0.6985,1.00542 -0.35984,0.86783 -0.16933,0.96307 -0.0318,1.00542 0.52917,0.93133 0.66675,0.6985 0.80433,0.36617 1.0689,0.13335 1.29117,-0.19896 1.03717,-0.53445 0.89958,-0.69744 0.63499,-0.53975"
       style="fill:none;stroke:#000000;stroke-width:0.5;stroke-linecap:round;stroke-linejoin:round;stroke-miterlimit:4;stroke-dasharray:none"
       id="path39977" />
    <path
       d="m 182.63215,86.825851 v 0.0635 l 0.0318,2.89981 v 1.73567 l -0.0953,1.50177 -0.0317,0.60007 h 2.12724 l 3.03741,0.0667"
       style="fill:none;stroke:#000000;stroke-width:0.5;stroke-linecap:round;stroke-linejoin:round;stroke-miterlimit:4;stroke-dasharray:none"
       id="path39979" />
    <path
       d="m 193.30012,86.857601 -4.33914,0.13758 -0.0317,3.66182 4.46615,-0.49741 -4.43441,0.49741 0.13759,3.03635 5.1329,-0.33337"
       style="fill:none;stroke:#000000;stroke-width:0.5;stroke-linecap:round;stroke-linejoin:round;stroke-miterlimit:4;stroke-dasharray:none"
       id="path39981" />
    <path
       style="fill:none;stroke:#000001;stroke-width:0.5;stroke-linecap:square;stroke-linejoin:round;stroke-miterlimit:4;stroke-dasharray:none;stroke-opacity:1"
       d="m 15.122628,63.243766 v 8.88417"
       id="path5200-6"
       sodipodi:nodetypes="cc" />
    <path
       style="fill:none;stroke:#000001;stroke-width:0.5;stroke-linecap:square;stroke-linejoin:round;stroke-miterlimit:4;stroke-dasharray:none;stroke-opacity:1"
       d="m 15.122628,66.695106 -2.36198,-2.0922"
       id="path5202-7"
       sodipodi:nodetypes="cc" />
    <path
       style="fill:none;stroke:#000001;stroke-width:0.5;stroke-linecap:square;stroke-linejoin:round;stroke-miterlimit:4;stroke-dasharray:none;stroke-opacity:1"
       d="m 15.122628,66.695106 2.36197,-2.0922"
       id="path5202-9-3"
       sodipodi:nodetypes="cc" />
    <path
       style="fill:none;stroke:#000001;stroke-width:0.5;stroke-linecap:square;stroke-linejoin:round;stroke-miterlimit:4;stroke-dasharray:none;stroke-opacity:1"
       d="m 22.807388,67.691246 -7.67543,4.44209"
       id="path46612"
       sodipodi:nodetypes="cc" />
    <path
       style="fill:none;stroke:#000001;stroke-width:0.5;stroke-linecap:square;stroke-linejoin:round;stroke-miterlimit:4;stroke-dasharray:none;stroke-opacity:1"
       d="m 19.825618,69.416916 0.62656,-3.09656"
       id="path46614"
       sodipodi:nodetypes="cc" />
    <path
       style="fill:none;stroke:#000001;stroke-width:0.5;stroke-linecap:square;stroke-linejoin:round;stroke-miterlimit:4;stroke-dasharray:none;stroke-opacity:1"
       d="m 19.825618,69.416916 2.98854,1.00436"
       id="path46616"
       sodipodi:nodetypes="cc" />
    <path
       style="fill:none;stroke:#000001;stroke-width:0.5;stroke-linecap:square;stroke-linejoin:round;stroke-miterlimit:4;stroke-dasharray:none;stroke-opacity:1"
       d="m 22.807388,76.586216 -7.67543,-4.44209"
       id="path46620"
       sodipodi:nodetypes="cc" />
    <path
       style="fill:none;stroke:#000001;stroke-width:0.5;stroke-linecap:square;stroke-linejoin:round;stroke-miterlimit:4;stroke-dasharray:none;stroke-opacity:1"
       d="m 19.825618,74.860546 2.98854,-1.00436"
       id="path46622"
       sodipodi:nodetypes="cc" />
    <path
       style="fill:none;stroke:#000001;stroke-width:0.5;stroke-linecap:square;stroke-linejoin:round;stroke-miterlimit:4;stroke-dasharray:none;stroke-opacity:1"
       d="m 19.825618,74.860546 0.62656,3.09655"
       id="path46624"
       sodipodi:nodetypes="cc" />
    <path
       style="fill:none;stroke:#000001;stroke-width:0.5;stroke-linecap:square;stroke-linejoin:round;stroke-miterlimit:4;stroke-dasharray:none;stroke-opacity:1"
       d="m 15.122608,81.033686 v -8.88417"
       id="path46628"
       sodipodi:nodetypes="cc" />
    <path
       style="fill:none;stroke:#000001;stroke-width:0.5;stroke-linecap:square;stroke-linejoin:round;stroke-miterlimit:4;stroke-dasharray:none;stroke-opacity:1"
       d="m 15.122608,77.582346 2.36198,2.0922"
       id="path46630"
       sodipodi:nodetypes="cc" />
    <path
       style="fill:none;stroke:#000001;stroke-width:0.5;stroke-linecap:square;stroke-linejoin:round;stroke-miterlimit:4;stroke-dasharray:none;stroke-opacity:1"
       d="m 15.122608,77.582346 -2.36198,2.0922"
       id="path46632"
       sodipodi:nodetypes="cc" />
    <path
       style="fill:none;stroke:#000001;stroke-width:0.5;stroke-linecap:square;stroke-linejoin:round;stroke-miterlimit:4;stroke-dasharray:none;stroke-opacity:1"
       d="m 7.437858,76.586206 7.67543,-4.44208"
       id="path46636"
       sodipodi:nodetypes="cc" />
    <path
       style="fill:none;stroke:#000001;stroke-width:0.5;stroke-linecap:square;stroke-linejoin:round;stroke-miterlimit:4;stroke-dasharray:none;stroke-opacity:1"
       d="m 10.419628,74.860536 -0.62656,3.09656"
       id="path46638"
       sodipodi:nodetypes="cc" />
    <path
       style="fill:none;stroke:#000001;stroke-width:0.5;stroke-linecap:square;stroke-linejoin:round;stroke-miterlimit:4;stroke-dasharray:none;stroke-opacity:1"
       d="m 10.419628,74.860536 -2.98854,-1.00435"
       id="path46640"
       sodipodi:nodetypes="cc" />
    <path
       style="fill:none;stroke:#000001;stroke-width:0.5;stroke-linecap:square;stroke-linejoin:round;stroke-miterlimit:4;stroke-dasharray:none;stroke-opacity:1"
       d="m 7.437868,67.691246 7.67543,4.44209"
       id="path46644"
       sodipodi:nodetypes="cc" />
    <path
       style="fill:none;stroke:#000001;stroke-width:0.5;stroke-linecap:square;stroke-linejoin:round;stroke-miterlimit:4;stroke-dasharray:none;stroke-opacity:1"
       d="m 10.419638,69.416916 -2.98854,1.00436"
       id="path46646"
       sodipodi:nodetypes="cc" />
    <path
       style="fill:none;stroke:#000001;stroke-width:0.5;stroke-linecap:square;stroke-linejoin:round;stroke-miterlimit:4;stroke-dasharray:none;stroke-opacity:1"
       d="m 10.419638,69.416916 -0.62656,-3.09655"
       id="path46648"
       sodipodi:nodetypes="cc" />
    <path
       d="m 9.772768,87.896256 -0.40216,-0.35983 -1.00541,-0.13759 -1.25942,0.40217 -1.14299,0.79375 -0.6985,1.00541 -0.35983,0.86783 -0.16934,0.96308 -0.0317,1.00541 0.52917,0.93133 0.66675,0.6985 0.80433,0.36618 1.06891,0.13335 1.29116,-0.19896 1.03717,-0.53446 0.89958,-0.69744 0.63499,-0.53975"
       style="fill:none;stroke:#000000;stroke-width:0.5;stroke-linecap:round;stroke-linejoin:round;stroke-miterlimit:4;stroke-dasharray:none"
       id="path39959" />
    <path
       d="m 13.170018,87.568176 -0.127,3.53482 v 1.62983 l 0.23283,2.00024 -0.20108,-3.47132 -0.56727,0.20108 1.36102,-0.26458 1.53458,-0.16934 1.93674,-0.0952 v -3.33374 l -0.0317,4.16982 0.13758,1.59807 0.15875,0.83185 0.20108,0.40005"
       style="fill:none;stroke:#000000;stroke-width:0.5;stroke-linecap:round;stroke-linejoin:round;stroke-miterlimit:4;stroke-dasharray:none"
       id="path39961" />
    <path
       d="m 19.213108,87.695176 0.0952,3.30199 0.0741,3.50201 0.0952,-4.23226 -0.20109,-1.93675 1.06892,-0.63499 1.26999,-0.20109 1.02658,0.13759 0.80433,0.0317 0.60325,0.13758 0.35983,0.35983 0.10584,0.43392 -0.53975,0.43391 -0.96308,0.37042 -0.89958,0.40216 -1.00541,0.32808 -1.66158,0.508 -0.0635,0.26459 1.22766,0.66674 0.96308,0.66675 1.47108,0.86783 2.26482,1.49648 0.23284,0.0333"
       style="fill:none;stroke:#000000;stroke-width:0.5;stroke-linecap:round;stroke-linejoin:round;stroke-miterlimit:4;stroke-dasharray:none"
       id="path39963" />
    <path
       style="fill:none;stroke:#000001;stroke-width:0.5;stroke-linecap:square;stroke-linejoin:round;stroke-miterlimit:4;stroke-dasharray:none;stroke-opacity:1"
       d="m 63.045588,62.083346 v 8.88417"
       id="path5200-6-9"
       sodipodi:nodetypes="cc" />
    <path
       style="fill:none;stroke:#000001;stroke-width:0.5;stroke-linecap:square;stroke-linejoin:round;stroke-miterlimit:4;stroke-dasharray:none;stroke-opacity:1"
       d="m 63.045588,65.534686 -2.36198,-2.0922"
       id="path5202-7-6"
       sodipodi:nodetypes="cc" />
    <path
       style="fill:none;stroke:#000001;stroke-width:0.5;stroke-linecap:square;stroke-linejoin:round;stroke-miterlimit:4;stroke-dasharray:none;stroke-opacity:1"
       d="m 63.045588,65.534686 2.36198,-2.0922"
       id="path5202-9-3-3"
       sodipodi:nodetypes="cc" />
    <path
       style="fill:none;stroke:#000001;stroke-width:0.5;stroke-linecap:square;stroke-linejoin:round;stroke-miterlimit:4;stroke-dasharray:none;stroke-opacity:1"
       d="m 70.730353,66.530816 -7.675435,4.44209"
       id="path46532"
       sodipodi:nodetypes="cc" />
    <path
       style="fill:none;stroke:#000001;stroke-width:0.5;stroke-linecap:square;stroke-linejoin:round;stroke-miterlimit:4;stroke-dasharray:none;stroke-opacity:1"
       d="m 67.748578,68.256486 0.626565,-3.09656"
       id="path46534"
       sodipodi:nodetypes="cc" />
    <path
       style="fill:none;stroke:#000001;stroke-width:0.5;stroke-linecap:square;stroke-linejoin:round;stroke-miterlimit:4;stroke-dasharray:none;stroke-opacity:1"
       d="m 67.748578,68.256486 2.988535,1.00436"
       id="path46536"
       sodipodi:nodetypes="cc" />
    <path
       style="fill:none;stroke:#000001;stroke-width:0.5;stroke-linecap:square;stroke-linejoin:round;stroke-miterlimit:4;stroke-dasharray:none;stroke-opacity:1"
       d="m 70.730353,75.425796 -7.675425,-4.44209"
       id="path46540"
       sodipodi:nodetypes="cc" />
    <path
       style="fill:none;stroke:#000001;stroke-width:0.5;stroke-linecap:square;stroke-linejoin:round;stroke-miterlimit:4;stroke-dasharray:none;stroke-opacity:1"
       d="m 67.748588,73.700126 2.988545,-1.00436"
       id="path46542"
       sodipodi:nodetypes="cc" />
    <path
       style="fill:none;stroke:#000001;stroke-width:0.5;stroke-linecap:square;stroke-linejoin:round;stroke-miterlimit:4;stroke-dasharray:none;stroke-opacity:1"
       d="m 67.748588,73.700126 0.626565,3.09655"
       id="path46544"
       sodipodi:nodetypes="cc" />
    <path
       style="fill:none;stroke:#000001;stroke-width:0.5;stroke-linecap:square;stroke-linejoin:round;stroke-miterlimit:4;stroke-dasharray:none;stroke-opacity:1"
       d="m 63.045608,79.873266 v -8.88417"
       id="path46548"
       sodipodi:nodetypes="cc" />
    <path
       style="fill:none;stroke:#000001;stroke-width:0.5;stroke-linecap:square;stroke-linejoin:round;stroke-miterlimit:4;stroke-dasharray:none;stroke-opacity:1"
       d="m 63.045608,76.421926 2.36198,2.0922"
       id="path46550"
       sodipodi:nodetypes="cc" />
    <path
       style="fill:none;stroke:#000001;stroke-width:0.5;stroke-linecap:square;stroke-linejoin:round;stroke-miterlimit:4;stroke-dasharray:none;stroke-opacity:1"
       d="m 63.045608,76.421926 -2.36198,2.0922"
       id="path46552"
       sodipodi:nodetypes="cc" />
    <path
       style="fill:none;stroke:#000001;stroke-width:0.5;stroke-linecap:square;stroke-linejoin:round;stroke-miterlimit:4;stroke-dasharray:none;stroke-opacity:1"
       d="m 55.360828,75.425796 7.67543,-4.44209"
       id="path46556"
       sodipodi:nodetypes="cc" />
    <path
       style="fill:none;stroke:#000001;stroke-width:0.5;stroke-linecap:square;stroke-linejoin:round;stroke-miterlimit:4;stroke-dasharray:none;stroke-opacity:1"
       d="m 58.342598,73.700126 -0.62656,3.09656"
       id="path46558"
       sodipodi:nodetypes="cc" />
    <path
       style="fill:none;stroke:#000001;stroke-width:0.5;stroke-linecap:square;stroke-linejoin:round;stroke-miterlimit:4;stroke-dasharray:none;stroke-opacity:1"
       d="m 58.342598,73.700126 -2.98854,-1.00436"
       id="path46560"
       sodipodi:nodetypes="cc" />
    <path
       style="fill:none;stroke:#000001;stroke-width:0.5;stroke-linecap:square;stroke-linejoin:round;stroke-miterlimit:4;stroke-dasharray:none;stroke-opacity:1"
       d="m 55.360828,66.530826 7.67543,4.44209"
       id="path46564"
       sodipodi:nodetypes="cc" />
    <path
       style="fill:none;stroke:#000001;stroke-width:0.5;stroke-linecap:square;stroke-linejoin:round;stroke-miterlimit:4;stroke-dasharray:none;stroke-opacity:1"
       d="m 58.342598,68.256496 -2.98854,1.00436"
       id="path46566"
       sodipodi:nodetypes="cc" />
    <path
       style="fill:none;stroke:#000001;stroke-width:0.5;stroke-linecap:square;stroke-linejoin:round;stroke-miterlimit:4;stroke-dasharray:none;stroke-opacity:1"
       d="m 58.342598,68.256496 -0.62656,-3.09655"
       id="path46568"
       sodipodi:nodetypes="cc" />
    <path
       d="m 57.796058,87.410566 -0.40216,-0.35983 -1.00541,-0.13759 -1.25942,0.40217 -1.14299,0.79375 -0.6985,1.00541 -0.35983,0.86783 -0.16934,0.96308 -0.0317,1.00541 0.52917,0.93133 0.66675,0.6985 0.80433,0.36618 1.06891,0.13335 1.29116,-0.19896 1.03717,-0.53446 0.89958,-0.69744 0.63499,-0.53975"
       style="fill:none;stroke:#000000;stroke-width:0.5;stroke-linecap:round;stroke-linejoin:round;stroke-miterlimit:4;stroke-dasharray:none"
       id="path39991" />
    <path
       d="m 61.130078,87.145986 v 0.0635 l 0.0318,2.89982 v 1.73566 l -0.0953,1.50177 -0.0318,0.60007 h 2.12724 l 3.03741,0.0667"
       style="fill:none;stroke:#000000;stroke-width:0.5;stroke-linecap:round;stroke-linejoin:round;stroke-miterlimit:4;stroke-dasharray:none"
       id="path39993" />
    <path
       d="m 67.226158,94.214036 1.269995,-3.33215 0.79375,-2.20133 0.57149,-1.53457 0.16935,0.0317 0.63499,1.03716 0.93133,1.89441 0.66675,1.67216 0.59266,1.46579 0.50801,0.90011 m -5.20699,-2.47173 1.23825,-0.26458 1.42875,-0.43392 1.20649,-0.23283 1.13241,-0.26458"
       style="fill:none;stroke:#000000;stroke-width:0.5;stroke-linecap:round;stroke-linejoin:round;stroke-miterlimit:4;stroke-dasharray:none"
       id="path39995" />
    <path
       style="fill:none;stroke:#000001;stroke-width:0.5;stroke-linecap:square;stroke-linejoin:round;stroke-miterlimit:4;stroke-dasharray:none;stroke-opacity:1"
       d="m 119.91241,72.581119 v 8.88417"
       id="path5200-6-8"
       sodipodi:nodetypes="cc" />
    <path
       style="fill:none;stroke:#000001;stroke-width:0.5;stroke-linecap:square;stroke-linejoin:round;stroke-miterlimit:4;stroke-dasharray:none;stroke-opacity:1"
       d="m 119.91241,76.032459 -2.36198,-2.0922"
       id="path5202-7-1"
       sodipodi:nodetypes="cc" />
    <path
       style="fill:none;stroke:#000001;stroke-width:0.5;stroke-linecap:square;stroke-linejoin:round;stroke-miterlimit:4;stroke-dasharray:none;stroke-opacity:1"
       d="m 119.91241,76.032459 2.36198,-2.0922"
       id="path5202-9-3-0"
       sodipodi:nodetypes="cc" />
    <path
       style="fill:none;stroke:#000001;stroke-width:0.5;stroke-linecap:square;stroke-linejoin:round;stroke-miterlimit:4;stroke-dasharray:none;stroke-opacity:1"
       d="m 127.59717,77.028589 -7.67543,4.44209"
       id="path46652"
       sodipodi:nodetypes="cc" />
    <path
       style="fill:none;stroke:#000001;stroke-width:0.5;stroke-linecap:square;stroke-linejoin:round;stroke-miterlimit:4;stroke-dasharray:none;stroke-opacity:1"
       d="m 124.6154,78.754269 0.62657,-3.09657"
       id="path46654"
       sodipodi:nodetypes="cc" />
    <path
       style="fill:none;stroke:#000001;stroke-width:0.5;stroke-linecap:square;stroke-linejoin:round;stroke-miterlimit:4;stroke-dasharray:none;stroke-opacity:1"
       d="m 124.6154,78.754269 2.98855,1.00435"
       id="path46656"
       sodipodi:nodetypes="cc" />
    <path
       style="fill:none;stroke:#000001;stroke-width:0.5;stroke-linecap:square;stroke-linejoin:round;stroke-miterlimit:4;stroke-dasharray:none;stroke-opacity:1"
       d="m 127.59717,85.923569 -7.67543,-4.44209"
       id="path46660"
       sodipodi:nodetypes="cc" />
    <path
       style="fill:none;stroke:#000001;stroke-width:0.5;stroke-linecap:square;stroke-linejoin:round;stroke-miterlimit:4;stroke-dasharray:none;stroke-opacity:1"
       d="m 124.6154,84.197889 2.98855,-1.00435"
       id="path46662"
       sodipodi:nodetypes="cc" />
    <path
       style="fill:none;stroke:#000001;stroke-width:0.5;stroke-linecap:square;stroke-linejoin:round;stroke-miterlimit:4;stroke-dasharray:none;stroke-opacity:1"
       d="m 124.6154,84.197889 0.62657,3.09656"
       id="path46664"
       sodipodi:nodetypes="cc" />
    <path
       style="fill:none;stroke:#000001;stroke-width:0.5;stroke-linecap:square;stroke-linejoin:round;stroke-miterlimit:4;stroke-dasharray:none;stroke-opacity:1"
       d="m 119.91241,90.371049 v -8.88417"
       id="path46668"
       sodipodi:nodetypes="cc" />
    <path
       style="fill:none;stroke:#000001;stroke-width:0.5;stroke-linecap:square;stroke-linejoin:round;stroke-miterlimit:4;stroke-dasharray:none;stroke-opacity:1"
       d="m 119.91241,86.919709 2.36198,2.0922"
       id="path46670"
       sodipodi:nodetypes="cc" />
    <path
       style="fill:none;stroke:#000001;stroke-width:0.5;stroke-linecap:square;stroke-linejoin:round;stroke-miterlimit:4;stroke-dasharray:none;stroke-opacity:1"
       d="m 119.91241,86.919709 -2.36198,2.0922"
       id="path46672"
       sodipodi:nodetypes="cc" />
    <path
       style="fill:none;stroke:#000001;stroke-width:0.5;stroke-linecap:square;stroke-linejoin:round;stroke-miterlimit:4;stroke-dasharray:none;stroke-opacity:1"
       d="m 112.22765,85.923569 7.67543,-4.44209"
       id="path46676"
       sodipodi:nodetypes="cc" />
    <path
       style="fill:none;stroke:#000001;stroke-width:0.5;stroke-linecap:square;stroke-linejoin:round;stroke-miterlimit:4;stroke-dasharray:none;stroke-opacity:1"
       d="m 115.20942,84.197889 -0.62656,3.09657"
       id="path46678"
       sodipodi:nodetypes="cc" />
    <path
       style="fill:none;stroke:#000001;stroke-width:0.5;stroke-linecap:square;stroke-linejoin:round;stroke-miterlimit:4;stroke-dasharray:none;stroke-opacity:1"
       d="m 115.20942,84.197889 -2.98854,-1.00435"
       id="path46680"
       sodipodi:nodetypes="cc" />
    <path
       style="fill:none;stroke:#000001;stroke-width:0.5;stroke-linecap:square;stroke-linejoin:round;stroke-miterlimit:4;stroke-dasharray:none;stroke-opacity:1"
       d="m 112.22765,77.028599 7.67543,4.44209"
       id="path46684"
       sodipodi:nodetypes="cc" />
    <path
       style="fill:none;stroke:#000001;stroke-width:0.5;stroke-linecap:square;stroke-linejoin:round;stroke-miterlimit:4;stroke-dasharray:none;stroke-opacity:1"
       d="m 115.20942,78.754279 -2.98854,1.00435"
       id="path46686"
       sodipodi:nodetypes="cc" />
    <path
       style="fill:none;stroke:#000001;stroke-width:0.5;stroke-linecap:square;stroke-linejoin:round;stroke-miterlimit:4;stroke-dasharray:none;stroke-opacity:1"
       d="m 115.20942,78.754279 -0.62656,-3.09656"
       id="path46688"
       sodipodi:nodetypes="cc" />
    <path
       d="m 111.87428,58.143849 -0.86783,0.15875 -0.93133,0.60324 -0.73025,0.89958 -0.5715,1.16417 -0.0635,1.37583 0.46567,1.42874 0.73025,0.70062 0.80433,0.43391 1.13241,0.0995 1.397,-0.13229 1.13241,-0.76305 0.70908,-1.23825 0.0317,-1.27 -0.16933,-1.22766 -0.66675,-1.03716 -0.40217,-0.56092 -0.63499,-0.37041 -0.762,-0.26458 h -0.60325"
       style="fill:none;stroke:#000000;stroke-width:0.5;stroke-linecap:round;stroke-linejoin:round;stroke-miterlimit:4;stroke-dasharray:none"
       id="path40001" />
    <path
       d="m 116.13912,65.008169 0.33867,-3.36125 0.26458,-2.40241 0.23283,-0.94191 0.20109,-0.0635 0.46566,0.33866 0.80433,1.62983 0.83608,1.59808 0.73025,1.50283 0.46567,-0.66675 1.22766,-2.29658 1.10066,-2.13782 0.23283,0.16933 0.24342,0.96308 0.23283,1.62983 0.26459,1.73566 0.26458,2.47014"
       style="fill:none;stroke:#000000;stroke-width:0.5;stroke-linecap:round;stroke-linejoin:round;stroke-miterlimit:4;stroke-dasharray:none"
       id="path40003" />
    <path
       d="m 124.97662,65.275399 1.27,-3.33215 0.79375,-2.20133 0.57149,-1.53457 0.16935,0.0317 0.63499,1.03716 0.93133,1.89441 0.66675,1.67216 0.59266,1.46579 0.50801,0.90011 m -5.20699,-2.47173 1.23825,-0.26458 1.42875,-0.43392 1.20649,-0.23283 1.13241,-0.26458"
       style="fill:none;stroke:#000000;stroke-width:0.5;stroke-linecap:round;stroke-linejoin:round;stroke-miterlimit:4;stroke-dasharray:none"
       id="path40005" />
    <path
       d="m 112.74179,97.782599 -0.86783,0.15875 -0.93133,0.60324 -0.73025,0.89958 -0.5715,1.164171 -0.0635,1.37583 0.46567,1.42874 0.73025,0.70062 0.80433,0.43391 1.13241,0.0995 1.397,-0.13229 1.13241,-0.76305 0.70908,-1.23825 0.0318,-1.27 -0.16933,-1.22766 -0.66675,-1.037161 -0.40217,-0.56092 -0.63499,-0.37041 -0.762,-0.26458 h -0.60325"
       style="fill:none;stroke:#000000;stroke-width:0.5;stroke-linecap:round;stroke-linejoin:round;stroke-miterlimit:4;stroke-dasharray:none"
       id="path40007" />
    <path
       d="m 117.3463,104.64692 v -1.86901 l 0.0952,-2.59291 0.0741,-1.068911 0.29633,-0.74083 0.93133,-0.46566 1.43933,-0.23284 1.42875,0.0317 1.23824,0.47625 0.35984,0.39158 -0.0317,0.80433 -0.43392,0.666751 -0.96308,0.60325 -1.2065,0.35983 -1.13241,0.16934 -2.03199,0.0635"
       style="fill:none;stroke:#000000;stroke-width:0.5;stroke-linecap:round;stroke-linejoin:round;stroke-miterlimit:4;stroke-dasharray:none"
       id="path40009" />
    <path
       d="m 124.10913,104.91415 1.27001,-3.33215 0.79375,-2.201331 0.57149,-1.53457 0.16934,0.0317 0.635,1.03716 0.93133,1.894411 0.66674,1.67216 0.59267,1.46579 0.508,0.90011 m -5.20699,-2.47173 1.23825,-0.26458 1.42875,-0.43392 1.20649,-0.23283 1.13241,-0.26458"
       style="fill:none;stroke:#000000;stroke-width:0.5;stroke-linecap:round;stroke-linejoin:round;stroke-miterlimit:4;stroke-dasharray:none"
       id="path40011" />
  </g>
</svg>
