<?xml version="1.0" encoding="utf-8" ?>
<svg xmlns="http://www.w3.org/2000/svg" xmlns:cc="http://creativecommons.org/ns#" xmlns:dc="http://purl.org/dc/elements/1.1/" xmlns:ev="http://www.w3.org/2001/xml-events" xmlns:inkscape="http://www.inkscape.org/namespaces/inkscape" xmlns:rdf="http://www.w3.org/1999/02/22-rdf-syntax-ns#" xmlns:sodipodi="http://sodipodi.sourceforge.net/DTD/sodipodi-0.dtd" xmlns:xlink="http://www.w3.org/1999/xlink" baseProfile="tiny" height="29.70001604cm" version="1.2" viewBox="0 0 793.7012159999999 1122.5202912" width="21.00001134cm">
  <metadata>
    <rdf:RDF>
      <cc:Work>
        <dc:format>image/svg+xml</dc:format>
        <dc:source>vpype read hannes.svg deduplicate linesimplify linemerge linesort write hannes-optim.svg
</dc:source>
        <dc:date>2021-12-25T10:00:21.926315</dc:date>
      </cc:Work>
    </rdf:RDF>
  </metadata>
  <defs/>
  <g fill="none" id="layer1" inkscape:groupmode="layer" inkscape:label="1" stroke="#00f" style="display:inline">
    <polyline points="586.8953,257.2351 593.621,264.0969 593.621,264.0969 593.0239,265.9636 593.0239,265.9636 584.7476,277.946 584.7476,277.946 588.6728,272.2438 588.6728,272.2438 592.9554,266.0321 592.9554,266.0321 594.4997,262.1011 594.4997,262.1011 593.7988,264.2747 593.7988,264.2747 596.0335,266.5091 596.0335,266.5091 600.6592,269.8568 600.6592,269.8568 605.2239,272.9608 605.2239,272.9608 602.4795,271.0837 602.4795,271.0837 600.6654,274.0148 600.6654,274.0148 597.8926,277.4474 597.8926,277.4474 595.1508,281.4585 595.1508,281.4585 590.5299,286.7389"/>
    <polyline points="578.9552,298.6169 587.9794,288.9337 587.9794,288.9337 579.2614,280.0799 579.2614,280.0799 570.8268,290.9002 570.8268,290.9002 579.193,280.1483 579.193,280.1483 571.6107,273.1602 571.6107,273.1602 561.3452,285.0241"/>
    <polyline points="546.3768,298.391 553.0849,292.0037 553.0849,292.0037 557.6708,287.4184 557.6708,287.4184 559.0422,288.9265 559.0422,288.9265 562.4403,292.7348 562.4403,292.7348 566.6049,296.899 566.6049,296.899 573.6314,303.7877 573.6314,303.7877 573.7837,303.9401"/>
    <polyline points="560.1401,317.5821 553.5806,310.8865 553.5806,310.8865 550.2717,307.4411 550.2717,307.4411 547.3336,304.6403 547.3336,304.6403 543.7302,301.0373"/>
    <polyline points="541.5961,303.6485 541.4695,303.9325 541.4695,303.9325 542.7773,311.1258 542.7773,311.1258 543.972,319.5291 543.972,319.5291 546.165,332.2157"/>
    <polyline points="558.1931,319.3765 547.8393,317.2365 547.8393,317.2365 536.69,316.3999 536.69,316.3999 529.5501,316.3328"/>
    <polyline points="506.3794,316.1365 491.9514,330.5628 491.9514,330.5628 496.8772,325.3389 496.8772,325.3389 500.4904,322.9708 500.4904,322.9708 505.2787,320.8717 505.2787,320.8717 509.3186,321.2138 509.3186,321.2138 513.197,322.8127 513.197,322.8127 515.8223,325.8637 515.8223,325.8637 515.7781,328.248 515.7781,328.248 514.7227,331.1754 514.7227,331.1754 512.3663,333.5314 512.3663,333.5314 508.1875,336.7837 508.1875,336.7837 502.3927,340.6858"/>
    <polyline points="506.9462,345.6917 510.6564,348.4048 510.6564,348.4048 514.7359,350.898 514.7359,350.898 518.5166,353.0924 518.5166,353.0924 520.7154,353.4332 520.7154,353.4332 522.0402,353.3533 522.0402,353.3533 522.9214,352.9205 522.9214,352.9205 523.296,351.3013 523.296,351.3013 521.0064,347.0184 521.0064,347.0184 518.9409,342.9596 518.9409,342.9596 516.9367,338.6901 516.9367,338.6901 516.0797,336.1115 516.0797,336.1115 515.8518,334.298 515.8518,334.298 516.6967,333.6023 516.6967,333.6023 519.4437,333.4945 519.4437,333.4945 523.9403,335.1225 523.9403,335.1225 528.621,337.6618 528.621,337.6618 531.4279,340.1827 531.4279,340.1827 533.106,342.2888 533.106,342.2888 533.703,343.8825 533.703,343.8825 533.3878,344.9945"/>
    <polyline points="502.1671,313.7777 502.4823,312.6657 502.4823,312.6657 501.8853,311.072 501.8853,311.072 500.2072,308.9659 500.2072,308.9659 497.4003,306.445 497.4003,306.445 492.7196,303.9057 492.7196,303.9057 488.223,302.2777 488.223,302.2777 485.476,302.3855 485.476,302.3855 484.6309,303.0809 484.6309,303.0809 484.8588,304.8945 484.8588,304.8945 485.7157,307.4731 485.7157,307.4731 487.72,311.7425 487.72,311.7425 489.7855,315.8014 489.7855,315.8014 492.0751,320.0843 492.0751,320.0843 491.7005,321.7034 491.7005,321.7034 490.8195,322.1365 490.8195,322.1365 489.4947,322.2164 489.4947,322.2164 487.296,321.8756 487.296,321.8756 483.5153,319.6811 483.5153,319.6811 479.4358,317.188 479.4358,317.188 475.7255,314.4749"/>
    <polyline points="479.3367,298.9654 475.8573,296.6191 475.8573,296.6191 471.5671,294.1871 471.5671,294.1871 468.2304,291.8475 468.2304,291.8475 464.9999,289.7502"/>
    <polyline points="472.3786,281.4263 471.6467,284.548 471.6467,284.548 469.903,289.0797 469.903,289.0797 467.8917,294.2275 467.8917,294.2275 466.0271,300.4734 466.0271,300.4734 465.3005,304.1872 465.3005,304.1872 465.6309,304.6533 465.6309,304.6533 470.2606,302.7128 470.2606,302.7128 476.8406,299.8677 476.8406,299.8677 486.962,295.7224"/>
    <polyline points="503.5082,278.3775 520.0819,249.6301 520.1221,249.6301 536.6958,278.3775"/>
    <polyline points="526.5099,278.4028 530.2572,267.2096 530.2572,267.2096 541.8107,269.5563"/>
    <polyline points="548.2187,258.4416 540.4125,249.5952 540.4125,249.5952 548.2187,240.7487"/>
    <polyline points="553.2897,249.5952 520.1423,249.5952 520.1222,249.5602 536.6959,220.8128"/>
    <polyline points="526.51,220.7875 530.2573,231.9807 530.2573,231.9807 541.8108,229.634"/>
    <polyline points="513.6941,220.7875 509.9468,231.9807 509.9468,231.9807 498.3933,229.634"/>
    <polyline points="503.5082,220.8128 520.0819,249.5602 520.0617,249.5951 486.9143,249.5951"/>
    <polyline points="491.9853,240.7487 499.7915,249.5951 499.7915,249.5951 491.9853,258.4416"/>
    <polyline points="498.3933,269.5563 509.9468,267.2096 509.9468,267.2096 513.6941,278.4028"/>
    <polyline points="469.2855,279.1921 464.1993,283.8298 464.1993,283.8298 459.9331,287.9463 459.9331,287.9463 455.4244,292.4545 455.4244,292.4545 454.3236,292.7585 454.3236,292.7585 454.2896,287.4669 454.2896,287.4669 454.8683,280.6148 454.8683,280.6148 455.5658,271.752 455.5658,271.752 456.0891,266.8473 456.0891,266.8473 453.3679,269.4185 453.3679,269.4185 448.2247,274.5611 448.2247,274.5611 441.8196,281.115"/>
    <polyline points="452.9753,262.8839 447.8891,267.5216 447.8891,267.5216 443.6227,271.6378 443.6227,271.6378 439.1139,276.1461 439.1139,276.1461 438.0132,276.4501 438.0132,276.4501 437.9792,271.1585 437.9792,271.1585 438.5579,264.3064 438.5579,264.3064 439.2553,255.4436 439.2553,255.4436 439.7787,250.5388 439.7787,250.5388 437.0575,253.1101 437.0575,253.1101 431.9143,258.2526 431.9143,258.2526 425.5092,264.8066"/>
    <polyline points="411.7438,250.6369 422.2464,260.5492 422.2464,260.5492 430.1606,252.7856 430.1606,252.7856 418.5889,243.3448 418.5889,243.3448 430.0859,252.7109 430.0859,252.7109 436.2626,245.8877 436.2626,245.8877 423.4735,234.5275"/>
    <polyline points="446.594,237.0064 440.9583,230.2421 440.9583,230.2421 436.9679,225.3699 436.9679,225.3699 435.6186,223.2444 435.6186,223.2444 435.8367,222.792 435.8367,222.792 437.2379,222.6402 437.2379,222.6402 441.5856,224.3053 441.5856,224.3053 445.9277,225.8589 445.9277,225.8589 449.9176,227.4132 449.9176,227.4132 449.4641,225.4071 449.4641,225.4071 447.2748,219.1243 447.2748,219.1243 445.1666,213.3461 445.1666,213.3461 445.8672,213.2702 445.8672,213.2702 448.0497,214.6407 448.0497,214.6407 451.4444,217.2586 451.4444,217.2586 455.0873,220.0188 455.0873,220.0188 460.0851,224.1337"/>
    <polyline points="453.8909,204.3888 454.8968,203.383 454.8968,203.383 456.6555,202.6005 456.6555,202.6005 458.3976,202.225 458.3976,202.225 460.1029,202.5891 460.1029,202.5891 463.1279,203.3904 463.1279,203.3904 465.6749,205.3724 465.6749,205.3724 467.9647,207.7678 467.9647,207.7678 469.0665,211.2339 469.0665,211.2339 468.5858,214.5294 468.5858,214.5294 466.5003,217.1025 466.5003,217.1025 464.4285,218.8071 464.4285,218.8071 462.2869,219.3478 462.2869,219.3478 459.7768,219.2731 459.7768,219.2731 456.3647,217.4143 456.3647,217.4143 453.9327,214.7707 453.9327,214.7707 452.7381,211.6706 452.7381,211.6706 452.2964,208.7939 452.2964,208.7939 452.7366,206.1285 452.7366,206.1285 453.8909,204.3887"/>
    <polyline points="461.4137,197.3353 467.6636,203.2668 467.6636,203.2668 474.2471,209.6026 474.2471,209.6026 466.5988,201.6376 466.5988,201.6376 462.6909,198.4007 462.6909,198.4007 463.302,195.4473 463.302,195.4473 465.0487,192.9589 465.0487,192.9589 467.0143,191.5011 467.0143,191.5011 468.414,190.2185 468.414,190.2185 469.6737,189.4665 469.6737,189.4665 470.9375,189.5303 470.9375,189.5303 471.9144,190.1542 471.9144,190.1542 471.8146,191.8544 471.8146,191.8544 470.892,194.1433 470.892,194.1433 470.1338,196.3849 470.1338,196.3849 469.0625,198.6664 469.0625,198.6664 467.229,202.3737 467.229,202.3737 467.6112,202.9676 467.6112,202.9676 470.8882,202.1505 470.8882,202.1505 473.724,201.7745 473.724,201.7745 477.7779,200.9225 477.7779,200.9225 484.315,199.9066 484.315,199.9066 484.7646,199.5798"/>
    <polyline points="486.2474,197.6038 483.4771,194.8339 483.4771,194.8339 481.2181,192.681 481.2181,192.681 478.6746,190.0319 478.6746,190.0319 473.6321,184.8841"/>
    <polyline points="474.578,183.9384 478.149,180.719 478.149,180.719 481.3443,177.9145 481.3443,177.9145 484.2914,174.9677 484.2914,174.9677 485.3147,173.2028"/>
    <polyline points="486.9792,171.6558 496.821,161.6983 496.821,161.6983 497.8337,165.6047 497.8337,165.6047 499.082,174.5462 499.082,174.5462 500.1312,182.3711 500.1312,182.3711 500.2272,183.1378 500.2272,183.1378 502.5006,181.8465 502.5006,181.8465 504.5032,179.9669 504.5032,179.9669 509.8697,173.8633"/>
    <polyline points="509.6106,148.4014 509.1936,149.0936 509.1936,149.0936 509.2666,150.6715 509.2666,150.6715 509.64,152.7874 509.64,152.7874 510.9337,155.2059 510.9337,155.2059 512.2585,157.0256 512.2585,157.0256 513.8548,158.7485 513.8548,158.7485 515.7297,159.6251 515.7297,159.6251 517.2801,159.4286 517.2801,159.4286 519.4401,158.2296 519.4401,158.2296 522.2867,155.6892 522.2867,155.6892 529.3037,148.3673"/>
    <polyline points="538.5719,157.3968 536.4841,155.9034 536.4841,155.9034 533.4334,155.1107 533.4334,155.1107 530.2431,155.2873 530.2431,155.2873 526.8851,156.2867 526.8851,156.2867 524.1792,158.7302 524.1792,158.7302 522.4663,162.3644 522.4663,162.3644 522.6621,165.1821 522.6621,165.1821 523.5097,167.6535 523.5097,167.6535 525.6602,170.1761 525.6602,170.1761 528.7904,172.8108 528.7904,172.8108 532.5551,173.7194 532.5551,173.7194 536.3355,172.8653 536.3355,172.8653 538.7777,170.5542 538.7777,170.5542 540.7258,167.9076 540.7258,167.9076 541.291,164.5912 541.291,164.5912 541.511,162.7118 541.511,162.7118 540.894,160.7086 540.894,160.7086 539.8168,158.6414 539.8168,158.6414 538.572,157.3967"/>
    <polyline points="548.2696,167.0933 541.3923,173.4458 541.3923,173.4458 538.3421,176.4956 538.3421,176.4956 535.0791,180.7188 535.0791,180.7188 541.1606,173.8083 541.1606,173.8083 539.6138,173.0142 539.6138,173.0142 542.9173,175.3272 542.9173,175.3272 546.4008,178.1764 546.4008,178.1764 550.5753,181.9941 550.5753,181.9941 556.8143,175.7559 556.8143,175.7559 548.9452,183.4932 548.9452,183.4932 546.2383,186.7675 546.2383,186.7675 545.0092,188.6516 545.0092,188.6516 544.6754,189.815"/>
    <polyline points="547.0429,192.5564 555.8995,188.9414 555.8995,188.9414 561.6571,186.4599 561.6571,186.4599 565.7082,184.7674 565.7082,184.7674 565.9985,185.1761 565.9985,185.1761 565.3677,188.427 565.3677,188.427 563.7442,193.8934 563.7442,193.8934 561.9905,198.398 561.9905,198.398 560.4703,202.3637 560.4703,202.3637 559.834,205.0961"/>
    <polyline points="562.5455,207.057 566.9926,203.0037 566.9926,203.0037 570.7221,199.4054 570.7221,199.4054 574.6636,195.4644 574.6636,195.4644 575.627,195.1999 575.627,195.1999 575.6659,199.8335 575.6659,199.8335 575.1693,205.8326 575.1693,205.8326 574.5716,213.5922 574.5716,213.5922 574.1206,217.8862 574.1206,217.8862 576.4993,215.6385 576.4993,215.6385 580.9953,211.143 580.9953,211.143 586.5945,205.4137"/>
    <polyline points="576.8493,221.359 581.2961,217.3055 581.2961,217.3055 585.0259,213.7074 585.0259,213.7074 588.9673,209.7665 588.9673,209.7665 589.9308,209.5019 589.9308,209.5019 589.9701,214.1355 589.9701,214.1355 589.4735,220.1346 589.4735,220.1346 588.8757,227.8942 588.8757,227.8942 588.4247,232.1882 588.4247,232.1882 590.8037,229.9408 590.8037,229.9408 595.2997,225.4453 595.2997,225.4453 600.8987,219.7158"/>
    <polyline points="612.9713,232.1435 603.7602,223.4485 603.7602,223.4485 596.8416,230.235 596.8416,230.235 606.9881,238.5188 606.9881,238.5188 596.9071,230.3005 596.9071,230.3005 591.5086,236.2661 591.5086,236.2661 602.7239,246.2324"/>
    <polyline points="605.3078,248.321 605.0334,249.2942 605.0334,249.2942 605.5585,250.6906 605.5585,250.6906 607.0311,252.5372 607.0311,252.5372 609.4925,254.7488 609.4925,254.7488 613.5949,256.9792 613.5949,256.9792 617.5347,258.4113 617.5347,258.4113 619.94,258.321 619.94,258.321 620.679,257.7132 620.679,257.7132 620.4768,256.1249 620.4768,256.1249 619.7226,253.8657 619.7226,253.8657 617.9614,250.1242 617.9614,250.1242 616.1467,246.5671 616.1467,246.5671 614.1356,242.8135 614.1356,242.8135 614.461,241.3962 614.461,241.3962 615.2318,241.0183 615.2318,241.0183 616.3918,240.9503 616.3918,240.9503 618.3175,241.2519 618.3175,241.2519 621.6314,243.179 621.6314,243.179 625.2072,245.3682 625.2072,245.3682 628.46,247.7492"/>
    <polyline points="566.283,197.8182 563.4511,195.9769 563.4511,195.9769 560.5259,193.9234 560.5259,193.9234 556.7656,191.7876 556.7656,191.7876 553.7154,189.7279"/>
    <polyline points="491.0656,192.54 488.3012,189.776 488.3012,189.776 485.2174,186.3396 485.2174,186.3396 479.456,179.8025"/>
    <polyline points="276.4644,161.6703 242.8864,161.6703 242.866,161.7056 259.655,190.7151"/>
    <polyline points="264.8363,181.8135 253.1328,179.4454 253.1328,179.4454 249.3368,190.7407"/>
    <polyline points="236.3545,190.7407 232.5585,179.4454 232.5585,179.4454 220.8549,181.8135"/>
    <polyline points="226.0362,190.7151 242.8252,161.7056 242.8048,161.6703 209.2269,161.6703"/>
    <polyline points="214.3638,152.7432 222.2713,161.6703 222.2713,161.6703 214.3638,170.5975"/>
    <polyline points="220.8549,141.5271 232.5584,143.8952 232.5584,143.8952 236.3544,132.6"/>
    <polyline points="226.0362,132.6255 242.8252,161.6351 242.866,161.6351 259.655,132.6255"/>
    <polyline points="264.8363,141.5271 253.1328,143.8952 253.1328,143.8952 249.3368,132.6"/>
    <polyline points="271.3275,152.7432 263.4199,161.6703 263.4199,161.6703 271.3275,170.5975"/>
    <polyline points="230.8228,226.5017 231.8228,231.1818 231.8228,231.1818 233.4628,236.5818 233.4628,236.5818 234.3428,241.1417 234.3428,241.1417 235.3427,245.4217"/>
    <polyline points="247.7025,250.5812 235.2226,250.941 235.2226,250.941 221.9866,251.221 221.9866,251.221 237.9826,251.5809 237.9826,251.5809 245.3026,250.8209 245.3026,250.8209 247.7025,254.8608 247.7025,254.8608 248.4626,259.6608 248.4626,259.6608 247.9425,263.5408 247.9425,263.5408 247.8227,266.5808 247.8227,266.5808 247.3027,268.8608 247.3027,268.8608 245.9427,270.2208 245.9427,270.2208 244.3027,270.6208 244.3027,270.6208 242.6628,268.5808 242.6628,268.5808 241.2627,264.9408 241.2627,264.9408 239.7428,261.5408 239.7428,261.5408 238.5028,257.7408 238.5028,257.7408 236.5828,251.4609 236.5828,251.4609 235.5827,251.2209 235.5827,251.2209 233.0628,255.8608 233.0628,255.8608 230.5428,259.5008 230.5428,259.5008 227.2628,265.0608 227.2628,265.0608 221.6068,273.6208 221.6068,273.6208 221.4809,274.5008"/>
    <polyline points="221.9866,278.4204 227.6626,278.4204 227.6626,278.4204 232.1826,278.3006 232.1826,278.3006 237.5026,278.4204 237.5026,278.4204 247.9425,278.5402"/>
    <polyline points="230.8228,285.4586 231.8228,290.1386 231.8228,290.1386 233.4628,295.5386 233.4628,295.5386 234.3428,300.0986 234.3428,300.0986 235.3427,304.3786"/>
    <polyline points="221.4808,305.1386 224.8828,303.2186 224.8828,303.2186 230.4228,300.9786 230.4228,300.9786 236.7428,298.4586 236.7428,298.4586 243.9027,294.9386 243.9027,294.9386 247.8227,292.5386 247.8227,292.5386 247.9425,291.8986 247.9425,291.8986 242.1426,289.7386 242.1426,289.7386 233.8226,286.7386 233.8226,286.7386 221.2286,281.9386"/>
    <polyline points="222.2386,309.4218 230.8226,309.782 230.8226,309.782 238.2226,309.9018 238.2226,309.9018 246.1826,309.9018 246.1826,309.9018 247.4225,310.5418 247.4225,310.5418 242.7826,314.8218 242.7826,314.8218 236.2226,319.8618 236.2226,319.8618 227.7826,326.4218 227.7826,326.4218 222.9906,329.9418 222.9906,329.9418 227.6626,330.0616 227.6626,330.0616 236.7426,330.0616 236.7426,330.0616 248.1825,329.9418"/>
    <polyline points="182.0062,329.9418 170.5662,330.0616 170.5662,330.0616 161.4862,330.0616 161.4862,330.0616 156.8142,329.9418 156.8142,329.9418 161.6062,326.4218 161.6062,326.4218 170.0462,319.8618 170.0462,319.8618 176.6062,314.8218 176.6062,314.8218 181.2462,310.5418 181.2462,310.5418 180.0062,309.9018 180.0062,309.9018 172.0462,309.9018 172.0462,309.9018 164.6462,309.782 164.6462,309.782 156.0623,309.4218"/>
    <polyline points="155.3044,305.1424 158.7064,303.2224 158.7064,303.2224 164.2464,300.9824 164.2464,300.9824 170.5664,298.4624 170.5664,298.4624 177.7264,294.9424 177.7264,294.9424 181.6463,292.5424 181.6463,292.5424 181.7662,291.9024 181.7662,291.9024 175.9662,289.7424 175.9662,289.7424 167.6462,286.7424 167.6462,286.7424 155.0523,281.9424"/>
    <polyline points="155.8102,278.4242 161.4862,278.4242 161.4862,278.4242 166.0062,278.3044 166.0062,278.3044 171.3262,278.4242 171.3262,278.4242 181.7662,278.544"/>
    <polyline points="181.7663,274.6614 181.0064,271.5015 181.0064,271.5015 181.0064,264.8215 181.0064,264.8215 181.4063,258.0215 181.4063,258.0215 181.7662,250.3255"/>
    <polyline points="181.5262,245.5421 180.6462,240.3821 180.6462,240.3821 179.2462,235.1021 179.2462,235.1021 177.8462,230.3021 177.8462,230.3021 176.2062,228.2621 176.2062,228.2621 174.9662,227.2621 174.9662,227.2621 173.8062,226.9019 173.8062,226.9019 172.0462,227.9019 172.0462,227.9019 170.2862,233.1819 170.2862,233.1819 168.5262,238.1019 168.5262,238.1019 166.5262,243.1419 166.5262,243.1419 165.0062,245.9019 165.0062,245.9019 163.6062,247.5418 163.6062,247.5418 162.2462,247.422 162.2462,247.422 159.7262,245.3021 159.7262,245.3021 157.1942,240.3821 157.1942,240.3821 155.3042,234.5821 155.3042,234.5821 155.0521,230.3021 155.0521,230.3021 155.4301,227.2621 155.4301,227.2621 156.3101,225.5021 156.3101,225.5021 157.5701,224.8621"/>
    <polyline points="155.3044,220.8627 158.7064,218.9427 158.7064,218.9427 164.2464,216.7027 164.2464,216.7027 170.5664,214.1827 170.5664,214.1827 177.7264,210.6627 177.7264,210.6627 181.6463,208.2627 181.6463,208.2627 181.7662,207.6227 181.7662,207.6227 175.9662,205.4627 175.9662,205.4627 167.6462,202.4627 167.6462,202.4627 155.0523,197.6627"/>
    <polyline points="164.6464,201.1827 165.6464,205.8627 165.6464,205.8627 167.2864,211.2627 167.2864,211.2627 168.1664,215.8227 168.1664,215.8227 169.1664,220.1026"/>
    <polyline points="156.0624,259.2615 161.7264,259.2615 161.7264,259.2615 168.4064,259.6615 168.4064,259.6615 181.0064,260.5415"/>
    <polyline points="164.6464,285.4624 165.6464,290.1424 165.6464,290.1424 167.2864,295.5424 167.2864,295.5424 168.1664,300.1024 168.1664,300.1024 169.1664,304.3824"/>
    <polyline points="221.4808,246.1817 224.8828,244.2617 224.8828,244.2617 230.4228,242.0217 230.4228,242.0217 236.7428,239.5017 236.7428,239.5017 243.9027,235.9818 243.9027,235.9818 247.8227,233.5818 247.8227,233.5818 247.9425,232.9417 247.9425,232.9417 242.1426,230.7818 242.1426,230.7818 233.8226,227.7818 233.8226,227.7818 221.2286,222.9818"/>
    <polyline points="181.1262,168.5427 169.6862,168.7026 169.6862,168.7026 162.6062,169.1826 162.6062,169.1826 155.1782,170.0626 155.1782,170.0626 155.6822,176.5026 155.6822,176.5026 157.1942,183.3025 157.1942,183.3025 159.3262,188.7025 159.3262,188.7025 161.7262,192.5025 161.7262,192.5025 164.1262,193.1425 164.1262,193.1425 166.6462,192.2625 166.6462,192.2625 168.6462,188.7025 168.6462,188.7025 169.1662,184.9426 169.1662,184.9426 169.6862,180.6626 169.6862,180.6626 169.2862,175.7426 169.2862,175.7426 168.7662,170.3426 168.7662,170.3426 170.8062,178.0226 170.8062,178.0226 172.9262,182.9425 172.9262,182.9425 174.9662,186.3425 174.9662,186.3425 176.9662,187.4626 176.9662,187.4626 179.1262,187.2226 179.1262,187.2226 180.1262,185.9425 180.1262,185.9425 181.5262,182.7825 181.5262,182.7825 182.2862,178.2626 182.2862,178.2626 182.406,173.7426 182.406,173.7426 182.006,166.9226"/>
    <polyline points="181.6462,159.8636 181.1262,143.4636 181.1262,143.4636 167.2862,143.3438 167.2862,143.3438 169.1662,160.2238 169.1662,160.2238 167.2862,143.4638 167.2862,143.4638 155.8102,143.9838 155.8102,143.9838 157.0702,163.3838"/>
    <polyline points="181.5262,136.5442 180.6462,131.3842 180.6462,131.3842 179.2462,126.1042 179.2462,126.1042 177.8462,121.3042 177.8462,121.3042 176.2062,119.2642 176.2062,119.2642 174.9662,118.2642 174.9662,118.2642 173.8062,117.9041 173.8062,117.9041 172.0462,118.904 172.0462,118.904 170.2862,124.184 170.2862,124.184 168.5262,129.104 168.5262,129.104 166.5262,134.144 166.5262,134.144 165.0062,136.904 165.0062,136.904 163.6062,138.544 163.6062,138.544 162.2462,138.4242 162.2462,138.4242 159.7262,136.3042 159.7262,136.3042 157.1942,131.3842 157.1942,131.3842 155.3042,125.5842 155.3042,125.5842 155.0521,121.3042 155.0521,121.3042 155.4301,118.2642 155.4301,118.2642 156.3101,116.5043 156.3101,116.5043 157.5701,115.8642"/>
    <polyline points="228.3072,479.5224 245.0962,508.532 245.137,508.532 261.926,479.5224"/>
    <polyline points="267.1073,488.424 255.4038,490.7921 255.4038,490.7921 251.6078,479.4968"/>
    <polyline points="238.6254,479.4969 234.8294,490.7921 234.8294,490.7921 223.1259,488.424"/>
    <polyline points="216.6347,499.6401 224.5423,508.5672 224.5423,508.5672 216.6347,517.4944"/>
    <polyline points="211.4978,508.5672 245.0758,508.5672 245.0962,508.6025 228.3072,537.612"/>
    <polyline points="223.1259,528.7104 234.8295,526.3423 234.8295,526.3423 238.6255,537.6376"/>
    <polyline points="251.6078,537.6376 255.4038,526.3423 255.4038,526.3423 267.1074,528.7104"/>
    <polyline points="261.926,537.612 245.1371,508.6025 245.1574,508.5672 278.7354,508.5672"/>
    <polyline points="273.5985,517.4944 265.6909,508.5672 265.6909,508.5672 273.5985,499.6401"/>
    <polyline points="188.4386,502.5272 188.1986,502.5272 188.1986,502.5272 177.2386,502.6474 177.2386,502.6474 170.6786,502.6474 170.6786,502.6474 165.0026,502.2872 165.0026,502.2872 162.7347,502.1674 162.7347,502.1674 162.7347,510.2074 162.7347,510.2074 162.4826,521.6873"/>
    <polyline points="163.7426,546.3673 162.4826,526.9673 162.4826,526.9673 173.9586,526.4474 173.9586,526.4474 175.8386,543.2073 175.8386,543.2073 173.9586,526.3274 173.9586,526.3274 187.7986,526.4472 187.7986,526.4472 188.3186,542.8471"/>
    <polyline points="169.6786,496.9671 167.6386,494.5671 167.6386,494.5671 165.0026,491.1671 165.0026,491.1671 162.9826,487.2471 162.9826,487.2471 162.2307,482.3672 162.2307,482.3672 162.7347,478.3272 162.7347,478.3272 164.1186,475.2872 164.1186,475.2872 166.7586,472.7672 166.7586,472.7672 170.2786,470.7672 170.2786,470.7672 174.0786,470.8874 174.0786,470.8874 177.7186,471.5274 177.7186,471.5274 180.9986,472.8874 180.9986,472.8874 184.7986,475.5274 184.7986,475.5274 187.7986,479.8473 187.7986,479.8473 189.3186,484.6073 189.3186,484.6073 188.7986,488.4073 188.7986,488.4073 187.4386,489.9273"/>
    <polyline points="175.3172,704.7092 174.7172,701.4292 174.7172,701.4292 172.4372,697.9092 172.4372,697.9092 169.0372,695.1492 169.0372,695.1492 164.6372,692.9892 164.6372,692.9892 159.4372,692.7492 159.4372,692.7492 154.0373,694.5092 154.0373,694.5092 151.3892,697.2692 151.3892,697.2692 149.7493,700.3092 149.7493,700.3092 149.3732,704.5892 149.3732,704.5892 149.8732,709.8692 149.8732,709.8692 152.7572,714.1491 152.7572,714.1491 157.4372,716.8291 157.4372,716.8291 162.2372,716.9493 162.2372,716.9493 166.8772,716.3093 166.8772,716.3093 170.7971,713.7893 170.7971,713.7893 172.9171,712.2693 172.9171,712.2693 174.3171,709.8694 174.3171,709.8694 175.3171,706.9894 175.3171,706.9894 175.3171,704.7094"/>
    <polyline points="162.2374,722.3521 162.4774,730.0321 162.4774,730.0321 163.1174,734.3121 163.1174,734.3121 164.4774,738.8721 164.4774,738.8721 166.7574,742.5121 166.7574,742.5121 169.2774,744.1521 169.2774,744.1521 172.3174,744.2719 172.3174,744.2719 173.7974,742.9119 173.7974,742.9119 175.5974,738.2319 175.5974,738.2319 175.7172,732.8319 175.7172,732.8319 174.8372,727.3919 174.8372,727.3919 173.0772,723.8719 173.0772,723.8719 170.2772,722.7519 170.2772,722.7519 166.2372,722.4719 166.2372,722.4719 156.4373,722.112 156.4373,722.112 149.3733,722.112"/>
    <polyline points="148.3633,747.6724 160.9572,752.4724 160.9572,752.4724 169.2772,755.4724 169.2772,755.4724 175.0772,757.6323 175.0772,757.6323 174.9574,758.2724 174.9574,758.2724 171.0374,760.6724 171.0374,760.6724 163.8774,764.1923 163.8774,764.1923 157.5574,766.7123 157.5574,766.7123 152.0174,768.9523 152.0174,768.9523 148.6155,770.8723"/>
    <polyline points="162.4774,770.1123 161.4774,765.8323 161.4774,765.8323 160.5974,761.2724 160.5974,761.2724 158.9574,755.8724 158.9574,755.8724 157.9574,751.1924"/>
    <polyline points="203.3293,731.8107 236.9073,731.8107 236.9277,731.846 220.1388,760.8555"/>
    <polyline points="214.9574,751.9539 226.661,749.5858 226.661,749.5858 230.457,760.8811"/>
    <polyline points="243.4394,760.8811 247.2353,749.5858 247.2353,749.5858 258.9389,751.9539"/>
    <polyline points="253.7576,760.8555 236.9686,731.846 236.989,731.8107 270.5669,731.8107"/>
    <polyline points="265.43,740.7379 257.5225,731.8107 257.5225,731.8107 265.43,722.8836"/>
    <polyline points="258.9388,711.6675 247.2353,714.0356 247.2353,714.0356 243.4393,702.7404"/>
    <polyline points="253.7575,702.766 236.9685,731.7755 236.9277,731.7755 220.1388,702.766"/>
    <polyline points="214.9574,711.6675 226.661,714.0356 226.661,714.0356 230.457,702.7404"/>
    <polyline points="208.4663,722.8836 216.3738,731.8107 216.3738,731.8107 208.4663,740.7379"/>
    <polyline points="298.1791,750.9511 310.7731,755.7511 310.7731,755.7511 319.0931,758.7511 319.0931,758.7511 324.893,760.911 324.893,760.911 324.7732,761.5511 324.7732,761.5511 320.8532,763.9511 320.8532,763.9511 313.6932,767.4711 313.6932,767.4711 307.3733,769.991 307.3733,769.991 301.8333,772.231 301.8333,772.231 298.4313,774.151"/>
    <polyline points="312.2932,773.391 311.2932,769.111 311.2932,769.111 310.4133,764.5511 310.4133,764.5511 308.7732,759.1511 308.7732,759.1511 307.7733,754.4711"/>
    <polyline points="298.5571,747.4294 307.8931,746.4294 307.8931,746.4294 314.453,745.4294 314.453,745.4294 320.613,744.5494 320.613,744.5494 324.253,743.6294 324.253,743.6294 324.893,742.7494 324.893,742.7494 316.8131,738.5894 316.8131,738.5894 308.1331,733.9495 308.1331,733.9495 305.6131,732.1894 305.6131,732.1894 311.2931,729.4294 311.2931,729.4294 317.333,726.2695 317.333,726.2695 323.493,723.2295 323.493,723.2295 324.773,721.4695 324.773,721.4695 324.533,720.7095 324.533,720.7095 320.973,719.8295 320.973,719.8295 311.8931,718.8295 311.8931,718.8295 299.1891,717.5495"/>
    <polyline points="325.133,701.4304 324.533,698.1504 324.533,698.1504 322.253,694.6304 322.253,694.6304 318.8531,691.8704 318.8531,691.8704 314.453,689.7104 314.453,689.7104 309.2531,689.4704 309.2531,689.4704 303.8531,691.2304 303.8531,691.2304 301.2051,693.9904 301.2051,693.9904 299.5651,697.0304 299.5651,697.0304 299.189,701.3104 299.189,701.3104 299.689,706.5904 299.689,706.5904 302.573,710.8704 302.573,710.8704 307.253,713.5504 307.253,713.5504 312.053,713.6702 312.053,713.6702 316.693,713.0302 316.693,713.0302 320.613,710.5102 320.613,710.5102 322.733,708.9902 322.733,708.9902 324.1329,706.5902 324.1329,706.5902 325.1329,703.7102 325.1329,703.7102 325.1329,701.4302"/>
    <polyline points="487.5107,742.7928 487.7628,731.3129 487.7628,731.3129 487.7628,723.2729 487.7628,723.2729 490.0308,723.3931 490.0308,723.3931 495.7067,723.7533 495.7067,723.7533 502.2667,723.7533 502.2667,723.7533 513.2267,723.6331 513.2267,723.6331 513.4667,723.6331"/>
    <polyline points="512.4667,711.0321 513.8267,709.5121 513.8267,709.5121 514.3467,705.7121 514.3467,705.7121 512.8267,700.9521 512.8267,700.9521 509.8267,696.6321 509.8267,696.6321 506.0267,693.9921 506.0267,693.9921 502.7467,692.6321 502.7467,692.6321 499.1067,691.9921 499.1067,691.9921 495.3067,691.8723 495.3067,691.8723 491.7868,693.8723 491.7868,693.8723 489.1468,696.3923 489.1468,696.3923 487.7628,699.4323 487.7628,699.4323 487.2588,703.4723 487.2588,703.4723 488.0107,708.3523 488.0107,708.3523 490.0308,712.2723 490.0308,712.2723 492.6667,715.6723 492.6667,715.6723 494.7067,718.0722"/>
    <polyline points="486.7528,746.6734 499.3467,751.4734 499.3467,751.4734 507.6667,754.4734 507.6667,754.4734 513.4667,756.6334 513.4667,756.6334 513.3469,757.2734 513.3469,757.2734 509.4269,759.6734 509.4269,759.6734 502.2669,763.1934 502.2669,763.1934 495.9469,765.7133 495.9469,765.7133 490.4069,767.9534 490.4069,767.9534 487.0049,769.8734"/>
    <polyline points="500.8669,769.1133 499.8669,764.8334 499.8669,764.8334 498.9869,760.2734 498.9869,760.2734 497.3469,754.8734 497.3469,754.8734 496.3469,750.1934"/>
    <polyline points="540.9541,730.8729 574.5321,730.8729 574.5525,730.9081 557.7635,759.9176"/>
    <polyline points="552.5822,751.016 564.2857,748.6479 564.2857,748.6479 568.0817,759.9432"/>
    <polyline points="581.0641,759.9432 584.8601,748.6479 584.8601,748.6479 596.5636,751.016"/>
    <polyline points="591.3823,759.9176 574.5933,730.9081 574.6137,730.8728 608.1917,730.8728"/>
    <polyline points="603.0548,721.9456 595.1472,730.8728 595.1472,730.8728 603.0548,739.8"/>
    <polyline points="596.5636,710.7296 584.8601,713.0977 584.8601,713.0977 581.064,701.8024"/>
    <polyline points="591.3823,701.828 574.5933,730.8375 574.5525,730.8375 557.7635,701.828"/>
    <polyline points="552.5822,710.7296 564.2857,713.0977 564.2857,713.0977 568.0817,701.8024"/>
    <polyline points="546.091,721.9457 553.9986,730.8729 553.9986,730.8729 546.091,739.8001"/>
    <polyline points="553.3776,578.7913 570.1666,549.7818 570.1463,549.7465 536.5683,549.7465"/>
    <polyline points="541.7052,540.8193 549.6127,549.7465 549.6127,549.7465 541.7052,558.6737"/>
    <polyline points="548.1964,569.8898 559.8999,567.5217 559.8999,567.5217 563.6959,578.8169"/>
    <polyline points="576.6782,578.8169 580.4742,567.5217 580.4742,567.5217 592.1778,569.8898"/>
    <polyline points="586.9964,578.7913 570.2074,549.7818 570.2278,549.7466 603.8058,549.7466"/>
    <polyline points="598.6689,558.6737 590.7614,549.7466 590.7614,549.7466 598.6689,540.8194"/>
    <polyline points="592.1777,529.6034 580.4742,531.9715 580.4742,531.9715 576.6782,520.6762"/>
    <polyline points="586.9964,520.7018 570.2074,549.7113 570.1666,549.7113 553.3777,520.7017"/>
    <polyline points="548.1964,529.6033 559.8999,531.9714 559.8999,531.9714 563.6959,520.6762"/>
    <polyline points="510.631,529.5266 511.991,528.0066 511.991,528.0066 512.511,524.2067 512.511,524.2067 510.991,519.4466 510.991,519.4466 507.991,515.1267 507.991,515.1267 504.191,512.4867 504.191,512.4867 500.911,511.1267 500.911,511.1267 497.271,510.4867 497.271,510.4867 493.4711,510.3669 493.4711,510.3669 489.9511,512.3669 489.9511,512.3669 487.3111,514.8869 487.3111,514.8869 485.9271,517.9269 485.9271,517.9269 485.4231,521.9668 485.4231,521.9668 486.1751,526.8468 486.1751,526.8468 488.1951,530.7668 488.1951,530.7668 490.8311,534.1668 490.8311,534.1668 492.8711,536.5668"/>
    <polyline points="511.871,542.3666 498.511,541.8866 498.511,541.8866 492.351,541.8866 492.351,541.8866 484.7911,542.7666 484.7911,542.7666 497.911,542.0066 497.911,542.0066 497.151,539.8626 497.151,539.8626 498.151,545.0066 498.151,545.0066 498.7911,550.8066 498.7911,550.8066 499.1509,558.1266 499.1509,558.1266 511.7508,558.1266 511.7508,558.1266 495.9909,558.0068 495.9909,558.0068 489.9509,558.5268 489.9509,558.5268 486.8069,559.1268 486.8069,559.1268 485.2949,559.8867"/>
    <polyline points="511.391,565.2067 498.911,565.5665 498.911,565.5665 485.6751,565.8465 485.6751,565.8465 501.671,566.2063 501.671,566.2063 508.991,565.4463 508.991,565.4463 511.391,569.4863 511.391,569.4863 512.151,574.2863 512.151,574.2863 511.631,578.1663 511.631,578.1663 511.5112,581.2063 511.5112,581.2063 510.9912,583.4863 510.9912,583.4863 509.6312,584.8463 509.6312,584.8463 507.9912,585.2463 507.9912,585.2463 506.3512,583.2063 506.3512,583.2063 504.9512,579.5663 504.9512,579.5663 503.4312,576.1663 503.4312,576.1663 502.1912,572.3663 502.1912,572.3663 500.2712,566.0863 500.2712,566.0863 499.2712,565.8463 499.2712,565.8463 496.7512,570.4863 496.7512,570.4863 494.2312,574.1263 494.2312,574.1263 490.9513,579.6863 490.9513,579.6863 485.2953,588.2463 485.2953,588.2463 485.1694,589.1263"/>
  </g>
</svg>
