<?xml version="1.0" encoding="utf-8" ?>
<svg xmlns="http://www.w3.org/2000/svg" xmlns:cc="http://creativecommons.org/ns#" xmlns:dc="http://purl.org/dc/elements/1.1/" xmlns:ev="http://www.w3.org/2001/xml-events" xmlns:inkscape="http://www.inkscape.org/namespaces/inkscape" xmlns:rdf="http://www.w3.org/1999/02/22-rdf-syntax-ns#" xmlns:sodipodi="http://sodipodi.sourceforge.net/DTD/sodipodi-0.dtd" xmlns:xlink="http://www.w3.org/1999/xlink" baseProfile="tiny" height="21.00001134cm" version="1.2" viewBox="0 0 1122.5202912 793.7012159999999" width="29.70001604cm">
  <metadata>
    <rdf:RDF>
      <cc:Work>
        <dc:format>image/svg+xml</dc:format>
        <dc:source>vpype read hannes-3.svg deduplicate linesimplify linemerge linesort write hannes-3-optim.svg
</dc:source>
        <dc:date>2021-12-25T10:37:22.028430</dc:date>
      </cc:Work>
    </rdf:RDF>
  </metadata>
  <defs/>
  <g fill="none" id="layer1" inkscape:groupmode="layer" inkscape:label="1" stroke="#00f" style="display:inline">
    <polyline points="163.8254,78.4344 170.6872,71.7086 170.6872,71.7086 172.5539,72.3058 172.5539,72.3058 184.5363,80.582 184.5363,80.582 178.8341,76.6568 178.8341,76.6568 172.6224,72.3742 172.6224,72.3742 168.6914,70.8299 168.6914,70.8299 170.865,71.5308 170.865,71.5308 173.0994,69.2961 173.0994,69.2961 176.4471,64.6704 176.4471,64.6704 179.5511,60.1058 179.5511,60.1058 177.674,62.8502 177.674,62.8502 180.6051,64.6643 180.6051,64.6643 184.0377,67.4371 184.0377,67.4371 188.0487,70.1789 188.0487,70.1789 193.3292,74.7997"/>
    <polyline points="205.2072,86.3745 195.524,77.3503 195.524,77.3503 186.6702,86.0683 186.6702,86.0683 197.4905,94.5029 197.4905,94.5029 186.7386,86.1367 186.7386,86.1367 179.7504,93.719 179.7504,93.719 191.6144,103.9845"/>
    <polyline points="204.9813,118.9529 198.5941,112.2448 198.5941,112.2448 194.0087,107.6589 194.0087,107.6589 195.5168,106.2875 195.5168,106.2875 199.3252,102.8894 199.3252,102.8894 203.4893,98.7247 203.4893,98.7247 210.3781,91.6982 210.3781,91.6982 210.5304,91.5459"/>
    <polyline points="224.1724,105.1896 217.4768,111.749 217.4768,111.749 214.0313,115.058 214.0313,115.058 211.2306,117.996 211.2306,117.996 207.6276,121.5995"/>
    <polyline points="210.2391,123.7336 210.5229,123.8602 210.5229,123.8602 217.7162,122.5523 217.7162,122.5523 226.1196,121.3576 226.1196,121.3576 238.8061,119.1647"/>
    <polyline points="225.9668,107.1366 223.8268,117.4903 223.8268,117.4903 222.9902,128.6397 222.9902,128.6397 222.9233,135.7795"/>
    <polyline points="222.7268,158.9502 237.1532,173.3783 237.1532,173.3783 231.9292,168.4525 231.9292,168.4525 229.5612,164.8393 229.5612,164.8393 227.4621,160.0509 227.4621,160.0509 227.8041,156.0111 227.8041,156.0111 229.403,152.1327 229.403,152.1327 232.454,149.5074 232.454,149.5074 234.8383,149.5516 234.8383,149.5516 237.7657,150.607 237.7657,150.607 240.1217,152.9633 240.1217,152.9633 243.374,157.1422 243.374,157.1422 247.276,162.937"/>
    <polyline points="252.282,158.3835 254.9951,154.6733 254.9951,154.6733 257.4882,150.5938 257.4882,150.5938 259.6827,146.8131 259.6827,146.8131 260.0236,144.6143 260.0236,144.6143 259.9435,143.2895 259.9435,143.2895 259.5107,142.4082 259.5107,142.4082 257.8915,142.0337 257.8915,142.0337 253.6087,144.3233 253.6087,144.3233 249.5498,146.3887 249.5498,146.3887 245.2803,148.393 245.2803,148.393 242.7018,149.25 242.7018,149.25 240.8882,149.4779 240.8882,149.4779 240.1925,148.633 240.1925,148.633 240.0848,145.886 240.0848,145.886 241.7128,141.3894 241.7128,141.3894 244.2521,136.7087 244.2521,136.7087 246.773,133.9019 246.773,133.9019 248.8791,132.2237 248.8791,132.2237 250.4729,131.6267 250.4729,131.6267 251.5848,131.9419"/>
    <line x1="261.4961" x2="141.4316" y1="133.7584" y2="253.8229"/>
    <polyline points="141.1178,241.8561 152.478,229.0671 152.478,229.0671 159.3012,235.2437 159.3012,235.2437 149.9351,246.7408 149.9351,246.7408 159.3759,235.1691 159.3759,235.1691 167.1396,243.0833 167.1396,243.0833 157.2272,253.5858"/>
    <polyline points="171.3968,239.8205 164.8428,233.4154 164.8428,233.4154 159.7003,228.2722 159.7003,228.2722 157.129,225.551 157.129,225.551 162.0337,226.0743 162.0337,226.0743 170.8966,226.7718 170.8966,226.7718 177.7486,227.3505 177.7486,227.3505 183.0403,227.3164 183.0403,227.3164 182.7364,226.2158 182.7364,226.2158 178.2281,221.707 178.2281,221.707 174.1119,217.4405 174.1119,217.4405 169.4742,212.3543"/>
    <polyline points="187.7052,223.5101 181.1513,217.1049 181.1513,217.1049 176.0087,211.9617 176.0087,211.9617 173.4375,209.2405 173.4375,209.2405 178.3422,209.7639 178.3422,209.7639 187.205,210.4614 187.205,210.4614 194.0571,211.04 194.0571,211.04 199.3487,211.006 199.3487,211.006 199.0448,209.9053 199.0448,209.9053 194.5366,205.3965 194.5366,205.3965 190.4201,201.1303 190.4201,201.1303 185.7824,196.0442"/>
    <polyline points="188.0166,192.951 191.1383,193.6829 191.1383,193.6829 195.67,195.4267 195.67,195.4267 200.8178,197.438 200.8178,197.438 207.0636,199.3026 207.0636,199.3026 210.7775,200.0291 210.7775,200.0291 211.2436,199.6988 211.2436,199.6988 209.3031,195.0691 209.3031,195.0691 206.458,188.4891 206.458,188.4891 202.3126,178.3677"/>
    <polyline points="205.5557,185.993 203.2094,189.4724 203.2094,189.4724 200.7774,193.7626 200.7774,193.7626 198.4378,197.0994 198.4378,197.0994 196.3405,200.3298"/>
    <polyline points="221.0652,189.6041 223.7783,185.8939 223.7783,185.8939 226.2714,181.8144 226.2714,181.8144 228.4659,178.0336 228.4659,178.0336 228.8068,175.8349 228.8068,175.8349 228.7267,174.5101 228.7267,174.5101 228.2936,173.6291 228.2936,173.6291 226.6745,173.2546 226.6745,173.2546 222.3916,175.5442 222.3916,175.5442 218.3327,177.6097 218.3327,177.6097 214.0633,179.6139 214.0633,179.6139 211.4847,180.4709 211.4847,180.4709 209.6711,180.6988 209.6711,180.6988 208.9757,179.8536 208.9757,179.8536 208.8679,177.1066 208.8679,177.1066 210.496,172.61 210.496,172.61 213.0352,167.9293 213.0352,167.9293 215.5562,165.1225 215.5562,165.1225 217.6623,163.4444 217.6623,163.4444 219.256,162.8473 219.256,162.8473 220.368,163.1626"/>
    <polygon points="180.9407,172.4 180.9408,172.4002 180.9408,172.4002 180.7139,172.663 180.7139,172.663 180.4757,172.928 180.4757,172.928 180.227,173.1947 180.227,173.1947 179.9684,173.4625 179.9684,173.4625 179.7006,173.7308 179.7006,173.7308 179.4241,173.9991 179.4241,173.9991 179.1398,174.2668 179.1398,174.2668 178.8483,174.5334 178.8483,174.5334 178.5502,174.7983 178.5502,174.7983 178.2463,175.061 178.2463,175.061 177.9371,175.3209 177.9371,175.3209 177.6234,175.5774 177.6234,175.5774 177.3058,175.8301 177.3058,175.8301 176.985,176.0782 176.985,176.0782 176.6617,176.3214 176.6617,176.3214 176.3365,176.559 176.3365,176.559 176.0102,176.7904 176.0102,176.7904 175.6833,177.0152 175.6833,177.0152 175.3566,177.2327 175.3566,177.2327 175.0307,177.4424 175.0307,177.4424 174.7063,177.6438 174.7063,177.6438 174.4144,177.8183 174.4144,177.8183 174.1192,177.9897 174.1192,177.9897 173.8205,178.158 173.8205,178.158 173.5184,178.3233 173.5184,178.3233 173.2131,178.4855 173.2131,178.4855 172.9045,178.6446 172.9045,178.6446 172.5926,178.8006 172.5926,178.8006 172.2777,178.9535 172.2777,178.9535 171.9596,179.1033 171.9596,179.1033 171.6384,179.2499 171.6384,179.2499 171.3142,179.3934 171.3142,179.3934 170.9871,179.5337 170.9871,179.5337 170.657,179.6709 170.657,179.6709 170.3241,179.8049 170.3241,179.8049 169.9883,179.9357 169.9883,179.9357 169.6498,180.0633 169.6498,180.0633 169.3086,180.1876 169.3086,180.1876 168.9647,180.3088 168.9647,180.3088 168.6182,180.4267 168.6182,180.4267 168.2691,180.5414 168.2691,180.5414 167.9175,180.6528 167.9175,180.6528 167.5635,180.7609 167.5635,180.7609 167.207,180.8658 167.207,180.8658 166.8481,180.9674 166.8481,180.9674 166.4869,181.0656 166.4869,181.0656 166.1234,181.1606 166.1234,181.1606 165.7578,181.2522 165.7578,181.2522 165.3899,181.3405 165.3899,181.3405 165.0199,181.4255 165.0199,181.4255 164.6478,181.5071 164.6478,181.5071 164.2738,181.5853 164.2738,181.5853 163.8977,181.6602 163.8977,181.6602 163.5197,181.7317 163.5197,181.7317 163.1398,181.7997 163.1398,181.7997 162.7581,181.8644 162.7581,181.8644 162.3747,181.9256 162.3747,181.9256 161.9895,181.9834 161.9895,181.9834 161.6026,182.0377 161.6026,182.0377 161.214,182.0886 161.214,182.0886 160.8239,182.1361 160.8239,182.1361 160.4323,182.18 160.4323,182.18 160.0392,182.2205 160.0392,182.2205 159.6446,182.2574 159.6446,182.2574 159.2487,182.2909 159.2487,182.2909 158.8514,182.3208 158.8514,182.3208 158.4529,182.3472 158.4529,182.3472 158.0531,182.37 158.0531,182.37 157.6521,182.3893 157.6521,182.3893 157.25,182.405 157.25,182.405 156.8468,182.4172 156.8468,182.4172 156.4426,182.4257 156.4426,182.4257 156.0373,182.4307 156.0373,182.4307 155.6312,182.432 155.6312,182.432 155.2241,182.4298 155.2241,182.4298 154.8162,182.4239 154.8162,182.4239 154.4075,182.4143 154.4075,182.4143 153.9981,182.4011 153.9981,182.4011 153.588,182.3842 153.588,182.3842 153.1772,182.3637 153.1772,182.3637 152.7658,182.3394 152.7658,182.3394 152.3453,182.3112 152.3453,182.3112 151.9276,182.2794 151.9276,182.2794 151.5126,182.2442 151.5126,182.2442 151.1004,182.2055 151.1004,182.2055 150.6908,182.1634 150.6908,182.1634 150.284,182.1177 150.284,182.1177 149.8799,182.0686 149.8799,182.0686 149.4785,182.0159 149.4785,182.0159 149.0798,181.9598 149.0798,181.9598 148.6837,181.9002 148.6837,181.9002 148.2902,181.837 148.2902,181.837 147.8995,181.7704 147.8995,181.7704 147.5113,181.7002 147.5113,181.7002 147.1257,181.6266 147.1257,181.6266 146.7428,181.5494 146.7428,181.5494 146.3624,181.4687 146.3624,181.4687 145.9846,181.3844 145.9846,181.3844 145.6094,181.2967 145.6094,181.2967 145.2368,181.2054 145.2368,181.2054 144.8666,181.1105 144.8666,181.1105 144.499,181.0122 144.499,181.0122 144.1339,180.9102 144.1339,180.9102 143.7714,180.8048 143.7714,180.8048 143.4113,180.6958 143.4113,180.6958 143.0536,180.5832 143.0536,180.5832 142.6985,180.4671 142.6985,180.4671 142.3458,180.3474 142.3458,180.3474 141.9955,180.2241 141.9955,180.2241 141.6477,180.0973 141.6477,180.0973 141.3022,179.9669 141.3022,179.9669 140.9592,179.8329 140.9592,179.8329 140.6186,179.6954 140.6186,179.6954 140.2803,179.5542 140.2803,179.5542 139.9444,179.4095 139.9444,179.4095 139.6109,179.2612 139.6109,179.2612 139.2797,179.1093 139.2797,179.1093 138.9508,178.9538 138.9508,178.9538 138.6243,178.7947 138.6243,178.7947 138.3,178.6319 138.3,178.6319 137.978,178.4656 137.978,178.4656 137.6583,178.2957 137.6583,178.2957 137.3409,178.1221 137.3409,178.1221 137.0257,177.945 137.0257,177.945 136.7128,177.7642 136.7128,177.7642 136.4021,177.5798 136.4021,177.5798 136.0936,177.3917 136.0936,177.3917 135.7873,177.2 135.7873,177.2 135.4832,177.0047 135.4832,177.0047 135.1813,176.8058 135.1813,176.8058 134.8815,176.6032 134.8815,176.6032 134.5839,176.3969 134.5839,176.3969 134.3624,176.2332 134.3624,176.2332 134.1191,176.0419 134.1191,176.0419 133.8567,175.8257 133.8567,175.8257 133.5779,175.5873 133.5779,175.5873 133.2851,175.3292 133.2851,175.3292 132.9812,175.0542 132.9812,175.0542 132.6688,174.7649 132.6688,174.7649 132.3504,174.4639 132.3504,174.4639 132.0289,174.1539 132.0289,174.1539 131.7067,173.8374 131.7067,173.8374 131.3865,173.5173 131.3865,173.5173 131.0711,173.1961 131.0711,173.1961 130.763,172.8764 130.763,172.8764 130.4649,172.561 130.4649,172.561 130.1794,172.2524 130.1794,172.2524 129.9092,171.9533 129.9092,171.9533 129.6569,171.6664 129.6569,171.6664 129.4252,171.3942 129.4252,171.3942 129.2167,171.1395 129.2167,171.1395 129.0341,170.9049 129.0341,170.9049 128.88,170.693 128.88,170.693 128.6556,170.3598 128.6556,170.3598 128.4357,170.0251 128.4357,170.0251 128.2203,169.689 128.2203,169.689 128.0094,169.3513 128.0094,169.3513 127.8031,169.0121 127.8031,169.0121 127.6015,168.671 127.6015,168.671 127.4046,168.3282 127.4046,168.3282 127.2124,167.9834 127.2124,167.9834 127.025,167.6365 127.025,167.6365 126.8424,167.2876 126.8424,167.2876 126.6646,166.9365 126.6646,166.9365 126.4918,166.583 126.4918,166.583 126.3239,166.2271 126.3239,166.2271 125.6962,164.8738 125.6962,164.8738 127.3148,164.4937 127.3148,164.4937 127.9506,164.3321 127.9506,164.3321 128.4819,164.1889 128.4819,164.1889 128.8542,164.0787 128.8542,164.0787 129.0127,164.0164 129.0127,164.0164 128.9919,163.763 128.9919,163.763 128.8449,163.2646 128.8449,163.2646 128.7588,163.0163 128.7588,163.0163 128.6737,162.7441 128.6737,162.7441 128.5899,162.4497 128.5899,162.4497 128.5076,162.1348 128.5076,162.1348 128.4269,161.801 128.4269,161.801 128.3482,161.45 128.3482,161.45 128.2715,161.0834 128.2715,161.0834 128.1972,160.703 128.1972,160.703 128.1254,160.3104 128.1254,160.3104 128.0564,159.9072 128.0564,159.9072 127.9904,159.4952 127.9904,159.4952 127.9276,159.076 127.9276,159.076 127.8682,158.6513 127.8682,158.6513 127.8124,158.2227 127.8124,158.2227 127.7605,157.7919 127.7605,157.7919 127.7127,157.3606 127.7127,157.3606 127.6692,156.9305 127.6692,156.9305 127.6302,156.5031 127.6302,156.5031 127.5959,156.0803 127.5959,156.0803 127.5666,155.6636 127.5666,155.6636 127.5425,155.2548 127.5425,155.2548 127.5237,154.8554 127.5237,154.8554 127.5105,154.4673 127.5105,154.4673 127.5032,154.0919 127.5032,154.0919 127.5019,153.7311 127.5019,153.7311 127.5068,153.3864 127.5068,153.3864 127.5182,153.0596 127.5182,153.0596 127.5377,152.703 127.5377,152.703 127.5616,152.3449 127.5616,152.3449 127.5901,151.9854 127.5901,151.9854 127.6229,151.6245 127.6229,151.6245 127.6603,151.2622 127.6603,151.2622 127.7021,150.8986 127.7021,150.8986 127.7483,150.5338 127.7483,150.5338 127.799,150.1677 127.799,150.1677 127.854,149.8006 127.854,149.8006 127.9135,149.4323 127.9135,149.4323 127.9774,149.063 127.9774,149.063 128.0457,148.6928 128.0457,148.6928 128.1184,148.3216 128.1184,148.3216 128.1954,147.9495 128.1954,147.9495 128.2768,147.5766 128.2768,147.5766 128.3626,147.2029 128.3626,147.2029 128.4527,146.8285 128.4527,146.8285 128.5472,146.4535 128.5472,146.4535 128.6459,146.0778 128.6459,146.0778 128.749,145.7016 128.749,145.7016 128.8564,145.3248 128.8564,145.3248 128.9681,144.9476 128.9681,144.9476 129.0841,144.57 129.0841,144.57 129.2043,144.1921 129.2043,144.1921 129.3289,143.8138 129.3289,143.8138 129.4577,143.4353 129.4577,143.4353 129.5907,143.0567 129.5907,143.0567 129.728,142.6778 129.728,142.6778 129.8695,142.2989 129.8695,142.2989 130.0152,141.92 130.0152,141.92 130.1652,141.541 130.1652,141.541 130.3193,141.1622 130.3193,141.1622 130.4777,140.7834 130.4777,140.7834 130.6402,140.4049 130.6402,140.4049 130.8148,140.0078 130.8148,140.0078 130.9933,139.6115 130.9933,139.6115 131.1757,139.2161 131.1757,139.2161 131.3619,138.8215 131.3619,138.8215 131.5519,138.4278 131.5519,138.4278 131.7455,138.0352 131.7455,138.0352 131.9427,137.6437 131.9427,137.6437 132.1435,137.2533 132.1435,137.2533 132.3477,136.8642 132.3477,136.8642 132.5553,136.4764 132.5553,136.4764 132.7662,136.09 132.7662,136.09 132.9803,135.705 132.9803,135.705 133.1977,135.3215 133.1977,135.3215 133.4181,134.9397 133.4181,134.9397 133.6416,134.5595 133.6416,134.5595 133.8681,134.181 133.8681,134.181 134.0974,133.8044 134.0974,133.8044 134.3296,133.4296 134.3296,133.4296 134.5646,133.0568 134.5646,133.0568 134.8022,132.686 134.8022,132.686 135.0425,132.3173 135.0425,132.3173 135.2853,131.9507 135.2853,131.9507 135.5305,131.5864 135.5305,131.5864 135.7782,131.2244 135.7782,131.2244 136.0282,130.8648 136.0282,130.8648 136.2805,130.5076 136.2805,130.5076 136.535,130.1529 136.535,130.1529 136.7917,129.8008 136.7917,129.8008 137.0503,129.4514 137.0503,129.4514 137.311,129.1048 137.311,129.1048 137.5736,128.7609 137.5736,128.7609 137.838,128.4199 137.838,128.4199 138.1043,128.0818 138.1043,128.0818 138.3722,127.7468 138.3722,127.7468 138.6418,127.4148 138.6418,127.4148 138.9129,127.0861 138.9129,127.0861 139.1855,126.7605 139.1855,126.7605 139.4596,126.4383 139.4596,126.4383 139.735,126.1194 139.735,126.1194 140.0117,125.8039 140.0117,125.8039 140.2896,125.492 140.2896,125.492 140.5687,125.1837 140.5687,125.1837 140.8489,124.879 140.8489,124.879 141.13,124.5781 141.13,124.5781 141.4121,124.2809 141.4121,124.2809 141.6951,123.9877 141.6951,123.9877 141.9789,123.6983 141.9789,123.6983 142.2634,123.413 142.2634,123.413 142.5485,123.1318 142.5485,123.1318 142.8343,122.8547 142.8343,122.8547 143.1206,122.5819 143.1206,122.5819 143.4073,122.3133 143.4073,122.3133 143.6944,122.0491 143.6944,122.0491 143.9818,121.7894 143.9818,121.7894 144.2694,121.5342 144.2694,121.5342 144.5572,121.2835 144.5572,121.2835 144.8451,121.0375 144.8451,121.0375 145.1331,120.7963 145.1331,120.7963 145.421,120.5598 145.421,120.5598 145.7088,120.3282 145.7088,120.3282 145.9964,120.1016 145.9964,120.1016 146.2837,119.8799 146.2837,119.8799 146.5708,119.6634 146.5708,119.6634 146.8574,119.4519 146.8574,119.4519 147.1436,119.2458 147.1436,119.2458 147.4292,119.0449 147.4292,119.0449 147.7143,118.8493 147.7143,118.8493 147.9987,118.6592 147.9987,118.6592 148.2823,118.4747 148.2823,118.4747 148.5651,118.2957 148.5651,118.2957 148.8471,118.1223 148.8471,118.1223 149.1281,117.9547 149.1281,117.9547 149.4081,117.7929 149.4081,117.7929 149.6869,117.6369 149.6869,117.6369 149.9647,117.4869 149.9647,117.4869 150.2412,117.3428 150.2412,117.3428 150.5163,117.2049 150.5163,117.2049 150.7902,117.0731 150.7902,117.0731 151.0625,116.9475 151.0625,116.9475 151.3334,116.8282 151.3334,116.8282 151.6027,116.7153 151.6027,116.7153 151.8703,116.6088 151.8703,116.6088 152.1362,116.5088 152.1362,116.5088 152.4004,116.4154 152.4004,116.4154 152.6626,116.3286 152.6626,116.3286 152.923,116.2486 152.923,116.2486 153.1813,116.1754 153.1813,116.1754 153.4375,116.109 153.4375,116.109 153.6917,116.0495 153.6917,116.0495 153.9436,115.997 153.9436,115.997 154.1932,115.9517 154.1932,115.9517 154.4405,115.9134 154.4405,115.9134 154.6853,115.8824 154.6853,115.8824 155.114,115.8425 155.114,115.8425 155.5518,115.8218 155.5518,115.8218 155.9896,115.8198 155.9896,115.8198 156.4183,115.8357 156.4183,115.8357 156.8288,115.8692 156.8288,115.8692 157.212,115.9194 157.212,115.9194 157.5587,115.9859 157.5587,115.9859 157.8598,116.068 157.8598,116.068 158.0724,116.1453 158.0724,116.1453 158.346,116.2578 158.346,116.2578 158.6689,116.3997 158.6689,116.3997 159.0298,116.5654 159.0298,116.5654 159.4171,116.7493 159.4171,116.7493 159.8194,116.9456 159.8194,116.9456 160.2252,117.1487 160.2252,117.1487 160.623,117.353 160.623,117.353 161.0013,117.5528 161.0013,117.5528 161.3486,117.7425 161.3486,117.7425 161.6535,117.9163 161.6535,117.9163 161.9198,118.0782 161.9198,118.0782 162.1917,118.249 162.1917,118.249 162.4687,118.4286 162.4687,118.4286 162.7504,118.6165 162.7504,118.6165 163.0364,118.8124 163.0364,118.8124 163.3263,119.016 163.3263,119.016 163.6197,119.2269 163.6197,119.2269 163.9161,119.4449 163.9161,119.4449 164.2152,119.6696 164.2152,119.6696 164.5165,119.9006 164.5165,119.9006 164.8196,120.1377 164.8196,120.1377 165.1242,120.3804 165.1242,120.3804 165.4297,120.6285 165.4297,120.6285 165.7358,120.8817 165.7358,120.8817 166.0421,121.1396 166.0421,121.1396 166.3482,121.4018 166.3482,121.4018 166.6535,121.6681 166.6535,121.6681 166.9579,121.9381 166.9579,121.9381 167.2607,122.2115 167.2607,122.2115 167.5616,122.4879 167.5616,122.4879 167.8602,122.7671 167.8602,122.7671 168.1561,123.0486 168.1561,123.0486 168.4489,123.3322 168.4489,123.3322 168.7381,123.6176 168.7381,123.6176 169.0234,123.9043 169.0234,123.9043 169.3042,124.1921 169.3042,124.1921 169.5803,124.4807 169.5803,124.4807 169.8512,124.7696 169.8512,124.7696 170.1367,125.0781 170.1367,125.0781 170.4198,125.3879 170.4198,125.3879 170.7003,125.6991 170.7003,125.6991 170.9784,126.0116 170.9784,126.0116 171.254,126.3253 171.254,126.3253 171.527,126.6402 171.527,126.6402 171.7975,126.9563 171.7975,126.9563 172.0654,127.2736 172.0654,127.2736 172.3308,127.592 172.3308,127.592 172.5936,127.9115 172.5936,127.9115 172.8537,128.232 172.8537,128.232 173.1113,128.5536 173.1113,128.5536 173.3662,128.8762 173.3662,128.8762 173.6184,129.1998 173.6184,129.1998 173.868,129.5243 173.868,129.5243 174.1149,129.8498 174.1149,129.8498 174.359,130.1761 174.359,130.1761 174.6005,130.5032 174.6005,130.5032 174.8392,130.8312 174.8392,130.8312 175.0751,131.1599 175.0751,131.1599 175.3083,131.4895 175.3083,131.4895 175.5387,131.8197 175.5387,131.8197 175.7662,132.1506 175.7662,132.1506 175.991,132.4822 175.991,132.4822 176.2129,132.8144 176.2129,132.8144 176.4319,133.1472 176.4319,133.1472 176.6481,133.4806 176.6481,133.4806 176.8613,133.8145 176.8613,133.8145 177.0717,134.149 177.0717,134.149 177.2792,134.4838 177.2792,134.4838 177.4837,134.8192 177.4837,134.8192 177.6852,135.1549 177.6852,135.1549 177.8838,135.4911 177.8838,135.4911 178.0793,135.8275 178.0793,135.8275 178.2719,136.1643 178.2719,136.1643 178.4614,136.5014 178.4614,136.5014 178.6479,136.8387 178.6479,136.8387 178.8314,137.1763 178.8314,137.1763 179.0117,137.5141 179.0117,137.5141 179.189,137.852 179.189,137.852 179.3632,138.19 179.3632,138.19 179.5342,138.5282 179.5342,138.5282 179.7021,138.8664 179.7021,138.8664 179.8668,139.2046 179.8668,139.2046 180.0284,139.5429 180.0284,139.5429 180.1868,139.8811 180.1868,139.8811 180.3419,140.2193 180.3419,140.2193 180.4939,140.5573 180.4939,140.5573 180.6425,140.8953 180.6425,140.8953 180.788,141.2331 180.788,141.2331 180.9301,141.5708 180.9301,141.5708 181.069,141.9082 181.069,141.9082 181.2046,142.2454 181.2046,142.2454 181.3368,142.5823 181.3368,142.5823 181.4657,142.9188 181.4657,142.9188 181.5912,143.2551 181.5912,143.2551 181.7134,143.591 181.7134,143.591 181.8321,143.9265 181.8321,143.9265 181.9475,144.2615 181.9475,144.2615 182.0594,144.5961 182.0594,144.5961 182.1679,144.9302 182.1679,144.9302 182.2729,145.2638 182.2729,145.2638 182.3745,145.5968 182.3745,145.5968 182.4725,145.9293 182.4725,145.9293 182.5671,146.2611 182.5671,146.2611 182.6581,146.5922 182.6581,146.5922 182.7456,146.9227 182.7456,146.9227 182.8295,147.2525 182.8295,147.2525 182.9098,147.5815 182.9098,147.5815 182.9866,147.9098 182.9866,147.9098 183.0597,148.2372 183.0597,148.2372 183.1292,148.5638 183.1292,148.5638 183.1951,148.8896 183.1951,148.8896 183.2573,149.2144 183.2573,149.2144 183.3159,149.5383 183.3159,149.5383 183.3707,149.8613 183.3707,149.8613 183.4219,150.1833 183.4219,150.1833 183.4693,150.5042 183.4693,150.5042 183.5132,150.8376 183.5132,150.8376 183.5523,151.1776 183.5523,151.1776 183.5865,151.5238 183.5865,151.5238 183.6158,151.8759 183.6158,151.8759 183.6404,152.2335 183.6404,152.2335 183.6601,152.5962 183.6601,152.5962 183.6751,152.9636 183.6751,152.9636 183.6853,153.3353 183.6853,153.3353 183.6909,153.7111 183.6909,153.7111 183.6917,154.0904 183.6917,154.0904 183.6879,154.4729 183.6879,154.4729 183.6794,154.8582 183.6794,154.8582 183.6663,155.246 183.6663,155.246 183.6487,155.6358 183.6487,155.6358 183.6265,156.0274 183.6265,156.0274 183.5997,156.4202 183.5997,156.4202 183.5685,156.814 183.5685,156.814 183.5327,157.2084 183.5327,157.2084 183.4925,157.6029 183.4925,157.6029 183.4479,157.9972 183.4479,157.9972 183.3989,158.391 183.3989,158.391 183.3455,158.7837 183.3455,158.7837 183.2877,159.1752 183.2877,159.1752 183.2256,159.5649 183.2256,159.5649 183.1593,159.9525 183.1593,159.9525 183.0886,160.3377 183.0886,160.3377 183.0137,160.72 183.0137,160.72 182.9346,161.099 182.9346,161.099 182.8512,161.4745 182.8512,161.4745 182.7637,161.8459 182.7637,161.8459 182.6721,162.213 182.6721,162.213 182.5763,162.5753 182.5763,162.5753 182.2491,163.7866 182.2491,163.7866 183.894,164.1048 183.894,164.1048 184.5384,164.2386 184.5384,164.2386 185.07,164.3544 185.07,164.3544 185.4358,164.4404 185.4358,164.4404 185.5829,164.485 185.5829,164.485 185.5821,164.568 185.5821,164.568 185.5266,164.7499 185.5266,164.7499 185.4231,165.0165 185.4231,165.0165 185.2785,165.3537 185.2785,165.3537 185.0996,165.7473 185.0996,165.7473 184.8933,166.183 184.8933,166.183 184.6664,166.6467 184.6664,166.6467 184.4256,167.1243 184.4256,167.1243 184.1778,167.6015 184.1778,167.6015 183.9299,168.0641 183.9299,168.0641 183.6886,168.498 183.6886,168.498 183.4608,168.889 183.4608,168.889 183.2453,169.2433 183.2453,169.2433 183.0316,169.584 183.0316,169.584 182.8184,169.9133 182.8184,169.9133 182.6041,170.2334 182.6041,170.2334 182.387,170.5464 182.387,170.5464 182.1657,170.8547 182.1657,170.8547 181.9385,171.1602 181.9385,171.1602 181.704,171.4654 181.704,171.4654 181.4606,171.7723 181.4606,171.7723 181.2067,172.0831 181.2067,172.0831"/>
    <polygon points="174.2286,175.1503 174.2284,175.1501 174.2284,175.1501 174.5135,174.9638 174.5135,174.9638 174.776,174.7864 174.776,174.7864 175.0239,174.611 175.0239,174.611 175.2653,174.4306 175.2653,174.4306 175.5085,174.2384 175.5085,174.2384 175.7614,174.0276 175.7614,174.0276 176.0321,173.7911 176.0321,173.7911 176.3288,173.5222 176.3288,173.5222 176.6597,173.2139 176.6597,173.2139 177.0327,172.8594 177.0327,172.8594 177.456,172.4517 177.456,172.4517 177.8487,172.067 177.8487,172.067 178.2059,171.7124 178.2059,171.7124 178.5294,171.3856 178.5294,171.3856 178.8216,171.0842 178.8216,171.0842 179.0843,170.8061 179.0843,170.8061 179.3197,170.549 179.3197,170.549 179.5299,170.3105 179.5299,170.3105 179.7168,170.0884 179.7168,170.0884 179.8827,169.8803 179.8827,169.8803 180.0295,169.6841 180.0295,169.6841 180.2705,169.3386 180.2705,169.3386 180.5303,168.9504 180.5303,168.9504 180.7985,168.5366 180.7985,168.5366 181.0647,168.1145 181.0647,168.1145 181.3185,167.7011 181.3185,167.7011 181.5494,167.3138 181.5494,167.3138 181.7471,166.9696 181.7471,166.9696 181.9012,166.6858 181.9012,166.6858 182.0012,166.4796 182.0012,166.4796 182.0368,166.3681 182.0368,166.3681 181.9766,166.3212 181.9766,166.3212 181.8061,166.2713 181.8061,166.2713 181.5405,166.2197 181.5405,166.2197 181.1951,166.1678 181.1951,166.1678 180.7852,166.1169 180.7852,166.1169 180.3259,166.0683 180.3259,166.0683 179.8327,166.0235 179.8327,166.0235 179.3207,165.9837 179.3207,165.9837 178.8052,165.9504 178.8052,165.9504 178.3016,165.9248 178.3016,165.9248 177.8249,165.9084 177.8249,165.9084 177.3906,165.9024 177.3906,165.9024 177.0139,165.9082 177.0139,165.9082 176.5527,165.9297 176.5527,165.9297 176.0969,165.9615 176.0969,165.9615 175.6469,166.0037 175.6469,166.0037 175.2033,166.0559 175.2033,166.0559 174.7667,166.118 174.7667,166.118 174.3376,166.1899 174.3376,166.1899 173.9164,166.2713 173.9164,166.2713 173.5038,166.362 173.5038,166.362 173.1003,166.4619 173.1003,166.4619 172.7064,166.5708 172.7064,166.5708 172.3226,166.6884 172.3226,166.6884 171.9495,166.8147 171.9495,166.8147 171.5876,166.9495 171.5876,166.9495 171.2374,167.0925 171.2374,167.0925 170.8994,167.2435 170.8994,167.2435 170.5743,167.4024 170.5743,167.4024 170.2625,167.5691 170.2625,167.5691 169.9646,167.7432 169.9646,167.7432 169.681,167.9247 169.681,167.9247 169.4124,168.1133 169.4124,168.1133 169.1592,168.3089 169.1592,168.3089 168.9221,168.5113 168.9221,168.5113 168.7014,168.7203 168.7014,168.7203 168.5077,168.9266 168.5077,168.9266 168.2724,169.1975 168.2724,169.1975 168.0102,169.5151 168.0102,169.5151 167.7354,169.8614 167.7354,169.8614 167.4626,170.2185 167.4626,170.2185 167.2064,170.5686 167.2064,170.5686 166.8635,171.0528 166.8635,171.0528 166.5717,171.4456 166.5717,171.4456 166.363,171.7094 166.363,171.7094 166.2694,171.8066 166.2694,171.8066 166.2413,171.711 166.2413,171.711 166.2022,171.4448 166.2022,171.4448 166.1559,171.039 166.1559,171.039 166.1063,170.5244 166.1063,170.5244 166.057,169.932 166.057,169.932 166.0133,169.3975 166.0133,169.3975 165.9683,168.8902 165.9683,168.8902 165.9218,168.4081 165.9218,168.4081 165.8733,167.9495 165.8733,167.9495 165.8225,167.5123 165.8225,167.5123 165.7692,167.0946 165.7692,167.0946 165.7128,166.6946 165.7128,166.6946 165.6531,166.3103 165.6531,166.3103 165.5898,165.9398 165.5898,165.9398 165.5224,165.5813 165.5224,165.5813 165.4507,165.2327 165.4507,165.2327 165.3742,164.8922 165.3742,164.8922 165.2927,164.5578 165.2927,164.5578 165.2058,164.2278 165.2058,164.2278 165.1131,163.9 165.1131,163.9 165.0143,163.5727 165.0143,163.5727 164.9091,163.2439 164.9091,163.2439 164.7971,162.9117 164.7971,162.9117 164.6779,162.5743 164.6779,162.5743 164.531,162.1793 164.531,162.1793 164.3833,161.8006 164.3833,161.8006 164.2339,161.4367 164.2339,161.4367 164.0818,161.0861 164.0818,161.0861 163.9262,160.7475 163.9262,160.7475 163.7662,160.4193 163.7662,160.4193 163.6009,160.1003 163.6009,160.1003 163.4295,159.789 163.4295,159.789 163.2509,159.4839 163.2509,159.4839 163.0645,159.1836 163.0645,159.1836 162.8692,158.8868 162.8692,158.8868 162.6643,158.5919 162.6643,158.5919 162.4487,158.2976 162.4487,158.2976 162.2217,158.0024 162.2217,158.0024 161.9824,157.7049 161.9824,157.7049 161.7298,157.4037 161.7298,157.4037 161.4631,157.0973 161.4631,157.0973 161.1814,156.7844 161.1814,156.7844 160.8838,156.4635 160.8838,156.4635 160.4941,156.0546 160.4941,156.0546 160.16,155.7107 160.16,155.7107 159.8686,155.4205 159.8686,155.4205 159.6074,155.1732 159.6074,155.1732 159.3637,154.9576 159.3637,154.9576 159.1248,154.7626 159.1248,154.7626 158.878,154.5772 158.878,154.5772 158.6107,154.3903 158.6107,154.3903 158.3103,154.1909 158.3103,154.1909 157.6926,153.7864 157.6926,153.7864 157.2182,153.4984 157.2182,153.4984 156.852,153.3166 156.852,153.3166 156.5587,153.2308 156.5587,153.2308 156.303,153.2309 156.303,153.2309 156.0497,153.3067 156.0497,153.3067 155.7634,153.448 155.7634,153.448 155.5241,153.5895 155.5241,153.5895 155.2177,153.7803 155.2177,153.7803 154.8727,154.0037 154.8727,154.0037 154.5175,154.2434 154.5175,154.2434 154.1805,154.4825 154.1805,154.4825 153.9304,154.6711 153.9304,154.6711 153.6605,154.8907 153.6605,154.8907 153.3746,155.1373 153.3746,155.1373 153.0766,155.407 153.0766,155.407 152.7704,155.6956 152.7704,155.6956 152.46,155.9992 152.46,155.9992 152.1493,156.3136 152.1493,156.3136 151.8422,156.6349 151.8422,156.6349 151.5425,156.959 151.5425,156.959 151.2543,157.2819 151.2543,157.2819 150.9814,157.5995 150.9814,157.5995 150.7278,157.9078 150.7278,157.9078 150.4973,158.2028 150.4973,158.2028 150.2939,158.4804 150.2939,158.4804 150.1215,158.7366 150.1215,158.7366 149.9299,159.0421 149.9299,159.0421 149.7448,159.3495 149.7448,159.3495 149.5661,159.6592 149.5661,159.6592 149.3938,159.9714 149.3938,159.9714 149.2277,160.2865 149.2277,160.2865 149.0677,160.6046 149.0677,160.6046 148.9139,160.9262 148.9139,160.9262 148.766,161.2515 148.766,161.2515 148.6241,161.5808 148.6241,161.5808 148.4881,161.9144 148.4881,161.9144 148.3578,162.2526 148.3578,162.2526 148.2332,162.5957 148.2332,162.5957 148.1143,162.944 148.1143,162.944 148.0008,163.2978 148.0008,163.2978 147.8929,163.6573 147.8929,163.6573 147.7903,164.023 147.7903,164.023 147.6931,164.395 147.6931,164.395 147.6011,164.7737 147.6011,164.7737 147.5142,165.1593 147.5142,165.1593 147.4324,165.5522 147.4324,165.5522 147.3556,165.9527 147.3556,165.9527 147.2837,166.361 147.2837,166.361 147.2166,166.7774 147.2166,166.7774 147.1543,167.2023 147.1543,167.2023 147.0967,167.6359 147.0967,167.6359 147.0437,168.0786 147.0437,168.0786 146.9952,168.5306 146.9952,168.5306 146.9511,168.9922 146.9511,168.9922 146.9114,169.4637 146.9114,169.4637 146.8573,170.0861 146.8573,170.0861 146.8031,170.6469 146.8031,170.6469 146.7518,171.1233 146.7518,171.1233 146.7065,171.4922 146.7065,171.4922 146.6702,171.7308 146.6702,171.7308 146.6461,171.816 146.6461,171.816 146.5706,171.7376 146.5706,171.7376 146.3992,171.5199 146.3992,171.5199 146.1505,171.1893 146.1505,171.1893 145.8433,170.7722 145.8433,170.7722 145.4962,170.2948 145.4962,170.2948 145.1402,169.7933 145.1402,169.7933 144.8488,169.3968 144.8488,169.3968 144.6041,169.0847 144.6041,169.0847 144.3883,168.8366 144.3883,168.8366 144.1836,168.6317 144.1836,168.6317 143.9723,168.4497 143.9723,168.4497 143.7365,168.2698 143.7365,168.2698 143.4498,168.067 143.4498,168.067 143.1572,167.8737 143.1572,167.8737 142.8583,167.69 142.8583,167.69 142.5531,167.5157 142.5531,167.5157 142.2413,167.3509 142.2413,167.3509 141.9228,167.1955 141.9228,167.1955 141.5974,167.0493 141.5974,167.0493 141.2648,166.9125 141.2648,166.9125 140.925,166.7848 140.925,166.7848 140.5777,166.6663 140.5777,166.6663 140.2227,166.557 140.2227,166.557 139.86,166.4566 139.86,166.4566 139.4892,166.3653 139.4892,166.3653 139.1102,166.283 139.1102,166.283 138.7228,166.2095 138.7228,166.2095 138.3268,166.1449 138.3268,166.1449 137.9222,166.089 137.9222,166.089 137.5085,166.042 137.5085,166.042 137.0858,166.0036 137.0858,166.0036 136.6538,165.9738 136.6538,165.9738 136.2123,165.9526 136.2123,165.9526 135.7612,165.94 135.7612,165.94 135.3002,165.9358 135.3002,165.9358 134.9174,165.9403 134.9174,165.9403 134.4964,165.9534 134.4964,165.9534 134.0456,165.9744 134.0456,165.9744 133.5735,166.0023 133.5735,166.0023 133.0886,166.0364 133.0886,166.0364 132.5993,166.0759 132.5993,166.0759 132.114,166.1198 132.114,166.1198 131.6413,166.1676 131.6413,166.1676 131.1895,166.2182 131.1895,166.2182 130.7671,166.2708 130.7671,166.2708 130.3827,166.3248 130.3827,166.3248 130.0446,166.3792 130.0446,166.3792 129.7612,166.4332 129.7612,166.4332 129.5412,166.486 129.5412,166.486 129.3928,166.5368 129.3928,166.5368 129.3489,166.6305 129.3489,166.6305 129.3959,166.8275 129.3959,166.8275 129.5363,167.1337 129.5363,167.1337 129.7725,167.5548 129.7725,167.5548 130.107,168.0967 130.107,168.0967 130.5422,168.7653 130.5422,168.7653 130.7372,169.0549 130.7372,169.0549 130.9363,169.3409 130.9363,169.3409 131.1395,169.6233 131.1395,169.6233 131.3467,169.9021 131.3467,169.9021 131.558,170.1771 131.558,170.1771 131.7734,170.4485 131.7734,170.4485 131.9928,170.7163 131.9928,170.7163 132.2162,170.9803 132.2162,170.9803 132.4435,171.2407 132.4435,171.2407 132.6749,171.4974 132.6749,171.4974 132.9102,171.7504 132.9102,171.7504 133.1495,171.9996 133.1495,171.9996 133.3927,172.2452 133.3927,172.2452 133.6398,172.4871 133.6398,172.4871 133.8909,172.7252 133.8909,172.7252 134.1458,172.9596 134.1458,172.9596 134.4046,173.1903 134.4046,173.1903 134.6672,173.4172 134.6672,173.4172 134.9337,173.6404 134.9337,173.6404 135.2041,173.8598 135.2041,173.8598 135.4782,174.0754 135.4782,174.0754 135.7561,174.2873 135.7561,174.2873 136.0378,174.4954 136.0378,174.4954 136.3233,174.6998 136.3233,174.6998 136.6126,174.9003 136.6126,174.9003 136.9055,175.0971 136.9055,175.0971 137.2022,175.2901 137.2022,175.2901 137.5026,175.4792 137.5026,175.4792 137.8067,175.6645 137.8067,175.6645 138.1145,175.8461 138.1145,175.8461 138.4259,176.0238 138.4259,176.0238 138.7409,176.1976 138.7409,176.1976 139.0596,176.3676 139.0596,176.3676 139.382,176.5338 139.382,176.5338 139.7079,176.6962 139.7079,176.6962 140.0374,176.8546 140.0374,176.8546 140.3704,177.0092 140.3704,177.0092 140.707,177.16 140.707,177.16 141.0472,177.3069 141.0472,177.3069 141.3909,177.4498 141.3909,177.4498 141.7381,177.5889 141.7381,177.5889 142.0888,177.7241 142.0888,177.7241 142.4429,177.8554 142.4429,177.8554 142.8005,177.9828 142.8005,177.9828 143.1616,178.1063 143.1616,178.1063 143.5261,178.2258 143.5261,178.2258 143.894,178.3415 143.894,178.3415 144.2653,178.4532 144.2653,178.4532 144.64,178.5609 144.64,178.5609 145.0181,178.6647 145.0181,178.6647 145.3995,178.7646 145.3995,178.7646 145.7843,178.8605 145.7843,178.8605 146.1724,178.9524 146.1724,178.9524 146.5638,179.0403 146.5638,179.0403 146.9585,179.1243 146.9585,179.1243 147.3565,179.2043 147.3565,179.2043 147.7577,179.2803 147.7577,179.2803 148.1622,179.3523 148.1622,179.3523 148.5699,179.4203 148.5699,179.4203 148.9809,179.4843 148.9809,179.4843 149.395,179.5443 149.395,179.5443 149.8124,179.6002 149.8124,179.6002 150.2329,179.6521 150.2329,179.6521 150.6566,179.7 150.6566,179.7 151.0834,179.7438 151.0834,179.7438 151.5133,179.7836 151.5133,179.7836 151.9463,179.8194 151.9463,179.8194 152.3825,179.851 152.3825,179.851 152.8217,179.8787 152.8217,179.8787 153.264,179.9022 153.264,179.9022 153.7094,179.9216 153.7094,179.9216 154.1577,179.937 154.1577,179.937 154.6091,179.9483 154.6091,179.9483 155.0635,179.9554 155.0635,179.9554 155.5209,179.9585 155.5209,179.9585 155.9813,179.9575 155.9813,179.9575 156.4446,179.9523 156.4446,179.9523 156.8718,179.9433 156.8718,179.9433 157.2967,179.9305 157.2967,179.9305 157.7194,179.9139 157.7194,179.9139 158.1399,179.8935 158.1399,179.8935 158.558,179.8693 158.558,179.8693 158.9738,179.8414 158.9738,179.8414 159.3872,179.8096 159.3872,179.8096 159.7982,179.7741 159.7982,179.7741 160.2068,179.7348 160.2068,179.7348 160.613,179.6917 160.613,179.6917 161.0167,179.6449 161.0167,179.6449 161.4178,179.5943 161.4178,179.5943 161.8164,179.54 161.8164,179.54 162.2125,179.482 162.2125,179.482 162.606,179.4202 162.606,179.4202 162.9968,179.3547 162.9968,179.3547 163.385,179.2855 163.385,179.2855 163.7705,179.2126 163.7705,179.2126 164.1532,179.136 164.1532,179.136 164.5333,179.0556 164.5333,179.0556 164.9105,178.9716 164.9105,178.9716 165.285,178.884 165.285,178.884 165.6566,178.7926 165.6566,178.7926 166.0254,178.6976 166.0254,178.6976 166.3912,178.5989 166.3912,178.5989 166.7542,178.4966 166.7542,178.4966 167.1142,178.3906 167.1142,178.3906 167.4712,178.281 167.4712,178.281 167.8252,178.1678 167.8252,178.1678 168.1762,178.0509 168.1762,178.0509 168.5241,177.9304 168.5241,177.9304 168.8689,177.8063 168.8689,177.8063 169.2106,177.6786 169.2106,177.6786 169.5491,177.5473 169.5491,177.5473 169.8845,177.4124 169.8845,177.4124 170.2166,177.2739 170.2166,177.2739 170.5455,177.1318 170.5455,177.1318 170.8711,176.9862 170.8711,176.9862 171.1934,176.837 171.1934,176.837 171.5124,176.6842 171.5124,176.6842 171.8281,176.5279 171.8281,176.5279 172.1403,176.368 172.1403,176.368 172.4491,176.2046 172.4491,176.2046 172.7545,176.0377 172.7545,176.0377 173.0564,175.8672 173.0564,175.8672 173.3547,175.6932 173.3547,175.6932 173.6496,175.5158 173.6496,175.5158 173.9409,175.3348 173.9409,175.3348"/>
    <polygon points="178.2261,163.4237 178.2259,163.4232 178.2259,163.4232 178.7817,163.427 178.7817,163.427 179.2505,163.4133 179.2505,163.4133 179.5848,163.3846 179.5848,163.3846 179.7372,163.3435 179.7372,163.3435 179.8295,163.1333 179.8295,163.1333 179.9808,162.6754 179.9808,162.6754 180.1619,162.0703 180.1619,162.0703 180.2609,161.7066 180.2609,161.7066 180.3549,161.3408 180.3549,161.3408 180.4442,160.973 180.4442,160.973 180.5285,160.6032 180.5285,160.6032 180.608,160.2317 180.608,160.2317 180.6827,159.8585 180.6827,159.8585 180.7524,159.4838 180.7524,159.4838 180.8173,159.1077 180.8173,159.1077 180.8774,158.7304 180.8774,158.7304 180.9325,158.3518 180.9325,158.3518 180.9827,157.9722 180.9827,157.9722 181.0281,157.5918 181.0281,157.5918 181.0686,157.2105 181.0686,157.2105 181.1042,156.8286 181.1042,156.8286 181.1348,156.4461 181.1348,156.4461 181.1606,156.0632 181.1606,156.0632 181.1815,155.6801 181.1815,155.6801 181.1974,155.2967 181.1974,155.2967 181.2085,154.9133 181.2085,154.9133 181.2146,154.53 181.2146,154.53 181.2158,154.1469 181.2158,154.1469 181.2121,153.7641 181.2121,153.7641 181.2035,153.3817 181.2035,153.3817 181.1899,153.0 181.1899,153.0 181.1714,152.6189 181.1714,152.6189 181.1479,152.2386 181.1479,152.2386 181.1195,151.8593 181.1195,151.8593 181.0862,151.4811 181.0862,151.4811 181.0479,151.104 181.0479,151.104 181.0047,150.7282 181.0047,150.7282 180.9565,150.3539 180.9565,150.3539 180.9033,149.9811 180.9033,149.9811 180.8452,149.61 180.8452,149.61 180.7821,149.2408 180.7821,149.2408 180.7141,148.8734 180.7141,148.8734 180.641,148.5081 180.641,148.5081 180.563,148.145 180.563,148.145 180.48,147.7841 180.48,147.7841 180.3921,147.4257 180.3921,147.4257 180.3076,147.1019 180.3076,147.1019 180.2191,146.7765 180.2191,146.7765 180.1267,146.4497 180.1267,146.4497 180.0302,146.1216 180.0302,146.1216 179.9299,145.7921 179.9299,145.7921 179.8256,145.4614 179.8256,145.4614 179.7175,145.1296 179.7175,145.1296 179.6056,144.7966 179.6056,144.7966 179.4898,144.4626 179.4898,144.4626 179.3703,144.1276 179.3703,144.1276 179.2471,143.7916 179.2471,143.7916 179.1201,143.4548 179.1201,143.4548 178.9895,143.1173 178.9895,143.1173 178.8553,142.779 178.8553,142.779 178.7174,142.44 178.7174,142.44 178.576,142.1004 178.576,142.1004 178.4311,141.7603 178.4311,141.7603 178.2826,141.4197 178.2826,141.4197 178.1307,141.0788 178.1307,141.0788 177.9754,140.7374 177.9754,140.7374 177.8166,140.3958 177.8166,140.3958 177.6545,140.054 177.6545,140.054 177.4891,139.712 177.4891,139.712 177.3203,139.3699 177.3203,139.3699 177.1483,139.0278 177.1483,139.0278 176.973,138.6857 176.973,138.6857 176.7945,138.3438 176.7945,138.3438 176.6129,138.0019 176.6129,138.0019 176.4281,137.6604 176.4281,137.6604 176.2402,137.3191 176.2402,137.3191 176.0492,136.9781 176.0492,136.9781 175.8552,136.6376 175.8552,136.6376 175.6582,136.2976 175.6582,136.2976 175.4582,135.9581 175.4582,135.9581 175.2553,135.6193 175.2553,135.6193 175.0495,135.2811 175.0495,135.2811 174.8408,134.9436 174.8408,134.9436 174.6292,134.6069 174.6292,134.6069 174.4149,134.2711 174.4149,134.2711 174.1977,133.9363 174.1977,133.9363 173.9778,133.6024 173.9778,133.6024 173.7552,133.2696 173.7552,133.2696 173.53,132.9379 173.53,132.9379 173.302,132.6074 173.302,132.6074 173.0715,132.2781 173.0715,132.2781 172.8384,131.9502 172.8384,131.9502 172.6027,131.6236 172.6027,131.6236 172.3646,131.2984 172.3646,131.2984 172.1239,130.9748 172.1239,130.9748 171.8808,130.6527 171.8808,130.6527 171.6353,130.3323 171.6353,130.3323 171.3874,130.0135 171.3874,130.0135 171.1372,129.6966 171.1372,129.6966 170.8846,129.3814 170.8846,129.3814 170.6298,129.0681 170.6298,129.0681 170.3727,128.7568 170.3727,128.7568 170.1146,128.4502 170.1146,128.4502 169.831,128.1209 169.831,128.1209 169.5271,127.7743 169.5271,127.7743 169.2077,127.4157 169.2077,127.4157 168.878,127.0503 168.878,127.0503 168.5429,126.6835 168.5429,126.6835 168.2075,126.3205 168.2075,126.3205 167.8769,125.9668 167.8769,125.9668 167.5559,125.6276 167.5559,125.6276 167.2498,125.3082 167.2498,125.3082 166.9634,125.0139 166.9634,125.0139 166.7018,124.75 166.7018,124.75 166.4701,124.5219 166.4701,124.5219 166.2733,124.3349 166.2733,124.3349 166.1163,124.1943 166.1163,124.1943 166.0043,124.1053 166.0043,124.1053 165.781,123.974 165.781,123.974 165.7367,124.0434 165.7367,124.0434 165.8949,124.4113 165.8949,124.4113 166.2785,125.1754 166.2785,125.1754 166.4576,125.5348 166.4576,125.5348 166.6324,125.8957 166.6324,125.8957 166.803,126.258 166.803,126.258 166.9694,126.6217 166.9694,126.6217 167.1314,126.9867 167.1314,126.9867 167.2891,127.3529 167.2891,127.3529 167.4425,127.7201 167.4425,127.7201 167.5916,128.0883 167.5916,128.0883 167.7362,128.4573 167.7362,128.4573 167.8765,128.8271 167.8765,128.8271 168.0123,129.1975 168.0123,129.1975 168.1437,129.5685 168.1437,129.5685 168.2706,129.94 168.2706,129.94 168.393,130.3118 168.393,130.3118 168.5108,130.6839 168.5108,130.6839 168.6242,131.0561 168.6242,131.0561 168.7329,131.4283 168.7329,131.4283 168.8371,131.8005 168.8371,131.8005 168.9366,132.1726 168.9366,132.1726 169.0316,132.5444 169.0316,132.5444 169.1218,132.9158 169.1218,132.9158 169.2074,133.2867 169.2074,133.2867 169.2883,133.6571 169.2883,133.6571 169.3644,134.0269 169.3644,134.0269 169.4358,134.3959 169.4358,134.3959 169.5024,134.764 169.5024,134.764 169.5642,135.1311 169.5642,135.1311 169.6212,135.4972 169.6212,135.4972 169.6734,135.8621 169.6734,135.8621 169.7206,136.2257 169.7206,136.2257 169.763,136.588 169.763,136.588 169.8005,136.9487 169.8005,136.9487 169.8331,137.3079 169.8331,137.3079 169.8606,137.6654 169.8606,137.6654 169.8832,138.0212 169.8832,138.0212 169.9008,138.375 169.9008,138.375 169.9134,138.7269 169.9134,138.7269 169.9209,139.0767 169.9209,139.0767 169.9233,139.4243 169.9233,139.4243 169.9206,139.7696 169.9206,139.7696 169.9128,140.1125 169.9128,140.1125 169.8903,140.6303 169.8903,140.6303 169.8552,141.1483 169.8552,141.1483 169.809,141.6571 169.809,141.6571 169.753,142.1473 169.753,142.1473 169.6885,142.6095 169.6885,142.6095 169.6169,143.0343 169.6169,143.0343 169.5394,143.4123 169.5394,143.4123 169.4574,143.7341 169.4574,143.7341 169.3722,143.9903 169.3722,143.9903 169.2852,144.1716 169.2852,144.1716 168.94,144.518 168.94,144.518 168.4631,144.6973 168.4631,144.6973 167.9764,144.6666 167.9764,144.6666 167.6475,144.5353 167.6475,144.5353 167.4008,144.3604 167.4008,144.3604 167.2318,144.1283 167.2318,144.1283 167.1359,143.8255 167.1359,143.8255 167.1087,143.4386 167.1087,143.4386 167.1457,142.954 167.1457,142.954 167.2423,142.3584 167.2423,142.3584 167.298,142.0443 167.298,142.0443 167.3476,141.7252 167.3476,141.7252 167.3909,141.4013 167.3909,141.4013 167.4281,141.0728 167.4281,141.0728 167.4591,140.7397 167.4591,140.7397 167.4841,140.4024 167.4841,140.4024 167.503,140.061 167.503,140.061 167.516,139.7157 167.516,139.7157 167.523,139.3666 167.523,139.3666 167.5242,139.0141 167.5242,139.0141 167.5194,138.6582 167.5194,138.6582 167.5089,138.2992 167.5089,138.2992 167.4925,137.9372 167.4925,137.9372 167.4705,137.5724 167.4705,137.5724 167.4427,137.205 167.4427,137.205 167.4093,136.8353 167.4093,136.8353 167.3703,136.4633 167.3703,136.4633 167.3258,136.0894 167.3258,136.0894 167.2757,135.7136 167.2757,135.7136 167.2201,135.3361 167.2201,135.3361 167.1591,134.9572 167.1591,134.9572 167.0928,134.5771 167.0928,134.5771 167.021,134.1958 167.021,134.1958 166.944,133.8137 166.944,133.8137 166.8617,133.4309 166.8617,133.4309 166.7741,133.0476 166.7741,133.0476 166.6814,132.6639 166.6814,132.6639 166.5836,132.2802 166.5836,132.2802 166.4807,131.8964 166.4807,131.8964 166.3727,131.513 166.3727,131.513 166.2597,131.1299 166.2597,131.1299 166.1417,130.7475 166.1417,130.7475 166.0188,130.3659 166.0188,130.3659 165.891,129.9853 165.891,129.9853 165.7584,129.6058 165.7584,129.6058 165.621,129.2278 165.621,129.2278 165.4788,128.8513 165.4788,128.8513 165.3319,128.4766 165.3319,128.4766 165.1804,128.1038 165.1804,128.1038 165.0242,127.7331 165.0242,127.7331 164.8634,127.3647 164.8634,127.3647 164.6981,126.9989 164.6981,126.9989 164.5283,126.6357 164.5283,126.6357 164.354,126.2755 164.354,126.2755 164.1753,125.9183 164.1753,125.9183 163.9923,125.5643 163.9923,125.5643 163.8049,125.2138 163.8049,125.2138 163.6132,124.867 163.6132,124.867 163.4173,124.524 163.4173,124.524 163.2171,124.1849 163.2171,124.1849 162.987,123.8099 162.987,123.8099 162.7357,123.4205 162.7357,123.4205 162.4683,123.0232 162.4683,123.0232 162.1901,122.6247 162.1901,122.6247 161.9061,122.2314 161.9061,122.2314 161.6215,121.8499 161.6215,121.8499 161.3413,121.4866 161.3413,121.4866 161.0708,121.148 161.0708,121.148 160.815,120.8408 160.815,120.8408 160.579,120.5714 160.579,120.5714 160.368,120.3463 160.368,120.3463 160.1872,120.172 160.1872,120.172 160.0415,120.0552 160.0415,120.0552 159.9363,120.0022 159.9363,120.0022 159.9181,120.1462 159.9181,120.1462 160.0256,120.5654 160.0256,120.5654 160.2372,121.1872 160.2372,121.1872 160.3658,121.5345 160.3658,121.5345 160.4909,121.8878 160.4909,121.8878 160.6125,122.2467 160.6125,122.2467 160.7303,122.6108 160.7303,122.6108 160.8445,122.9797 160.8445,122.9797 160.9549,123.3531 160.9549,123.3531 161.0614,123.7304 161.0614,123.7304 161.1641,124.1114 161.1641,124.1114 161.2628,124.4956 161.2628,124.4956 161.3575,124.8826 161.3575,124.8826 161.448,125.2721 161.448,125.2721 161.5345,125.6635 161.5345,125.6635 161.6167,126.0567 161.6167,126.0567 161.6947,126.451 161.6947,126.451 161.7683,126.8462 161.7683,126.8462 161.8376,127.2418 161.8376,127.2418 161.9023,127.6374 161.9023,127.6374 161.9626,128.0327 161.9626,128.0327 162.0183,128.4272 162.0183,128.4272 162.0693,128.8205 162.0693,128.8205 162.1157,129.2123 162.1157,129.2123 162.1573,129.6021 162.1573,129.6021 162.194,129.9896 162.194,129.9896 162.2259,130.3743 162.2259,130.3743 162.2528,130.7559 162.2528,130.7559 162.2747,131.1339 162.2747,131.1339 162.2915,131.508 162.2915,131.508 162.3032,131.8777 162.3032,131.8777 162.3097,132.2427 162.3097,132.2427 162.3109,132.6026 162.3109,132.6026 162.3068,132.9569 162.3068,132.9569 162.2973,133.3052 162.2973,133.3052 162.2824,133.6472 162.2824,133.6472 162.262,133.9825 162.262,133.9825 162.236,134.3107 162.236,134.3107 162.1685,135.0163 162.1685,135.0163 162.1001,135.5329 162.1001,135.5329 162.0193,135.8997 162.0193,135.8997 161.9151,136.1561 161.9151,136.1561 161.7759,136.3413 161.7759,136.3413 161.5905,136.4947 161.5905,136.4947 161.189,136.6825 161.189,136.6825 160.7724,136.7178 160.7724,136.7178 160.3692,136.6039 160.3692,136.6039 160.0075,136.3443 160.0075,136.3443 159.7691,136.05 159.7691,136.05 159.6919,135.7008 159.6919,135.7008 159.7248,135.0884 159.7248,135.0884 159.7556,134.7091 159.7556,134.7091 159.7814,134.3295 159.7814,134.3295 159.8021,133.9496 159.8021,133.9496 159.8178,133.5694 159.8178,133.5694 159.8284,133.1891 159.8284,133.1891 159.834,132.8084 159.834,132.8084 159.8345,132.4277 159.8345,132.4277 159.8301,132.0467 159.8301,132.0467 159.8206,131.6656 159.8206,131.6656 159.8061,131.2843 159.8061,131.2843 159.7866,130.903 159.7866,130.903 159.7622,130.5216 159.7622,130.5216 159.7328,130.1402 159.7328,130.1402 159.6984,129.7587 159.6984,129.7587 159.6591,129.3772 159.6591,129.3772 159.6148,128.9957 159.6148,128.9957 159.5655,128.6143 159.5655,128.6143 159.5114,128.2329 159.5114,128.2329 159.4523,127.8516 159.4523,127.8516 159.3883,127.4704 159.3883,127.4704 159.3195,127.0894 159.3195,127.0894 159.2457,126.7085 159.2457,126.7085 159.167,126.3277 159.167,126.3277 159.0835,125.9472 159.0835,125.9472 158.9951,125.5669 158.9951,125.5669 158.9018,125.1869 158.9018,125.1869 158.8037,124.8071 158.8037,124.8071 158.7008,124.4276 158.7008,124.4276 158.593,124.0484 158.593,124.0484 158.4804,123.6696 158.4804,123.6696 158.363,123.2911 158.363,123.2911 158.1976,122.7815 158.1976,122.7815 158.0371,122.3038 158.0371,122.3038 157.8807,121.8568 157.8807,121.8568 157.7279,121.4389 157.7279,121.4389 157.5778,121.0487 157.5778,121.0487 157.43,120.6845 157.43,120.6845 157.2836,120.3451 157.2836,120.3451 157.138,120.0289 157.138,120.0289 156.9926,119.7345 156.9926,119.7345 156.8466,119.4603 156.8466,119.4603 156.6994,119.2049 156.6994,119.2049 156.5503,118.9668 156.5503,118.9668 156.1083,118.295 156.1083,118.295 155.392,118.3392 155.392,118.3392 155.0732,118.3734 155.0732,118.3734 154.7616,118.4347 154.7616,118.4347 154.4532,118.5252 154.4532,118.5252 154.144,118.6472 154.144,118.6472 153.83,118.8027 153.83,118.8027 153.5073,118.9941 153.5073,118.9941 153.1718,119.2234 153.1718,119.2234 152.8196,119.493 152.8196,119.493 152.4468,119.8049 152.4468,119.8049 152.0493,120.1613 152.0493,120.1613 151.8084,120.3884 151.8084,120.3884 151.5701,120.6241 151.5701,120.6241 151.3344,120.8682 151.3344,120.8682 151.1015,121.1204 151.1015,121.1204 150.8714,121.3805 150.8714,121.3805 150.6441,121.6483 150.6441,121.6483 150.4198,121.9236 150.4198,121.9236 150.1985,122.2061 150.1985,122.2061 149.9803,122.4956 149.9803,122.4956 149.7652,122.7919 149.7652,122.7919 149.5534,123.0947 149.5534,123.0947 149.3449,123.4039 149.3449,123.4039 149.1398,123.7193 149.1398,123.7193 148.9381,124.0405 148.9381,124.0405 148.7399,124.3673 148.7399,124.3673 148.5454,124.6996 148.5454,124.6996 148.3545,125.0372 148.3545,125.0372 148.1674,125.3797 148.1674,125.3797 147.9841,125.727 147.9841,125.727 147.8048,126.0788 147.8048,126.0788 147.6293,126.4349 147.6293,126.4349 147.458,126.7951 147.458,126.7951 147.2907,127.1592 147.2907,127.1592 147.1277,127.527 147.1277,127.527 146.9689,127.8981 146.9689,127.8981 146.8144,128.2725 146.8144,128.2725 146.6644,128.6498 146.6644,128.6498 146.5189,129.0298 146.5189,129.0298 146.3779,129.4124 146.3779,129.4124 146.2415,129.7973 146.2415,129.7973 146.1099,130.1842 146.1099,130.1842 145.983,130.573 145.983,130.573 145.861,130.9634 145.861,130.9634 145.744,131.3552 145.744,131.3552 145.6319,131.7481 145.6319,131.7481 145.5249,132.1421 145.5249,132.1421 145.4231,132.5367 145.4231,132.5367 145.3264,132.9318 145.3264,132.9318 145.2351,133.3272 145.2351,133.3272 145.1492,133.7226 145.1492,133.7226 145.0687,134.1179 145.0687,134.1179 144.9937,134.5128 144.9937,134.5128 144.9243,134.907 144.9243,134.907 144.8606,135.3004 144.8606,135.3004 144.8026,135.6927 144.8026,135.6927 144.7504,136.0837 144.7504,136.0837 144.7041,136.4731 144.7041,136.4731 144.6638,136.8609 144.6638,136.8609 144.6295,137.2466 144.6295,137.2466 144.6013,137.6301 144.6013,137.6301 144.5793,138.0113 144.5793,138.0113 144.5636,138.3897 144.5636,138.3897 144.5541,138.7653 144.5541,138.7653 144.5511,139.1378 144.5511,139.1378 144.5546,139.507 144.5546,139.507 144.5646,139.8726 144.5646,139.8726 144.5812,140.2344 144.5812,140.2344 144.6046,140.5923 144.6046,140.5923 144.6347,140.9459 144.6347,140.9459 144.6716,141.295 144.6716,141.295 144.7155,141.6395 144.7155,141.6395 144.7663,141.9791 144.7663,141.9791 144.8242,142.3136 144.8242,142.3136 144.9236,142.9135 144.9236,142.9135 144.9688,143.3974 144.9688,143.3974 144.9556,143.7813 144.9556,143.7813 144.8796,144.0814 144.8796,144.0814 144.7365,144.3137 144.7365,144.3137 144.522,144.4944 144.522,144.4944 144.2317,144.6396 144.2317,144.6396 143.7819,144.7441 143.7819,144.7441 143.3755,144.6442 143.3755,144.6442 142.967,144.3301 142.967,144.3301 142.8689,144.2056 142.8689,144.2056 142.776,144.0352 142.776,144.0352 142.6885,143.8219 142.6885,143.8219 142.6068,143.5687 142.6068,143.5687 142.531,143.2787 142.531,143.2787 142.4615,142.9549 142.4615,142.9549 142.3985,142.6002 142.3985,142.6002 142.3424,142.2178 142.3424,142.2178 142.2935,141.8107 142.2935,141.8107 142.2519,141.3818 142.2519,141.3818 142.2181,140.9342 142.2181,140.9342 142.1923,140.4709 142.1923,140.4709 142.1748,139.995 142.1748,139.995 142.1658,139.5095 142.1658,139.5095 142.1657,139.0173 142.1657,139.0173 142.1747,138.5216 142.1747,138.5216 142.1932,138.0253 142.1932,138.0253 142.2214,137.5315 142.2214,137.5315 142.2596,137.0431 142.2596,137.0431 142.2939,136.6907 142.2939,136.6907 142.3335,136.3362 142.3335,136.3362 142.3781,135.9798 142.3781,135.9798 142.4279,135.6216 142.4279,135.6216 142.4827,135.2616 142.4827,135.2616 142.5425,134.9002 142.5425,134.9002 142.6073,134.5374 142.6073,134.5374 142.6769,134.1733 142.6769,134.1733 142.7515,133.808 142.7515,133.808 142.8308,133.4418 142.8308,133.4418 142.9149,133.0747 142.9149,133.0747 143.0037,132.7069 143.0037,132.7069 143.0972,132.3385 143.0972,132.3385 143.1952,131.9697 143.1952,131.9697 143.2979,131.6006 143.2979,131.6006 143.4051,131.2312 143.4051,131.2312 143.5168,130.8619 143.5168,130.8619 143.6328,130.4926 143.6328,130.4926 143.7533,130.1236 143.7533,130.1236 143.8781,129.7549 143.8781,129.7549 144.0072,129.3867 144.0072,129.3867 144.1405,129.0191 144.1405,129.0191 144.278,128.6524 144.278,128.6524 144.4197,128.2865 144.4197,128.2865 144.5654,127.9217 144.5654,127.9217 144.7152,127.558 144.7152,127.558 144.869,127.1957 144.869,127.1957 145.0268,126.8348 145.0268,126.8348 145.1884,126.4755 145.1884,126.4755 145.3539,126.1179 145.3539,126.1179 145.5233,125.7621 145.5233,125.7621 145.6963,125.4084 145.6963,125.4084 145.8731,125.0568 145.8731,125.0568 146.0536,124.7074 146.0536,124.7074 146.2377,124.3605 146.2377,124.3605 146.4253,124.016 146.4253,124.016 146.6165,123.6743 146.6165,123.6743 146.8112,123.3353 146.8112,123.3353 147.0092,122.9993 147.0092,122.9993 147.2107,122.6664 147.2107,122.6664 147.4155,122.3366 147.4155,122.3366 147.9636,121.47 147.9636,121.47 147.5039,121.8064 147.5039,121.8064 147.2727,121.9786 147.2727,121.9786 147.0263,122.1698 147.0263,122.1698 146.7664,122.3785 146.7664,122.3785 146.4947,122.603 146.4947,122.603 146.2129,122.8418 146.2129,122.8418 145.9226,123.0934 145.9226,123.0934 145.6254,123.3562 145.6254,123.3562 145.3232,123.6287 145.3232,123.6287 145.0174,123.9093 145.0174,123.9093 144.7099,124.1965 144.7099,124.1965 144.4022,124.4887 144.4022,124.4887 144.096,124.7843 144.096,124.7843 143.7931,125.0819 143.7931,125.0819 143.495,125.3798 143.495,125.3798 143.2035,125.6766 143.2035,125.6766 142.9201,125.9706 142.9201,125.9706 142.6467,126.2604 142.6467,126.2604 142.3848,126.5443 142.3848,126.5443 142.1361,126.8208 142.1361,126.8208 141.8571,127.1375 141.8571,127.1375 141.5809,127.4554 141.5809,127.4554 141.3075,127.7744 141.3075,127.7744 141.037,128.0946 141.037,128.0946 140.7694,128.4159 140.7694,128.4159 140.5047,128.7383 140.5047,128.7383 140.2429,129.0618 140.2429,129.0618 139.984,129.3863 139.984,129.3863 139.728,129.7118 139.728,129.7118 139.475,130.0383 139.475,130.0383 139.225,130.3657 139.225,130.3657 138.978,130.6941 138.978,130.6941 138.7339,131.0234 138.7339,131.0234 138.4928,131.3536 138.4928,131.3536 138.2548,131.6846 138.2548,131.6846 138.0198,132.0164 138.0198,132.0164 137.7878,132.349 137.7878,132.349 137.5589,132.6824 137.5589,132.6824 137.3331,133.0166 137.3331,133.0166 137.1104,133.3514 137.1104,133.3514 136.8908,133.687 136.8908,133.687 136.6742,134.0232 136.6742,134.0232 136.4609,134.36 136.4609,134.36 136.2506,134.6975 136.2506,134.6975 136.0435,135.0355 136.0435,135.0355 135.8396,135.3741 135.8396,135.3741 135.6389,135.7132 135.6389,135.7132 135.4413,136.0528 135.4413,136.0528 135.247,136.3929 135.247,136.3929 135.0559,136.7335 135.0559,136.7335 134.8681,137.0744 134.8681,137.0744 134.6835,137.4158 134.6835,137.4158 134.5021,137.7575 134.5021,137.7575 134.3241,138.0996 134.3241,138.0996 134.1493,138.4419 134.1493,138.4419 133.9779,138.7846 133.9779,138.7846 133.8097,139.1275 133.8097,139.1275 133.6449,139.4707 133.6449,139.4707 133.4835,139.8141 133.4835,139.8141 133.3254,140.1576 133.3254,140.1576 133.1707,140.5013 133.1707,140.5013 133.0194,140.8451 133.0194,140.8451 132.8715,141.1891 132.8715,141.1891 132.727,141.5331 132.727,141.5331 132.5859,141.8771 132.5859,141.8771 132.4483,142.2212 132.4483,142.2212 132.3141,142.5652 132.3141,142.5652 132.1835,142.9093 132.1835,142.9093 132.0563,143.2532 132.0563,143.2532 131.9326,143.5971 131.9326,143.5971 131.8124,143.9409 131.8124,143.9409 131.6957,144.2845 131.6957,144.2845 131.5826,144.6279 131.5826,144.6279 131.4731,144.9712 131.4731,144.9712 131.3671,145.3142 131.3671,145.3142 131.2647,145.657 131.2647,145.657 131.1659,145.9995 131.1659,145.9995 131.0707,146.3417 131.0707,146.3417 130.9791,146.6836 130.9791,146.6836 130.8912,147.0251 130.8912,147.0251 130.8069,147.3663 130.8069,147.3663 130.7263,147.707 130.7263,147.707 130.6494,148.0473 130.6494,148.0473 130.5761,148.3872 130.5761,148.3872 130.5066,148.7265 130.5066,148.7265 130.4408,149.0654 130.4408,149.0654 130.3787,149.4036 130.3787,149.4036 130.3204,149.7414 130.3204,149.7414 130.2658,150.0785 130.2658,150.0785 130.215,150.415 130.215,150.415 130.1673,150.7626 130.1673,150.7626 130.1252,151.1185 130.1252,151.1185 130.0888,151.4821 130.0888,151.4821 130.0579,151.8527 130.0579,151.8527 130.0326,152.2299 130.0326,152.2299 130.0127,152.6128 130.0127,152.6128 129.9982,153.0011 129.9982,153.0011 129.9891,153.394 129.9891,153.394 129.9853,153.791 129.9853,153.791 129.9868,154.1915 129.9868,154.1915 129.9934,154.5948 129.9934,154.5948 130.0051,155.0004 130.0051,155.0004 130.022,155.4077 130.022,155.4077 130.0438,155.816 130.0438,155.816 130.0706,156.2249 130.0706,156.2249 130.1024,156.6336 130.1024,156.6336 130.1389,157.0415 130.1389,157.0415 130.1803,157.4482 130.1803,157.4482 130.2264,157.8529 130.2264,157.8529 130.2772,158.2551 130.2772,158.2551 130.3326,158.6542 130.3326,158.6542 130.3926,159.0496 130.3926,159.0496 130.4571,159.4406 130.4571,159.4406 130.5261,159.8268 130.5261,159.8268 130.5994,160.2074 130.5994,160.2074 130.6772,160.5819 130.6772,160.5819 130.7592,160.9496 130.7592,160.9496 130.8454,161.3101 130.8454,161.3101 130.9358,161.6626 130.9358,161.6626 131.0304,162.0066 131.0304,162.0066 131.129,162.3415 131.129,162.3415 131.2316,162.6667 131.2316,162.6667 131.3382,162.9816 131.3382,162.9816 131.5683,163.6186 131.5683,163.6186 132.3728,163.5388 132.3728,163.5388 132.6518,163.5134 132.6518,163.5134 132.9732,163.4929 132.9732,163.4929 133.3308,163.4772 133.3308,163.4772 133.7189,163.4662 133.7189,163.4662 134.1316,163.4597 134.1316,163.4597 134.563,163.4576 134.563,163.4576 135.0073,163.4597 135.0073,163.4597 135.4585,163.4659 135.4585,163.4659 135.9108,163.4761 135.9108,163.4761 136.3584,163.49 136.3584,163.49 136.7953,163.5075 136.7953,163.5075 137.2157,163.5285 137.2157,163.5285 137.6137,163.5529 137.6137,163.5529 137.9834,163.5804 137.9834,163.5804 138.319,163.611 138.319,163.611 138.6145,163.6444 138.6145,163.6444 138.8642,163.6806 138.8642,163.6806 139.2529,163.7536 139.2529,163.7536 139.657,163.8412 139.657,163.8412 140.0721,163.942 140.0721,163.942 140.4937,164.0545 140.4937,164.0545 140.9173,164.1774 140.9173,164.1774 141.3387,164.3091 141.3387,164.3091 141.7533,164.4483 141.7533,164.4483 142.1568,164.5936 142.1568,164.5936 142.5446,164.7435 142.5446,164.7435 142.9125,164.8966 142.9125,164.8966 143.2559,165.0514 143.2559,165.0514 143.5705,165.2066 143.5705,165.2066 143.8518,165.3607 143.8518,165.3607 144.7715,165.9091 144.7715,165.9091 145.0279,164.6795 145.0279,164.6795 145.1035,164.342 145.1035,164.342 145.1929,163.9839 145.1929,163.9839 145.2948,163.609 145.2948,163.609 145.4078,163.2211 145.4078,163.2211 145.5307,162.8239 145.5307,162.8239 145.6621,162.4211 145.6621,162.4211 145.8006,162.0167 145.8006,162.0167 145.945,161.6142 145.945,161.6142 146.0938,161.2176 146.0938,161.2176 146.2458,160.8305 146.2458,160.8305 146.3996,160.4568 146.3996,160.4568 146.5538,160.1002 146.5538,160.1002 146.7072,159.7644 146.7072,159.7644 146.8584,159.4533 146.8584,159.4533 147.0346,159.1124 147.0346,159.1124 147.2181,158.7744 147.2181,158.7744 147.4087,158.4394 147.4087,158.4394 147.6062,158.1076 147.6062,158.1076 147.8105,157.7793 147.8105,157.7793 148.0214,157.4547 148.0214,157.4547 148.2387,157.1338 148.2387,157.1338 148.4622,156.817 148.4622,156.817 148.6917,156.5044 148.6917,156.5044 148.9272,156.1963 148.9272,156.1963 149.1682,155.8928 149.1682,155.8928 149.4148,155.594 149.4148,155.594 149.6668,155.3003 149.6668,155.3003 149.9238,155.0118 149.9238,155.0118 150.1858,154.7287 150.1858,154.7287 150.4526,154.4513 150.4526,154.4513 150.724,154.1796 150.724,154.1796 150.9998,153.9139 150.9998,153.9139 151.2798,153.6543 151.2798,153.6543 151.5639,153.4012 151.5639,153.4012 151.8518,153.1547 151.8518,153.1547 152.1435,152.9149 152.1435,152.9149 152.4386,152.6821 152.4386,152.6821 152.7371,152.4565 152.7371,152.4565 153.0387,152.2383 153.0387,152.2383 153.3433,152.0276 153.3433,152.0276 153.6507,151.8246 153.6507,151.8246 153.9607,151.6297 153.9607,151.6297 154.2731,151.4428 154.2731,151.4428 154.5877,151.2644 154.5877,151.2644 155.1491,150.9609 155.1491,150.9609 155.5932,150.7376 155.5932,150.7376 155.9502,150.5903 155.9502,150.5903 156.2504,150.5144 156.2504,150.5144 156.524,150.5058 156.524,150.5058 156.8014,150.5601 156.8014,150.5601 157.1128,150.6728 157.1128,150.6728 157.4884,150.8396 157.4884,150.8396 157.8399,151.0078 157.8399,151.0078 158.17,151.1725 158.17,151.1725 158.482,151.3361 158.482,151.3361 158.7789,151.5008 158.7789,151.5008 159.064,151.669 159.064,151.669 159.3404,151.843 159.3404,151.843 159.6112,152.0251 159.6112,152.0251 159.8796,152.2177 159.8796,152.2177 160.1487,152.423 160.1487,152.423 160.4216,152.6434 160.4216,152.6434 160.7016,152.8812 160.7016,152.8812 160.9918,153.1387 160.9918,153.1387 161.2953,153.4182 161.2953,153.4182 161.6152,153.7221 161.6152,153.7221 161.9548,154.0526 161.9548,154.0526 162.3171,154.4121 162.3171,154.4121 162.7454,154.8422 162.7454,154.8422 163.1124,155.2156 163.1124,155.2156 163.4263,155.5419 163.4263,155.5419 163.6954,155.8306 163.6954,155.8306 163.9278,156.0915 163.9278,156.0915 164.1319,156.334 164.1319,156.334 164.3158,156.5678 164.3158,156.5678 164.4877,156.8024 164.4877,156.8024 164.656,157.0476 164.656,157.0476 164.8287,157.3128 164.8287,157.3128 165.0334,157.6369 165.0334,157.6369 165.2334,157.967 165.2334,157.967 165.4285,158.3027 165.4285,158.3027 165.6187,158.6437 165.6187,158.6437 165.8037,158.9896 165.8037,158.9896 165.9834,159.34 165.9834,159.34 166.1576,159.6945 166.1576,159.6945 166.3263,160.0528 166.3263,160.0528 166.4891,160.4145 166.4891,160.4145 166.646,160.7793 166.646,160.7793 166.7968,161.1466 166.7968,161.1466 166.9413,161.5163 166.9413,161.5163 167.0794,161.8879 167.0794,161.8879 167.211,162.261 167.211,162.261 167.3358,162.6352 167.3358,162.6352 167.4537,163.0103 167.4537,163.0103 167.5645,163.3858 167.5645,163.3858 167.6682,163.7614 167.6682,163.7614 167.7645,164.1366 167.7645,164.1366 167.8532,164.5111 167.8532,164.5111 168.0105,165.1579 168.0105,165.1579 168.1464,165.618 168.1464,165.618 168.2334,165.7932 168.2334,165.7932 168.4084,165.7236 168.4084,165.7236 168.7743,165.5418 168.7743,165.5418 169.2503,165.2894 169.2503,165.2894 169.5401,165.1355 169.5401,165.1355 169.8389,164.9879 169.8389,164.9879 170.1466,164.8465 170.1466,164.8465 170.4629,164.7115 170.4629,164.7115 170.7875,164.5828 170.7875,164.5828 171.1202,164.4607 171.1202,164.4607 171.4609,164.345 171.4609,164.345 171.8091,164.2358 171.8091,164.2358 172.1648,164.1333 172.1648,164.1333 172.5276,164.0374 172.5276,164.0374 172.8973,163.9482 172.8973,163.9482 173.2738,163.8658 173.2738,163.8658 173.6567,163.7902 173.6567,163.7902 174.0458,163.7215 174.0458,163.7215 174.4408,163.6597 174.4408,163.6597 174.8416,163.6048 174.8416,163.6048 175.2479,163.557 175.2479,163.557 175.6595,163.5163 175.6595,163.5163 176.0761,163.4827 176.0761,163.4827 176.4975,163.4563 176.4975,163.4563 176.9234,163.4372 176.9234,163.4372 177.3537,163.4253 177.3537,163.4253 177.788,163.4208 177.788,163.4208"/>
    <polyline points="130.7241,205.2446 126.6092,210.2423 126.6092,210.2423 123.849,213.8853 123.849,213.8853 121.2311,217.28 121.2311,217.28 119.8606,219.4624 119.8606,219.4624 119.9366,220.163 119.9366,220.163 125.7148,218.0548 125.7148,218.0548 131.9976,215.8655 131.9976,215.8655 134.0037,215.4121 134.0037,215.4121 132.4494,219.402 132.4494,219.402 130.8958,223.744 130.8958,223.744 129.2307,228.0917 129.2307,228.0917 129.3823,229.493 129.3823,229.493 129.8347,229.711 129.8347,229.711 131.9601,228.3618 131.9601,228.3618 136.8324,224.3714 136.8324,224.3714 143.5967,218.7357"/>
    <polyline points="110.9794,211.4388 109.9736,210.4329 109.9736,210.4329 109.1912,208.6742 109.1912,208.6742 108.8155,206.932 108.8155,206.932 109.1795,205.2267 109.1795,205.2267 109.9808,202.2017 109.9808,202.2017 111.9628,199.6547 111.9628,199.6547 114.3582,197.365 114.3582,197.365 117.8243,196.2632 117.8243,196.2632 121.1198,196.7439 121.1198,196.7439 123.693,198.8293 123.693,198.8293 125.3975,200.9012 125.3975,200.9012 125.9382,203.0428 125.9382,203.0428 125.8634,205.5529 125.8634,205.5529 124.0045,208.9649 124.0045,208.9649 121.361,211.3969 121.361,211.3969 118.2609,212.5915 118.2609,212.5915 115.3842,213.0333 115.3842,213.0333 112.7187,212.5931 112.7187,212.5931 110.979,211.4388"/>
    <polyline points="103.9256,203.916 109.8572,197.6661 109.8572,197.6661 116.1929,191.0825 116.1929,191.0825 108.2279,198.7308 108.2279,198.7308 104.9909,202.6388 104.9909,202.6388 102.0376,202.0277 102.0376,202.0277 99.5492,200.2809 99.5492,200.2809 98.0914,198.3154 98.0914,198.3154 96.8088,196.9157 96.8088,196.9157 96.0568,195.6559 96.0568,195.6559 96.1206,194.3922 96.1206,194.3922 96.7444,193.4152 96.7444,193.4152 98.4447,193.515 98.4447,193.515 100.7336,194.4376 100.7336,194.4376 102.9752,195.1958 102.9752,195.1958 105.2567,196.2671 105.2567,196.2671 108.964,198.1007 108.964,198.1007 109.5579,197.7185 109.5579,197.7185 108.7408,194.4414 108.7408,194.4414 108.3647,191.6056 108.3647,191.6056 107.5127,187.5517 107.5127,187.5517 106.4967,181.0147 106.4967,181.0147 106.1698,180.565"/>
    <polyline points="104.1941,179.0823 101.4241,181.8526 101.4241,181.8526 99.2713,184.1115 99.2713,184.1115 96.6222,186.6551 96.6222,186.6551 91.4744,191.6975"/>
    <polyline points="90.5287,190.7516 87.3093,187.1807 87.3093,187.1807 84.5048,183.9854 84.5048,183.9854 81.558,181.0383 81.558,181.0383 79.7931,180.015"/>
    <polyline points="78.2461,178.3505 68.2886,168.5087 68.2886,168.5087 72.195,167.4959 72.195,167.4959 81.1365,166.2477 81.1365,166.2477 88.9614,165.1985 88.9614,165.1985 89.7281,165.1025 89.7281,165.1025 88.4368,162.8291 88.4368,162.8291 86.5572,160.8264 86.5572,160.8264 80.4535,155.4599"/>
    <polyline points="54.9917,155.7191 55.6838,156.136 55.6838,156.136 57.2618,156.063 57.2618,156.063 59.3777,155.6896 59.3777,155.6896 61.7962,154.3959 61.7962,154.3959 63.6159,153.0712 63.6159,153.0712 65.3388,151.4749 65.3388,151.4749 66.2154,149.6 66.2154,149.6 66.0189,148.0495 66.0189,148.0495 64.8199,145.8895 64.8199,145.8895 62.2795,143.043 62.2795,143.043 54.9576,136.026"/>
    <polyline points="63.987,126.7577 65.2317,125.513 65.2317,125.513 67.2989,124.4358 67.2989,124.4358 69.3021,123.8187 69.3021,123.8187 71.1815,124.0386 71.1815,124.0386 74.4979,124.6038 74.4979,124.6038 77.1445,126.552 77.1445,126.552 79.4556,128.9942 79.4556,128.9942 80.3097,132.7746 80.3097,132.7746 79.4011,136.5394 79.4011,136.5394 76.7664,139.6696 76.7664,139.6696 74.2438,141.82 74.2438,141.82 71.7724,142.6676 71.7724,142.6676 68.9547,142.8634 68.9547,142.8634 65.3205,141.1505 65.3205,141.1505 62.877,138.4446 62.877,138.4446 61.8776,135.0866 61.8776,135.0866 61.7009,131.8963 61.7009,131.8963 62.4937,128.8456 62.4937,128.8456 63.9871,126.7578"/>
    <polyline points="73.6836,117.0601 80.036,123.9374 80.036,123.9374 83.0858,126.9876 83.0858,126.9876 87.3091,130.2506 87.3091,130.2506 80.3986,124.169 80.3986,124.169 79.6045,125.7158 79.6045,125.7158 81.9174,122.4123 81.9174,122.4123 84.7667,118.9289 84.7667,118.9289 88.5844,114.7544 88.5844,114.7544 82.3462,108.5154 82.3462,108.5154 90.0835,116.3844 90.0835,116.3844 93.3577,119.0913 93.3577,119.0913 95.2419,120.3205 95.2419,120.3205 96.4053,120.6543"/>
    <polyline points="99.1467,118.2867 95.5317,109.4302 95.5317,109.4302 93.0502,103.6726 93.0502,103.6726 91.3577,99.6215 91.3577,99.6215 91.7664,99.3312 91.7664,99.3312 95.0173,99.9619 95.0173,99.9619 100.4837,101.5855 100.4837,101.5855 104.9883,103.3391 104.9883,103.3391 108.954,104.8594 108.954,104.8594 111.6864,105.4956"/>
    <polyline points="113.6473,102.7842 109.594,98.3371 109.594,98.3371 105.9957,94.6076 105.9957,94.6076 102.0547,90.6661 102.0547,90.6661 101.7902,89.7027 101.7902,89.7027 106.4238,89.6638 106.4238,89.6638 112.4228,90.1604 112.4228,90.1604 120.1825,90.7581 120.1825,90.7581 124.4765,91.2091 124.4765,91.2091 122.2288,88.8303 122.2288,88.8303 117.7333,84.3343 117.7333,84.3343 112.004,78.7351"/>
    <polyline points="127.9493,88.4804 123.8958,84.0335 123.8958,84.0335 120.2977,80.3038 120.2977,80.3038 116.3567,76.3623 116.3567,76.3623 116.0922,75.3989 116.0922,75.3989 120.7258,75.3596 120.7258,75.3596 126.7249,75.8562 126.7249,75.8562 134.4845,76.4539 134.4845,76.4539 138.7785,76.9049 138.7785,76.9049 136.531,74.526 136.531,74.526 132.0355,70.0299 132.0355,70.0299 126.306,64.431"/>
    <polyline points="138.7338,52.3584 130.0388,61.5695 130.0388,61.5695 136.8253,68.488 136.8253,68.488 145.1091,58.3415 145.1091,58.3415 136.8908,68.4225 136.8908,68.4225 142.8564,73.8211 142.8564,73.8211 152.8227,62.6057"/>
    <polyline points="154.9113,60.0219 155.8845,60.2962 155.8845,60.2962 157.2809,59.7711 157.2809,59.7711 159.1276,58.2986 159.1276,58.2986 161.3391,55.8371 161.3391,55.8371 163.5695,51.7347 163.5695,51.7347 165.0017,47.7949 165.0017,47.7949 164.9113,45.3897 164.9113,45.3897 164.3036,44.6507 164.3036,44.6507 162.7152,44.8529 162.7152,44.8529 160.4561,45.607 160.4561,45.607 156.7146,47.3683 156.7146,47.3683 153.1575,49.1829 153.1575,49.1829 149.4038,51.1941 149.4038,51.1941 147.9866,50.8687 147.9866,50.8687 147.6086,50.0978 147.6086,50.0978 147.5406,48.9379 147.5406,48.9379 147.8422,47.0121 147.8422,47.0121 149.7693,43.6983 149.7693,43.6983 151.9585,40.1225 151.9585,40.1225 154.3395,36.8696"/>
    <polyline points="104.4085,99.0467 102.5672,101.8785 102.5672,101.8785 100.5137,104.8038 100.5137,104.8038 98.3778,108.564 98.3778,108.564 96.3182,111.6142"/>
    <polyline points="99.1303,174.2641 96.3663,177.0285 96.3663,177.0285 92.9299,180.1123 92.9299,180.1123 86.3928,185.8737"/>
  </g>
</svg>
