<?xml version="1.0" encoding="utf-8" ?>
<svg xmlns="http://www.w3.org/2000/svg" xmlns:cc="http://creativecommons.org/ns#" xmlns:dc="http://purl.org/dc/elements/1.1/" xmlns:ev="http://www.w3.org/2001/xml-events" xmlns:inkscape="http://www.inkscape.org/namespaces/inkscape" xmlns:rdf="http://www.w3.org/1999/02/22-rdf-syntax-ns#" xmlns:sodipodi="http://sodipodi.sourceforge.net/DTD/sodipodi-0.dtd" xmlns:xlink="http://www.w3.org/1999/xlink" baseProfile="tiny" height="14.00000756cm" version="1.2" viewBox="0 0 1133.85888 529.134144" width="30.0000162cm">
  <metadata>
    <rdf:RDF>
      <cc:Work>
        <dc:format>image/svg+xml</dc:format>
        <dc:source>vpype read oma.svg deduplicate linesimplify linemerge linesort write oma-optim.svg
</dc:source>
        <dc:date>2021-12-26T11:22:32.726060</dc:date>
      </cc:Work>
    </rdf:RDF>
  </metadata>
  <defs/>
  <g fill="none" id="layer1" inkscape:groupmode="layer" inkscape:label="1" stroke="#00f" style="display:inline">
    <polyline points="466.8847,205.3306 433.4328,203.2347 433.4147,203.1982 452.0184,175.2449"/>
    <polyline points="441.7406,174.5753 444.7912,186.1043 444.7912,186.1043 456.6041,184.4674"/>
    <polyline points="462.3449,196.0854 453.8892,204.5164 453.8892,204.5164 461.1892,213.9346"/>
    <polyline points="453.9964,224.7423 442.4901,221.6443 442.4901,221.6443 437.9772,232.6994"/>
    <polyline points="448.2583,233.3179 433.4102,203.2687 433.3696,203.2661 414.7659,231.2193"/>
    <polyline points="410.1802,221.9969 421.9931,220.36 421.9931,220.36 425.0437,231.889"/>
    <polyline points="404.4393,210.3789 412.895,201.9479 412.895,201.9479 405.595,192.5297"/>
    <polyline points="399.8995,201.1336 433.3514,203.2296 433.374,203.1956 418.5259,173.1464"/>
    <polyline points="428.807,173.7649 424.2941,184.82 424.2941,184.82 412.7878,181.722"/>
    <polygon points="399.3485,95.5732 390.3138,84.3217 390.3138,84.3217 394.4606,70.5006 394.4606,70.5006 380.968,75.6162 380.968,75.6162 369.1047,67.4014 369.1047,67.4014 369.8005,81.8144 369.8005,81.8144 358.3218,90.5586 358.3218,90.5586 372.2444,94.3508 372.2444,94.3508 377.0135,107.9697 377.0135,107.9697 384.9224,95.9003 384.9224,95.9003"/>
    <polygon points="331.0128,252.419 317.3137,219.862 317.3137,219.862 336.3672,190.1199 336.3672,190.1199 301.1703,193.0878 301.1703,193.0878 278.7718,165.7761 278.7718,165.7761 270.7181,200.1674 270.7181,200.1674 237.8215,213.0299 237.8215,213.0299 268.0408,231.3169 268.0408,231.3169 270.1082,266.5781 270.1082,266.5781 296.8385,243.4889 296.8385,243.4889"/>
    <polygon points="438.264,326.6668 461.9052,360.8486 461.9052,360.8486 462.0427,361.0601 462.0427,361.0601 462.2465,361.3929 462.2465,361.3929 462.5166,361.847 462.5166,361.847 462.853,362.4225 462.853,362.4225 463.0341,362.7674 463.0341,362.7674 463.1948,363.1325 463.1948,363.1325 463.335,363.5178 463.335,363.5178 463.4548,363.9233 463.4548,363.9233 463.5541,364.349 463.5541,364.349 463.6329,364.7949 463.6329,364.7949 463.6913,365.2611 463.6913,365.2611 463.7188,365.6347 463.7188,365.6347 463.7265,366.0147 463.7265,366.0147 463.7143,366.4012 463.7143,366.4012 463.6822,366.794 463.6822,366.794 463.6302,367.1933 463.6302,367.1933 463.5584,367.5989 463.5584,367.5989 463.4667,368.011 463.4667,368.011 463.3551,368.4294 463.3551,368.4294 463.2237,368.8543 463.2237,368.8543 463.0938,369.1578 463.0938,369.1578 462.9393,369.4597 462.9393,369.4597 462.7603,369.76 462.7603,369.76 462.5568,370.0586 462.5568,370.0586 462.3287,370.3557 462.3287,370.3557 462.0761,370.6512 462.0761,370.6512 461.7989,370.9451 461.7989,370.9451 461.4972,371.2373 461.4972,371.2373 461.171,371.528 461.171,371.528 460.8202,371.8171 460.8202,371.8171 460.4448,372.1045 460.4448,372.1045 460.045,372.3904 460.045,372.3904 456.0502,375.1533 456.0502,375.1533 455.955,375.2191 455.955,375.2191 455.86,375.2848 455.86,375.2848 455.5686,375.5121 455.5686,375.5121 455.2658,375.7196 455.2658,375.7196 454.9518,375.907 454.9518,375.907 454.6264,376.0746 454.6264,376.0746 454.2898,376.2222 454.2898,376.2222 453.9419,376.3498 453.9419,376.3498 453.5827,376.4576 453.5827,376.4576 453.2122,376.5454 453.2122,376.5454 452.8305,376.6132 452.8305,376.6132 452.4374,376.6611 452.4374,376.6611 452.0331,376.6891 452.0331,376.6891 451.6174,376.6972 451.6174,376.6972 451.1905,376.6853 451.1905,376.6853 450.7523,376.6535 450.7523,376.6535 450.3028,376.6017 450.3028,376.6017 449.9197,376.5309 449.9197,376.5309 449.5443,376.4437 449.5443,376.4437 449.1767,376.3402 449.1767,376.3402 448.8169,376.2202 448.8169,376.2202 448.4648,376.0839 448.4648,376.0839 448.1205,375.9312 448.1205,375.9312 447.7839,375.7621 447.7839,375.7621 447.4552,375.5767 447.4552,375.5767 447.1342,375.3748 447.1342,375.3748 446.8209,375.1566 446.8209,375.1566 446.5155,374.922 446.5155,374.922 446.2177,374.671 446.2177,374.671 445.9278,374.4036 445.9278,374.4036 445.6456,374.1199 445.6456,374.1199 445.3712,373.8198 445.3712,373.8198 445.1046,373.5033 445.1046,373.5033 444.8457,373.1704 444.8457,373.1704 444.5946,372.8211 444.5946,372.8211 425.6817,345.4756 425.6817,345.4756 425.453,345.1242 425.453,345.1242 425.2437,344.7594 425.2437,344.7594 425.0539,344.3811 425.0539,344.3811 424.8834,343.9894 424.8834,343.9894 424.7324,343.5843 424.7324,343.5843 424.6007,343.1658 424.6007,343.1658 424.4885,342.7338 424.4885,342.7338 424.4303,342.3352 424.4303,342.3352 424.3875,341.9398 424.3875,341.9398 424.3602,341.5477 424.3602,341.5477 424.3483,341.1588 424.3483,341.1588 424.3518,340.7732 424.3518,340.7732 424.3708,340.3908 424.3708,340.3908 424.4052,340.0117 424.4052,340.0117 424.455,339.6359 424.455,339.6359 424.5263,339.2243 424.5263,339.2243 424.6122,338.8212 424.6122,338.8212 424.7127,338.4265 424.7127,338.4265 424.8279,338.0403 424.8279,338.0403 424.9577,337.6626 424.9577,337.6626 425.1022,337.2933 425.1022,337.2933 425.2612,336.9325 425.2612,336.9325 425.435,336.5801 425.435,336.5801 425.6315,336.2003 425.6315,336.2003 425.8462,335.8405 425.8462,335.8405 426.0791,335.5006 426.0791,335.5006 426.3302,335.1807 426.3302,335.1807 426.5994,334.8807 426.5994,334.8807 426.8869,334.6006 426.8869,334.6006 427.1925,334.3404 427.1925,334.3404 427.5163,334.1002 427.5163,334.1002"/>
    <polygon points="477.5457,360.2864 477.5454,360.2868 477.5454,360.2868 477.169,360.535 477.169,360.535 476.8007,360.7534 476.8007,360.7534 476.4404,360.9419 476.4404,360.9419 476.0881,361.1006 476.0881,361.1006 475.7439,361.2295 475.7439,361.2295 475.4078,361.3285 475.4078,361.3285 475.0797,361.3977 475.0797,361.3977 474.9845,361.4635 474.9845,361.4635 474.9149,361.3629 474.9149,361.3629 474.5708,361.4534 474.5708,361.4534 474.2183,361.5252 474.2183,361.5252 473.8576,361.5782 473.8576,361.5782 473.4884,361.6124 473.4884,361.6124 473.111,361.6278 473.111,361.6278 472.7251,361.6244 472.7251,361.6244 472.331,361.6023 472.331,361.6023 471.9284,361.5613 471.9284,361.5613 471.5176,361.5015 471.5176,361.5015 471.0984,361.423 471.0984,361.423 470.6708,361.3256 470.6708,361.3256 470.3558,361.237 470.3558,361.237 470.0439,361.1277 470.0439,361.1277 469.7353,360.9977 469.7353,360.9977 469.4298,360.847 469.4298,360.847 469.1275,360.6755 469.1275,360.6755 468.8284,360.4834 468.8284,360.4834 468.5325,360.2706 468.5325,360.2706 468.2398,360.0371 468.2398,360.0371 467.9502,359.7829 467.9502,359.7829 467.6639,359.508 467.6639,359.508 467.3807,359.2124 467.3807,359.2124 467.1007,358.8961 467.1007,358.8961 466.8239,358.5591 466.8239,358.5591 466.5502,358.2014 466.5502,358.2014 466.2798,357.8231 466.2798,357.8231 441.0395,321.329 441.0395,321.329 440.7459,320.9614 440.7459,320.9614 440.4213,320.6628 440.4213,320.6628 440.0656,320.4331 440.0656,320.4331 439.6789,320.2725 439.6789,320.2725 439.2612,320.1809 439.2612,320.1809 438.8121,320.117 438.8121,320.117 438.3867,320.12 438.3867,320.12 437.985,320.1897 437.985,320.1897 437.607,320.3263 437.607,320.3263 437.2527,320.5297 437.2527,320.5297 424.3174,329.4761 424.3174,329.4761 424.16,329.5971 424.16,329.5971 423.9596,329.7721 423.9596,329.7721 423.7163,330.0011 423.7163,330.0011 423.4299,330.2841 423.4299,330.2841 423.1005,330.621 423.1005,330.621 422.7282,331.012 422.7282,331.012 422.3128,331.457 422.3128,331.457 422.0653,331.7118 422.0653,331.7118 421.8238,331.981 421.8238,331.981 421.5883,332.2647 421.5883,332.2647 421.3589,332.5626 421.3589,332.5626 421.1356,332.875 421.1356,332.875 420.9183,333.2018 420.9183,333.2018 420.707,333.543 420.707,333.543 420.5018,333.8986 420.5018,333.8986 420.3027,334.2685 420.3027,334.2685 420.1096,334.6529 420.1096,334.6529 419.9225,335.0516 419.9225,335.0516 419.7415,335.4648 419.7415,335.4648 419.5953,335.7919 419.5953,335.7919 419.4598,336.1273 419.4598,336.1273 419.3351,336.4711 419.3351,336.4711 419.2213,336.8234 419.2213,336.8234 419.1182,337.184 419.1182,337.184 419.026,337.553 419.026,337.553 418.9445,337.9303 418.9445,337.9303 418.8738,338.3161 418.8738,338.3161 418.814,338.7102 418.814,338.7102 418.7649,339.1128 418.7649,339.1128 418.7266,339.5237 418.7266,339.5237 418.6992,339.943 418.6992,339.943 418.6825,340.3706 418.6825,340.3706 418.6766,340.8067 418.6766,340.8067 418.6816,341.2512 418.6816,341.2512 418.6891,341.5792 418.6891,341.5792 418.7102,341.9106 418.7102,341.9106 418.7448,342.2452 418.7448,342.2452 418.7929,342.5831 418.7929,342.5831 418.8545,342.9243 418.8545,342.9243 418.9297,343.2688 418.9297,343.2688 419.0183,343.6166 419.0183,343.6166 419.1205,343.9676 419.1205,343.9676 419.2362,344.322 419.2362,344.322 419.3654,344.6796 419.3654,344.6796 419.5082,345.0405 419.5082,345.0405 419.6644,345.4047 419.6644,345.4047 419.8342,345.7721 419.8342,345.7721 420.0175,346.1429 420.0175,346.1429 420.2143,346.5169 420.2143,346.5169 420.4247,346.8942 420.4247,346.8942 420.6485,347.2748 420.6485,347.2748 420.8859,347.6587 420.8859,347.6587 421.1368,348.0459 421.1368,348.0459 421.4012,348.4363 421.4012,348.4363 440.3141,375.7818 440.3141,375.7818 440.5731,376.1394 440.5731,376.1394 440.8403,376.4748 440.8403,376.4748 441.1156,376.7881 441.1156,376.7881 441.399,377.0793 441.399,377.0793 441.6905,377.3483 441.6905,377.3483 441.9902,377.5951 441.9902,377.5951 442.3433,377.886 442.3433,377.886 442.6735,378.1927 442.6735,378.1927 442.9809,378.5151 442.9809,378.5151 443.2655,378.8533 443.2655,378.8533 443.5272,379.2074 443.5272,379.2074 443.6918,379.2418 443.6918,379.2418 444.0254,379.5 444.0254,379.5 444.3595,379.7445 444.3595,379.7445 444.6942,379.9754 444.6942,379.9754 445.0294,380.1927 445.0294,380.1927 445.3653,380.3964 445.3653,380.3964 445.7017,380.5865 445.7017,380.5865 446.0387,380.763 446.0387,380.763 446.3763,380.9258 446.3763,380.9258 446.7145,381.075 446.7145,381.075 447.0533,381.2106 447.0533,381.2106 447.3926,381.3326 447.3926,381.3326 447.7326,381.441 447.7326,381.441 448.0731,381.5358 448.0731,381.5358 448.4142,381.6169 448.4142,381.6169 448.7559,381.6845 448.7559,381.6845 449.0912,381.7301 449.0912,381.7301 449.4321,381.7695 449.4321,381.7695 449.7785,381.8027 449.7785,381.8027 450.1306,381.8298 450.1306,381.8298 450.4883,381.8506 450.4883,381.8506 450.8516,381.8652 450.8516,381.8652 451.2205,381.8737 451.2205,381.8737 451.595,381.8759 451.595,381.8759 451.9751,381.872 451.9751,381.872 452.3608,381.8618 452.3608,381.8618 452.7521,381.8455 452.7521,381.8455 453.149,381.8229 453.149,381.8229 453.5515,381.7942 453.5515,381.7942 453.9596,381.7593 453.9596,381.7593 454.3733,381.7181 454.3733,381.7181 454.7926,381.6708 454.7926,381.6708 454.8878,381.6049 454.8878,381.6049 455.2106,381.5479 455.2106,381.5479 455.5412,381.471 455.5412,381.471 455.8795,381.3742 455.8795,381.3742 456.2256,381.2577 456.2256,381.2577 456.5795,381.1213 456.5795,381.1213 456.9412,380.9651 456.9412,380.9651 457.3106,380.7891 457.3106,380.7891 457.6878,380.5932 457.6878,380.5932 458.0727,380.3776 458.0727,380.3776 458.4654,380.1421 458.4654,380.1421 458.8659,379.8868 458.8659,379.8868 459.2742,379.6116 459.2742,379.6116 463.1738,376.9145 463.1738,376.9145 463.502,376.6806 463.502,376.6806 463.8206,376.4393 463.8206,376.4393 464.1298,376.1907 464.1298,376.1907 464.4295,375.9346 464.4295,375.9346 464.7197,375.6712 464.7197,375.6712 465.0004,375.4005 465.0004,375.4005 465.2716,375.1223 465.2716,375.1223 465.5333,374.8368 465.5333,374.8368 465.7855,374.5439 465.7855,374.5439 466.0282,374.2437 466.0282,374.2437 466.2615,373.9361 466.2615,373.9361 466.4852,373.6211 466.4852,373.6211 466.6995,373.2987 466.6995,373.2987 466.9042,372.969 466.9042,372.969 467.0995,372.6319 467.0995,372.6319 467.2853,372.2875 467.2853,372.2875 467.4613,371.9376 467.4613,371.9376 467.6272,371.5842 467.6272,371.5842 467.783,371.2274 467.783,371.2274 467.9287,370.8671 467.9287,370.8671 468.0644,370.5033 468.0644,370.5033 468.1899,370.1361 468.1899,370.1361 468.3054,369.7653 468.3054,369.7653 468.4107,369.3912 468.4107,369.3912 468.506,369.0135 468.506,369.0135 468.5912,368.6324 468.5912,368.6324 468.6662,368.2478 468.6662,368.2478 468.7312,367.8597 468.7312,367.8597 468.7862,367.4682 468.7862,367.4682 468.831,367.0731 468.831,367.0731 468.8657,366.6747 468.8657,366.6747 468.8903,366.2727 468.8903,366.2727 469.2575,366.4275 469.2575,366.4275 469.6272,366.5656 469.6272,366.5656 469.9995,366.6871 469.9995,366.6871 470.3744,366.792 470.3744,366.792 470.7518,366.8803 470.7518,366.8803 471.1317,366.9519 471.1317,366.9519 471.5143,367.0069 471.5143,367.0069 471.8993,367.0452 471.8993,367.0452 472.287,367.0669 472.287,367.0669 472.6772,367.072 472.6772,367.072 473.0958,367.0448 473.0958,367.0448 473.5128,367.0152 473.5128,367.0152 473.928,366.9831 473.928,366.9831 474.3415,366.9484 474.3415,366.9484 474.7533,366.9113 474.7533,366.9113 475.1634,366.8718 475.1634,366.8718 475.5718,366.8297 475.5718,366.8297 475.9784,366.7851 475.9784,366.7851 476.3833,366.7381 476.3833,366.7381 476.4786,366.6722 476.4786,366.6722 476.8582,366.5759 476.8582,366.5759 477.2323,366.4688 477.2323,366.4688 477.601,366.3511 477.601,366.3511 477.9643,366.2227 477.9643,366.2227 478.3221,366.0835 478.3221,366.0835 478.6745,365.9337 478.6745,365.9337 479.0215,365.7733 479.0215,365.7733 479.363,365.6021 479.363,365.6021 479.6991,365.4202 479.6991,365.4202 480.0297,365.2277 480.0297,365.2277 480.3549,365.0244 480.3549,365.0244 480.6747,364.8105 480.6747,364.8105 480.989,364.5574 480.989,364.5574 481.2471,364.2719 481.2471,364.2719 481.449,363.9539 481.449,363.9539 481.5947,363.6035 481.5947,363.6035 481.6842,363.2205 481.6842,363.2205 481.7196,362.8369 481.7196,362.8369 481.7064,362.462 481.7064,362.462 481.6447,362.096 481.6447,362.096 481.5343,361.7388 481.5343,361.7388 481.3754,361.3905 481.3754,361.3905 481.1679,361.051 481.1679,361.051 480.8993,360.7195 480.8993,360.7195 480.5941,360.449 480.5941,360.449 480.2524,360.2395 480.2524,360.2395 479.874,360.091 479.874,360.091 479.4591,360.0034 479.4591,360.0034 479.0442,359.9158 479.0442,359.9158 478.6454,359.9004 478.6454,359.9004 478.2627,359.957 478.2627,359.957 477.8962,360.0856 477.8962,360.0856"/>
    <polygon points="437.9172,390.8157 437.9171,390.8157 437.9171,390.8157 412.6768,354.3215 412.6768,354.3215 412.4362,353.9834 412.4362,353.9834 412.1887,353.6552 412.1887,353.6552 411.9345,353.3368 411.9345,353.3368 411.6734,353.0283 411.6734,353.0283 411.4055,352.7297 411.4055,352.7297 411.1309,352.4408 411.1309,352.4408 410.8494,352.1619 410.8494,352.1619 410.5611,351.8928 410.5611,351.8928 410.266,351.6335 410.266,351.6335 409.964,351.3841 409.964,351.3841 409.6553,351.1445 409.6553,351.1445 409.3398,350.9148 409.3398,350.9148 409.0174,350.695 409.0174,350.695 408.6883,350.485 408.6883,350.485 408.3523,350.2849 408.3523,350.2849 408.0096,350.0946 408.0096,350.0946 407.66,349.9141 407.66,349.9141 407.3089,349.7244 407.3089,349.7244 406.9555,349.5456 406.9555,349.5456 406.5999,349.3775 406.5999,349.3775 406.2421,349.2203 406.2421,349.2203 405.882,349.0739 405.882,349.0739 405.5196,348.9383 405.5196,348.9383 405.155,348.8135 405.155,348.8135 404.7881,348.6995 404.7881,348.6995 404.419,348.5963 404.419,348.5963 404.0477,348.504 404.0477,348.504 403.6741,348.4225 403.6741,348.4225 403.2982,348.3517 403.2982,348.3517 402.9201,348.2918 402.9201,348.2918 402.5397,348.2427 402.5397,348.2427 402.1571,348.2045 402.1571,348.2045 401.7722,348.177 401.7722,348.177 401.3851,348.1603 401.3851,348.1603 400.9722,348.1561 400.9722,348.1561 400.5635,348.1638 400.5635,348.1638 400.1589,348.1836 400.1589,348.1836 399.7583,348.2154 399.7583,348.2154 399.3619,348.2592 399.3619,348.2592 398.9695,348.315 398.9695,348.315 398.5813,348.3829 398.5813,348.3829 398.1971,348.4628 398.1971,348.4628 397.8171,348.5547 397.8171,348.5547 397.4412,348.6587 397.4412,348.6587 397.0693,348.7747 397.0693,348.7747 396.7016,348.9027 396.7016,348.9027 396.3379,349.0427 396.3379,349.0427 395.9784,349.1948 395.9784,349.1948 395.6229,349.3589 395.6229,349.3589 395.2716,349.535 395.2716,349.535 394.9243,349.7231 394.9243,349.7231 394.5812,349.9233 394.5812,349.9233 394.2422,350.1355 394.2422,350.1355 393.9072,350.3597 393.9072,350.3597 393.8349,350.4097 393.8349,350.4097 393.6181,350.5597 393.6181,350.5597 393.2566,350.8097 393.2566,350.8097 392.7506,351.1596 392.7506,351.1596 392.1001,351.6096 392.1001,351.6096 391.8371,351.7915 391.8371,351.7915 391.5643,351.9801 391.5643,351.9801 391.2819,352.1755 391.2819,352.1755 390.9898,352.3775 390.9898,352.3775 390.6879,352.5863 390.6879,352.5863 390.3764,352.8017 390.3764,352.8017 390.0551,353.0239 390.0551,353.0239 389.7242,353.2528 389.7242,353.2528 389.3835,353.4884 389.3835,353.4884 389.0332,353.7308 389.0332,353.7308 388.6731,353.9798 388.6731,353.9798 388.3033,354.2355 388.3033,354.2355 387.9238,354.498 387.9238,354.498 387.5346,354.7672 387.5346,354.7672 387.237,354.973 387.237,354.973 386.9358,355.1814 386.9358,355.1814 386.6311,355.3921 386.6311,355.3921 386.3228,355.6053 386.3228,355.6053 386.0111,355.8209 386.0111,355.8209 385.6958,356.039 385.6958,356.039 385.377,356.2594 385.377,356.2594 385.0547,356.4824 385.0547,356.4824 384.7288,356.7077 384.7288,356.7077 384.3995,356.9355 384.3995,356.9355 384.0666,357.1658 384.0666,357.1658 383.7301,357.3985 383.7301,357.3985 383.3902,357.6336 383.3902,357.6336 383.0467,357.8711 383.0467,357.8711 382.6998,358.1111 382.6998,358.1111 382.3492,358.3535 382.3492,358.3535 381.9952,358.5984 381.9952,358.5984 381.6377,358.8457 381.6377,358.8457 381.3081,359.0736 381.3081,359.0736 380.98,359.3005 380.98,359.3005 380.6536,359.5263 380.6536,359.5263 380.3287,359.751 380.3287,359.751 380.0055,359.9745 380.0055,359.9745 379.6838,360.197 379.6838,360.197 379.3636,360.4184 379.3636,360.4184 379.0451,360.6387 379.0451,360.6387 378.7282,360.858 378.7282,360.858 378.4128,361.0761 378.4128,361.0761 378.099,361.2931 378.099,361.2931 377.7868,361.509 377.7868,361.509 377.4761,361.7239 377.4761,361.7239 377.1671,361.9376 377.1671,361.9376 376.8596,362.1503 376.8596,362.1503 376.5537,362.3618 376.5537,362.3618 376.2494,362.5723 376.2494,362.5723 375.9467,362.7817 375.9467,362.7817 375.6456,362.99 375.6456,362.99 375.2685,363.2508 375.2685,363.2508 374.8982,363.5069 374.8982,363.5069 374.5347,363.7583 374.5347,363.7583 374.1779,364.0051 374.1779,364.0051 373.8279,364.2471 373.8279,364.2471 373.4846,364.4845 373.4846,364.4845 373.1481,364.7173 373.1481,364.7173 372.8184,364.9453 372.8184,364.9453 372.4954,365.1687 372.4954,365.1687 372.1792,365.3874 372.1792,365.3874 371.8698,365.6014 371.8698,365.6014 371.5671,365.8107 371.5671,365.8107 371.2712,366.0154 371.2712,366.0154 370.9821,366.2154 370.9821,366.2154 370.6997,366.4107 370.6997,366.4107 370.1368,366.8 370.1368,366.8 369.6437,367.141 369.6437,367.141 369.2206,367.4336 369.2206,367.4336 368.8673,367.678 368.8673,367.678 368.5839,367.874 368.5839,367.874 368.3704,368.0217 368.3704,368.0217 368.2268,368.121 368.2268,368.121 368.0366,368.2525 368.0366,368.2525 367.687,368.5359 367.687,368.5359 367.3992,368.8598 367.3992,368.8598 367.1732,369.2242 367.1732,369.2242 367.0089,369.6292 367.0089,369.6292 366.9064,370.0746 366.9064,370.0746 366.8789,370.4741 366.8789,370.4741 366.9194,370.8741 366.9194,370.8741 367.0278,371.2748 367.0278,371.2748 367.2041,371.676 367.2041,371.676 367.4482,372.0778 367.4482,372.0778 399.0161,417.7207 399.0161,417.7207 399.3087,418.095 399.3087,418.095 399.6302,418.4136 399.6302,418.4136 399.9808,418.6765 399.9808,418.6765 400.3603,418.8836 400.3603,418.8836 400.7688,419.0351 400.7688,419.0351 401.1967,419.0602 401.1967,419.0602 401.6141,419.0212 401.6141,419.0212 402.0209,418.9182 402.0209,418.9182 402.4172,418.7511 402.4172,418.7511 402.8029,418.52 402.8029,418.52 403.1172,418.267 403.1172,418.267 403.3753,417.9815 403.3753,417.9815 403.5772,417.6635 403.5772,417.6635 403.7229,417.313 403.7229,417.313 403.8124,416.9301 403.8124,416.9301 403.8478,416.5464 403.8478,416.5464 403.8346,416.1716 403.8346,416.1716 403.7729,415.8056 403.7729,415.8056 403.6625,415.4484 403.6625,415.4484 403.5036,415.1 403.5036,415.1 403.2961,414.7605 403.2961,414.7605 373.258,371.3294 373.258,371.3294 386.2885,362.3172 386.2885,362.3172 416.3266,405.7483 416.3266,405.7483 416.6192,406.1226 416.6192,406.1226 416.9408,406.4412 416.9408,406.4412 417.2913,406.7041 417.2913,406.7041 417.6708,406.9112 417.6708,406.9112 418.0793,407.0627 418.0793,407.0627 418.5034,407.0904 418.5034,407.0904 418.9094,407.0593 418.9094,407.0593 419.2972,406.9695 419.2972,406.9695 419.6668,406.8208 419.6668,406.8208 420.0183,406.6134 420.0183,406.6134 420.3668,406.3367 420.3668,406.3367 420.6516,406.0327 420.6516,406.0327 420.8725,405.7016 420.8725,405.7016 421.0296,405.3432 421.0296,405.3432 421.1229,404.9577 421.1229,404.9577 421.1583,404.574 421.1583,404.574 421.1451,404.1992 421.1451,404.1992 421.0834,403.8332 421.0834,403.8332 420.973,403.476 420.973,403.476 420.8141,403.1276 420.8141,403.1276 420.6066,402.7881 420.6066,402.7881 390.5685,359.357 390.5685,359.357 397.0362,354.8838 397.0362,354.8838 397.3729,354.6633 397.3729,354.6633 397.7173,354.4623 397.7173,354.4623 398.0692,354.2808 398.0692,354.2808 398.4288,354.1188 398.4288,354.1188 398.796,353.9763 398.796,353.9763 399.1708,353.8533 399.1708,353.8533 399.5533,353.7498 399.5533,353.7498 399.9434,353.6658 399.9434,353.6658 400.3411,353.6013 400.3411,353.6013 400.7464,353.5562 400.7464,353.5562 401.1594,353.5307 401.1594,353.5307 401.58,353.5247 401.58,353.5247 401.9593,353.5657 401.9593,353.5657 402.335,353.6216 402.335,353.6216 402.7069,353.6923 402.7069,353.6923 403.0752,353.7778 403.0752,353.7778 403.4398,353.8782 403.4398,353.8782 403.8007,353.9934 403.8007,353.9934 404.1579,354.1235 404.1579,354.1235 404.5114,354.2683 404.5114,354.2683 404.8612,354.428 404.8612,354.428 405.2074,354.6026 405.2074,354.6026 405.5498,354.7919 405.5498,354.7919 405.903,354.9935 405.903,354.9935 406.241,355.2057 406.241,355.2057 406.5637,355.4283 406.5637,355.4283 406.8712,355.6615 406.8712,355.6615 407.1635,355.9052 407.1635,355.9052 407.4406,356.1595 407.4406,356.1595 407.7025,356.4243 407.7025,356.4243 407.9491,356.6995 407.9491,356.6995 408.1805,356.9854 408.1805,356.9854 408.3967,357.2817 408.3967,357.2817 433.6371,393.7759 433.6371,393.7759 433.9297,394.1502 433.9297,394.1502 434.2513,394.4688 434.2513,394.4688 434.6018,394.7317 434.6018,394.7317 434.9813,394.9388 434.9813,394.9388 435.3898,395.0903 435.3898,395.0903 435.8139,395.118 435.8139,395.118 436.2199,395.0869 436.2199,395.0869 436.6077,394.9971 436.6077,394.9971 436.9773,394.8484 436.9773,394.8484 437.3288,394.641 437.3288,394.641 437.6774,394.3643 437.6774,394.3643 437.9621,394.0603 437.9621,394.0603 438.183,393.7292 438.183,393.7292 438.3401,393.3708 438.3401,393.3708 438.4334,392.9853 438.4334,392.9853 438.4688,392.6016 438.4688,392.6016 438.4556,392.2268 438.4556,392.2268 438.3939,391.8608 438.3939,391.8608 438.2836,391.5036 438.2836,391.5036 438.1247,391.1552 438.1247,391.1552"/>
    <polygon points="376.8371,436.4787 376.8371,436.4787 376.8371,436.4787 377.1543,436.2543 377.1543,436.2543 377.4654,436.0243 377.4654,436.0243 377.7703,435.7888 377.7703,435.7888 378.069,435.5476 378.069,435.5476 378.3614,435.3009 378.3614,435.3009 378.6477,435.0486 378.6477,435.0486 378.9277,434.7906 378.9277,434.7906 379.2016,434.5271 379.2016,434.5271 379.4692,434.258 379.4692,434.258 379.7307,433.9833 379.7307,433.9833 379.9859,433.703 379.9859,433.703 380.235,433.4172 380.235,433.4172 380.4778,433.1257 380.4778,433.1257 380.7145,432.8287 380.7145,432.8287 380.9449,432.526 380.9449,432.526 381.1691,432.2178 381.1691,432.2178 381.3871,431.904 381.3871,431.904 381.599,431.5845 381.599,431.5845 381.8046,431.2595 381.8046,431.2595 382.0065,430.9015 382.0065,430.9015 382.2004,430.5417 382.2004,430.5417 382.3861,430.1803 382.3861,430.1803 382.5637,429.8171 382.5637,429.8171 382.7331,429.4522 382.7331,429.4522 382.8945,429.0855 382.8945,429.0855 383.0476,428.7172 383.0476,428.7172 383.1927,428.3471 383.1927,428.3471 383.3296,427.9754 383.3296,427.9754 383.4584,427.6019 383.4584,427.6019 383.5791,427.2267 383.5791,427.2267 383.6916,426.8498 383.6916,426.8498 383.796,426.4711 383.796,426.4711 383.8923,426.0908 383.8923,426.0908 383.9804,425.7087 383.9804,425.7087 384.0605,425.3249 384.0605,425.3249 384.1323,424.9394 384.1323,424.9394 384.1961,424.5522 384.1961,424.5522 384.2518,424.167 384.2518,424.167 384.3005,423.7818 384.3005,423.7818 384.3421,423.3965 384.3421,423.3965 384.3766,423.0111 384.3766,423.0111 384.4041,422.6257 384.4041,422.6257 384.4245,422.2402 384.4245,422.2402 384.4379,421.8546 384.4379,421.8546 384.4443,421.469 384.4443,421.469 384.4436,421.0833 384.4436,421.0833 384.4358,420.6976 384.4358,420.6976 384.421,420.3118 384.421,420.3118 384.3991,419.9259 384.3991,419.9259 384.3701,419.54 384.3701,419.54 384.3342,419.154 384.3342,419.154 384.2911,418.7679 384.2911,418.7679 384.241,418.3818 384.241,418.3818 384.1839,417.9956 384.1839,417.9956 384.1197,417.6094 384.1197,417.6094 384.0484,417.2231 384.0484,417.2231 383.9666,416.8472 383.9666,416.8472 383.8773,416.4735 383.8773,416.4735 383.7803,416.1021 383.7803,416.1021 383.6758,415.7329 383.6758,415.7329 383.5638,415.3661 383.5638,415.3661 383.4441,415.0015 383.4441,415.0015 383.3169,414.6391 383.3169,414.6391 383.1821,414.279 383.1821,414.279 383.0397,413.9212 383.0397,413.9212 382.8898,413.5657 382.8898,413.5657 382.7323,413.2124 382.7323,413.2124 382.5672,412.8614 382.5672,412.8614 382.3945,412.5126 382.3945,412.5126 382.2143,412.1661 382.2143,412.1661 382.0265,411.8219 382.0265,411.8219 381.8311,411.4799 381.8311,411.4799 381.6281,411.1402 381.6281,411.1402 381.4176,410.8028 381.4176,410.8028 381.1995,410.4677 381.1995,410.4677 380.9738,410.1348 380.9738,410.1348 380.9043,410.0342 380.9043,410.0342 380.8348,409.9337 380.8348,409.9337 358.7929,378.0641 358.7929,378.0641 358.5612,377.7357 358.5612,377.7357 358.3251,377.4141 358.3251,377.4141 358.0846,377.0993 358.0846,377.0993 357.8395,376.7913 357.8395,376.7913 357.5901,376.4901 357.5901,376.4901 357.3362,376.1957 357.3362,376.1957 357.0778,375.9081 357.0778,375.9081 356.8151,375.6272 356.8151,375.6272 356.5478,375.3532 356.5478,375.3532 356.2761,375.0859 356.2761,375.0859 356.0,374.8254 356.0,374.8254 355.7195,374.5717 355.7195,374.5717 355.4345,374.3248 355.4345,374.3248 355.145,374.0847 355.145,374.0847 354.8511,373.8514 354.8511,373.8514 354.5528,373.6249 354.5528,373.6249 354.25,373.4051 354.25,373.4051 353.9428,373.1922 353.9428,373.1922 353.6311,372.986 353.6311,372.986 353.315,372.7866 353.315,372.7866 352.9817,372.5667 352.9817,372.5667 352.6469,372.3545 352.6469,372.3545 352.3103,372.15 352.3103,372.15 351.9721,371.9533 351.9721,371.9533 351.6322,371.7643 351.6322,371.7643 351.2907,371.583 351.2907,371.583 350.9475,371.4095 350.9475,371.4095 350.6026,371.2437 350.6026,371.2437 350.2561,371.0857 350.2561,371.0857 349.9079,370.9354 349.9079,370.9354 349.5581,370.7928 349.5581,370.7928 349.2066,370.658 349.2066,370.658 348.8534,370.5309 348.8534,370.5309 348.4986,370.4115 348.4986,370.4115 348.1421,370.2999 348.1421,370.2999 347.784,370.196 347.784,370.196 347.4242,370.0998 347.4242,370.0998 347.0627,370.0114 347.0627,370.0114 346.6996,369.9307 346.6996,369.9307 346.3075,369.8432 346.3075,369.8432 345.915,369.7651 345.915,369.7651 345.5221,369.6965 345.5221,369.6965 345.1288,369.6373 345.1288,369.6373 344.7351,369.5876 344.7351,369.5876 344.3409,369.5473 344.3409,369.5473 343.9464,369.5165 343.9464,369.5165 343.5515,369.4952 343.5515,369.4952 343.1561,369.4833 343.1561,369.4833 342.7604,369.4808 342.7604,369.4808 342.3642,369.4878 342.3642,369.4878 341.9677,369.5043 341.9677,369.5043 341.5707,369.5302 341.5707,369.5302 341.1734,369.5656 341.1734,369.5656 340.7756,369.6104 340.7756,369.6104 340.3774,369.6647 340.3774,369.6647 339.9789,369.7284 339.9789,369.7284 339.5799,369.8016 339.5799,369.8016 339.2056,369.862 339.2056,369.862 338.8339,369.9305 338.8339,369.9305 338.4647,370.0072 338.4647,370.0072 338.0981,370.092 338.0981,370.092 337.7339,370.1849 337.7339,370.1849 337.3723,370.286 337.3723,370.286 337.0131,370.3953 337.0131,370.3953 336.6565,370.5126 336.6565,370.5126 336.3024,370.6382 336.3024,370.6382 335.9508,370.7718 335.9508,370.7718 335.6017,370.9136 335.6017,370.9136 335.2552,371.0635 335.2552,371.0635 334.9111,371.2216 334.9111,371.2216 334.5696,371.3878 334.5696,371.3878 334.2306,371.5622 334.2306,371.5622 333.8941,371.7447 333.8941,371.7447 333.5601,371.9354 333.5601,371.9354 333.2286,372.1341 333.2286,372.1341 332.8997,372.3411 332.8997,372.3411 332.5724,372.5724 332.5724,372.5724 332.2513,372.8093 332.2513,372.8093 331.9364,373.0518 331.9364,373.0518 331.6277,373.2998 331.6277,373.2998 331.3253,373.5535 331.3253,373.5535 331.029,373.8127 331.029,373.8127 330.7389,374.0776 330.7389,374.0776 330.455,374.348 330.455,374.348 330.1774,374.6241 330.1774,374.6241 329.9059,374.9057 329.9059,374.9057 329.6407,375.1929 329.6407,375.1929 329.3816,375.4857 329.3816,375.4857 329.1288,375.7841 329.1288,375.7841 328.8821,376.088 328.8821,376.088 328.6417,376.3976 328.6417,376.3976 328.4075,376.7128 328.4075,376.7128 328.1794,377.0335 328.1794,377.0335 327.9576,377.3599 327.9576,377.3599 327.742,377.6918 327.742,377.6918 327.5432,378.0211 327.5432,378.0211 327.352,378.3534 327.352,378.3534 327.1684,378.6888 327.1684,378.6888 326.9922,379.0271 326.9922,379.0271 326.8237,379.3685 326.8237,379.3685 326.6626,379.7129 326.6626,379.7129 326.5091,380.0604 326.5091,380.0604 326.3632,380.4108 326.3632,380.4108 326.2247,380.7643 326.2247,380.7643 326.0939,381.1207 326.0939,381.1207 325.9705,381.4802 325.9705,381.4802 325.8547,381.8427 325.8547,381.8427 325.7465,382.2083 325.7465,382.2083 325.6458,382.5768 325.6458,382.5768 325.5526,382.9484 325.5526,382.9484 325.467,383.323 325.467,383.323 325.3889,383.7006 325.3889,383.7006 325.3183,384.0812 325.3183,384.0812 325.2553,384.4649 325.2553,384.4649 325.1927,384.84 325.1927,384.84 325.1379,385.2164 325.1379,385.2164 325.0909,385.5939 325.0909,385.5939 325.0517,385.9726 325.0517,385.9726 325.0203,386.3524 325.0203,386.3524 324.9968,386.7335 324.9968,386.7335 324.9811,387.1157 324.9811,387.1157 324.9732,387.4991 324.9732,387.4991 324.9732,387.8837 324.9732,387.8837 324.981,388.2694 324.981,388.2694 324.9966,388.6563 324.9966,388.6563 325.02,389.0444 325.02,389.0444 325.0512,389.4337 325.0512,389.4337 325.0903,389.8241 325.0903,389.8241 325.1372,390.2158 325.1372,390.2158 325.1919,390.6086 325.1919,390.6086 325.2544,391.0026 325.2544,391.0026 325.3248,391.3977 325.3248,391.3977 325.403,391.794 325.403,391.794 325.4849,392.1702 325.4849,392.1702 325.5748,392.5446 325.5748,392.5446 325.6726,392.9173 325.6726,392.9173 325.7783,393.2882 325.7783,393.2882 325.892,393.6573 325.892,393.6573 326.0135,394.0247 326.0135,394.0247 326.143,394.3903 326.143,394.3903 326.2804,394.7542 326.2804,394.7542 326.4258,395.1163 326.4258,395.1163 326.579,395.4766 326.579,395.4766 326.7402,395.8352 326.7402,395.8352 326.9093,396.192 326.9093,396.192 327.0863,396.547 327.0863,396.547 327.2712,396.9003 327.2712,396.9003 327.464,397.2518 327.464,397.2518 327.6648,397.6015 327.6648,397.6015 327.8735,397.9495 327.8735,397.9495 328.0901,398.2957 328.0901,398.2957 328.3146,398.6402 328.3146,398.6402 328.5471,398.9829 328.5471,398.9829 350.5194,430.752 350.5194,430.752 350.7512,431.081 350.7512,431.081 350.9876,431.4046 350.9876,431.4046 351.2288,431.7227 351.2288,431.7227 351.4745,432.0354 351.4745,432.0354 351.725,432.3426 351.725,432.3426 351.9801,432.6444 351.9801,432.6444 352.2399,432.9407 352.2399,432.9407 352.5043,433.2315 352.5043,433.2315 352.7734,433.5169 352.7734,433.5169 353.0472,433.7969 353.0472,433.7969 353.3256,434.0713 353.3256,434.0713 353.6087,434.3404 353.6087,434.3404 353.8964,434.604 353.8964,434.604 354.1889,434.8621 354.1889,434.8621 354.4859,435.1147 354.4859,435.1147 354.7877,435.362 354.7877,435.362 355.0941,435.6037 355.0941,435.6037 355.4052,435.84 355.4052,435.84 355.7209,436.0709 355.7209,436.0709 356.0413,436.2963 356.0413,436.2963 356.3845,436.5097 356.3845,436.5097 356.7292,436.7164 356.7292,436.7164 357.0754,436.9162 357.0754,436.9162 357.4231,437.1093 357.4231,437.1093 357.7724,437.2955 357.7724,437.2955 358.1231,437.4749 358.1231,437.4749 358.4754,437.6475 358.4754,437.6475 358.8292,437.8132 358.8292,437.8132 359.1845,437.9722 359.1845,437.9722 359.5414,438.1243 359.5414,438.1243 359.8997,438.2696 359.8997,438.2696 360.2596,438.4082 360.2596,438.4082 360.621,438.5399 360.621,438.5399 360.9839,438.6647 360.9839,438.6647 361.3484,438.7828 361.3484,438.7828 361.7143,438.8941 361.7143,438.8941 362.0818,438.9985 362.0818,438.9985 362.4508,439.0961 362.4508,439.0961 362.8213,439.1869 362.8213,439.1869 363.2027,439.2636 363.2027,439.2636 363.5843,439.3328 363.5843,439.3328 363.9661,439.3943 363.9661,439.3943 364.3482,439.4484 364.3482,439.4484 364.7305,439.4948 364.7305,439.4948 365.113,439.5337 365.113,439.5337 365.4957,439.565 365.4957,439.565 365.8787,439.5887 365.8787,439.5887 366.2618,439.6049 366.2618,439.6049 366.6452,439.6136 366.6452,439.6136 367.0288,439.6146 367.0288,439.6146 367.4127,439.6081 367.4127,439.6081 367.7967,439.594 367.7967,439.594 368.181,439.5724 368.181,439.5724 368.5655,439.5432 368.5655,439.5432 368.9502,439.5064 368.9502,439.5064 369.3352,439.4621 369.3352,439.4621 369.7203,439.4102 369.7203,439.4102 370.1057,439.3508 370.1057,439.3508 370.4826,439.2729 370.4826,439.2729 370.857,439.1869 370.857,439.1869 371.2289,439.0927 371.2289,439.0927 371.5983,438.9904 371.5983,438.9904 371.9651,438.8799 371.9651,438.8799 372.3295,438.7613 372.3295,438.7613 372.6913,438.6346 372.6913,438.6346 373.0506,438.4997 373.0506,438.4997 373.4074,438.3567 373.4074,438.3567 373.7617,438.2055 373.7617,438.2055 374.1135,438.0462 374.1135,438.0462 374.4627,437.8788 374.4627,437.8788 374.8095,437.7032 374.8095,437.7032 375.1537,437.5194 375.1537,437.5194 375.4954,437.3276 375.4954,437.3276 375.8346,437.1276 375.8346,437.1276 376.1713,436.9194 376.1713,436.9194 376.5054,436.7031 376.5054,436.7031"/>
    <polygon points="373.5179,432.0861 373.5178,432.0862 373.5178,432.0862 373.1684,432.298 373.1684,432.298 372.8146,432.4987 372.8146,432.4987 372.4566,432.6883 372.4566,432.6883 372.0941,432.8668 372.0941,432.8668 371.7274,433.0343 371.7274,433.0343 371.3563,433.1907 371.3563,433.1907 370.9809,433.336 370.9809,433.336 370.6012,433.4702 370.6012,433.4702 370.2171,433.5934 370.2171,433.5934 369.8287,433.7055 369.8287,433.7055 369.436,433.8065 369.436,433.8065 369.0389,433.8964 369.0389,433.8964 368.6375,433.9753 368.6375,433.9753 368.2485,434.0324 368.2485,434.0324 367.8594,434.0773 367.8594,434.0773 367.4701,434.1099 367.4701,434.1099 367.0807,434.1304 367.0807,434.1304 366.6912,434.1386 366.6912,434.1386 366.3015,434.1346 366.3015,434.1346 365.9118,434.1183 365.9118,434.1183 365.5218,434.0899 365.5218,434.0899 365.1318,434.0492 365.1318,434.0492 364.7416,433.9963 364.7416,433.9963 364.3513,433.9312 364.3513,433.9312 363.9608,433.8539 363.9608,433.8539 363.5702,433.7643 363.5702,433.7643 363.1813,433.6639 363.1813,433.6639 362.7959,433.5541 362.7959,433.5541 362.4139,433.4349 362.4139,433.4349 362.0353,433.3062 362.0353,433.3062 361.6603,433.1681 361.6603,433.1681 361.2887,433.0206 361.2887,433.0206 360.9205,432.8636 360.9205,432.8636 360.5558,432.6972 360.5558,432.6972 360.1946,432.5214 360.1946,432.5214 359.8369,432.3362 359.8369,432.3362 359.4826,432.1415 359.4826,432.1415 359.1317,431.9374 359.1317,431.9374 358.7844,431.7238 358.7844,431.7238 358.4568,431.5023 358.4568,431.5023 358.1358,431.2716 358.1358,431.2716 357.8214,431.0317 357.8214,431.0317 357.5137,430.7828 357.5137,430.7828 357.2125,430.5247 357.2125,430.5247 356.918,430.2575 356.918,430.2575 356.63,429.9812 356.63,429.9812 356.3487,429.6958 356.3487,429.6958 356.0739,429.4013 356.0739,429.4013 355.8058,429.0976 355.8058,429.0976 355.5443,428.7849 355.5443,428.7849 355.2894,428.463 355.2894,428.463 355.0411,428.1319 355.0411,428.1319 354.7994,427.7918 354.7994,427.7918 333.1747,396.5254 333.1747,396.5254 332.9223,395.9569 332.9223,395.9569 332.6892,395.6116 332.6892,395.6116 332.4667,395.265 332.4667,395.265 332.2548,394.9171 332.2548,394.9171 332.0535,394.568 332.0535,394.568 331.8628,394.2176 331.8628,394.2176 331.6828,393.8659 331.6828,393.8659 331.5133,393.513 331.5133,393.513 331.3544,393.1588 331.3544,393.1588 331.2061,392.8034 331.2061,392.8034 331.0684,392.4466 331.0684,392.4466 330.9414,392.0887 330.9414,392.0887 330.8249,391.7294 330.8249,391.7294 330.719,391.3689 330.719,391.3689 330.6238,391.0071 330.6238,391.0071 330.5391,390.644 330.5391,390.644 330.465,390.2797 330.465,390.2797 330.4016,389.9141 330.4016,389.9141 330.3487,389.5473 330.3487,389.5473 330.3065,389.1791 330.3065,389.1791 330.2748,388.8098 330.2748,388.8098 330.2538,388.4391 330.2538,388.4391 330.2433,388.0672 330.2433,388.0672 330.2435,387.694 330.2435,387.694 330.2542,387.3195 330.2542,387.3195 330.2756,386.9438 330.2756,386.9438 330.3076,386.5668 330.3076,386.5668 330.3501,386.1886 330.3501,386.1886 330.4033,385.8091 330.4033,385.8091 330.4688,385.4176 330.4688,385.4176 330.5438,385.0317 330.5438,385.0317 330.6286,384.6514 330.6286,384.6514 330.7229,384.2767 330.7229,384.2767 330.8269,383.9075 330.8269,383.9075 330.9406,383.5439 330.9406,383.5439 331.0638,383.1858 331.0638,383.1858 331.1968,382.8333 331.1968,382.8333 331.3393,382.4864 331.3393,382.4864 331.4915,382.1451 331.4915,382.1451 331.6533,381.8093 331.6533,381.8093 331.8248,381.4791 331.8248,381.4791 332.0059,381.1545 332.0059,381.1545 332.1966,380.8354 332.1966,380.8354 332.397,380.5219 332.397,380.5219 332.607,380.2139 332.607,380.2139 332.8266,379.9116 332.8266,379.9116 333.0559,379.6148 333.0559,379.6148 333.2948,379.3235 333.2948,379.3235 333.5434,379.0378 333.5434,379.0378 333.8016,378.7577 333.8016,378.7577 334.0694,378.4832 334.0694,378.4832 334.3469,378.2142 334.3469,378.2142 334.634,377.9508 334.634,377.9508 334.9307,377.693 334.9307,377.693 335.2371,377.4407 335.2371,377.4407 335.5531,377.194 335.5531,377.194 335.8809,376.9741 335.8809,376.9741 336.2122,376.7655 336.2122,376.7655 336.547,376.568 336.547,376.568 336.8853,376.3819 336.8853,376.3819 337.227,376.2069 337.227,376.2069 337.5722,376.0432 337.5722,376.0432 337.9209,375.8908 337.9209,375.8908 338.2731,375.7496 338.2731,375.7496 338.6287,375.6197 338.6287,375.6197 338.9878,375.501 338.9878,375.501 339.3504,375.3935 339.3504,375.3935 339.7164,375.2973 339.7164,375.2973 340.086,375.2124 340.086,375.2124 340.459,375.1386 340.459,375.1386 340.8464,375.0671 340.8464,375.0671 341.232,375.0074 341.232,375.0074 341.6157,374.9596 341.6157,374.9596 341.9976,374.9237 341.9976,374.9237 342.3778,374.8997 342.3778,374.8997 342.756,374.8876 342.756,374.8876 343.1325,374.8873 343.1325,374.8873 343.5071,374.8989 343.5071,374.8989 343.8799,374.9224 343.8799,374.9224 344.2509,374.9578 344.2509,374.9578 344.62,375.005 344.62,375.005 344.9873,375.0642 344.9873,375.0642 345.3528,375.1352 345.3528,375.1352 345.7165,375.2181 345.7165,375.2181 346.0816,375.2886 346.0816,375.2886 346.4442,375.3699 346.4442,375.3699 346.8042,375.4621 346.8042,375.4621 347.1618,375.5652 347.1618,375.5652 347.5167,375.6791 347.5167,375.6791 347.8692,375.8039 347.8692,375.8039 348.2191,375.9395 348.2191,375.9395 348.5665,376.086 348.5665,376.086 348.9113,376.2433 348.9113,376.2433 349.2536,376.4115 349.2536,376.4115 349.5934,376.5905 349.5934,376.5905 349.9306,376.7804 349.9306,376.7804 350.2653,376.9812 350.2653,376.9812 350.5974,377.1928 350.5974,377.1928 350.9247,377.4138 350.9247,377.4138 351.2446,377.643 351.2446,377.643 351.5572,377.8803 351.5572,377.8803 351.8625,378.1256 351.8625,378.1256 352.1604,378.3791 352.1604,378.3791 352.4511,378.6406 352.4511,378.6406 352.7344,378.9102 352.7344,378.9102 353.0104,379.188 353.0104,379.188 353.2791,379.4738 353.2791,379.4738 353.5405,379.7677 353.5405,379.7677 353.7946,380.0697 353.7946,380.0697 354.0413,380.3798 354.0413,380.3798 354.2808,380.698 354.2808,380.698 354.5129,381.0243 354.5129,381.0243 376.6938,413.0949 376.6938,413.0949 376.9263,413.4414 376.9263,413.4414 377.1469,413.7916 377.1469,413.7916 377.3557,414.1454 377.3557,414.1454 377.5527,414.5028 377.5527,414.5028 377.7379,414.8638 377.7379,414.8638 377.9112,415.2285 377.9112,415.2285 378.0726,415.5968 378.0726,415.5968 378.2223,415.9688 378.2223,415.9688 378.3601,416.3444 378.3601,416.3444 378.4861,416.7236 378.4861,416.7236 378.6002,417.1064 378.6002,417.1064 378.7025,417.4929 378.7025,417.4929 378.793,417.8831 378.793,417.8831 378.8716,418.2768 378.8716,418.2768 378.9479,418.677 378.9479,418.677 379.0122,419.0767 379.0122,419.0767 379.0644,419.4759 379.0644,419.4759 379.1047,419.8745 379.1047,419.8745 379.133,420.2727 379.133,420.2727 379.1493,420.6704 379.1493,420.6704 379.1536,421.0676 379.1536,421.0676 379.1459,421.4642 379.1459,421.4642 379.1262,421.8604 379.1262,421.8604 379.0945,422.2561 379.0945,422.2561 379.0508,422.6512 379.0508,422.6512 378.9951,423.0459 378.9951,423.0459 378.9275,423.4401 378.9275,423.4401 378.8485,423.8324 378.8485,423.8324 378.759,424.2215 378.759,424.2215 378.6589,424.6073 378.6589,424.6073 378.5483,424.9899 378.5483,424.9899 378.4271,425.3692 378.4271,425.3692 378.2953,425.7453 378.2953,425.7453 378.153,426.1181 378.153,426.1181 378.0001,426.4877 378.0001,426.4877 377.8366,426.854 377.8366,426.854 377.6626,427.2171 377.6626,427.2171 377.478,427.577 377.478,427.577 377.2828,427.9335 377.2828,427.9335 377.0771,428.2869 377.0771,428.2869 376.8612,428.6341 376.8612,428.6341 376.6357,428.9721 376.6357,428.9721 376.4006,429.3009 376.4006,429.3009 376.1558,429.6206 376.1558,429.6206 375.9013,429.9312 375.9013,429.9312 375.6372,430.2326 375.6372,430.2326 375.3634,430.5248 375.3634,430.5248 375.08,430.8079 375.08,430.8079 374.7869,431.0819 374.7869,431.0819 374.4841,431.3467 374.4841,431.3467 374.1717,431.6023 374.1717,431.6023 373.8496,431.8488 373.8496,431.8488"/>
    <polyline points="236.8771,382.7294 203.6789,387.3455 203.6539,387.3133 216.3105,356.212"/>
    <polyline points="222.643,364.335 211.3937,368.2943 211.3937,368.2943 206.1056,357.6051"/>
    <polyline points="193.2701,359.3898 191.0521,371.1227 191.0521,371.1227 179.1591,370.3812"/>
    <polyline points="183.0721,360.8336 203.6136,387.3189 203.5982,387.3567 170.4001,391.9728"/>
    <polyline points="176.6921,400.1272 183.297,390.1795 183.297,390.1795 174.2657,382.406"/>
    <polyline points="184.6342,410.3672 195.8835,406.4079 195.8835,406.4079 201.1716,417.0971"/>
    <polyline points="190.9667,418.4902 203.6233,387.3889 203.6636,387.3833 224.2051,413.8686"/>
    <polyline points="214.0071,415.3124 216.2251,403.5795 216.2251,403.5795 228.1181,404.3211"/>
    <polyline points="233.0115,392.2962 223.9802,384.5226 223.9802,384.5226 230.585,374.575"/>
    <polygon points="159.0621,232.4391 156.4754,225.2541 156.4754,225.2541 160.9278,219.0498 160.9278,219.0498 153.295,219.2897 153.295,219.2897 148.7703,213.138 148.7703,213.138 146.6398,220.4713 146.6398,220.4713 139.391,222.8736 139.391,222.8736 145.707,227.1659 145.707,227.1659 145.7517,234.8023 145.7517,234.8023 151.7857,230.1218 151.7857,230.1218"/>
    <polyline points="156.653,142.3784 163.6354,109.5344 163.6741,109.5218 188.5583,131.9762"/>
    <polyline points="178.7739,135.1932 178.8912,123.2531 178.8912,123.2531 190.729,121.8889"/>
    <polyline points="193.4285,109.1903 183.1695,103.1285 183.1695,103.1285 187.9196,92.1732"/>
    <polyline points="195.5492,99.0923 163.6826,109.4819 163.6523,109.4546 170.6347,76.6107"/>
    <polyline points="178.2985,83.4916 167.9222,89.37 167.9222,89.37 160.8345,79.7789"/>
    <polyline points="148.5138,83.7959 148.3965,95.736 148.3965,95.736 136.5587,97.1002"/>
    <polyline points="138.7294,87.0129 163.6136,109.4673 163.6051,109.5072 131.7385,119.8968"/>
    <polyline points="139.3681,126.8159 144.1181,115.8606 144.1181,115.8606 133.8591,109.7988"/>
    <polyline points="148.9892,135.4974 159.3656,129.6191 159.3656,129.6191 166.4532,139.2102"/>
    <polyline points="672.1943,130.5882 704.6031,139.1378 704.6138,139.1771 681.055,163.0183"/>
    <polyline points="691.0074,165.6703 690.2072,153.7564 690.2072,153.7564 678.3108,153.0717"/>
    <polyline points="674.8891,140.5483 684.7845,133.9095 684.7845,133.9095 679.4156,123.244"/>
    <polyline points="688.5242,114.0262 699.2198,119.3013 699.2198,119.3013 705.7472,109.3204"/>
    <polyline points="695.7818,106.718 704.6317,139.1088 704.6711,139.1191 728.23,115.2779"/>
    <polyline points="718.2775,112.6259 719.0777,124.5398 719.0777,124.5398 730.9741,125.2246"/>
    <polyline points="734.3958,137.7479 724.5004,144.3867 724.5004,144.3867 729.8694,155.0523"/>
    <polyline points="737.0906,147.7081 704.6819,139.1585 704.6533,139.1874 713.5032,171.5782"/>
    <polyline points="720.7608,164.27 710.0651,158.995 710.0651,158.995 703.5377,168.9758"/>
    <polyline points="752.4,353.6529 751.8548,365.5811 751.8548,365.5811 739.9757,366.5202"/>
    <polyline points="742.5066,356.5171 766.57,379.849 766.56,379.8885 734.3416,389.1293"/>
    <polyline points="741.7182,396.3174 746.8579,385.5394 746.8579,385.5394 736.8227,379.1138"/>
    <polyline points="751.022,405.3382 761.6024,399.8356 761.6024,399.8356 768.3418,409.6745"/>
    <polyline points="758.4343,412.4895 766.5894,379.9169 766.6285,379.9057 790.6919,403.2375"/>
    <polyline points="780.7985,406.1017 781.3437,394.1735 781.3437,394.1735 793.2227,393.2344"/>
    <polyline points="796.3757,380.6408 786.3405,374.2151 786.3405,374.2151 791.4802,363.4371"/>
    <polyline points="798.8569,370.6253 766.6384,379.8661 766.6091,379.8377 774.7642,347.2651"/>
    <polyline points="782.1765,354.4163 771.5961,359.919 771.5961,359.919 764.8567,350.0801"/>
    <polygon points="919.2051,304.5039 919.2051,304.5039 919.2051,304.5039 919.4857,304.7728 919.4857,304.7728 919.7705,305.0345 919.7705,305.0345 920.0597,305.2891 920.0597,305.2891 920.3531,305.5366 920.3531,305.5366 920.6509,305.7769 920.6509,305.7769 920.953,306.01 920.953,306.01 921.2594,306.236 921.2594,306.236 921.5701,306.4549 921.5701,306.4549 921.8852,306.6665 921.8852,306.6665 922.2045,306.8711 922.2045,306.8711 922.5282,307.0685 922.5282,307.0685 922.8561,307.2587 922.8561,307.2587 923.1884,307.4418 923.1884,307.4418 923.525,307.6177 923.525,307.6177 923.8659,307.7865 923.8659,307.7865 924.2111,307.9481 924.2111,307.9481 924.5606,308.1026 924.5606,308.1026 924.9144,308.2499 924.9144,308.2499 925.2725,308.39 925.2725,308.39 925.6624,308.5203 925.6624,308.5203 926.0524,308.6424 926.0524,308.6424 926.4426,308.7561 926.4426,308.7561 926.8329,308.8614 926.8329,308.8614 927.2233,308.9585 927.2233,308.9585 927.6139,309.0473 927.6139,309.0473 928.0046,309.1278 928.0046,309.1278 928.3955,309.1999 928.3955,309.1999 928.7865,309.2638 928.7865,309.2638 929.1777,309.3193 929.1777,309.3193 929.569,309.3665 929.569,309.3665 929.9604,309.4054 929.9604,309.4054 930.352,309.4361 930.352,309.4361 930.7437,309.4584 930.7437,309.4584 931.1355,309.4724 931.1355,309.4724 931.5275,309.478 931.5275,309.478 931.9197,309.4754 931.9197,309.4754 932.3119,309.4645 932.3119,309.4645 932.7007,309.446 932.7007,309.446 933.0882,309.4207 933.0882,309.4207 933.4744,309.3883 933.4744,309.3883 933.8593,309.3491 933.8593,309.3491 934.2429,309.3029 934.2429,309.3029 934.6253,309.2498 934.6253,309.2498 935.0064,309.1897 935.0064,309.1897 935.3862,309.1227 935.3862,309.1227 935.7647,309.0488 935.7647,309.0488 936.142,308.9679 936.142,308.9679 936.5179,308.8801 936.5179,308.8801 936.8926,308.7853 936.8926,308.7853 937.266,308.6837 937.266,308.6837 937.6382,308.575 937.6382,308.575 938.009,308.4595 938.009,308.4595 938.3786,308.337 938.3786,308.337 938.7469,308.2075 938.7469,308.2075 939.1139,308.0712 939.1139,308.0712 939.4797,307.9279 939.4797,307.9279 939.8332,307.7762 939.8332,307.7762 940.1831,307.6175 940.1831,307.6175 940.5294,307.4518 940.5294,307.4518 940.872,307.2791 940.872,307.2791 941.2109,307.0994 941.2109,307.0994 941.5461,306.9127 941.5461,306.9127 941.8777,306.719 941.8777,306.719 942.2057,306.5183 942.2057,306.5183 942.5299,306.3106 942.5299,306.3106 942.8506,306.0958 942.8506,306.0958 943.1675,305.8741 943.1675,305.8741 943.4808,305.6454 943.4808,305.6454 943.7904,305.4096 943.7904,305.4096 944.0964,305.1669 944.0964,305.1669 944.3987,304.9171 944.3987,304.9171 944.6973,304.6604 944.6973,304.6604 944.9923,304.3966 944.9923,304.3966 945.2836,304.1259 945.2836,304.1259 945.5713,303.8481 945.5713,303.8481 945.8553,303.5633 945.8553,303.5633 945.9408,303.4759 945.9408,303.4759 946.0263,303.3886 946.0263,303.3886 973.1309,275.6964 973.1309,275.6964 973.4093,275.4066 973.4093,275.4066 973.6802,275.1137 973.6802,275.1137 973.9435,274.8178 973.9435,274.8178 974.1994,274.5187 974.1994,274.5187 974.4478,274.2166 974.4478,274.2166 974.6887,273.9114 974.6887,273.9114 974.922,273.6032 974.922,273.6032 975.1478,273.2918 975.1478,273.2918 975.3662,272.9774 975.3662,272.9774 975.577,272.6599 975.577,272.6599 975.7803,272.3394 975.7803,272.3394 975.9761,272.0158 975.9761,272.0158 976.1644,271.6891 976.1644,271.6891 976.3452,271.3593 976.3452,271.3593 976.5185,271.0264 976.5185,271.0264 976.6842,270.6905 976.6842,270.6905 976.8425,270.3515 976.8425,270.3515 976.9932,270.0094 976.9932,270.0094 977.1365,269.6643 977.1365,269.6643 977.2722,269.3161 977.2722,269.3161 977.4248,268.9471 977.4248,268.9471 977.5696,268.578 977.5696,268.578 977.7064,268.2088 977.7064,268.2088 977.8354,267.8394 977.8354,267.8394 977.9564,267.4698 977.9564,267.4698 978.0695,267.1001 978.0695,267.1001 978.1747,266.7302 978.1747,266.7302 978.272,266.3601 978.272,266.3601 978.3614,265.9899 978.3614,265.9899 978.4428,265.6195 978.4428,265.6195 978.5164,265.249 978.5164,265.249 978.582,264.8783 978.582,264.8783 978.6398,264.5074 978.6398,264.5074 978.6896,264.1364 978.6896,264.1364 978.7315,263.7652 978.7315,263.7652 978.7655,263.3938 978.7655,263.3938 978.7916,263.0223 978.7916,263.0223 978.8098,262.6506 978.8098,262.6506 978.82,262.2788 978.82,262.2788 978.8315,261.8772 978.8315,261.8772 978.8337,261.477 978.8337,261.477 978.8264,261.0782 978.8264,261.0782 978.8098,260.6808 978.8098,260.6808 978.7839,260.2848 978.7839,260.2848 978.7486,259.8902 978.7486,259.8902 978.7039,259.497 978.7039,259.497 978.6499,259.1052 978.6499,259.1052 978.5865,258.7148 978.5865,258.7148 978.5138,258.3258 978.5138,258.3258 978.4317,257.9382 978.4317,257.9382 978.3402,257.552 978.3402,257.552 978.2394,257.1672 978.2394,257.1672 978.1292,256.7837 978.1292,256.7837 978.0097,256.4017 978.0097,256.4017 977.8808,256.0211 977.8808,256.0211 977.7425,255.6419 977.7425,255.6419 977.5949,255.264 977.5949,255.264 977.4645,254.9081 977.4645,254.9081 977.3267,254.5562 977.3267,254.5562 977.1813,254.2082 977.1813,254.2082 977.0284,253.8643 977.0284,253.8643 976.868,253.5245 976.868,253.5245 976.7001,253.1886 976.7001,253.1886 976.5247,252.8567 976.5247,252.8567 976.3417,252.5289 976.3417,252.5289 976.1513,252.205 976.1513,252.205 975.9533,251.8852 975.9533,251.8852 975.7478,251.5694 975.7478,251.5694 975.5348,251.2576 975.5348,251.2576 975.3142,250.9499 975.3142,250.9499 975.0862,250.6461 975.0862,250.6461 974.8506,250.3464 974.8506,250.3464 974.6076,250.0506 974.6076,250.0506 974.357,249.7589 974.357,249.7589 974.0989,249.4712 974.0989,249.4712 973.8332,249.1876 973.8332,249.1876 973.544,248.9101 973.544,248.9101 973.2504,248.6399 973.2504,248.6399 972.9526,248.3768 972.9526,248.3768 972.6504,248.1208 972.6504,248.1208 972.3439,247.872 972.3439,247.872 972.0331,247.6303 972.0331,247.6303 971.718,247.3958 971.718,247.3958 971.3986,247.1685 971.3986,247.1685 971.0749,246.9483 971.0749,246.9483 970.7468,246.7352 970.7468,246.7352 970.4145,246.5293 970.4145,246.5293 970.0778,246.3306 970.0778,246.3306 969.7369,246.139 969.7369,246.139 969.3916,245.9546 969.3916,245.9546 969.042,245.7773 969.042,245.7773 968.6881,245.6071 968.6881,245.6071 968.3299,245.4442 968.3299,245.4442 967.9674,245.2883 967.9674,245.2883 967.6005,245.1397 967.6005,245.1397 967.2395,245.0071 967.2395,245.0071 966.8769,244.8824 966.8769,244.8824 966.5128,244.7658 966.5128,244.7658 966.1471,244.6571 966.1471,244.6571 965.7799,244.5564 965.7799,244.5564 965.4112,244.4637 965.4112,244.4637 965.041,244.379 965.041,244.379 964.6692,244.3022 964.6692,244.3022 964.2959,244.2334 964.2959,244.2334 963.921,244.1726 963.921,244.1726 963.5446,244.1198 963.5446,244.1198 963.1667,244.0749 963.1667,244.0749 962.7873,244.0381 962.7873,244.0381 962.4063,244.0092 962.4063,244.0092 962.0238,243.9882 962.0238,243.9882 961.6398,243.9753 961.6398,243.9753 961.2542,243.9703 961.2542,243.9703 960.8671,243.9733 960.8671,243.9733 960.4785,243.9843 960.4785,243.9843 960.0983,243.994 960.0983,243.994 959.7184,244.0117 959.7184,244.0117 959.3388,244.0372 959.3388,244.0372 958.9595,244.0707 958.9595,244.0707 958.5806,244.112 958.5806,244.112 958.2021,244.1613 958.2021,244.1613 957.8238,244.2184 957.8238,244.2184 957.4459,244.2835 957.4459,244.2835 957.0683,244.3564 957.0683,244.3564 956.6911,244.4373 956.6911,244.4373 956.3142,244.5261 956.3142,244.5261 955.9376,244.6228 955.9376,244.6228 955.5613,244.7274 955.5613,244.7274 955.1854,244.8399 955.1854,244.8399 954.8098,244.9603 954.8098,244.9603 954.4345,245.0886 954.4345,245.0886 954.0596,245.2248 954.0596,245.2248 953.685,245.3689 953.685,245.3689 953.3107,245.5209 953.3107,245.5209 952.9569,245.6728 952.9569,245.6728 952.6064,245.8322 952.6064,245.8322 952.2591,245.9989 952.2591,245.9989 951.915,246.1732 951.915,246.1732 951.5741,246.3548 951.5741,246.3548 951.2365,246.5439 951.2365,246.5439 950.9022,246.7405 950.9022,246.7405 950.571,246.9445 950.571,246.9445 950.2431,247.1559 950.2431,247.1559 949.9184,247.3748 949.9184,247.3748 949.597,247.6011 949.597,247.6011 949.2788,247.8348 949.2788,247.8348 948.9638,248.076 948.9638,248.076 948.6521,248.3247 948.6521,248.3247 948.3436,248.5808 948.3436,248.5808 948.0383,248.8443 948.0383,248.8443 947.7363,249.1153 947.7363,249.1153 947.4375,249.3937 947.4375,249.3937 947.1419,249.6795 947.1419,249.6795 946.8496,249.9728 946.8496,249.9728 919.8305,277.5776 919.8305,277.5776 919.5515,277.8677 919.5515,277.8677 919.2787,278.1613 919.2787,278.1613 919.0121,278.4584 919.0121,278.4584 918.7518,278.7591 918.7518,278.7591 918.4977,279.0633 918.4977,279.0633 918.2499,279.3711 918.2499,279.3711 918.0083,279.6824 918.0083,279.6824 917.773,279.9972 917.773,279.9972 917.5439,280.3156 917.5439,280.3156 917.321,280.6376 917.321,280.6376 917.1044,280.963 917.1044,280.963 916.894,281.2921 916.894,281.2921 916.6898,281.6246 916.6898,281.6246 916.4919,281.9607 916.4919,281.9607 916.3003,282.3004 916.3003,282.3004 916.1148,282.6436 916.1148,282.6436 915.9357,282.9903 915.9357,282.9903 915.7627,283.3406 915.7627,283.3406 915.596,283.6945 915.596,283.6945 915.4356,284.0518 915.4356,284.0518 915.2912,284.4293 915.2912,284.4293 915.1537,284.8069 915.1537,284.8069 915.0232,285.1848 915.0232,285.1848 914.8997,285.5629 914.8997,285.5629 914.7832,285.9411 914.7832,285.9411 914.6737,286.3196 914.6737,286.3196 914.5711,286.6982 914.5711,286.6982 914.4756,287.077 914.4756,287.077 914.387,287.4561 914.387,287.4561 914.3054,287.8353 914.3054,287.8353 914.2307,288.2147 914.2307,288.2147 914.1631,288.5944 914.1631,288.5944 914.1024,288.9742 914.1024,288.9742 914.0487,289.3542 914.0487,289.3542 914.002,289.7345 914.002,289.7345 913.9622,290.1149 913.9622,290.1149 913.9294,290.4955 913.9294,290.4955 913.9037,290.8763 913.9037,290.8763 913.8849,291.2573 913.8849,291.2573 913.882,291.6464 913.882,291.6464 913.8865,292.0342 913.8865,292.0342 913.8986,292.4207 913.8986,292.4207 913.9181,292.8061 913.9181,292.8061 913.9451,293.1902 913.9451,293.1902 913.9796,293.5732 913.9796,293.5732 914.0215,293.9549 914.0215,293.9549 914.0709,294.3354 914.0709,294.3354 914.1277,294.7146 914.1277,294.7146 914.1921,295.0927 914.1921,295.0927 914.2639,295.4695 914.2639,295.4695 914.3431,295.8452 914.3431,295.8452 914.4299,296.2195 914.4299,296.2195 914.5241,296.5927 914.5241,296.5927 914.6258,296.9647 914.6258,296.9647 914.7349,297.3354 914.7349,297.3354 914.8515,297.7049 914.8515,297.7049 914.9756,298.0732 914.9756,298.0732 915.1071,298.4403 915.1071,298.4403 915.2552,298.7956 915.2552,298.7956 915.4107,299.1469 915.4107,299.1469 915.5738,299.4941 915.5738,299.4941 915.7444,299.8373 915.7444,299.8373 915.9225,300.1765 915.9225,300.1765 916.1081,300.5117 916.1081,300.5117 916.3013,300.8429 916.3013,300.8429 916.5019,301.1701 916.5019,301.1701 916.7101,301.4932 916.7101,301.4932 916.9258,301.8124 916.9258,301.8124 917.149,302.1275 917.149,302.1275 917.3797,302.4386 917.3797,302.4386 917.6179,302.7457 917.6179,302.7457 917.8637,303.0487 917.8637,303.0487 918.1169,303.3478 918.1169,303.3478 918.3777,303.6429 918.3777,303.6429 918.646,303.9339 918.646,303.9339 918.9218,304.2209 918.9218,304.2209"/>
    <polygon points="922.8875,300.4111 922.8874,300.411 922.8874,300.411 922.6132,300.1081 922.6132,300.1081 922.3489,299.7989 922.3489,299.7989 922.0948,299.4834 922.0948,299.4834 921.8507,299.1614 921.8507,299.1614 921.6166,298.8332 921.6166,298.8332 921.3926,298.4985 921.3926,298.4985 921.1787,298.1576 921.1787,298.1576 920.9748,297.8102 920.9748,297.8102 920.7809,297.4565 920.7809,297.4565 920.5971,297.0965 920.5971,297.0965 920.4234,296.73 920.4234,296.73 920.2597,296.3573 920.2597,296.3573 920.106,295.9782 920.106,295.9782 919.9761,295.6071 919.9761,295.6071 919.8582,295.2335 919.8582,295.2335 919.7522,294.8576 919.7522,294.8576 919.6582,294.4791 919.6582,294.4791 919.5762,294.0983 919.5762,294.0983 919.5061,293.7149 919.5061,293.7149 919.4481,293.3292 919.4481,293.3292 919.4019,292.9409 919.4019,292.9409 919.3678,292.5503 919.3678,292.5503 919.3457,292.1571 919.3457,292.1571 919.3355,291.7615 919.3355,291.7615 919.3373,291.3635 919.3373,291.3635 919.351,290.963 919.351,290.963 919.3757,290.5621 919.3757,290.5621 919.4104,290.1628 919.4104,290.1628 919.4549,289.7651 919.4549,289.7651 919.5093,289.3691 919.5093,289.3691 919.5737,288.9746 919.5737,288.9746 919.648,288.5817 919.648,288.5817 919.7322,288.1905 919.7322,288.1905 919.8263,287.8008 919.8263,287.8008 919.9304,287.4128 919.9304,287.4128 920.0443,287.0264 920.0443,287.0264 920.1682,286.6416 920.1682,286.6416 920.302,286.2584 920.302,286.2584 920.4457,285.8768 920.4457,285.8768 920.601,285.5131 920.601,285.5131 920.7666,285.1541 920.7666,285.1541 920.9423,284.7999 920.9423,284.7999 921.1283,284.4505 921.1283,284.4505 921.3245,284.1058 921.3245,284.1058 921.5309,283.7659 921.5309,283.7659 921.7475,283.4307 921.7475,283.4307 921.9743,283.1003 921.9743,283.1003 922.2113,282.7747 922.2113,282.7747 922.4585,282.4537 922.4585,282.4537 922.716,282.1376 922.716,282.1376 922.9836,281.8262 922.9836,281.8262 923.2614,281.5196 923.2614,281.5196 923.5495,281.2177 923.5495,281.2177 950.1411,254.0497 950.1411,254.0497 950.6513,253.6939 950.6513,253.6939 950.9461,253.3994 950.9461,253.3994 951.2441,253.1152 951.2441,253.1152 951.5454,252.8411 951.5454,252.8411 951.85,252.5772 951.85,252.5772 952.1578,252.3234 952.1578,252.3234 952.4689,252.0799 952.4689,252.0799 952.7832,251.8464 952.7832,251.8464 953.1008,251.6232 953.1008,251.6232 953.4216,251.4101 953.4216,251.4101 953.7457,251.2072 953.7457,251.2072 954.0731,251.0145 954.0731,251.0145 954.4037,250.8319 954.4037,250.8319 954.7375,250.6595 954.7375,250.6595 955.0746,250.4973 955.0746,250.4973 955.415,250.3452 955.415,250.3452 955.7586,250.2034 955.7586,250.2034 956.1055,250.0716 956.1055,250.0716 956.4557,249.9501 956.4557,249.9501 956.8091,249.8387 956.8091,249.8387 957.1657,249.7375 957.1657,249.7375 957.5257,249.6464 957.5257,249.6464 957.8888,249.5656 957.8888,249.5656 958.2553,249.4949 958.2553,249.4949 958.6249,249.4343 958.6249,249.4343 958.9979,249.3839 958.9979,249.3839 959.3741,249.3437 959.3741,249.3437 959.7535,249.3137 959.7535,249.3137 960.1363,249.2939 960.1363,249.2939 960.533,249.2838 960.533,249.2838 960.9261,249.2842 960.9261,249.2842 961.3156,249.2952 961.3156,249.2952 961.7015,249.3167 961.7015,249.3167 962.0837,249.3487 962.0837,249.3487 962.4622,249.3913 962.4622,249.3913 962.8372,249.4443 962.8372,249.4443 963.2085,249.5079 963.2085,249.5079 963.5762,249.582 963.5762,249.582 963.9402,249.6666 963.9402,249.6666 964.3006,249.7617 964.3006,249.7617 964.6573,249.8673 964.6573,249.8673 965.0105,249.9835 965.0105,249.9835 965.3599,250.1102 965.3599,250.1102 965.7058,250.2474 965.7058,250.2474 966.048,250.3951 966.048,250.3951 966.3866,250.5533 966.3866,250.5533 966.7215,250.7221 966.7215,250.7221 967.0528,250.9013 967.0528,250.9013 967.3805,251.0911 967.3805,251.0911 967.7045,251.2914 967.7045,251.2914 968.0249,251.5023 968.0249,251.5023 968.3417,251.7236 968.3417,251.7236 968.6548,251.9555 968.6548,251.9555 968.9643,252.1979 968.9643,252.1979 969.2702,252.4508 969.2702,252.4508 969.5724,252.7142 969.5724,252.7142 969.8505,252.9943 969.8505,252.9943 970.1183,253.28 970.1183,253.28 970.3757,253.5712 970.3757,253.5712 970.6227,253.8679 970.6227,253.8679 970.8594,254.1702 970.8594,254.1702 971.0856,254.4781 971.0856,254.4781 971.3015,254.7915 971.3015,254.7915 971.507,255.1104 971.507,255.1104 971.7021,255.4349 971.7021,255.4349 971.8868,255.7649 971.8868,255.7649 972.0611,256.1005 972.0611,256.1005 972.2251,256.4416 972.2251,256.4416 972.3787,256.7883 972.3787,256.7883 972.5219,257.1405 972.5219,257.1405 972.6657,257.5073 972.6657,257.5073 972.7975,257.8745 972.7975,257.8745 972.9173,258.2422 972.9173,258.2422 973.025,258.6104 973.025,258.6104 973.1208,258.979 973.1208,258.979 973.2045,259.3481 973.2045,259.3481 973.2763,259.7177 973.2763,259.7177 973.336,260.0877 973.336,260.0877 973.3837,260.4582 973.3837,260.4582 973.4194,260.8291 973.4194,260.8291 973.4431,261.2005 973.4431,261.2005 973.4548,261.5724 973.4548,261.5724 973.4545,261.9447 973.4545,261.9447 973.4422,262.3175 973.4422,262.3175 973.4423,262.6893 973.4423,262.6893 973.4313,263.0608 973.4313,263.0608 973.4091,263.4318 973.4091,263.4318 973.3758,263.8024 973.3758,263.8024 973.3314,264.1725 973.3314,264.1725 973.2758,264.5423 973.2758,264.5423 973.2091,264.9115 973.2091,264.9115 973.1312,265.2804 973.1312,265.2804 973.0422,265.6488 973.0422,265.6488 972.9421,266.0169 972.9421,266.0169 972.8308,266.3844 972.8308,266.3844 972.7084,266.7516 972.7084,266.7516 972.5749,267.1183 972.5749,267.1183 972.4302,267.4846 972.4302,267.4846 972.2753,267.8478 972.2753,267.8478 972.111,268.2054 972.111,268.2054 971.9374,268.5574 971.9374,268.5574 971.7545,268.9037 971.7545,268.9037 971.5622,269.2444 971.5622,269.2444 971.3606,269.5794 971.3606,269.5794 971.1497,269.9088 971.1497,269.9088 970.9295,270.2325 970.9295,270.2325 970.6999,270.5506 970.6999,270.5506 970.4609,270.863 970.4609,270.863 970.2127,271.1698 970.2127,271.1698 969.9551,271.471 969.9551,271.471 969.6881,271.7665 969.6881,271.7665 969.4118,272.0563 969.4118,272.0563 942.1363,299.9232 942.1363,299.9232 941.8402,300.2172 941.8402,300.2172 941.5383,300.5004 941.5383,300.5004 941.2306,300.7725 941.2306,300.7725 940.9171,301.0338 940.9171,301.0338 940.5978,301.2841 940.5978,301.2841 940.2726,301.5235 940.2726,301.5235 939.9417,301.752 939.9417,301.752 939.6049,301.9696 939.6049,301.9696 939.2623,302.1762 939.2623,302.1762 938.9139,302.3719 938.9139,302.3719 938.5597,302.5566 938.5597,302.5566 938.1997,302.7305 938.1997,302.7305 937.8338,302.8934 937.8338,302.8934 937.4621,303.0453 937.4621,303.0453 937.0837,303.1962 937.0837,303.1962 936.7035,303.3352 936.7035,303.3352 936.3215,303.4623 936.3215,303.4623 935.9378,303.5775 935.9378,303.5775 935.5522,303.6809 935.5522,303.6809 935.1649,303.7724 935.1649,303.7724 934.7757,303.852 934.7757,303.852 934.3848,303.9198 934.3848,303.9198 933.9921,303.9757 933.9921,303.9757 933.5976,304.0197 933.5976,304.0197 933.2013,304.0518 933.2013,304.0518 932.8033,304.0721 932.8033,304.0721 932.4034,304.0805 932.4034,304.0805 932.0032,304.0775 932.0032,304.0775 931.6043,304.0635 931.6043,304.0635 931.2065,304.0385 931.2065,304.0385 930.8098,304.0025 930.8098,304.0025 930.4144,303.9555 930.4144,303.9555 930.0202,303.8976 930.0202,303.8976 929.6271,303.8286 929.6271,303.8286 929.2352,303.7487 929.2352,303.7487 928.8445,303.6577 928.8445,303.6577 928.4549,303.5558 928.4549,303.5558 928.0666,303.4429 928.0666,303.4429 927.6794,303.319 927.6794,303.319 927.2934,303.1841 927.2934,303.1841 926.9116,303.0381 926.9116,303.0381 926.5369,302.8809 926.5369,302.8809 926.1694,302.7125 926.1694,302.7125 925.8091,302.5328 925.8091,302.5328 925.4558,302.3419 925.4558,302.3419 925.1098,302.1399 925.1098,302.1399 924.7709,301.9265 924.7709,301.9265 924.4391,301.702 924.4391,301.702 924.1145,301.4663 924.1145,301.4663 923.797,301.2193 923.797,301.2193 923.4867,300.9611 923.4867,300.9611 923.1835,300.6917 923.1835,300.6917"/>
    <polygon points="975.6351,355.8025 975.6351,355.8024 975.6351,355.8024 1006.6728,324.0919 1006.6728,324.0919 1006.959,323.7914 1006.959,323.7914 1007.2343,323.4862 1007.2343,323.4862 1007.4986,323.1761 1007.4986,323.1761 1007.7519,322.8612 1007.7519,322.8612 1007.9943,322.5415 1007.9943,322.5415 1008.2257,322.217 1008.2257,322.217 1008.4462,321.8876 1008.4462,321.8876 1008.6556,321.5535 1008.6556,321.5535 1008.8541,321.2145 1008.8541,321.2145 1009.0417,320.8707 1009.0417,320.8707 1009.2183,320.5221 1009.2183,320.5221 1009.3839,320.1687 1009.3839,320.1687 1009.5385,319.8105 1009.5385,319.8105 1009.6822,319.4475 1009.6822,319.4475 1009.8149,319.0796 1009.8149,319.0796 1009.9367,318.7069 1009.9367,318.7069 1010.0474,318.3295 1010.0474,318.3295 1010.167,317.9487 1010.167,317.9487 1010.2755,317.5678 1010.2755,317.5678 1010.373,317.1868 1010.373,317.1868 1010.4594,316.8056 1010.4594,316.8056 1010.5348,316.4242 1010.5348,316.4242 1010.5991,316.0427 1010.5991,316.0427 1010.6524,315.6611 1010.6524,315.6611 1010.6947,315.2792 1010.6947,315.2792 1010.7259,314.8973 1010.7259,314.8973 1010.746,314.5151 1010.746,314.5151 1010.7551,314.1328 1010.7551,314.1328 1010.7532,313.7504 1010.7532,313.7504 1010.7402,313.3677 1010.7402,313.3677 1010.7162,312.985 1010.7162,312.985 1010.6811,312.602 1010.6811,312.602 1010.635,312.219 1010.635,312.219 1010.5778,311.8357 1010.5778,311.8357 1010.5037,311.4296 1010.5037,311.4296 1010.4185,311.0297 1010.4185,311.0297 1010.3222,310.6362 1010.3222,310.6362 1010.2149,310.249 1010.2149,310.249 1010.0966,309.8681 1010.0966,309.8681 1009.9673,309.4935 1009.9673,309.4935 1009.827,309.1252 1009.827,309.1252 1009.6756,308.7632 1009.6756,308.7632 1009.5132,308.4075 1009.5132,308.4075 1009.3397,308.0582 1009.3397,308.0582 1009.1552,307.7151 1009.1552,307.7151 1008.9597,307.3784 1008.9597,307.3784 1008.7532,307.0479 1008.7532,307.0479 1008.5356,306.7238 1008.5356,306.7238 1008.307,306.406 1008.307,306.406 1008.0674,306.0945 1008.0674,306.0945 1007.8167,305.7892 1007.8167,305.7892 1007.5551,305.4904 1007.5551,305.4904 1007.2823,305.1978 1007.2823,305.1978 1006.9986,304.9115 1006.9986,304.9115 1006.9358,304.85 1006.9358,304.85 1006.7474,304.6656 1006.7474,304.6656 1006.4333,304.3582 1006.4333,304.3582 1005.9936,303.9278 1005.9936,303.9278 1005.4283,303.3745 1005.4283,303.3745 1005.1998,303.1509 1005.1998,303.1509 1004.9628,302.9189 1004.9628,302.9189 1004.7174,302.6787 1004.7174,302.6787 1004.4636,302.4303 1004.4636,302.4303 1004.2013,302.1735 1004.2013,302.1735 1003.9306,301.9086 1003.9306,301.9086 1003.6515,301.6354 1003.6515,301.6354 1003.3639,301.3539 1003.3639,301.3539 1003.0679,301.0642 1003.0679,301.0642 1002.7634,300.7662 1002.7634,300.7662 1002.4506,300.46 1002.4506,300.46 1002.1293,300.1455 1002.1293,300.1455 1001.7995,299.8227 1001.7995,299.8227 1001.4613,299.4917 1001.4613,299.4917 1001.2027,299.2386 1001.2027,299.2386 1000.941,298.9824 1000.941,298.9824 1000.6762,298.7233 1000.6762,298.7233 1000.4084,298.4611 1000.4084,298.4611 1000.1375,298.196 1000.1375,298.196 999.8635,297.9278 999.8635,297.9278 999.5865,297.6567 999.5865,297.6567 999.3065,297.3826 999.3065,297.3826 999.0233,297.1054 999.0233,297.1054 998.7371,296.8253 998.7371,296.8253 998.4479,296.5422 998.4479,296.5422 998.1555,296.2561 998.1555,296.2561 997.8602,295.9669 997.8602,295.9669 997.5617,295.6748 997.5617,295.6748 997.2602,295.3797 997.2602,295.3797 996.9556,295.0816 996.9556,295.0816 996.648,294.7805 996.648,294.7805 996.3373,294.4764 996.3373,294.4764 996.0509,294.1961 996.0509,294.1961 995.7659,293.9171 995.7659,293.9171 995.4823,293.6395 995.4823,293.6395 995.2,293.3632 995.2,293.3632 994.9191,293.0883 994.9191,293.0883 994.6395,292.8147 994.6395,292.8147 994.3614,292.5424 994.3614,292.5424 994.0846,292.2715 994.0846,292.2715 993.8092,292.002 993.8092,292.002 993.5352,291.7337 993.5352,291.7337 993.2625,291.4669 993.2625,291.4669 992.9912,291.2013 992.9912,291.2013 992.7213,290.9371 992.7213,290.9371 992.4528,290.6743 992.4528,290.6743 992.1856,290.4128 992.1856,290.4128 991.9198,290.1526 991.9198,290.1526 991.6554,289.8938 991.6554,289.8938 991.3923,289.6364 991.3923,289.6364 991.1307,289.3803 991.1307,289.3803 990.803,289.0596 990.803,289.0596 990.4813,288.7446 990.4813,288.7446 990.1654,288.4354 990.1654,288.4354 989.8554,288.132 989.8554,288.132 989.5512,287.8343 989.5512,287.8343 989.253,287.5424 989.253,287.5424 988.9606,287.2562 988.9606,287.2562 988.6741,286.9758 988.6741,286.9758 988.3935,286.7011 988.3935,286.7011 988.1187,286.4322 988.1187,286.4322 987.8498,286.169 987.8498,286.169 987.5868,285.9116 987.5868,285.9116 987.3297,285.6599 987.3297,285.6599 987.0785,285.414 987.0785,285.414 986.8331,285.1739 986.8331,285.1739 986.344,284.6951 986.344,284.6951 985.9156,284.2758 985.9156,284.2758 985.5479,283.9159 985.5479,283.9159 985.2409,283.6155 985.2409,283.6155 984.9947,283.3744 984.9947,283.3744 984.8091,283.1928 984.8091,283.1928 984.6843,283.0707 984.6843,283.0707 984.5191,282.9089 984.5191,282.9089 984.1745,282.6195 984.1745,282.6195 983.8018,282.3985 983.8018,282.3985 983.4011,282.2457 983.4011,282.2457 982.9724,282.1613 982.9724,282.1613 982.5156,282.1453 982.5156,282.1453 982.1182,282.1942 982.1182,282.1942 981.7331,282.3099 981.7331,282.3099 981.3603,282.4923 981.3603,282.4923 980.9998,282.7416 980.9998,282.7416 980.6516,283.0576 980.6516,283.0576 941.8331,322.7177 941.8331,322.7177 941.5212,323.0761 941.5212,323.0761 941.2695,323.4523 941.2695,323.4523 941.0779,323.8464 941.0779,323.8464 940.9466,324.2583 940.9466,324.2583 940.8754,324.6881 940.8754,324.6881 940.9321,325.113 940.9321,325.113 941.0496,325.5154 941.0496,325.5154 941.228,325.8952 941.228,325.8952 941.4672,326.2526 941.4672,326.2526 941.7674,326.5874 941.7674,326.5874 942.0755,326.848 942.0755,326.848 942.4048,327.0471 942.4048,327.0471 942.7554,327.185 942.7554,327.185 943.1271,327.2615 943.1271,327.2615 943.5201,327.2766 943.5201,327.2766 943.9035,327.2385 943.9035,327.2385 944.269,327.1544 944.269,327.1544 944.6166,327.0243 944.6166,327.0243 944.9463,326.8482 944.9463,326.8482 945.2582,326.626 945.2582,326.626 945.5522,326.3578 945.5522,326.3578 982.4896,288.6196 982.4896,288.6196 993.812,299.7018 993.812,299.7018 956.8746,337.44 956.8746,337.44 956.5627,337.7984 956.5627,337.7984 956.3109,338.1746 956.3109,338.1746 956.1194,338.5687 956.1194,338.5687 955.988,338.9806 955.988,338.9806 955.9169,339.4104 955.9169,339.4104 955.9702,339.8321 955.9702,339.8321 956.0778,340.2248 956.0778,340.2248 956.2397,340.5884 956.2397,340.5884 956.4558,340.9231 956.4558,340.9231 956.7262,341.2288 956.7262,341.2288 957.0641,341.5185 957.0641,341.5185 957.4166,341.7403 957.4166,341.7403 957.7836,341.8944 957.7836,341.8944 958.1653,341.9806 958.1653,341.9806 958.5615,341.999 958.5615,341.999 958.9449,341.9609 958.9449,341.9609 959.3105,341.8768 959.3105,341.8768 959.6581,341.7466 959.6581,341.7466 959.9878,341.5705 959.9878,341.5705 960.2997,341.3483 960.2997,341.3483 960.5936,341.0801 960.5936,341.0801 997.5311,303.3419 997.5311,303.3419 1003.151,308.8426 1003.151,308.8426 1003.4314,309.1313 1003.4314,309.1313 1003.6941,309.4312 1003.6941,309.4312 1003.9391,309.7423 1003.9391,309.7423 1004.1665,310.0646 1004.1665,310.0646 1004.3761,310.398 1004.3761,310.398 1004.568,310.7427 1004.568,310.7427 1004.7423,311.0986 1004.7423,311.0986 1004.8988,311.4656 1004.8988,311.4656 1005.0377,311.8438 1005.0377,311.8438 1005.1589,312.2332 1005.1589,312.2332 1005.2623,312.6338 1005.2623,312.6338 1005.3481,313.0456 1005.3481,313.0456 1005.3798,313.4259 1005.3798,313.4259 1005.3963,313.8053 1005.3963,313.8053 1005.3975,314.1839 1005.3975,314.1839 1005.3835,314.5617 1005.3835,314.5617 1005.3541,314.9387 1005.3541,314.9387 1005.3096,315.3149 1005.3096,315.3149 1005.2497,315.6903 1005.2497,315.6903 1005.1746,316.0649 1005.1746,316.0649 1005.0842,316.4387 1005.0842,316.4387 1004.9786,316.8117 1004.9786,316.8117 1004.8577,317.1839 1004.8577,317.1839 1004.7268,317.5689 1004.7268,317.5689 1004.5827,317.941 1004.5827,317.941 1004.4254,318.3002 1004.4254,318.3002 1004.2548,318.6464 1004.2548,318.6464 1004.071,318.9796 1004.071,318.9796 1003.874,319.2999 1003.874,319.2999 1003.6638,319.6073 1003.6638,319.6073 1003.4404,319.9017 1003.4404,319.9017 1003.2037,320.1832 1003.2037,320.1832 1002.9538,320.4518 1002.9538,320.4518 971.9161,352.1623 971.9161,352.1623 971.6041,352.5207 971.6041,352.5207 971.3524,352.8969 971.3524,352.8969 971.1609,353.291 971.1609,353.291 971.0295,353.7029 971.0295,353.7029 970.9584,354.1327 970.9584,354.1327 971.0117,354.5544 971.0117,354.5544 971.1193,354.9471 971.1193,354.9471 971.2812,355.3108 971.2812,355.3108 971.4973,355.6455 971.4973,355.6455 971.7677,355.9512 971.7677,355.9512 972.1055,356.2408 972.1055,356.2408 972.458,356.4627 972.458,356.4627 972.8251,356.6167 972.8251,356.6167 973.2068,356.7029 973.2068,356.7029 973.603,356.7213 973.603,356.7213 973.9864,356.6832 973.9864,356.6832 974.3519,356.5991 974.3519,356.5991 974.6996,356.469 974.6996,356.469 975.0293,356.2928 975.0293,356.2928 975.3411,356.0706 975.3411,356.0706"/>
    <polygon points="1013.1335,388.9133 1013.1331,388.9131 1013.1331,388.9131 1012.8179,388.5906 1012.8179,388.5906 1012.5336,388.2704 1012.5336,388.2704 1012.2801,387.9525 1012.2801,387.9525 1012.0574,387.6368 1012.0574,387.6368 1011.8655,387.3233 1011.8655,387.3233 1011.7045,387.0121 1011.7045,387.0121 1011.5743,386.7032 1011.5743,386.7032 1011.4915,386.6222 1011.4915,386.6222 1011.5771,386.5347 1011.5771,386.5347 1011.4229,386.2141 1011.4229,386.2141 1011.2855,385.8817 1011.2855,385.8817 1011.1649,385.5375 1011.1649,385.5375 1011.0613,385.1816 1011.0613,385.1816 1010.9745,384.8139 1010.9745,384.8139 1010.9045,384.4345 1010.9045,384.4345 1010.8515,384.0433 1010.8515,384.0433 1010.8153,383.6403 1010.8153,383.6403 1010.7959,383.2255 1010.7959,383.2255 1010.7934,382.799 1010.7934,382.799 1010.8078,382.3608 1010.8078,382.3608 1010.835,382.0346 1010.835,382.0346 1010.8831,381.7077 1010.8831,381.7077 1010.9522,381.38 1010.9522,381.38 1011.0422,381.0515 1011.0422,381.0515 1011.1531,380.7221 1011.1531,380.7221 1011.2849,380.392 1011.2849,380.392 1011.4376,380.0611 1011.4376,380.0611 1011.6113,379.7293 1011.6113,379.7293 1011.8059,379.3968 1011.8059,379.3968 1012.0214,379.0634 1012.0214,379.0634 1012.2579,378.7293 1012.2579,378.7293 1012.5152,378.3943 1012.5152,378.3943 1012.7935,378.0585 1012.7935,378.0585 1013.0928,377.7219 1013.0928,377.7219 1013.4129,377.3846 1013.4129,377.3846 1044.4505,345.6741 1044.4505,345.6741 1044.7557,345.316 1044.7557,345.316 1044.9873,344.9406 1044.9873,344.9406 1045.1452,344.5478 1045.1452,344.5478 1045.2294,344.1377 1045.2294,344.1377 1045.2401,343.7102 1045.2401,343.7102 1045.2175,343.2571 1045.2175,343.2571 1045.1339,342.8399 1045.1339,342.8399 1044.9891,342.4588 1044.9891,342.4588 1044.7832,342.1136 1044.7832,342.1136 1044.5163,341.8044 1044.5163,341.8044 1033.2765,330.8031 1033.2765,330.8031 1033.1278,330.6716 1033.1278,330.6716 1032.918,330.5081 1032.918,330.5081 1032.6469,330.3126 1032.6469,330.3126 1032.3147,330.0852 1032.3147,330.0852 1031.9213,329.8258 1031.9213,329.8258 1031.4668,329.5345 1031.4668,329.5345 1030.951,329.2112 1030.951,329.2112 1030.6538,329.0165 1030.6538,329.0165 1030.3436,328.8305 1030.3436,328.8305 1030.0205,328.6532 1030.0205,328.6532 1029.6844,328.4845 1029.6844,328.4845 1029.3353,328.3246 1029.3353,328.3246 1028.9732,328.1733 1028.9732,328.1733 1028.5981,328.0307 1028.5981,328.0307 1028.21,327.8967 1028.21,327.8967 1027.809,327.7714 1027.809,327.7714 1027.3949,327.6548 1027.3949,327.6548 1026.9679,327.5469 1026.9679,327.5469 1026.5279,327.4476 1026.5279,327.4476 1026.179,327.3661 1026.179,327.3661 1025.824,327.2968 1025.824,327.2968 1025.4627,327.2397 1025.4627,327.2397 1025.0953,327.1948 1025.0953,327.1948 1024.7217,327.1621 1024.7217,327.1621 1024.3419,327.1416 1024.3419,327.1416 1023.9559,327.1332 1023.9559,327.1332 1023.5637,327.1371 1023.5637,327.1371 1023.1654,327.1532 1023.1654,327.1532 1022.7609,327.1814 1022.7609,327.1814 1022.3502,327.2219 1022.3502,327.2219 1021.9333,327.2745 1021.9333,327.2745 1021.5102,327.3394 1021.5102,327.3394 1021.081,327.4164 1021.081,327.4164 1020.6456,327.5056 1020.6456,327.5056 1020.3249,327.5753 1020.3249,327.5753 1020.0036,327.6589 1020.0036,327.6589 1019.6816,327.7564 1019.6816,327.7564 1019.3589,327.8678 1019.3589,327.8678 1019.0356,327.9931 1019.0356,327.9931 1018.7117,328.1323 1018.7117,328.1323 1018.3871,328.2854 1018.3871,328.2854 1018.0618,328.4524 1018.0618,328.4524 1017.7359,328.6333 1017.7359,328.6333 1017.4093,328.8281 1017.4093,328.8281 1017.0821,329.0367 1017.0821,329.0367 1016.7542,329.2593 1016.7542,329.2593 1016.4257,329.4958 1016.4257,329.4958 1016.0965,329.7461 1016.0965,329.7461 1015.7666,330.0104 1015.7666,330.0104 1015.4361,330.2885 1015.4361,330.2885 1015.1049,330.5806 1015.1049,330.5806 1014.7731,330.8865 1014.7731,330.8865 1014.4406,331.2064 1014.4406,331.2064 1014.1075,331.5401 1014.1075,331.5401 990.8506,355.3012 990.8506,355.3012 990.5487,355.6234 990.5487,355.6234 990.2701,355.9494 990.2701,355.9494 990.0148,356.2792 990.0148,356.2792 989.7828,356.6127 989.7828,356.6127 989.574,356.95 989.574,356.95 989.3885,357.2911 989.3885,357.2911 989.17,357.693 989.17,357.693 988.9316,358.0755 988.9316,358.0755 988.6734,358.4385 988.6734,358.4385 988.3953,358.7821 988.3953,358.7821 988.0975,359.1063 988.0975,359.1063 988.0949,359.2745 988.0949,359.2745 987.9047,359.651 987.9047,359.651 987.7281,360.0254 987.7281,360.0254 987.5649,360.3979 987.5649,360.3979 987.4152,360.7683 987.4152,360.7683 987.279,361.1367 987.279,361.1367 987.1563,361.5031 987.1563,361.5031 987.0471,361.8675 987.0471,361.8675 986.9513,362.2299 986.9513,362.2299 986.869,362.5903 986.869,362.5903 986.8002,362.9486 986.8002,362.9486 986.7448,363.305 986.7448,363.305 986.7029,363.6593 986.7029,363.6593 986.6746,364.0116 986.6746,364.0116 986.6596,364.3619 986.6596,364.3619 986.6582,364.7102 986.6582,364.7102 986.6771,365.048 986.6771,365.048 986.7031,365.3902 986.7031,365.3902 986.7363,365.7367 986.7363,365.7367 986.7766,366.0875 986.7766,366.0875 986.8241,366.4427 986.8241,366.4427 986.8787,366.8021 986.8787,366.8021 986.9404,367.1659 986.9404,367.1659 987.0093,367.534 987.0093,367.534 987.0854,367.9065 987.0854,367.9065 987.1686,368.2832 987.1686,368.2832 987.2589,368.6643 987.2589,368.6643 987.3564,369.0497 987.3564,369.0497 987.4611,369.4394 987.4611,369.4394 987.5729,369.8335 987.5729,369.8335 987.6918,370.2318 987.6918,370.2318 987.8179,370.6345 987.8179,370.6345 987.9006,370.7155 987.9006,370.7155 988.018,371.0216 988.018,371.0216 988.1562,371.3315 988.1562,371.3315 988.3154,371.6454 988.3154,371.6454 988.4956,371.963 988.4956,371.963 988.6967,372.2846 988.6967,372.2846 988.9187,372.61 988.9187,372.61 989.1617,372.9393 989.1617,372.9393 989.4256,373.2724 989.4256,373.2724 989.7104,373.6094 989.7104,373.6094 990.0162,373.9503 990.0162,373.9503 990.3429,374.295 990.3429,374.295 990.6906,374.6436 990.6906,374.6436 994.079,377.9602 994.079,377.9602 994.371,378.2379 994.371,378.2379 994.6684,378.505 994.6684,378.505 994.9712,378.7613 994.9712,378.7613 995.2795,379.0069 995.2795,379.0069 995.5932,379.2418 995.5932,379.2418 995.9124,379.466 995.9124,379.466 996.2369,379.6794 996.2369,379.6794 996.567,379.8822 996.567,379.8822 996.9024,380.0742 996.9024,380.0742 997.2433,380.2555 997.2433,380.2555 997.5896,380.4261 997.5896,380.4261 997.9413,380.5859 997.9413,380.5859 998.2985,380.7351 998.2985,380.7351 998.6611,380.8735 998.6611,380.8735 999.0291,381.0012 999.0291,381.0012 999.4026,381.1182 999.4026,381.1182 999.7795,381.2246 999.7795,381.2246 1000.158,381.3204 1000.158,381.3204 1000.5379,381.4056 1000.5379,381.4056 1000.9193,381.4803 1000.9193,381.4803 1001.3022,381.5444 1001.3022,381.5444 1001.6866,381.5979 1001.6866,381.5979 1002.0725,381.6409 1002.0725,381.6409 1002.4599,381.6732 1002.4599,381.6732 1002.8488,381.6951 1002.8488,381.6951 1003.2391,381.7063 1003.2391,381.7063 1003.631,381.707 1003.631,381.707 1004.0244,381.6972 1004.0244,381.6972 1004.4192,381.6767 1004.4192,381.6767 1004.8155,381.6457 1004.8155,381.6457 1005.2134,381.6042 1005.2134,381.6042 1005.6127,381.552 1005.6127,381.552 1005.5304,381.9419 1005.5304,381.9419 1005.465,382.3311 1005.465,382.3311 1005.4164,382.7197 1005.4164,382.7197 1005.3846,383.1077 1005.3846,383.1077 1005.3696,383.495 1005.3696,383.495 1005.3715,383.8816 1005.3715,383.8816 1005.3901,384.2676 1005.3901,384.2676 1005.4256,384.653 1005.4256,384.653 1005.4779,385.0377 1005.4779,385.0377 1005.5469,385.4218 1005.5469,385.4218 1005.6531,385.8276 1005.6531,385.8276 1005.7614,386.2314 1005.7614,386.2314 1005.8718,386.6329 1005.8718,386.6329 1005.9843,387.0323 1005.9843,387.0323 1006.0989,387.4296 1006.0989,387.4296 1006.2156,387.8247 1006.2156,387.8247 1006.3345,388.2176 1006.3345,388.2176 1006.4554,388.6084 1006.4554,388.6084 1006.5785,388.9971 1006.5785,388.9971 1006.6613,389.0781 1006.6613,389.0781 1006.8279,389.4325 1006.8279,389.4325 1007.0041,389.7795 1007.0041,389.7795 1007.1897,390.1191 1007.1897,390.1191 1007.3848,390.4514 1007.3848,390.4514 1007.5893,390.7763 1007.5893,390.7763 1007.8033,391.0939 1007.8033,391.0939 1008.0267,391.404 1008.0267,391.404 1008.2596,391.7068 1008.2596,391.7068 1008.502,392.0023 1008.502,392.0023 1008.7538,392.2903 1008.7538,392.2903 1009.0151,392.571 1009.0151,392.571 1009.2859,392.8443 1009.2859,392.8443 1009.594,393.1049 1009.594,393.1049 1009.9233,393.3041 1009.9233,393.3041 1010.2739,393.4419 1010.2739,393.4419 1010.6456,393.5184 1010.6456,393.5184 1011.0386,393.5336 1011.0386,393.5336 1011.422,393.4955 1011.422,393.4955 1011.7875,393.4114 1011.7875,393.4114 1012.1351,393.2813 1012.1351,393.2813 1012.4649,393.1051 1012.4649,393.1051 1012.7767,392.883 1012.7767,392.883 1013.0707,392.6148 1013.0707,392.6148 1013.3451,392.2881 1013.3451,392.2881 1013.5527,391.9371 1013.5527,391.9371 1013.6935,391.5618 1013.6935,391.5618 1013.7675,391.1622 1013.7675,391.1622 1013.7747,390.7382 1013.7747,390.7382 1013.7819,390.3142 1013.7819,390.3142 1013.7214,389.9197 1013.7214,389.9197 1013.5931,389.5547 1013.5931,389.5547 1013.3972,389.2193 1013.3972,389.2193"/>
    <polygon points="1038.6828,343.9626 1009.6118,373.6641 1009.6118,373.6641 1009.4303,373.8392 1009.4303,373.8392 1009.1422,374.1025 1009.1422,374.1025 1008.7476,374.4539 1008.7476,374.4539 1008.2465,374.8934 1008.2465,374.8934 1007.9423,375.1367 1007.9423,375.1367 1007.6143,375.3638 1007.6143,375.3638 1007.2627,375.5746 1007.2627,375.5746 1006.8873,375.7692 1006.8873,375.7692 1006.4882,375.9476 1006.4882,375.9476 1006.0653,376.1097 1006.0653,376.1097 1005.6187,376.2555 1005.6187,376.2555 1005.2571,376.3535 1005.2571,376.3535 1004.8855,376.4332 1004.8855,376.4332 1004.5037,376.4945 1004.5037,376.4945 1004.1119,376.5376 1004.1119,376.5376 1003.7101,376.5624 1003.7101,376.5624 1003.2982,376.5689 1003.2982,376.5689 1002.8762,376.5571 1002.8762,376.5571 1002.4442,376.527 1002.4442,376.527 1002.0021,376.4786 1002.0021,376.4786 1001.6795,376.4087 1001.6795,376.4087 1001.3537,376.3144 1001.3537,376.3144 1001.0249,376.1957 1001.0249,376.1957 1000.693,376.0526 1000.693,376.0526 1000.358,375.885 1000.358,375.885 1000.02,375.6931 1000.02,375.6931 999.6788,375.4768 999.6788,375.4768 999.3346,375.2361 999.3346,375.2361 998.9872,374.971 998.9872,374.971 998.6368,374.6814 998.6368,374.6814 998.2833,374.3675 998.2833,374.3675 997.9267,374.0292 997.9267,374.0292 994.4556,370.6317 994.4556,370.6317 994.3729,370.5507 994.3729,370.5507 994.2904,370.47 994.2904,370.47 994.0118,370.227 994.0118,370.227 993.7507,369.9691 993.7507,369.9691 993.507,369.6964 993.507,369.6964 993.2808,369.4088 993.2808,369.4088 993.0719,369.1063 993.0719,369.1063 992.8805,368.789 992.8805,368.789 992.7066,368.4568 992.7066,368.4568 992.55,368.1097 992.55,368.1097 992.4109,367.7478 992.4109,367.7478 992.2892,367.3709 992.2892,367.3709 992.185,366.9793 992.185,366.9793 992.0981,366.5727 992.0981,366.5727 992.0287,366.1513 992.0287,366.1513 991.9768,365.715 991.9768,365.715 991.9422,365.2639 991.9422,365.2639 991.939,364.8743 991.939,364.8743 991.9533,364.4892 991.9533,364.4892 991.9852,364.1086 991.9852,364.1086 992.0346,363.7325 992.0346,363.7325 992.1016,363.361 992.1016,363.361 992.1862,362.9939 992.1862,362.9939 992.2883,362.6314 992.2883,362.6314 992.4079,362.2734 992.4079,362.2734 992.5452,361.9199 992.5452,361.9199 992.6999,361.5709 992.6999,361.5709 992.8723,361.2265 992.8723,361.2265 993.0622,360.8865 993.0622,360.8865 993.2696,360.5511 993.2696,360.5511 993.4946,360.2202 993.4946,360.2202 993.7372,359.8938 993.7372,359.8938 993.9973,359.5719 993.9973,359.5719 994.275,359.2545 994.275,359.2545 994.5702,358.9417 994.5702,358.9417 1017.8271,335.1806 1017.8271,335.1806 1018.1287,334.8893 1018.1287,334.8893 1018.4472,334.6146 1018.4472,334.6146 1018.7825,334.3563 1018.7825,334.3563 1019.1347,334.1146 1019.1347,334.1146 1019.5037,333.8894 1019.5037,333.8894 1019.8897,333.6807 1019.8897,333.6807 1020.2924,333.4885 1020.2924,333.4885 1020.6728,333.3556 1020.6728,333.3556 1021.0529,333.2385 1021.0529,333.2385 1021.4327,333.1372 1021.4327,333.1372 1021.8122,333.0517 1021.8122,333.0517 1022.1915,332.982 1022.1915,332.982 1022.5705,332.928 1022.5705,332.928 1022.9492,332.8898 1022.9492,332.8898 1023.3277,332.8673 1023.3277,332.8673 1023.7453,332.8592 1023.7453,332.8592 1024.1574,332.867 1024.1574,332.867 1024.564,332.8908 1024.564,332.8908 1024.965,332.9305 1024.965,332.9305 1025.3605,332.9862 1025.3605,332.9862 1025.7505,333.0579 1025.7505,333.0579 1026.135,333.1456 1026.135,333.1456 1026.514,333.2493 1026.514,333.2493 1026.9241,333.3701 1026.9241,333.3701 1027.3182,333.5126 1027.3182,333.5126 1027.6961,333.6767 1027.6961,333.6767 1028.0579,333.8624 1028.0579,333.8624 1028.4036,334.0698 1028.4036,334.0698 1028.7331,334.2989 1028.7331,334.2989 1029.0466,334.5495 1029.0466,334.5495 1029.3439,334.8218 1029.3439,334.8218"/>
    <polygon points="955.3406,445.527 949.1132,425.5149 949.1132,425.5149 962.0683,409.0399 962.0683,409.0399 941.1113,408.7784 941.1113,408.7784 929.4459,391.3663 929.4459,391.3663 922.7212,411.2167 922.7212,411.2167 902.5565,416.9306 902.5565,416.9306 919.3574,429.4603 919.3574,429.4603 918.5603,450.4037 918.5603,450.4037 935.6685,438.2971 935.6685,438.2971"/>
    <polygon points="907.3917,208.4113 923.7294,167.4202 923.7294,167.4202 966.7589,157.6403 966.7589,157.6403 932.8226,129.4354 932.8226,129.4354 936.8182,85.4897 936.8182,85.4897 899.5068,109.0492 899.5068,109.0492 858.9467,91.6692 858.9467,91.6692 869.8233,134.4347 869.8233,134.4347 840.7601,167.639 840.7601,167.639 884.7936,170.51 884.7936,170.51"/>
    <polygon points="1005.1465,84.0987 996.5909,79.8763 996.5909,79.8763 995.219,70.4346 995.219,70.4346 988.5594,77.2667 988.5594,77.2667 979.1559,75.6538 979.1559,75.6538 983.5956,84.0987 983.5956,84.0987 979.1559,92.5436 979.1559,92.5436 988.5594,90.9308 988.5594,90.9308 995.219,97.7628 995.219,97.7628 996.5909,88.3212 996.5909,88.3212"/>
  </g>
</svg>
