<?xml version="1.0" encoding="utf-8" ?>
<svg xmlns="http://www.w3.org/2000/svg" xmlns:cc="http://creativecommons.org/ns#" xmlns:dc="http://purl.org/dc/elements/1.1/" xmlns:ev="http://www.w3.org/2001/xml-events" xmlns:inkscape="http://www.inkscape.org/namespaces/inkscape" xmlns:rdf="http://www.w3.org/1999/02/22-rdf-syntax-ns#" xmlns:sodipodi="http://sodipodi.sourceforge.net/DTD/sodipodi-0.dtd" xmlns:xlink="http://www.w3.org/1999/xlink" baseProfile="tiny" height="23.00001242cm" version="1.2" viewBox="0 0 1322.83536 869.291808" width="35.0000189cm">
  <metadata>
    <rdf:RDF>
      <cc:Work>
        <dc:format>image/svg+xml</dc:format>
        <dc:source>vpype read sebi.svg deduplicate linesimplify linemerge linesort write sebi-optim.svg
</dc:source>
        <dc:date>2021-12-25T11:18:53.022172</dc:date>
      </cc:Work>
    </rdf:RDF>
  </metadata>
  <defs/>
  <g fill="none" id="layer1" inkscape:groupmode="layer" inkscape:label="1" stroke="#00f" style="display:inline">
    <polygon points="159.4316,248.7647 159.4316,286.56 159.4316,286.56 197.2269,286.56 197.2269,286.56 197.2269,248.7647 197.2269,248.7647"/>
    <polygon points="212.5747,248.7647 212.5747,286.56 212.5747,286.56 250.37,286.56 250.37,286.56 250.37,248.7647 250.37,248.7647"/>
    <polygon points="265.7179,248.7647 265.7179,286.56 265.7179,286.56 303.5132,286.56 303.5132,286.56 303.5132,248.7647 303.5132,248.7647"/>
    <polygon points="318.861,248.7647 318.861,286.56 318.861,286.56 356.6563,286.56 356.6563,286.56 356.6563,248.7647 356.6563,248.7647"/>
    <polygon points="372.0041,248.7647 372.0041,286.56 372.0041,286.56 409.7994,286.56 409.7994,286.56 409.7994,248.7647 409.7994,248.7647"/>
    <polygon points="425.1472,248.7647 425.1472,286.56 425.1472,286.56 462.9425,286.56 462.9425,286.56 462.9425,248.7647 462.9425,248.7647"/>
    <polygon points="478.2904,248.7647 478.2904,286.56 478.2904,286.56 516.0857,286.56 516.0857,286.56 516.0857,248.7647 516.0857,248.7647"/>
    <polygon points="531.4334,248.7647 531.4334,286.56 531.4334,286.56 569.2287,286.56 569.2287,286.56 569.2287,248.7647 569.2287,248.7647"/>
    <polygon points="531.4334,304.4259 531.4334,342.2212 531.4334,342.2212 569.2287,342.2212 569.2287,342.2212 569.2287,304.4259 569.2287,304.4259"/>
    <polygon points="478.2904,304.4259 478.2904,342.2212 478.2904,342.2212 516.0857,342.2212 516.0857,342.2212 516.0857,304.4259 516.0857,304.4259"/>
    <polygon points="425.1472,304.4259 425.1472,342.2212 425.1472,342.2212 462.9425,342.2212 462.9425,342.2212 462.9425,304.4259 462.9425,304.4259"/>
    <polygon points="372.0041,304.4259 372.0041,342.2212 372.0041,342.2212 409.7994,342.2212 409.7994,342.2212 409.7994,304.4259 409.7994,304.4259"/>
    <polygon points="318.861,304.4259 318.861,342.2212 318.861,342.2212 356.6563,342.2212 356.6563,342.2212 356.6563,304.4259 356.6563,304.4259"/>
    <polygon points="265.7179,304.4259 265.7179,342.2212 265.7179,342.2212 303.5132,342.2212 303.5132,342.2212 303.5132,304.4259 303.5132,304.4259"/>
    <polygon points="212.5747,304.4259 212.5747,342.2212 212.5747,342.2212 250.37,342.2212 250.37,342.2212 250.37,304.4259 250.37,304.4259"/>
    <polygon points="159.4316,304.4259 159.4316,342.2212 159.4316,342.2212 197.2269,342.2212 197.2269,342.2212 197.2269,304.4259 197.2269,304.4259"/>
    <polygon points="159.4316,360.0871 159.4316,397.8824 159.4316,397.8824 197.2269,397.8824 197.2269,397.8824 197.2269,360.0871 197.2269,360.0871"/>
    <polygon points="212.5747,360.0871 212.5747,397.8824 212.5747,397.8824 250.37,397.8824 250.37,397.8824 250.37,360.0871 250.37,360.0871"/>
    <polygon points="265.7179,360.0871 265.7179,397.8824 265.7179,397.8824 303.5132,397.8824 303.5132,397.8824 303.5132,360.0871 303.5132,360.0871"/>
    <polygon points="318.861,360.0871 318.861,397.8824 318.861,397.8824 356.6563,397.8824 356.6563,397.8824 356.6563,360.0871 356.6563,360.0871"/>
    <polygon points="372.0041,360.0871 372.0041,397.8824 372.0041,397.8824 409.7994,397.8824 409.7994,397.8824 409.7994,360.0871 409.7994,360.0871"/>
    <polygon points="425.1472,360.0871 425.1472,397.8824 425.1472,397.8824 462.9425,397.8824 462.9425,397.8824 462.9425,360.0871 462.9425,360.0871"/>
    <polygon points="478.2904,360.0871 478.2904,397.8824 478.2904,397.8824 516.0857,397.8824 516.0857,397.8824 516.0857,360.0871 516.0857,360.0871"/>
    <polygon points="531.4334,360.0871 531.4334,397.8824 531.4334,397.8824 569.2287,397.8824 569.2287,397.8824 569.2287,360.0871 569.2287,360.0871"/>
    <polygon points="531.4334,415.7483 531.4334,453.5436 531.4334,453.5436 569.2287,453.5436 569.2287,453.5436 569.2287,415.7483 569.2287,415.7483"/>
    <polygon points="478.2904,415.7483 478.2904,453.5436 478.2904,453.5436 516.0857,453.5436 516.0857,453.5436 516.0857,415.7483 516.0857,415.7483"/>
    <polygon points="425.1472,415.7483 425.1472,453.5436 425.1472,453.5436 462.9425,453.5436 462.9425,453.5436 462.9425,415.7483 462.9425,415.7483"/>
    <polygon points="372.0041,415.7483 372.0041,453.5436 372.0041,453.5436 409.7994,453.5436 409.7994,453.5436 409.7994,415.7483 409.7994,415.7483"/>
    <polygon points="318.861,415.7483 318.861,453.5436 318.861,453.5436 356.6563,453.5436 356.6563,453.5436 356.6563,415.7483 356.6563,415.7483"/>
    <polygon points="265.7179,415.7483 265.7179,453.5436 265.7179,453.5436 303.5132,453.5436 303.5132,453.5436 303.5132,415.7483 303.5132,415.7483"/>
    <polygon points="212.5747,415.7483 212.5747,453.5436 212.5747,453.5436 250.37,453.5436 250.37,453.5436 250.37,415.7483 250.37,415.7483"/>
    <polygon points="159.4316,415.7483 159.4316,453.5436 159.4316,453.5436 197.2269,453.5436 197.2269,453.5436 197.2269,415.7483 197.2269,415.7483"/>
    <polygon points="159.4316,471.4094 159.4316,509.2047 159.4316,509.2047 197.2269,509.2047 197.2269,509.2047 197.2269,471.4094 197.2269,471.4094"/>
    <polygon points="212.5747,471.4094 212.5747,509.2047 212.5747,509.2047 250.37,509.2047 250.37,509.2047 250.37,471.4094 250.37,471.4094"/>
    <polygon points="265.7179,471.4094 265.7179,509.2047 265.7179,509.2047 303.5132,509.2047 303.5132,509.2047 303.5132,471.4094 303.5132,471.4094"/>
    <polygon points="318.861,471.4094 318.861,509.2047 318.861,509.2047 356.6563,509.2047 356.6563,509.2047 356.6563,471.4094 356.6563,471.4094"/>
    <polygon points="372.0041,471.4094 372.0041,509.2047 372.0041,509.2047 409.7994,509.2047 409.7994,509.2047 409.7994,471.4094 409.7994,471.4094"/>
    <polygon points="425.1472,471.4094 425.1472,509.2047 425.1472,509.2047 462.9425,509.2047 462.9425,509.2047 462.9425,471.4094 462.9425,471.4094"/>
    <polygon points="478.2904,471.4094 478.2904,509.2047 478.2904,509.2047 516.0857,509.2047 516.0857,509.2047 516.0857,471.4094 516.0857,471.4094"/>
    <polygon points="531.4334,471.4094 531.4334,509.2047 531.4334,509.2047 569.2287,509.2047 569.2287,509.2047 569.2287,471.4094 569.2287,471.4094"/>
    <polygon points="531.4334,527.0706 531.4334,564.8659 531.4334,564.8659 569.2287,564.8659 569.2287,564.8659 569.2287,527.0706 569.2287,527.0706"/>
    <polygon points="478.2904,527.0706 478.2904,564.8659 478.2904,564.8659 516.0857,564.8659 516.0857,564.8659 516.0857,527.0706 516.0857,527.0706"/>
    <polygon points="425.1472,527.0706 425.1472,564.8659 425.1472,564.8659 462.9425,564.8659 462.9425,564.8659 462.9425,527.0706 462.9425,527.0706"/>
    <polygon points="372.0041,527.0706 372.0041,564.8659 372.0041,564.8659 409.7994,564.8659 409.7994,564.8659 409.7994,527.0706 409.7994,527.0706"/>
    <polygon points="318.861,527.0706 318.861,564.8659 318.861,564.8659 356.6563,564.8659 356.6563,564.8659 356.6563,527.0706 356.6563,527.0706"/>
    <polygon points="265.7179,527.0706 265.7179,564.8659 265.7179,564.8659 303.5132,564.8659 303.5132,564.8659 303.5132,527.0706 303.5132,527.0706"/>
    <polygon points="212.5747,527.0706 212.5747,564.8659 212.5747,564.8659 250.37,564.8659 250.37,564.8659 250.37,527.0706 250.37,527.0706"/>
    <polygon points="159.4316,527.0706 159.4316,564.8659 159.4316,564.8659 197.2269,564.8659 197.2269,564.8659 197.2269,527.0706 197.2269,527.0706"/>
    <polygon points="159.4316,582.7318 159.4316,620.5271 159.4316,620.5271 197.2269,620.5271 197.2269,620.5271 197.2269,582.7318 197.2269,582.7318"/>
    <polygon points="212.5747,582.7318 212.5747,620.5271 212.5747,620.5271 250.37,620.5271 250.37,620.5271 250.37,582.7318 250.37,582.7318"/>
    <polygon points="265.7179,582.7318 265.7179,620.5271 265.7179,620.5271 303.5132,620.5271 303.5132,620.5271 303.5132,582.7318 303.5132,582.7318"/>
    <polygon points="318.861,582.7318 318.861,620.5271 318.861,620.5271 356.6563,620.5271 356.6563,620.5271 356.6563,582.7318 356.6563,582.7318"/>
    <polygon points="372.0041,582.7318 372.0041,620.5271 372.0041,620.5271 409.7994,620.5271 409.7994,620.5271 409.7994,582.7318 409.7994,582.7318"/>
    <polygon points="425.1472,582.7318 425.1472,620.5271 425.1472,620.5271 462.9425,620.5271 462.9425,620.5271 462.9425,582.7318 462.9425,582.7318"/>
    <polygon points="478.2904,582.7318 478.2904,620.5271 478.2904,620.5271 516.0857,620.5271 516.0857,620.5271 516.0857,582.7318 516.0857,582.7318"/>
    <polygon points="531.4334,582.7318 531.4334,620.5271 531.4334,620.5271 569.2287,620.5271 569.2287,620.5271 569.2287,582.7318 569.2287,582.7318"/>
    <line x1="547.4266" x2="543.6266" y1="595.6494" y2="608.2494"/>
    <polyline points="544.2666,608.2494 548.0466,595.0094 548.0466,595.0094 538.5966,604.4694 538.5966,604.4694 548.6666,604.4694"/>
    <polyline points="553.1066,606.3594 553.7266,605.7294 553.7266,605.7294 553.1066,605.0894 553.1066,605.0894 552.4666,605.7294 552.4666,605.7294 552.4666,606.3594 552.4666,606.3594 553.1066,607.6194 553.1066,607.6194 554.3466,608.2494 554.3466,608.2494 556.2466,608.2494 556.2466,608.2494 557.5066,607.6194 557.5066,607.6194 558.7666,606.3594 558.7666,606.3594 560.0266,604.4694 560.0266,604.4694 560.6666,602.5694 560.6666,602.5694 561.2866,600.0494 561.2866,600.0494 561.2866,596.9094 561.2866,596.9094 560.6666,595.6494 560.6666,595.6494 559.3866,595.0094 559.3866,595.0094 557.5066,595.0094 557.5066,595.0094 556.2466,595.6494 556.2466,595.6494 554.9866,596.9094 554.9866,596.9094 554.3466,598.1694 554.3466,598.1694 554.3466,600.6894 554.3466,600.6894 554.9866,601.9494 554.9866,601.9494 556.2466,602.5694 556.2466,602.5694 558.1466,602.5694 558.1466,602.5694 559.3866,601.9494 559.3866,601.9494 560.6666,600.6894 560.6666,600.6894 561.2866,599.4294"/>
    <polyline points="560.6666,595.6494 561.2866,596.2894 561.2866,596.2894 561.9066,597.5294 561.9066,597.5294 561.9066,600.0494 561.9066,600.0494 561.2866,602.5694 561.2866,602.5694 560.6666,604.4694 560.6666,604.4694 559.3866,606.3594 559.3866,606.3594 558.1466,607.6194 558.1466,607.6194 556.2466,608.2494"/>
    <polyline points="554.9866,601.9494 554.3466,601.3294 554.3466,601.3294 553.7266,600.0494 553.7266,600.0494 553.7266,598.1694 553.7266,598.1694 554.3466,596.9094 554.3466,596.9094 555.6266,595.6494 555.6266,595.6494 557.5066,595.0094"/>
    <polygon points="773.9231,582.7318 773.9231,620.5271 773.9231,620.5271 811.7184,620.5271 811.7184,620.5271 811.7184,582.7318 811.7184,582.7318"/>
    <polygon points="827.0662,582.7318 827.0662,620.5271 827.0662,620.5271 864.8615,620.5271 864.8615,620.5271 864.8615,582.7318 864.8615,582.7318"/>
    <polygon points="880.2094,582.7318 880.2094,620.5271 880.2094,620.5271 918.0047,620.5271 918.0047,620.5271 918.0047,582.7318 918.0047,582.7318"/>
    <polygon points="933.3525,582.7318 933.3525,620.5271 933.3525,620.5271 971.1477,620.5271 971.1477,620.5271 971.1477,582.7318 971.1477,582.7318"/>
    <polygon points="986.4955,582.7318 986.4955,620.5271 986.4955,620.5271 1024.2908,620.5271 1024.2908,620.5271 1024.2908,582.7318 1024.2908,582.7318"/>
    <polygon points="1039.6387,582.7318 1039.6387,620.5271 1039.6387,620.5271 1077.434,620.5271 1077.434,620.5271 1077.434,582.7318 1077.434,582.7318"/>
    <polygon points="1092.7819,582.7318 1092.7819,620.5271 1092.7819,620.5271 1130.5772,620.5271 1130.5772,620.5271 1130.5772,582.7318 1130.5772,582.7318"/>
    <polygon points="1145.9249,582.7318 1145.9249,620.5271 1145.9249,620.5271 1183.7202,620.5271 1183.7202,620.5271 1183.7202,582.7318 1183.7202,582.7318"/>
    <line x1="1161.9976" x2="1158.1975" y1="595.6494" y2="608.2494"/>
    <polyline points="1158.8375,608.2494 1162.6175,595.0094 1162.6175,595.0094 1153.1675,604.4694 1153.1675,604.4694 1163.2375,604.4694"/>
    <polyline points="1167.6775,606.3594 1168.2976,605.7294 1168.2976,605.7294 1167.6775,605.0894 1167.6775,605.0894 1167.0376,605.7294 1167.0376,605.7294 1167.0376,606.3594 1167.0376,606.3594 1167.6775,607.6194 1167.6775,607.6194 1168.9176,608.2494 1168.9176,608.2494 1170.8176,608.2494 1170.8176,608.2494 1172.0776,607.6194 1172.0776,607.6194 1173.3376,606.3594 1173.3376,606.3594 1174.5976,604.4694 1174.5976,604.4694 1175.2376,602.5694 1175.2376,602.5694 1175.8576,600.0494 1175.8576,600.0494 1175.8576,596.9094 1175.8576,596.9094 1175.2376,595.6494 1175.2376,595.6494 1173.9576,595.0094 1173.9576,595.0094 1172.0776,595.0094 1172.0776,595.0094 1170.8176,595.6494 1170.8176,595.6494 1169.5576,596.9094 1169.5576,596.9094 1168.9176,598.1694 1168.9176,598.1694 1168.9176,600.6894 1168.9176,600.6894 1169.5576,601.9494 1169.5576,601.9494 1170.8176,602.5694 1170.8176,602.5694 1172.7175,602.5694 1172.7175,602.5694 1173.9576,601.9494 1173.9576,601.9494 1175.2376,600.6894 1175.2376,600.6894 1175.8576,599.4294"/>
    <polyline points="1175.2376,595.6494 1175.8576,596.2894 1175.8576,596.2894 1176.4776,597.5294 1176.4776,597.5294 1176.4776,600.0494 1176.4776,600.0494 1175.8576,602.5694 1175.8576,602.5694 1175.2376,604.4694 1175.2376,604.4694 1173.9576,606.3594 1173.9576,606.3594 1172.7175,607.6194 1172.7175,607.6194 1170.8176,608.2494"/>
    <polyline points="1169.5576,601.9494 1168.9176,601.3294 1168.9176,601.3294 1168.2976,600.0494 1168.2976,600.0494 1168.2976,598.1694 1168.2976,598.1694 1168.9176,596.9094 1168.9176,596.9094 1170.1975,595.6494 1170.1975,595.6494 1172.0776,595.0094"/>
    <polygon points="1145.9249,527.0706 1145.9249,564.8659 1145.9249,564.8659 1183.7202,564.8659 1183.7202,564.8659 1183.7202,527.0706 1183.7202,527.0706"/>
    <polygon points="1092.7819,527.0706 1092.7819,564.8659 1092.7819,564.8659 1130.5772,564.8659 1130.5772,564.8659 1130.5772,527.0706 1130.5772,527.0706"/>
    <polygon points="1039.6387,527.0706 1039.6387,564.8659 1039.6387,564.8659 1077.434,564.8659 1077.434,564.8659 1077.434,527.0706 1077.434,527.0706"/>
    <polygon points="986.4955,527.0706 986.4955,564.8659 986.4955,564.8659 1024.2908,564.8659 1024.2908,564.8659 1024.2908,527.0706 1024.2908,527.0706"/>
    <polygon points="933.3525,527.0706 933.3525,564.8659 933.3525,564.8659 971.1477,564.8659 971.1477,564.8659 971.1477,527.0706 971.1477,527.0706"/>
    <polygon points="880.2094,527.0706 880.2094,564.8659 880.2094,564.8659 918.0047,564.8659 918.0047,564.8659 918.0047,527.0706 918.0047,527.0706"/>
    <polygon points="827.0662,527.0706 827.0662,564.8659 827.0662,564.8659 864.8615,564.8659 864.8615,564.8659 864.8615,527.0706 864.8615,527.0706"/>
    <polygon points="773.9231,527.0706 773.9231,564.8659 773.9231,564.8659 811.7184,564.8659 811.7184,564.8659 811.7184,527.0706 811.7184,527.0706"/>
    <polygon points="773.9231,471.4094 773.9231,509.2047 773.9231,509.2047 811.7184,509.2047 811.7184,509.2047 811.7184,471.4094 811.7184,471.4094"/>
    <polygon points="827.0662,471.4094 827.0662,509.2047 827.0662,509.2047 864.8615,509.2047 864.8615,509.2047 864.8615,471.4094 864.8615,471.4094"/>
    <polygon points="880.2094,471.4094 880.2094,509.2047 880.2094,509.2047 918.0047,509.2047 918.0047,509.2047 918.0047,471.4094 918.0047,471.4094"/>
    <polygon points="933.3525,471.4094 933.3525,509.2047 933.3525,509.2047 971.1477,509.2047 971.1477,509.2047 971.1477,471.4094 971.1477,471.4094"/>
    <polygon points="986.4955,471.4094 986.4955,509.2047 986.4955,509.2047 1024.2908,509.2047 1024.2908,509.2047 1024.2908,471.4094 1024.2908,471.4094"/>
    <polygon points="1039.6387,471.4094 1039.6387,509.2047 1039.6387,509.2047 1077.434,509.2047 1077.434,509.2047 1077.434,471.4094 1077.434,471.4094"/>
    <polygon points="1092.7819,471.4094 1092.7819,509.2047 1092.7819,509.2047 1130.5772,509.2047 1130.5772,509.2047 1130.5772,471.4094 1130.5772,471.4094"/>
    <polygon points="1145.9249,471.4094 1145.9249,509.2047 1145.9249,509.2047 1183.7202,509.2047 1183.7202,509.2047 1183.7202,471.4094 1183.7202,471.4094"/>
    <polygon points="1145.9249,415.7483 1145.9249,453.5436 1145.9249,453.5436 1183.7202,453.5436 1183.7202,453.5436 1183.7202,415.7483 1183.7202,415.7483"/>
    <polygon points="1092.7819,415.7483 1092.7819,453.5436 1092.7819,453.5436 1130.5772,453.5436 1130.5772,453.5436 1130.5772,415.7483 1130.5772,415.7483"/>
    <polygon points="1039.6387,415.7483 1039.6387,453.5436 1039.6387,453.5436 1077.434,453.5436 1077.434,453.5436 1077.434,415.7483 1077.434,415.7483"/>
    <polygon points="986.4955,415.7483 986.4955,453.5436 986.4955,453.5436 1024.2908,453.5436 1024.2908,453.5436 1024.2908,415.7483 1024.2908,415.7483"/>
    <polygon points="933.3525,415.7483 933.3525,453.5436 933.3525,453.5436 971.1477,453.5436 971.1477,453.5436 971.1477,415.7483 971.1477,415.7483"/>
    <polygon points="880.2094,415.7483 880.2094,453.5436 880.2094,453.5436 918.0047,453.5436 918.0047,453.5436 918.0047,415.7483 918.0047,415.7483"/>
    <polygon points="827.0662,415.7483 827.0662,453.5436 827.0662,453.5436 864.8615,453.5436 864.8615,453.5436 864.8615,415.7483 864.8615,415.7483"/>
    <polygon points="773.9231,415.7483 773.9231,453.5436 773.9231,453.5436 811.7184,453.5436 811.7184,453.5436 811.7184,415.7483 811.7184,415.7483"/>
    <polygon points="773.9231,360.0871 773.9231,397.8824 773.9231,397.8824 811.7184,397.8824 811.7184,397.8824 811.7184,360.0871 811.7184,360.0871"/>
    <polygon points="827.0662,360.0871 827.0662,397.8824 827.0662,397.8824 864.8615,397.8824 864.8615,397.8824 864.8615,360.0871 864.8615,360.0871"/>
    <polygon points="880.2094,360.0871 880.2094,397.8824 880.2094,397.8824 918.0047,397.8824 918.0047,397.8824 918.0047,360.0871 918.0047,360.0871"/>
    <polygon points="933.3525,360.0871 933.3525,397.8824 933.3525,397.8824 971.1477,397.8824 971.1477,397.8824 971.1477,360.0871 971.1477,360.0871"/>
    <polygon points="986.4955,360.0871 986.4955,397.8824 986.4955,397.8824 1024.2908,397.8824 1024.2908,397.8824 1024.2908,360.0871 1024.2908,360.0871"/>
    <polygon points="1039.6387,360.0871 1039.6387,397.8824 1039.6387,397.8824 1077.434,397.8824 1077.434,397.8824 1077.434,360.0871 1077.434,360.0871"/>
    <polygon points="1092.7819,360.0871 1092.7819,397.8824 1092.7819,397.8824 1130.5772,397.8824 1130.5772,397.8824 1130.5772,360.0871 1130.5772,360.0871"/>
    <polygon points="1145.9249,360.0871 1145.9249,397.8824 1145.9249,397.8824 1183.7202,397.8824 1183.7202,397.8824 1183.7202,360.0871 1183.7202,360.0871"/>
    <polygon points="1145.9249,304.4259 1145.9249,342.2212 1145.9249,342.2212 1183.7202,342.2212 1183.7202,342.2212 1183.7202,304.4259 1183.7202,304.4259"/>
    <polygon points="1092.7819,304.4259 1092.7819,342.2212 1092.7819,342.2212 1130.5772,342.2212 1130.5772,342.2212 1130.5772,304.4259 1130.5772,304.4259"/>
    <polygon points="1039.6387,304.4259 1039.6387,342.2212 1039.6387,342.2212 1077.434,342.2212 1077.434,342.2212 1077.434,304.4259 1077.434,304.4259"/>
    <polygon points="986.4955,304.4259 986.4955,342.2212 986.4955,342.2212 1024.2908,342.2212 1024.2908,342.2212 1024.2908,304.4259 1024.2908,304.4259"/>
    <polygon points="933.3525,304.4259 933.3525,342.2212 933.3525,342.2212 971.1477,342.2212 971.1477,342.2212 971.1477,304.4259 971.1477,304.4259"/>
    <polygon points="880.2094,304.4259 880.2094,342.2212 880.2094,342.2212 918.0047,342.2212 918.0047,342.2212 918.0047,304.4259 918.0047,304.4259"/>
    <polygon points="827.0662,304.4259 827.0662,342.2212 827.0662,342.2212 864.8615,342.2212 864.8615,342.2212 864.8615,304.4259 864.8615,304.4259"/>
    <polygon points="773.9231,304.4259 773.9231,342.2212 773.9231,342.2212 811.7184,342.2212 811.7184,342.2212 811.7184,304.4259 811.7184,304.4259"/>
    <polygon points="773.9231,248.7647 773.9231,286.56 773.9231,286.56 811.7184,286.56 811.7184,286.56 811.7184,248.7647 811.7184,248.7647"/>
    <polygon points="827.0662,248.7647 827.0662,286.56 827.0662,286.56 864.8615,286.56 864.8615,286.56 864.8615,248.7647 864.8615,248.7647"/>
    <polygon points="880.2094,248.7647 880.2094,286.56 880.2094,286.56 918.0047,286.56 918.0047,286.56 918.0047,248.7647 918.0047,248.7647"/>
    <polygon points="933.3525,248.7647 933.3525,286.56 933.3525,286.56 971.1477,286.56 971.1477,286.56 971.1477,248.7647 971.1477,248.7647"/>
    <polygon points="986.4955,248.7647 986.4955,286.56 986.4955,286.56 1024.2908,286.56 1024.2908,286.56 1024.2908,248.7647 1024.2908,248.7647"/>
    <polygon points="1039.6387,248.7647 1039.6387,286.56 1039.6387,286.56 1077.434,286.56 1077.434,286.56 1077.434,248.7647 1077.434,248.7647"/>
    <polygon points="1092.7819,248.7647 1092.7819,286.56 1092.7819,286.56 1130.5772,286.56 1130.5772,286.56 1130.5772,248.7647 1130.5772,248.7647"/>
    <polygon points="1145.9249,248.7647 1145.9249,286.56 1145.9249,286.56 1183.7202,286.56 1183.7202,286.56 1183.7202,248.7647 1183.7202,248.7647"/>
  </g>
</svg>
