<?xml version="1.0" encoding="UTF-8" standalone="no"?>
<svg
   height="105mm"
   version="1.2"
   viewBox="0 0 559.37005 396.85039"
   width="148mm"
   id="svg26073"
   sodipodi:docname="output-black-coloured.svg"
   inkscape:version="1.1.2 (0a00cf5339, 2022-02-04, custom)"
   xmlns:inkscape="http://www.inkscape.org/namespaces/inkscape"
   xmlns:sodipodi="http://sodipodi.sourceforge.net/DTD/sodipodi-0.dtd"
   xmlns="http://www.w3.org/2000/svg"
   xmlns:svg="http://www.w3.org/2000/svg"
   xmlns:dc="http://purl.org/dc/elements/1.1/"
   xmlns:ns="http://www.w3.org/1999/02/22-rdf-syntax-ns"
   xmlns:ns0="http://creativecommons.org/ns">
  <sodipodi:namedview
     id="namedview26075"
     pagecolor="#000000"
     bordercolor="#666666"
     borderopacity="1.0"
     inkscape:pageshadow="2"
     inkscape:pageopacity="0"
     inkscape:pagecheckerboard="0"
     inkscape:document-units="cm"
     showgrid="false"
     units="mm"
     inkscape:zoom="1.3839662"
     inkscape:cx="251.08995"
     inkscape:cy="149.57013"
     inkscape:current-layer="layer4" />
  <metadata
     id="metadata25636">
    <ns:RDF>
      <ns0:Work>
        <dc:format>image/svg+xml</dc:format>
        <dc:source>vpype flow_img -tm --min_sep 10 --min_length 6 horse-transparent-black.png write output-black.svg
</dc:source>
        <dc:date>2022-05-12T18:36:46.553129</dc:date>
      </ns0:Work>
    </ns:RDF>
  </metadata>
  <defs
     id="defs25638" />
  <g
     inkscape:groupmode="layer"
     id="layer2"
     inkscape:label="1  red"
     style="display:inline">
    <path
       id="polyline25642"
       style="display:inline;stroke:#ff5f00;stroke-width:1.88976;stroke-miterlimit:4;stroke-dasharray:none;stroke-opacity:1"
       d="m 283.41133,172.91226 -2.75996,2.04369 -2.73033,2.08273 -2.70024,2.12206 -2.66852,2.16156 -2.63695,2.2003 -2.60865,2.23352 -2.57276,2.27496 -2.53702,2.31459 -2.50514,2.3493 -2.505,2.34931 -2.46851,2.38791 -2.42919,2.42769 -2.39598,2.46062 -2.3583,2.49668 -2.31958,2.53304 -2.28101,2.56761 -2.23766,2.60545 -2.19791,2.63929" />
    <path
       id="polyline25648"
       style="display:inline;stroke:#ff5f00;stroke-width:1.88976;stroke-miterlimit:4;stroke-dasharray:none;stroke-opacity:1"
       d="m 248.59918,180.54193 -2.44811,2.40876 -2.41489,2.442 -2.37304,2.48267 -2.33865,2.51531 -2.29679,2.55345 -2.25658,2.58922 -2.21682,2.62334 -2.21667,2.62334 -2.17511,2.65821 -2.13432,2.69084 -2.09663,2.7205 -2.0512,2.75491 -2.00907,2.78576 -1.96006,2.82064 -1.91479,2.85147 -1.86996,2.88113"
       sodipodi:nodetypes="ccccccccccccccccc" />
    <path
       id="polyline25654"
       style="display:inline;stroke:#ff5f00;stroke-width:1.88976;stroke-miterlimit:4;stroke-dasharray:none;stroke-opacity:1"
       d="m 216.44289,234.1293 -1.7188,2.97381 -1.67114,3.00108 -1.62333,3.02702 -1.58059,3.04981 -1.53546,3.0726 -1.48126,3.09914 -1.43062,3.12297 -1.38489,3.14339 -1.33933,3.16321 -1.33932,3.1632 -1.29614,3.18124 -1.2443,3.2018" />
    <path
       id="polyline25660"
       style="display:inline;stroke:#ff5f00;stroke-width:1.88976;stroke-miterlimit:4;stroke-dasharray:none;stroke-opacity:1"
       d="m 177.43762,258.0943 -0.97474,3.29404 -0.92158,3.30924 -0.87407,3.3222 -0.82596,3.33442 -0.77786,3.34605 -0.72901,3.35692 -0.67957,3.36735 -0.63488,3.37615" />
    <path
       id="polyline25666"
       style="display:inline;stroke:#ff5f00;stroke-width:1.88976;stroke-miterlimit:4;stroke-dasharray:none;stroke-opacity:1"
       d="m 216.30915,182.25839 -2.13997,2.68652 -2.09678,2.72034 -2.05285,2.75358 -2.00801,2.78651 -1.96394,2.81795 -1.91896,2.84864 -1.87472,2.878 -1.8299,2.90676 -1.77792,2.93895 -1.77793,2.93894"
       sodipodi:nodetypes="ccccccccccc" />
    <path
       id="polyline25672"
       style="display:inline;stroke:#ff5f00;stroke-width:1.88976;stroke-miterlimit:4;stroke-dasharray:none;stroke-opacity:1"
       d="m 283.43263,152.69161 -2.85886,1.90242 -2.83219,1.94206 -2.80479,1.9814 -2.77665,2.02074 -2.7476,2.05993 -2.71796,2.09927 -2.68729,2.13831 -2.65527,2.17795 -2.6222,2.21758 -2.62235,2.21743 -2.58736,2.25841" />
    <path
       id="polyline25678"
       style="display:inline;stroke:#ff5f00;stroke-width:1.88976;stroke-miterlimit:4;stroke-dasharray:none;stroke-opacity:1"
       d="m 372.95661,114.97154 -3.3326,0.82611 -3.32336,0.86307 -3.31473,0.89586" />
    <path
       id="polyline25680"
       style="display:inline;stroke:#ff5f00;stroke-width:1.88976;stroke-miterlimit:4;stroke-dasharray:none;stroke-opacity:1"
       d="m 365.38979,124.54133 -3.29938,0.95054 -3.28837,0.98809 -3.27749,1.024 -3.26573,1.06066 -3.25277,1.09986 -3.23863,1.14082 -3.22656,1.17421 -3.22671,1.17421 -3.21226,1.2134 -3.19677,1.25348 -3.18204,1.29029 -3.16549,1.33037 -3.15031,1.36613 -3.13259,1.40637 -3.11427,1.4466"
       sodipodi:nodetypes="cccccccccccccccc" />
    <path
       id="polyline25684"
       style="display:inline;stroke:#ff5f00;stroke-width:1.88976;stroke-miterlimit:4;stroke-dasharray:none;stroke-opacity:1"
       d="m 357.90489,142.14445 -3.24473,1.1234 -3.23148,1.1605 -3.21777,1.19849 -3.20213,1.23977 -3.18725,1.27748 -3.17041,1.31874 -3.15493,1.35541 -3.1369,1.39668 -3.13691,1.39668 -3.11829,1.43781 -3.10116,1.47461 -3.08076,1.51664 -3.06065,1.55672 -3.04174,1.59352 -3.01984,1.6348 -2.99825,1.67384 -2.97458,1.71572"
       sodipodi:nodetypes="cccccccccccccccccc" />
    <path
       id="polyline25690"
       style="display:inline;stroke:#ff5f00;stroke-width:1.88976;stroke-miterlimit:4;stroke-dasharray:none;stroke-opacity:1"
       d="m 398.24576,154.01348 -3.35047,0.75117 -3.34124,0.7908 -3.33081,0.83387 -3.32009,0.87529 -3.31041,0.91165 -3.29819,0.95471 -3.28628,0.99525 -3.27303,1.03771 -3.26141,1.07392 -3.26141,1.07393 -3.24667,1.11743 -3.23192,1.15975 -3.21747,1.19954 -3.20244,1.23873 -3.1856,1.2815 -3.16818,1.32426 -3.15195,1.36226 -3.13318,1.40487" />
    <path
       id="polyline25696"
       style="display:inline;stroke:#ff5f00;stroke-width:1.88976;stroke-miterlimit:4;stroke-dasharray:none;stroke-opacity:1"
       d="m 443.70772,161.98364 -3.4233,0.26405 -3.42002,0.30324 -3.41615,0.34496 -3.41183,0.38534 -3.40676,0.42721 -3.40677,0.42737 -3.4014,0.46908" />
    <path
       id="polyline25702"
       style="display:inline;stroke:#ff5f00;stroke-width:1.88976;stroke-miterlimit:4;stroke-dasharray:none;stroke-opacity:1"
       d="m 451.59175,145.31779 -3.43253,0.0808 -3.43148,0.11935" />
    <path
       id="polyline25708"
       style="display:inline;stroke:#ff5f00;stroke-width:1.88976;stroke-miterlimit:4;stroke-dasharray:none;stroke-opacity:1"
       d="m 513.98672,135.31319 -3.38041,-0.60141 -3.38576,-0.57071" />
    <path
       id="polyline25714"
       style="display:inline;stroke:#ff5f00;stroke-width:1.88976;stroke-miterlimit:4;stroke-dasharray:none;stroke-opacity:1"
       d="m 515.9438,119.89725 -3.37117,-0.65163 -3.37772,-0.61705 -3.38369,-0.58219 -3.38889,-0.55194 -3.3944,-0.51692 -3.39962,-0.48101 -3.40453,-0.44584 -3.40885,-0.41067 -3.40885,-0.41053 -3.41302,-0.37446"
       sodipodi:nodetypes="ccccccccccc" />
    <path
       id="polyline25720"
       style="display:inline;stroke:#ff5f00;stroke-width:1.88976;stroke-miterlimit:4;stroke-dasharray:none;stroke-opacity:1"
       d="m 518.61202,97.727078 -3.35836,-0.714359 -3.36551,-0.680832 -3.37192,-0.647006 -3.37206,-0.647155 -3.37832,-0.613181 -3.38353,-0.584123 -3.3892,-0.549553 -3.3947,-0.515579 -3.39947,-0.481454 -3.40423,-0.44763 -3.40855,-0.413059 -3.41257,-0.378935" />
    <path
       id="polyline25726"
       style="display:inline;stroke:#ff5f00;stroke-width:1.88976;stroke-miterlimit:4;stroke-dasharray:none;stroke-opacity:1"
       d="m 444.21244,81.394717 -3.43342,0.0043 -3.43328,0.03755 -3.43327,0.0374 -3.43283,0.07063 -3.43194,0.103413 -3.43074,0.136345 -3.42925,0.170767 -3.42747,0.202953 -3.42538,0.235289 -3.423,0.269263 -3.42017,0.301449" />
    <path
       id="polyline25732"
       style="display:inline;stroke:#ff5f00;stroke-width:1.88976;stroke-miterlimit:4;stroke-dasharray:none;stroke-opacity:1"
       d="m 485.19758,61.68353 -3.40707,-0.424532 -3.41108,-0.391899 -3.41421,-0.364034 -3.41749,-0.331699 -3.42032,-0.299661 -3.42315,-0.267475 -3.42538,-0.235289 -3.42746,-0.203996 -3.42911,-0.172108 -3.4291,-0.172257 -3.4306,-0.140368 -3.43178,-0.108778 -3.43268,-0.07734 -3.43313,-0.04604 -3.43342,-0.0149 -3.43357,0.01594 -3.43313,0.04664 -3.43253,0.07704" />
    <path
       id="polyline25738"
       style="display:inline;fill:none;stroke:#ff5f00;stroke-width:1.88976;stroke-miterlimit:4;stroke-dasharray:none;stroke-opacity:1"
       d="m 479.78666,38.315462 -3.41078,-0.394879 -3.41421,-0.363736 -3.41719,-0.333189 -3.42017,-0.302344" />
    <path
       id="polyline25760"
       style="display:inline;stroke:#ff5f00;stroke-width:1.88976;stroke-miterlimit:4;stroke-dasharray:none;stroke-opacity:1"
       d="m 183.45438,183.88767 -1.77673,2.9397 -1.72624,2.96949 -1.68172,2.99512 -1.62676,3.02522 -1.57999,3.04996 -1.52995,3.07544" />
    <path
       id="line25766"
       style="display:inline;stroke:#ff5f00;stroke-width:1.88977;stroke-miterlimit:4;stroke-dasharray:none;stroke-opacity:1"
       d="m 207.74375,129.55972 -2.5388,2.31266" />
    <path
       id="polyline25772"
       style="display:inline;stroke:#ff5f00;stroke-width:1.88976;stroke-miterlimit:4;stroke-dasharray:none;stroke-opacity:1"
       d="m 240.37052,131.047 -2.71141,2.10746 -2.68401,2.14249 -2.6511,2.18286 -2.61818,2.2225 -2.58095,2.26556 -2.54938,2.30103 -2.51021,2.34395 -2.47342,2.38269 -2.47328,2.38268 -2.43574,2.42128 -2.39613,2.46048 -2.35562,2.49921 -2.31615,2.53602 -2.2749,2.57312 -2.23186,2.61053 -2.18882,2.64658 -2.14087,2.68593"
       sodipodi:nodetypes="cccccccccccccccccc" />
    <path
       id="polyline25778"
       style="display:inline;stroke:#ff5f00;stroke-width:1.88976;stroke-miterlimit:4;stroke-dasharray:none;stroke-opacity:1"
       d="m 258.47426,126.54806 -2.84903,1.91717 -2.81894,1.96129 -2.81879,1.96143 -2.79109,2.00077" />
    <path
       id="line25784"
       style="display:inline;stroke:#ff5f00;stroke-width:1.88977;stroke-miterlimit:4;stroke-dasharray:none;stroke-opacity:1"
       d="m 125.44533,198.60631 -2.92515,5.9963"
       sodipodi:nodetypes="cc" />
    <path
       id="polyline25818"
       style="display:inline;stroke:#ff5f00;stroke-width:1.88976;stroke-miterlimit:4;stroke-dasharray:none;stroke-opacity:1"
       d="m 166.59004,157.36355 -1.85358,2.89171 -1.80205,2.92419 -1.75231,2.95415 -1.69467,2.98767 -1.64671,3.0145 -1.5937,3.0428 -1.54068,3.07008 -1.48259,3.09853 -1.48245,3.09854 -1.43329,3.12178"
       sodipodi:nodetypes="ccccccccccc" />
    <path
       id="polyline25824"
       style="display:inline;stroke:#ff5f00;stroke-width:1.88976;stroke-miterlimit:4;stroke-dasharray:none;stroke-opacity:1"
       d="m 187.50065,137.25242 -2.26567,2.58117 -2.26581,2.58117 -2.22039,2.62021" />
    <path
       id="polyline25832"
       style="display:inline;stroke:#ff5f00;stroke-width:1.88976;stroke-miterlimit:4;stroke-dasharray:none;stroke-opacity:1"
       d="m 414.26999,91.081034 -3.41809,0.324099 -3.41495,0.35718 -3.41109,0.391899 -3.40691,0.42647 -3.4026,0.45955 -3.40259,0.45955 -3.39783,0.493972 -3.39262,0.528244 -3.3874,0.561027 -3.38219,0.591425 -3.37594,0.625996" />
    <path
       id="polyline25838"
       style="display:inline;stroke:#ff5f00;stroke-width:1.88976;stroke-miterlimit:4;stroke-dasharray:none;stroke-opacity:1"
       d="m 431.18527,111.75319 -3.42598,0.22725 -3.42345,0.263 -3.42031,0.29966 -3.42047,0.29966 -3.41704,0.33602 -3.41332,0.37164 -3.409,0.40888 -3.40438,0.44599 -3.39962,0.48176 -3.39425,0.51751 -3.38875,0.55328 -3.38234,0.59068" />
    <path
       id="polyline25844"
       style="display:inline;stroke:#ff5f00;stroke-width:1.88976;stroke-miterlimit:4;stroke-dasharray:none;stroke-opacity:1"
       d="m 420.06573,135.09414 -3.40646,0.43035 -3.40126,0.46968 -3.4011,0.46983 -3.3959,0.50768 -3.38949,0.54747" />
    <path
       id="polyline25850"
       style="display:inline;stroke:#ff5f00;stroke-width:1.88976;stroke-miterlimit:4;stroke-dasharray:none;stroke-opacity:1"
       d="m 390.35546,124.42793 -3.36104,0.70154 -3.35404,0.73492 -3.3539,0.73508 -3.34541,0.77292" />
    <path
       id="polyline25856"
       style="display:inline;stroke:#ff5f00;stroke-width:1.88976;stroke-miterlimit:4;stroke-dasharray:none;stroke-opacity:1"
       d="m 429.73559,96.885165 -3.42821,0.191181 -3.42613,0.225156 -3.42345,0.260919 -3.42076,0.295042 -3.41764,0.330804 -3.41406,0.36463 -3.41406,0.36463 -3.41005,0.400095" />
    <path
       id="polyline25862"
       style="display:inline;stroke:#ff5f00;stroke-width:1.88976;stroke-miterlimit:4;stroke-dasharray:none;stroke-opacity:1"
       d="m 194.17508,177.49212 -1.95515,2.82391 -1.90883,2.85565 -1.90883,2.8555 -1.86147,2.88664" />
    <path
       id="polyline25868"
       style="display:inline;stroke:#ff5f00;stroke-width:1.88976;stroke-miterlimit:4;stroke-dasharray:none;stroke-opacity:1"
       d="m 188.32527,340.58103 -0.15712,3.43173 -0.098,3.43396 -0.0387,3.43515 0.0223,3.43515" />
    <path
       id="line25874"
       style="display:inline;stroke:#ff5f00;stroke-width:1.88977;stroke-miterlimit:4;stroke-dasharray:none;stroke-opacity:1"
       d="m 211.5425,331.81066 -0.70771,3.36156" />
    <path
       id="polyline25876"
       style="display:inline;stroke:#ff5f00;stroke-width:1.88976;stroke-miterlimit:4;stroke-dasharray:none;stroke-opacity:1"
       d="m 240.23038,276.32223 -1.68574,2.99274 -1.63778,3.01927 -1.59429,3.0425 -1.54574,3.06755 -1.54589,3.06739 -1.49168,3.09421 -1.43896,3.1191" />
    <path
       id="polyline25880"
       style="display:inline;stroke:#ff5f00;stroke-width:1.88976;stroke-miterlimit:4;stroke-dasharray:none;stroke-opacity:1"
       d="m 318.52432,225.92489 -2.80017,1.98781 -2.77144,2.02789 -2.74164,2.06798 -2.71126,2.10791" />
    <path
       id="polyline25886"
       style="display:inline;stroke:#ff5f00;stroke-width:1.88976;stroke-miterlimit:4;stroke-dasharray:none;stroke-opacity:1"
       d="m 382.50032,201.67036 -3.23847,1.14142 -3.22418,1.18107 -3.2072,1.22636 -3.18963,1.27151 -3.17309,1.31234 -3.15403,1.35749 -3.13661,1.39713 -3.11635,1.44198 -3.09789,1.48147 -3.09774,1.48162 -3.07569,1.52676 -3.05455,1.56864 -3.03131,1.61335 -3.01061,1.65178 -2.98425,1.69888 -2.96132,1.73836 -2.93749,1.77875 -2.91023,1.8227" />
    <path
       id="polyline25892"
       style="display:inline;stroke:#ff5f00;stroke-width:1.88976;stroke-miterlimit:4;stroke-dasharray:none;stroke-opacity:1"
       d="m 435.71198,203.80465 -3.39738,0.49695 -3.39053,0.54135 -3.38413,0.58011 -3.37623,0.6251 -3.3676,0.66995 -3.35822,0.71481 -3.34868,0.75861 -3.33855,0.80258 -3.32694,0.84891 -3.32694,0.84907 -3.31532,0.89377" />
    <path
       id="polyline25898"
       style="display:inline;stroke:#ff5f00;stroke-width:1.88976;stroke-miterlimit:4;stroke-dasharray:none;stroke-opacity:1"
       d="m 421.64186,229.07037 -3.35301,0.73924 -3.34287,0.78425 -3.33156,0.83059 -3.31979,0.87678 -3.30862,0.91806 -3.30862,0.91805 -3.29536,0.9644 -3.28197,1.0094 -3.26736,1.0553 -3.25411,1.09583 -3.23774,1.14351 -3.2209,1.1897 -3.20362,1.2359 -3.18769,1.27628" />
    <path
       id="polyline25904"
       style="display:inline;stroke:#ff5f00;stroke-width:1.88976;stroke-miterlimit:4;stroke-dasharray:none;stroke-opacity:1"
       d="m 439.77702,176.94599 -3.41868,0.31889 -3.41436,0.3618 -3.40975,0.40352 -3.40438,0.44643 -3.39842,0.48936 -3.39217,0.53107" />
    <path
       id="polyline25910"
       style="display:inline;stroke:#ff5f00;stroke-width:1.88976;stroke-miterlimit:4;stroke-dasharray:none;stroke-opacity:1"
       d="m 379.42582,181.20369 -3.25665,1.08808 -3.24249,1.12965 -3.24265,1.12965 -3.22671,1.17391 -3.21196,1.21399 -3.19588,1.25557 -3.17861,1.29908 -3.16177,1.33916 -3.14287,1.38327" />
    <path
       id="polyline25916"
       style="display:inline;stroke:#ff5f00;stroke-width:1.88976;stroke-miterlimit:4;stroke-dasharray:none;stroke-opacity:1"
       d="m 307.65469,207.20925 -2.78468,2.00971 -2.7555,2.04935 -2.75565,2.04935 -2.72571,2.08899 -2.69309,2.13101 -2.66256,2.169 -2.63516,2.20224 -2.60151,2.24187 -2.56725,2.28121" />
    <path
       id="polyline25922"
       style="display:inline;stroke:#ff5f00;stroke-width:1.88976;stroke-miterlimit:4;stroke-dasharray:none;stroke-opacity:1"
       d="m 287.0406,202.22647 -2.64693,2.18808 -2.61535,2.22578 -2.58095,2.26571 -2.54521,2.30565 -2.51468,2.33903 -2.47833,2.37762 -2.44379,2.41308 -2.40417,2.45258 -2.37052,2.48505 -2.37066,2.48506 -2.32955,2.52365 -2.29188,2.55793 -2.25614,2.58966 -2.2122,2.62707 -2.17258,2.66014 -2.13059,2.69397 -2.08799,2.72721 -2.04555,2.75909" />
    <path
       id="polyline25928"
       style="display:inline;stroke:#ff5f00;stroke-width:1.88976;stroke-miterlimit:4;stroke-dasharray:none;stroke-opacity:1"
       d="m 241.07942,226.28744 -2.06505,2.74449 -2.02351,2.77533 -2.02336,2.77548 -1.98121,2.80573 -1.93653,2.83672 -1.89126,2.86727 -1.84971,2.8941 -1.79966,2.92568 -1.75335,2.9537 -1.7118,2.97784 -1.65907,3.00763" />
    <path
       id="polyline25940"
       style="display:inline;stroke:#ff5f00;stroke-width:1.88976;stroke-miterlimit:4;stroke-dasharray:none;stroke-opacity:1"
       d="m 226.04096,263.95044 -1.594,3.04281 -1.54648,3.06709 -1.54634,3.06724 -1.50046,3.0899 -1.44283,3.11731 -1.39652,3.13832 -1.34528,3.16068" />
    <path
       id="polyline25946"
       style="display:inline;stroke:#ff5f00;stroke-width:1.88976;stroke-miterlimit:4;stroke-dasharray:none;stroke-opacity:1"
       d="m 313.5185,174.25083 -2.94777,1.76146 -2.92319,1.80199 -2.9001,1.8391 -2.87479,1.87843 -2.84873,1.91747 -2.84887,1.91748 -2.82177,1.95726" />
    <path
       id="polyline25952"
       style="display:inline;stroke:#ff5f00;stroke-width:1.88976;stroke-miterlimit:4;stroke-dasharray:none;stroke-opacity:1"
       d="m 342.22796,178.11931 -3.09654,1.48415 -3.0757,1.52691 -3.07554,1.52707 -3.05619,1.56551" />
    <path
       id="polyline25954"
       style="display:inline;stroke:#ff5f00;stroke-width:1.88976;stroke-miterlimit:4;stroke-dasharray:none;stroke-opacity:1"
       d="m 397.06281,191.85604 -3.30549,0.92894 -3.29448,0.96753 -3.29447,0.96753 -3.28062,1.01357" />
    <path
       id="polyline25960"
       style="display:inline;stroke:#ff5f00;stroke-width:1.88976;stroke-miterlimit:4;stroke-dasharray:none;stroke-opacity:1"
       d="m 444.57896,269.20055 -3.40126,0.46938 -3.3947,0.51573 -3.38711,0.56222 -3.38025,0.60275 -3.37147,0.64969" />
    <path
       id="polyline25966"
       style="display:inline;stroke:#ff5f00;stroke-width:1.88976;stroke-miterlimit:4;stroke-dasharray:none;stroke-opacity:1"
       d="m 385.62337,307.55541 -3.21956,1.19372 -3.20124,1.24171 -3.18218,1.29014 -3.16386,1.33439" />
    <path
       id="polyline25972"
       style="display:inline;stroke:#ff5f00;stroke-width:1.88976;stroke-miterlimit:4;stroke-dasharray:none;stroke-opacity:1"
       d="m 427.96109,319.988 -3.39411,0.51885 -3.38651,0.56669 -3.37787,0.61527 -3.36864,0.66429 -3.36,0.70676" />
    <path
       id="polyline25978"
       style="display:inline;stroke:#ff5f00;stroke-width:1.88976;stroke-miterlimit:4;stroke-dasharray:none;stroke-opacity:1"
       d="m 408.76123,339.85773 -3.37385,0.63717 -3.36358,0.68933 -3.3524,0.74207 -3.34198,0.78753" />
    <path
       id="line25984"
       style="display:inline;stroke:#ff5f00;stroke-width:1.88977;stroke-miterlimit:4;stroke-dasharray:none;stroke-opacity:1"
       d="m 441.59083,295.02161 -3.40912,0.40904" />
    <path
       id="polyline25990"
       style="display:inline;stroke:#ff5f00;stroke-width:1.88976;stroke-miterlimit:4;stroke-dasharray:none;stroke-opacity:1"
       d="m 343.57845,335.85291 -2.89131,1.8528 -2.86288,1.89647 -2.83294,1.94102 -2.80107,1.98661 -2.76815,2.03236 -2.73331,2.07886 -2.69711,2.12594 -2.6584,2.17422"
       sodipodi:nodetypes="ccccccccc" />
    <path
       id="polyline25996"
       style="display:inline;stroke:#ff5f00;stroke-width:1.88976;stroke-miterlimit:4;stroke-dasharray:none;stroke-opacity:1"
       d="m 375.10373,275.31492 -3.12186,1.42991 -3.10042,1.47595 -3.08016,1.51768" />
    <path
       id="polyline26004"
       style="display:inline;stroke:#ff5f00;stroke-width:1.88976;stroke-miterlimit:4;stroke-dasharray:none;stroke-opacity:1"
       d="m 392.19981,251.88918 -3.22731,1.17257 -3.21196,1.21385 -3.1941,1.26018 -3.17652,1.304 -3.1582,1.34765 -3.1582,1.34781 -3.13795,1.39445 -3.11933,1.43542" />
    <path
       id="polyline26010"
       style="display:inline;stroke:#ff5f00;stroke-width:1.88976;stroke-miterlimit:4;stroke-dasharray:none;stroke-opacity:1"
       d="m 276.06106,332.02407 -1.85403,2.89141 -1.80636,2.92151 -1.74591,2.95802 -1.69735,2.98618 -1.63495,3.02091 -1.57537,3.05234" />
    <path
       id="polyline26016"
       style="display:inline;stroke:#ff5f00;stroke-width:1.88976;stroke-miterlimit:4;stroke-dasharray:none;stroke-opacity:1"
       d="m 257.01906,303.91626 -1.77151,2.94267 -1.72818,2.96845 -1.67159,3.00078 -1.62437,3.02657" />
    <path
       id="polyline26022"
       style="display:inline;stroke:#ff5f00;stroke-width:1.88976;stroke-miterlimit:4;stroke-dasharray:none;stroke-opacity:1"
       d="m 425.87473,242.37363 -3.35955,0.70855 -3.34958,0.75489 -3.33855,0.80183 -3.32873,0.84236 -3.32858,0.84236 -3.31636,0.88974" />
    <path
       id="polyline26040"
       style="display:inline;stroke:#ff5f00;stroke-width:1.88976;stroke-miterlimit:4;stroke-dasharray:none;stroke-opacity:1"
       d="m 214.04319,133.32061 -2.51781,2.33575 -2.48042,2.37524 -2.43843,2.4186 -2.40253,2.45421 -2.40253,2.45406 -2.35726,2.49773" />
    <path
       id="polyline26050"
       style="display:inline;stroke:#ff5f00;stroke-width:1.88976;stroke-miterlimit:4;stroke-dasharray:none;stroke-opacity:1"
       d="m 474.13151,75.43785 -3.42047,-0.299065 -3.42315,-0.266432 -3.42314,-0.266283 -3.42553,-0.232904" />
    <path
       id="polyline26054"
       style="display:inline;stroke:#ff5f00;stroke-width:1.88976;stroke-miterlimit:4;stroke-dasharray:none;stroke-opacity:1"
       d="m 526.86273,107.38344 -3.34273,-0.78454 -3.34273,-0.78469 -3.35047,-0.75102 -3.35672,-0.72181 -3.36402,-0.68798 -3.37073,-0.65386" />
    <path
       id="polyline26060"
       style="display:inline;stroke:#ff5f00;stroke-width:1.88976;stroke-miterlimit:4;stroke-dasharray:none;stroke-opacity:1"
       d="m 451.57865,112.90788 -3.43343,0.0192 -3.43312,0.0553 -3.43298,0.0553 -3.43223,0.0913" />
    <path
       id="polyline26066"
       style="display:inline;stroke:#ff5f00;stroke-width:1.88976;stroke-miterlimit:4;stroke-dasharray:none;stroke-opacity:1"
       d="m 393.06852,147.46013 -3.34362,0.78066 -3.33513,0.81673 -3.33498,0.81658 -3.32486,0.85741" />
    <path
       id="line22407"
       style="display:inline;stroke:#ff5f00;stroke-width:1.88977;stroke-miterlimit:4;stroke-dasharray:none;stroke-opacity:1"
       d="m 79.751051,187.99579 2.012815,-2.64762" />
    <path
       id="polyline22413"
       style="display:inline;stroke:#ff5f00;stroke-width:1.88977;stroke-miterlimit:4;stroke-dasharray:none;stroke-opacity:1"
       d="m 78.439178,213.51529 2.234629,-2.46323 2.191073,-2.50189 2.144487,-2.54201 2.098047,-2.58068 2.050165,-2.61863 2.00156,-2.65628 1.951514,-2.69307 1.900603,-2.72944" />
    <path
       id="polyline22419"
       style="display:inline;stroke:#ff5f00;stroke-width:1.88977;stroke-miterlimit:4;stroke-dasharray:none;stroke-opacity:1"
       d="m 113.88719,206.82437 1.73633,-2.83663 1.68023,-2.8704 1.63349,-2.89739 1.58749,-2.92277 1.52865,-2.95395 1.47975,-2.97876 1.42668,-3.00458 1.37793,-3.02724 1.32355,-3.05162 1.32342,-3.05148 1.26832,-3.07485 1.2161,-3.09592" />
    <path
       id="polyline22443"
       style="display:inline;stroke:#ff5f00;stroke-width:1.88977;stroke-miterlimit:4;stroke-dasharray:none;stroke-opacity:1"
       d="m 73.259611,241.71489 2.51731,-2.17337 2.47837,-2.21751 2.442025,-2.25748 2.402218,-2.2999 2.35823,-2.34491 2.32102,-2.38186 2.274002,-2.42672 2.234773,-2.46294" />
    <path
       id="polyline22449"
       style="display:inline;stroke:#ff5f00;stroke-width:1.88977;stroke-miterlimit:4;stroke-dasharray:none;stroke-opacity:1"
       d="m 34.839834,194.86576 2.670333,-1.98204 2.630528,-2.03441" />
    <path
       id="polyline22455"
       style="display:inline;stroke:#ff5f00;stroke-width:1.88977;stroke-miterlimit:4;stroke-dasharray:none;stroke-opacity:1"
       d="m 31.711152,229.60622 2.833452,-1.74051 2.804175,-1.7874 2.775042,-1.83241 2.743023,-1.87989 2.710284,-1.92692 2.676391,-1.97396" />
    <path
       id="polyline22461"
       style="display:inline;stroke:#ff5f00;stroke-width:1.88977;stroke-miterlimit:4;stroke-dasharray:none;stroke-opacity:1"
       d="m 61.637205,232.69492 2.544137,-2.14176 2.504618,-2.18779 2.504475,-2.18793 2.465101,-2.23238 2.426737,-2.27378" />
  </g>
  <g
     inkscape:groupmode="layer"
     id="layer3"
     inkscape:label="2 purple"
     style="display:inline">
    <path
       id="polyline25640"
       style="display:inline;stroke:#ba5fe7;stroke-width:1.88976;stroke-miterlimit:4;stroke-dasharray:none;stroke-opacity:1"
       d="m 288.65544,178.56813 -2.77188,2.02729 -2.74283,2.06649 -2.71276,2.10582 -2.68088,2.14636 -2.64931,2.1851 -2.61446,2.22682 -2.58154,2.26497 -2.55147,2.29864 -2.51423,2.33963 -2.51423,2.33962 -2.4828,2.37285 -2.44394,2.41279 -2.407,2.44989 -2.36977,2.4858 -2.33343,2.52008 -2.29321,2.55673 -2.25361,2.59175 -2.21443,2.62543" />
    <path
       id="polyline25646"
       style="display:inline;stroke:#ba5fe7;stroke-width:1.88976;stroke-miterlimit:4;stroke-dasharray:none;stroke-opacity:1"
       d="m 259.6849,181.25867 -2.5382,2.31355 -2.50038,2.35422 -2.50053,2.35423 -2.46866,2.3876 -2.428,2.42889 -2.39479,2.46181 -2.35353,2.5013 -2.31556,2.53646 -2.27669,2.57149 -2.23752,2.60576 -2.19641,2.64047" />
    <path
       id="polyline25652"
       style="display:inline;stroke:#ba5fe7;stroke-width:1.88976;stroke-miterlimit:4;stroke-dasharray:none;stroke-opacity:1"
       d="m 209.10245,231.04626 -1.65297,3.01092 -1.60636,3.03625 -1.56421,3.05815 -1.51059,3.08483 -1.51074,3.08497 -1.46175,3.10852 -1.41245,3.13117 -1.36672,3.15144 -1.31595,3.17289 -1.26471,3.19391 -1.22405,3.20955 -1.17282,3.22877"
       sodipodi:nodetypes="ccccccccccccc" />
    <path
       id="polyline25658"
       style="display:inline;stroke:#ba5fe7;stroke-width:1.88976;stroke-miterlimit:4;stroke-dasharray:none;stroke-opacity:1"
       d="m 188.25081,253.50521 -1.17342,3.22847 -1.12084,3.24725 -1.07527,3.26245 -1.02241,3.27944 -0.97444,3.29419 -0.93081,3.3067 -0.93081,3.30671 -0.87645,3.32145 -0.82642,3.33428 -0.77711,3.34619 -0.72871,3.35707 -0.67838,3.36765" />
    <path
       id="polyline25664"
       style="display:inline;stroke:#ba5fe7;stroke-width:1.88976;stroke-miterlimit:4;stroke-dasharray:none;stroke-opacity:1"
       d="m 195.05704,214.24585 -1.63137,3.02269 -1.5864,3.04668 -1.53085,3.075 -1.48617,3.09689" />
    <path
       id="polyline25670"
       style="display:inline;stroke:#ba5fe7;stroke-width:1.88976;stroke-miterlimit:4;stroke-dasharray:none;stroke-opacity:1"
       d="m 267.27317,154.76524 -2.74761,2.06008 -2.71766,2.09927 -2.68729,2.13846 -2.65303,2.18078 -2.61982,2.22026 -2.58617,2.25976 -2.55429,2.29551 -2.51884,2.33456 -2.48028,2.37568 -2.48012,2.37554 -2.44751,2.40921 -2.4073,2.44974 -2.3729,2.48267 -2.33,2.52321" />
    <path
       id="polyline25676"
       style="display:inline;stroke:#ba5fe7;stroke-width:1.88976;stroke-miterlimit:4;stroke-dasharray:none;stroke-opacity:1"
       d="m 285.05402,133.18889 -2.97725,1.71094 -2.957,1.74596" />
    <path
       id="polyline25682"
       style="display:inline;stroke:#ba5fe7;stroke-width:1.88976;stroke-miterlimit:4;stroke-dasharray:none;stroke-opacity:1"
       d="m 361.53639,133.21645 -3.27407,1.03444 -3.26215,1.07169 -3.24846,1.11236 -3.23505,1.15111 -3.22179,1.18732 -3.20675,1.22786 -3.19261,1.26406 -3.17622,1.30474 -3.1591,1.34527 -3.15924,1.34542 -3.14301,1.38282 -3.12484,1.42351 -3.10816,1.45986 -3.08851,1.50054" />
    <path
       id="polyline25688"
       style="display:inline;stroke:#ba5fe7;stroke-width:1.88976;stroke-miterlimit:4;stroke-dasharray:none;stroke-opacity:1"
       d="m 375.96261,151.97859 -3.28956,0.98407 -3.2772,1.0246 -3.26424,1.06528 -3.24994,1.10819 -3.23758,1.14381 -3.22224,1.18613 -3.20646,1.22845 -3.19126,1.26719 -3.19141,1.26719 -3.17429,1.30951 -3.15641,1.35183 -3.14019,1.38938 -3.12111,1.43155 -3.1037,1.4691 -3.08344,1.51127 -3.06467,1.54867 -3.04278,1.59144"
       sodipodi:nodetypes="cccccccccccccccccc" />
    <path
       id="polyline25694"
       style="display:inline;stroke:#ba5fe7;stroke-width:1.88976;stroke-miterlimit:4;stroke-dasharray:none;stroke-opacity:1"
       d="m 412.41045,166.11035 -3.3731,0.6412 -3.36492,0.68351 -3.35598,0.72569 -3.3466,0.768 -3.33662,0.80987 -3.32664,0.85071 -3.31487,0.89481 -3.31488,0.89481 -3.30475,0.93222 -3.29224,0.97483 -3.27928,1.01804 -3.26617,1.05932 -3.25144,1.10387 -3.23773,1.14322 -3.22298,1.18419 -3.20661,1.22815"
       sodipodi:nodetypes="ccccccccccccccccc" />
    <path
       id="polyline25698"
       style="display:inline;stroke:#ba5fe7;stroke-width:1.88976;stroke-miterlimit:4;stroke-dasharray:none;stroke-opacity:1"
       d="m 441.21612,169.67619 -3.41853,0.32037 -3.41421,0.36299 -3.40959,0.40412 -3.40468,0.44391 -3.40468,0.44405 -3.39932,0.48369 -3.39307,0.52482 -3.38636,0.56773 -3.37891,0.6102 -3.37088,0.65252 -3.36238,0.69543 -3.35345,0.73731"
       sodipodi:nodetypes="ccccccccccccc" />
    <path
       id="line25700"
       style="display:inline;stroke:#ba5fe7;stroke-width:1.88977;stroke-miterlimit:4;stroke-dasharray:none;stroke-opacity:1"
       d="m 447.78869,153.42414 -3.43028,0.14856" />
    <path
       id="polyline25706"
       style="display:inline;stroke:#ba5fe7;stroke-width:1.88976;stroke-miterlimit:4;stroke-dasharray:none;stroke-opacity:1"
       d="m 455.24351,130.10763 -3.43343,-0.009 -3.43342,0.0288 -3.43283,0.0663 -3.43178,0.10386 -3.4306,0.14142 -3.4288,0.17911 -3.42658,0.2186 -3.42389,0.25585 -3.42091,0.29355" />
    <path
       id="polyline25712"
       style="display:inline;stroke:#ba5fe7;stroke-width:1.88976;stroke-miterlimit:4;stroke-dasharray:none;stroke-opacity:1"
       d="m 456.69542,121.27515 -3.43312,-0.0498 -3.43343,-0.013 -3.43342,0.0241 -3.43298,0.0609" />
    <path
       id="polyline25718"
       style="display:inline;stroke:#ba5fe7;stroke-width:1.88976;stroke-miterlimit:4;stroke-dasharray:none;stroke-opacity:1"
       d="m 499.91316,102.02113 -3.3944,-0.51617 -3.39962,-0.48161 -3.40423,-0.44778 -3.4084,-0.4144 -3.41228,-0.380123 -3.41615,-0.344812 -3.41957,-0.309645 -3.4224,-0.275372 -3.42509,-0.239908 -3.42508,-0.239908 -3.42732,-0.205337 -3.42925,-0.170916 -3.43089,-0.1356 -3.43194,-0.100434 -3.43283,-0.06527 -3.43342,-0.03025 -3.43342,0.0045 -3.43328,0.03949" />
    <path
       id="polyline25724"
       style="display:inline;stroke:#ba5fe7;stroke-width:1.88976;stroke-miterlimit:4;stroke-dasharray:none;stroke-opacity:1"
       d="m 468.28006,89.870468 -3.42672,-0.214725 -3.42881,-0.180452 -3.43029,-0.146925 -3.43164,-0.112802 -3.43163,-0.112652 -3.43268,-0.07838 -3.43313,-0.04426 -3.43342,-0.01 -3.43343,0.02384 -3.43297,0.05782 -3.43224,0.09149 -3.43133,0.125169 -3.4297,0.160187" />
    <path
       id="polyline25730"
       style="display:inline;stroke:#ba5fe7;stroke-width:1.88976;stroke-miterlimit:4;stroke-dasharray:none;stroke-opacity:1"
       d="m 467.79009,67.357128 -3.42419,-0.252127 -3.42658,-0.219344 -3.42836,-0.187605 -3.43,-0.155121 -3.43119,-0.122785 -3.43238,-0.0906 -3.43297,-0.05841 -3.43328,-0.02652 -3.43357,0.0052 -3.43343,0.0052 -3.43327,0.03681 -3.43283,0.06825 -3.43208,0.09939 -3.43104,0.130534 -3.42955,0.16272 -3.42807,0.193714 -3.42612,0.224262 -3.42404,0.25466" />
    <path
       id="polyline25736"
       style="display:inline;stroke:#ba5fe7;stroke-width:1.88976;stroke-miterlimit:4;stroke-dasharray:none;stroke-opacity:1"
       d="m 479.15044,45.820406 -3.41183,-0.384449 -3.4154,-0.352709 -3.41839,-0.321864 -3.42121,-0.290721 -3.42106,-0.290571" />
    <path
       id="polyline25756"
       style="display:inline;stroke:#ba5fe7;stroke-width:1.88976;stroke-miterlimit:4;stroke-dasharray:none;stroke-opacity:1"
       d="m 149.34488,196.01151 -1.22391,3.2097 -1.17431,3.22818 -1.12575,3.24546 -1.0723,3.26349 -1.02478,3.27869 -0.97311,3.29449"
       sodipodi:nodetypes="ccccccc" />
    <path
       id="polyline25764"
       style="display:inline;stroke:#ba5fe7;stroke-width:1.88976;stroke-miterlimit:4;stroke-dasharray:none;stroke-opacity:1"
       d="m 202.47344,134.98387 -2.41594,2.4411 -2.3714,2.48432 -2.32956,2.52365 -2.28994,2.55956 -2.24735,2.59726 -2.1985,2.63869 -2.15278,2.67624 -2.10646,2.71275 -2.10646,2.7129 -2.0591,2.74895 -2.011,2.78442 -1.962,2.81914 -1.91732,2.84984 -1.86698,2.88307 -1.81113,2.91853 -1.76482,2.94669 -1.71373,2.97695"
       sodipodi:nodetypes="cccccccccccccccccc" />
    <path
       id="polyline25770"
       style="display:inline;stroke:#ba5fe7;stroke-width:1.88976;stroke-miterlimit:4;stroke-dasharray:none;stroke-opacity:1"
       d="m 235.4542,125.78616 -2.71647,2.10091 -2.68535,2.14069 -2.6852,2.14085 -2.65542,2.17779 -2.62116,2.21878 -2.58646,2.25945 -2.55042,2.29984 -2.51185,2.34216 -2.47819,2.37762 -2.43544,2.42143 -2.4003,2.45645" />
    <path
       id="polyline25776"
       style="display:inline;stroke:#ba5fe7;stroke-width:1.88976;stroke-miterlimit:4;stroke-dasharray:none;stroke-opacity:1"
       d="m 251.41693,141.02419 -2.72303,2.09256 -2.6931,2.13086 -2.65869,2.17377 -2.62622,2.21297 -2.59123,2.25364 -2.55831,2.29134 -2.52317,2.32994 -2.48623,2.36913 -2.45064,2.40608 -2.45078,2.40593 -2.41028,2.44662 -2.37394,2.48192 -2.3309,2.52246 -2.29441,2.55554" />
    <path
       id="line25782"
       style="display:inline;stroke:#ba5fe7;stroke-width:1.88977;stroke-miterlimit:4;stroke-dasharray:none;stroke-opacity:1"
       d="m 143.00898,166.73932 -1.51731,3.0817" />
    <path
       id="polyline25816"
       style="display:inline;stroke:#ba5fe7;stroke-width:1.88976;stroke-miterlimit:4;stroke-dasharray:none;stroke-opacity:1"
       d="m 161.33237,151.01106 -1.86147,2.88664 -1.81143,2.91838 -1.75811,2.95072 -1.70316,2.98291 -1.64731,3.01404 -1.59817,3.04057 -1.54336,3.06874 -1.49361,3.09317 -1.49347,3.09332 -1.43374,3.12149" />
    <path
       id="polyline25822"
       style="display:inline;stroke:#ba5fe7;stroke-width:1.88976;stroke-miterlimit:4;stroke-dasharray:none;stroke-opacity:1"
       d="m 174.75078,145.47291 -2.0661,2.74389 -2.06595,2.74374 -2.01636,2.78055" />
    <path
       id="polyline25830"
       style="display:inline;stroke:#ba5fe7;stroke-width:1.88976;stroke-miterlimit:4;stroke-dasharray:none;stroke-opacity:1"
       d="m 399.6585,85.105988 -3.40542,0.438092 -3.40096,0.47162 -3.39634,0.503956 -3.39142,0.536589 -3.38607,0.568477" />
    <path
       id="polyline25836"
       style="display:inline;stroke:#ba5fe7;stroke-width:1.88976;stroke-miterlimit:4;stroke-dasharray:none;stroke-opacity:1"
       d="m 427.1457,104.48622 -3.42479,0.24378 -3.42195,0.28044 -3.41898,0.31531 -3.41555,0.35181 -3.41183,0.38535 -3.40751,0.42066 -3.40319,0.45537 -3.39813,0.49204 -3.39813,0.49218 -3.39261,0.52825 -3.38681,0.5643 -3.38056,0.60066 -3.37429,0.63509 -3.3673,0.67159" />
    <path
       id="polyline25842"
       style="display:inline;stroke:#ba5fe7;stroke-width:1.88976;stroke-miterlimit:4;stroke-dasharray:none;stroke-opacity:1"
       d="m 415.66754,128.04994 -3.40363,0.45225 -3.39828,0.49069 -3.39262,0.5281 -3.39261,0.52794 -3.38637,0.56699 -3.3798,0.60558 -3.37356,0.63926 -3.36581,0.67815 -3.35791,0.71689 -3.34928,0.75638 -3.34035,0.79453"
       sodipodi:nodetypes="cccccccccccc" />
    <path
       id="polyline25848"
       style="display:inline;stroke:#ba5fe7;stroke-width:1.88976;stroke-miterlimit:4;stroke-dasharray:none;stroke-opacity:1"
       d="m 435.71139,148.43451 -3.41943,0.30949 -3.41555,0.35033 -3.41138,0.38981 -3.40632,0.43064 -3.40647,0.43065 -3.4017,0.46625 -3.39604,0.50575 -3.38964,0.54687 -3.38294,0.58755" />
    <path
       id="polyline25854"
       style="display:inline;stroke:#ba5fe7;stroke-width:1.88976;stroke-miterlimit:4;stroke-dasharray:none;stroke-opacity:1"
       d="m 374.47406,135.59616 -3.30833,0.91925 -3.29849,0.95367 -3.29849,0.95382 -3.28643,0.99465" />
    <path
       id="polyline25860"
       style="display:inline;stroke:#ba5fe7;stroke-width:1.88976;stroke-miterlimit:4;stroke-dasharray:none;stroke-opacity:1"
       d="m 241.14734,139.48162 -2.6648,2.16618 -2.63248,2.20566 -2.63233,2.20551 -2.59585,2.24858" />
    <path
       id="polyline25864"
       style="display:inline;stroke:#ba5fe7;stroke-width:1.88976;stroke-miterlimit:4;stroke-dasharray:none;stroke-opacity:1"
       d="m 186.65681,202.47457 -1.63837,3.01897 -1.58819,3.04578 -1.58818,3.04579 -1.53904,3.07082" />
    <path
       id="polyline25866"
       style="display:inline;stroke:#ba5fe7;stroke-width:1.88976;stroke-miterlimit:4;stroke-dasharray:none;stroke-opacity:1"
       d="m 193.28076,303.16047 -0.70891,3.36139 -0.65633,3.37198 -0.60272,3.38195 -0.55402,3.3903" />
    <path
       id="polyline25872"
       style="display:inline;stroke:#ba5fe7;stroke-width:1.88976;stroke-miterlimit:4;stroke-dasharray:none;stroke-opacity:1"
       d="m 206.65806,320.09648 -0.72067,3.35886 -0.72067,3.35871 -0.66244,3.37078 -0.60271,3.3821" />
    <path
       id="polyline25878"
       style="display:inline;stroke:#ba5fe7;stroke-width:1.88976;stroke-miterlimit:4;stroke-dasharray:none;stroke-opacity:1"
       d="m 241.50611,289.01008 -1.65595,3.00943 -1.59995,3.03953 -1.55423,3.06322" />
    <path
       id="polyline25884"
       style="display:inline;stroke:#ba5fe7;stroke-width:1.88976;stroke-miterlimit:4;stroke-dasharray:none;stroke-opacity:1"
       d="m 369.53227,198.3562 -3.18635,1.27971 -3.16922,1.32158 -3.15016,1.36643 -3.13229,1.40711 -3.11248,1.45018 -3.09401,1.48951 -3.07063,1.53705 -3.05068,1.57624 -3.02714,1.6211 -3.02714,1.62094 -3.00466,1.66266 -2.98336,1.70037 -2.9564,1.74701 -2.93242,1.78679" />
    <path
       id="polyline25890"
       style="display:inline;stroke:#ba5fe7;stroke-width:1.88976;stroke-miterlimit:4;stroke-dasharray:none;stroke-opacity:1"
       d="m 391.62643,214.03858 -3.26156,1.07318 -3.24592,1.11981 -3.22984,1.16572 -3.213,1.21101 -3.19797,1.25035 -3.1798,1.2961 -3.16311,1.33618 -3.16312,1.33619 -3.14346,1.38178 -3.12305,1.42737 -3.10459,1.46732 -3.0815,1.51484 -3.06155,1.55523 -3.03801,1.60053 -3.01657,1.64076 -2.99409,1.68129"
       sodipodi:nodetypes="ccccccccccccccccc" />
    <path
       id="polyline25896"
       style="display:inline;stroke:#ba5fe7;stroke-width:1.88976;stroke-miterlimit:4;stroke-dasharray:none;stroke-opacity:1"
       d="m 419.5978,221.75661 -3.35107,0.74803 -3.34079,0.79259 -3.32962,0.83849 -3.31904,0.87961 -3.30654,0.92566 -3.29373,0.97021 -3.27987,1.01596 -3.26484,1.06334 -3.25143,1.10358 -3.25158,1.10342 -3.23535,1.14977 -3.21896,1.19567 -3.20363,1.2356 -3.18545,1.28194 -3.16655,1.32814 -3.14867,1.36985 -3.12811,1.41606 -3.10966,1.45628" />
    <path
       id="polyline25902"
       style="display:inline;stroke:#ba5fe7;stroke-width:1.88976;stroke-miterlimit:4;stroke-dasharray:none;stroke-opacity:1"
       d="m 439.66145,192.96245 -3.40855,0.41321 -3.40841,0.41321 -3.40304,0.45701" />
    <path
       id="polyline25908"
       style="display:inline;stroke:#ba5fe7;stroke-width:1.88976;stroke-miterlimit:4;stroke-dasharray:none;stroke-opacity:1"
       d="m 411.78003,180.7872 -3.36,0.70706 -3.35047,0.75042 -3.34064,0.79378 -3.34064,0.79378 -3.32977,0.83744 -3.31904,0.87977 -3.30713,0.92342 -3.29567,0.96306 -3.28285,1.00672 -3.26886,1.05082 -3.25501,1.093 -3.24115,1.13367" />
    <path
       id="polyline25914"
       style="display:inline;stroke:#ba5fe7;stroke-width:1.88976;stroke-miterlimit:4;stroke-dasharray:none;stroke-opacity:1"
       d="m 326.431,186.43249 -2.98351,1.70021 -2.96191,1.73762 -2.93764,1.7783 -2.91143,1.82091 -2.88566,1.8616 -2.85945,1.90153 -2.83294,1.94102 -2.80509,1.98095 -2.80523,1.98096 -2.77665,2.02059 -2.74745,2.06022 -2.71752,2.09972 -2.68669,2.1392 -2.65497,2.1781 -2.62205,2.21788 -2.58825,2.25722 -2.55712,2.29268"
       sodipodi:nodetypes="cccccccccccccccccc" />
    <path
       id="polyline25920"
       style="display:inline;stroke:#ba5fe7;stroke-width:1.88976;stroke-miterlimit:4;stroke-dasharray:none;stroke-opacity:1"
       d="m 256.12147,243.90353 -2.15993,2.67028 -2.11927,2.70291 -2.07742,2.73525 -2.03482,2.76699" />
    <path
       id="polyline25926"
       style="display:inline;stroke:#ba5fe7;stroke-width:1.88976;stroke-miterlimit:4;stroke-dasharray:none;stroke-opacity:1"
       d="m 247.19701,230.88816 -2.10497,2.71408 -2.06298,2.74613 -2.06282,2.74613 -2.01934,2.77831 -1.97138,2.81273 -1.92804,2.84254 -1.88396,2.87189 -1.84331,2.89841 -1.79758,2.92688 -1.74635,2.95772"
       sodipodi:nodetypes="ccccccccccc" />
    <path
       id="polyline25934"
       style="display:inline;stroke:#ba5fe7;stroke-width:1.88976;stroke-miterlimit:4;stroke-dasharray:none;stroke-opacity:1"
       d="m 216.03363,266.91159 -1.43047,3.12297 -1.38445,3.14369 -1.33322,3.16574 -1.33321,3.16574" />
    <path
       id="polyline25938"
       style="display:inline;stroke:#ba5fe7;stroke-width:1.88976;stroke-miterlimit:4;stroke-dasharray:none;stroke-opacity:1"
       d="m 200.93753,309.11242 -0.75954,3.35022 -0.75969,3.35021 -0.70474,3.36229 -0.65454,3.37227" />
    <path
       id="polyline25944"
       style="display:inline;stroke:#ba5fe7;stroke-width:1.88976;stroke-miterlimit:4;stroke-dasharray:none;stroke-opacity:1"
       d="m 317.74274,180.55146 -2.95328,1.75208 -2.92587,1.79752 -2.90279,1.83492 -2.87687,1.87501 -2.85111,1.91404 -2.85111,1.9142 -2.82445,1.95339 -2.79645,1.99317" />
    <path
       id="polyline25950"
       style="display:inline;stroke:#ba5fe7;stroke-width:1.88976;stroke-miterlimit:4;stroke-dasharray:none;stroke-opacity:1"
       d="m 299.38269,165.15743 -2.89906,1.84058 -2.87404,1.87963 -2.8739,1.87948 -2.84977,1.91613" />
    <path
       id="polyline25958"
       style="display:inline;stroke:#ba5fe7;stroke-width:1.88976;stroke-miterlimit:4;stroke-dasharray:none;stroke-opacity:1"
       d="m 442.83097,277.51268 -3.39947,0.48146 -3.39277,0.52794 -3.39261,0.5278" />
    <path
       id="polyline25964"
       style="display:inline;stroke:#ba5fe7;stroke-width:1.88976;stroke-miterlimit:4;stroke-dasharray:none;stroke-opacity:1"
       d="m 386.61733,299.52103 -3.19752,1.25139 -3.19767,1.2514 -3.18054,1.29401 -3.16043,1.34244 -3.14242,1.38401 -3.12052,1.43304" />
    <path
       id="polyline25970"
       style="display:inline;stroke:#ba5fe7;stroke-width:1.88976;stroke-miterlimit:4;stroke-dasharray:none;stroke-opacity:1"
       d="m 422.64654,312.77944 -3.37162,0.64939 -3.36328,0.69111 -3.3527,0.74029" />
    <path
       id="polyline25976"
       style="display:inline;stroke:#ba5fe7;stroke-width:1.88976;stroke-miterlimit:4;stroke-dasharray:none;stroke-opacity:1"
       d="m 423.28321,328.93105 -3.39411,0.5187 -3.38621,0.56744 -3.37772,0.6169 -3.36969,0.65923 -3.35925,0.71004 -3.34809,0.76159 -3.33721,0.80734 -3.32456,0.85846" />
    <path
       id="line25982"
       style="display:inline;stroke:#ba5fe7;stroke-width:1.88977;stroke-miterlimit:4;stroke-dasharray:none;stroke-opacity:1"
       d="m 433.97547,310.23906 -3.40438,0.44646" />
    <path
       id="polyline25988"
       style="display:inline;stroke:#ba5fe7;stroke-width:1.88976;stroke-miterlimit:4;stroke-dasharray:none;stroke-opacity:1"
       d="m 351.84777,341.59088 -3.00078,1.66937 -2.97695,1.71169" />
    <path
       id="polyline25994"
       style="display:inline;stroke:#ba5fe7;stroke-width:1.88976;stroke-miterlimit:4;stroke-dasharray:none;stroke-opacity:1"
       d="m 379.08417,282.39444 -3.14539,1.37731 -3.12559,1.42186 -3.10324,1.46999" />
    <path
       id="polyline26000"
       style="display:inline;stroke:#ba5fe7;stroke-width:1.88976;stroke-miterlimit:4;stroke-dasharray:none;stroke-opacity:1"
       d="m 388.69966,261.33515 -3.20466,1.23291 -3.18844,1.27435 -3.16937,1.32143 -3.16937,1.32143 -3.15195,1.36211 -3.13124,1.40934 -3.1095,1.45659" />
    <path
       id="polyline26008"
       style="display:inline;stroke:#ba5fe7;stroke-width:1.88976;stroke-miterlimit:4;stroke-dasharray:none;stroke-opacity:1"
       d="m 279.43297,341.8433 -1.86296,2.8856 -1.80979,2.91928 -1.74962,2.95593 -1.69721,2.98619 -1.62869,3.02418" />
    <path
       id="polyline26014"
       style="display:inline;stroke:#ba5fe7;stroke-width:1.88976;stroke-miterlimit:4;stroke-dasharray:none;stroke-opacity:1"
       d="m 250.64413,300.12258 -1.65699,3.00898 -1.65684,3.00884 -1.60368,3.03744 -1.55184,3.06456" />
    <path
       id="polyline26020"
       style="display:inline;stroke:#ba5fe7;stroke-width:1.88976;stroke-miterlimit:4;stroke-dasharray:none;stroke-opacity:1"
       d="m 369.74524,229.89008 -3.13541,1.40026 -3.11442,1.446 -3.09535,1.48639 -3.07212,1.53436 -3.07198,1.53422 -3.05171,1.5743" />
    <path
       id="polyline26026"
       style="display:inline;stroke:#ba5fe7;stroke-width:1.88976;stroke-miterlimit:4;stroke-dasharray:none;stroke-opacity:1"
       d="m 434.70343,255.90101 -3.3877,0.55864 -3.38011,0.6035 -3.37162,0.64864 -3.36253,0.69529 -3.35226,0.74222" />
    <path
       id="polyline26032"
       style="display:inline;stroke:#ba5fe7;stroke-width:1.88976;stroke-miterlimit:4;stroke-dasharray:none;stroke-opacity:1"
       d="m 360.94454,326.7455 -3.04918,1.57922 -3.02685,1.62169 -3.02684,1.62169 -3.00213,1.66698" />
    <path
       id="line26038"
       style="display:inline;stroke:#ba5fe7;stroke-width:1.88977;stroke-miterlimit:4;stroke-dasharray:none;stroke-opacity:1"
       d="m 246.31,126.36864 -2.80793,1.97708" />
    <path
       id="polyline26046"
       style="display:inline;stroke:#ba5fe7;stroke-width:1.88976;stroke-miterlimit:4;stroke-dasharray:none;stroke-opacity:1"
       d="m 501.7934,79.656056 -3.38011,-0.603197 -3.38591,-0.569967 -3.39128,-0.536738 -3.39649,-0.502913 -3.40125,-0.469683 -3.40558,-0.436602" />
    <path
       id="polyline26052"
       style="display:inline;stroke:#ba5fe7;stroke-width:1.88976;stroke-miterlimit:4;stroke-dasharray:none;stroke-opacity:1"
       d="m 420.59175,58.488286 -3.42955,0.165253 -3.42791,0.194906 -3.42791,0.194758" />
    <path
       id="polyline26058"
       style="display:inline;stroke:#ba5fe7;stroke-width:1.88976;stroke-miterlimit:4;stroke-dasharray:none;stroke-opacity:1"
       d="m 526.84724,122.69195 -3.34005,-0.79587 -3.34794,-0.76174" />
    <path
       id="polyline26064"
       style="display:inline;stroke:#ba5fe7;stroke-width:1.88976;stroke-miterlimit:4;stroke-dasharray:none;stroke-opacity:1"
       d="m 369.78084,169.15927 -3.23997,1.13725 -3.22432,1.18047 -3.20825,1.22397 -3.1929,1.26332 -3.19275,1.26332 -3.17667,1.30369" />
    <path
       id="polyline26068"
       style="display:inline;stroke:#ba5fe7;stroke-width:1.88976;stroke-miterlimit:4;stroke-dasharray:none;stroke-opacity:1"
       d="m 330.88459,160.88051 -3.08612,1.50561 -3.0678,1.54286 -3.06781,1.54271 -3.04844,1.58041" />
    <path
       id="polyline26070"
       style="display:inline;stroke:#ba5fe7;stroke-width:1.88976;stroke-miterlimit:4;stroke-dasharray:none;stroke-opacity:1"
       d="m 313.27485,135.72446 -3.08418,1.50978 -3.0623,1.55329 -3.06244,1.55344 -3.04367,1.5898 -3.02268,1.62944 -3.00093,1.66922 -2.98097,1.70454 -2.95551,1.74834" />
    <path
       id="polyline22411"
       style="display:inline;stroke:#ba5fe7;stroke-width:1.88977;stroke-miterlimit:4;stroke-dasharray:none;stroke-opacity:1"
       d="m 57.227802,222.31551 2.527262,-2.16153 2.492071,-2.20208 2.449813,-2.24911 2.405824,-2.296 2.367316,-2.33583 2.320154,-2.38271 2.276743,-2.42413 2.235638,-2.46237 2.235494,-2.46222 2.185015,-2.50738 2.13843,-2.54706 2.089538,-2.58745"
       sodipodi:nodetypes="ccccccccccccc" />
    <path
       id="polyline22417"
       style="display:inline;stroke:#ba5fe7;stroke-width:1.88977;stroke-miterlimit:4;stroke-dasharray:none;stroke-opacity:1"
       d="m 106.70029,203.35966 1.79835,-2.79768 1.74253,-2.83303 1.6971,-2.86059 1.64345,-2.89147"
       sodipodi:nodetypes="ccccc" />
    <path
       id="line22435"
       style="display:inline;stroke:#ba5fe7;stroke-width:1.88977;stroke-miterlimit:4;stroke-dasharray:none;stroke-opacity:1"
       d="m 97.079596,238.37036 2.248482,-2.45053" />
    <path
       id="polyline22441"
       style="display:inline;stroke:#ba5fe7;stroke-width:1.88977;stroke-miterlimit:4;stroke-dasharray:none;stroke-opacity:1"
       d="m 117.19298,226.55849 c 4.71347,-5.34096 7.54164,-10.53253 10.60085,-16.91079"
       sodipodi:nodetypes="cc" />
    <path
       id="polyline22445"
       style="display:inline;stroke:#ba5fe7;stroke-width:1.88977;stroke-miterlimit:4;stroke-dasharray:none;stroke-opacity:1"
       d="m 61.115254,242.318 2.63269,-2.03182 2.597644,-2.07626 2.562598,-2.11954 2.528415,-2.16024 2.490197,-2.20438 2.449957,-2.24868 2.407122,-2.2947 2.370778,-2.33236 2.325346,-2.37767" />
    <path
       id="polyline22447"
       style="display:inline;stroke:#ba5fe7;stroke-width:1.88977;stroke-miterlimit:4;stroke-dasharray:none;stroke-opacity:1"
       d="m 30.994784,221.52945 2.811963,-1.77514 2.780089,-1.82477 2.747639,-1.87325 2.715764,-1.91927 2.680574,-1.9679 2.644373,-2.01653" />
    <path
       id="polyline22453"
       style="display:inline;stroke:#ba5fe7;stroke-width:1.88977;stroke-miterlimit:4;stroke-dasharray:none;stroke-opacity:1"
       d="m 50.180803,202.40912 2.492792,-2.20121 2.447217,-2.25185 2.408276,-2.29355 2.359528,-2.34362 2.314818,-2.38792 2.266214,-2.43394 2.219341,-2.47693 2.219341,-2.47708" />
    <path
       id="polyline22459"
       style="display:inline;stroke:#ba5fe7;stroke-width:1.88977;stroke-miterlimit:4;stroke-dasharray:none;stroke-opacity:1"
       d="m 45.88678,238.21194 2.717495,-1.91682 2.684468,-1.96271 2.684468,-1.96271 2.65043,-2.00858" />
    <path
       id="polyline22465"
       style="display:inline;stroke:#ba5fe7;stroke-width:1.88977;stroke-miterlimit:4;stroke-dasharray:none;stroke-opacity:1"
       d="m 102.40512,232.84642 2.09862,-2.5801 2.09877,-2.5801 2.05795,-2.61256"
       sodipodi:nodetypes="cccc" />
  </g>
  <g
     inkscape:groupmode="layer"
     id="layer4"
     inkscape:label="3 gold"
     style="display:inline">
    <path
       id="polyline25644"
       style="display:inline;stroke:#ffe300;stroke-width:1.88976;stroke-miterlimit:4;stroke-dasharray:none;stroke-opacity:1"
       d="m 311.5078,146.50467 -3.03757,1.60157 -3.01612,1.64135 -2.99587,1.67832 -2.9707,1.72242 -2.94925,1.75892 -2.92587,1.79782 -2.90086,1.83776 -2.87404,1.87947 -2.84783,1.91897 -2.84784,1.91911 -2.82132,1.95771 -2.79422,1.9963 -2.76562,2.03579 -2.73643,2.07498 -2.70635,2.11417 -2.67478,2.1538 -2.64231,2.1936"
       sodipodi:nodetypes="cccccccccccccccccc" />
    <path
       id="polyline25650"
       style="display:inline;stroke:#ffe300;stroke-width:1.88976;stroke-miterlimit:4;stroke-dasharray:none;stroke-opacity:1"
       d="m 225.18506,193.51111 -2.14221,2.68473 -2.09975,2.71796 -2.05672,2.7509 -2.01264,2.78323 -1.96795,2.81496 -1.92373,2.84552 -1.87413,2.87845 -1.83139,2.90571 -1.78507,2.93463 -1.78522,2.93447 -1.74247,2.96011 -1.68991,2.99035 -1.64701,3.01435 -1.59295,3.04325 -1.54932,3.06561 -1.50538,3.08766 -1.45638,3.1109 -1.41141,3.13162" />
    <path
       id="polyline25656"
       style="display:inline;stroke:#ffe300;stroke-width:1.88976;stroke-miterlimit:4;stroke-dasharray:none;stroke-opacity:1"
       d="m 190.18228,272.05709 -1.00751,3.2842 -0.96373,3.29717 -0.96357,3.29732 -0.90922,3.31266 -0.86006,3.32578 -0.81048,3.3383 -0.76043,3.35007 -0.70951,3.36124 -0.65752,3.37167" />
    <path
       id="polyline25662"
       style="display:inline;stroke:#ffe300;stroke-width:1.88976;stroke-miterlimit:4;stroke-dasharray:none;stroke-opacity:1"
       d="m 168.14814,262.7515 -0.78561,3.34425 -0.78575,3.34411 -0.73765,3.35513" />
    <path
       id="polyline25668"
       style="display:inline;stroke:#ffe300;stroke-width:1.88976;stroke-miterlimit:4;stroke-dasharray:none;stroke-opacity:1"
       d="m 243.46632,164.55661 -2.51215,2.34171 -2.47699,2.37897 -2.44022,2.41666 -2.40238,2.45436 -2.36396,2.49132 -2.32539,2.52752 -2.28517,2.56404 -2.24303,2.60098 -2.20073,2.63676 -2.20089,2.63675 -2.16365,2.66744" />
    <path
       id="polyline25674"
       style="display:inline;stroke:#ffe300;stroke-width:1.88976;stroke-miterlimit:4;stroke-dasharray:none;stroke-opacity:1"
       d="m 297.44467,135.36594 -3.01016,1.65238 -2.98828,1.69187 -2.96504,1.73211 -2.94225,1.7707 -2.9424,1.77055 -2.92022,1.80676 -2.89414,1.84833 -2.8672,1.88991" />
    <path
       id="polyline25686"
       style="display:inline;stroke:#ffe300;stroke-width:1.88976;stroke-miterlimit:4;stroke-dasharray:none;stroke-opacity:1"
       d="m 393.35044,140.14606 -3.35256,0.74193 -3.34361,0.78037 -3.33454,0.81867 -3.32411,0.86054 -3.31338,0.90062 -3.30356,0.93579 -3.29135,0.97811 -3.27958,1.017 -3.26662,1.05798 -3.26662,1.05813 -3.25411,1.09568 -3.24086,1.13427 -3.22597,1.17614 -3.21003,1.21906 -3.19647,1.25423 -3.1801,1.2952 -3.16475,1.33231 -3.14688,1.37418" />
    <path
       id="polyline25692"
       style="display:inline;stroke:#ffe300;stroke-width:1.88976;stroke-miterlimit:4;stroke-dasharray:none;stroke-opacity:1"
       d="m 437.86342,155.503 -3.41957,0.3083 -3.41585,0.34705 -3.41153,0.38832 -3.40662,0.42856 -3.40125,0.46998 -3.39515,0.51126 -3.38875,0.55313 -3.38189,0.59306 -3.3746,0.63345 -3.3746,0.63344 -3.36685,0.67383 -3.35806,0.71555 -3.34913,0.75728 -3.33886,0.80078 -3.32991,0.83715 -3.31905,0.87931 -3.30773,0.92134 -3.29566,0.9635" />
    <path
       id="polyline25704"
       style="display:inline;stroke:#ffe300;stroke-width:1.88976;stroke-miterlimit:4;stroke-dasharray:none;stroke-opacity:1"
       d="m 451.75602,137.67889 -3.43312,0.052 -3.43223,0.09 -3.43119,0.12829 -3.42941,0.1669 -3.42717,0.20668 -3.42478,0.24482" />
    <path
       id="polyline25710"
       style="display:inline;stroke:#ffe300;stroke-width:1.88976;stroke-miterlimit:4;stroke-dasharray:none;stroke-opacity:1"
       d="m 522.03368,129.26662 -3.36149,-0.70006 -3.36849,-0.66548 -3.37519,-0.63032 -3.37504,-0.63046 -3.3816,-0.5953 -3.38681,-0.56431 -3.39262,-0.52884" />
    <path
       id="polyline25716"
       style="display:inline;stroke:#ffe300;stroke-width:1.88976;stroke-miterlimit:4;stroke-dasharray:none;stroke-opacity:1"
       d="m 496.06229,108.87266 -3.40215,-0.46313 -3.40661,-0.4284 -3.41109,-0.39265 -3.41481,-0.35777 -3.41838,-0.32202 -3.42136,-0.28729 -3.42434,-0.25153 -3.42672,-0.21562 -3.42866,-0.18 -3.4288,-0.17986 -3.43045,-0.14558 -3.43164,-0.10968 -3.43267,-0.0738 -3.43328,-0.0383 -3.43357,-0.003 -3.43328,0.0329 -3.43282,0.0684 -3.43194,0.10371" />
    <path
       id="polyline25722"
       style="display:inline;stroke:#ffe300;stroke-width:1.88976;stroke-miterlimit:4;stroke-dasharray:none;stroke-opacity:1"
       d="m 509.44049,88.076673 -3.3743,-0.634937 -3.3804,-0.601557 -3.38622,-0.568627 -3.39157,-0.53495 -3.39649,-0.502465 -3.40155,-0.468193 -3.40587,-0.434665 -3.4099,-0.401138 -3.41004,-0.401138 -3.41391,-0.366865 -3.41719,-0.333487 -3.42047,-0.299512 -3.42315,-0.266283 -3.42553,-0.232457 -3.42776,-0.198185 -3.42955,-0.1657 -3.4309,-0.131875" />
    <path
       id="polyline25728"
       style="display:inline;stroke:#ffe300;stroke-width:1.88976;stroke-miterlimit:4;stroke-dasharray:none;stroke-opacity:1"
       d="m 450.70056,73.91138 -3.43253,-0.07495 -3.43328,-0.04217 -3.43342,-0.0097 -3.43342,0.02295 -3.43313,0.05513 -3.43238,0.08732 -3.43134,0.119209 -3.43015,0.152886 -3.42851,0.184475 -3.4285,0.184625 -3.42673,0.215917 -3.42433,0.248998 -3.42211,0.280438 -3.41928,0.311732 -3.41614,0.344364 -3.41302,0.37521 -3.40915,0.407695 -3.40528,0.440029" />
    <path
       id="polyline25734"
       style="display:inline;stroke:#ffe300;stroke-width:1.88976;stroke-miterlimit:4;stroke-dasharray:none;stroke-opacity:1"
       d="m 471.71691,52.589235 -3.41957,-0.308453 -3.4224,-0.276863 -3.42464,-0.245272 -3.42687,-0.214278 -3.42851,-0.183135 -3.43015,-0.151991 -3.43134,-0.121146 -3.43223,-0.09015 -3.43298,-0.05975 -3.43297,-0.0596 -3.43343,-0.0295" />
    <path
       id="polyline25754"
       style="display:inline;stroke:#ffe300;stroke-width:1.88976;stroke-miterlimit:4;stroke-dasharray:none;stroke-opacity:1"
       d="m 143.7064,187.63217 -13.27652,35.5884"
       sodipodi:nodetypes="cc" />
    <path
       id="polyline25762"
       style="display:inline;stroke:#ffe300;stroke-width:1.88976;stroke-miterlimit:4;stroke-dasharray:none;stroke-opacity:1"
       d="m 190.37961,160.18523 -2.07519,2.73688 -2.02797,2.77206 -1.98032,2.80632 -1.93162,2.84015 -1.88738,2.86966 -1.83869,2.90124 -1.7876,2.93299 -1.73771,2.96294 -1.69139,2.98961 -1.69125,2.9896 -1.63435,3.0212 -1.58968,3.0449 -1.5374,3.07171 -1.48334,3.09824 -1.43151,3.12238 -1.38415,3.14383" />
    <path
       id="line25768"
       style="display:inline;stroke:#ffe300;stroke-width:1.88977;stroke-miterlimit:4;stroke-dasharray:none;stroke-opacity:1"
       d="m 222.78239,126.13351 -2.66751,2.16304" />
    <path
       id="polyline25774"
       style="display:inline;stroke:#ffe300;stroke-width:1.88976;stroke-miterlimit:4;stroke-dasharray:none;stroke-opacity:1"
       d="m 225.2552,153.48792 -2.44721,2.40966 -2.40849,2.44825 -2.36947,2.4861 -2.33,2.52336 -2.28548,2.56358 -2.24422,2.59995 -2.20401,2.63407 -2.1629,2.66804 -2.11927,2.70277 -2.11942,2.70276 -2.07489,2.73718 -2.02961,2.77072 -1.98389,2.80394 -1.93504,2.83762 -1.8859,2.87084 -1.84285,2.89857 -1.7952,2.92836"
       sodipodi:nodetypes="cccccccccccccccccc" />
    <path
       id="polyline25780"
       style="display:inline;stroke:#ffe300;stroke-width:1.88976;stroke-miterlimit:4;stroke-dasharray:none;stroke-opacity:1"
       d="m 268.11834,129.29225 -2.91172,1.82046 -2.88432,1.86369 -2.86034,1.90033" />
    <path
       id="polyline25814"
       style="display:inline;stroke:#ffe300;stroke-width:1.88976;stroke-miterlimit:4;stroke-dasharray:none;stroke-opacity:1"
       d="m 138.11782,179.22482 c -3.45592,8.48907 -6.3039,18.67195 -6.3039,18.67195"
       sodipodi:nodetypes="cc" />
    <path
       id="polyline25820"
       style="display:inline;stroke:#ffe300;stroke-width:1.88976;stroke-miterlimit:4;stroke-dasharray:none;stroke-opacity:1"
       d="m 160.09462,184.50547 -1.48543,3.0972 -1.43717,3.11984 -1.43717,3.11985 -1.38385,3.14399" />
    <path
       id="polyline25826"
       style="display:inline;stroke:#ffe300;stroke-width:1.88976;stroke-miterlimit:4;stroke-dasharray:none;stroke-opacity:1"
       d="m 405.38023,62.7956 -3.41957,0.308453 -3.4169,0.337957 -3.41674,0.337957" />
    <path
       id="polyline25834"
       style="display:inline;stroke:#ffe300;stroke-width:1.88976;stroke-miterlimit:4;stroke-dasharray:none;stroke-opacity:1"
       d="m 398.73291,99.95539 -3.3962,0.5053 -3.39068,0.54031 -3.38487,0.57608 -3.37862,0.61154 -3.37206,0.64701 -3.36522,0.68142 -3.35806,0.71585 -3.35047,0.75102" />
    <path
       id="polyline25840"
       style="display:inline;stroke:#ffe300;stroke-width:1.88976;stroke-miterlimit:4;stroke-dasharray:none;stroke-opacity:1"
       d="m 435.1879,119.04222 -3.42717,0.20787 -3.42464,0.24617 -3.4218,0.28282 -3.42181,0.28282 -3.41868,0.31918 -3.41481,0.35733 -3.41078,0.39458 -3.40632,0.43154 -3.40126,0.46953 -3.39604,0.5059 -3.39008,0.54434 -3.38383,0.58188" />
    <path
       id="polyline25846"
       style="display:inline;stroke:#ffe300;stroke-width:1.88976;stroke-miterlimit:4;stroke-dasharray:none;stroke-opacity:1"
       d="m 424.56758,142.0014 -3.409,0.40934 -3.40394,0.44956 -3.39857,0.48816 -3.39262,0.52884 -3.38606,0.56922 -3.38592,0.56923 -3.37906,0.60915 -3.37266,0.64418" />
    <path
       id="polyline25852"
       style="display:inline;stroke:#ffe300;stroke-width:1.88976;stroke-miterlimit:4;stroke-dasharray:none;stroke-opacity:1"
       d="m 385.37749,117.74284 -3.35791,0.71719 -3.34913,0.75653 -3.34913,0.75653 -3.34064,0.79378" />
    <path
       id="polyline25858"
       style="display:inline;stroke:#ffe300;stroke-width:1.88976;stroke-miterlimit:4;stroke-dasharray:none;stroke-opacity:1"
       d="m 277.86057,132.11288 -2.92453,1.7999 -2.89906,1.84074 -2.89906,1.84058 -2.8742,1.87903 -2.84887,1.91762 -2.82192,1.95697 -2.79422,1.9963 -2.76696,2.034 -2.73897,2.07155 -2.7062,2.11417 -2.67522,2.15351" />
    <path
       id="polyline25870"
       style="display:inline;stroke:#ffe300;stroke-width:1.88976;stroke-miterlimit:4;stroke-dasharray:none;stroke-opacity:1"
       d="m 197.50306,330.01465 -0.42698,3.40863 -0.36875,3.41549 -0.30843,3.42144 -0.25259,3.42591 -0.19271,3.42994 -0.12391,3.43307 -0.0596,3.43485 0.006,3.4353 0.0602,3.43471" />
    <path
       id="polyline25882"
       style="display:inline;stroke:#ffe300;stroke-width:1.88976;stroke-miterlimit:4;stroke-dasharray:none;stroke-opacity:1"
       d="m 347.08992,199.99354 -3.06676,1.54494 -3.0468,1.58369 -3.02208,1.63048 -3.00138,1.66848 -2.978,1.7099 -2.95178,1.75461 -2.92766,1.79454 -2.90294,1.83462 -2.87836,1.87278 -2.87851,1.87277 -2.85141,1.91375 -2.81998,1.95964 -2.79184,1.99958 -2.76279,2.03981 -2.73286,2.07945 -2.70233,2.11924 -2.6709,2.15872" />
    <path
       id="polyline25888"
       style="display:inline;stroke:#ffe300;stroke-width:1.88976;stroke-miterlimit:4;stroke-dasharray:none;stroke-opacity:1"
       d="m 422.11754,198.87968 -3.37207,0.64671 -3.36327,0.69111 -3.3539,0.73567 -3.34362,0.78037 -3.33334,0.82403 -3.32188,0.86874 -3.311,0.90926 -3.29835,0.95427 -3.28553,0.99763 -3.28539,0.99763 -3.27154,1.04278 -3.25679,1.08763 -3.24294,1.12846 -3.22686,1.17391 -3.21003,1.21891 -3.19499,1.2581 -3.17667,1.3034 -3.15775,1.3487" />
    <path
       id="polyline25894"
       style="display:inline;stroke:#ffe300;stroke-width:1.88976;stroke-miterlimit:4;stroke-dasharray:none;stroke-opacity:1"
       d="m 430.7918,212.16998 -3.38398,0.58159 -3.37594,0.62614 -3.3673,0.67145 -3.35896,0.71153 -3.34913,0.75682 -3.33855,0.80228 -3.32754,0.84668 -3.32753,0.84668 -3.31607,0.89064 -3.30326,0.93728 -3.29164,0.97721 -3.2772,1.02431 -3.2632,1.06856 -3.24785,1.11445 -3.23371,1.15424 -3.21733,1.19999" />
    <path
       id="line25900"
       style="display:inline;stroke:#ffe300;stroke-width:1.88977;stroke-miterlimit:4;stroke-dasharray:none;stroke-opacity:1"
       d="m 427.14425,220.22582 -3.38015,0.60274" />
    <path
       id="polyline25906"
       style="display:inline;stroke:#ffe300;stroke-width:1.88976;stroke-miterlimit:4;stroke-dasharray:none;stroke-opacity:1"
       d="m 437.2327,184.66283 -3.4084,0.41455 -3.40274,0.45836 -3.4029,0.45836 -3.39664,0.50172 -3.39008,0.54403 -3.38279,0.58785 -3.37504,0.63121 -3.36685,0.67339 -3.35807,0.71614 -3.34838,0.76041 -3.33796,0.80421" />
    <path
       id="polyline25912"
       style="display:inline;stroke:#ffe300;stroke-width:1.88976;stroke-miterlimit:4;stroke-dasharray:none;stroke-opacity:1"
       d="m 349.91511,183.9218 -3.12112,1.43155 -3.10294,1.47059 -3.08061,1.51693 -3.08046,1.51708 -3.0614,1.55538 -3.03921,1.59859 -3.01761,1.63868 -2.99364,1.68233 -2.97144,1.72108 -2.94806,1.76101 -2.92021,1.80676 -2.89564,1.84595" />
    <path
       id="polyline25918"
       style="display:inline;stroke:#ffe300;stroke-width:1.88976;stroke-miterlimit:4;stroke-dasharray:none;stroke-opacity:1"
       d="m 296.17222,225.39263 -2.61878,2.22175 -2.58319,2.26303" />
    <path
       id="polyline25924"
       style="display:inline;stroke:#ffe300;stroke-width:1.88976;stroke-miterlimit:4;stroke-dasharray:none;stroke-opacity:1"
       d="m 289.90883,190.22377 -2.72749,2.08661 -2.69652,2.12653 -2.6648,2.16633 -2.63263,2.20521 -2.59748,2.24664 -2.56606,2.28241 -2.53389,2.31816 -2.49546,2.35959 -2.49547,2.35944 -2.46389,2.39267 -2.42457,2.43231 -2.39152,2.46494 -2.35055,2.50414 -2.31228,2.53944 -2.27222,2.57551 -2.2344,2.60829"
       sodipodi:nodetypes="ccccccccccccccccc" />
    <path
       id="polyline25930"
       style="display:inline;stroke:#ffe300;stroke-width:1.88976;stroke-miterlimit:4;stroke-dasharray:none;stroke-opacity:1"
       d="m 233.99797,221.89742 -2.02098,2.77712 -1.97465,2.81035 -1.93132,2.84045 -1.88709,2.86981 -1.84628,2.89632 -1.79982,2.92554 -1.75439,2.9531 -1.70718,2.98052 -1.70733,2.98052 -1.66026,3.00704 -1.61038,3.03402 -1.56748,3.05651 -1.51968,3.08051 -1.47381,3.10271 -1.41647,3.12938" />
    <path
       id="polyline25932"
       style="display:inline;stroke:#ffe300;stroke-width:1.88976;stroke-miterlimit:4;stroke-dasharray:none;stroke-opacity:1"
       d="m 231.99412,211.93916 -2.0728,2.73868 -2.02976,2.77086 -2.02977,2.77071 -1.98582,2.80245 -1.94249,2.83255" />
    <path
       id="line25936"
       style="display:inline;stroke:#ffe300;stroke-width:1.88977;stroke-miterlimit:4;stroke-dasharray:none;stroke-opacity:1"
       d="m 190.91885,295.30191 -0.83535,3.33221" />
    <path
       id="polyline25942"
       style="display:inline;stroke:#ffe300;stroke-width:1.88976;stroke-miterlimit:4;stroke-dasharray:none;stroke-opacity:1"
       d="m 238.44814,258.2913 -1.8031,2.92359 -1.75617,2.95176 -1.71389,2.9768 -1.66056,3.00689 -1.61887,3.0294 -1.57076,3.05488 -1.52221,3.07916 -1.4671,3.10599 -1.42064,3.12744 -1.42064,3.12745 -1.36911,3.15039" />
    <path
       id="polyline25948"
       style="display:inline;stroke:#ffe300;stroke-width:1.88976;stroke-miterlimit:4;stroke-dasharray:none;stroke-opacity:1"
       d="m 303.51564,171.48354 -2.89906,1.84059 -2.87405,1.87963 -2.87389,1.87962 -2.84754,1.91941" />
    <path
       id="polyline25962"
       style="display:inline;stroke:#ffe300;stroke-width:1.88976;stroke-miterlimit:4;stroke-dasharray:none;stroke-opacity:1"
       d="m 387.06606,291.27267 -3.21376,1.20907 -3.19558,1.25661 -3.17637,1.30444 -3.15835,1.34721 -3.1375,1.39549 -3.11844,1.43721" />
    <path
       id="polyline25968"
       style="display:inline;stroke:#ffe300;stroke-width:1.88976;stroke-miterlimit:4;stroke-dasharray:none;stroke-opacity:1"
       d="m 437.17343,302.39575 -3.39932,0.48339 -3.39187,0.53242 -3.38428,0.5795 -3.37579,0.62734" />
    <path
       id="polyline25974"
       style="display:inline;stroke:#ffe300;stroke-width:1.88976;stroke-miterlimit:4;stroke-dasharray:none;stroke-opacity:1"
       d="m 404.3757,324.57381 -3.33707,0.80779 -3.32574,0.85398" />
    <path
       id="line25980"
       style="display:inline;stroke:#ffe300;stroke-width:1.88977;stroke-miterlimit:4;stroke-dasharray:none;stroke-opacity:1"
       d="m 403.25576,348.2983 -3.38504,0.57503" />
    <path
       id="polyline25986"
       style="display:inline;stroke:#ffe300;stroke-width:1.88976;stroke-miterlimit:4;stroke-dasharray:none;stroke-opacity:1"
       d="m 447.5167,287.01004 -3.52186,-0.0496 -3.31397,0.47765 -3.39857,0.48861 -3.39858,0.48876"
       sodipodi:nodetypes="ccccc" />
    <path
       id="polyline25992"
       style="display:inline;stroke:#ffe300;stroke-width:1.88976;stroke-miterlimit:4;stroke-dasharray:none;stroke-opacity:1"
       d="m 324.49372,332.83067 -2.68252,2.14412 -2.64603,2.18927" />
    <path
       id="polyline25998"
       style="display:inline;stroke:#ffe300;stroke-width:1.88976;stroke-miterlimit:4;stroke-dasharray:none;stroke-opacity:1"
       d="m 388.35579,269.6376 -3.20125,1.2423 -3.18247,1.28925 -3.18248,1.28924"
       sodipodi:nodetypes="cccc" />
    <path
       id="polyline26006"
       style="display:inline;stroke:#ffe300;stroke-width:1.88976;stroke-miterlimit:4;stroke-dasharray:none;stroke-opacity:1"
       d="m 372.97731,251.10598 -3.12663,1.41948 -3.10503,1.46612 -3.08552,1.50695" />
    <path
       id="polyline26012"
       style="display:inline;stroke:#ffe300;stroke-width:1.88976;stroke-miterlimit:4;stroke-dasharray:none;stroke-opacity:1"
       d="m 263.94052,316.61528 -2.19528,3.8985 -2.44591,4.3436 -1.59861,3.04027"
       sodipodi:nodetypes="cccc" />
    <path
       id="polyline26018"
       style="display:inline;stroke:#ffe300;stroke-width:1.88976;stroke-miterlimit:4;stroke-dasharray:none;stroke-opacity:1"
       d="m 272.30758,319.56749 -1.90942,2.85505 -1.86564,2.88396" />
    <path
       id="polyline26024"
       style="display:inline;stroke:#ffe300;stroke-width:1.88976;stroke-miterlimit:4;stroke-dasharray:none;stroke-opacity:1"
       d="m 430.27024,248.99569 -3.37802,0.61526 -3.37028,0.65535 -3.36104,0.70214 -3.35092,0.74878" />
    <path
       id="polyline26028"
       style="display:inline;stroke:#ffe300;stroke-width:1.88976;stroke-miterlimit:4;stroke-dasharray:none;stroke-opacity:1"
       d="m 439.70255,262.61917 -3.39112,0.53793 -3.38339,0.58428 -3.37504,0.63106 -3.3673,0.67159 -3.35747,0.71883 -3.34704,0.76577" />
    <path
       id="polyline26030"
       style="display:inline;stroke:#ffe300;stroke-width:1.88976;stroke-miterlimit:4;stroke-dasharray:none;stroke-opacity:1"
       d="m 354.07487,321.68255 -2.97547,1.71408 -2.95,1.75773 -2.92453,1.79976 -2.92453,1.7999 -2.89743,1.84312" />
    <path
       id="polyline26034"
       style="display:inline;stroke:#ffe300;stroke-width:1.88976;stroke-miterlimit:4;stroke-dasharray:none;stroke-opacity:1"
       d="m 376.79363,317.41368 -3.15656,1.35153 -3.1381,1.39385 -3.13824,1.39385 -3.11635,1.44183" />
    <path
       id="polyline26036"
       style="display:inline;stroke:#ffe300;stroke-width:1.88976;stroke-miterlimit:4;stroke-dasharray:none;stroke-opacity:1"
       d="m 201.76156,156.28605 -2.21861,2.62185 -2.17497,2.65821 -2.17482,2.65821 -2.13431,2.69099" />
    <path
       id="line26044"
       style="display:inline;stroke:#ffe300;stroke-width:1.88977;stroke-miterlimit:4;stroke-dasharray:none;stroke-opacity:1"
       d="m 483.75296,53.744068 -3.40365,-0.451054" />
    <path
       id="polyline26048"
       style="display:inline;stroke:#ffe300;stroke-width:1.88976;stroke-miterlimit:4;stroke-dasharray:none;stroke-opacity:1"
       d="m 492.67295,70.430034 -3.39857,-0.48816 -3.4032,-0.455229 -3.40319,-0.455229 -3.40751,-0.421999 -3.41138,-0.389515" />
    <path
       id="polyline26056"
       style="display:inline;stroke:#ffe300;stroke-width:1.88976;stroke-miterlimit:4;stroke-dasharray:none;stroke-opacity:1"
       d="m 528.6618,115.35539 -3.34109,-0.7914 -3.34868,-0.75876 -3.35599,-0.72584 -3.36327,-0.69156 -3.36998,-0.65729 -3.36998,-0.65743 -3.37654,-0.62287" />
    <path
       id="polyline26062"
       style="display:inline;stroke:#ffe300;stroke-width:1.88976;stroke-miterlimit:4;stroke-dasharray:none;stroke-opacity:1"
       d="m 396.45041,176.63247 -3.32083,0.87261 -3.31026,0.9118 -3.31041,0.91195 -3.29805,0.95501" />
    <path
       id="polyline22409"
       style="display:inline;stroke:#ffe300;stroke-width:1.88977;stroke-miterlimit:4;stroke-dasharray:none;stroke-opacity:1"
       d="m 54.185511,214.96305 2.518608,-2.17163 2.477072,-2.21896 2.440294,-2.25935 2.394574,-2.3077 2.355634,-2.34765 2.30703,-2.39542 2.261599,-2.43827 2.213283,-2.48242 2.169295,-2.52094 2.169294,-2.52094"
       sodipodi:nodetypes="ccccccccccc" />
    <path
       id="polyline22415"
       style="display:inline;stroke:#ffe300;stroke-width:1.88977;stroke-miterlimit:4;stroke-dasharray:none;stroke-opacity:1"
       d="m 89.559535,212.88535 2.094442,-2.58342 2.047712,-2.62079 1.999541,-2.65773 1.950649,-2.69365 1.902189,-2.72842 1.852432,-2.76219 1.80657,-2.79263 1.75392,-2.82597" />
    <path
       id="line22433"
       style="display:inline;stroke:#ffe300;stroke-width:1.88977;stroke-miterlimit:4;stroke-dasharray:none;stroke-opacity:1"
       d="m 110.24421,233.68659 2.06486,-2.60724" />
    <path
       id="polyline22437"
       style="display:inline;stroke:#ffe300;stroke-width:1.88977;stroke-miterlimit:4;stroke-dasharray:none;stroke-opacity:1"
       d="m 85.445938,240.31763 2.34424,-2.35905 2.307029,-2.39542 2.265638,-2.43466 2.218763,-2.47737 2.174487,-2.51633 2.129344,-2.55485 2.129201,-2.55485 2.08882,-2.58803 2.04396,-2.62368 1.99723,-2.65946 1.94964,-2.69451" />
    <path
       id="polyline22439"
       style="display:inline;stroke:#ffe300;stroke-width:1.88977;stroke-miterlimit:4;stroke-dasharray:none;stroke-opacity:1"
       d="m 111.65355,221.70433 c 2.62436,-3.5747 2.62846,-3.95936 5.11151,-7.63325"
       sodipodi:nodetypes="cc" />
    <path
       id="polyline22451"
       style="display:inline;stroke:#ffe300;stroke-width:1.88977;stroke-miterlimit:4;stroke-dasharray:none;stroke-opacity:1"
       d="m 33.752374,204.80251 2.684612,-1.9627 2.646681,-2.01335 2.64668,-2.01335 2.607596,-2.064 2.570674,-2.10958 2.529858,-2.1585 2.485581,-2.20944 2.439861,-2.25993" />
    <path
       id="polyline22457"
       style="display:inline;stroke:#ffe300;stroke-width:1.88977;stroke-miterlimit:4;stroke-dasharray:none;stroke-opacity:1"
       d="m 38.816129,234.10502 2.763503,-1.84988 2.727591,-1.90225 2.693842,-1.94972 2.693987,-1.94972 2.659661,-1.99632" />
    <path
       id="polyline22463"
       style="display:inline;stroke:#ffe300;stroke-width:1.88977;stroke-miterlimit:4;stroke-dasharray:none;stroke-opacity:1"
       d="m 95.27865,218.553 2.072808,-2.60088 2.026223,-2.63738 2.026219,-2.63724 1.97863,-2.67331" />
  </g>
  <WCB
     layer="-1"
     node="0"
     lastpath="0"
     lastpathnc="0"
     lastknownposx="0"
     lastknownposy="0"
     pausedposx="0"
     pausedposy="0"
     randseed="0"
     row="0"
     application="Axidraw" />
</svg>
